  0
SECTION
  2
HEADER
  9
$ACADVER
  1
AC1021
  9
$ACADMAINTVER
 70
    25
  9
$DWGCODEPAGE
  3
ANSI_1251
  9
$INSBASE
 10
0.0
 20
0.0
 30
0.0
  9
$EXTMIN
 10
-7.55669
 20
-4.84177
 30
0.0
  9
$EXTMAX
 10
7.84923
 20
5.53638
 30
0.0
  9
$LIMMIN
 10
0.0
 20
0.0
  9
$LIMMAX
 10
12.0
 20
9.0
  9
$ORTHOMODE
 70
     0
  9
$REGENMODE
 70
     1
  9
$FILLMODE
 70
     1
  9
$QTEXTMODE
 70
     0
  9
$MIRRTEXT
 70
     1
  9
$LTSCALE
 40
1.0
  9
$ATTMODE
 70
     1
  9
$TEXTSIZE
 40
0.2
  9
$TRACEWID
 40
0.05
  9
$TEXTSTYLE
  7
Standard
  9
$CLAYER
  8
0
  9
$CELTYPE
  6
ByLayer
  9
$CECOLOR
 62
   256
  9
$CELTSCALE
 40
1.0
  9
$DISPSILH
 70
     0
  9
$DIMSCALE
 40
1.0
  9
$DIMASZ
 40
0.18
  9
$DIMEXO
 40
0.0625
  9
$DIMDLI
 40
0.38
  9
$DIMRND
 40
0.0
  9
$DIMDLE
 40
0.0
  9
$DIMEXE
 40
0.18
  9
$DIMTP
 40
0.0
  9
$DIMTM
 40
0.0
  9
$DIMTXT
 40
0.18
  9
$DIMCEN
 40
0.09
  9
$DIMTSZ
 40
0.0
  9
$DIMTOL
 70
     0
  9
$DIMLIM
 70
     0
  9
$DIMTIH
 70
     1
  9
$DIMTOH
 70
     1
  9
$DIMSE1
 70
     0
  9
$DIMSE2
 70
     0
  9
$DIMTAD
 70
     0
  9
$DIMZIN
 70
     0
  9
$DIMBLK
  1

  9
$DIMASO
 70
     1
  9
$DIMSHO
 70
     1
  9
$DIMPOST
  1

  9
$DIMAPOST
  1

  9
$DIMALT
 70
     0
  9
$DIMALTD
 70
     2
  9
$DIMALTF
 40
25.4
  9
$DIMLFAC
 40
1.0
  9
$DIMTOFL
 70
     0
  9
$DIMTVP
 40
0.0
  9
$DIMTIX
 70
     0
  9
$DIMSOXD
 70
     0
  9
$DIMSAH
 70
     0
  9
$DIMBLK1
  1

  9
$DIMBLK2
  1

  9
$DIMSTYLE
  2
Standard
  9
$DIMCLRD
 70
     0
  9
$DIMCLRE
 70
     0
  9
$DIMCLRT
 70
     0
  9
$DIMTFAC
 40
1.0
  9
$DIMGAP
 40
0.09
  9
$DIMJUST
 70
     0
  9
$DIMSD1
 70
     0
  9
$DIMSD2
 70
     0
  9
$DIMTOLJ
 70
     1
  9
$DIMTZIN
 70
     0
  9
$DIMALTZ
 70
     0
  9
$DIMALTTZ
 70
     0
  9
$DIMUPT
 70
     0
  9
$DIMDEC
 70
     4
  9
$DIMTDEC
 70
     4
  9
$DIMALTU
 70
     2
  9
$DIMALTTD
 70
     2
  9
$DIMTXSTY
  7
Standard
  9
$DIMAUNIT
 70
     0
  9
$DIMADEC
 70
     0
  9
$DIMALTRND
 40
0.0
  9
$DIMAZIN
 70
     0
  9
$DIMDSEP
 70
    46
  9
$DIMATFIT
 70
     3
  9
$DIMFRAC
 70
     0
  9
$DIMLDRBLK
  1

  9
$DIMLUNIT
 70
     2
  9
$DIMLWD
 70
    -2
  9
$DIMLWE
 70
    -2
  9
$DIMTMOVE
 70
     0
  9
$DIMFXL
 40
1.0
  9
$DIMFXLON
 70
     0
  9
$DIMJOGANG
 40
0.7853981633974483
  9
$DIMTFILL
 70
     0
  9
$DIMTFILLCLR
 70
     0
  9
$DIMARCSYM
 70
     0
  9
$DIMLTYPE
  6

  9
$DIMLTEX1
  6

  9
$DIMLTEX2
  6

  9
$LUNITS
 70
     2
  9
$LUPREC
 70
     4
  9
$SKETCHINC
 40
0.1
  9
$FILLETRAD
 40
0.5
  9
$AUNITS
 70
     0
  9
$AUPREC
 70
     0
  9
$MENU
  1
.
  9
$ELEVATION
 40
0.0
  9
$PELEVATION
 40
0.0
  9
$THICKNESS
 40
0.0
  9
$LIMCHECK
 70
     0
  9
$CHAMFERA
 40
0.5
  9
$CHAMFERB
 40
0.5
  9
$CHAMFERC
 40
1.0
  9
$CHAMFERD
 40
0.0
  9
$SKPOLY
 70
     0
  9
$TDCREATE
 40
2457235.645492581
  9
$TDUCREATE
 40
2457235.478825914
  9
$TDUPDATE
 40
2457235.645492592
  9
$TDUUPDATE
 40
2457235.478825926
  9
$TDINDWG
 40
0.0000000116
  9
$TDUSRTIMER
 40
0.0000000116
  9
$USRTIMER
 70
     1
  9
$ANGBASE
 50
0.0
  9
$ANGDIR
 70
     0
  9
$PDMODE
 70
     0
  9
$PDSIZE
 40
0.0
  9
$PLINEWID
 40
0.0
  9
$SPLFRAME
 70
     0
  9
$SPLINETYPE
 70
     6
  9
$SPLINESEGS
 70
     8
  9
$HANDSEED
  5
70
  9
$SURFTAB1
 70
     6
  9
$SURFTAB2
 70
     6
  9
$SURFTYPE
 70
     6
  9
$SURFU
 70
     6
  9
$SURFV
 70
     6
  9
$UCSBASE
  2

  9
$UCSNAME
  2

  9
$UCSORG
 10
0.0
 20
0.0
 30
0.0
  9
$UCSXDIR
 10
1.0
 20
0.0
 30
0.0
  9
$UCSYDIR
 10
0.0
 20
1.0
 30
0.0
  9
$UCSORTHOREF
  2

  9
$UCSORTHOVIEW
 70
     0
  9
$UCSORGTOP
 10
0.0
 20
0.0
 30
0.0
  9
$UCSORGBOTTOM
 10
0.0
 20
0.0
 30
0.0
  9
$UCSORGLEFT
 10
0.0
 20
0.0
 30
0.0
  9
$UCSORGRIGHT
 10
0.0
 20
0.0
 30
0.0
  9
$UCSORGFRONT
 10
0.0
 20
0.0
 30
0.0
  9
$UCSORGBACK
 10
0.0
 20
0.0
 30
0.0
  9
$PUCSBASE
  2

  9
$PUCSNAME
  2

  9
$PUCSORG
 10
0.0
 20
0.0
 30
0.0
  9
$PUCSXDIR
 10
1.0
 20
0.0
 30
0.0
  9
$PUCSYDIR
 10
0.0
 20
1.0
 30
0.0
  9
$PUCSORTHOREF
  2

  9
$PUCSORTHOVIEW
 70
     0
  9
$PUCSORGTOP
 10
0.0
 20
0.0
 30
0.0
  9
$PUCSORGBOTTOM
 10
0.0
 20
0.0
 30
0.0
  9
$PUCSORGLEFT
 10
0.0
 20
0.0
 30
0.0
  9
$PUCSORGRIGHT
 10
0.0
 20
0.0
 30
0.0
  9
$PUCSORGFRONT
 10
0.0
 20
0.0
 30
0.0
  9
$PUCSORGBACK
 10
0.0
 20
0.0
 30
0.0
  9
$USERI1
 70
     0
  9
$USERI2
 70
     0
  9
$USERI3
 70
     0
  9
$USERI4
 70
     0
  9
$USERI5
 70
     0
  9
$USERR1
 40
0.0
  9
$USERR2
 40
0.0
  9
$USERR3
 40
0.0
  9
$USERR4
 40
0.0
  9
$USERR5
 40
0.0
  9
$WORLDVIEW
 70
     1
  9
$SHADEDGE
 70
     3
  9
$SHADEDIF
 70
    70
  9
$TILEMODE
 70
     1
  9
$MAXACTVP
 70
    64
  9
$PINSBASE
 10
0.0
 20
0.0
 30
0.0
  9
$PLIMCHECK
 70
     0
  9
$PEXTMIN
 10
1.000000000000000E+20
 20
1.000000000000000E+20
 30
1.000000000000000E+20
  9
$PEXTMAX
 10
-1.000000000000000E+20
 20
-1.000000000000000E+20
 30
-1.000000000000000E+20
  9
$PLIMMIN
 10
0.0
 20
0.0
  9
$PLIMMAX
 10
12.0
 20
9.0
  9
$UNITMODE
 70
     0
  9
$VISRETAIN
 70
     1
  9
$PLINEGEN
 70
     0
  9
$PSLTSCALE
 70
     1
  9
$TREEDEPTH
 70
  3020
  9
$CMLSTYLE
  2
Standard
  9
$CMLJUST
 70
     0
  9
$CMLSCALE
 40
1.0
  9
$PROXYGRAPHICS
 70
     1
  9
$MEASUREMENT
 70
     0
  9
$CELWEIGHT
370
    -1
  9
$ENDCAPS
280
     0
  9
$JOINSTYLE
280
     0
  9
$LWDISPLAY
290
     0
  9
$INSUNITS
 70
     5
  9
$HYPERLINKBASE
  1

  9
$STYLESHEET
  1

  9
$XEDIT
290
     1
  9
$CEPSNTYPE
380
     0
  9
$PSTYLEMODE
290
     1
  9
$FINGERPRINTGUID
  2
{29C77440-D17B-4B80-ABB5-47BEC83F78B4}
  9
$VERSIONGUID
  2
{FAEB1C32-E019-11D5-929B-00C0DF256EC4}
  9
$EXTNAMES
290
     1
  9
$PSVPSCALE
 40
0.0
  9
$OLESTARTUP
290
     0
  9
$SORTENTS
280
   127
  9
$INDEXCTL
280
     0
  9
$HIDETEXT
280
     1
  9
$XCLIPFRAME
290
     0
  9
$HALOGAP
280
     0
  9
$OBSCOLOR
 70
   257
  9
$OBSLTYPE
280
     0
  9
$INTERSECTIONDISPLAY
280
     0
  9
$INTERSECTIONCOLOR
 70
   257
  9
$DIMASSOC
280
     2
  9
$PROJECTNAME
  1

  9
$CAMERADISPLAY
290
     0
  9
$LENSLENGTH
 40
50.0
  9
$CAMERAHEIGHT
 40
0.0
  9
$STEPSPERSEC
 40
2.0
  9
$STEPSIZE
 40
6.0
  9
$3DDWFPREC
 40
2.0
  9
$PSOLWIDTH
 40
0.25
  9
$PSOLHEIGHT
 40
4.0
  9
$LOFTANG1
 40
1.570796326794897
  9
$LOFTANG2
 40
1.570796326794897
  9
$LOFTMAG1
 40
0.0
  9
$LOFTMAG2
 40
0.0
  9
$LOFTPARAM
 70
     7
  9
$LOFTNORMALS
280
     1
  9
$LATITUDE
 40
37.795
  9
$LONGITUDE
 40
-122.394
  9
$NORTHDIRECTION
 40
0.0
  9
$TIMEZONE
 70
 -8000
  9
$LIGHTGLYPHDISPLAY
280
     1
  9
$TILEMODELIGHTSYNCH
280
     1
  9
$SOLIDHIST
280
     1
  9
$SHOWHIST
280
     1
  9
$DWFFRAME
280
     2
  9
$DGNFRAME
280
     2
  9
$REALWORLDSCALE
290
     1
  9
$INTERFERECOLOR
 62
   256
  9
$CSHADOW
280
     0
  9
$SHADOWPLANELOCATION
 40
0.0
  0
ENDSEC
  0
SECTION
  2
CLASSES
  0
CLASS
  1
ACDBDICTIONARYWDFLT
  2
AcDbDictionaryWithDefault
  3
ObjectDBX Classes
 90
        0
 91
        4
280
     0
281
     0
  0
CLASS
  1
VISUALSTYLE
  2
AcDbVisualStyle
  3
ObjectDBX Classes
 90
     4095
 91
        4
280
     0
281
     0
  0
CLASS
  1
MATERIAL
  2
AcDbMaterial
  3
ObjectDBX Classes
 90
     1153
 91
        4
280
     0
281
     0
  0
ENDSEC
  0
SECTION
  2
TABLES
  0
TABLE
  2
VPORT
  5
8
330
0
100
AcDbSymbolTable
 70
     1
  0
VPORT
  5
29
330
8
100
AcDbSymbolTableRecord
100
AcDbViewportTableRecord
  2
*Active
 70
     0
 10
0.0
 20
0.0
 11
1.0
 21
1.0
 12
10.42990654205607
 22
4.5
 13
0.0
 23
0.0
 14
0.5
 24
0.5
 15
0.5
 25
0.5
 16
0.0
 26
0.0
 36
1.0
 17
0.0
 27
0.0
 37
0.0
 40
9.0
 41
1.972972972850329
 42
50.0
 43
0.0
 44
0.0
 50
0.0
 51
0.0
 71
     0
 72
   100
 73
     1
 74
     3
 75
     0
 76
     0
 77
     0
 78
     0
281
     0
 65
     1
110
0.0
120
0.0
130
0.0
111
1.0
121
0.0
131
0.0
112
0.0
122
1.0
132
0.0
 79
     0
146
0.0
 60
     3
 61
     5
292
     1
282
     1
141
0.0
142
0.0
 63
   250
  0
ENDTAB
  0
TABLE
  2
LTYPE
  5
5
330
0
100
AcDbSymbolTable
 70
     1
  0
LTYPE
  5
14
330
5
100
AcDbSymbolTableRecord
100
AcDbLinetypeTableRecord
  2
ByBlock
 70
     0
  3

 72
    65
 73
     0
 40
0.0
  0
LTYPE
  5
15
330
5
100
AcDbSymbolTableRecord
100
AcDbLinetypeTableRecord
  2
ByLayer
 70
     0
  3

 72
    65
 73
     0
 40
0.0
  0
LTYPE
  5
16
330
5
100
AcDbSymbolTableRecord
100
AcDbLinetypeTableRecord
  2
Continuous
 70
     0
  3
Solid line
 72
    65
 73
     0
 40
0.0
  0
ENDTAB
  0
TABLE
  2
LAYER
  5
2
330
0
100
AcDbSymbolTable
 70
     2
  0
LAYER
  5
10
330
2
100
AcDbSymbolTableRecord
100
AcDbLayerTableRecord
  2
0
 70
     0
 62
     7
  6
Continuous
370
    -3
390
F
347
3E
  0
LAYER
  5
40
330
2
100
AcDbSymbolTableRecord
100
AcDbLayerTableRecord
  2
layer 1
 70
     0
 62
     7
  6
Continuous
370
    -3
390
F
347
3E
  0
ENDTAB
  0
TABLE
  2
STYLE
  5
3
330
0
100
AcDbSymbolTable
 70
     1
  0
STYLE
  5
11
330
3
100
AcDbSymbolTableRecord
100
AcDbTextStyleTableRecord
  2
Standard
 70
     0
 40
0.0
 41
1.0
 50
0.0
 71
     0
 42
0.2
  3
txt
  4

  0
ENDTAB
  0
TABLE
  2
VIEW
  5
6
330
0
100
AcDbSymbolTable
 70
     0
  0
ENDTAB
  0
TABLE
  2
UCS
  5
7
330
0
100
AcDbSymbolTable
 70
     0
  0
ENDTAB
  0
TABLE
  2
APPID
  5
9
330
0
100
AcDbSymbolTable
 70
     2
  0
APPID
  5
12
330
9
100
AcDbSymbolTableRecord
100
AcDbRegAppTableRecord
  2
ACAD
 70
     0
  0
APPID
  5
3F
330
9
100
AcDbSymbolTableRecord
100
AcDbRegAppTableRecord
  2
ODA
 70
     0
  0
ENDTAB
  0
TABLE
  2
DIMSTYLE
  5
A
330
0
100
AcDbSymbolTable
 70
     1
100
AcDbDimStyleTable
  0
DIMSTYLE
105
27
330
A
100
AcDbSymbolTableRecord
100
AcDbDimStyleTableRecord
  2
Standard
 70
     0
178
     0
340
11
  0
ENDTAB
  0
TABLE
  2
BLOCK_RECORD
  5
1
330
0
100
AcDbSymbolTable
 70
     1
  0
BLOCK_RECORD
  5
1F
330
1
100
AcDbSymbolTableRecord
100
AcDbBlockTableRecord
  2
*Model_Space
340
22
 70
     0
280
     1
281
     0
  0
BLOCK_RECORD
  5
1B
330
1
100
AcDbSymbolTableRecord
100
AcDbBlockTableRecord
  2
*Paper_Space
340
1E
 70
     0
280
     1
281
     0
  0
BLOCK_RECORD
  5
23
330
1
100
AcDbSymbolTableRecord
100
AcDbBlockTableRecord
  2
*Paper_Space0
340
26
 70
     0
280
     1
281
     0
  0
ENDTAB
  0
ENDSEC
  0
SECTION
  2
BLOCKS
  0
BLOCK
  5
20
330
1F
100
AcDbEntity
  8
0
100
AcDbBlockBegin
  2
*Model_Space
 70
     0
 10
0.0
 20
0.0
 30
0.0
  3
*Model_Space
  1

  0
ENDBLK
  5
21
330
1F
100
AcDbEntity
  8
0
100
AcDbBlockEnd
  0
BLOCK
  5
1C
330
1B
100
AcDbEntity
 67
     1
  8
0
100
AcDbBlockBegin
  2
*Paper_Space
 70
     0
 10
0.0
 20
0.0
 30
0.0
  3
*Paper_Space
  1

  0
ENDBLK
  5
1D
330
1B
100
AcDbEntity
 67
     1
  8
0
100
AcDbBlockEnd
  0
BLOCK
  5
24
330
23
100
AcDbEntity
  8
0
100
AcDbBlockBegin
  2
*Paper_Space0
 70
     0
 10
0.0
 20
0.0
 30
0.0
  3
*Paper_Space0
  1

  0
ENDBLK
  5
25
330
23
100
AcDbEntity
  8
0
100
AcDbBlockEnd
  0
ENDSEC
  0
SECTION
  2
ENTITIES
  0
SPLINE
  5
41
330
1F
100
AcDbEntity
  8
layer 1
 62
   250
100
AcDbSpline
210
0.0
220
0.0
230
1.0
 70
    11
 71
     3
 72
   252
 73
   248
 74
     0
 42
0.0000000001
 43
0.0000000001
 12
1.0
 22
0.0
 32
0.0
 13
1.0
 23
0.0
 33
0.0
 40
0.0
 40
0.0
 40
0.0
 40
0.0
 40
0.0158730158730159
 40
0.0158730158730159
 40
0.0158730158730159
 40
0.0158730158730159
 40
0.0317460317460317
 40
0.0317460317460317
 40
0.0317460317460317
 40
0.0317460317460317
 40
0.0476190476190476
 40
0.0476190476190476
 40
0.0476190476190476
 40
0.0476190476190476
 40
0.0634920634920635
 40
0.0634920634920635
 40
0.0634920634920635
 40
0.0634920634920635
 40
0.0793650793650794
 40
0.0793650793650794
 40
0.0793650793650794
 40
0.0793650793650794
 40
0.0952380952380952
 40
0.0952380952380952
 40
0.0952380952380952
 40
0.0952380952380952
 40
0.1111111111111111
 40
0.1111111111111111
 40
0.1111111111111111
 40
0.1111111111111111
 40
0.126984126984127
 40
0.126984126984127
 40
0.126984126984127
 40
0.126984126984127
 40
0.1428571428571428
 40
0.1428571428571428
 40
0.1428571428571428
 40
0.1428571428571428
 40
0.1587301587301587
 40
0.1587301587301587
 40
0.1587301587301587
 40
0.1587301587301587
 40
0.1746031746031746
 40
0.1746031746031746
 40
0.1746031746031746
 40
0.1746031746031746
 40
0.1904761904761905
 40
0.1904761904761905
 40
0.1904761904761905
 40
0.1904761904761905
 40
0.2063492063492063
 40
0.2063492063492063
 40
0.2063492063492063
 40
0.2063492063492063
 40
0.2222222222222222
 40
0.2222222222222222
 40
0.2222222222222222
 40
0.2222222222222222
 40
0.2380952380952381
 40
0.2380952380952381
 40
0.2380952380952381
 40
0.2380952380952381
 40
0.253968253968254
 40
0.253968253968254
 40
0.253968253968254
 40
0.253968253968254
 40
0.2698412698412698
 40
0.2698412698412698
 40
0.2698412698412698
 40
0.2698412698412698
 40
0.2857142857142857
 40
0.2857142857142857
 40
0.2857142857142857
 40
0.2857142857142857
 40
0.3015873015873016
 40
0.3015873015873016
 40
0.3015873015873016
 40
0.3015873015873016
 40
0.3174603174603174
 40
0.3174603174603174
 40
0.3174603174603174
 40
0.3174603174603174
 40
0.3333333333333333
 40
0.3333333333333333
 40
0.3333333333333333
 40
0.3333333333333333
 40
0.3492063492063492
 40
0.3492063492063492
 40
0.3492063492063492
 40
0.3492063492063492
 40
0.3650793650793651
 40
0.3650793650793651
 40
0.3650793650793651
 40
0.3650793650793651
 40
0.3809523809523809
 40
0.3809523809523809
 40
0.3809523809523809
 40
0.3809523809523809
 40
0.3968253968253968
 40
0.3968253968253968
 40
0.3968253968253968
 40
0.3968253968253968
 40
0.4126984126984127
 40
0.4126984126984127
 40
0.4126984126984127
 40
0.4126984126984127
 40
0.4285714285714285
 40
0.4285714285714285
 40
0.4285714285714285
 40
0.4285714285714285
 40
0.4444444444444444
 40
0.4444444444444444
 40
0.4444444444444444
 40
0.4444444444444444
 40
0.4603174603174603
 40
0.4603174603174603
 40
0.4603174603174603
 40
0.4603174603174603
 40
0.4761904761904762
 40
0.4761904761904762
 40
0.4761904761904762
 40
0.4761904761904762
 40
0.492063492063492
 40
0.492063492063492
 40
0.492063492063492
 40
0.492063492063492
 40
0.5079365079365079
 40
0.5079365079365079
 40
0.5079365079365079
 40
0.5079365079365079
 40
0.5238095238095238
 40
0.5238095238095238
 40
0.5238095238095238
 40
0.5238095238095238
 40
0.5396825396825397
 40
0.5396825396825397
 40
0.5396825396825397
 40
0.5396825396825397
 40
0.5555555555555556
 40
0.5555555555555556
 40
0.5555555555555556
 40
0.5555555555555556
 40
0.5714285714285714
 40
0.5714285714285714
 40
0.5714285714285714
 40
0.5714285714285714
 40
0.5873015873015873
 40
0.5873015873015873
 40
0.5873015873015873
 40
0.5873015873015873
 40
0.6031746031746031
 40
0.6031746031746031
 40
0.6031746031746031
 40
0.6031746031746031
 40
0.6190476190476191
 40
0.6190476190476191
 40
0.6190476190476191
 40
0.6190476190476191
 40
0.6349206349206349
 40
0.6349206349206349
 40
0.6349206349206349
 40
0.6349206349206349
 40
0.6507936507936508
 40
0.6507936507936508
 40
0.6507936507936508
 40
0.6507936507936508
 40
0.6666666666666666
 40
0.6666666666666666
 40
0.6666666666666666
 40
0.6666666666666666
 40
0.6825396825396826
 40
0.6825396825396826
 40
0.6825396825396826
 40
0.6825396825396826
 40
0.6984126984126984
 40
0.6984126984126984
 40
0.6984126984126984
 40
0.6984126984126984
 40
0.7142857142857143
 40
0.7142857142857143
 40
0.7142857142857143
 40
0.7142857142857143
 40
0.7301587301587301
 40
0.7301587301587301
 40
0.7301587301587301
 40
0.7301587301587301
 40
0.746031746031746
 40
0.746031746031746
 40
0.746031746031746
 40
0.746031746031746
 40
0.7619047619047619
 40
0.7619047619047619
 40
0.7619047619047619
 40
0.7619047619047619
 40
0.7777777777777778
 40
0.7777777777777778
 40
0.7777777777777778
 40
0.7777777777777778
 40
0.7936507936507936
 40
0.7936507936507936
 40
0.7936507936507936
 40
0.7936507936507936
 40
0.8095238095238095
 40
0.8095238095238095
 40
0.8095238095238095
 40
0.8095238095238095
 40
0.8253968253968254
 40
0.8253968253968254
 40
0.8253968253968254
 40
0.8253968253968254
 40
0.8412698412698413
 40
0.8412698412698413
 40
0.8412698412698413
 40
0.8412698412698413
 40
0.8571428571428571
 40
0.8571428571428571
 40
0.8571428571428571
 40
0.8571428571428571
 40
0.873015873015873
 40
0.873015873015873
 40
0.873015873015873
 40
0.873015873015873
 40
0.8888888888888888
 40
0.8888888888888888
 40
0.8888888888888888
 40
0.8888888888888888
 40
0.9047619047619048
 40
0.9047619047619048
 40
0.9047619047619048
 40
0.9047619047619048
 40
0.9206349206349206
 40
0.9206349206349206
 40
0.9206349206349206
 40
0.9206349206349206
 40
0.9365079365079365
 40
0.9365079365079365
 40
0.9365079365079365
 40
0.9365079365079365
 40
0.9523809523809523
 40
0.9523809523809523
 40
0.9523809523809523
 40
0.9523809523809523
 40
0.9682539682539683
 40
0.9682539682539683
 40
0.9682539682539683
 40
0.9682539682539683
 40
1.0
 40
1.0
 40
1.0
 40
1.0
 10
-6.52156
 20
-2.82846
 30
0.0
 10
-6.52156
 20
-2.82846
 30
0.0
 10
-6.58164
 20
-2.87222
 30
0.0
 10
-6.58164
 20
-2.87222
 30
0.0
 10
-6.58164
 20
-2.87222
 30
0.0
 10
-6.58164
 20
-2.87222
 30
0.0
 10
-6.63445
 20
-2.91228
 30
0.0
 10
-6.63445
 20
-2.91228
 30
0.0
 10
-6.63445
 20
-2.91228
 30
0.0
 10
-6.63445
 20
-2.91228
 30
0.0
 10
-6.68159
 20
-2.9558
 30
0.0
 10
-6.68159
 20
-2.9558
 30
0.0
 10
-6.68159
 20
-2.9558
 30
0.0
 10
-6.68159
 20
-2.9558
 30
0.0
 10
-6.71769
 20
-2.99205
 30
0.0
 10
-6.71769
 20
-2.99205
 30
0.0
 10
-6.71769
 20
-2.99205
 30
0.0
 10
-6.71769
 20
-2.99205
 30
0.0
 10
-6.75558
 20
-3.03196
 30
0.0
 10
-6.75558
 20
-3.03196
 30
0.0
 10
-6.75558
 20
-3.03196
 30
0.0
 10
-6.75558
 20
-3.03196
 30
0.0
 10
-6.79025
 20
-3.08083
 30
0.0
 10
-6.79025
 20
-3.08083
 30
0.0
 10
-6.79025
 20
-3.08083
 30
0.0
 10
-6.79025
 20
-3.08083
 30
0.0
 10
-6.81764
 20
-3.12618
 30
0.0
 10
-6.81764
 20
-3.12618
 30
0.0
 10
-6.81764
 20
-3.12618
 30
0.0
 10
-6.81764
 20
-3.12618
 30
0.0
 10
-6.83926
 20
-3.17341
 30
0.0
 10
-6.83926
 20
-3.17341
 30
0.0
 10
-6.83926
 20
-3.17341
 30
0.0
 10
-6.83926
 20
-3.17341
 30
0.0
 10
-6.8576
 20
-3.21688
 30
0.0
 10
-6.8576
 20
-3.21688
 30
0.0
 10
-6.8576
 20
-3.21688
 30
0.0
 10
-6.8576
 20
-3.21688
 30
0.0
 10
-6.87734
 20
-3.27518
 30
0.0
 10
-6.87734
 20
-3.27518
 30
0.0
 10
-6.87734
 20
-3.27518
 30
0.0
 10
-6.87734
 20
-3.27518
 30
0.0
 10
-6.89202
 20
-3.34205
 30
0.0
 10
-6.89202
 20
-3.34205
 30
0.0
 10
-6.89202
 20
-3.34205
 30
0.0
 10
-6.89202
 20
-3.34205
 30
0.0
 10
-6.89934
 20
-3.41268
 30
0.0
 10
-6.89934
 20
-3.41268
 30
0.0
 10
-6.89934
 20
-3.41268
 30
0.0
 10
-6.89934
 20
-3.41268
 30
0.0
 10
-6.90271
 20
-3.49977
 30
0.0
 10
-6.90271
 20
-3.49977
 30
0.0
 10
-6.90271
 20
-3.49977
 30
0.0
 10
-6.90271
 20
-3.49977
 30
0.0
 10
-6.89761
 20
-3.6144
 30
0.0
 10
-6.89761
 20
-3.6144
 30
0.0
 10
-6.89761
 20
-3.6144
 30
0.0
 10
-6.89761
 20
-3.6144
 30
0.0
 10
-6.88836
 20
-3.68874
 30
0.0
 10
-6.88836
 20
-3.68874
 30
0.0
 10
-6.88836
 20
-3.68874
 30
0.0
 10
-6.88836
 20
-3.68874
 30
0.0
 10
-6.87161
 20
-3.75181
 30
0.0
 10
-6.87161
 20
-3.75181
 30
0.0
 10
-6.87161
 20
-3.75181
 30
0.0
 10
-6.87161
 20
-3.75181
 30
0.0
 10
-6.83733
 20
-3.82286
 30
0.0
 10
-6.83733
 20
-3.82286
 30
0.0
 10
-6.83733
 20
-3.82286
 30
0.0
 10
-6.83733
 20
-3.82286
 30
0.0
 10
-6.79564
 20
-3.88429
 30
0.0
 10
-6.79564
 20
-3.88429
 30
0.0
 10
-6.79564
 20
-3.88429
 30
0.0
 10
-6.79564
 20
-3.88429
 30
0.0
 10
-6.75212
 20
-3.94433
 30
0.0
 10
-6.75212
 20
-3.94433
 30
0.0
 10
-6.75212
 20
-3.94433
 30
0.0
 10
-6.75212
 20
-3.94433
 30
0.0
 10
-6.69791
 20
-4.0059
 30
0.0
 10
-6.69791
 20
-4.0059
 30
0.0
 10
-6.69791
 20
-4.0059
 30
0.0
 10
-6.69791
 20
-4.0059
 30
0.0
 10
-6.6399
 20
-4.06223
 30
0.0
 10
-6.6399
 20
-4.06223
 30
0.0
 10
-6.6399
 20
-4.06223
 30
0.0
 10
-6.6399
 20
-4.06223
 30
0.0
 10
-6.58876
 20
-4.10214
 30
0.0
 10
-6.58876
 20
-4.10214
 30
0.0
 10
-6.58876
 20
-4.10214
 30
0.0
 10
-6.58876
 20
-4.10214
 30
0.0
 10
-6.53812
 20
-4.13628
 30
0.0
 10
-6.53812
 20
-4.13628
 30
0.0
 10
-6.53812
 20
-4.13628
 30
0.0
 10
-6.53812
 20
-4.13628
 30
0.0
 10
-6.48208
 20
-4.16545
 30
0.0
 10
-6.48208
 20
-4.16545
 30
0.0
 10
-6.48208
 20
-4.16545
 30
0.0
 10
-6.48208
 20
-4.16545
 30
0.0
 10
-6.42026
 20
-4.19097
 30
0.0
 10
-6.42026
 20
-4.19097
 30
0.0
 10
-6.42026
 20
-4.19097
 30
0.0
 10
-6.42026
 20
-4.19097
 30
0.0
 10
-6.36042
 20
-4.20719
 30
0.0
 10
-6.36042
 20
-4.20719
 30
0.0
 10
-6.36042
 20
-4.20719
 30
0.0
 10
-6.36042
 20
-4.20719
 30
0.0
 10
-6.29711
 20
-4.21822
 30
0.0
 10
-6.29711
 20
-4.21822
 30
0.0
 10
-6.29711
 20
-4.21822
 30
0.0
 10
-6.29711
 20
-4.21822
 30
0.0
 10
-6.22629
 20
-4.22361
 30
0.0
 10
-6.22629
 20
-4.22361
 30
0.0
 10
-6.22629
 20
-4.22361
 30
0.0
 10
-6.22629
 20
-4.22361
 30
0.0
 10
-6.13747
 20
-4.22727
 30
0.0
 10
-6.13747
 20
-4.22727
 30
0.0
 10
-6.13747
 20
-4.22727
 30
0.0
 10
-6.13747
 20
-4.22727
 30
0.0
 10
-6.05399
 20
-4.22
 30
0.0
 10
-6.05399
 20
-4.22
 30
0.0
 10
-6.05399
 20
-4.22
 30
0.0
 10
-6.05399
 20
-4.22
 30
0.0
 10
-5.98148
 20
-4.20897
 30
0.0
 10
-5.98148
 20
-4.20897
 30
0.0
 10
-5.98148
 20
-4.20897
 30
0.0
 10
-5.98148
 20
-4.20897
 30
0.0
 10
-5.89988
 20
-4.19275
 30
0.0
 10
-5.89988
 20
-4.19275
 30
0.0
 10
-5.89988
 20
-4.19275
 30
0.0
 10
-5.89988
 20
-4.19275
 30
0.0
 10
-5.83623
 20
-4.16916
 30
0.0
 10
-5.83623
 20
-4.16916
 30
0.0
 10
-5.83623
 20
-4.16916
 30
0.0
 10
-5.83623
 20
-4.16916
 30
0.0
 10
-5.76931
 20
-4.13084
 30
0.0
 10
-5.76931
 20
-4.13084
 30
0.0
 10
-5.76931
 20
-4.13084
 30
0.0
 10
-5.76931
 20
-4.13084
 30
0.0
 10
-5.69647
 20
-4.08033
 30
0.0
 10
-5.69647
 20
-4.08033
 30
0.0
 10
-5.69647
 20
-4.08033
 30
0.0
 10
-5.69647
 20
-4.08033
 30
0.0
 10
-5.64034
 20
-4.03315
 30
0.0
 10
-5.64034
 20
-4.03315
 30
0.0
 10
-5.64034
 20
-4.03315
 30
0.0
 10
-5.64034
 20
-4.03315
 30
0.0
 10
-5.59152
 20
-3.98631
 30
0.0
 10
-5.59152
 20
-3.98631
 30
0.0
 10
-5.59152
 20
-3.98631
 30
0.0
 10
-5.59152
 20
-3.98631
 30
0.0
 10
-5.55156
 20
-3.93157
 30
0.0
 10
-5.55156
 20
-3.93157
 30
0.0
 10
-5.55156
 20
-3.93157
 30
0.0
 10
-5.55156
 20
-3.93157
 30
0.0
 10
-5.51011
 20
-3.87163
 30
0.0
 10
-5.51011
 20
-3.87163
 30
0.0
 10
-5.51011
 20
-3.87163
 30
0.0
 10
-5.51011
 20
-3.87163
 30
0.0
 10
-5.474
 20
-3.81266
 30
0.0
 10
-5.474
 20
-3.81266
 30
0.0
 10
-5.474
 20
-3.81266
 30
0.0
 10
-5.474
 20
-3.81266
 30
0.0
 10
-5.44093
 20
-3.74126
 30
0.0
 10
-5.44093
 20
-3.74126
 30
0.0
 10
-5.44093
 20
-3.74126
 30
0.0
 10
-5.44093
 20
-3.74126
 30
0.0
 10
-5.42446
 20
-3.66857
 30
0.0
 10
-5.42446
 20
-3.66857
 30
0.0
 10
-5.42446
 20
-3.66857
 30
0.0
 10
-5.42446
 20
-3.66857
 30
0.0
 10
-5.41354
 20
-3.57969
 30
0.0
 10
-5.41354
 20
-3.57969
 30
0.0
 10
-5.41354
 20
-3.57969
 30
0.0
 10
-5.41354
 20
-3.57969
 30
0.0
 10
-5.41354
 20
-3.48023
 30
0.0
 10
-5.41354
 20
-3.48023
 30
0.0
 10
-5.41354
 20
-3.48023
 30
0.0
 10
-5.41354
 20
-3.48023
 30
0.0
 10
-5.42446
 20
-3.34581
 30
0.0
 10
-5.42446
 20
-3.34581
 30
0.0
 10
-5.42446
 20
-3.34581
 30
0.0
 10
-5.42446
 20
-3.34581
 30
0.0
 10
-5.45349
 20
-3.22978
 30
0.0
 10
-5.45349
 20
-3.22978
 30
0.0
 10
-5.45349
 20
-3.22978
 30
0.0
 10
-5.45349
 20
-3.22978
 30
0.0
 10
-5.4844
 20
-3.14832
 30
0.0
 10
-5.4844
 20
-3.14832
 30
0.0
 10
-5.4844
 20
-3.14832
 30
0.0
 10
-5.4844
 20
-3.14832
 30
0.0
 10
-5.52277
 20
-3.07727
 30
0.0
 10
-5.52277
 20
-3.07727
 30
0.0
 10
-5.52277
 20
-3.07727
 30
0.0
 10
-5.52277
 20
-3.07727
 30
0.0
 10
-5.57491
 20
-3.01574
 30
0.0
 10
-5.57491
 20
-3.01574
 30
0.0
 10
-5.57491
 20
-3.01574
 30
0.0
 10
-5.57491
 20
-3.01574
 30
0.0
 10
-5.63307
 20
-2.95387
 30
0.0
 10
-5.63307
 20
-2.95387
 30
0.0
 10
-5.63307
 20
-2.95387
 30
0.0
 10
-5.63307
 20
-2.95387
 30
0.0
 10
-5.71106
 20
-2.88869
 30
0.0
 10
-5.71106
 20
-2.88869
 30
0.0
 10
-5.71106
 20
-2.88869
 30
0.0
 10
-5.71106
 20
-2.88869
 30
0.0
 10
-5.78727
 20
-2.83231
 30
0.0
 10
-5.78727
 20
-2.83231
 30
0.0
 10
-5.78727
 20
-2.83231
 30
0.0
 10
-5.78727
 20
-2.83231
 30
0.0
 10
-5.85814
 20
-2.79981
 30
0.0
 10
-5.85814
 20
-2.79981
 30
0.0
 10
-5.85814
 20
-2.79981
 30
0.0
 10
-5.85814
 20
-2.79981
 30
0.0
 10
-5.93074
 20
-2.76905
 30
0.0
 10
-5.93074
 20
-2.76905
 30
0.0
 10
-5.93074
 20
-2.76905
 30
0.0
 10
-5.93074
 20
-2.76905
 30
0.0
 10
-6.00112
 20
-2.75075
 30
0.0
 10
-6.00112
 20
-2.75075
 30
0.0
 10
-6.00112
 20
-2.75075
 30
0.0
 10
-6.00112
 20
-2.75075
 30
0.0
 10
-6.07734
 20
-2.74166
 30
0.0
 10
-6.07734
 20
-2.74166
 30
0.0
 10
-6.07734
 20
-2.74166
 30
0.0
 10
-6.07734
 20
-2.74166
 30
0.0
 10
-6.17545
 20
-2.74002
 30
0.0
 10
-6.17545
 20
-2.74002
 30
0.0
 10
-6.17545
 20
-2.74002
 30
0.0
 10
-6.17545
 20
-2.74002
 30
0.0
 10
-6.26091
 20
-2.74166
 30
0.0
 10
-6.26091
 20
-2.74166
 30
0.0
 10
-6.26091
 20
-2.74166
 30
0.0
 10
-6.26091
 20
-2.74166
 30
0.0
 10
-6.33678
 20
-2.75075
 30
0.0
 10
-6.33678
 20
-2.75075
 30
0.0
 10
-6.33678
 20
-2.75075
 30
0.0
 10
-6.33678
 20
-2.75075
 30
0.0
 10
-6.40226
 20
-2.76741
 30
0.0
 10
-6.40226
 20
-2.76741
 30
0.0
 10
-6.40226
 20
-2.76741
 30
0.0
 10
-6.40226
 20
-2.76741
 30
0.0
 10
-6.462
 20
-2.79442
 30
0.0
 10
-6.462
 20
-2.79442
 30
0.0
 10
-6.462
 20
-2.79442
 30
0.0
 10
-6.462
 20
-2.79442
 30
0.0
 10
-6.52156
 20
-2.82846
 30
0.0
 10
-6.52156
 20
-2.82846
 30
0.0
  0
SPLINE
  5
42
330
1F
100
AcDbEntity
  8
layer 1
 62
   250
100
AcDbSpline
210
0.0
220
0.0
230
1.0
 70
    11
 71
     3
 72
   252
 73
   248
 74
     0
 42
0.0000000001
 43
0.0000000001
 12
1.0
 22
0.0
 32
0.0
 13
1.0
 23
0.0
 33
0.0
 40
0.0
 40
0.0
 40
0.0
 40
0.0
 40
0.0158730158730159
 40
0.0158730158730159
 40
0.0158730158730159
 40
0.0158730158730159
 40
0.0317460317460317
 40
0.0317460317460317
 40
0.0317460317460317
 40
0.0317460317460317
 40
0.0476190476190476
 40
0.0476190476190476
 40
0.0476190476190476
 40
0.0476190476190476
 40
0.0634920634920635
 40
0.0634920634920635
 40
0.0634920634920635
 40
0.0634920634920635
 40
0.0793650793650794
 40
0.0793650793650794
 40
0.0793650793650794
 40
0.0793650793650794
 40
0.0952380952380952
 40
0.0952380952380952
 40
0.0952380952380952
 40
0.0952380952380952
 40
0.1111111111111111
 40
0.1111111111111111
 40
0.1111111111111111
 40
0.1111111111111111
 40
0.126984126984127
 40
0.126984126984127
 40
0.126984126984127
 40
0.126984126984127
 40
0.1428571428571428
 40
0.1428571428571428
 40
0.1428571428571428
 40
0.1428571428571428
 40
0.1587301587301587
 40
0.1587301587301587
 40
0.1587301587301587
 40
0.1587301587301587
 40
0.1746031746031746
 40
0.1746031746031746
 40
0.1746031746031746
 40
0.1746031746031746
 40
0.1904761904761905
 40
0.1904761904761905
 40
0.1904761904761905
 40
0.1904761904761905
 40
0.2063492063492063
 40
0.2063492063492063
 40
0.2063492063492063
 40
0.2063492063492063
 40
0.2222222222222222
 40
0.2222222222222222
 40
0.2222222222222222
 40
0.2222222222222222
 40
0.2380952380952381
 40
0.2380952380952381
 40
0.2380952380952381
 40
0.2380952380952381
 40
0.253968253968254
 40
0.253968253968254
 40
0.253968253968254
 40
0.253968253968254
 40
0.2698412698412698
 40
0.2698412698412698
 40
0.2698412698412698
 40
0.2698412698412698
 40
0.2857142857142857
 40
0.2857142857142857
 40
0.2857142857142857
 40
0.2857142857142857
 40
0.3015873015873016
 40
0.3015873015873016
 40
0.3015873015873016
 40
0.3015873015873016
 40
0.3174603174603174
 40
0.3174603174603174
 40
0.3174603174603174
 40
0.3174603174603174
 40
0.3333333333333333
 40
0.3333333333333333
 40
0.3333333333333333
 40
0.3333333333333333
 40
0.3492063492063492
 40
0.3492063492063492
 40
0.3492063492063492
 40
0.3492063492063492
 40
0.3650793650793651
 40
0.3650793650793651
 40
0.3650793650793651
 40
0.3650793650793651
 40
0.3809523809523809
 40
0.3809523809523809
 40
0.3809523809523809
 40
0.3809523809523809
 40
0.3968253968253968
 40
0.3968253968253968
 40
0.3968253968253968
 40
0.3968253968253968
 40
0.4126984126984127
 40
0.4126984126984127
 40
0.4126984126984127
 40
0.4126984126984127
 40
0.4285714285714285
 40
0.4285714285714285
 40
0.4285714285714285
 40
0.4285714285714285
 40
0.4444444444444444
 40
0.4444444444444444
 40
0.4444444444444444
 40
0.4444444444444444
 40
0.4603174603174603
 40
0.4603174603174603
 40
0.4603174603174603
 40
0.4603174603174603
 40
0.4761904761904762
 40
0.4761904761904762
 40
0.4761904761904762
 40
0.4761904761904762
 40
0.492063492063492
 40
0.492063492063492
 40
0.492063492063492
 40
0.492063492063492
 40
0.5079365079365079
 40
0.5079365079365079
 40
0.5079365079365079
 40
0.5079365079365079
 40
0.5238095238095238
 40
0.5238095238095238
 40
0.5238095238095238
 40
0.5238095238095238
 40
0.5396825396825397
 40
0.5396825396825397
 40
0.5396825396825397
 40
0.5396825396825397
 40
0.5555555555555556
 40
0.5555555555555556
 40
0.5555555555555556
 40
0.5555555555555556
 40
0.5714285714285714
 40
0.5714285714285714
 40
0.5714285714285714
 40
0.5714285714285714
 40
0.5873015873015873
 40
0.5873015873015873
 40
0.5873015873015873
 40
0.5873015873015873
 40
0.6031746031746031
 40
0.6031746031746031
 40
0.6031746031746031
 40
0.6031746031746031
 40
0.6190476190476191
 40
0.6190476190476191
 40
0.6190476190476191
 40
0.6190476190476191
 40
0.6349206349206349
 40
0.6349206349206349
 40
0.6349206349206349
 40
0.6349206349206349
 40
0.6507936507936508
 40
0.6507936507936508
 40
0.6507936507936508
 40
0.6507936507936508
 40
0.6666666666666666
 40
0.6666666666666666
 40
0.6666666666666666
 40
0.6666666666666666
 40
0.6825396825396826
 40
0.6825396825396826
 40
0.6825396825396826
 40
0.6825396825396826
 40
0.6984126984126984
 40
0.6984126984126984
 40
0.6984126984126984
 40
0.6984126984126984
 40
0.7142857142857143
 40
0.7142857142857143
 40
0.7142857142857143
 40
0.7142857142857143
 40
0.7301587301587301
 40
0.7301587301587301
 40
0.7301587301587301
 40
0.7301587301587301
 40
0.746031746031746
 40
0.746031746031746
 40
0.746031746031746
 40
0.746031746031746
 40
0.7619047619047619
 40
0.7619047619047619
 40
0.7619047619047619
 40
0.7619047619047619
 40
0.7777777777777778
 40
0.7777777777777778
 40
0.7777777777777778
 40
0.7777777777777778
 40
0.7936507936507936
 40
0.7936507936507936
 40
0.7936507936507936
 40
0.7936507936507936
 40
0.8095238095238095
 40
0.8095238095238095
 40
0.8095238095238095
 40
0.8095238095238095
 40
0.8253968253968254
 40
0.8253968253968254
 40
0.8253968253968254
 40
0.8253968253968254
 40
0.8412698412698413
 40
0.8412698412698413
 40
0.8412698412698413
 40
0.8412698412698413
 40
0.8571428571428571
 40
0.8571428571428571
 40
0.8571428571428571
 40
0.8571428571428571
 40
0.873015873015873
 40
0.873015873015873
 40
0.873015873015873
 40
0.873015873015873
 40
0.8888888888888888
 40
0.8888888888888888
 40
0.8888888888888888
 40
0.8888888888888888
 40
0.9047619047619048
 40
0.9047619047619048
 40
0.9047619047619048
 40
0.9047619047619048
 40
0.9206349206349206
 40
0.9206349206349206
 40
0.9206349206349206
 40
0.9206349206349206
 40
0.9365079365079365
 40
0.9365079365079365
 40
0.9365079365079365
 40
0.9365079365079365
 40
0.9523809523809523
 40
0.9523809523809523
 40
0.9523809523809523
 40
0.9523809523809523
 40
0.9682539682539683
 40
0.9682539682539683
 40
0.9682539682539683
 40
0.9682539682539683
 40
1.0
 40
1.0
 40
1.0
 40
1.0
 10
-3.53546
 20
-2.81575
 30
0.0
 10
-3.53546
 20
-2.81575
 30
0.0
 10
-3.59617
 20
-2.85956
 30
0.0
 10
-3.59617
 20
-2.85956
 30
0.0
 10
-3.59617
 20
-2.85956
 30
0.0
 10
-3.59617
 20
-2.85956
 30
0.0
 10
-3.6484
 20
-2.89942
 30
0.0
 10
-3.6484
 20
-2.89942
 30
0.0
 10
-3.6484
 20
-2.89942
 30
0.0
 10
-3.6484
 20
-2.89942
 30
0.0
 10
-3.69568
 20
-2.94304
 30
0.0
 10
-3.69568
 20
-2.94304
 30
0.0
 10
-3.69568
 20
-2.94304
 30
0.0
 10
-3.69568
 20
-2.94304
 30
0.0
 10
-3.73188
 20
-2.97944
 30
0.0
 10
-3.73188
 20
-2.97944
 30
0.0
 10
-3.73188
 20
-2.97944
 30
0.0
 10
-3.73188
 20
-2.97944
 30
0.0
 10
-3.77001
 20
-3.0193
 30
0.0
 10
-3.77001
 20
-3.0193
 30
0.0
 10
-3.77001
 20
-3.0193
 30
0.0
 10
-3.77001
 20
-3.0193
 30
0.0
 10
-3.80487
 20
-3.06817
 30
0.0
 10
-3.80487
 20
-3.06817
 30
0.0
 10
-3.80487
 20
-3.06817
 30
0.0
 10
-3.80487
 20
-3.06817
 30
0.0
 10
-3.83178
 20
-3.11376
 30
0.0
 10
-3.83178
 20
-3.11376
 30
0.0
 10
-3.83178
 20
-3.11376
 30
0.0
 10
-3.83178
 20
-3.11376
 30
0.0
 10
-3.85364
 20
-3.1608
 30
0.0
 10
-3.85364
 20
-3.1608
 30
0.0
 10
-3.85364
 20
-3.1608
 30
0.0
 10
-3.85364
 20
-3.1608
 30
0.0
 10
-3.87155
 20
-3.20412
 30
0.0
 10
-3.87155
 20
-3.20412
 30
0.0
 10
-3.87155
 20
-3.20412
 30
0.0
 10
-3.87155
 20
-3.20412
 30
0.0
 10
-3.89196
 20
-3.26223
 30
0.0
 10
-3.89196
 20
-3.26223
 30
0.0
 10
-3.89196
 20
-3.26223
 30
0.0
 10
-3.89196
 20
-3.26223
 30
0.0
 10
-3.90626
 20
-3.3292
 30
0.0
 10
-3.90626
 20
-3.3292
 30
0.0
 10
-3.90626
 20
-3.3292
 30
0.0
 10
-3.90626
 20
-3.3292
 30
0.0
 10
-3.91348
 20
-3.40002
 30
0.0
 10
-3.91348
 20
-3.40002
 30
0.0
 10
-3.91348
 20
-3.40002
 30
0.0
 10
-3.91348
 20
-3.40002
 30
0.0
 10
-3.9169
 20
-3.48726
 30
0.0
 10
-3.9169
 20
-3.48726
 30
0.0
 10
-3.9169
 20
-3.48726
 30
0.0
 10
-3.9169
 20
-3.48726
 30
0.0
 10
-3.9116
 20
-3.6015
 30
0.0
 10
-3.9116
 20
-3.6015
 30
0.0
 10
-3.9116
 20
-3.6015
 30
0.0
 10
-3.9116
 20
-3.6015
 30
0.0
 10
-3.9026
 20
-3.67564
 30
0.0
 10
-3.9026
 20
-3.67564
 30
0.0
 10
-3.9026
 20
-3.67564
 30
0.0
 10
-3.9026
 20
-3.67564
 30
0.0
 10
-3.88662
 20
-3.73933
 30
0.0
 10
-3.88662
 20
-3.73933
 30
0.0
 10
-3.88662
 20
-3.73933
 30
0.0
 10
-3.88662
 20
-3.73933
 30
0.0
 10
-3.85195
 20
-3.80991
 30
0.0
 10
-3.85195
 20
-3.80991
 30
0.0
 10
-3.85195
 20
-3.80991
 30
0.0
 10
-3.85195
 20
-3.80991
 30
0.0
 10
-3.81031
 20
-3.87163
 30
0.0
 10
-3.81031
 20
-3.87163
 30
0.0
 10
-3.81031
 20
-3.87163
 30
0.0
 10
-3.81031
 20
-3.87163
 30
0.0
 10
-3.76659
 20
-3.93138
 30
0.0
 10
-3.76659
 20
-3.93138
 30
0.0
 10
-3.76659
 20
-3.93138
 30
0.0
 10
-3.76659
 20
-3.93138
 30
0.0
 10
-3.71224
 20
-3.99319
 30
0.0
 10
-3.71224
 20
-3.99319
 30
0.0
 10
-3.71224
 20
-3.99319
 30
0.0
 10
-3.71224
 20
-3.99319
 30
0.0
 10
-3.65384
 20
-4.04914
 30
0.0
 10
-3.65384
 20
-4.04914
 30
0.0
 10
-3.65384
 20
-4.04914
 30
0.0
 10
-3.65384
 20
-4.04914
 30
0.0
 10
-3.60334
 20
-4.08919
 30
0.0
 10
-3.60334
 20
-4.08919
 30
0.0
 10
-3.60334
 20
-4.08919
 30
0.0
 10
-3.60334
 20
-4.08919
 30
0.0
 10
-3.55264
 20
-4.12376
 30
0.0
 10
-3.55264
 20
-4.12376
 30
0.0
 10
-3.55264
 20
-4.12376
 30
0.0
 10
-3.55264
 20
-4.12376
 30
0.0
 10
-3.49632
 20
-4.15279
 30
0.0
 10
-3.49632
 20
-4.15279
 30
0.0
 10
-3.49632
 20
-4.15279
 30
0.0
 10
-3.49632
 20
-4.15279
 30
0.0
 10
-3.43479
 20
-4.17807
 30
0.0
 10
-3.43479
 20
-4.17807
 30
0.0
 10
-3.43479
 20
-4.17807
 30
0.0
 10
-3.43479
 20
-4.17807
 30
0.0
 10
-3.37471
 20
-4.19453
 30
0.0
 10
-3.37471
 20
-4.19453
 30
0.0
 10
-3.37471
 20
-4.19453
 30
0.0
 10
-3.37471
 20
-4.19453
 30
0.0
 10
-3.3112
 20
-4.20551
 30
0.0
 10
-3.3112
 20
-4.20551
 30
0.0
 10
-3.3112
 20
-4.20551
 30
0.0
 10
-3.3112
 20
-4.20551
 30
0.0
 10
-3.24043
 20
-4.21066
 30
0.0
 10
-3.24043
 20
-4.21066
 30
0.0
 10
-3.24043
 20
-4.21066
 30
0.0
 10
-3.24043
 20
-4.21066
 30
0.0
 10
-3.15156
 20
-4.21432
 30
0.0
 10
-3.15156
 20
-4.21432
 30
0.0
 10
-3.15156
 20
-4.21432
 30
0.0
 10
-3.15156
 20
-4.21432
 30
0.0
 10
-3.06808
 20
-4.20719
 30
0.0
 10
-3.06808
 20
-4.20719
 30
0.0
 10
-3.06808
 20
-4.20719
 30
0.0
 10
-3.06808
 20
-4.20719
 30
0.0
 10
-2.99577
 20
-4.19631
 30
0.0
 10
-2.99577
 20
-4.19631
 30
0.0
 10
-2.99577
 20
-4.19631
 30
0.0
 10
-2.99577
 20
-4.19631
 30
0.0
 10
-2.91412
 20
-4.17985
 30
0.0
 10
-2.91412
 20
-4.17985
 30
0.0
 10
-2.91412
 20
-4.17985
 30
0.0
 10
-2.91412
 20
-4.17985
 30
0.0
 10
-2.85061
 20
-4.15669
 30
0.0
 10
-2.85061
 20
-4.15669
 30
0.0
 10
-2.85061
 20
-4.15669
 30
0.0
 10
-2.85061
 20
-4.15669
 30
0.0
 10
-2.78331
 20
-4.11837
 30
0.0
 10
-2.78331
 20
-4.11837
 30
0.0
 10
-2.78331
 20
-4.11837
 30
0.0
 10
-2.78331
 20
-4.11837
 30
0.0
 10
-2.71095
 20
-4.06758
 30
0.0
 10
-2.71095
 20
-4.06758
 30
0.0
 10
-2.71095
 20
-4.06758
 30
0.0
 10
-2.71095
 20
-4.06758
 30
0.0
 10
-2.65462
 20
-4.0203
 30
0.0
 10
-2.65462
 20
-4.0203
 30
0.0
 10
-2.65462
 20
-4.0203
 30
0.0
 10
-2.65462
 20
-4.0203
 30
0.0
 10
-2.60556
 20
-3.97302
 30
0.0
 10
-2.60556
 20
-3.97302
 30
0.0
 10
-2.60556
 20
-3.97302
 30
0.0
 10
-2.60556
 20
-3.97302
 30
0.0
 10
-2.56565
 20
-3.91857
 30
0.0
 10
-2.56565
 20
-3.91857
 30
0.0
 10
-2.56565
 20
-3.91857
 30
0.0
 10
-2.56565
 20
-3.91857
 30
0.0
 10
-2.52396
 20
-3.85887
 30
0.0
 10
-2.52396
 20
-3.85887
 30
0.0
 10
-2.52396
 20
-3.85887
 30
0.0
 10
-2.52396
 20
-3.85887
 30
0.0
 10
-2.48814
 20
-3.79985
 30
0.0
 10
-2.48814
 20
-3.79985
 30
0.0
 10
-2.48814
 20
-3.79985
 30
0.0
 10
-2.48814
 20
-3.79985
 30
0.0
 10
-2.45531
 20
-3.72826
 30
0.0
 10
-2.45531
 20
-3.72826
 30
0.0
 10
-2.45531
 20
-3.72826
 30
0.0
 10
-2.45531
 20
-3.72826
 30
0.0
 10
-2.43875
 20
-3.6558
 30
0.0
 10
-2.43875
 20
-3.6558
 30
0.0
 10
-2.43875
 20
-3.6558
 30
0.0
 10
-2.43875
 20
-3.6558
 30
0.0
 10
-2.42811
 20
-3.56722
 30
0.0
 10
-2.42811
 20
-3.56722
 30
0.0
 10
-2.42811
 20
-3.56722
 30
0.0
 10
-2.42811
 20
-3.56722
 30
0.0
 10
-2.42811
 20
-3.46713
 30
0.0
 10
-2.42811
 20
-3.46713
 30
0.0
 10
-2.42811
 20
-3.46713
 30
0.0
 10
-2.42811
 20
-3.46713
 30
0.0
 10
-2.43875
 20
-3.33271
 30
0.0
 10
-2.43875
 20
-3.33271
 30
0.0
 10
-2.43875
 20
-3.33271
 30
0.0
 10
-2.43875
 20
-3.33271
 30
0.0
 10
-2.46792
 20
-3.21688
 30
0.0
 10
-2.46792
 20
-3.21688
 30
0.0
 10
-2.46792
 20
-3.21688
 30
0.0
 10
-2.46792
 20
-3.21688
 30
0.0
 10
-2.49893
 20
-3.13508
 30
0.0
 10
-2.49893
 20
-3.13508
 30
0.0
 10
-2.49893
 20
-3.13508
 30
0.0
 10
-2.49893
 20
-3.13508
 30
0.0
 10
-2.53686
 20
-3.06451
 30
0.0
 10
-2.53686
 20
-3.06451
 30
0.0
 10
-2.53686
 20
-3.06451
 30
0.0
 10
-2.53686
 20
-3.06451
 30
0.0
 10
-2.58963
 20
-3.00264
 30
0.0
 10
-2.58963
 20
-3.00264
 30
0.0
 10
-2.58963
 20
-3.00264
 30
0.0
 10
-2.58963
 20
-3.00264
 30
0.0
 10
-2.64721
 20
-2.94141
 30
0.0
 10
-2.64721
 20
-2.94141
 30
0.0
 10
-2.64721
 20
-2.94141
 30
0.0
 10
-2.64721
 20
-2.94141
 30
0.0
 10
-2.72544
 20
-2.87579
 30
0.0
 10
-2.72544
 20
-2.87579
 30
0.0
 10
-2.72544
 20
-2.87579
 30
0.0
 10
-2.72544
 20
-2.87579
 30
0.0
 10
-2.80184
 20
-2.81989
 30
0.0
 10
-2.80184
 20
-2.81989
 30
0.0
 10
-2.80184
 20
-2.81989
 30
0.0
 10
-2.80184
 20
-2.81989
 30
0.0
 10
-2.87242
 20
-2.78672
 30
0.0
 10
-2.87242
 20
-2.78672
 30
0.0
 10
-2.87242
 20
-2.78672
 30
0.0
 10
-2.87242
 20
-2.78672
 30
0.0
 10
-2.94474
 20
-2.756
 30
0.0
 10
-2.94474
 20
-2.756
 30
0.0
 10
-2.94474
 20
-2.756
 30
0.0
 10
-2.94474
 20
-2.756
 30
0.0
 10
-3.01565
 20
-2.73805
 30
0.0
 10
-3.01565
 20
-2.73805
 30
0.0
 10
-3.01565
 20
-2.73805
 30
0.0
 10
-3.01565
 20
-2.73805
 30
0.0
 10
-3.09191
 20
-2.72904
 30
0.0
 10
-3.09191
 20
-2.72904
 30
0.0
 10
-3.09191
 20
-2.72904
 30
0.0
 10
-3.09191
 20
-2.72904
 30
0.0
 10
-3.18964
 20
-2.72712
 30
0.0
 10
-3.18964
 20
-2.72712
 30
0.0
 10
-3.18964
 20
-2.72712
 30
0.0
 10
-3.18964
 20
-2.72712
 30
0.0
 10
-3.27505
 20
-2.72904
 30
0.0
 10
-3.27505
 20
-2.72904
 30
0.0
 10
-3.27505
 20
-2.72904
 30
0.0
 10
-3.27505
 20
-2.72904
 30
0.0
 10
-3.35116
 20
-2.73805
 30
0.0
 10
-3.35116
 20
-2.73805
 30
0.0
 10
-3.35116
 20
-2.73805
 30
0.0
 10
-3.35116
 20
-2.73805
 30
0.0
 10
-3.41664
 20
-2.75427
 30
0.0
 10
-3.41664
 20
-2.75427
 30
0.0
 10
-3.41664
 20
-2.75427
 30
0.0
 10
-3.41664
 20
-2.75427
 30
0.0
 10
-3.47643
 20
-2.78162
 30
0.0
 10
-3.47643
 20
-2.78162
 30
0.0
 10
-3.47643
 20
-2.78162
 30
0.0
 10
-3.47643
 20
-2.78162
 30
0.0
 10
-3.53546
 20
-2.81575
 30
0.0
 10
-3.53546
 20
-2.81575
 30
0.0
  0
SPLINE
  5
43
330
1F
100
AcDbEntity
  8
layer 1
 62
   250
100
AcDbSpline
210
0.0
220
0.0
230
1.0
 70
    11
 71
     3
 72
   224
 73
   220
 74
     0
 42
0.0000000001
 43
0.0000000001
 12
1.0
 22
0.0
 32
0.0
 13
1.0
 23
0.0
 33
0.0
 40
0.0
 40
0.0
 40
0.0
 40
0.0
 40
0.0178571428571429
 40
0.0178571428571429
 40
0.0178571428571429
 40
0.0178571428571429
 40
0.0357142857142857
 40
0.0357142857142857
 40
0.0357142857142857
 40
0.0357142857142857
 40
0.0535714285714286
 40
0.0535714285714286
 40
0.0535714285714286
 40
0.0535714285714286
 40
0.0714285714285714
 40
0.0714285714285714
 40
0.0714285714285714
 40
0.0714285714285714
 40
0.0892857142857143
 40
0.0892857142857143
 40
0.0892857142857143
 40
0.0892857142857143
 40
0.1071428571428571
 40
0.1071428571428571
 40
0.1071428571428571
 40
0.1071428571428571
 40
0.125
 40
0.125
 40
0.125
 40
0.125
 40
0.1428571428571428
 40
0.1428571428571428
 40
0.1428571428571428
 40
0.1428571428571428
 40
0.1607142857142857
 40
0.1607142857142857
 40
0.1607142857142857
 40
0.1607142857142857
 40
0.1785714285714286
 40
0.1785714285714286
 40
0.1785714285714286
 40
0.1785714285714286
 40
0.1964285714285714
 40
0.1964285714285714
 40
0.1964285714285714
 40
0.1964285714285714
 40
0.2142857142857143
 40
0.2142857142857143
 40
0.2142857142857143
 40
0.2142857142857143
 40
0.2321428571428572
 40
0.2321428571428572
 40
0.2321428571428572
 40
0.2321428571428572
 40
0.25
 40
0.25
 40
0.25
 40
0.25
 40
0.2678571428571428
 40
0.2678571428571428
 40
0.2678571428571428
 40
0.2678571428571428
 40
0.2857142857142857
 40
0.2857142857142857
 40
0.2857142857142857
 40
0.2857142857142857
 40
0.3035714285714285
 40
0.3035714285714285
 40
0.3035714285714285
 40
0.3035714285714285
 40
0.3214285714285715
 40
0.3214285714285715
 40
0.3214285714285715
 40
0.3214285714285715
 40
0.3392857142857143
 40
0.3392857142857143
 40
0.3392857142857143
 40
0.3392857142857143
 40
0.3571428571428572
 40
0.3571428571428572
 40
0.3571428571428572
 40
0.3571428571428572
 40
0.375
 40
0.375
 40
0.375
 40
0.375
 40
0.3928571428571428
 40
0.3928571428571428
 40
0.3928571428571428
 40
0.3928571428571428
 40
0.4107142857142857
 40
0.4107142857142857
 40
0.4107142857142857
 40
0.4107142857142857
 40
0.4285714285714285
 40
0.4285714285714285
 40
0.4285714285714285
 40
0.4285714285714285
 40
0.4464285714285715
 40
0.4464285714285715
 40
0.4464285714285715
 40
0.4464285714285715
 40
0.4642857142857143
 40
0.4642857142857143
 40
0.4642857142857143
 40
0.4642857142857143
 40
0.4821428571428572
 40
0.4821428571428572
 40
0.4821428571428572
 40
0.4821428571428572
 40
0.5
 40
0.5
 40
0.5
 40
0.5
 40
0.5178571428571429
 40
0.5178571428571429
 40
0.5178571428571429
 40
0.5178571428571429
 40
0.5357142857142857
 40
0.5357142857142857
 40
0.5357142857142857
 40
0.5357142857142857
 40
0.5535714285714286
 40
0.5535714285714286
 40
0.5535714285714286
 40
0.5535714285714286
 40
0.5714285714285714
 40
0.5714285714285714
 40
0.5714285714285714
 40
0.5714285714285714
 40
0.5892857142857143
 40
0.5892857142857143
 40
0.5892857142857143
 40
0.5892857142857143
 40
0.6071428571428571
 40
0.6071428571428571
 40
0.6071428571428571
 40
0.6071428571428571
 40
0.625
 40
0.625
 40
0.625
 40
0.625
 40
0.6428571428571429
 40
0.6428571428571429
 40
0.6428571428571429
 40
0.6428571428571429
 40
0.6607142857142857
 40
0.6607142857142857
 40
0.6607142857142857
 40
0.6607142857142857
 40
0.6785714285714286
 40
0.6785714285714286
 40
0.6785714285714286
 40
0.6785714285714286
 40
0.6964285714285714
 40
0.6964285714285714
 40
0.6964285714285714
 40
0.6964285714285714
 40
0.7142857142857143
 40
0.7142857142857143
 40
0.7142857142857143
 40
0.7142857142857143
 40
0.7321428571428571
 40
0.7321428571428571
 40
0.7321428571428571
 40
0.7321428571428571
 40
0.75
 40
0.75
 40
0.75
 40
0.75
 40
0.7678571428571429
 40
0.7678571428571429
 40
0.7678571428571429
 40
0.7678571428571429
 40
0.7857142857142857
 40
0.7857142857142857
 40
0.7857142857142857
 40
0.7857142857142857
 40
0.8035714285714286
 40
0.8035714285714286
 40
0.8035714285714286
 40
0.8035714285714286
 40
0.8214285714285714
 40
0.8214285714285714
 40
0.8214285714285714
 40
0.8214285714285714
 40
0.8392857142857143
 40
0.8392857142857143
 40
0.8392857142857143
 40
0.8392857142857143
 40
0.8571428571428571
 40
0.8571428571428571
 40
0.8571428571428571
 40
0.8571428571428571
 40
0.875
 40
0.875
 40
0.875
 40
0.875
 40
0.8928571428571429
 40
0.8928571428571429
 40
0.8928571428571429
 40
0.8928571428571429
 40
0.9107142857142857
 40
0.9107142857142857
 40
0.9107142857142857
 40
0.9107142857142857
 40
0.9285714285714286
 40
0.9285714285714286
 40
0.9285714285714286
 40
0.9285714285714286
 40
0.9464285714285714
 40
0.9464285714285714
 40
0.9464285714285714
 40
0.9464285714285714
 40
0.9642857142857143
 40
0.9642857142857143
 40
0.9642857142857143
 40
0.9642857142857143
 40
1.0
 40
1.0
 40
1.0
 40
1.0
 10
1.60589
 20
-1.30303
 30
0.0
 10
1.60589
 20
-1.30303
 30
0.0
 10
2.25611
 20
-1.30115
 30
0.0
 10
2.25611
 20
-1.30115
 30
0.0
 10
2.25611
 20
-1.30115
 30
0.0
 10
2.25611
 20
-1.30115
 30
0.0
 10
2.25183
 20
-4.7827
 30
0.0
 10
2.25183
 20
-4.7827
 30
0.0
 10
2.25183
 20
-4.7827
 30
0.0
 10
2.25183
 20
-4.7827
 30
0.0
 10
1.60232
 20
-4.78621
 30
0.0
 10
1.60232
 20
-4.78621
 30
0.0
 10
1.60232
 20
-4.78621
 30
0.0
 10
1.60232
 20
-4.78621
 30
0.0
 10
1.59659
 20
-4.59407
 30
0.0
 10
1.59659
 20
-4.59407
 30
0.0
 10
1.59659
 20
-4.59407
 30
0.0
 10
1.59659
 20
-4.59407
 30
0.0
 10
1.47715
 20
-4.6739
 30
0.0
 10
1.47715
 20
-4.6739
 30
0.0
 10
1.47715
 20
-4.6739
 30
0.0
 10
1.47715
 20
-4.6739
 30
0.0
 10
1.37402
 20
-4.72642
 30
0.0
 10
1.37402
 20
-4.72642
 30
0.0
 10
1.37402
 20
-4.72642
 30
0.0
 10
1.37402
 20
-4.72642
 30
0.0
 10
1.30831
 20
-4.75559
 30
0.0
 10
1.30831
 20
-4.75559
 30
0.0
 10
1.30831
 20
-4.75559
 30
0.0
 10
1.30831
 20
-4.75559
 30
0.0
 10
1.22507
 20
-4.788
 30
0.0
 10
1.22507
 20
-4.788
 30
0.0
 10
1.22507
 20
-4.788
 30
0.0
 10
1.22507
 20
-4.788
 30
0.0
 10
1.14342
 20
-4.81
 30
0.0
 10
1.14342
 20
-4.81
 30
0.0
 10
1.14342
 20
-4.81
 30
0.0
 10
1.14342
 20
-4.81
 30
0.0
 10
1.05074
 20
-4.82791
 30
0.0
 10
1.05074
 20
-4.82791
 30
0.0
 10
1.05074
 20
-4.82791
 30
0.0
 10
1.05074
 20
-4.82791
 30
0.0
 10
0.96201
 20
-4.83691
 30
0.0
 10
0.96201
 20
-4.83691
 30
0.0
 10
0.96201
 20
-4.83691
 30
0.0
 10
0.96201
 20
-4.83691
 30
0.0
 10
0.83694
 20
-4.83879
 30
0.0
 10
0.83694
 20
-4.83879
 30
0.0
 10
0.83694
 20
-4.83879
 30
0.0
 10
0.83694
 20
-4.83879
 30
0.0
 10
0.64451
 20
-4.83691
 30
0.0
 10
0.64451
 20
-4.83691
 30
0.0
 10
0.64451
 20
-4.83691
 30
0.0
 10
0.64451
 20
-4.83691
 30
0.0
 10
0.53233
 20
-4.82435
 30
0.0
 10
0.53233
 20
-4.82435
 30
0.0
 10
0.53233
 20
-4.82435
 30
0.0
 10
0.53233
 20
-4.82435
 30
0.0
 10
0.43619
 20
-4.79714
 30
0.0
 10
0.43619
 20
-4.79714
 30
0.0
 10
0.43619
 20
-4.79714
 30
0.0
 10
0.43619
 20
-4.79714
 30
0.0
 10
0.34351
 20
-4.76445
 30
0.0
 10
0.34351
 20
-4.76445
 30
0.0
 10
0.34351
 20
-4.76445
 30
0.0
 10
0.34351
 20
-4.76445
 30
0.0
 10
0.21107
 20
-4.70822
 30
0.0
 10
0.21107
 20
-4.70822
 30
0.0
 10
0.21107
 20
-4.70822
 30
0.0
 10
0.21107
 20
-4.70822
 30
0.0
 10
0.10987
 20
-4.64684
 30
0.0
 10
0.10987
 20
-4.64684
 30
0.0
 10
0.10987
 20
-4.64684
 30
0.0
 10
0.10987
 20
-4.64684
 30
0.0
 10
0.00256
 20
-4.56509
 30
0.0
 10
0.00256
 20
-4.56509
 30
0.0
 10
0.00256
 20
-4.56509
 30
0.0
 10
0.00256
 20
-4.56509
 30
0.0
 10
-0.08448
 20
-4.48883
 30
0.0
 10
-0.08448
 20
-4.48883
 30
0.0
 10
-0.08448
 20
-4.48883
 30
0.0
 10
-0.08448
 20
-4.48883
 30
0.0
 10
-0.16965
 20
-4.40198
 30
0.0
 10
-0.16965
 20
-4.40198
 30
0.0
 10
-0.16965
 20
-4.40198
 30
0.0
 10
-0.16965
 20
-4.40198
 30
0.0
 10
-0.2513
 20
-4.30382
 30
0.0
 10
-0.2513
 20
-4.30382
 30
0.0
 10
-0.2513
 20
-4.30382
 30
0.0
 10
-0.2513
 20
-4.30382
 30
0.0
 10
-0.32563
 20
-4.19145
 30
0.0
 10
-0.32563
 20
-4.19145
 30
0.0
 10
-0.32563
 20
-4.19145
 30
0.0
 10
-0.32563
 20
-4.19145
 30
0.0
 10
-0.40565
 20
-4.05179
 30
0.0
 10
-0.40565
 20
-4.05179
 30
0.0
 10
-0.40565
 20
-4.05179
 30
0.0
 10
-0.40565
 20
-4.05179
 30
0.0
 10
-0.47054
 20
-3.90293
 30
0.0
 10
-0.47054
 20
-3.90293
 30
0.0
 10
-0.47054
 20
-3.90293
 30
0.0
 10
-0.47054
 20
-3.90293
 30
0.0
 10
-0.50872
 20
-3.77607
 30
0.0
 10
-0.50872
 20
-3.77607
 30
0.0
 10
-0.50872
 20
-3.77607
 30
0.0
 10
-0.50872
 20
-3.77607
 30
0.0
 10
-0.53265
 20
-3.64026
 30
0.0
 10
-0.53265
 20
-3.64026
 30
0.0
 10
-0.53265
 20
-3.64026
 30
0.0
 10
-0.53265
 20
-3.64026
 30
0.0
 10
-0.54517
 20
-3.53858
 30
0.0
 10
-0.54517
 20
-3.53858
 30
0.0
 10
-0.54517
 20
-3.53858
 30
0.0
 10
-0.54517
 20
-3.53858
 30
0.0
 10
-0.54156
 20
-3.42067
 30
0.0
 10
-0.54156
 20
-3.42067
 30
0.0
 10
-0.54156
 20
-3.42067
 30
0.0
 10
-0.54156
 20
-3.42067
 30
0.0
 10
-0.53265
 20
-3.30835
 30
0.0
 10
-0.53265
 20
-3.30835
 30
0.0
 10
-0.53265
 20
-3.30835
 30
0.0
 10
-0.53265
 20
-3.30835
 30
0.0
 10
-0.51782
 20
-3.21221
 30
0.0
 10
-0.51782
 20
-3.21221
 30
0.0
 10
-0.51782
 20
-3.21221
 30
0.0
 10
-0.51782
 20
-3.21221
 30
0.0
 10
-0.49443
 20
-3.09787
 30
0.0
 10
-0.49443
 20
-3.09787
 30
0.0
 10
-0.49443
 20
-3.09787
 30
0.0
 10
-0.49443
 20
-3.09787
 30
0.0
 10
-0.45822
 20
-2.98873
 30
0.0
 10
-0.45822
 20
-2.98873
 30
0.0
 10
-0.45822
 20
-2.98873
 30
0.0
 10
-0.45822
 20
-2.98873
 30
0.0
 10
-0.41287
 20
-2.891
 30
0.0
 10
-0.41287
 20
-2.891
 30
0.0
 10
-0.41287
 20
-2.891
 30
0.0
 10
-0.41287
 20
-2.891
 30
0.0
 10
-0.35828
 20
-2.78941
 30
0.0
 10
-0.35828
 20
-2.78941
 30
0.0
 10
-0.35828
 20
-2.78941
 30
0.0
 10
-0.35828
 20
-2.78941
 30
0.0
 10
-0.29285
 20
-2.69322
 30
0.0
 10
-0.29285
 20
-2.69322
 30
0.0
 10
-0.29285
 20
-2.69322
 30
0.0
 10
-0.29285
 20
-2.69322
 30
0.0
 10
-0.21134
 20
-2.58808
 30
0.0
 10
-0.21134
 20
-2.58808
 30
0.0
 10
-0.21134
 20
-2.58808
 30
0.0
 10
-0.21134
 20
-2.58808
 30
0.0
 10
-0.13142
 20
-2.50287
 30
0.0
 10
-0.13142
 20
-2.50287
 30
0.0
 10
-0.13142
 20
-2.50287
 30
0.0
 10
-0.13142
 20
-2.50287
 30
0.0
 10
-0.04789
 20
-2.42497
 30
0.0
 10
-0.04789
 20
-2.42497
 30
0.0
 10
-0.04789
 20
-2.42497
 30
0.0
 10
-0.04789
 20
-2.42497
 30
0.0
 10
0.07535
 20
-2.33802
 30
0.0
 10
0.07535
 20
-2.33802
 30
0.0
 10
0.07535
 20
-2.33802
 30
0.0
 10
0.07535
 20
-2.33802
 30
0.0
 10
0.18772
 20
-2.26874
 30
0.0
 10
0.18772
 20
-2.26874
 30
0.0
 10
0.18772
 20
-2.26874
 30
0.0
 10
0.18772
 20
-2.26874
 30
0.0
 10
0.32926
 20
-2.20726
 30
0.0
 10
0.32926
 20
-2.20726
 30
0.0
 10
0.32926
 20
-2.20726
 30
0.0
 10
0.32926
 20
-2.20726
 30
0.0
 10
0.43436
 20
-2.17294
 30
0.0
 10
0.43436
 20
-2.17294
 30
0.0
 10
0.43436
 20
-2.17294
 30
0.0
 10
0.43436
 20
-2.17294
 30
0.0
 10
0.55005
 20
-2.1455
 30
0.0
 10
0.55005
 20
-2.1455
 30
0.0
 10
0.55005
 20
-2.1455
 30
0.0
 10
0.55005
 20
-2.1455
 30
0.0
 10
0.67715
 20
-2.13283
 30
0.0
 10
0.67715
 20
-2.13283
 30
0.0
 10
0.67715
 20
-2.13283
 30
0.0
 10
0.67715
 20
-2.13283
 30
0.0
 10
0.82625
 20
-2.1311
 30
0.0
 10
0.82625
 20
-2.1311
 30
0.0
 10
0.82625
 20
-2.1311
 30
0.0
 10
0.82625
 20
-2.1311
 30
0.0
 10
0.97111
 20
-2.13645
 30
0.0
 10
0.97111
 20
-2.13645
 30
0.0
 10
0.97111
 20
-2.13645
 30
0.0
 10
0.97111
 20
-2.13645
 30
0.0
 10
1.09797
 20
-2.14901
 30
0.0
 10
1.09797
 20
-2.14901
 30
0.0
 10
1.09797
 20
-2.14901
 30
0.0
 10
1.09797
 20
-2.14901
 30
0.0
 10
1.21419
 20
-2.17116
 30
0.0
 10
1.21419
 20
-2.17116
 30
0.0
 10
1.21419
 20
-2.17116
 30
0.0
 10
1.21419
 20
-2.17116
 30
0.0
 10
1.32506
 20
-2.20543
 30
0.0
 10
1.32506
 20
-2.20543
 30
0.0
 10
1.32506
 20
-2.20543
 30
0.0
 10
1.32506
 20
-2.20543
 30
0.0
 10
1.42284
 20
-2.24525
 30
0.0
 10
1.42284
 20
-2.24525
 30
0.0
 10
1.42284
 20
-2.24525
 30
0.0
 10
1.42284
 20
-2.24525
 30
0.0
 10
1.48273
 20
-2.27967
 30
0.0
 10
1.48273
 20
-2.27967
 30
0.0
 10
1.48273
 20
-2.27967
 30
0.0
 10
1.48273
 20
-2.27967
 30
0.0
 10
1.54811
 20
-2.3268
 30
0.0
 10
1.54811
 20
-2.3268
 30
0.0
 10
1.54811
 20
-2.3268
 30
0.0
 10
1.54811
 20
-2.3268
 30
0.0
 10
1.59847
 20
-2.37047
 30
0.0
 10
1.59847
 20
-2.37047
 30
0.0
 10
1.59847
 20
-2.37047
 30
0.0
 10
1.59847
 20
-2.37047
 30
0.0
 10
1.60589
 20
-1.30303
 30
0.0
 10
1.60589
 20
-1.30303
 30
0.0
  0
SPLINE
  5
44
330
1F
100
AcDbEntity
  8
layer 1
 62
   250
100
AcDbSpline
210
0.0
220
0.0
230
1.0
 70
    11
 71
     3
 72
   224
 73
   220
 74
     0
 42
0.0000000001
 43
0.0000000001
 12
1.0
 22
0.0
 32
0.0
 13
1.0
 23
0.0
 33
0.0
 40
0.0
 40
0.0
 40
0.0
 40
0.0
 40
0.0178571428571429
 40
0.0178571428571429
 40
0.0178571428571429
 40
0.0178571428571429
 40
0.0357142857142857
 40
0.0357142857142857
 40
0.0357142857142857
 40
0.0357142857142857
 40
0.0535714285714286
 40
0.0535714285714286
 40
0.0535714285714286
 40
0.0535714285714286
 40
0.0714285714285714
 40
0.0714285714285714
 40
0.0714285714285714
 40
0.0714285714285714
 40
0.0892857142857143
 40
0.0892857142857143
 40
0.0892857142857143
 40
0.0892857142857143
 40
0.1071428571428571
 40
0.1071428571428571
 40
0.1071428571428571
 40
0.1071428571428571
 40
0.125
 40
0.125
 40
0.125
 40
0.125
 40
0.1428571428571428
 40
0.1428571428571428
 40
0.1428571428571428
 40
0.1428571428571428
 40
0.1607142857142857
 40
0.1607142857142857
 40
0.1607142857142857
 40
0.1607142857142857
 40
0.1785714285714286
 40
0.1785714285714286
 40
0.1785714285714286
 40
0.1785714285714286
 40
0.1964285714285714
 40
0.1964285714285714
 40
0.1964285714285714
 40
0.1964285714285714
 40
0.2142857142857143
 40
0.2142857142857143
 40
0.2142857142857143
 40
0.2142857142857143
 40
0.2321428571428572
 40
0.2321428571428572
 40
0.2321428571428572
 40
0.2321428571428572
 40
0.25
 40
0.25
 40
0.25
 40
0.25
 40
0.2678571428571428
 40
0.2678571428571428
 40
0.2678571428571428
 40
0.2678571428571428
 40
0.2857142857142857
 40
0.2857142857142857
 40
0.2857142857142857
 40
0.2857142857142857
 40
0.3035714285714285
 40
0.3035714285714285
 40
0.3035714285714285
 40
0.3035714285714285
 40
0.3214285714285715
 40
0.3214285714285715
 40
0.3214285714285715
 40
0.3214285714285715
 40
0.3392857142857143
 40
0.3392857142857143
 40
0.3392857142857143
 40
0.3392857142857143
 40
0.3571428571428572
 40
0.3571428571428572
 40
0.3571428571428572
 40
0.3571428571428572
 40
0.375
 40
0.375
 40
0.375
 40
0.375
 40
0.3928571428571428
 40
0.3928571428571428
 40
0.3928571428571428
 40
0.3928571428571428
 40
0.4107142857142857
 40
0.4107142857142857
 40
0.4107142857142857
 40
0.4107142857142857
 40
0.4285714285714285
 40
0.4285714285714285
 40
0.4285714285714285
 40
0.4285714285714285
 40
0.4464285714285715
 40
0.4464285714285715
 40
0.4464285714285715
 40
0.4464285714285715
 40
0.4642857142857143
 40
0.4642857142857143
 40
0.4642857142857143
 40
0.4642857142857143
 40
0.4821428571428572
 40
0.4821428571428572
 40
0.4821428571428572
 40
0.4821428571428572
 40
0.5
 40
0.5
 40
0.5
 40
0.5
 40
0.5178571428571429
 40
0.5178571428571429
 40
0.5178571428571429
 40
0.5178571428571429
 40
0.5357142857142857
 40
0.5357142857142857
 40
0.5357142857142857
 40
0.5357142857142857
 40
0.5535714285714286
 40
0.5535714285714286
 40
0.5535714285714286
 40
0.5535714285714286
 40
0.5714285714285714
 40
0.5714285714285714
 40
0.5714285714285714
 40
0.5714285714285714
 40
0.5892857142857143
 40
0.5892857142857143
 40
0.5892857142857143
 40
0.5892857142857143
 40
0.6071428571428571
 40
0.6071428571428571
 40
0.6071428571428571
 40
0.6071428571428571
 40
0.625
 40
0.625
 40
0.625
 40
0.625
 40
0.6428571428571429
 40
0.6428571428571429
 40
0.6428571428571429
 40
0.6428571428571429
 40
0.6607142857142857
 40
0.6607142857142857
 40
0.6607142857142857
 40
0.6607142857142857
 40
0.6785714285714286
 40
0.6785714285714286
 40
0.6785714285714286
 40
0.6785714285714286
 40
0.6964285714285714
 40
0.6964285714285714
 40
0.6964285714285714
 40
0.6964285714285714
 40
0.7142857142857143
 40
0.7142857142857143
 40
0.7142857142857143
 40
0.7142857142857143
 40
0.7321428571428571
 40
0.7321428571428571
 40
0.7321428571428571
 40
0.7321428571428571
 40
0.75
 40
0.75
 40
0.75
 40
0.75
 40
0.7678571428571429
 40
0.7678571428571429
 40
0.7678571428571429
 40
0.7678571428571429
 40
0.7857142857142857
 40
0.7857142857142857
 40
0.7857142857142857
 40
0.7857142857142857
 40
0.8035714285714286
 40
0.8035714285714286
 40
0.8035714285714286
 40
0.8035714285714286
 40
0.8214285714285714
 40
0.8214285714285714
 40
0.8214285714285714
 40
0.8214285714285714
 40
0.8392857142857143
 40
0.8392857142857143
 40
0.8392857142857143
 40
0.8392857142857143
 40
0.8571428571428571
 40
0.8571428571428571
 40
0.8571428571428571
 40
0.8571428571428571
 40
0.875
 40
0.875
 40
0.875
 40
0.875
 40
0.8928571428571429
 40
0.8928571428571429
 40
0.8928571428571429
 40
0.8928571428571429
 40
0.9107142857142857
 40
0.9107142857142857
 40
0.9107142857142857
 40
0.9107142857142857
 40
0.9285714285714286
 40
0.9285714285714286
 40
0.9285714285714286
 40
0.9285714285714286
 40
0.9464285714285714
 40
0.9464285714285714
 40
0.9464285714285714
 40
0.9464285714285714
 40
0.9642857142857143
 40
0.9642857142857143
 40
0.9642857142857143
 40
0.9642857142857143
 40
1.0
 40
1.0
 40
1.0
 40
1.0
 10
-2.39147
 20
-1.30289
 30
0.0
 10
-2.39147
 20
-1.30289
 30
0.0
 10
-1.74134
 20
-1.30115
 30
0.0
 10
-1.74134
 20
-1.30115
 30
0.0
 10
-1.74134
 20
-1.30115
 30
0.0
 10
-1.74134
 20
-1.30115
 30
0.0
 10
-1.74611
 20
-4.7827
 30
0.0
 10
-1.74611
 20
-4.7827
 30
0.0
 10
-1.74611
 20
-4.7827
 30
0.0
 10
-1.74611
 20
-4.7827
 30
0.0
 10
-2.39503
 20
-4.78621
 30
0.0
 10
-2.39503
 20
-4.78621
 30
0.0
 10
-2.39503
 20
-4.78621
 30
0.0
 10
-2.39503
 20
-4.78621
 30
0.0
 10
-2.40057
 20
-4.59388
 30
0.0
 10
-2.40057
 20
-4.59388
 30
0.0
 10
-2.40057
 20
-4.59388
 30
0.0
 10
-2.40057
 20
-4.59388
 30
0.0
 10
-2.52035
 20
-4.67375
 30
0.0
 10
-2.52035
 20
-4.67375
 30
0.0
 10
-2.52035
 20
-4.67375
 30
0.0
 10
-2.52035
 20
-4.67375
 30
0.0
 10
-2.62381
 20
-4.72642
 30
0.0
 10
-2.62381
 20
-4.72642
 30
0.0
 10
-2.62381
 20
-4.72642
 30
0.0
 10
-2.62381
 20
-4.72642
 30
0.0
 10
-2.68895
 20
-4.75531
 30
0.0
 10
-2.68895
 20
-4.75531
 30
0.0
 10
-2.68895
 20
-4.75531
 30
0.0
 10
-2.68895
 20
-4.75531
 30
0.0
 10
-2.77224
 20
-4.7879
 30
0.0
 10
-2.77224
 20
-4.7879
 30
0.0
 10
-2.77224
 20
-4.7879
 30
0.0
 10
-2.77224
 20
-4.7879
 30
0.0
 10
-2.85399
 20
-4.81
 30
0.0
 10
-2.85399
 20
-4.81
 30
0.0
 10
-2.85399
 20
-4.81
 30
0.0
 10
-2.85399
 20
-4.81
 30
0.0
 10
-2.94652
 20
-4.82776
 30
0.0
 10
-2.94652
 20
-4.82776
 30
0.0
 10
-2.94652
 20
-4.82776
 30
0.0
 10
-2.94652
 20
-4.82776
 30
0.0
 10
-3.03539
 20
-4.83682
 30
0.0
 10
-3.03539
 20
-4.83682
 30
0.0
 10
-3.03539
 20
-4.83682
 30
0.0
 10
-3.03539
 20
-4.83682
 30
0.0
 10
-3.16061
 20
-4.83864
 30
0.0
 10
-3.16061
 20
-4.83864
 30
0.0
 10
-3.16061
 20
-4.83864
 30
0.0
 10
-3.16061
 20
-4.83864
 30
0.0
 10
-3.3529
 20
-4.83682
 30
0.0
 10
-3.3529
 20
-4.83682
 30
0.0
 10
-3.3529
 20
-4.83682
 30
0.0
 10
-3.3529
 20
-4.83682
 30
0.0
 10
-3.46541
 20
-4.82435
 30
0.0
 10
-3.46541
 20
-4.82435
 30
0.0
 10
-3.46541
 20
-4.82435
 30
0.0
 10
-3.46541
 20
-4.82435
 30
0.0
 10
-3.5616
 20
-4.79705
 30
0.0
 10
-3.5616
 20
-4.79705
 30
0.0
 10
-3.5616
 20
-4.79705
 30
0.0
 10
-3.5616
 20
-4.79705
 30
0.0
 10
-3.65384
 20
-4.76445
 30
0.0
 10
-3.65384
 20
-4.76445
 30
0.0
 10
-3.65384
 20
-4.76445
 30
0.0
 10
-3.65384
 20
-4.76445
 30
0.0
 10
-3.78643
 20
-4.70822
 30
0.0
 10
-3.78643
 20
-4.70822
 30
0.0
 10
-3.78643
 20
-4.70822
 30
0.0
 10
-3.78643
 20
-4.70822
 30
0.0
 10
-3.88825
 20
-4.6466
 30
0.0
 10
-3.88825
 20
-4.6466
 30
0.0
 10
-3.88825
 20
-4.6466
 30
0.0
 10
-3.88825
 20
-4.6466
 30
0.0
 10
-3.99499
 20
-4.56509
 30
0.0
 10
-3.99499
 20
-4.56509
 30
0.0
 10
-3.99499
 20
-4.56509
 30
0.0
 10
-3.99499
 20
-4.56509
 30
0.0
 10
-4.08184
 20
-4.48883
 30
0.0
 10
-4.08184
 20
-4.48883
 30
0.0
 10
-4.08184
 20
-4.48883
 30
0.0
 10
-4.08184
 20
-4.48883
 30
0.0
 10
-4.16715
 20
-4.40198
 30
0.0
 10
-4.16715
 20
-4.40198
 30
0.0
 10
-4.16715
 20
-4.40198
 30
0.0
 10
-4.16715
 20
-4.40198
 30
0.0
 10
-4.2489
 20
-4.30382
 30
0.0
 10
-4.2489
 20
-4.30382
 30
0.0
 10
-4.2489
 20
-4.30382
 30
0.0
 10
-4.2489
 20
-4.30382
 30
0.0
 10
-4.32304
 20
-4.19131
 30
0.0
 10
-4.32304
 20
-4.19131
 30
0.0
 10
-4.32304
 20
-4.19131
 30
0.0
 10
-4.32304
 20
-4.19131
 30
0.0
 10
-4.40305
 20
-4.05159
 30
0.0
 10
-4.40305
 20
-4.05159
 30
0.0
 10
-4.40305
 20
-4.05159
 30
0.0
 10
-4.40305
 20
-4.05159
 30
0.0
 10
-4.46838
 20
-3.90293
 30
0.0
 10
-4.46838
 20
-3.90293
 30
0.0
 10
-4.46838
 20
-3.90293
 30
0.0
 10
-4.46838
 20
-3.90293
 30
0.0
 10
-4.5067
 20
-3.77607
 30
0.0
 10
-4.5067
 20
-3.77607
 30
0.0
 10
-4.5067
 20
-3.77607
 30
0.0
 10
-4.5067
 20
-3.77607
 30
0.0
 10
-4.53001
 20
-3.64011
 30
0.0
 10
-4.53001
 20
-3.64011
 30
0.0
 10
-4.53001
 20
-3.64011
 30
0.0
 10
-4.53001
 20
-3.64011
 30
0.0
 10
-4.54272
 20
-3.53843
 30
0.0
 10
-4.54272
 20
-3.53843
 30
0.0
 10
-4.54272
 20
-3.53843
 30
0.0
 10
-4.54272
 20
-3.53843
 30
0.0
 10
-4.53891
 20
-3.42067
 30
0.0
 10
-4.53891
 20
-3.42067
 30
0.0
 10
-4.53891
 20
-3.42067
 30
0.0
 10
-4.53891
 20
-3.42067
 30
0.0
 10
-4.53001
 20
-3.30811
 30
0.0
 10
-4.53001
 20
-3.30811
 30
0.0
 10
-4.53001
 20
-3.30811
 30
0.0
 10
-4.53001
 20
-3.30811
 30
0.0
 10
-4.51566
 20
-3.21192
 30
0.0
 10
-4.51566
 20
-3.21192
 30
0.0
 10
-4.51566
 20
-3.21192
 30
0.0
 10
-4.51566
 20
-3.21192
 30
0.0
 10
-4.49168
 20
-3.09773
 30
0.0
 10
-4.49168
 20
-3.09773
 30
0.0
 10
-4.49168
 20
-3.09773
 30
0.0
 10
-4.49168
 20
-3.09773
 30
0.0
 10
-4.45567
 20
-2.98859
 30
0.0
 10
-4.45567
 20
-2.98859
 30
0.0
 10
-4.45567
 20
-2.98859
 30
0.0
 10
-4.45567
 20
-2.98859
 30
0.0
 10
-4.41042
 20
-2.891
 30
0.0
 10
-4.41042
 20
-2.891
 30
0.0
 10
-4.41042
 20
-2.891
 30
0.0
 10
-4.41042
 20
-2.891
 30
0.0
 10
-4.35587
 20
-2.78932
 30
0.0
 10
-4.35587
 20
-2.78932
 30
0.0
 10
-4.35587
 20
-2.78932
 30
0.0
 10
-4.35587
 20
-2.78932
 30
0.0
 10
-4.29059
 20
-2.69322
 30
0.0
 10
-4.29059
 20
-2.69322
 30
0.0
 10
-4.29059
 20
-2.69322
 30
0.0
 10
-4.29059
 20
-2.69322
 30
0.0
 10
-4.20894
 20
-2.58793
 30
0.0
 10
-4.20894
 20
-2.58793
 30
0.0
 10
-4.20894
 20
-2.58793
 30
0.0
 10
-4.20894
 20
-2.58793
 30
0.0
 10
-4.12911
 20
-2.50272
 30
0.0
 10
-4.12911
 20
-2.50272
 30
0.0
 10
-4.12911
 20
-2.50272
 30
0.0
 10
-4.12911
 20
-2.50272
 30
0.0
 10
-4.04573
 20
-2.42497
 30
0.0
 10
-4.04573
 20
-2.42497
 30
0.0
 10
-4.04573
 20
-2.42497
 30
0.0
 10
-4.04573
 20
-2.42497
 30
0.0
 10
-3.92243
 20
-2.33793
 30
0.0
 10
-3.92243
 20
-2.33793
 30
0.0
 10
-3.92243
 20
-2.33793
 30
0.0
 10
-3.92243
 20
-2.33793
 30
0.0
 10
-3.81031
 20
-2.26874
 30
0.0
 10
-3.81031
 20
-2.26874
 30
0.0
 10
-3.81031
 20
-2.26874
 30
0.0
 10
-3.81031
 20
-2.26874
 30
0.0
 10
-3.66838
 20
-2.20712
 30
0.0
 10
-3.66838
 20
-2.20712
 30
0.0
 10
-3.66838
 20
-2.20712
 30
0.0
 10
-3.66838
 20
-2.20712
 30
0.0
 10
-3.56328
 20
-2.17255
 30
0.0
 10
-3.56328
 20
-2.17255
 30
0.0
 10
-3.56328
 20
-2.17255
 30
0.0
 10
-3.56328
 20
-2.17255
 30
0.0
 10
-3.44706
 20
-2.14516
 30
0.0
 10
-3.44706
 20
-2.14516
 30
0.0
 10
-3.44706
 20
-2.14516
 30
0.0
 10
-3.44706
 20
-2.14516
 30
0.0
 10
-3.32016
 20
-2.13283
 30
0.0
 10
-3.32016
 20
-2.13283
 30
0.0
 10
-3.32016
 20
-2.13283
 30
0.0
 10
-3.32016
 20
-2.13283
 30
0.0
 10
-3.17173
 20
-2.13105
 30
0.0
 10
-3.17173
 20
-2.13105
 30
0.0
 10
-3.17173
 20
-2.13105
 30
0.0
 10
-3.17173
 20
-2.13105
 30
0.0
 10
-3.02639
 20
-2.13645
 30
0.0
 10
-3.02639
 20
-2.13645
 30
0.0
 10
-3.02639
 20
-2.13645
 30
0.0
 10
-3.02639
 20
-2.13645
 30
0.0
 10
-2.89934
 20
-2.14887
 30
0.0
 10
-2.89934
 20
-2.14887
 30
0.0
 10
-2.89934
 20
-2.14887
 30
0.0
 10
-2.89934
 20
-2.14887
 30
0.0
 10
-2.78331
 20
-2.17082
 30
0.0
 10
-2.78331
 20
-2.17082
 30
0.0
 10
-2.78331
 20
-2.17082
 30
0.0
 10
-2.78331
 20
-2.17082
 30
0.0
 10
-2.67287
 20
-2.20543
 30
0.0
 10
-2.67287
 20
-2.20543
 30
0.0
 10
-2.67287
 20
-2.20543
 30
0.0
 10
-2.67287
 20
-2.20543
 30
0.0
 10
-2.5748
 20
-2.24511
 30
0.0
 10
-2.5748
 20
-2.24511
 30
0.0
 10
-2.5748
 20
-2.24511
 30
0.0
 10
-2.5748
 20
-2.24511
 30
0.0
 10
-2.51481
 20
-2.27958
 30
0.0
 10
-2.51481
 20
-2.27958
 30
0.0
 10
-2.51481
 20
-2.27958
 30
0.0
 10
-2.51481
 20
-2.27958
 30
0.0
 10
-2.44963
 20
-2.32647
 30
0.0
 10
-2.44963
 20
-2.32647
 30
0.0
 10
-2.44963
 20
-2.32647
 30
0.0
 10
-2.44963
 20
-2.32647
 30
0.0
 10
-2.39879
 20
-2.37028
 30
0.0
 10
-2.39879
 20
-2.37028
 30
0.0
 10
-2.39879
 20
-2.37028
 30
0.0
 10
-2.39879
 20
-2.37028
 30
0.0
 10
-2.39147
 20
-1.30289
 30
0.0
 10
-2.39147
 20
-1.30289
 30
0.0
  0
SPLINE
  5
45
330
1F
100
AcDbEntity
  8
layer 1
 62
   250
100
AcDbSpline
210
0.0
220
0.0
230
1.0
 70
    11
 71
     3
 72
   252
 73
   248
 74
     0
 42
0.0000000001
 43
0.0000000001
 12
1.0
 22
0.0
 32
0.0
 13
1.0
 23
0.0
 33
0.0
 40
0.0
 40
0.0
 40
0.0
 40
0.0
 40
0.0158730158730159
 40
0.0158730158730159
 40
0.0158730158730159
 40
0.0158730158730159
 40
0.0317460317460317
 40
0.0317460317460317
 40
0.0317460317460317
 40
0.0317460317460317
 40
0.0476190476190476
 40
0.0476190476190476
 40
0.0476190476190476
 40
0.0476190476190476
 40
0.0634920634920635
 40
0.0634920634920635
 40
0.0634920634920635
 40
0.0634920634920635
 40
0.0793650793650794
 40
0.0793650793650794
 40
0.0793650793650794
 40
0.0793650793650794
 40
0.0952380952380952
 40
0.0952380952380952
 40
0.0952380952380952
 40
0.0952380952380952
 40
0.1111111111111111
 40
0.1111111111111111
 40
0.1111111111111111
 40
0.1111111111111111
 40
0.126984126984127
 40
0.126984126984127
 40
0.126984126984127
 40
0.126984126984127
 40
0.1428571428571428
 40
0.1428571428571428
 40
0.1428571428571428
 40
0.1428571428571428
 40
0.1587301587301587
 40
0.1587301587301587
 40
0.1587301587301587
 40
0.1587301587301587
 40
0.1746031746031746
 40
0.1746031746031746
 40
0.1746031746031746
 40
0.1746031746031746
 40
0.1904761904761905
 40
0.1904761904761905
 40
0.1904761904761905
 40
0.1904761904761905
 40
0.2063492063492063
 40
0.2063492063492063
 40
0.2063492063492063
 40
0.2063492063492063
 40
0.2222222222222222
 40
0.2222222222222222
 40
0.2222222222222222
 40
0.2222222222222222
 40
0.2380952380952381
 40
0.2380952380952381
 40
0.2380952380952381
 40
0.2380952380952381
 40
0.253968253968254
 40
0.253968253968254
 40
0.253968253968254
 40
0.253968253968254
 40
0.2698412698412698
 40
0.2698412698412698
 40
0.2698412698412698
 40
0.2698412698412698
 40
0.2857142857142857
 40
0.2857142857142857
 40
0.2857142857142857
 40
0.2857142857142857
 40
0.3015873015873016
 40
0.3015873015873016
 40
0.3015873015873016
 40
0.3015873015873016
 40
0.3174603174603174
 40
0.3174603174603174
 40
0.3174603174603174
 40
0.3174603174603174
 40
0.3333333333333333
 40
0.3333333333333333
 40
0.3333333333333333
 40
0.3333333333333333
 40
0.3492063492063492
 40
0.3492063492063492
 40
0.3492063492063492
 40
0.3492063492063492
 40
0.3650793650793651
 40
0.3650793650793651
 40
0.3650793650793651
 40
0.3650793650793651
 40
0.3809523809523809
 40
0.3809523809523809
 40
0.3809523809523809
 40
0.3809523809523809
 40
0.3968253968253968
 40
0.3968253968253968
 40
0.3968253968253968
 40
0.3968253968253968
 40
0.4126984126984127
 40
0.4126984126984127
 40
0.4126984126984127
 40
0.4126984126984127
 40
0.4285714285714285
 40
0.4285714285714285
 40
0.4285714285714285
 40
0.4285714285714285
 40
0.4444444444444444
 40
0.4444444444444444
 40
0.4444444444444444
 40
0.4444444444444444
 40
0.4603174603174603
 40
0.4603174603174603
 40
0.4603174603174603
 40
0.4603174603174603
 40
0.4761904761904762
 40
0.4761904761904762
 40
0.4761904761904762
 40
0.4761904761904762
 40
0.492063492063492
 40
0.492063492063492
 40
0.492063492063492
 40
0.492063492063492
 40
0.5079365079365079
 40
0.5079365079365079
 40
0.5079365079365079
 40
0.5079365079365079
 40
0.5238095238095238
 40
0.5238095238095238
 40
0.5238095238095238
 40
0.5238095238095238
 40
0.5396825396825397
 40
0.5396825396825397
 40
0.5396825396825397
 40
0.5396825396825397
 40
0.5555555555555556
 40
0.5555555555555556
 40
0.5555555555555556
 40
0.5555555555555556
 40
0.5714285714285714
 40
0.5714285714285714
 40
0.5714285714285714
 40
0.5714285714285714
 40
0.5873015873015873
 40
0.5873015873015873
 40
0.5873015873015873
 40
0.5873015873015873
 40
0.6031746031746031
 40
0.6031746031746031
 40
0.6031746031746031
 40
0.6031746031746031
 40
0.6190476190476191
 40
0.6190476190476191
 40
0.6190476190476191
 40
0.6190476190476191
 40
0.6349206349206349
 40
0.6349206349206349
 40
0.6349206349206349
 40
0.6349206349206349
 40
0.6507936507936508
 40
0.6507936507936508
 40
0.6507936507936508
 40
0.6507936507936508
 40
0.6666666666666666
 40
0.6666666666666666
 40
0.6666666666666666
 40
0.6666666666666666
 40
0.6825396825396826
 40
0.6825396825396826
 40
0.6825396825396826
 40
0.6825396825396826
 40
0.6984126984126984
 40
0.6984126984126984
 40
0.6984126984126984
 40
0.6984126984126984
 40
0.7142857142857143
 40
0.7142857142857143
 40
0.7142857142857143
 40
0.7142857142857143
 40
0.7301587301587301
 40
0.7301587301587301
 40
0.7301587301587301
 40
0.7301587301587301
 40
0.746031746031746
 40
0.746031746031746
 40
0.746031746031746
 40
0.746031746031746
 40
0.7619047619047619
 40
0.7619047619047619
 40
0.7619047619047619
 40
0.7619047619047619
 40
0.7777777777777778
 40
0.7777777777777778
 40
0.7777777777777778
 40
0.7777777777777778
 40
0.7936507936507936
 40
0.7936507936507936
 40
0.7936507936507936
 40
0.7936507936507936
 40
0.8095238095238095
 40
0.8095238095238095
 40
0.8095238095238095
 40
0.8095238095238095
 40
0.8253968253968254
 40
0.8253968253968254
 40
0.8253968253968254
 40
0.8253968253968254
 40
0.8412698412698413
 40
0.8412698412698413
 40
0.8412698412698413
 40
0.8412698412698413
 40
0.8571428571428571
 40
0.8571428571428571
 40
0.8571428571428571
 40
0.8571428571428571
 40
0.873015873015873
 40
0.873015873015873
 40
0.873015873015873
 40
0.873015873015873
 40
0.8888888888888888
 40
0.8888888888888888
 40
0.8888888888888888
 40
0.8888888888888888
 40
0.9047619047619048
 40
0.9047619047619048
 40
0.9047619047619048
 40
0.9047619047619048
 40
0.9206349206349206
 40
0.9206349206349206
 40
0.9206349206349206
 40
0.9206349206349206
 40
0.9365079365079365
 40
0.9365079365079365
 40
0.9365079365079365
 40
0.9365079365079365
 40
0.9523809523809523
 40
0.9523809523809523
 40
0.9523809523809523
 40
0.9523809523809523
 40
0.9682539682539683
 40
0.9682539682539683
 40
0.9682539682539683
 40
0.9682539682539683
 40
1.0
 40
1.0
 40
1.0
 40
1.0
 10
0.49131
 20
-2.82755
 30
0.0
 10
0.49131
 20
-2.82755
 30
0.0
 10
0.43109
 20
-2.87174
 30
0.0
 10
0.43109
 20
-2.87174
 30
0.0
 10
0.43109
 20
-2.87174
 30
0.0
 10
0.43109
 20
-2.87174
 30
0.0
 10
0.37842
 20
-2.91165
 30
0.0
 10
0.37842
 20
-2.91165
 30
0.0
 10
0.37842
 20
-2.91165
 30
0.0
 10
0.37842
 20
-2.91165
 30
0.0
 10
0.33138
 20
-2.95517
 30
0.0
 10
0.33138
 20
-2.95517
 30
0.0
 10
0.33138
 20
-2.95517
 30
0.0
 10
0.33138
 20
-2.95517
 30
0.0
 10
0.29508
 20
-2.99142
 30
0.0
 10
0.29508
 20
-2.99142
 30
0.0
 10
0.29508
 20
-2.99142
 30
0.0
 10
0.29508
 20
-2.99142
 30
0.0
 10
0.25719
 20
-3.03129
 30
0.0
 10
0.25719
 20
-3.03129
 30
0.0
 10
0.25719
 20
-3.03129
 30
0.0
 10
0.25719
 20
-3.03129
 30
0.0
 10
0.22282
 20
-3.08039
 30
0.0
 10
0.22282
 20
-3.08039
 30
0.0
 10
0.22282
 20
-3.08039
 30
0.0
 10
0.22282
 20
-3.08039
 30
0.0
 10
0.19543
 20
-3.12555
 30
0.0
 10
0.19543
 20
-3.12555
 30
0.0
 10
0.19543
 20
-3.12555
 30
0.0
 10
0.19543
 20
-3.12555
 30
0.0
 10
0.17352
 20
-3.17278
 30
0.0
 10
0.17352
 20
-3.17278
 30
0.0
 10
0.17352
 20
-3.17278
 30
0.0
 10
0.17352
 20
-3.17278
 30
0.0
 10
0.15561
 20
-3.21626
 30
0.0
 10
0.15561
 20
-3.21626
 30
0.0
 10
0.15561
 20
-3.21626
 30
0.0
 10
0.15561
 20
-3.21626
 30
0.0
 10
0.13577
 20
-3.27408
 30
0.0
 10
0.13577
 20
-3.27408
 30
0.0
 10
0.13577
 20
-3.27408
 30
0.0
 10
0.13577
 20
-3.27408
 30
0.0
 10
0.121
 20
-3.34148
 30
0.0
 10
0.121
 20
-3.34148
 30
0.0
 10
0.121
 20
-3.34148
 30
0.0
 10
0.121
 20
-3.34148
 30
0.0
 10
0.11358
 20
-3.41234
 30
0.0
 10
0.11358
 20
-3.41234
 30
0.0
 10
0.11358
 20
-3.41234
 30
0.0
 10
0.11358
 20
-3.41234
 30
0.0
 10
0.11021
 20
-3.49905
 30
0.0
 10
0.11021
 20
-3.49905
 30
0.0
 10
0.11021
 20
-3.49905
 30
0.0
 10
0.11021
 20
-3.49905
 30
0.0
 10
0.1156
 20
-3.61339
 30
0.0
 10
0.1156
 20
-3.61339
 30
0.0
 10
0.1156
 20
-3.61339
 30
0.0
 10
0.1156
 20
-3.61339
 30
0.0
 10
0.12456
 20
-3.68768
 30
0.0
 10
0.12456
 20
-3.68768
 30
0.0
 10
0.12456
 20
-3.68768
 30
0.0
 10
0.12456
 20
-3.68768
 30
0.0
 10
0.14117
 20
-3.75147
 30
0.0
 10
0.14117
 20
-3.75147
 30
0.0
 10
0.14117
 20
-3.75147
 30
0.0
 10
0.14117
 20
-3.75147
 30
0.0
 10
0.17559
 20
-3.8219
 30
0.0
 10
0.17559
 20
-3.8219
 30
0.0
 10
0.17559
 20
-3.8219
 30
0.0
 10
0.17559
 20
-3.8219
 30
0.0
 10
0.21719
 20
-3.88376
 30
0.0
 10
0.21719
 20
-3.88376
 30
0.0
 10
0.21719
 20
-3.88376
 30
0.0
 10
0.21719
 20
-3.88376
 30
0.0
 10
0.26085
 20
-3.94332
 30
0.0
 10
0.26085
 20
-3.94332
 30
0.0
 10
0.26085
 20
-3.94332
 30
0.0
 10
0.26085
 20
-3.94332
 30
0.0
 10
0.3152
 20
-4.00533
 30
0.0
 10
0.3152
 20
-4.00533
 30
0.0
 10
0.3152
 20
-4.00533
 30
0.0
 10
0.3152
 20
-4.00533
 30
0.0
 10
0.37278
 20
-4.06117
 30
0.0
 10
0.37278
 20
-4.06117
 30
0.0
 10
0.37278
 20
-4.06117
 30
0.0
 10
0.37278
 20
-4.06117
 30
0.0
 10
0.42396
 20
-4.10133
 30
0.0
 10
0.42396
 20
-4.10133
 30
0.0
 10
0.42396
 20
-4.10133
 30
0.0
 10
0.42396
 20
-4.10133
 30
0.0
 10
0.47475
 20
-4.13585
 30
0.0
 10
0.47475
 20
-4.13585
 30
0.0
 10
0.47475
 20
-4.13585
 30
0.0
 10
0.47475
 20
-4.13585
 30
0.0
 10
0.53084
 20
-4.16497
 30
0.0
 10
0.53084
 20
-4.16497
 30
0.0
 10
0.53084
 20
-4.16497
 30
0.0
 10
0.53084
 20
-4.16497
 30
0.0
 10
0.59261
 20
-4.1901
 30
0.0
 10
0.59261
 20
-4.1901
 30
0.0
 10
0.59261
 20
-4.1901
 30
0.0
 10
0.59261
 20
-4.1901
 30
0.0
 10
0.65264
 20
-4.20666
 30
0.0
 10
0.65264
 20
-4.20666
 30
0.0
 10
0.65264
 20
-4.20666
 30
0.0
 10
0.65264
 20
-4.20666
 30
0.0
 10
0.71595
 20
-4.21754
 30
0.0
 10
0.71595
 20
-4.21754
 30
0.0
 10
0.71595
 20
-4.21754
 30
0.0
 10
0.71595
 20
-4.21754
 30
0.0
 10
0.78643
 20
-4.22284
 30
0.0
 10
0.78643
 20
-4.22284
 30
0.0
 10
0.78643
 20
-4.22284
 30
0.0
 10
0.78643
 20
-4.22284
 30
0.0
 10
0.87526
 20
-4.22635
 30
0.0
 10
0.87526
 20
-4.22635
 30
0.0
 10
0.87526
 20
-4.22635
 30
0.0
 10
0.87526
 20
-4.22635
 30
0.0
 10
0.95879
 20
-4.21937
 30
0.0
 10
0.95879
 20
-4.21937
 30
0.0
 10
0.95879
 20
-4.21937
 30
0.0
 10
0.95879
 20
-4.21937
 30
0.0
 10
1.03168
 20
-4.20844
 30
0.0
 10
1.03168
 20
-4.20844
 30
0.0
 10
1.03168
 20
-4.20844
 30
0.0
 10
1.03168
 20
-4.20844
 30
0.0
 10
1.11328
 20
-4.19174
 30
0.0
 10
1.11328
 20
-4.19174
 30
0.0
 10
1.11328
 20
-4.19174
 30
0.0
 10
1.11328
 20
-4.19174
 30
0.0
 10
1.17673
 20
-4.16863
 30
0.0
 10
1.17673
 20
-4.16863
 30
0.0
 10
1.17673
 20
-4.16863
 30
0.0
 10
1.17673
 20
-4.16863
 30
0.0
 10
1.24384
 20
-4.1304
 30
0.0
 10
1.24384
 20
-4.1304
 30
0.0
 10
1.24384
 20
-4.1304
 30
0.0
 10
1.24384
 20
-4.1304
 30
0.0
 10
1.31645
 20
-4.07947
 30
0.0
 10
1.31645
 20
-4.07947
 30
0.0
 10
1.31645
 20
-4.07947
 30
0.0
 10
1.31645
 20
-4.07947
 30
0.0
 10
1.37249
 20
-4.03233
 30
0.0
 10
1.37249
 20
-4.03233
 30
0.0
 10
1.37249
 20
-4.03233
 30
0.0
 10
1.37249
 20
-4.03233
 30
0.0
 10
1.42121
 20
-3.98506
 30
0.0
 10
1.42121
 20
-3.98506
 30
0.0
 10
1.42121
 20
-3.98506
 30
0.0
 10
1.42121
 20
-3.98506
 30
0.0
 10
1.46126
 20
-3.93071
 30
0.0
 10
1.46126
 20
-3.93071
 30
0.0
 10
1.46126
 20
-3.93071
 30
0.0
 10
1.46126
 20
-3.93071
 30
0.0
 10
1.50295
 20
-3.87096
 30
0.0
 10
1.50295
 20
-3.87096
 30
0.0
 10
1.50295
 20
-3.87096
 30
0.0
 10
1.50295
 20
-3.87096
 30
0.0
 10
1.5393
 20
-3.81184
 30
0.0
 10
1.5393
 20
-3.81184
 30
0.0
 10
1.5393
 20
-3.81184
 30
0.0
 10
1.5393
 20
-3.81184
 30
0.0
 10
1.57204
 20
-3.74034
 30
0.0
 10
1.57204
 20
-3.74034
 30
0.0
 10
1.57204
 20
-3.74034
 30
0.0
 10
1.57204
 20
-3.74034
 30
0.0
 10
1.58822
 20
-3.66808
 30
0.0
 10
1.58822
 20
-3.66808
 30
0.0
 10
1.58822
 20
-3.66808
 30
0.0
 10
1.58822
 20
-3.66808
 30
0.0
 10
1.59943
 20
-3.57902
 30
0.0
 10
1.59943
 20
-3.57902
 30
0.0
 10
1.59943
 20
-3.57902
 30
0.0
 10
1.59943
 20
-3.57902
 30
0.0
 10
1.59943
 20
-3.47897
 30
0.0
 10
1.59943
 20
-3.47897
 30
0.0
 10
1.59943
 20
-3.47897
 30
0.0
 10
1.59943
 20
-3.47897
 30
0.0
 10
1.58822
 20
-3.34485
 30
0.0
 10
1.58822
 20
-3.34485
 30
0.0
 10
1.58822
 20
-3.34485
 30
0.0
 10
1.58822
 20
-3.34485
 30
0.0
 10
1.55938
 20
-3.22887
 30
0.0
 10
1.55938
 20
-3.22887
 30
0.0
 10
1.55938
 20
-3.22887
 30
0.0
 10
1.55938
 20
-3.22887
 30
0.0
 10
1.52861
 20
-3.14727
 30
0.0
 10
1.52861
 20
-3.14727
 30
0.0
 10
1.52861
 20
-3.14727
 30
0.0
 10
1.52861
 20
-3.14727
 30
0.0
 10
1.49068
 20
-3.07678
 30
0.0
 10
1.49068
 20
-3.07678
 30
0.0
 10
1.49068
 20
-3.07678
 30
0.0
 10
1.49068
 20
-3.07678
 30
0.0
 10
1.43796
 20
-3.01482
 30
0.0
 10
1.43796
 20
-3.01482
 30
0.0
 10
1.43796
 20
-3.01482
 30
0.0
 10
1.43796
 20
-3.01482
 30
0.0
 10
1.37956
 20
-2.95334
 30
0.0
 10
1.37956
 20
-2.95334
 30
0.0
 10
1.37956
 20
-2.95334
 30
0.0
 10
1.37956
 20
-2.95334
 30
0.0
 10
1.30167
 20
-2.88782
 30
0.0
 10
1.30167
 20
-2.88782
 30
0.0
 10
1.30167
 20
-2.88782
 30
0.0
 10
1.30167
 20
-2.88782
 30
0.0
 10
1.22579
 20
-2.83193
 30
0.0
 10
1.22579
 20
-2.83193
 30
0.0
 10
1.22579
 20
-2.83193
 30
0.0
 10
1.22579
 20
-2.83193
 30
0.0
 10
1.15497
 20
-2.79909
 30
0.0
 10
1.15497
 20
-2.79909
 30
0.0
 10
1.15497
 20
-2.79909
 30
0.0
 10
1.15497
 20
-2.79909
 30
0.0
 10
1.08228
 20
-2.76809
 30
0.0
 10
1.08228
 20
-2.76809
 30
0.0
 10
1.08228
 20
-2.76809
 30
0.0
 10
1.08228
 20
-2.76809
 30
0.0
 10
1.01165
 20
-2.75022
 30
0.0
 10
1.01165
 20
-2.75022
 30
0.0
 10
1.01165
 20
-2.75022
 30
0.0
 10
1.01165
 20
-2.75022
 30
0.0
 10
0.93573
 20
-2.74113
 30
0.0
 10
0.93573
 20
-2.74113
 30
0.0
 10
0.93573
 20
-2.74113
 30
0.0
 10
0.93573
 20
-2.74113
 30
0.0
 10
0.83718
 20
-2.73935
 30
0.0
 10
0.83718
 20
-2.73935
 30
0.0
 10
0.83718
 20
-2.73935
 30
0.0
 10
0.83718
 20
-2.73935
 30
0.0
 10
0.75206
 20
-2.74113
 30
0.0
 10
0.75206
 20
-2.74113
 30
0.0
 10
0.75206
 20
-2.74113
 30
0.0
 10
0.75206
 20
-2.74113
 30
0.0
 10
0.67599
 20
-2.75022
 30
0.0
 10
0.67599
 20
-2.75022
 30
0.0
 10
0.67599
 20
-2.75022
 30
0.0
 10
0.67599
 20
-2.75022
 30
0.0
 10
0.61086
 20
-2.76636
 30
0.0
 10
0.61086
 20
-2.76636
 30
0.0
 10
0.61086
 20
-2.76636
 30
0.0
 10
0.61086
 20
-2.76636
 30
0.0
 10
0.55087
 20
-2.79375
 30
0.0
 10
0.55087
 20
-2.79375
 30
0.0
 10
0.55087
 20
-2.79375
 30
0.0
 10
0.55087
 20
-2.79375
 30
0.0
 10
0.49131
 20
-2.82755
 30
0.0
 10
0.49131
 20
-2.82755
 30
0.0
  0
SPLINE
  5
46
330
1F
100
AcDbEntity
  8
layer 1
 62
   250
100
AcDbSpline
210
0.0
220
0.0
230
1.0
 70
    11
 71
     3
 72
   224
 73
   220
 74
     0
 42
0.0000000001
 43
0.0000000001
 12
1.0
 22
0.0
 32
0.0
 13
1.0
 23
0.0
 33
0.0
 40
0.0
 40
0.0
 40
0.0
 40
0.0
 40
0.0178571428571429
 40
0.0178571428571429
 40
0.0178571428571429
 40
0.0178571428571429
 40
0.0357142857142857
 40
0.0357142857142857
 40
0.0357142857142857
 40
0.0357142857142857
 40
0.0535714285714286
 40
0.0535714285714286
 40
0.0535714285714286
 40
0.0535714285714286
 40
0.0714285714285714
 40
0.0714285714285714
 40
0.0714285714285714
 40
0.0714285714285714
 40
0.0892857142857143
 40
0.0892857142857143
 40
0.0892857142857143
 40
0.0892857142857143
 40
0.1071428571428571
 40
0.1071428571428571
 40
0.1071428571428571
 40
0.1071428571428571
 40
0.125
 40
0.125
 40
0.125
 40
0.125
 40
0.1428571428571428
 40
0.1428571428571428
 40
0.1428571428571428
 40
0.1428571428571428
 40
0.1607142857142857
 40
0.1607142857142857
 40
0.1607142857142857
 40
0.1607142857142857
 40
0.1785714285714286
 40
0.1785714285714286
 40
0.1785714285714286
 40
0.1785714285714286
 40
0.1964285714285714
 40
0.1964285714285714
 40
0.1964285714285714
 40
0.1964285714285714
 40
0.2142857142857143
 40
0.2142857142857143
 40
0.2142857142857143
 40
0.2142857142857143
 40
0.2321428571428572
 40
0.2321428571428572
 40
0.2321428571428572
 40
0.2321428571428572
 40
0.25
 40
0.25
 40
0.25
 40
0.25
 40
0.2678571428571428
 40
0.2678571428571428
 40
0.2678571428571428
 40
0.2678571428571428
 40
0.2857142857142857
 40
0.2857142857142857
 40
0.2857142857142857
 40
0.2857142857142857
 40
0.3035714285714285
 40
0.3035714285714285
 40
0.3035714285714285
 40
0.3035714285714285
 40
0.3214285714285715
 40
0.3214285714285715
 40
0.3214285714285715
 40
0.3214285714285715
 40
0.3392857142857143
 40
0.3392857142857143
 40
0.3392857142857143
 40
0.3392857142857143
 40
0.3571428571428572
 40
0.3571428571428572
 40
0.3571428571428572
 40
0.3571428571428572
 40
0.375
 40
0.375
 40
0.375
 40
0.375
 40
0.3928571428571428
 40
0.3928571428571428
 40
0.3928571428571428
 40
0.3928571428571428
 40
0.4107142857142857
 40
0.4107142857142857
 40
0.4107142857142857
 40
0.4107142857142857
 40
0.4285714285714285
 40
0.4285714285714285
 40
0.4285714285714285
 40
0.4285714285714285
 40
0.4464285714285715
 40
0.4464285714285715
 40
0.4464285714285715
 40
0.4464285714285715
 40
0.4642857142857143
 40
0.4642857142857143
 40
0.4642857142857143
 40
0.4642857142857143
 40
0.4821428571428572
 40
0.4821428571428572
 40
0.4821428571428572
 40
0.4821428571428572
 40
0.5
 40
0.5
 40
0.5
 40
0.5
 40
0.5178571428571429
 40
0.5178571428571429
 40
0.5178571428571429
 40
0.5178571428571429
 40
0.5357142857142857
 40
0.5357142857142857
 40
0.5357142857142857
 40
0.5357142857142857
 40
0.5535714285714286
 40
0.5535714285714286
 40
0.5535714285714286
 40
0.5535714285714286
 40
0.5714285714285714
 40
0.5714285714285714
 40
0.5714285714285714
 40
0.5714285714285714
 40
0.5892857142857143
 40
0.5892857142857143
 40
0.5892857142857143
 40
0.5892857142857143
 40
0.6071428571428571
 40
0.6071428571428571
 40
0.6071428571428571
 40
0.6071428571428571
 40
0.625
 40
0.625
 40
0.625
 40
0.625
 40
0.6428571428571429
 40
0.6428571428571429
 40
0.6428571428571429
 40
0.6428571428571429
 40
0.6607142857142857
 40
0.6607142857142857
 40
0.6607142857142857
 40
0.6607142857142857
 40
0.6785714285714286
 40
0.6785714285714286
 40
0.6785714285714286
 40
0.6785714285714286
 40
0.6964285714285714
 40
0.6964285714285714
 40
0.6964285714285714
 40
0.6964285714285714
 40
0.7142857142857143
 40
0.7142857142857143
 40
0.7142857142857143
 40
0.7142857142857143
 40
0.7321428571428571
 40
0.7321428571428571
 40
0.7321428571428571
 40
0.7321428571428571
 40
0.75
 40
0.75
 40
0.75
 40
0.75
 40
0.7678571428571429
 40
0.7678571428571429
 40
0.7678571428571429
 40
0.7678571428571429
 40
0.7857142857142857
 40
0.7857142857142857
 40
0.7857142857142857
 40
0.7857142857142857
 40
0.8035714285714286
 40
0.8035714285714286
 40
0.8035714285714286
 40
0.8035714285714286
 40
0.8214285714285714
 40
0.8214285714285714
 40
0.8214285714285714
 40
0.8214285714285714
 40
0.8392857142857143
 40
0.8392857142857143
 40
0.8392857142857143
 40
0.8392857142857143
 40
0.8571428571428571
 40
0.8571428571428571
 40
0.8571428571428571
 40
0.8571428571428571
 40
0.875
 40
0.875
 40
0.875
 40
0.875
 40
0.8928571428571429
 40
0.8928571428571429
 40
0.8928571428571429
 40
0.8928571428571429
 40
0.9107142857142857
 40
0.9107142857142857
 40
0.9107142857142857
 40
0.9107142857142857
 40
0.9285714285714286
 40
0.9285714285714286
 40
0.9285714285714286
 40
0.9285714285714286
 40
0.9464285714285714
 40
0.9464285714285714
 40
0.9464285714285714
 40
0.9464285714285714
 40
0.9642857142857143
 40
0.9642857142857143
 40
0.9642857142857143
 40
0.9642857142857143
 40
1.0
 40
1.0
 40
1.0
 40
1.0
 10
-5.41474
 20
-2.15888
 30
0.0
 10
-5.41474
 20
-2.15888
 30
0.0
 10
-4.76143
 20
-2.15705
 30
0.0
 10
-4.76143
 20
-2.15705
 30
0.0
 10
-4.76143
 20
-2.15705
 30
0.0
 10
-4.76143
 20
-2.15705
 30
0.0
 10
-4.75975
 20
-4.78125
 30
0.0
 10
-4.75975
 20
-4.78125
 30
0.0
 10
-4.75975
 20
-4.78125
 30
0.0
 10
-4.75975
 20
-4.78125
 30
0.0
 10
-5.40935
 20
-4.78487
 30
0.0
 10
-5.40935
 20
-4.78487
 30
0.0
 10
-5.40935
 20
-4.78487
 30
0.0
 10
-5.40935
 20
-4.78487
 30
0.0
 10
-5.41474
 20
-4.59287
 30
0.0
 10
-5.41474
 20
-4.59287
 30
0.0
 10
-5.41474
 20
-4.59287
 30
0.0
 10
-5.41474
 20
-4.59287
 30
0.0
 10
-5.53442
 20
-4.67279
 30
0.0
 10
-5.53442
 20
-4.67279
 30
0.0
 10
-5.53442
 20
-4.67279
 30
0.0
 10
-5.53442
 20
-4.67279
 30
0.0
 10
-5.63731
 20
-4.72531
 30
0.0
 10
-5.63731
 20
-4.72531
 30
0.0
 10
-5.63731
 20
-4.72531
 30
0.0
 10
-5.63731
 20
-4.72531
 30
0.0
 10
-5.70317
 20
-4.7542
 30
0.0
 10
-5.70317
 20
-4.7542
 30
0.0
 10
-5.70317
 20
-4.7542
 30
0.0
 10
-5.70317
 20
-4.7542
 30
0.0
 10
-5.78655
 20
-4.78689
 30
0.0
 10
-5.78655
 20
-4.78689
 30
0.0
 10
-5.78655
 20
-4.78689
 30
0.0
 10
-5.78655
 20
-4.78689
 30
0.0
 10
-5.86796
 20
-4.80865
 30
0.0
 10
-5.86796
 20
-4.80865
 30
0.0
 10
-5.86796
 20
-4.80865
 30
0.0
 10
-5.86796
 20
-4.80865
 30
0.0
 10
-5.96059
 20
-4.82651
 30
0.0
 10
-5.96059
 20
-4.82651
 30
0.0
 10
-5.96059
 20
-4.82651
 30
0.0
 10
-5.96059
 20
-4.82651
 30
0.0
 10
-6.04922
 20
-4.8358
 30
0.0
 10
-6.04922
 20
-4.8358
 30
0.0
 10
-6.04922
 20
-4.8358
 30
0.0
 10
-6.04922
 20
-4.8358
 30
0.0
 10
-6.17459
 20
-4.83763
 30
0.0
 10
-6.17459
 20
-4.83763
 30
0.0
 10
-6.17459
 20
-4.83763
 30
0.0
 10
-6.17459
 20
-4.83763
 30
0.0
 10
-6.36692
 20
-4.8358
 30
0.0
 10
-6.36692
 20
-4.8358
 30
0.0
 10
-6.36692
 20
-4.8358
 30
0.0
 10
-6.36692
 20
-4.8358
 30
0.0
 10
-6.47909
 20
-4.823
 30
0.0
 10
-6.47909
 20
-4.823
 30
0.0
 10
-6.47909
 20
-4.823
 30
0.0
 10
-6.47909
 20
-4.823
 30
0.0
 10
-6.57557
 20
-4.79594
 30
0.0
 10
-6.57557
 20
-4.79594
 30
0.0
 10
-6.57557
 20
-4.79594
 30
0.0
 10
-6.57557
 20
-4.79594
 30
0.0
 10
-6.66806
 20
-4.7633
 30
0.0
 10
-6.66806
 20
-4.7633
 30
0.0
 10
-6.66806
 20
-4.7633
 30
0.0
 10
-6.66806
 20
-4.7633
 30
0.0
 10
-6.80036
 20
-4.70673
 30
0.0
 10
-6.80036
 20
-4.70673
 30
0.0
 10
-6.80036
 20
-4.70673
 30
0.0
 10
-6.80036
 20
-4.70673
 30
0.0
 10
-6.90184
 20
-4.64525
 30
0.0
 10
-6.90184
 20
-4.64525
 30
0.0
 10
-6.90184
 20
-4.64525
 30
0.0
 10
-6.90184
 20
-4.64525
 30
0.0
 10
-7.00901
 20
-4.56374
 30
0.0
 10
-7.00901
 20
-4.56374
 30
0.0
 10
-7.00901
 20
-4.56374
 30
0.0
 10
-7.00901
 20
-4.56374
 30
0.0
 10
-7.09586
 20
-4.48734
 30
0.0
 10
-7.09586
 20
-4.48734
 30
0.0
 10
-7.09586
 20
-4.48734
 30
0.0
 10
-7.09586
 20
-4.48734
 30
0.0
 10
-7.18108
 20
-4.40025
 30
0.0
 10
-7.18108
 20
-4.40025
 30
0.0
 10
-7.18108
 20
-4.40025
 30
0.0
 10
-7.18108
 20
-4.40025
 30
0.0
 10
-7.26273
 20
-4.30266
 30
0.0
 10
-7.26273
 20
-4.30266
 30
0.0
 10
-7.26273
 20
-4.30266
 30
0.0
 10
-7.26273
 20
-4.30266
 30
0.0
 10
-7.3374
 20
-4.18996
 30
0.0
 10
-7.3374
 20
-4.18996
 30
0.0
 10
-7.3374
 20
-4.18996
 30
0.0
 10
-7.3374
 20
-4.18996
 30
0.0
 10
-7.41717
 20
-4.05058
 30
0.0
 10
-7.41717
 20
-4.05058
 30
0.0
 10
-7.41717
 20
-4.05058
 30
0.0
 10
-7.41717
 20
-4.05058
 30
0.0
 10
-7.48216
 20
-3.90158
 30
0.0
 10
-7.48216
 20
-3.90158
 30
0.0
 10
-7.48216
 20
-3.90158
 30
0.0
 10
-7.48216
 20
-3.90158
 30
0.0
 10
-7.52034
 20
-3.77453
 30
0.0
 10
-7.52034
 20
-3.77453
 30
0.0
 10
-7.52034
 20
-3.77453
 30
0.0
 10
-7.52034
 20
-3.77453
 30
0.0
 10
-7.54393
 20
-3.63871
 30
0.0
 10
-7.54393
 20
-3.63871
 30
0.0
 10
-7.54393
 20
-3.63871
 30
0.0
 10
-7.54393
 20
-3.63871
 30
0.0
 10
-7.55669
 20
-3.53728
 30
0.0
 10
-7.55669
 20
-3.53728
 30
0.0
 10
-7.55669
 20
-3.53728
 30
0.0
 10
-7.55669
 20
-3.53728
 30
0.0
 10
-7.55327
 20
-3.41937
 30
0.0
 10
-7.55327
 20
-3.41937
 30
0.0
 10
-7.55327
 20
-3.41937
 30
0.0
 10
-7.55327
 20
-3.41937
 30
0.0
 10
-7.54393
 20
-3.30667
 30
0.0
 10
-7.54393
 20
-3.30667
 30
0.0
 10
-7.54393
 20
-3.30667
 30
0.0
 10
-7.54393
 20
-3.30667
 30
0.0
 10
-7.52939
 20
-3.21081
 30
0.0
 10
-7.52939
 20
-3.21081
 30
0.0
 10
-7.52939
 20
-3.21081
 30
0.0
 10
-7.52939
 20
-3.21081
 30
0.0
 10
-7.50619
 20
-3.09623
 30
0.0
 10
-7.50619
 20
-3.09623
 30
0.0
 10
-7.50619
 20
-3.09623
 30
0.0
 10
-7.50619
 20
-3.09623
 30
0.0
 10
-7.46984
 20
-2.98762
 30
0.0
 10
-7.46984
 20
-2.98762
 30
0.0
 10
-7.46984
 20
-2.98762
 30
0.0
 10
-7.46984
 20
-2.98762
 30
0.0
 10
-7.42444
 20
-2.88946
 30
0.0
 10
-7.42444
 20
-2.88946
 30
0.0
 10
-7.42444
 20
-2.88946
 30
0.0
 10
-7.42444
 20
-2.88946
 30
0.0
 10
-7.36989
 20
-2.78821
 30
0.0
 10
-7.36989
 20
-2.78821
 30
0.0
 10
-7.36989
 20
-2.78821
 30
0.0
 10
-7.36989
 20
-2.78821
 30
0.0
 10
-7.30461
 20
-2.69188
 30
0.0
 10
-7.30461
 20
-2.69188
 30
0.0
 10
-7.30461
 20
-2.69188
 30
0.0
 10
-7.30461
 20
-2.69188
 30
0.0
 10
-7.22296
 20
-2.58678
 30
0.0
 10
-7.22296
 20
-2.58678
 30
0.0
 10
-7.22296
 20
-2.58678
 30
0.0
 10
-7.22296
 20
-2.58678
 30
0.0
 10
-7.14309
 20
-2.50161
 30
0.0
 10
-7.14309
 20
-2.50161
 30
0.0
 10
-7.14309
 20
-2.50161
 30
0.0
 10
-7.14309
 20
-2.50161
 30
0.0
 10
-7.05951
 20
-2.42357
 30
0.0
 10
-7.05951
 20
-2.42357
 30
0.0
 10
-7.05951
 20
-2.42357
 30
0.0
 10
-7.05951
 20
-2.42357
 30
0.0
 10
-6.93622
 20
-2.33663
 30
0.0
 10
-6.93622
 20
-2.33663
 30
0.0
 10
-6.93622
 20
-2.33663
 30
0.0
 10
-6.93622
 20
-2.33663
 30
0.0
 10
-6.82385
 20
-2.26744
 30
0.0
 10
-6.82385
 20
-2.26744
 30
0.0
 10
-6.82385
 20
-2.26744
 30
0.0
 10
-6.82385
 20
-2.26744
 30
0.0
 10
-6.68216
 20
-2.20601
 30
0.0
 10
-6.68216
 20
-2.20601
 30
0.0
 10
-6.68216
 20
-2.20601
 30
0.0
 10
-6.68216
 20
-2.20601
 30
0.0
 10
-6.57721
 20
-2.1714
 30
0.0
 10
-6.57721
 20
-2.1714
 30
0.0
 10
-6.57721
 20
-2.1714
 30
0.0
 10
-6.57721
 20
-2.1714
 30
0.0
 10
-6.46133
 20
-2.14405
 30
0.0
 10
-6.46133
 20
-2.14405
 30
0.0
 10
-6.46133
 20
-2.14405
 30
0.0
 10
-6.46133
 20
-2.14405
 30
0.0
 10
-6.33433
 20
-2.13149
 30
0.0
 10
-6.33433
 20
-2.13149
 30
0.0
 10
-6.33433
 20
-2.13149
 30
0.0
 10
-6.33433
 20
-2.13149
 30
0.0
 10
-6.18537
 20
-2.12956
 30
0.0
 10
-6.18537
 20
-2.12956
 30
0.0
 10
-6.18537
 20
-2.12956
 30
0.0
 10
-6.18537
 20
-2.12956
 30
0.0
 10
-6.04036
 20
-2.135
 30
0.0
 10
-6.04036
 20
-2.135
 30
0.0
 10
-6.04036
 20
-2.135
 30
0.0
 10
-6.04036
 20
-2.135
 30
0.0
 10
-5.91345
 20
-2.14776
 30
0.0
 10
-5.91345
 20
-2.14776
 30
0.0
 10
-5.91345
 20
-2.14776
 30
0.0
 10
-5.91345
 20
-2.14776
 30
0.0
 10
-5.79724
 20
-2.16976
 30
0.0
 10
-5.79724
 20
-2.16976
 30
0.0
 10
-5.79724
 20
-2.16976
 30
0.0
 10
-5.79724
 20
-2.16976
 30
0.0
 10
-5.68646
 20
-2.20404
 30
0.0
 10
-5.68646
 20
-2.20404
 30
0.0
 10
-5.68646
 20
-2.20404
 30
0.0
 10
-5.68646
 20
-2.20404
 30
0.0
 10
-5.58878
 20
-2.24414
 30
0.0
 10
-5.58878
 20
-2.24414
 30
0.0
 10
-5.58878
 20
-2.24414
 30
0.0
 10
-5.58878
 20
-2.24414
 30
0.0
 10
-5.52888
 20
-2.27856
 30
0.0
 10
-5.52888
 20
-2.27856
 30
0.0
 10
-5.52888
 20
-2.27856
 30
0.0
 10
-5.52888
 20
-2.27856
 30
0.0
 10
-5.4636
 20
-2.32574
 30
0.0
 10
-5.4636
 20
-2.32574
 30
0.0
 10
-5.4636
 20
-2.32574
 30
0.0
 10
-5.4636
 20
-2.32574
 30
0.0
 10
-5.41276
 20
-2.36917
 30
0.0
 10
-5.41276
 20
-2.36917
 30
0.0
 10
-5.41276
 20
-2.36917
 30
0.0
 10
-5.41276
 20
-2.36917
 30
0.0
 10
-5.41474
 20
-2.15888
 30
0.0
 10
-5.41474
 20
-2.15888
 30
0.0
  0
SPLINE
  5
47
330
1F
100
AcDbEntity
  8
layer 1
 62
   250
100
AcDbSpline
210
0.0
220
0.0
230
1.0
 70
    11
 71
     3
 72
   252
 73
   248
 74
     0
 42
0.0000000001
 43
0.0000000001
 12
1.0
 22
0.0
 32
0.0
 13
1.0
 23
0.0
 33
0.0
 40
0.0
 40
0.0
 40
0.0
 40
0.0
 40
0.0158730158730159
 40
0.0158730158730159
 40
0.0158730158730159
 40
0.0158730158730159
 40
0.0317460317460317
 40
0.0317460317460317
 40
0.0317460317460317
 40
0.0317460317460317
 40
0.0476190476190476
 40
0.0476190476190476
 40
0.0476190476190476
 40
0.0476190476190476
 40
0.0634920634920635
 40
0.0634920634920635
 40
0.0634920634920635
 40
0.0634920634920635
 40
0.0793650793650794
 40
0.0793650793650794
 40
0.0793650793650794
 40
0.0793650793650794
 40
0.0952380952380952
 40
0.0952380952380952
 40
0.0952380952380952
 40
0.0952380952380952
 40
0.1111111111111111
 40
0.1111111111111111
 40
0.1111111111111111
 40
0.1111111111111111
 40
0.126984126984127
 40
0.126984126984127
 40
0.126984126984127
 40
0.126984126984127
 40
0.1428571428571428
 40
0.1428571428571428
 40
0.1428571428571428
 40
0.1428571428571428
 40
0.1587301587301587
 40
0.1587301587301587
 40
0.1587301587301587
 40
0.1587301587301587
 40
0.1746031746031746
 40
0.1746031746031746
 40
0.1746031746031746
 40
0.1746031746031746
 40
0.1904761904761905
 40
0.1904761904761905
 40
0.1904761904761905
 40
0.1904761904761905
 40
0.2063492063492063
 40
0.2063492063492063
 40
0.2063492063492063
 40
0.2063492063492063
 40
0.2222222222222222
 40
0.2222222222222222
 40
0.2222222222222222
 40
0.2222222222222222
 40
0.2380952380952381
 40
0.2380952380952381
 40
0.2380952380952381
 40
0.2380952380952381
 40
0.253968253968254
 40
0.253968253968254
 40
0.253968253968254
 40
0.253968253968254
 40
0.2698412698412698
 40
0.2698412698412698
 40
0.2698412698412698
 40
0.2698412698412698
 40
0.2857142857142857
 40
0.2857142857142857
 40
0.2857142857142857
 40
0.2857142857142857
 40
0.3015873015873016
 40
0.3015873015873016
 40
0.3015873015873016
 40
0.3015873015873016
 40
0.3174603174603174
 40
0.3174603174603174
 40
0.3174603174603174
 40
0.3174603174603174
 40
0.3333333333333333
 40
0.3333333333333333
 40
0.3333333333333333
 40
0.3333333333333333
 40
0.3492063492063492
 40
0.3492063492063492
 40
0.3492063492063492
 40
0.3492063492063492
 40
0.3650793650793651
 40
0.3650793650793651
 40
0.3650793650793651
 40
0.3650793650793651
 40
0.3809523809523809
 40
0.3809523809523809
 40
0.3809523809523809
 40
0.3809523809523809
 40
0.3968253968253968
 40
0.3968253968253968
 40
0.3968253968253968
 40
0.3968253968253968
 40
0.4126984126984127
 40
0.4126984126984127
 40
0.4126984126984127
 40
0.4126984126984127
 40
0.4285714285714285
 40
0.4285714285714285
 40
0.4285714285714285
 40
0.4285714285714285
 40
0.4444444444444444
 40
0.4444444444444444
 40
0.4444444444444444
 40
0.4444444444444444
 40
0.4603174603174603
 40
0.4603174603174603
 40
0.4603174603174603
 40
0.4603174603174603
 40
0.4761904761904762
 40
0.4761904761904762
 40
0.4761904761904762
 40
0.4761904761904762
 40
0.492063492063492
 40
0.492063492063492
 40
0.492063492063492
 40
0.492063492063492
 40
0.5079365079365079
 40
0.5079365079365079
 40
0.5079365079365079
 40
0.5079365079365079
 40
0.5238095238095238
 40
0.5238095238095238
 40
0.5238095238095238
 40
0.5238095238095238
 40
0.5396825396825397
 40
0.5396825396825397
 40
0.5396825396825397
 40
0.5396825396825397
 40
0.5555555555555556
 40
0.5555555555555556
 40
0.5555555555555556
 40
0.5555555555555556
 40
0.5714285714285714
 40
0.5714285714285714
 40
0.5714285714285714
 40
0.5714285714285714
 40
0.5873015873015873
 40
0.5873015873015873
 40
0.5873015873015873
 40
0.5873015873015873
 40
0.6031746031746031
 40
0.6031746031746031
 40
0.6031746031746031
 40
0.6031746031746031
 40
0.6190476190476191
 40
0.6190476190476191
 40
0.6190476190476191
 40
0.6190476190476191
 40
0.6349206349206349
 40
0.6349206349206349
 40
0.6349206349206349
 40
0.6349206349206349
 40
0.6507936507936508
 40
0.6507936507936508
 40
0.6507936507936508
 40
0.6507936507936508
 40
0.6666666666666666
 40
0.6666666666666666
 40
0.6666666666666666
 40
0.6666666666666666
 40
0.6825396825396826
 40
0.6825396825396826
 40
0.6825396825396826
 40
0.6825396825396826
 40
0.6984126984126984
 40
0.6984126984126984
 40
0.6984126984126984
 40
0.6984126984126984
 40
0.7142857142857143
 40
0.7142857142857143
 40
0.7142857142857143
 40
0.7142857142857143
 40
0.7301587301587301
 40
0.7301587301587301
 40
0.7301587301587301
 40
0.7301587301587301
 40
0.746031746031746
 40
0.746031746031746
 40
0.746031746031746
 40
0.746031746031746
 40
0.7619047619047619
 40
0.7619047619047619
 40
0.7619047619047619
 40
0.7619047619047619
 40
0.7777777777777778
 40
0.7777777777777778
 40
0.7777777777777778
 40
0.7777777777777778
 40
0.7936507936507936
 40
0.7936507936507936
 40
0.7936507936507936
 40
0.7936507936507936
 40
0.8095238095238095
 40
0.8095238095238095
 40
0.8095238095238095
 40
0.8095238095238095
 40
0.8253968253968254
 40
0.8253968253968254
 40
0.8253968253968254
 40
0.8253968253968254
 40
0.8412698412698413
 40
0.8412698412698413
 40
0.8412698412698413
 40
0.8412698412698413
 40
0.8571428571428571
 40
0.8571428571428571
 40
0.8571428571428571
 40
0.8571428571428571
 40
0.873015873015873
 40
0.873015873015873
 40
0.873015873015873
 40
0.873015873015873
 40
0.8888888888888888
 40
0.8888888888888888
 40
0.8888888888888888
 40
0.8888888888888888
 40
0.9047619047619048
 40
0.9047619047619048
 40
0.9047619047619048
 40
0.9047619047619048
 40
0.9206349206349206
 40
0.9206349206349206
 40
0.9206349206349206
 40
0.9206349206349206
 40
0.9365079365079365
 40
0.9365079365079365
 40
0.9365079365079365
 40
0.9365079365079365
 40
0.9523809523809523
 40
0.9523809523809523
 40
0.9523809523809523
 40
0.9523809523809523
 40
0.9682539682539683
 40
0.9682539682539683
 40
0.9682539682539683
 40
0.9682539682539683
 40
1.0
 40
1.0
 40
1.0
 40
1.0
 10
3.48204
 20
-2.81931
 30
0.0
 10
3.48204
 20
-2.81931
 30
0.0
 10
3.42191
 20
-2.86327
 30
0.0
 10
3.42191
 20
-2.86327
 30
0.0
 10
3.42191
 20
-2.86327
 30
0.0
 10
3.42191
 20
-2.86327
 30
0.0
 10
3.36933
 20
-2.90308
 30
0.0
 10
3.36933
 20
-2.90308
 30
0.0
 10
3.36933
 20
-2.90308
 30
0.0
 10
3.36933
 20
-2.90308
 30
0.0
 10
3.32201
 20
-2.94656
 30
0.0
 10
3.32201
 20
-2.94656
 30
0.0
 10
3.32201
 20
-2.94656
 30
0.0
 10
3.32201
 20
-2.94656
 30
0.0
 10
3.28585
 20
-2.9831
 30
0.0
 10
3.28585
 20
-2.9831
 30
0.0
 10
3.28585
 20
-2.9831
 30
0.0
 10
3.28585
 20
-2.9831
 30
0.0
 10
3.24782
 20
-3.02296
 30
0.0
 10
3.24782
 20
-3.02296
 30
0.0
 10
3.24782
 20
-3.02296
 30
0.0
 10
3.24782
 20
-3.02296
 30
0.0
 10
3.21344
 20
-3.07178
 30
0.0
 10
3.21344
 20
-3.07178
 30
0.0
 10
3.21344
 20
-3.07178
 30
0.0
 10
3.21344
 20
-3.07178
 30
0.0
 10
3.186
 20
-3.11708
 30
0.0
 10
3.186
 20
-3.11708
 30
0.0
 10
3.186
 20
-3.11708
 30
0.0
 10
3.186
 20
-3.11708
 30
0.0
 10
3.16438
 20
-3.16416
 30
0.0
 10
3.16438
 20
-3.16416
 30
0.0
 10
3.16438
 20
-3.16416
 30
0.0
 10
3.16438
 20
-3.16416
 30
0.0
 10
3.14614
 20
-3.20778
 30
0.0
 10
3.14614
 20
-3.20778
 30
0.0
 10
3.14614
 20
-3.20778
 30
0.0
 10
3.14614
 20
-3.20778
 30
0.0
 10
3.12635
 20
-3.2657
 30
0.0
 10
3.12635
 20
-3.2657
 30
0.0
 10
3.12635
 20
-3.2657
 30
0.0
 10
3.12635
 20
-3.2657
 30
0.0
 10
3.11167
 20
-3.33271
 30
0.0
 10
3.11167
 20
-3.33271
 30
0.0
 10
3.11167
 20
-3.33271
 30
0.0
 10
3.11167
 20
-3.33271
 30
0.0
 10
3.1043
 20
-3.40377
 30
0.0
 10
3.1043
 20
-3.40377
 30
0.0
 10
3.1043
 20
-3.40377
 30
0.0
 10
3.1043
 20
-3.40377
 30
0.0
 10
3.10064
 20
-3.49087
 30
0.0
 10
3.10064
 20
-3.49087
 30
0.0
 10
3.10064
 20
-3.49087
 30
0.0
 10
3.10064
 20
-3.49087
 30
0.0
 10
3.10623
 20
-3.60487
 30
0.0
 10
3.10623
 20
-3.60487
 30
0.0
 10
3.10623
 20
-3.60487
 30
0.0
 10
3.10623
 20
-3.60487
 30
0.0
 10
3.11538
 20
-3.67935
 30
0.0
 10
3.11538
 20
-3.67935
 30
0.0
 10
3.11538
 20
-3.67935
 30
0.0
 10
3.11538
 20
-3.67935
 30
0.0
 10
3.1317
 20
-3.74285
 30
0.0
 10
3.1317
 20
-3.74285
 30
0.0
 10
3.1317
 20
-3.74285
 30
0.0
 10
3.1317
 20
-3.74285
 30
0.0
 10
3.16617
 20
-3.81338
 30
0.0
 10
3.16617
 20
-3.81338
 30
0.0
 10
3.16617
 20
-3.81338
 30
0.0
 10
3.16617
 20
-3.81338
 30
0.0
 10
3.208
 20
-3.8751
 30
0.0
 10
3.208
 20
-3.8751
 30
0.0
 10
3.208
 20
-3.8751
 30
0.0
 10
3.208
 20
-3.8751
 30
0.0
 10
3.25162
 20
-3.93514
 30
0.0
 10
3.25162
 20
-3.93514
 30
0.0
 10
3.25162
 20
-3.93514
 30
0.0
 10
3.25162
 20
-3.93514
 30
0.0
 10
3.30573
 20
-3.99666
 30
0.0
 10
3.30573
 20
-3.99666
 30
0.0
 10
3.30573
 20
-3.99666
 30
0.0
 10
3.30573
 20
-3.99666
 30
0.0
 10
3.36384
 20
-4.0527
 30
0.0
 10
3.36384
 20
-4.0527
 30
0.0
 10
3.36384
 20
-4.0527
 30
0.0
 10
3.36384
 20
-4.0527
 30
0.0
 10
3.41449
 20
-4.09285
 30
0.0
 10
3.41449
 20
-4.09285
 30
0.0
 10
3.41449
 20
-4.09285
 30
0.0
 10
3.41449
 20
-4.09285
 30
0.0
 10
3.46552
 20
-4.12723
 30
0.0
 10
3.46552
 20
-4.12723
 30
0.0
 10
3.46552
 20
-4.12723
 30
0.0
 10
3.46552
 20
-4.12723
 30
0.0
 10
3.52152
 20
-4.15635
 30
0.0
 10
3.52152
 20
-4.15635
 30
0.0
 10
3.52152
 20
-4.15635
 30
0.0
 10
3.52152
 20
-4.15635
 30
0.0
 10
3.58352
 20
-4.18158
 30
0.0
 10
3.58352
 20
-4.18158
 30
0.0
 10
3.58352
 20
-4.18158
 30
0.0
 10
3.58352
 20
-4.18158
 30
0.0
 10
3.64303
 20
-4.198
 30
0.0
 10
3.64303
 20
-4.198
 30
0.0
 10
3.64303
 20
-4.198
 30
0.0
 10
3.64303
 20
-4.198
 30
0.0
 10
3.70677
 20
-4.20888
 30
0.0
 10
3.70677
 20
-4.20888
 30
0.0
 10
3.70677
 20
-4.20888
 30
0.0
 10
3.70677
 20
-4.20888
 30
0.0
 10
3.77711
 20
-4.21432
 30
0.0
 10
3.77711
 20
-4.21432
 30
0.0
 10
3.77711
 20
-4.21432
 30
0.0
 10
3.77711
 20
-4.21432
 30
0.0
 10
3.86632
 20
-4.21788
 30
0.0
 10
3.86632
 20
-4.21788
 30
0.0
 10
3.86632
 20
-4.21788
 30
0.0
 10
3.86632
 20
-4.21788
 30
0.0
 10
3.9497
 20
-4.21066
 30
0.0
 10
3.9497
 20
-4.21066
 30
0.0
 10
3.9497
 20
-4.21066
 30
0.0
 10
3.9497
 20
-4.21066
 30
0.0
 10
4.02201
 20
-4.19992
 30
0.0
 10
4.02201
 20
-4.19992
 30
0.0
 10
4.02201
 20
-4.19992
 30
0.0
 10
4.02201
 20
-4.19992
 30
0.0
 10
4.10371
 20
-4.18331
 30
0.0
 10
4.10371
 20
-4.18331
 30
0.0
 10
4.10371
 20
-4.18331
 30
0.0
 10
4.10371
 20
-4.18331
 30
0.0
 10
4.1675
 20
-4.16011
 30
0.0
 10
4.1675
 20
-4.16011
 30
0.0
 10
4.1675
 20
-4.16011
 30
0.0
 10
4.1675
 20
-4.16011
 30
0.0
 10
4.23418
 20
-4.12198
 30
0.0
 10
4.23418
 20
-4.12198
 30
0.0
 10
4.23418
 20
-4.12198
 30
0.0
 10
4.23418
 20
-4.12198
 30
0.0
 10
4.30697
 20
-4.07114
 30
0.0
 10
4.30697
 20
-4.07114
 30
0.0
 10
4.30697
 20
-4.07114
 30
0.0
 10
4.30697
 20
-4.07114
 30
0.0
 10
4.36311
 20
-4.02415
 30
0.0
 10
4.36311
 20
-4.02415
 30
0.0
 10
4.36311
 20
-4.02415
 30
0.0
 10
4.36311
 20
-4.02415
 30
0.0
 10
4.41217
 20
-3.97683
 30
0.0
 10
4.41217
 20
-3.97683
 30
0.0
 10
4.41217
 20
-3.97683
 30
0.0
 10
4.41217
 20
-3.97683
 30
0.0
 10
4.45213
 20
-3.92228
 30
0.0
 10
4.45213
 20
-3.92228
 30
0.0
 10
4.45213
 20
-3.92228
 30
0.0
 10
4.45213
 20
-3.92228
 30
0.0
 10
4.49358
 20
-3.86273
 30
0.0
 10
4.49358
 20
-3.86273
 30
0.0
 10
4.49358
 20
-3.86273
 30
0.0
 10
4.49358
 20
-3.86273
 30
0.0
 10
4.52988
 20
-3.80341
 30
0.0
 10
4.52988
 20
-3.80341
 30
0.0
 10
4.52988
 20
-3.80341
 30
0.0
 10
4.52988
 20
-3.80341
 30
0.0
 10
4.56238
 20
-3.73211
 30
0.0
 10
4.56238
 20
-3.73211
 30
0.0
 10
4.56238
 20
-3.73211
 30
0.0
 10
4.56238
 20
-3.73211
 30
0.0
 10
4.57899
 20
-3.65971
 30
0.0
 10
4.57899
 20
-3.65971
 30
0.0
 10
4.57899
 20
-3.65971
 30
0.0
 10
4.57899
 20
-3.65971
 30
0.0
 10
4.59011
 20
-3.57083
 30
0.0
 10
4.59011
 20
-3.57083
 30
0.0
 10
4.59011
 20
-3.57083
 30
0.0
 10
4.59011
 20
-3.57083
 30
0.0
 10
4.59011
 20
-3.47069
 30
0.0
 10
4.59011
 20
-3.47069
 30
0.0
 10
4.59011
 20
-3.47069
 30
0.0
 10
4.59011
 20
-3.47069
 30
0.0
 10
4.57899
 20
-3.33637
 30
0.0
 10
4.57899
 20
-3.33637
 30
0.0
 10
4.57899
 20
-3.33637
 30
0.0
 10
4.57899
 20
-3.33637
 30
0.0
 10
4.55025
 20
-3.22015
 30
0.0
 10
4.55025
 20
-3.22015
 30
0.0
 10
4.55025
 20
-3.22015
 30
0.0
 10
4.55025
 20
-3.22015
 30
0.0
 10
4.519
 20
-3.13884
 30
0.0
 10
4.519
 20
-3.13884
 30
0.0
 10
4.519
 20
-3.13884
 30
0.0
 10
4.519
 20
-3.13884
 30
0.0
 10
4.48111
 20
-3.06817
 30
0.0
 10
4.48111
 20
-3.06817
 30
0.0
 10
4.48111
 20
-3.06817
 30
0.0
 10
4.48111
 20
-3.06817
 30
0.0
 10
4.42864
 20
-3.0063
 30
0.0
 10
4.42864
 20
-3.0063
 30
0.0
 10
4.42864
 20
-3.0063
 30
0.0
 10
4.42864
 20
-3.0063
 30
0.0
 10
4.37048
 20
-2.94492
 30
0.0
 10
4.37048
 20
-2.94492
 30
0.0
 10
4.37048
 20
-2.94492
 30
0.0
 10
4.37048
 20
-2.94492
 30
0.0
 10
4.29239
 20
-2.8794
 30
0.0
 10
4.29239
 20
-2.8794
 30
0.0
 10
4.29239
 20
-2.8794
 30
0.0
 10
4.29239
 20
-2.8794
 30
0.0
 10
4.21647
 20
-2.82326
 30
0.0
 10
4.21647
 20
-2.82326
 30
0.0
 10
4.21647
 20
-2.82326
 30
0.0
 10
4.21647
 20
-2.82326
 30
0.0
 10
4.1455
 20
-2.79043
 30
0.0
 10
4.1455
 20
-2.79043
 30
0.0
 10
4.1455
 20
-2.79043
 30
0.0
 10
4.1455
 20
-2.79043
 30
0.0
 10
4.0729
 20
-2.75981
 30
0.0
 10
4.0729
 20
-2.75981
 30
0.0
 10
4.0729
 20
-2.75981
 30
0.0
 10
4.0729
 20
-2.75981
 30
0.0
 10
4.00237
 20
-2.74156
 30
0.0
 10
4.00237
 20
-2.74156
 30
0.0
 10
4.00237
 20
-2.74156
 30
0.0
 10
4.00237
 20
-2.74156
 30
0.0
 10
3.92621
 20
-2.73265
 30
0.0
 10
3.92621
 20
-2.73265
 30
0.0
 10
3.92621
 20
-2.73265
 30
0.0
 10
3.92621
 20
-2.73265
 30
0.0
 10
3.828
 20
-2.73087
 30
0.0
 10
3.828
 20
-2.73087
 30
0.0
 10
3.828
 20
-2.73087
 30
0.0
 10
3.828
 20
-2.73087
 30
0.0
 10
3.74268
 20
-2.73265
 30
0.0
 10
3.74268
 20
-2.73265
 30
0.0
 10
3.74268
 20
-2.73265
 30
0.0
 10
3.74268
 20
-2.73265
 30
0.0
 10
3.66676
 20
-2.74156
 30
0.0
 10
3.66676
 20
-2.74156
 30
0.0
 10
3.66676
 20
-2.74156
 30
0.0
 10
3.66676
 20
-2.74156
 30
0.0
 10
3.60129
 20
-2.75788
 30
0.0
 10
3.60129
 20
-2.75788
 30
0.0
 10
3.60129
 20
-2.75788
 30
0.0
 10
3.60129
 20
-2.75788
 30
0.0
 10
3.54169
 20
-2.78513
 30
0.0
 10
3.54169
 20
-2.78513
 30
0.0
 10
3.54169
 20
-2.78513
 30
0.0
 10
3.54169
 20
-2.78513
 30
0.0
 10
3.48204
 20
-2.81931
 30
0.0
 10
3.48204
 20
-2.81931
 30
0.0
  0
SPLINE
  5
48
330
1F
100
AcDbEntity
  8
layer 1
 62
   250
100
AcDbSpline
210
0.0
220
0.0
230
1.0
 70
    11
 71
     3
 72
   224
 73
   220
 74
     0
 42
0.0000000001
 43
0.0000000001
 12
1.0
 22
0.0
 32
0.0
 13
1.0
 23
0.0
 33
0.0
 40
0.0
 40
0.0
 40
0.0
 40
0.0
 40
0.0178571428571429
 40
0.0178571428571429
 40
0.0178571428571429
 40
0.0178571428571429
 40
0.0357142857142857
 40
0.0357142857142857
 40
0.0357142857142857
 40
0.0357142857142857
 40
0.0535714285714286
 40
0.0535714285714286
 40
0.0535714285714286
 40
0.0535714285714286
 40
0.0714285714285714
 40
0.0714285714285714
 40
0.0714285714285714
 40
0.0714285714285714
 40
0.0892857142857143
 40
0.0892857142857143
 40
0.0892857142857143
 40
0.0892857142857143
 40
0.1071428571428571
 40
0.1071428571428571
 40
0.1071428571428571
 40
0.1071428571428571
 40
0.125
 40
0.125
 40
0.125
 40
0.125
 40
0.1428571428571428
 40
0.1428571428571428
 40
0.1428571428571428
 40
0.1428571428571428
 40
0.1607142857142857
 40
0.1607142857142857
 40
0.1607142857142857
 40
0.1607142857142857
 40
0.1785714285714286
 40
0.1785714285714286
 40
0.1785714285714286
 40
0.1785714285714286
 40
0.1964285714285714
 40
0.1964285714285714
 40
0.1964285714285714
 40
0.1964285714285714
 40
0.2142857142857143
 40
0.2142857142857143
 40
0.2142857142857143
 40
0.2142857142857143
 40
0.2321428571428572
 40
0.2321428571428572
 40
0.2321428571428572
 40
0.2321428571428572
 40
0.25
 40
0.25
 40
0.25
 40
0.25
 40
0.2678571428571428
 40
0.2678571428571428
 40
0.2678571428571428
 40
0.2678571428571428
 40
0.2857142857142857
 40
0.2857142857142857
 40
0.2857142857142857
 40
0.2857142857142857
 40
0.3035714285714285
 40
0.3035714285714285
 40
0.3035714285714285
 40
0.3035714285714285
 40
0.3214285714285715
 40
0.3214285714285715
 40
0.3214285714285715
 40
0.3214285714285715
 40
0.3392857142857143
 40
0.3392857142857143
 40
0.3392857142857143
 40
0.3392857142857143
 40
0.3571428571428572
 40
0.3571428571428572
 40
0.3571428571428572
 40
0.3571428571428572
 40
0.375
 40
0.375
 40
0.375
 40
0.375
 40
0.3928571428571428
 40
0.3928571428571428
 40
0.3928571428571428
 40
0.3928571428571428
 40
0.4107142857142857
 40
0.4107142857142857
 40
0.4107142857142857
 40
0.4107142857142857
 40
0.4285714285714285
 40
0.4285714285714285
 40
0.4285714285714285
 40
0.4285714285714285
 40
0.4464285714285715
 40
0.4464285714285715
 40
0.4464285714285715
 40
0.4464285714285715
 40
0.4642857142857143
 40
0.4642857142857143
 40
0.4642857142857143
 40
0.4642857142857143
 40
0.4821428571428572
 40
0.4821428571428572
 40
0.4821428571428572
 40
0.4821428571428572
 40
0.5
 40
0.5
 40
0.5
 40
0.5
 40
0.5178571428571429
 40
0.5178571428571429
 40
0.5178571428571429
 40
0.5178571428571429
 40
0.5357142857142857
 40
0.5357142857142857
 40
0.5357142857142857
 40
0.5357142857142857
 40
0.5535714285714286
 40
0.5535714285714286
 40
0.5535714285714286
 40
0.5535714285714286
 40
0.5714285714285714
 40
0.5714285714285714
 40
0.5714285714285714
 40
0.5714285714285714
 40
0.5892857142857143
 40
0.5892857142857143
 40
0.5892857142857143
 40
0.5892857142857143
 40
0.6071428571428571
 40
0.6071428571428571
 40
0.6071428571428571
 40
0.6071428571428571
 40
0.625
 40
0.625
 40
0.625
 40
0.625
 40
0.6428571428571429
 40
0.6428571428571429
 40
0.6428571428571429
 40
0.6428571428571429
 40
0.6607142857142857
 40
0.6607142857142857
 40
0.6607142857142857
 40
0.6607142857142857
 40
0.6785714285714286
 40
0.6785714285714286
 40
0.6785714285714286
 40
0.6785714285714286
 40
0.6964285714285714
 40
0.6964285714285714
 40
0.6964285714285714
 40
0.6964285714285714
 40
0.7142857142857143
 40
0.7142857142857143
 40
0.7142857142857143
 40
0.7142857142857143
 40
0.7321428571428571
 40
0.7321428571428571
 40
0.7321428571428571
 40
0.7321428571428571
 40
0.75
 40
0.75
 40
0.75
 40
0.75
 40
0.7678571428571429
 40
0.7678571428571429
 40
0.7678571428571429
 40
0.7678571428571429
 40
0.7857142857142857
 40
0.7857142857142857
 40
0.7857142857142857
 40
0.7857142857142857
 40
0.8035714285714286
 40
0.8035714285714286
 40
0.8035714285714286
 40
0.8035714285714286
 40
0.8214285714285714
 40
0.8214285714285714
 40
0.8214285714285714
 40
0.8214285714285714
 40
0.8392857142857143
 40
0.8392857142857143
 40
0.8392857142857143
 40
0.8392857142857143
 40
0.8571428571428571
 40
0.8571428571428571
 40
0.8571428571428571
 40
0.8571428571428571
 40
0.875
 40
0.875
 40
0.875
 40
0.875
 40
0.8928571428571429
 40
0.8928571428571429
 40
0.8928571428571429
 40
0.8928571428571429
 40
0.9107142857142857
 40
0.9107142857142857
 40
0.9107142857142857
 40
0.9107142857142857
 40
0.9285714285714286
 40
0.9285714285714286
 40
0.9285714285714286
 40
0.9285714285714286
 40
0.9464285714285714
 40
0.9464285714285714
 40
0.9464285714285714
 40
0.9464285714285714
 40
0.9642857142857143
 40
0.9642857142857143
 40
0.9642857142857143
 40
0.9642857142857143
 40
1.0
 40
1.0
 40
1.0
 40
1.0
 10
4.59357
 20
-2.16278
 30
0.0
 10
4.59357
 20
-2.16278
 30
0.0
 10
5.2465
 20
-2.16114
 30
0.0
 10
5.2465
 20
-2.16114
 30
0.0
 10
5.2465
 20
-2.16114
 30
0.0
 10
5.2465
 20
-2.16114
 30
0.0
 10
5.24832
 20
-4.78588
 30
0.0
 10
5.24832
 20
-4.78588
 30
0.0
 10
5.24832
 20
-4.78588
 30
0.0
 10
5.24832
 20
-4.78588
 30
0.0
 10
4.59906
 20
-4.78954
 30
0.0
 10
4.59906
 20
-4.78954
 30
0.0
 10
4.59906
 20
-4.78954
 30
0.0
 10
4.59906
 20
-4.78954
 30
0.0
 10
4.59357
 20
-4.59686
 30
0.0
 10
4.59357
 20
-4.59686
 30
0.0
 10
4.59357
 20
-4.59686
 30
0.0
 10
4.59357
 20
-4.59686
 30
0.0
 10
4.47403
 20
-4.67674
 30
0.0
 10
4.47403
 20
-4.67674
 30
0.0
 10
4.47403
 20
-4.67674
 30
0.0
 10
4.47403
 20
-4.67674
 30
0.0
 10
4.37048
 20
-4.72936
 30
0.0
 10
4.37048
 20
-4.72936
 30
0.0
 10
4.37048
 20
-4.72936
 30
0.0
 10
4.37048
 20
-4.72936
 30
0.0
 10
4.3052
 20
-4.75844
 30
0.0
 10
4.3052
 20
-4.75844
 30
0.0
 10
4.3052
 20
-4.75844
 30
0.0
 10
4.3052
 20
-4.75844
 30
0.0
 10
4.22176
 20
-4.79127
 30
0.0
 10
4.22176
 20
-4.79127
 30
0.0
 10
4.22176
 20
-4.79127
 30
0.0
 10
4.22176
 20
-4.79127
 30
0.0
 10
4.1403
 20
-4.81289
 30
0.0
 10
4.1403
 20
-4.81289
 30
0.0
 10
4.1403
 20
-4.81289
 30
0.0
 10
4.1403
 20
-4.81289
 30
0.0
 10
4.04777
 20
-4.83104
 30
0.0
 10
4.04777
 20
-4.83104
 30
0.0
 10
4.04777
 20
-4.83104
 30
0.0
 10
4.04777
 20
-4.83104
 30
0.0
 10
3.95895
 20
-4.83999
 30
0.0
 10
3.95895
 20
-4.83999
 30
0.0
 10
3.95895
 20
-4.83999
 30
0.0
 10
3.95895
 20
-4.83999
 30
0.0
 10
3.83382
 20
-4.84177
 30
0.0
 10
3.83382
 20
-4.84177
 30
0.0
 10
3.83382
 20
-4.84177
 30
0.0
 10
3.83382
 20
-4.84177
 30
0.0
 10
3.6411
 20
-4.83999
 30
0.0
 10
3.6411
 20
-4.83999
 30
0.0
 10
3.6411
 20
-4.83999
 30
0.0
 10
3.6411
 20
-4.83999
 30
0.0
 10
3.52878
 20
-4.82762
 30
0.0
 10
3.52878
 20
-4.82762
 30
0.0
 10
3.52878
 20
-4.82762
 30
0.0
 10
3.52878
 20
-4.82762
 30
0.0
 10
3.43264
 20
-4.80008
 30
0.0
 10
3.43264
 20
-4.80008
 30
0.0
 10
3.43264
 20
-4.80008
 30
0.0
 10
3.43264
 20
-4.80008
 30
0.0
 10
3.34025
 20
-4.76744
 30
0.0
 10
3.34025
 20
-4.76744
 30
0.0
 10
3.34025
 20
-4.76744
 30
0.0
 10
3.34025
 20
-4.76744
 30
0.0
 10
3.208
 20
-4.71125
 30
0.0
 10
3.208
 20
-4.71125
 30
0.0
 10
3.208
 20
-4.71125
 30
0.0
 10
3.208
 20
-4.71125
 30
0.0
 10
3.10623
 20
-4.64953
 30
0.0
 10
3.10623
 20
-4.64953
 30
0.0
 10
3.10623
 20
-4.64953
 30
0.0
 10
3.10623
 20
-4.64953
 30
0.0
 10
2.9994
 20
-4.56827
 30
0.0
 10
2.9994
 20
-4.56827
 30
0.0
 10
2.9994
 20
-4.56827
 30
0.0
 10
2.9994
 20
-4.56827
 30
0.0
 10
2.91226
 20
-4.49201
 30
0.0
 10
2.91226
 20
-4.49201
 30
0.0
 10
2.91226
 20
-4.49201
 30
0.0
 10
2.91226
 20
-4.49201
 30
0.0
 10
2.82705
 20
-4.40487
 30
0.0
 10
2.82705
 20
-4.40487
 30
0.0
 10
2.82705
 20
-4.40487
 30
0.0
 10
2.82705
 20
-4.40487
 30
0.0
 10
2.7453
 20
-4.30666
 30
0.0
 10
2.7453
 20
-4.30666
 30
0.0
 10
2.7453
 20
-4.30666
 30
0.0
 10
2.7453
 20
-4.30666
 30
0.0
 10
2.67091
 20
-4.19453
 30
0.0
 10
2.67091
 20
-4.19453
 30
0.0
 10
2.67091
 20
-4.19453
 30
0.0
 10
2.67091
 20
-4.19453
 30
0.0
 10
2.59104
 20
-4.05448
 30
0.0
 10
2.59104
 20
-4.05448
 30
0.0
 10
2.59104
 20
-4.05448
 30
0.0
 10
2.59104
 20
-4.05448
 30
0.0
 10
2.52576
 20
-3.90605
 30
0.0
 10
2.52576
 20
-3.90605
 30
0.0
 10
2.52576
 20
-3.90605
 30
0.0
 10
2.52576
 20
-3.90605
 30
0.0
 10
2.48792
 20
-3.7792
 30
0.0
 10
2.48792
 20
-3.7792
 30
0.0
 10
2.48792
 20
-3.7792
 30
0.0
 10
2.48792
 20
-3.7792
 30
0.0
 10
2.46419
 20
-3.64314
 30
0.0
 10
2.46419
 20
-3.64314
 30
0.0
 10
2.46419
 20
-3.64314
 30
0.0
 10
2.46419
 20
-3.64314
 30
0.0
 10
2.45157
 20
-3.54147
 30
0.0
 10
2.45157
 20
-3.54147
 30
0.0
 10
2.45157
 20
-3.54147
 30
0.0
 10
2.45157
 20
-3.54147
 30
0.0
 10
2.45513
 20
-3.42347
 30
0.0
 10
2.45513
 20
-3.42347
 30
0.0
 10
2.45513
 20
-3.42347
 30
0.0
 10
2.45513
 20
-3.42347
 30
0.0
 10
2.46419
 20
-3.31129
 30
0.0
 10
2.46419
 20
-3.31129
 30
0.0
 10
2.46419
 20
-3.31129
 30
0.0
 10
2.46419
 20
-3.31129
 30
0.0
 10
2.47868
 20
-3.21481
 30
0.0
 10
2.47868
 20
-3.21481
 30
0.0
 10
2.47868
 20
-3.21481
 30
0.0
 10
2.47868
 20
-3.21481
 30
0.0
 10
2.50232
 20
-3.10071
 30
0.0
 10
2.50232
 20
-3.10071
 30
0.0
 10
2.50232
 20
-3.10071
 30
0.0
 10
2.50232
 20
-3.10071
 30
0.0
 10
2.53862
 20
-2.99205
 30
0.0
 10
2.53862
 20
-2.99205
 30
0.0
 10
2.53862
 20
-2.99205
 30
0.0
 10
2.53862
 20
-2.99205
 30
0.0
 10
2.58387
 20
-2.89408
 30
0.0
 10
2.58387
 20
-2.89408
 30
0.0
 10
2.58387
 20
-2.89408
 30
0.0
 10
2.58387
 20
-2.89408
 30
0.0
 10
2.63823
 20
-2.7924
 30
0.0
 10
2.63823
 20
-2.7924
 30
0.0
 10
2.63823
 20
-2.7924
 30
0.0
 10
2.63823
 20
-2.7924
 30
0.0
 10
2.70365
 20
-2.69635
 30
0.0
 10
2.70365
 20
-2.69635
 30
0.0
 10
2.70365
 20
-2.69635
 30
0.0
 10
2.70365
 20
-2.69635
 30
0.0
 10
2.7853
 20
-2.59106
 30
0.0
 10
2.7853
 20
-2.59106
 30
0.0
 10
2.7853
 20
-2.59106
 30
0.0
 10
2.7853
 20
-2.59106
 30
0.0
 10
2.86503
 20
-2.50575
 30
0.0
 10
2.86503
 20
-2.50575
 30
0.0
 10
2.86503
 20
-2.50575
 30
0.0
 10
2.86503
 20
-2.50575
 30
0.0
 10
2.94851
 20
-2.42786
 30
0.0
 10
2.94851
 20
-2.42786
 30
0.0
 10
2.94851
 20
-2.42786
 30
0.0
 10
2.94851
 20
-2.42786
 30
0.0
 10
3.07176
 20
-2.34072
 30
0.0
 10
3.07176
 20
-2.34072
 30
0.0
 10
3.07176
 20
-2.34072
 30
0.0
 10
3.07176
 20
-2.34072
 30
0.0
 10
3.18413
 20
-2.27197
 30
0.0
 10
3.18413
 20
-2.27197
 30
0.0
 10
3.18413
 20
-2.27197
 30
0.0
 10
3.18413
 20
-2.27197
 30
0.0
 10
3.32572
 20
-2.21025
 30
0.0
 10
3.32572
 20
-2.21025
 30
0.0
 10
3.32572
 20
-2.21025
 30
0.0
 10
3.32572
 20
-2.21025
 30
0.0
 10
3.43081
 20
-2.17568
 30
0.0
 10
3.43081
 20
-2.17568
 30
0.0
 10
3.43081
 20
-2.17568
 30
0.0
 10
3.43081
 20
-2.17568
 30
0.0
 10
3.54713
 20
-2.14858
 30
0.0
 10
3.54713
 20
-2.14858
 30
0.0
 10
3.54713
 20
-2.14858
 30
0.0
 10
3.54713
 20
-2.14858
 30
0.0
 10
3.67423
 20
-2.13592
 30
0.0
 10
3.67423
 20
-2.13592
 30
0.0
 10
3.67423
 20
-2.13592
 30
0.0
 10
3.67423
 20
-2.13592
 30
0.0
 10
3.82265
 20
-2.13389
 30
0.0
 10
3.82265
 20
-2.13389
 30
0.0
 10
3.82265
 20
-2.13389
 30
0.0
 10
3.82265
 20
-2.13389
 30
0.0
 10
3.96795
 20
-2.13948
 30
0.0
 10
3.96795
 20
-2.13948
 30
0.0
 10
3.96795
 20
-2.13948
 30
0.0
 10
3.96795
 20
-2.13948
 30
0.0
 10
4.09471
 20
-2.15219
 30
0.0
 10
4.09471
 20
-2.15219
 30
0.0
 10
4.09471
 20
-2.15219
 30
0.0
 10
4.09471
 20
-2.15219
 30
0.0
 10
4.21112
 20
-2.1739
 30
0.0
 10
4.21112
 20
-2.1739
 30
0.0
 10
4.21112
 20
-2.1739
 30
0.0
 10
4.21112
 20
-2.1739
 30
0.0
 10
4.32142
 20
-2.20832
 30
0.0
 10
4.32142
 20
-2.20832
 30
0.0
 10
4.32142
 20
-2.20832
 30
0.0
 10
4.32142
 20
-2.20832
 30
0.0
 10
4.41958
 20
-2.24819
 30
0.0
 10
4.41958
 20
-2.24819
 30
0.0
 10
4.41958
 20
-2.24819
 30
0.0
 10
4.41958
 20
-2.24819
 30
0.0
 10
4.47914
 20
-2.28256
 30
0.0
 10
4.47914
 20
-2.28256
 30
0.0
 10
4.47914
 20
-2.28256
 30
0.0
 10
4.47914
 20
-2.28256
 30
0.0
 10
4.5448
 20
-2.32964
 30
0.0
 10
4.5448
 20
-2.32964
 30
0.0
 10
4.5448
 20
-2.32964
 30
0.0
 10
4.5448
 20
-2.32964
 30
0.0
 10
4.59545
 20
-2.37341
 30
0.0
 10
4.59545
 20
-2.37341
 30
0.0
 10
4.59545
 20
-2.37341
 30
0.0
 10
4.59545
 20
-2.37341
 30
0.0
 10
4.59357
 20
-2.16278
 30
0.0
 10
4.59357
 20
-2.16278
 30
0.0
  0
SPLINE
  5
49
330
1F
100
AcDbEntity
  8
layer 1
 62
   250
100
AcDbSpline
210
0.0
220
0.0
230
1.0
 70
    11
 71
     3
 72
   612
 73
   608
 74
     0
 42
0.0000000001
 43
0.0000000001
 12
1.0
 22
0.0
 32
0.0
 13
1.0
 23
0.0
 33
0.0
 40
0.0
 40
0.0
 40
0.0
 40
0.0
 40
0.0065359477124183
 40
0.0065359477124183
 40
0.0065359477124183
 40
0.0065359477124183
 40
0.0130718954248366
 40
0.0130718954248366
 40
0.0130718954248366
 40
0.0130718954248366
 40
0.0196078431372549
 40
0.0196078431372549
 40
0.0196078431372549
 40
0.0196078431372549
 40
0.0261437908496732
 40
0.0261437908496732
 40
0.0261437908496732
 40
0.0261437908496732
 40
0.0326797385620915
 40
0.0326797385620915
 40
0.0326797385620915
 40
0.0326797385620915
 40
0.0392156862745098
 40
0.0392156862745098
 40
0.0392156862745098
 40
0.0392156862745098
 40
0.0457516339869281
 40
0.0457516339869281
 40
0.0457516339869281
 40
0.0457516339869281
 40
0.0522875816993464
 40
0.0522875816993464
 40
0.0522875816993464
 40
0.0522875816993464
 40
0.0588235294117647
 40
0.0588235294117647
 40
0.0588235294117647
 40
0.0588235294117647
 40
0.065359477124183
 40
0.065359477124183
 40
0.065359477124183
 40
0.065359477124183
 40
0.0718954248366013
 40
0.0718954248366013
 40
0.0718954248366013
 40
0.0718954248366013
 40
0.0784313725490196
 40
0.0784313725490196
 40
0.0784313725490196
 40
0.0784313725490196
 40
0.0849673202614379
 40
0.0849673202614379
 40
0.0849673202614379
 40
0.0849673202614379
 40
0.0915032679738562
 40
0.0915032679738562
 40
0.0915032679738562
 40
0.0915032679738562
 40
0.0980392156862745
 40
0.0980392156862745
 40
0.0980392156862745
 40
0.0980392156862745
 40
0.1045751633986928
 40
0.1045751633986928
 40
0.1045751633986928
 40
0.1045751633986928
 40
0.1111111111111111
 40
0.1111111111111111
 40
0.1111111111111111
 40
0.1111111111111111
 40
0.1176470588235294
 40
0.1176470588235294
 40
0.1176470588235294
 40
0.1176470588235294
 40
0.1241830065359477
 40
0.1241830065359477
 40
0.1241830065359477
 40
0.1241830065359477
 40
0.130718954248366
 40
0.130718954248366
 40
0.130718954248366
 40
0.130718954248366
 40
0.1372549019607843
 40
0.1372549019607843
 40
0.1372549019607843
 40
0.1372549019607843
 40
0.1437908496732026
 40
0.1437908496732026
 40
0.1437908496732026
 40
0.1437908496732026
 40
0.1503267973856209
 40
0.1503267973856209
 40
0.1503267973856209
 40
0.1503267973856209
 40
0.1568627450980392
 40
0.1568627450980392
 40
0.1568627450980392
 40
0.1568627450980392
 40
0.1633986928104575
 40
0.1633986928104575
 40
0.1633986928104575
 40
0.1633986928104575
 40
0.1699346405228758
 40
0.1699346405228758
 40
0.1699346405228758
 40
0.1699346405228758
 40
0.1764705882352941
 40
0.1764705882352941
 40
0.1764705882352941
 40
0.1764705882352941
 40
0.1830065359477124
 40
0.1830065359477124
 40
0.1830065359477124
 40
0.1830065359477124
 40
0.1895424836601307
 40
0.1895424836601307
 40
0.1895424836601307
 40
0.1895424836601307
 40
0.196078431372549
 40
0.196078431372549
 40
0.196078431372549
 40
0.196078431372549
 40
0.2026143790849673
 40
0.2026143790849673
 40
0.2026143790849673
 40
0.2026143790849673
 40
0.2091503267973856
 40
0.2091503267973856
 40
0.2091503267973856
 40
0.2091503267973856
 40
0.2156862745098039
 40
0.2156862745098039
 40
0.2156862745098039
 40
0.2156862745098039
 40
0.2222222222222222
 40
0.2222222222222222
 40
0.2222222222222222
 40
0.2222222222222222
 40
0.2287581699346405
 40
0.2287581699346405
 40
0.2287581699346405
 40
0.2287581699346405
 40
0.2352941176470588
 40
0.2352941176470588
 40
0.2352941176470588
 40
0.2352941176470588
 40
0.2418300653594771
 40
0.2418300653594771
 40
0.2418300653594771
 40
0.2418300653594771
 40
0.2483660130718954
 40
0.2483660130718954
 40
0.2483660130718954
 40
0.2483660130718954
 40
0.2549019607843137
 40
0.2549019607843137
 40
0.2549019607843137
 40
0.2549019607843137
 40
0.261437908496732
 40
0.261437908496732
 40
0.261437908496732
 40
0.261437908496732
 40
0.2679738562091503
 40
0.2679738562091503
 40
0.2679738562091503
 40
0.2679738562091503
 40
0.2745098039215687
 40
0.2745098039215687
 40
0.2745098039215687
 40
0.2745098039215687
 40
0.2810457516339869
 40
0.2810457516339869
 40
0.2810457516339869
 40
0.2810457516339869
 40
0.2875816993464052
 40
0.2875816993464052
 40
0.2875816993464052
 40
0.2875816993464052
 40
0.2941176470588235
 40
0.2941176470588235
 40
0.2941176470588235
 40
0.2941176470588235
 40
0.3006535947712418
 40
0.3006535947712418
 40
0.3006535947712418
 40
0.3006535947712418
 40
0.3071895424836601
 40
0.3071895424836601
 40
0.3071895424836601
 40
0.3071895424836601
 40
0.3137254901960784
 40
0.3137254901960784
 40
0.3137254901960784
 40
0.3137254901960784
 40
0.3202614379084967
 40
0.3202614379084967
 40
0.3202614379084967
 40
0.3202614379084967
 40
0.326797385620915
 40
0.326797385620915
 40
0.326797385620915
 40
0.326797385620915
 40
0.3333333333333333
 40
0.3333333333333333
 40
0.3333333333333333
 40
0.3333333333333333
 40
0.3398692810457516
 40
0.3398692810457516
 40
0.3398692810457516
 40
0.3398692810457516
 40
0.3464052287581699
 40
0.3464052287581699
 40
0.3464052287581699
 40
0.3464052287581699
 40
0.3529411764705883
 40
0.3529411764705883
 40
0.3529411764705883
 40
0.3529411764705883
 40
0.3594771241830065
 40
0.3594771241830065
 40
0.3594771241830065
 40
0.3594771241830065
 40
0.3660130718954248
 40
0.3660130718954248
 40
0.3660130718954248
 40
0.3660130718954248
 40
0.3725490196078431
 40
0.3725490196078431
 40
0.3725490196078431
 40
0.3725490196078431
 40
0.3790849673202614
 40
0.3790849673202614
 40
0.3790849673202614
 40
0.3790849673202614
 40
0.3856209150326798
 40
0.3856209150326798
 40
0.3856209150326798
 40
0.3856209150326798
 40
0.392156862745098
 40
0.392156862745098
 40
0.392156862745098
 40
0.392156862745098
 40
0.3986928104575164
 40
0.3986928104575164
 40
0.3986928104575164
 40
0.3986928104575164
 40
0.4052287581699346
 40
0.4052287581699346
 40
0.4052287581699346
 40
0.4052287581699346
 40
0.4117647058823529
 40
0.4117647058823529
 40
0.4117647058823529
 40
0.4117647058823529
 40
0.4183006535947713
 40
0.4183006535947713
 40
0.4183006535947713
 40
0.4183006535947713
 40
0.4248366013071895
 40
0.4248366013071895
 40
0.4248366013071895
 40
0.4248366013071895
 40
0.4313725490196079
 40
0.4313725490196079
 40
0.4313725490196079
 40
0.4313725490196079
 40
0.4379084967320261
 40
0.4379084967320261
 40
0.4379084967320261
 40
0.4379084967320261
 40
0.4444444444444444
 40
0.4444444444444444
 40
0.4444444444444444
 40
0.4444444444444444
 40
0.4509803921568628
 40
0.4509803921568628
 40
0.4509803921568628
 40
0.4509803921568628
 40
0.457516339869281
 40
0.457516339869281
 40
0.457516339869281
 40
0.457516339869281
 40
0.4640522875816994
 40
0.4640522875816994
 40
0.4640522875816994
 40
0.4640522875816994
 40
0.4705882352941176
 40
0.4705882352941176
 40
0.4705882352941176
 40
0.4705882352941176
 40
0.477124183006536
 40
0.477124183006536
 40
0.477124183006536
 40
0.477124183006536
 40
0.4836601307189543
 40
0.4836601307189543
 40
0.4836601307189543
 40
0.4836601307189543
 40
0.4901960784313725
 40
0.4901960784313725
 40
0.4901960784313725
 40
0.4901960784313725
 40
0.4967320261437909
 40
0.4967320261437909
 40
0.4967320261437909
 40
0.4967320261437909
 40
0.5032679738562091
 40
0.5032679738562091
 40
0.5032679738562091
 40
0.5032679738562091
 40
0.5098039215686274
 40
0.5098039215686274
 40
0.5098039215686274
 40
0.5098039215686274
 40
0.5163398692810458
 40
0.5163398692810458
 40
0.5163398692810458
 40
0.5163398692810458
 40
0.5228758169934641
 40
0.5228758169934641
 40
0.5228758169934641
 40
0.5228758169934641
 40
0.5294117647058824
 40
0.5294117647058824
 40
0.5294117647058824
 40
0.5294117647058824
 40
0.5359477124183006
 40
0.5359477124183006
 40
0.5359477124183006
 40
0.5359477124183006
 40
0.5424836601307189
 40
0.5424836601307189
 40
0.5424836601307189
 40
0.5424836601307189
 40
0.5490196078431373
 40
0.5490196078431373
 40
0.5490196078431373
 40
0.5490196078431373
 40
0.5555555555555556
 40
0.5555555555555556
 40
0.5555555555555556
 40
0.5555555555555556
 40
0.5620915032679739
 40
0.5620915032679739
 40
0.5620915032679739
 40
0.5620915032679739
 40
0.5686274509803921
 40
0.5686274509803921
 40
0.5686274509803921
 40
0.5686274509803921
 40
0.5751633986928104
 40
0.5751633986928104
 40
0.5751633986928104
 40
0.5751633986928104
 40
0.5816993464052288
 40
0.5816993464052288
 40
0.5816993464052288
 40
0.5816993464052288
 40
0.5882352941176471
 40
0.5882352941176471
 40
0.5882352941176471
 40
0.5882352941176471
 40
0.5947712418300654
 40
0.5947712418300654
 40
0.5947712418300654
 40
0.5947712418300654
 40
0.6013071895424836
 40
0.6013071895424836
 40
0.6013071895424836
 40
0.6013071895424836
 40
0.6078431372549019
 40
0.6078431372549019
 40
0.6078431372549019
 40
0.6078431372549019
 40
0.6143790849673203
 40
0.6143790849673203
 40
0.6143790849673203
 40
0.6143790849673203
 40
0.6209150326797386
 40
0.6209150326797386
 40
0.6209150326797386
 40
0.6209150326797386
 40
0.6274509803921569
 40
0.6274509803921569
 40
0.6274509803921569
 40
0.6274509803921569
 40
0.6339869281045751
 40
0.6339869281045751
 40
0.6339869281045751
 40
0.6339869281045751
 40
0.6405228758169934
 40
0.6405228758169934
 40
0.6405228758169934
 40
0.6405228758169934
 40
0.6470588235294118
 40
0.6470588235294118
 40
0.6470588235294118
 40
0.6470588235294118
 40
0.6535947712418301
 40
0.6535947712418301
 40
0.6535947712418301
 40
0.6535947712418301
 40
0.6601307189542484
 40
0.6601307189542484
 40
0.6601307189542484
 40
0.6601307189542484
 40
0.6666666666666666
 40
0.6666666666666666
 40
0.6666666666666666
 40
0.6666666666666666
 40
0.673202614379085
 40
0.673202614379085
 40
0.673202614379085
 40
0.673202614379085
 40
0.6797385620915033
 40
0.6797385620915033
 40
0.6797385620915033
 40
0.6797385620915033
 40
0.6862745098039216
 40
0.6862745098039216
 40
0.6862745098039216
 40
0.6862745098039216
 40
0.6928104575163399
 40
0.6928104575163399
 40
0.6928104575163399
 40
0.6928104575163399
 40
0.6993464052287581
 40
0.6993464052287581
 40
0.6993464052287581
 40
0.6993464052287581
 40
0.7058823529411765
 40
0.7058823529411765
 40
0.7058823529411765
 40
0.7058823529411765
 40
0.7124183006535948
 40
0.7124183006535948
 40
0.7124183006535948
 40
0.7124183006535948
 40
0.7189542483660131
 40
0.7189542483660131
 40
0.7189542483660131
 40
0.7189542483660131
 40
0.7254901960784313
 40
0.7254901960784313
 40
0.7254901960784313
 40
0.7254901960784313
 40
0.7320261437908496
 40
0.7320261437908496
 40
0.7320261437908496
 40
0.7320261437908496
 40
0.738562091503268
 40
0.738562091503268
 40
0.738562091503268
 40
0.738562091503268
 40
0.7450980392156863
 40
0.7450980392156863
 40
0.7450980392156863
 40
0.7450980392156863
 40
0.7516339869281046
 40
0.7516339869281046
 40
0.7516339869281046
 40
0.7516339869281046
 40
0.7581699346405228
 40
0.7581699346405228
 40
0.7581699346405228
 40
0.7581699346405228
 40
0.7647058823529411
 40
0.7647058823529411
 40
0.7647058823529411
 40
0.7647058823529411
 40
0.7712418300653595
 40
0.7712418300653595
 40
0.7712418300653595
 40
0.7712418300653595
 40
0.7777777777777778
 40
0.7777777777777778
 40
0.7777777777777778
 40
0.7777777777777778
 40
0.7843137254901961
 40
0.7843137254901961
 40
0.7843137254901961
 40
0.7843137254901961
 40
0.7908496732026143
 40
0.7908496732026143
 40
0.7908496732026143
 40
0.7908496732026143
 40
0.7973856209150327
 40
0.7973856209150327
 40
0.7973856209150327
 40
0.7973856209150327
 40
0.803921568627451
 40
0.803921568627451
 40
0.803921568627451
 40
0.803921568627451
 40
0.8104575163398693
 40
0.8104575163398693
 40
0.8104575163398693
 40
0.8104575163398693
 40
0.8169934640522876
 40
0.8169934640522876
 40
0.8169934640522876
 40
0.8169934640522876
 40
0.8235294117647058
 40
0.8235294117647058
 40
0.8235294117647058
 40
0.8235294117647058
 40
0.8300653594771242
 40
0.8300653594771242
 40
0.8300653594771242
 40
0.8300653594771242
 40
0.8366013071895425
 40
0.8366013071895425
 40
0.8366013071895425
 40
0.8366013071895425
 40
0.8431372549019608
 40
0.8431372549019608
 40
0.8431372549019608
 40
0.8431372549019608
 40
0.8496732026143791
 40
0.8496732026143791
 40
0.8496732026143791
 40
0.8496732026143791
 40
0.8562091503267973
 40
0.8562091503267973
 40
0.8562091503267973
 40
0.8562091503267973
 40
0.8627450980392157
 40
0.8627450980392157
 40
0.8627450980392157
 40
0.8627450980392157
 40
0.869281045751634
 40
0.869281045751634
 40
0.869281045751634
 40
0.869281045751634
 40
0.8758169934640523
 40
0.8758169934640523
 40
0.8758169934640523
 40
0.8758169934640523
 40
0.8823529411764706
 40
0.8823529411764706
 40
0.8823529411764706
 40
0.8823529411764706
 40
0.8888888888888888
 40
0.8888888888888888
 40
0.8888888888888888
 40
0.8888888888888888
 40
0.8954248366013072
 40
0.8954248366013072
 40
0.8954248366013072
 40
0.8954248366013072
 40
0.9019607843137255
 40
0.9019607843137255
 40
0.9019607843137255
 40
0.9019607843137255
 40
0.9084967320261438
 40
0.9084967320261438
 40
0.9084967320261438
 40
0.9084967320261438
 40
0.9150326797385621
 40
0.9150326797385621
 40
0.9150326797385621
 40
0.9150326797385621
 40
0.9215686274509803
 40
0.9215686274509803
 40
0.9215686274509803
 40
0.9215686274509803
 40
0.9281045751633987
 40
0.9281045751633987
 40
0.9281045751633987
 40
0.9281045751633987
 40
0.934640522875817
 40
0.934640522875817
 40
0.934640522875817
 40
0.934640522875817
 40
0.9411764705882353
 40
0.9411764705882353
 40
0.9411764705882353
 40
0.9411764705882353
 40
0.9477124183006536
 40
0.9477124183006536
 40
0.9477124183006536
 40
0.9477124183006536
 40
0.954248366013072
 40
0.954248366013072
 40
0.954248366013072
 40
0.954248366013072
 40
0.9607843137254902
 40
0.9607843137254902
 40
0.9607843137254902
 40
0.9607843137254902
 40
0.9673202614379085
 40
0.9673202614379085
 40
0.9673202614379085
 40
0.9673202614379085
 40
0.9738562091503268
 40
0.9738562091503268
 40
0.9738562091503268
 40
0.9738562091503268
 40
0.9803921568627451
 40
0.9803921568627451
 40
0.9803921568627451
 40
0.9803921568627451
 40
0.9869281045751634
 40
0.9869281045751634
 40
0.9869281045751634
 40
0.9869281045751634
 40
1.0
 40
1.0
 40
1.0
 40
1.0
 10
7.08548
 20
-2.9882
 30
0.0
 10
7.08548
 20
-2.9882
 30
0.0
 10
7.08365
 20
-2.89942
 30
0.0
 10
7.08365
 20
-2.89942
 30
0.0
 10
7.08365
 20
-2.89942
 30
0.0
 10
7.08365
 20
-2.89942
 30
0.0
 10
7.07658
 20
-2.85239
 30
0.0
 10
7.07658
 20
-2.85239
 30
0.0
 10
7.07658
 20
-2.85239
 30
0.0
 10
7.07658
 20
-2.85239
 30
0.0
 10
7.06035
 20
-2.8107
 30
0.0
 10
7.06035
 20
-2.8107
 30
0.0
 10
7.06035
 20
-2.8107
 30
0.0
 10
7.06035
 20
-2.8107
 30
0.0
 10
7.03301
 20
-2.76891
 30
0.0
 10
7.03301
 20
-2.76891
 30
0.0
 10
7.03301
 20
-2.76891
 30
0.0
 10
7.03301
 20
-2.76891
 30
0.0
 10
6.99656
 20
-2.72904
 30
0.0
 10
6.99656
 20
-2.72904
 30
0.0
 10
6.99656
 20
-2.72904
 30
0.0
 10
6.99656
 20
-2.72904
 30
0.0
 10
6.94779
 20
-2.68923
 30
0.0
 10
6.94779
 20
-2.68923
 30
0.0
 10
6.94779
 20
-2.68923
 30
0.0
 10
6.94779
 20
-2.68923
 30
0.0
 10
6.89729
 20
-2.66179
 30
0.0
 10
6.89729
 20
-2.66179
 30
0.0
 10
6.89729
 20
-2.66179
 30
0.0
 10
6.89729
 20
-2.66179
 30
0.0
 10
6.84611
 20
-2.64725
 30
0.0
 10
6.84611
 20
-2.64725
 30
0.0
 10
6.84611
 20
-2.64725
 30
0.0
 10
6.84611
 20
-2.64725
 30
0.0
 10
6.77736
 20
-2.63632
 30
0.0
 10
6.77736
 20
-2.63632
 30
0.0
 10
6.77736
 20
-2.63632
 30
0.0
 10
6.77736
 20
-2.63632
 30
0.0
 10
6.66841
 20
-2.63285
 30
0.0
 10
6.66841
 20
-2.63285
 30
0.0
 10
6.66841
 20
-2.63285
 30
0.0
 10
6.66841
 20
-2.63285
 30
0.0
 10
6.53414
 20
-2.63093
 30
0.0
 10
6.53414
 20
-2.63093
 30
0.0
 10
6.53414
 20
-2.63093
 30
0.0
 10
6.53414
 20
-2.63093
 30
0.0
 10
6.45615
 20
-2.64008
 30
0.0
 10
6.45615
 20
-2.64008
 30
0.0
 10
6.45615
 20
-2.64008
 30
0.0
 10
6.45615
 20
-2.64008
 30
0.0
 10
6.39636
 20
-2.65452
 30
0.0
 10
6.39636
 20
-2.65452
 30
0.0
 10
6.39636
 20
-2.65452
 30
0.0
 10
6.39636
 20
-2.65452
 30
0.0
 10
6.33117
 20
-2.6873
 30
0.0
 10
6.33117
 20
-2.6873
 30
0.0
 10
6.33117
 20
-2.6873
 30
0.0
 10
6.33117
 20
-2.6873
 30
0.0
 10
6.29285
 20
-2.72163
 30
0.0
 10
6.29285
 20
-2.72163
 30
0.0
 10
6.29285
 20
-2.72163
 30
0.0
 10
6.29285
 20
-2.72163
 30
0.0
 10
6.26771
 20
-2.756
 30
0.0
 10
6.26771
 20
-2.756
 30
0.0
 10
6.26771
 20
-2.756
 30
0.0
 10
6.26771
 20
-2.756
 30
0.0
 10
6.2421
 20
-2.79418
 30
0.0
 10
6.2421
 20
-2.79418
 30
0.0
 10
6.2421
 20
-2.79418
 30
0.0
 10
6.2421
 20
-2.79418
 30
0.0
 10
6.22781
 20
-2.84488
 30
0.0
 10
6.22781
 20
-2.84488
 30
0.0
 10
6.22781
 20
-2.84488
 30
0.0
 10
6.22781
 20
-2.84488
 30
0.0
 10
6.22405
 20
-2.8923
 30
0.0
 10
6.22405
 20
-2.8923
 30
0.0
 10
6.22405
 20
-2.8923
 30
0.0
 10
6.22405
 20
-2.8923
 30
0.0
 10
6.22593
 20
-2.93751
 30
0.0
 10
6.22593
 20
-2.93751
 30
0.0
 10
6.22593
 20
-2.93751
 30
0.0
 10
6.22593
 20
-2.93751
 30
0.0
 10
6.23671
 20
-2.96822
 30
0.0
 10
6.23671
 20
-2.96822
 30
0.0
 10
6.23671
 20
-2.96822
 30
0.0
 10
6.23671
 20
-2.96822
 30
0.0
 10
6.26208
 20
-3.00101
 30
0.0
 10
6.26208
 20
-3.00101
 30
0.0
 10
6.26208
 20
-3.00101
 30
0.0
 10
6.26208
 20
-3.00101
 30
0.0
 10
6.29853
 20
-3.03003
 30
0.0
 10
6.29853
 20
-3.03003
 30
0.0
 10
6.29853
 20
-3.03003
 30
0.0
 10
6.29853
 20
-3.03003
 30
0.0
 10
6.34759
 20
-3.05531
 30
0.0
 10
6.34759
 20
-3.05531
 30
0.0
 10
6.34759
 20
-3.05531
 30
0.0
 10
6.34759
 20
-3.05531
 30
0.0
 10
6.47252
 20
-3.09532
 30
0.0
 10
6.47252
 20
-3.09532
 30
0.0
 10
6.47252
 20
-3.09532
 30
0.0
 10
6.47252
 20
-3.09532
 30
0.0
 10
6.68493
 20
-3.13884
 30
0.0
 10
6.68493
 20
-3.13884
 30
0.0
 10
6.68493
 20
-3.13884
 30
0.0
 10
6.68493
 20
-3.13884
 30
0.0
 10
6.91318
 20
-3.175
 30
0.0
 10
6.91318
 20
-3.175
 30
0.0
 10
6.91318
 20
-3.175
 30
0.0
 10
6.91318
 20
-3.175
 30
0.0
 10
7.07836
 20
-3.20576
 30
0.0
 10
7.07836
 20
-3.20576
 30
0.0
 10
7.07836
 20
-3.20576
 30
0.0
 10
7.07836
 20
-3.20576
 30
0.0
 10
7.17055
 20
-3.22959
 30
0.0
 10
7.17055
 20
-3.22959
 30
0.0
 10
7.17055
 20
-3.22959
 30
0.0
 10
7.17055
 20
-3.22959
 30
0.0
 10
7.27613
 20
-3.26016
 30
0.0
 10
7.27613
 20
-3.26016
 30
0.0
 10
7.27613
 20
-3.26016
 30
0.0
 10
7.27613
 20
-3.26016
 30
0.0
 10
7.36673
 20
-3.29463
 30
0.0
 10
7.36673
 20
-3.29463
 30
0.0
 10
7.36673
 20
-3.29463
 30
0.0
 10
7.36673
 20
-3.29463
 30
0.0
 10
7.44497
 20
-3.33103
 30
0.0
 10
7.44497
 20
-3.33103
 30
0.0
 10
7.44497
 20
-3.33103
 30
0.0
 10
7.44497
 20
-3.33103
 30
0.0
 10
7.53553
 20
-3.3837
 30
0.0
 10
7.53553
 20
-3.3837
 30
0.0
 10
7.53553
 20
-3.3837
 30
0.0
 10
7.53553
 20
-3.3837
 30
0.0
 10
7.60991
 20
-3.43237
 30
0.0
 10
7.60991
 20
-3.43237
 30
0.0
 10
7.60991
 20
-3.43237
 30
0.0
 10
7.60991
 20
-3.43237
 30
0.0
 10
7.66585
 20
-3.48162
 30
0.0
 10
7.66585
 20
-3.48162
 30
0.0
 10
7.66585
 20
-3.48162
 30
0.0
 10
7.66585
 20
-3.48162
 30
0.0
 10
7.72054
 20
-3.54305
 30
0.0
 10
7.72054
 20
-3.54305
 30
0.0
 10
7.72054
 20
-3.54305
 30
0.0
 10
7.72054
 20
-3.54305
 30
0.0
 10
7.76021
 20
-3.61079
 30
0.0
 10
7.76021
 20
-3.61079
 30
0.0
 10
7.76021
 20
-3.61079
 30
0.0
 10
7.76021
 20
-3.61079
 30
0.0
 10
7.79102
 20
-3.67015
 30
0.0
 10
7.79102
 20
-3.67015
 30
0.0
 10
7.79102
 20
-3.67015
 30
0.0
 10
7.79102
 20
-3.67015
 30
0.0
 10
7.81861
 20
-3.73933
 30
0.0
 10
7.81861
 20
-3.73933
 30
0.0
 10
7.81861
 20
-3.73933
 30
0.0
 10
7.81861
 20
-3.73933
 30
0.0
 10
7.83999
 20
-3.82094
 30
0.0
 10
7.83999
 20
-3.82094
 30
0.0
 10
7.83999
 20
-3.82094
 30
0.0
 10
7.83999
 20
-3.82094
 30
0.0
 10
7.84923
 20
-3.94048
 30
0.0
 10
7.84923
 20
-3.94048
 30
0.0
 10
7.84923
 20
-3.94048
 30
0.0
 10
7.84923
 20
-3.94048
 30
0.0
 10
7.84528
 20
-4.06011
 30
0.0
 10
7.84528
 20
-4.06011
 30
0.0
 10
7.84528
 20
-4.06011
 30
0.0
 10
7.84528
 20
-4.06011
 30
0.0
 10
7.83825
 20
-4.1473
 30
0.0
 10
7.83825
 20
-4.1473
 30
0.0
 10
7.83825
 20
-4.1473
 30
0.0
 10
7.83825
 20
-4.1473
 30
0.0
 10
7.81125
 20
-4.24537
 30
0.0
 10
7.81125
 20
-4.24537
 30
0.0
 10
7.81125
 20
-4.24537
 30
0.0
 10
7.81125
 20
-4.24537
 30
0.0
 10
7.77316
 20
-4.33757
 30
0.0
 10
7.77316
 20
-4.33757
 30
0.0
 10
7.77316
 20
-4.33757
 30
0.0
 10
7.77316
 20
-4.33757
 30
0.0
 10
7.72593
 20
-4.42278
 30
0.0
 10
7.72593
 20
-4.42278
 30
0.0
 10
7.72593
 20
-4.42278
 30
0.0
 10
7.72593
 20
-4.42278
 30
0.0
 10
7.68439
 20
-4.49201
 30
0.0
 10
7.68439
 20
-4.49201
 30
0.0
 10
7.68439
 20
-4.49201
 30
0.0
 10
7.68439
 20
-4.49201
 30
0.0
 10
7.62782
 20
-4.55883
 30
0.0
 10
7.62782
 20
-4.55883
 30
0.0
 10
7.62782
 20
-4.55883
 30
0.0
 10
7.62782
 20
-4.55883
 30
0.0
 10
7.56822
 20
-4.60611
 30
0.0
 10
7.56822
 20
-4.60611
 30
0.0
 10
7.56822
 20
-4.60611
 30
0.0
 10
7.56822
 20
-4.60611
 30
0.0
 10
7.48666
 20
-4.66066
 30
0.0
 10
7.48666
 20
-4.66066
 30
0.0
 10
7.48666
 20
-4.66066
 30
0.0
 10
7.48666
 20
-4.66066
 30
0.0
 10
7.39042
 20
-4.70972
 30
0.0
 10
7.39042
 20
-4.70972
 30
0.0
 10
7.39042
 20
-4.70972
 30
0.0
 10
7.39042
 20
-4.70972
 30
0.0
 10
7.27613
 20
-4.76012
 30
0.0
 10
7.27613
 20
-4.76012
 30
0.0
 10
7.27613
 20
-4.76012
 30
0.0
 10
7.27613
 20
-4.76012
 30
0.0
 10
7.14557
 20
-4.80191
 30
0.0
 10
7.14557
 20
-4.80191
 30
0.0
 10
7.14557
 20
-4.80191
 30
0.0
 10
7.14557
 20
-4.80191
 30
0.0
 10
7.03657
 20
-4.82406
 30
0.0
 10
7.03657
 20
-4.82406
 30
0.0
 10
7.03657
 20
-4.82406
 30
0.0
 10
7.03657
 20
-4.82406
 30
0.0
 10
6.92593
 20
-4.83648
 30
0.0
 10
6.92593
 20
-4.83648
 30
0.0
 10
6.92593
 20
-4.83648
 30
0.0
 10
6.92593
 20
-4.83648
 30
0.0
 10
6.7428
 20
-4.83999
 30
0.0
 10
6.7428
 20
-4.83999
 30
0.0
 10
6.7428
 20
-4.83999
 30
0.0
 10
6.7428
 20
-4.83999
 30
0.0
 10
6.52365
 20
-4.83479
 30
0.0
 10
6.52365
 20
-4.83479
 30
0.0
 10
6.52365
 20
-4.83479
 30
0.0
 10
6.52365
 20
-4.83479
 30
0.0
 10
6.40377
 20
-4.82762
 30
0.0
 10
6.40377
 20
-4.82762
 30
0.0
 10
6.40377
 20
-4.82762
 30
0.0
 10
6.40377
 20
-4.82762
 30
0.0
 10
6.28548
 20
-4.80937
 30
0.0
 10
6.28548
 20
-4.80937
 30
0.0
 10
6.28548
 20
-4.80937
 30
0.0
 10
6.28548
 20
-4.80937
 30
0.0
 10
6.1826
 20
-4.78025
 30
0.0
 10
6.1826
 20
-4.78025
 30
0.0
 10
6.1826
 20
-4.78025
 30
0.0
 10
6.1826
 20
-4.78025
 30
0.0
 10
6.10085
 20
-4.7529
 30
0.0
 10
6.10085
 20
-4.7529
 30
0.0
 10
6.10085
 20
-4.7529
 30
0.0
 10
6.10085
 20
-4.7529
 30
0.0
 10
6.02122
 20
-4.72011
 30
0.0
 10
6.02122
 20
-4.72011
 30
0.0
 10
6.02122
 20
-4.72011
 30
0.0
 10
6.02122
 20
-4.72011
 30
0.0
 10
5.9465
 20
-4.6841
 30
0.0
 10
5.9465
 20
-4.6841
 30
0.0
 10
5.9465
 20
-4.6841
 30
0.0
 10
5.9465
 20
-4.6841
 30
0.0
 10
5.85768
 20
-4.62797
 30
0.0
 10
5.85768
 20
-4.62797
 30
0.0
 10
5.85768
 20
-4.62797
 30
0.0
 10
5.85768
 20
-4.62797
 30
0.0
 10
5.77949
 20
-4.57361
 30
0.0
 10
5.77949
 20
-4.57361
 30
0.0
 10
5.77949
 20
-4.57361
 30
0.0
 10
5.77949
 20
-4.57361
 30
0.0
 10
5.71272
 20
-4.50275
 30
0.0
 10
5.71272
 20
-4.50275
 30
0.0
 10
5.71272
 20
-4.50275
 30
0.0
 10
5.71272
 20
-4.50275
 30
0.0
 10
5.63097
 20
-4.3977
 30
0.0
 10
5.63097
 20
-4.3977
 30
0.0
 10
5.63097
 20
-4.3977
 30
0.0
 10
5.63097
 20
-4.3977
 30
0.0
 10
5.55495
 20
-4.27055
 30
0.0
 10
5.55495
 20
-4.27055
 30
0.0
 10
5.55495
 20
-4.27055
 30
0.0
 10
5.55495
 20
-4.27055
 30
0.0
 10
5.52034
 20
-4.19453
 30
0.0
 10
5.52034
 20
-4.19453
 30
0.0
 10
5.52034
 20
-4.19453
 30
0.0
 10
5.52034
 20
-4.19453
 30
0.0
 10
5.49848
 20
-4.11288
 30
0.0
 10
5.49848
 20
-4.11288
 30
0.0
 10
5.49848
 20
-4.11288
 30
0.0
 10
5.49848
 20
-4.11288
 30
0.0
 10
5.48403
 20
-4.03133
 30
0.0
 10
5.48403
 20
-4.03133
 30
0.0
 10
5.48403
 20
-4.03133
 30
0.0
 10
5.48403
 20
-4.03133
 30
0.0
 10
5.48216
 20
-3.92777
 30
0.0
 10
5.48216
 20
-3.92777
 30
0.0
 10
5.48216
 20
-3.92777
 30
0.0
 10
5.48216
 20
-3.92777
 30
0.0
 10
6.15684
 20
-3.93138
 30
0.0
 10
6.15684
 20
-3.93138
 30
0.0
 10
6.15684
 20
-3.93138
 30
0.0
 10
6.15684
 20
-3.93138
 30
0.0
 10
6.16604
 20
-4.03667
 30
0.0
 10
6.16604
 20
-4.03667
 30
0.0
 10
6.16604
 20
-4.03667
 30
0.0
 10
6.16604
 20
-4.03667
 30
0.0
 10
6.17514
 20
-4.08033
 30
0.0
 10
6.17514
 20
-4.08033
 30
0.0
 10
6.17514
 20
-4.08033
 30
0.0
 10
6.17514
 20
-4.08033
 30
0.0
 10
6.18611
 20
-4.11471
 30
0.0
 10
6.18611
 20
-4.11471
 30
0.0
 10
6.18611
 20
-4.11471
 30
0.0
 10
6.18611
 20
-4.11471
 30
0.0
 10
6.20229
 20
-4.14908
 30
0.0
 10
6.20229
 20
-4.14908
 30
0.0
 10
6.20229
 20
-4.14908
 30
0.0
 10
6.20229
 20
-4.14908
 30
0.0
 10
6.23324
 20
-4.18158
 30
0.0
 10
6.23324
 20
-4.18158
 30
0.0
 10
6.23324
 20
-4.18158
 30
0.0
 10
6.23324
 20
-4.18158
 30
0.0
 10
6.26945
 20
-4.21234
 30
0.0
 10
6.26945
 20
-4.21234
 30
0.0
 10
6.26945
 20
-4.21234
 30
0.0
 10
6.26945
 20
-4.21234
 30
0.0
 10
6.3148
 20
-4.24167
 30
0.0
 10
6.3148
 20
-4.24167
 30
0.0
 10
6.3148
 20
-4.24167
 30
0.0
 10
6.3148
 20
-4.24167
 30
0.0
 10
6.36559
 20
-4.27253
 30
0.0
 10
6.36559
 20
-4.27253
 30
0.0
 10
6.36559
 20
-4.27253
 30
0.0
 10
6.36559
 20
-4.27253
 30
0.0
 10
6.41975
 20
-4.3031
 30
0.0
 10
6.41975
 20
-4.3031
 30
0.0
 10
6.41975
 20
-4.3031
 30
0.0
 10
6.41975
 20
-4.3031
 30
0.0
 10
6.47252
 20
-4.32702
 30
0.0
 10
6.47252
 20
-4.32702
 30
0.0
 10
6.47252
 20
-4.32702
 30
0.0
 10
6.47252
 20
-4.32702
 30
0.0
 10
6.52875
 20
-4.34849
 30
0.0
 10
6.52875
 20
-4.34849
 30
0.0
 10
6.52875
 20
-4.34849
 30
0.0
 10
6.52875
 20
-4.34849
 30
0.0
 10
6.58652
 20
-4.35759
 30
0.0
 10
6.58652
 20
-4.35759
 30
0.0
 10
6.58652
 20
-4.35759
 30
0.0
 10
6.58652
 20
-4.35759
 30
0.0
 10
6.66471
 20
-4.35957
 30
0.0
 10
6.66471
 20
-4.35957
 30
0.0
 10
6.66471
 20
-4.35957
 30
0.0
 10
6.66471
 20
-4.35957
 30
0.0
 10
6.75185
 20
-4.35957
 30
0.0
 10
6.75185
 20
-4.35957
 30
0.0
 10
6.75185
 20
-4.35957
 30
0.0
 10
6.75185
 20
-4.35957
 30
0.0
 10
6.81727
 20
-4.35601
 30
0.0
 10
6.81727
 20
-4.35601
 30
0.0
 10
6.81727
 20
-4.35601
 30
0.0
 10
6.81727
 20
-4.35601
 30
0.0
 10
6.89353
 20
-4.34469
 30
0.0
 10
6.89353
 20
-4.34469
 30
0.0
 10
6.89353
 20
-4.34469
 30
0.0
 10
6.89353
 20
-4.34469
 30
0.0
 10
6.94596
 20
-4.33049
 30
0.0
 10
6.94596
 20
-4.33049
 30
0.0
 10
6.94596
 20
-4.33049
 30
0.0
 10
6.94596
 20
-4.33049
 30
0.0
 10
6.98602
 20
-4.30853
 30
0.0
 10
6.98602
 20
-4.30853
 30
0.0
 10
6.98602
 20
-4.30853
 30
0.0
 10
6.98602
 20
-4.30853
 30
0.0
 10
7.02766
 20
-4.28345
 30
0.0
 10
7.02766
 20
-4.28345
 30
0.0
 10
7.02766
 20
-4.28345
 30
0.0
 10
7.02766
 20
-4.28345
 30
0.0
 10
7.06406
 20
-4.25409
 30
0.0
 10
7.06406
 20
-4.25409
 30
0.0
 10
7.06406
 20
-4.25409
 30
0.0
 10
7.06406
 20
-4.25409
 30
0.0
 10
7.08731
 20
-4.22871
 30
0.0
 10
7.08731
 20
-4.22871
 30
0.0
 10
7.08731
 20
-4.22871
 30
0.0
 10
7.08731
 20
-4.22871
 30
0.0
 10
7.11105
 20
-4.198
 30
0.0
 10
7.11105
 20
-4.198
 30
0.0
 10
7.11105
 20
-4.198
 30
0.0
 10
7.11105
 20
-4.198
 30
0.0
 10
7.13276
 20
-4.16011
 30
0.0
 10
7.13276
 20
-4.16011
 30
0.0
 10
7.13276
 20
-4.16011
 30
0.0
 10
7.13276
 20
-4.16011
 30
0.0
 10
7.14913
 20
-4.10917
 30
0.0
 10
7.14913
 20
-4.10917
 30
0.0
 10
7.14913
 20
-4.10917
 30
0.0
 10
7.14913
 20
-4.10917
 30
0.0
 10
7.15471
 20
-4.0619
 30
0.0
 10
7.15471
 20
-4.0619
 30
0.0
 10
7.15471
 20
-4.0619
 30
0.0
 10
7.15471
 20
-4.0619
 30
0.0
 10
7.1511
 20
-4.0203
 30
0.0
 10
7.1511
 20
-4.0203
 30
0.0
 10
7.1511
 20
-4.0203
 30
0.0
 10
7.1511
 20
-4.0203
 30
0.0
 10
7.14373
 20
-3.98766
 30
0.0
 10
7.14373
 20
-3.98766
 30
0.0
 10
7.14373
 20
-3.98766
 30
0.0
 10
7.14373
 20
-3.98766
 30
0.0
 10
7.12722
 20
-3.95685
 30
0.0
 10
7.12722
 20
-3.95685
 30
0.0
 10
7.12722
 20
-3.95685
 30
0.0
 10
7.12722
 20
-3.95685
 30
0.0
 10
7.09472
 20
-3.92228
 30
0.0
 10
7.09472
 20
-3.92228
 30
0.0
 10
7.09472
 20
-3.92228
 30
0.0
 10
7.09472
 20
-3.92228
 30
0.0
 10
7.05486
 20
-3.89898
 30
0.0
 10
7.05486
 20
-3.89898
 30
0.0
 10
7.05486
 20
-3.89898
 30
0.0
 10
7.05486
 20
-3.89898
 30
0.0
 10
7.0111
 20
-3.87698
 30
0.0
 10
7.0111
 20
-3.87698
 30
0.0
 10
7.0111
 20
-3.87698
 30
0.0
 10
7.0111
 20
-3.87698
 30
0.0
 10
6.9424
 20
-3.85526
 30
0.0
 10
6.9424
 20
-3.85526
 30
0.0
 10
6.9424
 20
-3.85526
 30
0.0
 10
6.9424
 20
-3.85526
 30
0.0
 10
6.83518
 20
-3.82633
 30
0.0
 10
6.83518
 20
-3.82633
 30
0.0
 10
6.83518
 20
-3.82633
 30
0.0
 10
6.83518
 20
-3.82633
 30
0.0
 10
6.57776
 20
-3.78112
 30
0.0
 10
6.57776
 20
-3.78112
 30
0.0
 10
6.57776
 20
-3.78112
 30
0.0
 10
6.57776
 20
-3.78112
 30
0.0
 10
6.20961
 20
-3.70838
 30
0.0
 10
6.20961
 20
-3.70838
 30
0.0
 10
6.20961
 20
-3.70838
 30
0.0
 10
6.20961
 20
-3.70838
 30
0.0
 10
6.09156
 20
-3.67728
 30
0.0
 10
6.09156
 20
-3.67728
 30
0.0
 10
6.09156
 20
-3.67728
 30
0.0
 10
6.09156
 20
-3.67728
 30
0.0
 10
6.02276
 20
-3.65402
 30
0.0
 10
6.02276
 20
-3.65402
 30
0.0
 10
6.02276
 20
-3.65402
 30
0.0
 10
6.02276
 20
-3.65402
 30
0.0
 10
5.94838
 20
-3.62663
 30
0.0
 10
5.94838
 20
-3.62663
 30
0.0
 10
5.94838
 20
-3.62663
 30
0.0
 10
5.94838
 20
-3.62663
 30
0.0
 10
5.89412
 20
-3.6015
 30
0.0
 10
5.89412
 20
-3.6015
 30
0.0
 10
5.89412
 20
-3.6015
 30
0.0
 10
5.89412
 20
-3.6015
 30
0.0
 10
5.83235
 20
-3.55764
 30
0.0
 10
5.83235
 20
-3.55764
 30
0.0
 10
5.83235
 20
-3.55764
 30
0.0
 10
5.83235
 20
-3.55764
 30
0.0
 10
5.77949
 20
-3.51787
 30
0.0
 10
5.77949
 20
-3.51787
 30
0.0
 10
5.77949
 20
-3.51787
 30
0.0
 10
5.77949
 20
-3.51787
 30
0.0
 10
5.73265
 20
-3.46333
 30
0.0
 10
5.73265
 20
-3.46333
 30
0.0
 10
5.73265
 20
-3.46333
 30
0.0
 10
5.73265
 20
-3.46333
 30
0.0
 10
5.67295
 20
-3.38899
 30
0.0
 10
5.67295
 20
-3.38899
 30
0.0
 10
5.67295
 20
-3.38899
 30
0.0
 10
5.67295
 20
-3.38899
 30
0.0
 10
5.63294
 20
-3.32217
 30
0.0
 10
5.63294
 20
-3.32217
 30
0.0
 10
5.63294
 20
-3.32217
 30
0.0
 10
5.63294
 20
-3.32217
 30
0.0
 10
5.60203
 20
-3.25862
 30
0.0
 10
5.60203
 20
-3.25862
 30
0.0
 10
5.60203
 20
-3.25862
 30
0.0
 10
5.60203
 20
-3.25862
 30
0.0
 10
5.57642
 20
-3.18227
 30
0.0
 10
5.57642
 20
-3.18227
 30
0.0
 10
5.57642
 20
-3.18227
 30
0.0
 10
5.57642
 20
-3.18227
 30
0.0
 10
5.55495
 20
-3.09156
 30
0.0
 10
5.55495
 20
-3.09156
 30
0.0
 10
5.55495
 20
-3.09156
 30
0.0
 10
5.55495
 20
-3.09156
 30
0.0
 10
5.53849
 20
-2.9882
 30
0.0
 10
5.53849
 20
-2.9882
 30
0.0
 10
5.53849
 20
-2.9882
 30
0.0
 10
5.53849
 20
-2.9882
 30
0.0
 10
5.53849
 20
-2.89764
 30
0.0
 10
5.53849
 20
-2.89764
 30
0.0
 10
5.53849
 20
-2.89764
 30
0.0
 10
5.53849
 20
-2.89764
 30
0.0
 10
5.55129
 20
-2.7924
 30
0.0
 10
5.55129
 20
-2.7924
 30
0.0
 10
5.55129
 20
-2.7924
 30
0.0
 10
5.55129
 20
-2.7924
 30
0.0
 10
5.57276
 20
-2.7236
 30
0.0
 10
5.57276
 20
-2.7236
 30
0.0
 10
5.57276
 20
-2.7236
 30
0.0
 10
5.57276
 20
-2.7236
 30
0.0
 10
5.59111
 20
-2.66347
 30
0.0
 10
5.59111
 20
-2.66347
 30
0.0
 10
5.59111
 20
-2.66347
 30
0.0
 10
5.59111
 20
-2.66347
 30
0.0
 10
5.62919
 20
-2.59299
 30
0.0
 10
5.62919
 20
-2.59299
 30
0.0
 10
5.62919
 20
-2.59299
 30
0.0
 10
5.62919
 20
-2.59299
 30
0.0
 10
5.67468
 20
-2.53127
 30
0.0
 10
5.67468
 20
-2.53127
 30
0.0
 10
5.67468
 20
-2.53127
 30
0.0
 10
5.67468
 20
-2.53127
 30
0.0
 10
5.75643
 20
-2.43373
 30
0.0
 10
5.75643
 20
-2.43373
 30
0.0
 10
5.75643
 20
-2.43373
 30
0.0
 10
5.75643
 20
-2.43373
 30
0.0
 10
5.82542
 20
-2.36436
 30
0.0
 10
5.82542
 20
-2.36436
 30
0.0
 10
5.82542
 20
-2.36436
 30
0.0
 10
5.82542
 20
-2.36436
 30
0.0
 10
5.89085
 20
-2.31732
 30
0.0
 10
5.89085
 20
-2.31732
 30
0.0
 10
5.89085
 20
-2.31732
 30
0.0
 10
5.89085
 20
-2.31732
 30
0.0
 10
5.96711
 20
-2.27731
 30
0.0
 10
5.96711
 20
-2.27731
 30
0.0
 10
5.96711
 20
-2.27731
 30
0.0
 10
5.96711
 20
-2.27731
 30
0.0
 10
6.08366
 20
-2.22253
 30
0.0
 10
6.08366
 20
-2.22253
 30
0.0
 10
6.08366
 20
-2.22253
 30
0.0
 10
6.08366
 20
-2.22253
 30
0.0
 10
6.19993
 20
-2.18632
 30
0.0
 10
6.19993
 20
-2.18632
 30
0.0
 10
6.19993
 20
-2.18632
 30
0.0
 10
6.19993
 20
-2.18632
 30
0.0
 10
6.31624
 20
-2.15383
 30
0.0
 10
6.31624
 20
-2.15383
 30
0.0
 10
6.31624
 20
-2.15383
 30
0.0
 10
6.31624
 20
-2.15383
 30
0.0
 10
6.42524
 20
-2.14256
 30
0.0
 10
6.42524
 20
-2.14256
 30
0.0
 10
6.42524
 20
-2.14256
 30
0.0
 10
6.42524
 20
-2.14256
 30
0.0
 10
6.57073
 20
-2.13163
 30
0.0
 10
6.57073
 20
-2.13163
 30
0.0
 10
6.57073
 20
-2.13163
 30
0.0
 10
6.57073
 20
-2.13163
 30
0.0
 10
6.69788
 20
-2.13163
 30
0.0
 10
6.69788
 20
-2.13163
 30
0.0
 10
6.69788
 20
-2.13163
 30
0.0
 10
6.69788
 20
-2.13163
 30
0.0
 10
6.79989
 20
-2.13519
 30
0.0
 10
6.79989
 20
-2.13519
 30
0.0
 10
6.79989
 20
-2.13519
 30
0.0
 10
6.79989
 20
-2.13519
 30
0.0
 10
6.90634
 20
-2.15127
 30
0.0
 10
6.90634
 20
-2.15127
 30
0.0
 10
6.90634
 20
-2.15127
 30
0.0
 10
6.90634
 20
-2.15127
 30
0.0
 10
7.00932
 20
-2.16928
 30
0.0
 10
7.00932
 20
-2.16928
 30
0.0
 10
7.00932
 20
-2.16928
 30
0.0
 10
7.00932
 20
-2.16928
 30
0.0
 10
7.11966
 20
-2.20442
 30
0.0
 10
7.11966
 20
-2.20442
 30
0.0
 10
7.11966
 20
-2.20442
 30
0.0
 10
7.11966
 20
-2.20442
 30
0.0
 10
7.22539
 20
-2.24987
 30
0.0
 10
7.22539
 20
-2.24987
 30
0.0
 10
7.22539
 20
-2.24987
 30
0.0
 10
7.22539
 20
-2.24987
 30
0.0
 10
7.32321
 20
-2.2972
 30
0.0
 10
7.32321
 20
-2.2972
 30
0.0
 10
7.32321
 20
-2.2972
 30
0.0
 10
7.32321
 20
-2.2972
 30
0.0
 10
7.39774
 20
-2.34428
 30
0.0
 10
7.39774
 20
-2.34428
 30
0.0
 10
7.39774
 20
-2.34428
 30
0.0
 10
7.39774
 20
-2.34428
 30
0.0
 10
7.47742
 20
-2.4061
 30
0.0
 10
7.47742
 20
-2.4061
 30
0.0
 10
7.47742
 20
-2.4061
 30
0.0
 10
7.47742
 20
-2.4061
 30
0.0
 10
7.54795
 20
-2.48399
 30
0.0
 10
7.54795
 20
-2.48399
 30
0.0
 10
7.54795
 20
-2.48399
 30
0.0
 10
7.54795
 20
-2.48399
 30
0.0
 10
7.62069
 20
-2.59299
 30
0.0
 10
7.62069
 20
-2.59299
 30
0.0
 10
7.62069
 20
-2.59299
 30
0.0
 10
7.62069
 20
-2.59299
 30
0.0
 10
7.66243
 20
-2.67998
 30
0.0
 10
7.66243
 20
-2.67998
 30
0.0
 10
7.66243
 20
-2.67998
 30
0.0
 10
7.66243
 20
-2.67998
 30
0.0
 10
7.70408
 20
-2.7924
 30
0.0
 10
7.70408
 20
-2.7924
 30
0.0
 10
7.70408
 20
-2.7924
 30
0.0
 10
7.70408
 20
-2.7924
 30
0.0
 10
7.72776
 20
-2.89037
 30
0.0
 10
7.72776
 20
-2.89037
 30
0.0
 10
7.72776
 20
-2.89037
 30
0.0
 10
7.72776
 20
-2.89037
 30
0.0
 10
7.73874
 20
-2.98493
 30
0.0
 10
7.73874
 20
-2.98493
 30
0.0
 10
7.73874
 20
-2.98493
 30
0.0
 10
7.73874
 20
-2.98493
 30
0.0
 10
7.08548
 20
-2.9882
 30
0.0
 10
7.08548
 20
-2.9882
 30
0.0
  0
SPLINE
  5
4A
330
1F
100
AcDbEntity
  8
layer 1
 62
   250
100
AcDbSpline
210
0.0
220
0.0
230
1.0
 70
    11
 71
     3
 72
    20
 73
    16
 74
     0
 42
0.0000000001
 43
0.0000000001
 12
1.0
 22
0.0
 32
0.0
 13
1.0
 23
0.0
 33
0.0
 40
0.0
 40
0.0
 40
0.0
 40
0.0
 40
0.2
 40
0.2
 40
0.2
 40
0.2
 40
0.4
 40
0.4
 40
0.4
 40
0.4
 40
0.6
 40
0.6
 40
0.6
 40
0.6
 40
1.0
 40
1.0
 40
1.0
 40
1.0
 10
2.53501
 20
-1.27959
 30
0.0
 10
2.53501
 20
-1.27959
 30
0.0
 10
-0.6391
 20
4.21994
 30
0.0
 10
-0.6391
 20
4.21994
 30
0.0
 10
-0.6391
 20
4.21994
 30
0.0
 10
-0.6391
 20
4.21994
 30
0.0
 10
1.62957
 20
5.53638
 30
0.0
 10
1.62957
 20
5.53638
 30
0.0
 10
1.62957
 20
5.53638
 30
0.0
 10
1.62957
 20
5.53638
 30
0.0
 10
5.57796
 20
-1.27367
 30
0.0
 10
5.57796
 20
-1.27367
 30
0.0
 10
5.57796
 20
-1.27367
 30
0.0
 10
5.57796
 20
-1.27367
 30
0.0
 10
2.53501
 20
-1.27959
 30
0.0
 10
2.53501
 20
-1.27959
 30
0.0
  0
SPLINE
  5
4B
330
1F
100
AcDbEntity
  8
layer 1
 62
   250
100
AcDbSpline
210
0.0
220
0.0
230
1.0
 70
    11
 71
     3
 72
    20
 73
    16
 74
     0
 42
0.0000000001
 43
0.0000000001
 12
1.0
 22
0.0
 32
0.0
 13
1.0
 23
0.0
 33
0.0
 40
0.0
 40
0.0
 40
0.0
 40
0.0
 40
0.2
 40
0.2
 40
0.2
 40
0.2
 40
0.4
 40
0.4
 40
0.4
 40
0.4
 40
0.6
 40
0.6
 40
0.6
 40
0.6
 40
1.0
 40
1.0
 40
1.0
 40
1.0
 10
-1.44978
 20
-2.16114
 30
0.0
 10
-1.44978
 20
-2.16114
 30
0.0
 10
-1.44978
 20
-4.78776
 30
0.0
 10
-1.44978
 20
-4.78776
 30
0.0
 10
-1.44978
 20
-4.78776
 30
0.0
 10
-1.44978
 20
-4.78776
 30
0.0
 10
-0.79888
 20
-4.78588
 30
0.0
 10
-0.79888
 20
-4.78588
 30
0.0
 10
-0.79888
 20
-4.78588
 30
0.0
 10
-0.79888
 20
-4.78588
 30
0.0
 10
-0.79806
 20
-2.16095
 30
0.0
 10
-0.79806
 20
-2.16095
 30
0.0
 10
-0.79806
 20
-2.16095
 30
0.0
 10
-0.79806
 20
-2.16095
 30
0.0
 10
-1.44978
 20
-2.16114
 30
0.0
 10
-1.44978
 20
-2.16114
 30
0.0
  0
SPLINE
  5
4C
330
1F
100
AcDbEntity
  8
layer 1
 62
   250
100
AcDbSpline
210
0.0
220
0.0
230
1.0
 70
    11
 71
     3
 72
    32
 73
    28
 74
     0
 42
0.0000000001
 43
0.0000000001
 12
1.0
 22
0.0
 32
0.0
 13
1.0
 23
0.0
 33
0.0
 40
0.0
 40
0.0
 40
0.0
 40
0.0
 40
0.125
 40
0.125
 40
0.125
 40
0.125
 40
0.25
 40
0.25
 40
0.25
 40
0.25
 40
0.375
 40
0.375
 40
0.375
 40
0.375
 40
0.5
 40
0.5
 40
0.5
 40
0.5
 40
0.625
 40
0.625
 40
0.625
 40
0.625
 40
0.75
 40
0.75
 40
0.75
 40
0.75
 40
1.0
 40
1.0
 40
1.0
 40
1.0
 10
-1.44617
 20
-1.92808
 30
0.0
 10
-1.44617
 20
-1.92808
 30
0.0
 10
-1.45354
 20
-1.24107
 30
0.0
 10
-1.45354
 20
-1.24107
 30
0.0
 10
-1.45354
 20
-1.24107
 30
0.0
 10
-1.45354
 20
-1.24107
 30
0.0
 10
-3.2348
 20
1.83501
 30
0.0
 10
-3.2348
 20
1.83501
 30
0.0
 10
-3.2348
 20
1.83501
 30
0.0
 10
-3.2348
 20
1.83501
 30
0.0
 10
-0.97003
 20
3.14759
 30
0.0
 10
-0.97003
 20
3.14759
 30
0.0
 10
-0.97003
 20
3.14759
 30
0.0
 10
-0.97003
 20
3.14759
 30
0.0
 10
1.58961
 20
-1.27367
 30
0.0
 10
1.58961
 20
-1.27367
 30
0.0
 10
1.58961
 20
-1.27367
 30
0.0
 10
1.58961
 20
-1.27367
 30
0.0
 10
-0.79551
 20
-1.27781
 30
0.0
 10
-0.79551
 20
-1.27781
 30
0.0
 10
-0.79551
 20
-1.27781
 30
0.0
 10
-0.79551
 20
-1.27781
 30
0.0
 10
-0.79696
 20
-1.9237
 30
0.0
 10
-0.79696
 20
-1.9237
 30
0.0
 10
-0.79696
 20
-1.9237
 30
0.0
 10
-0.79696
 20
-1.9237
 30
0.0
 10
-1.44617
 20
-1.92808
 30
0.0
 10
-1.44617
 20
-1.92808
 30
0.0
  0
SPLINE
  5
4D
330
1F
100
AcDbEntity
  8
layer 1
 62
   250
100
AcDbSpline
210
0.0
220
0.0
230
1.0
 70
    11
 71
     3
 72
    20
 73
    16
 74
     0
 42
0.0000000001
 43
0.0000000001
 12
1.0
 22
0.0
 32
0.0
 13
1.0
 23
0.0
 33
0.0
 40
0.0
 40
0.0
 40
0.0
 40
0.0
 40
0.2
 40
0.2
 40
0.2
 40
0.2
 40
0.4
 40
0.4
 40
0.4
 40
0.4
 40
0.6
 40
0.6
 40
0.6
 40
0.6
 40
1.0
 40
1.0
 40
1.0
 40
1.0
 10
-5.45301
 20
-1.2845
 30
0.0
 10
-5.45301
 20
-1.2845
 30
0.0
 10
-2.41347
 20
-1.27747
 30
0.0
 10
-2.41347
 20
-1.27747
 30
0.0
 10
-2.41347
 20
-1.27747
 30
0.0
 10
-2.41347
 20
-1.27747
 30
0.0
 10
-3.6276
 20
0.82419
 30
0.0
 10
-3.6276
 20
0.82419
 30
0.0
 10
-3.6276
 20
0.82419
 30
0.0
 10
-3.6276
 20
0.82419
 30
0.0
 10
-5.8966
 20
-0.5065
 30
0.0
 10
-5.8966
 20
-0.5065
 30
0.0
 10
-5.8966
 20
-0.5065
 30
0.0
 10
-5.8966
 20
-0.5065
 30
0.0
 10
-5.45301
 20
-1.2845
 30
0.0
 10
-5.45301
 20
-1.2845
 30
0.0
  0
ENDSEC
  0
SECTION
  2
OBJECTS
  0
DICTIONARY
  5
C
330
0
100
AcDbDictionary
281
     1
  3
ACAD_GROUP
350
D
  3
ACAD_LAYOUT
350
1A
  3
ACAD_MATERIAL
350
3B
  3
ACAD_MLEADERSTYLE
350
6F
  3
ACAD_MLINESTYLE
350
17
  3
ACAD_PLOTSETTINGS
350
19
  3
ACAD_PLOTSTYLENAME
350
E
  3
ACAD_TABLESTYLE
350
6E
  3
ACAD_VISUALSTYLE
350
2A
  0
DICTIONARY
  5
D
102
{ACAD_REACTORS
330
C
102
}
330
C
100
AcDbDictionary
281
     1
  0
DICTIONARY
  5
1A
102
{ACAD_REACTORS
330
C
102
}
330
C
100
AcDbDictionary
281
     1
  3
Layout1
350
1E
  3
Layout2
350
26
  3
Model
350
22
  0
DICTIONARY
  5
3B
102
{ACAD_REACTORS
330
C
102
}
330
C
100
AcDbDictionary
281
     1
  3
ByBlock
350
3D
  3
ByLayer
350
3C
  3
Global
350
3E
  0
DICTIONARY
  5
6F
102
{ACAD_REACTORS
330
C
102
}
330
C
100
AcDbDictionary
281
     1
  0
DICTIONARY
  5
17
102
{ACAD_REACTORS
330
C
102
}
330
C
100
AcDbDictionary
281
     1
  3
Standard
350
18
  0
DICTIONARY
  5
19
102
{ACAD_REACTORS
330
C
102
}
330
C
100
AcDbDictionary
281
     1
  0
ACDBDICTIONARYWDFLT
  5
E
102
{ACAD_REACTORS
330
C
102
}
330
C
100
AcDbDictionary
281
     1
  3
Normal
350
F
100
AcDbDictionaryWithDefault
340
F
  0
DICTIONARY
  5
6E
102
{ACAD_REACTORS
330
C
102
}
330
C
100
AcDbDictionary
281
     1
  0
DICTIONARY
  5
2A
102
{ACAD_REACTORS
330
C
102
}
330
C
100
AcDbDictionary
281
     1
  3
2dWireframe
350
2F
  3
3D Hidden
350
31
  3
3dWireframe
350
30
  3
Basic
350
32
  3
Brighten
350
36
  3
ColorChange
350
3A
  3
Conceptual
350
34
  3
Dim
350
35
  3
Facepattern
350
39
  3
Flat
350
2B
  3
FlatWithEdges
350
2C
  3
Gouraud
350
2D
  3
GouraudWithEdges
350
2E
  3
Linepattern
350
38
  3
Realistic
350
33
  3
Thicken
350
37
  0
LAYOUT
  5
1E
102
{ACAD_REACTORS
330
1A
102
}
330
1A
100
AcDbPlotSettings
  1

  2
none_device
  4

  6

 40
0.0
 41
0.0
 42
0.0
 43
0.0
 44
0.0
 45
0.0
 46
0.0
 47
0.0
 48
0.0
 49
0.0
140
0.0
141
0.0
142
1.0
143
1.0
 70
   688
 72
     0
 73
     0
 74
     5
  7

 75
    16
 76
     0
 77
     2
 78
   300
147
1.0
148
0.0
149
0.0
100
AcDbLayout
  1
Layout1
 70
     1
 71
     1
 10
0.0
 20
0.0
 11
12.0
 21
9.0
 12
0.0
 22
0.0
 32
0.0
 14
1.000000000000000E+20
 24
1.000000000000000E+20
 34
1.000000000000000E+20
 15
-1.000000000000000E+20
 25
-1.000000000000000E+20
 35
-1.000000000000000E+20
146
0.0
 13
0.0
 23
0.0
 33
0.0
 16
1.0
 26
0.0
 36
0.0
 17
0.0
 27
1.0
 37
0.0
 76
     0
330
1B
  0
LAYOUT
  5
26
102
{ACAD_REACTORS
330
1A
102
}
330
1A
100
AcDbPlotSettings
  1

  2
none_device
  4

  6

 40
0.0
 41
0.0
 42
0.0
 43
0.0
 44
0.0
 45
0.0
 46
0.0
 47
0.0
 48
0.0
 49
0.0
140
0.0
141
0.0
142
1.0
143
1.0
 70
   688
 72
     0
 73
     0
 74
     5
  7

 75
    16
 76
     0
 77
     2
 78
   300
147
1.0
148
0.0
149
0.0
100
AcDbLayout
  1
Layout2
 70
     1
 71
     2
 10
0.0
 20
0.0
 11
0.0
 21
0.0
 12
0.0
 22
0.0
 32
0.0
 14
0.0
 24
0.0
 34
0.0
 15
0.0
 25
0.0
 35
0.0
146
0.0
 13
0.0
 23
0.0
 33
0.0
 16
1.0
 26
0.0
 36
0.0
 17
0.0
 27
1.0
 37
0.0
 76
     0
330
23
  0
LAYOUT
  5
22
102
{ACAD_REACTORS
330
1A
102
}
330
1A
100
AcDbPlotSettings
  1

  2
none_device
  4

  6

 40
0.0
 41
0.0
 42
0.0
 43
0.0
 44
0.0
 45
0.0
 46
0.0
 47
0.0
 48
0.0
 49
0.0
140
0.0
141
0.0
142
1.0
143
1.0
 70
  1712
 72
     0
 73
     0
 74
     0
  7

 75
     0
 76
     0
 77
     2
 78
   300
147
1.0
148
0.0
149
0.0
100
AcDbLayout
  1
Model
 70
     1
 71
     0
 10
0.0
 20
0.0
 11
12.0
 21
9.0
 12
0.0
 22
0.0
 32
0.0
 14
-7.55669
 24
-4.84177
 34
0.0
 15
7.84923
 25
5.53638
 35
0.0
146
0.0
 13
0.0
 23
0.0
 33
0.0
 16
1.0
 26
0.0
 36
0.0
 17
0.0
 27
1.0
 37
0.0
 76
     0
330
1F
331
29
  0
MATERIAL
  5
3D
102
{ACAD_REACTORS
330
3B
102
}
330
3B
100
AcDbMaterial
  1
ByBlock
 72
     1
 94
      127
  0
MATERIAL
  5
3C
102
{ACAD_REACTORS
330
3B
102
}
330
3B
100
AcDbMaterial
  1
ByLayer
 72
     1
 94
      127
  0
MATERIAL
  5
3E
102
{ACAD_REACTORS
330
3B
102
}
330
3B
100
AcDbMaterial
  1
Global
 72
     1
 94
      127
  0
MLINESTYLE
  5
18
102
{ACAD_REACTORS
330
17
102
}
330
17
100
AcDbMlineStyle
  2
Standard
 70
     0
  3

 62
   256
 51
90.0
 52
90.0
 71
     2
 49
0.5
 62
   256
  6
BYLAYER
 49
-0.5
 62
   256
  6
BYLAYER
  0
ACDBPLACEHOLDER
  5
F
102
{ACAD_REACTORS
330
E
102
}
330
E
  0
VISUALSTYLE
  5
2F
102
{ACAD_REACTORS
330
2A
102
}
102
{ACAD_XDICTIONARY
360
56
102
}
330
2A
100
AcDbVisualStyle
  2
2dWireframe
 70
     4
 71
     0
 72
     2
 73
     0
 90
        0
 40
-0.6
 41
-30.0
 62
     5
 63
     7
421
 16777215
 74
     1
 91
        4
 64
     7
 65
   257
 75
     1
175
     1
 42
1.0
 92
        0
 66
   257
 43
1.0
 76
     1
 77
     6
 78
     2
 67
     7
 79
     5
170
     0
171
     0
290
     0
174
     0
 93
        1
 44
0.0
173
     0
291
     0
 45
0.0
  0
VISUALSTYLE
  5
31
102
{ACAD_REACTORS
330
2A
102
}
102
{ACAD_XDICTIONARY
360
5A
102
}
330
2A
100
AcDbVisualStyle
  2
3D Hidden
 70
     6
 71
     1
 72
     2
 73
     2
 90
        0
 40
-0.6
 41
-30.0
 62
     5
 63
     7
421
 16777215
 74
     2
 91
        2
 64
     7
 65
   257
 75
     2
175
     1
 42
40.0
 92
        0
 66
   257
 43
1.0
 76
     1
 77
     6
 78
     2
 67
     7
 79
     3
170
     0
171
     0
290
     0
174
     0
 93
        1
 44
0.0
173
     0
291
     0
 45
0.0
  0
VISUALSTYLE
  5
30
102
{ACAD_REACTORS
330
2A
102
}
102
{ACAD_XDICTIONARY
360
58
102
}
330
2A
100
AcDbVisualStyle
  2
3dWireframe
 70
     5
 71
     0
 72
     2
 73
     0
 90
        0
 40
-0.6
 41
-30.0
 62
     5
 63
     7
421
 16777215
 74
     1
 91
        4
 64
     7
 65
   257
 75
     1
175
     1
 42
1.0
 92
        0
 66
   257
 43
1.0
 76
     1
 77
     6
 78
     2
 67
     7
 79
     5
170
     0
171
     0
290
     0
174
     0
 93
        1
 44
0.0
173
     0
291
     0
 45
0.0
  0
VISUALSTYLE
  5
32
102
{ACAD_REACTORS
330
2A
102
}
102
{ACAD_XDICTIONARY
360
5C
102
}
330
2A
100
AcDbVisualStyle
  2
Basic
 70
     7
 71
     1
 72
     0
 73
     1
 90
        0
 40
-0.6
 41
-30.0
 62
     5
 63
     7
421
 16777215
 74
     0
 91
        4
 64
     7
 65
   257
 75
     1
175
     1
 42
1.0
 92
        8
 66
     7
 43
1.0
 76
     1
 77
     6
 78
     2
 67
     7
 79
     5
170
     0
171
     0
290
     0
174
     0
 93
        1
 44
0.0
173
     0
291
     1
 45
0.0
  0
VISUALSTYLE
  5
36
102
{ACAD_REACTORS
330
2A
102
}
102
{ACAD_XDICTIONARY
360
64
102
}
330
2A
100
AcDbVisualStyle
  2
Brighten
 70
    12
 71
     2
 72
     2
 73
     0
 90
        0
 40
-0.6
 41
-30.0
 62
     5
 63
     7
421
 16777215
 74
     1
 91
        4
 64
     7
 65
   257
 75
     1
175
     1
 42
1.0
 92
        8
 66
     7
 43
1.0
 76
     1
 77
     6
 78
     2
 67
     7
 79
     5
170
     0
171
     0
290
     0
174
     0
 93
        1
 44
50.0
173
     0
291
     1
 45
0.0
  0
VISUALSTYLE
  5
3A
102
{ACAD_REACTORS
330
2A
102
}
102
{ACAD_XDICTIONARY
360
6C
102
}
330
2A
100
AcDbVisualStyle
  2
ColorChange
 70
    16
 71
     2
 72
     2
 73
     3
 90
        0
 40
-0.6
 41
-30.0
 62
     5
 63
     8
421
  8421504
 74
     1
 91
        4
 64
     7
 65
   257
 75
     1
175
     1
 42
1.0
 92
        8
 66
     8
424
  8421504
 43
1.0
 76
     1
 77
     6
 78
     2
 67
     7
 79
     5
170
     0
171
     0
290
     0
174
     0
 93
        1
 44
0.0
173
     0
291
     1
 45
0.0
  0
VISUALSTYLE
  5
34
102
{ACAD_REACTORS
330
2A
102
}
102
{ACAD_XDICTIONARY
360
60
102
}
330
2A
100
AcDbVisualStyle
  2
Conceptual
 70
     9
 71
     3
 72
     2
 73
     0
 90
        0
 40
-0.6
 41
-30.0
 62
     5
 63
     7
421
 16777215
 74
     2
 91
        2
 64
     7
 65
   257
 75
     1
175
     1
 42
40.0
 92
        8
 66
     7
 43
1.0
 76
     1
 77
     6
 78
     2
 67
     7
 79
     3
170
     0
171
     0
290
     0
174
     0
 93
        1
 44
0.0
173
     0
291
     0
 45
0.0
  0
VISUALSTYLE
  5
35
102
{ACAD_REACTORS
330
2A
102
}
102
{ACAD_XDICTIONARY
360
62
102
}
330
2A
100
AcDbVisualStyle
  2
Dim
 70
    11
 71
     2
 72
     2
 73
     0
 90
        0
 40
-0.6
 41
-30.0
 62
     5
 63
     7
421
 16777215
 74
     1
 91
        4
 64
     7
 65
   257
 75
     1
175
     1
 42
1.0
 92
        8
 66
     7
 43
1.0
 76
     1
 77
     6
 78
     2
 67
     7
 79
     5
170
     0
171
     0
290
     0
174
     0
 93
        1
 44
-50.0
173
     0
291
     1
 45
0.0
  0
VISUALSTYLE
  5
39
102
{ACAD_REACTORS
330
2A
102
}
102
{ACAD_XDICTIONARY
360
6A
102
}
330
2A
100
AcDbVisualStyle
  2
Facepattern
 70
    15
 71
     2
 72
     2
 73
     0
 90
        0
 40
-0.6
 41
-30.0
 62
     5
 63
     7
421
 16777215
 74
     1
 91
        4
 64
     7
 65
   257
 75
     1
175
     1
 42
1.0
 92
        8
 66
     7
 43
1.0
 76
     1
 77
     6
 78
     2
 67
     7
 79
     5
170
     0
171
     0
290
     0
174
     0
 93
        1
 44
0.0
173
     0
291
     1
 45
0.0
  0
VISUALSTYLE
  5
2B
102
{ACAD_REACTORS
330
2A
102
}
102
{ACAD_XDICTIONARY
360
4E
102
}
330
2A
100
AcDbVisualStyle
  2
Flat
 70
     0
 71
     2
 72
     1
 73
     1
 90
        2
 40
-0.6
 41
30.0
 62
     5
 63
     7
421
 16777215
 74
     0
 91
        4
 64
     7
 65
   257
 75
     1
175
     1
 42
1.0
 92
        8
 66
     7
 43
1.0
 76
     1
 77
     6
 78
     2
 67
     7
 79
     5
170
     0
171
     0
290
     0
174
     0
 93
       13
 44
0.0
173
     0
291
     1
 45
0.0
  0
VISUALSTYLE
  5
2C
102
{ACAD_REACTORS
330
2A
102
}
102
{ACAD_XDICTIONARY
360
50
102
}
330
2A
100
AcDbVisualStyle
  2
FlatWithEdges
 70
     1
 71
     2
 72
     1
 73
     1
 90
        2
 40
-0.6
 41
30.0
 62
     5
 63
     7
421
 16777215
 74
     1
 91
        4
 64
     7
 65
   257
 75
     1
175
     1
 42
1.0
 92
        0
 66
   257
 43
1.0
 76
     1
 77
     6
 78
     2
 67
     7
 79
     5
170
     0
171
     0
290
     0
174
     0
 93
       13
 44
0.0
173
     0
291
     1
 45
0.0
  0
VISUALSTYLE
  5
2D
102
{ACAD_REACTORS
330
2A
102
}
102
{ACAD_XDICTIONARY
360
52
102
}
330
2A
100
AcDbVisualStyle
  2
Gouraud
 70
     2
 71
     2
 72
     2
 73
     1
 90
        2
 40
-0.6
 41
30.0
 62
     5
 63
     7
421
 16777215
 74
     0
 91
        4
 64
     7
 65
   257
 75
     1
175
     1
 42
1.0
 92
        0
 66
     7
 43
1.0
 76
     1
 77
     6
 78
     2
 67
     7
 79
     5
170
     0
171
     0
290
     0
174
     0
 93
       13
 44
0.0
173
     0
291
     1
 45
0.0
  0
VISUALSTYLE
  5
2E
102
{ACAD_REACTORS
330
2A
102
}
102
{ACAD_XDICTIONARY
360
54
102
}
330
2A
100
AcDbVisualStyle
  2
GouraudWithEdges
 70
     3
 71
     2
 72
     2
 73
     1
 90
        2
 40
-0.6
 41
30.0
 62
     5
 63
     7
421
 16777215
 74
     1
 91
        4
 64
     7
 65
   257
 75
     1
175
     1
 42
1.0
 92
        0
 66
   257
 43
1.0
 76
     1
 77
     6
 78
     2
 67
     7
 79
     5
170
     0
171
     0
290
     0
174
     0
 93
       13
 44
0.0
173
     0
291
     1
 45
0.0
  0
VISUALSTYLE
  5
38
102
{ACAD_REACTORS
330
2A
102
}
102
{ACAD_XDICTIONARY
360
68
102
}
330
2A
100
AcDbVisualStyle
  2
Linepattern
 70
    14
 71
     2
 72
     2
 73
     0
 90
        0
 40
-0.6
 41
-30.0
 62
     5
 63
     7
421
 16777215
 74
     1
 91
        4
 64
     7
 65
   257
 75
     7
175
     7
 42
1.0
 92
        8
 66
     7
 43
1.0
 76
     1
 77
     6
 78
     2
 67
     7
 79
     5
170
     0
171
     0
290
     0
174
     0
 93
        1
 44
0.0
173
     0
291
     1
 45
0.0
  0
VISUALSTYLE
  5
33
102
{ACAD_REACTORS
330
2A
102
}
102
{ACAD_XDICTIONARY
360
5E
102
}
330
2A
100
AcDbVisualStyle
  2
Realistic
 70
     8
 71
     2
 72
     2
 73
     0
 90
        0
 40
-0.6
 41
-30.0
 62
     5
 63
     7
421
 16777215
 74
     1
 91
        0
 64
     7
 65
   257
 75
     1
175
     1
 42
1.0
 92
        8
 66
     8
424
  7895160
 43
1.0
 76
     1
 77
     6
 78
     2
 67
     7
 79
     5
170
     0
171
     0
290
     0
174
     0
 93
       13
 44
0.0
173
     0
291
     0
 45
0.0
  0
VISUALSTYLE
  5
37
102
{ACAD_REACTORS
330
2A
102
}
102
{ACAD_XDICTIONARY
360
66
102
}
330
2A
100
AcDbVisualStyle
  2
Thicken
 70
    13
 71
     2
 72
     2
 73
     0
 90
        0
 40
-0.6
 41
-30.0
 62
     5
 63
     7
421
 16777215
 74
     1
 91
        4
 64
     7
 65
   257
 75
     1
175
     1
 42
1.0
 92
       12
 66
     7
 43
1.0
 76
     1
 77
     6
 78
     2
 67
     7
 79
     5
170
     0
171
     0
290
     0
174
     0
 93
        1
 44
0.0
173
     0
291
     1
 45
0.0
  0
DICTIONARY
  5
56
330
2F
100
AcDbDictionary
280
     1
281
     1
  3
ACAD_XREC_ROUNDTRIP
360
57
  0
DICTIONARY
  5
5A
330
31
100
AcDbDictionary
280
     1
281
     1
  3
ACAD_XREC_ROUNDTRIP
360
5B
  0
DICTIONARY
  5
58
330
30
100
AcDbDictionary
280
     1
281
     1
  3
ACAD_XREC_ROUNDTRIP
360
59
  0
DICTIONARY
  5
5C
330
32
100
AcDbDictionary
280
     1
281
     1
  3
ACAD_XREC_ROUNDTRIP
360
5D
  0
DICTIONARY
  5
64
330
36
100
AcDbDictionary
280
     1
281
     1
  3
ACAD_XREC_ROUNDTRIP
360
65
  0
DICTIONARY
  5
6C
330
3A
100
AcDbDictionary
280
     1
281
     1
  3
ACAD_XREC_ROUNDTRIP
360
6D
  0
DICTIONARY
  5
60
330
34
100
AcDbDictionary
280
     1
281
     1
  3
ACAD_XREC_ROUNDTRIP
360
61
  0
DICTIONARY
  5
62
330
35
100
AcDbDictionary
280
     1
281
     1
  3
ACAD_XREC_ROUNDTRIP
360
63
  0
DICTIONARY
  5
6A
330
39
100
AcDbDictionary
280
     1
281
     1
  3
ACAD_XREC_ROUNDTRIP
360
6B
  0
DICTIONARY
  5
4E
330
2B
100
AcDbDictionary
280
     1
281
     1
  3
ACAD_XREC_ROUNDTRIP
360
4F
  0
DICTIONARY
  5
50
330
2C
100
AcDbDictionary
280
     1
281
     1
  3
ACAD_XREC_ROUNDTRIP
360
51
  0
DICTIONARY
  5
52
330
2D
100
AcDbDictionary
280
     1
281
     1
  3
ACAD_XREC_ROUNDTRIP
360
53
  0
DICTIONARY
  5
54
330
2E
100
AcDbDictionary
280
     1
281
     1
  3
ACAD_XREC_ROUNDTRIP
360
55
  0
DICTIONARY
  5
68
330
38
100
AcDbDictionary
280
     1
281
     1
  3
ACAD_XREC_ROUNDTRIP
360
69
  0
DICTIONARY
  5
5E
330
33
100
AcDbDictionary
280
     1
281
     1
  3
ACAD_XREC_ROUNDTRIP
360
5F
  0
DICTIONARY
  5
66
330
37
100
AcDbDictionary
280
     1
281
     1
  3
ACAD_XREC_ROUNDTRIP
360
67
  0
XRECORD
  5
57
102
{ACAD_REACTORS
330
56
102
}
330
56
100
AcDbXrecord
280
     1
102
RTVSPropertyOp0
 70
     1
102
RTVSPropertyOp1
 70
     1
102
RTVSPropertyOp2
 70
     1
102
RTVSPropertyOp3
 70
     1
102
RTVSPropertyOp4
 70
     1
102
RTVSPropertyOp5
 70
     1
102
RTVSPropertyOp6
 70
     1
102
RTVSPropertyOp7
 70
     1
102
RTVSPropertyOp8
 70
     1
102
RTVSPropertyOp9
 70
     1
102
RTVSPropertyOp10
 70
     1
102
RTVSPropertyOp11
 70
     1
102
RTVSPropertyOp12
 70
     1
102
RTVSPropertyOp13
 70
     1
102
RTVSPropertyOp14
 70
     1
102
RTVSPropertyOp15
 70
     1
102
RTVSPropertyOp16
 70
     1
102
RTVSPropertyOp17
 70
     1
102
RTVSPropertyOp18
 70
     1
102
RTVSPropertyOp19
 70
     1
102
RTVSPropertyOp20
 70
     1
102
RTVSPropertyOp21
 70
     1
102
RTVSPropertyOp22
 70
     1
102
RTVSPropertyOp23
 70
     1
102
RTVSPropertyOp24
 70
     1
102
RTVSPropertyOp25
 70
     1
102
RTVSPropertyOp26
 70
     1
102
RTVSPropertyOp27
 70
     1
102
RTVSPropertyOp28
 70
     1
102
RTVSPropertyOp29
 70
     1
102
RTVSPropertyOp30
 70
     1
102
RTVSPropertyOp31
 70
     1
102
RTVSPropertyOp32
 70
     1
  0
XRECORD
  5
5B
102
{ACAD_REACTORS
330
5A
102
}
330
5A
100
AcDbXrecord
280
     1
102
RTVSPropertyOp0
 70
     1
102
RTVSPropertyOp1
 70
     1
102
RTVSPropertyOp2
 70
     1
102
RTVSPropertyOp3
 70
     1
102
RTVSPropertyOp4
 70
     1
102
RTVSPropertyOp5
 70
     1
102
RTVSPropertyOp6
 70
     1
102
RTVSPropertyOp7
 70
     1
102
RTVSPropertyOp8
 70
     1
102
RTVSPropertyOp9
 70
     1
102
RTVSPropertyOp10
 70
     1
102
RTVSPropertyOp11
 70
     1
102
RTVSPropertyOp12
 70
     1
102
RTVSPropertyOp13
 70
     1
102
RTVSPropertyOp14
 70
     1
102
RTVSPropertyOp15
 70
     1
102
RTVSPropertyOp16
 70
     1
102
RTVSPropertyOp17
 70
     1
102
RTVSPropertyOp18
 70
     1
102
RTVSPropertyOp19
 70
     1
102
RTVSPropertyOp20
 70
     1
102
RTVSPropertyOp21
 70
     1
102
RTVSPropertyOp22
 70
     1
102
RTVSPropertyOp23
 70
     1
102
RTVSPropertyOp24
 70
     1
102
RTVSPropertyOp25
 70
     1
102
RTVSPropertyOp26
 70
     1
102
RTVSPropertyOp27
 70
     1
102
RTVSPropertyOp28
 70
     1
102
RTVSPropertyOp29
 70
     1
102
RTVSPropertyOp30
 70
     1
102
RTVSPropertyOp31
 70
     1
102
RTVSPropertyOp32
 70
     1
  0
XRECORD
  5
59
102
{ACAD_REACTORS
330
58
102
}
330
58
100
AcDbXrecord
280
     1
102
RTVSPropertyOp0
 70
     1
102
RTVSPropertyOp1
 70
     1
102
RTVSPropertyOp2
 70
     1
102
RTVSPropertyOp3
 70
     1
102
RTVSPropertyOp4
 70
     1
102
RTVSPropertyOp5
 70
     1
102
RTVSPropertyOp6
 70
     1
102
RTVSPropertyOp7
 70
     1
102
RTVSPropertyOp8
 70
     1
102
RTVSPropertyOp9
 70
     1
102
RTVSPropertyOp10
 70
     1
102
RTVSPropertyOp11
 70
     1
102
RTVSPropertyOp12
 70
     1
102
RTVSPropertyOp13
 70
     1
102
RTVSPropertyOp14
 70
     1
102
RTVSPropertyOp15
 70
     1
102
RTVSPropertyOp16
 70
     1
102
RTVSPropertyOp17
 70
     1
102
RTVSPropertyOp18
 70
     1
102
RTVSPropertyOp19
 70
     1
102
RTVSPropertyOp20
 70
     1
102
RTVSPropertyOp21
 70
     1
102
RTVSPropertyOp22
 70
     1
102
RTVSPropertyOp23
 70
     1
102
RTVSPropertyOp24
 70
     1
102
RTVSPropertyOp25
 70
     1
102
RTVSPropertyOp26
 70
     1
102
RTVSPropertyOp27
 70
     1
102
RTVSPropertyOp28
 70
     1
102
RTVSPropertyOp29
 70
     1
102
RTVSPropertyOp30
 70
     1
102
RTVSPropertyOp31
 70
     1
102
RTVSPropertyOp32
 70
     1
  0
XRECORD
  5
5D
102
{ACAD_REACTORS
330
5C
102
}
330
5C
100
AcDbXrecord
280
     1
102
RTVSPropertyOp0
 70
     1
102
RTVSPropertyOp1
 70
     1
102
RTVSPropertyOp2
 70
     1
102
RTVSPropertyOp3
 70
     1
102
RTVSPropertyOp4
 70
     1
102
RTVSPropertyOp5
 70
     1
102
RTVSPropertyOp6
 70
     1
102
RTVSPropertyOp7
 70
     1
102
RTVSPropertyOp8
 70
     1
102
RTVSPropertyOp9
 70
     1
102
RTVSPropertyOp10
 70
     1
102
RTVSPropertyOp11
 70
     1
102
RTVSPropertyOp12
 70
     1
102
RTVSPropertyOp13
 70
     1
102
RTVSPropertyOp14
 70
     1
102
RTVSPropertyOp15
 70
     1
102
RTVSPropertyOp16
 70
     1
102
RTVSPropertyOp17
 70
     1
102
RTVSPropertyOp18
 70
     1
102
RTVSPropertyOp19
 70
     1
102
RTVSPropertyOp20
 70
     1
102
RTVSPropertyOp21
 70
     1
102
RTVSPropertyOp22
 70
     1
102
RTVSPropertyOp23
 70
     1
102
RTVSPropertyOp24
 70
     1
102
RTVSPropertyOp25
 70
     1
102
RTVSPropertyOp26
 70
     1
102
RTVSPropertyOp27
 70
     1
102
RTVSPropertyOp28
 70
     1
102
RTVSPropertyOp29
 70
     1
102
RTVSPropertyOp30
 70
     1
102
RTVSPropertyOp31
 70
     1
102
RTVSPropertyOp32
 70
     1
  0
XRECORD
  5
65
102
{ACAD_REACTORS
330
64
102
}
330
64
100
AcDbXrecord
280
     1
102
RTVSPropertyOp0
 70
     1
102
RTVSPropertyOp1
 70
     1
102
RTVSPropertyOp2
 70
     1
102
RTVSPropertyOp3
 70
     1
102
RTVSPropertyOp4
 70
     1
102
RTVSPropertyOp5
 70
     1
102
RTVSPropertyOp6
 70
     1
102
RTVSPropertyOp7
 70
     1
102
RTVSPropertyOp8
 70
     1
102
RTVSPropertyOp9
 70
     1
102
RTVSPropertyOp10
 70
     1
102
RTVSPropertyOp11
 70
     1
102
RTVSPropertyOp12
 70
     1
102
RTVSPropertyOp13
 70
     1
102
RTVSPropertyOp14
 70
     1
102
RTVSPropertyOp15
 70
     1
102
RTVSPropertyOp16
 70
     1
102
RTVSPropertyOp17
 70
     1
102
RTVSPropertyOp18
 70
     1
102
RTVSPropertyOp19
 70
     1
102
RTVSPropertyOp20
 70
     1
102
RTVSPropertyOp21
 70
     1
102
RTVSPropertyOp22
 70
     1
102
RTVSPropertyOp23
 70
     1
102
RTVSPropertyOp24
 70
     1
102
RTVSPropertyOp25
 70
     1
102
RTVSPropertyOp26
 70
     1
102
RTVSPropertyOp27
 70
     1
102
RTVSPropertyOp28
 70
     1
102
RTVSPropertyOp29
 70
     1
102
RTVSPropertyOp30
 70
     1
102
RTVSPropertyOp31
 70
     1
102
RTVSPropertyOp32
 70
     1
  0
XRECORD
  5
6D
102
{ACAD_REACTORS
330
6C
102
}
330
6C
100
AcDbXrecord
280
     1
102
RTVSPropertyOp0
 70
     1
102
RTVSPropertyOp1
 70
     1
102
RTVSPropertyOp2
 70
     1
102
RTVSPropertyOp3
 70
     1
102
RTVSPropertyOp4
 70
     1
102
RTVSPropertyOp5
 70
     1
102
RTVSPropertyOp6
 70
     1
102
RTVSPropertyOp7
 70
     1
102
RTVSPropertyOp8
 70
     1
102
RTVSPropertyOp9
 70
     1
102
RTVSPropertyOp10
 70
     1
102
RTVSPropertyOp11
 70
     1
102
RTVSPropertyOp12
 70
     1
102
RTVSPropertyOp13
 70
     1
102
RTVSPropertyOp14
 70
     1
102
RTVSPropertyOp15
 70
     1
102
RTVSPropertyOp16
 70
     1
102
RTVSPropertyOp17
 70
     1
102
RTVSPropertyOp18
 70
     1
102
RTVSPropertyOp19
 70
     1
102
RTVSPropertyOp20
 70
     1
102
RTVSPropertyOp21
 70
     1
102
RTVSPropertyOp22
 70
     1
102
RTVSPropertyOp23
 70
     1
102
RTVSPropertyOp24
 70
     1
102
RTVSPropertyOp25
 70
     1
102
RTVSPropertyOp26
 70
     1
102
RTVSPropertyOp27
 70
     1
102
RTVSPropertyOp28
 70
     1
102
RTVSPropertyOp29
 70
     1
102
RTVSPropertyOp30
 70
     1
102
RTVSPropertyOp31
 70
     1
102
RTVSPropertyOp32
 70
     1
  0
XRECORD
  5
61
102
{ACAD_REACTORS
330
60
102
}
330
60
100
AcDbXrecord
280
     1
102
RTVSPropertyOp0
 70
     1
102
RTVSPropertyOp1
 70
     1
102
RTVSPropertyOp2
 70
     1
102
RTVSPropertyOp3
 70
     1
102
RTVSPropertyOp4
 70
     1
102
RTVSPropertyOp5
 70
     1
102
RTVSPropertyOp6
 70
     1
102
RTVSPropertyOp7
 70
     1
102
RTVSPropertyOp8
 70
     1
102
RTVSPropertyOp9
 70
     1
102
RTVSPropertyOp10
 70
     1
102
RTVSPropertyOp11
 70
     1
102
RTVSPropertyOp12
 70
     1
102
RTVSPropertyOp13
 70
     1
102
RTVSPropertyOp14
 70
     1
102
RTVSPropertyOp15
 70
     1
102
RTVSPropertyOp16
 70
     1
102
RTVSPropertyOp17
 70
     1
102
RTVSPropertyOp18
 70
     1
102
RTVSPropertyOp19
 70
     1
102
RTVSPropertyOp20
 70
     1
102
RTVSPropertyOp21
 70
     1
102
RTVSPropertyOp22
 70
     1
102
RTVSPropertyOp23
 70
     1
102
RTVSPropertyOp24
 70
     1
102
RTVSPropertyOp25
 70
     1
102
RTVSPropertyOp26
 70
     1
102
RTVSPropertyOp27
 70
     1
102
RTVSPropertyOp28
 70
     1
102
RTVSPropertyOp29
 70
     1
102
RTVSPropertyOp30
 70
     1
102
RTVSPropertyOp31
 70
     1
102
RTVSPropertyOp32
 70
     1
  0
XRECORD
  5
63
102
{ACAD_REACTORS
330
62
102
}
330
62
100
AcDbXrecord
280
     1
102
RTVSPropertyOp0
 70
     1
102
RTVSPropertyOp1
 70
     1
102
RTVSPropertyOp2
 70
     1
102
RTVSPropertyOp3
 70
     1
102
RTVSPropertyOp4
 70
     1
102
RTVSPropertyOp5
 70
     1
102
RTVSPropertyOp6
 70
     1
102
RTVSPropertyOp7
 70
     1
102
RTVSPropertyOp8
 70
     1
102
RTVSPropertyOp9
 70
     1
102
RTVSPropertyOp10
 70
     1
102
RTVSPropertyOp11
 70
     1
102
RTVSPropertyOp12
 70
     1
102
RTVSPropertyOp13
 70
     1
102
RTVSPropertyOp14
 70
     1
102
RTVSPropertyOp15
 70
     1
102
RTVSPropertyOp16
 70
     1
102
RTVSPropertyOp17
 70
     1
102
RTVSPropertyOp18
 70
     1
102
RTVSPropertyOp19
 70
     1
102
RTVSPropertyOp20
 70
     1
102
RTVSPropertyOp21
 70
     1
102
RTVSPropertyOp22
 70
     1
102
RTVSPropertyOp23
 70
     1
102
RTVSPropertyOp24
 70
     1
102
RTVSPropertyOp25
 70
     1
102
RTVSPropertyOp26
 70
     1
102
RTVSPropertyOp27
 70
     1
102
RTVSPropertyOp28
 70
     1
102
RTVSPropertyOp29
 70
     1
102
RTVSPropertyOp30
 70
     1
102
RTVSPropertyOp31
 70
     1
102
RTVSPropertyOp32
 70
     1
  0
XRECORD
  5
6B
102
{ACAD_REACTORS
330
6A
102
}
330
6A
100
AcDbXrecord
280
     1
102
RTVSPropertyOp0
 70
     1
102
RTVSPropertyOp1
 70
     1
102
RTVSPropertyOp2
 70
     1
102
RTVSPropertyOp3
 70
     1
102
RTVSPropertyOp4
 70
     1
102
RTVSPropertyOp5
 70
     1
102
RTVSPropertyOp6
 70
     1
102
RTVSPropertyOp7
 70
     1
102
RTVSPropertyOp8
 70
     1
102
RTVSPropertyOp9
 70
     1
102
RTVSPropertyOp10
 70
     1
102
RTVSPropertyOp11
 70
     1
102
RTVSPropertyOp12
 70
     1
102
RTVSPropertyOp13
 70
     1
102
RTVSPropertyOp14
 70
     1
102
RTVSPropertyOp15
 70
     1
102
RTVSPropertyOp16
 70
     1
102
RTVSPropertyOp17
 70
     1
102
RTVSPropertyOp18
 70
     1
102
RTVSPropertyOp19
 70
     1
102
RTVSPropertyOp20
 70
     1
102
RTVSPropertyOp21
 70
     1
102
RTVSPropertyOp22
 70
     1
102
RTVSPropertyOp23
 70
     1
102
RTVSPropertyOp24
 70
     1
102
RTVSPropertyOp25
 70
     1
102
RTVSPropertyOp26
 70
     1
102
RTVSPropertyOp27
 70
     1
102
RTVSPropertyOp28
 70
     1
102
RTVSPropertyOp29
 70
     1
102
RTVSPropertyOp30
 70
     1
102
RTVSPropertyOp31
 70
     1
102
RTVSPropertyOp32
 70
     1
  0
XRECORD
  5
4F
102
{ACAD_REACTORS
330
4E
102
}
330
4E
100
AcDbXrecord
280
     1
102
RTVSPropertyOp0
 70
     1
102
RTVSPropertyOp1
 70
     1
102
RTVSPropertyOp2
 70
     1
102
RTVSPropertyOp3
 70
     1
102
RTVSPropertyOp4
 70
     1
102
RTVSPropertyOp5
 70
     1
102
RTVSPropertyOp6
 70
     1
102
RTVSPropertyOp7
 70
     1
102
RTVSPropertyOp8
 70
     1
102
RTVSPropertyOp9
 70
     1
102
RTVSPropertyOp10
 70
     1
102
RTVSPropertyOp11
 70
     1
102
RTVSPropertyOp12
 70
     1
102
RTVSPropertyOp13
 70
     1
102
RTVSPropertyOp14
 70
     1
102
RTVSPropertyOp15
 70
     1
102
RTVSPropertyOp16
 70
     1
102
RTVSPropertyOp17
 70
     1
102
RTVSPropertyOp18
 70
     1
102
RTVSPropertyOp19
 70
     1
102
RTVSPropertyOp20
 70
     1
102
RTVSPropertyOp21
 70
     1
102
RTVSPropertyOp22
 70
     1
102
RTVSPropertyOp23
 70
     1
102
RTVSPropertyOp24
 70
     1
102
RTVSPropertyOp25
 70
     1
102
RTVSPropertyOp26
 70
     1
102
RTVSPropertyOp27
 70
     1
102
RTVSPropertyOp28
 70
     1
102
RTVSPropertyOp29
 70
     1
102
RTVSPropertyOp30
 70
     1
102
RTVSPropertyOp31
 70
     1
102
RTVSPropertyOp32
 70
     1
  0
XRECORD
  5
51
102
{ACAD_REACTORS
330
50
102
}
330
50
100
AcDbXrecord
280
     1
102
RTVSPropertyOp0
 70
     1
102
RTVSPropertyOp1
 70
     1
102
RTVSPropertyOp2
 70
     1
102
RTVSPropertyOp3
 70
     1
102
RTVSPropertyOp4
 70
     1
102
RTVSPropertyOp5
 70
     1
102
RTVSPropertyOp6
 70
     1
102
RTVSPropertyOp7
 70
     1
102
RTVSPropertyOp8
 70
     1
102
RTVSPropertyOp9
 70
     1
102
RTVSPropertyOp10
 70
     1
102
RTVSPropertyOp11
 70
     1
102
RTVSPropertyOp12
 70
     1
102
RTVSPropertyOp13
 70
     1
102
RTVSPropertyOp14
 70
     1
102
RTVSPropertyOp15
 70
     1
102
RTVSPropertyOp16
 70
     1
102
RTVSPropertyOp17
 70
     1
102
RTVSPropertyOp18
 70
     1
102
RTVSPropertyOp19
 70
     1
102
RTVSPropertyOp20
 70
     1
102
RTVSPropertyOp21
 70
     1
102
RTVSPropertyOp22
 70
     1
102
RTVSPropertyOp23
 70
     1
102
RTVSPropertyOp24
 70
     1
102
RTVSPropertyOp25
 70
     1
102
RTVSPropertyOp26
 70
     1
102
RTVSPropertyOp27
 70
     1
102
RTVSPropertyOp28
 70
     1
102
RTVSPropertyOp29
 70
     1
102
RTVSPropertyOp30
 70
     1
102
RTVSPropertyOp31
 70
     1
102
RTVSPropertyOp32
 70
     1
  0
XRECORD
  5
53
102
{ACAD_REACTORS
330
52
102
}
330
52
100
AcDbXrecord
280
     1
102
RTVSPropertyOp0
 70
     1
102
RTVSPropertyOp1
 70
     1
102
RTVSPropertyOp2
 70
     1
102
RTVSPropertyOp3
 70
     1
102
RTVSPropertyOp4
 70
     1
102
RTVSPropertyOp5
 70
     1
102
RTVSPropertyOp6
 70
     1
102
RTVSPropertyOp7
 70
     1
102
RTVSPropertyOp8
 70
     1
102
RTVSPropertyOp9
 70
     1
102
RTVSPropertyOp10
 70
     1
102
RTVSPropertyOp11
 70
     1
102
RTVSPropertyOp12
 70
     1
102
RTVSPropertyOp13
 70
     1
102
RTVSPropertyOp14
 70
     1
102
RTVSPropertyOp15
 70
     1
102
RTVSPropertyOp16
 70
     1
102
RTVSPropertyOp17
 70
     1
102
RTVSPropertyOp18
 70
     1
102
RTVSPropertyOp19
 70
     1
102
RTVSPropertyOp20
 70
     1
102
RTVSPropertyOp21
 70
     1
102
RTVSPropertyOp22
 70
     1
102
RTVSPropertyOp23
 70
     1
102
RTVSPropertyOp24
 70
     1
102
RTVSPropertyOp25
 70
     1
102
RTVSPropertyOp26
 70
     1
102
RTVSPropertyOp27
 70
     1
102
RTVSPropertyOp28
 70
     1
102
RTVSPropertyOp29
 70
     1
102
RTVSPropertyOp30
 70
     1
102
RTVSPropertyOp31
 70
     1
102
RTVSPropertyOp32
 70
     1
  0
XRECORD
  5
55
102
{ACAD_REACTORS
330
54
102
}
330
54
100
AcDbXrecord
280
     1
102
RTVSPropertyOp0
 70
     1
102
RTVSPropertyOp1
 70
     1
102
RTVSPropertyOp2
 70
     1
102
RTVSPropertyOp3
 70
     1
102
RTVSPropertyOp4
 70
     1
102
RTVSPropertyOp5
 70
     1
102
RTVSPropertyOp6
 70
     1
102
RTVSPropertyOp7
 70
     1
102
RTVSPropertyOp8
 70
     1
102
RTVSPropertyOp9
 70
     1
102
RTVSPropertyOp10
 70
     1
102
RTVSPropertyOp11
 70
     1
102
RTVSPropertyOp12
 70
     1
102
RTVSPropertyOp13
 70
     1
102
RTVSPropertyOp14
 70
     1
102
RTVSPropertyOp15
 70
     1
102
RTVSPropertyOp16
 70
     1
102
RTVSPropertyOp17
 70
     1
102
RTVSPropertyOp18
 70
     1
102
RTVSPropertyOp19
 70
     1
102
RTVSPropertyOp20
 70
     1
102
RTVSPropertyOp21
 70
     1
102
RTVSPropertyOp22
 70
     1
102
RTVSPropertyOp23
 70
     1
102
RTVSPropertyOp24
 70
     1
102
RTVSPropertyOp25
 70
     1
102
RTVSPropertyOp26
 70
     1
102
RTVSPropertyOp27
 70
     1
102
RTVSPropertyOp28
 70
     1
102
RTVSPropertyOp29
 70
     1
102
RTVSPropertyOp30
 70
     1
102
RTVSPropertyOp31
 70
     1
102
RTVSPropertyOp32
 70
     1
  0
XRECORD
  5
69
102
{ACAD_REACTORS
330
68
102
}
330
68
100
AcDbXrecord
280
     1
102
RTVSPropertyOp0
 70
     1
102
RTVSPropertyOp1
 70
     1
102
RTVSPropertyOp2
 70
     1
102
RTVSPropertyOp3
 70
     1
102
RTVSPropertyOp4
 70
     1
102
RTVSPropertyOp5
 70
     1
102
RTVSPropertyOp6
 70
     1
102
RTVSPropertyOp7
 70
     1
102
RTVSPropertyOp8
 70
     1
102
RTVSPropertyOp9
 70
     1
102
RTVSPropertyOp10
 70
     1
102
RTVSPropertyOp11
 70
     1
102
RTVSPropertyOp12
 70
     1
102
RTVSPropertyOp13
 70
     1
102
RTVSPropertyOp14
 70
     1
102
RTVSPropertyOp15
 70
     1
102
RTVSPropertyOp16
 70
     1
102
RTVSPropertyOp17
 70
     1
102
RTVSPropertyOp18
 70
     1
102
RTVSPropertyOp19
 70
     1
102
RTVSPropertyOp20
 70
     1
102
RTVSPropertyOp21
 70
     1
102
RTVSPropertyOp22
 70
     1
102
RTVSPropertyOp23
 70
     1
102
RTVSPropertyOp24
 70
     1
102
RTVSPropertyOp25
 70
     1
102
RTVSPropertyOp26
 70
     1
102
RTVSPropertyOp27
 70
     1
102
RTVSPropertyOp28
 70
     1
102
RTVSPropertyOp29
 70
     1
102
RTVSPropertyOp30
 70
     1
102
RTVSPropertyOp31
 70
     1
102
RTVSPropertyOp32
 70
     1
  0
XRECORD
  5
5F
102
{ACAD_REACTORS
330
5E
102
}
330
5E
100
AcDbXrecord
280
     1
102
RTVSPropertyOp0
 70
     1
102
RTVSPropertyOp1
 70
     1
102
RTVSPropertyOp2
 70
     1
102
RTVSPropertyOp3
 70
     1
102
RTVSPropertyOp4
 70
     1
102
RTVSPropertyOp5
 70
     1
102
RTVSPropertyOp6
 70
     1
102
RTVSPropertyOp7
 70
     1
102
RTVSPropertyOp8
 70
     1
102
RTVSPropertyOp9
 70
     1
102
RTVSPropertyOp10
 70
     1
102
RTVSPropertyOp11
 70
     1
102
RTVSPropertyOp12
 70
     1
102
RTVSPropertyOp13
 70
     1
102
RTVSPropertyOp14
 70
     1
102
RTVSPropertyOp15
 70
     1
102
RTVSPropertyOp16
 70
     1
102
RTVSPropertyOp17
 70
     1
102
RTVSPropertyOp18
 70
     1
102
RTVSPropertyOp19
 70
     1
102
RTVSPropertyOp20
 70
     1
102
RTVSPropertyOp21
 70
     1
102
RTVSPropertyOp22
 70
     1
102
RTVSPropertyOp23
 70
     1
102
RTVSPropertyOp24
 70
     1
102
RTVSPropertyOp25
 70
     1
102
RTVSPropertyOp26
 70
     1
102
RTVSPropertyOp27
 70
     1
102
RTVSPropertyOp28
 70
     1
102
RTVSPropertyOp29
 70
     1
102
RTVSPropertyOp30
 70
     1
102
RTVSPropertyOp31
 70
     1
102
RTVSPropertyOp32
 70
     1
  0
XRECORD
  5
67
102
{ACAD_REACTORS
330
66
102
}
330
66
100
AcDbXrecord
280
     1
102
RTVSPropertyOp0
 70
     1
102
RTVSPropertyOp1
 70
     1
102
RTVSPropertyOp2
 70
     1
102
RTVSPropertyOp3
 70
     1
102
RTVSPropertyOp4
 70
     1
102
RTVSPropertyOp5
 70
     1
102
RTVSPropertyOp6
 70
     1
102
RTVSPropertyOp7
 70
     1
102
RTVSPropertyOp8
 70
     1
102
RTVSPropertyOp9
 70
     1
102
RTVSPropertyOp10
 70
     1
102
RTVSPropertyOp11
 70
     1
102
RTVSPropertyOp12
 70
     1
102
RTVSPropertyOp13
 70
     1
102
RTVSPropertyOp14
 70
     1
102
RTVSPropertyOp15
 70
     1
102
RTVSPropertyOp16
 70
     1
102
RTVSPropertyOp17
 70
     1
102
RTVSPropertyOp18
 70
     1
102
RTVSPropertyOp19
 70
     1
102
RTVSPropertyOp20
 70
     1
102
RTVSPropertyOp21
 70
     1
102
RTVSPropertyOp22
 70
     1
102
RTVSPropertyOp23
 70
     1
102
RTVSPropertyOp24
 70
     1
102
RTVSPropertyOp25
 70
     1
102
RTVSPropertyOp26
 70
     1
102
RTVSPropertyOp27
 70
     1
102
RTVSPropertyOp28
 70
     1
102
RTVSPropertyOp29
 70
     1
102
RTVSPropertyOp30
 70
     1
102
RTVSPropertyOp31
 70
     1
102
RTVSPropertyOp32
 70
     1
  0
ENDSEC
  0
EOF
