999
DXF created by Makelangelo software v7.11.0
0
SECTION
2
HEADER
9
$ACADVER
1
AC1006
9
$INSBASE
10
-21.0
20
-29.700000000000003
30
0.0
9
$EXTMIN
10
-21.0
20
-29.700000000000003
30
0.0
9
$EXTMAX
10
21.0
20
29.700000000000003
30
0.0
0
ENDSEC
0
SECTION
2
TABLES
0
TABLE
2
LTYPE
70
1
0
LTYPE
2
CONTINUOUS
70
64
3
Solid line
72
65
73
0
40
0.000
0
ENDTAB
0
TABLE
2
LAYER
70
6
0
LAYER
2
1
70
64
62
7
6
CONTINUOUS
0
LAYER
2
2
70
64
62
7
6
CONTINUOUS
0
ENDTAB
0
TABLE
2
STYLE
70
0
0
ENDTAB
0
ENDSEC
0
SECTION
0
BLOCKS
0
ENDSEC
0
SECTION
2
ENTITIES
0
LINE
8
1
10
-136.127
20
-65.002
11
-139.863
21
-64.098
0
LINE
8
1
10
-139.863
20
-64.098
11
-141.709
21
-63.56
0
LINE
8
1
10
-141.709
20
-63.56
11
-144.411
21
-62.701
0
LINE
8
1
10
-144.411
20
-62.701
11
-147.065
21
-61.719
0
LINE
8
1
10
-147.065
20
-61.719
11
-149.668
21
-60.618
0
LINE
8
1
10
-149.668
20
-60.618
11
-152.218
21
-59.401
0
LINE
8
1
10
-152.218
20
-59.401
11
-154.71
21
-58.073
0
LINE
8
1
10
-154.71
20
-58.073
11
-157.142
21
-56.638
0
LINE
8
1
10
-117.019
20
-66.139
11
-113.201
21
-65.702
0
LINE
8
1
10
-117.019
20
-66.139
11
-120.856
21
-66.356
0
LINE
8
1
10
-120.856
20
-66.356
11
-124.697
21
-66.353
0
LINE
8
1
10
-124.697
20
-66.353
11
-128.532
21
-66.128
0
LINE
8
1
10
-128.532
20
-66.128
11
-132.346
21
-65.678
0
LINE
8
1
10
-132.346
20
-65.678
11
-136.127
21
-65.002
0
LINE
8
1
10
-91.391
20
-58.594
11
-88.058
21
-56.678
0
LINE
8
1
10
-91.391
20
-58.594
11
-94.831
21
-60.304
0
LINE
8
1
10
-94.831
20
-60.304
11
-98.366
21
-61.806
0
LINE
8
1
10
-98.366
20
-61.806
11
-101.984
21
-63.099
0
LINE
8
1
10
-101.984
20
-63.099
11
-105.671
21
-64.181
0
LINE
8
1
10
-105.671
20
-64.181
11
-109.414
21
-65.049
0
LINE
8
1
10
-109.414
20
-65.049
11
-113.201
21
-65.702
0
LINE
8
1
10
-63.973
20
-62.249
11
-61.554
21
-63.082
0
LINE
8
1
10
-63.973
20
-62.249
11
-66.358
21
-61.323
0
LINE
8
1
10
-66.358
20
-61.323
11
-68.706
21
-60.306
0
LINE
8
1
10
-68.706
20
-60.306
11
-71.014
21
-59.199
0
LINE
8
1
10
-71.014
20
-59.199
11
-73.277
21
-58.001
0
LINE
8
1
10
-73.277
20
-58.001
11
-75.492
21
-56.713
0
LINE
8
1
10
-38.887
20
-66.369
11
-36.335
21
-66.256
0
LINE
8
1
10
-38.887
20
-66.369
11
-41.441
21
-66.384
0
LINE
8
1
10
-41.441
20
-66.384
11
-43.995
21
-66.304
0
LINE
8
1
10
-43.995
20
-66.304
11
-46.545
21
-66.127
0
LINE
8
1
10
-46.545
20
-66.127
11
-49.088
21
-65.855
0
LINE
8
1
10
-49.088
20
-65.855
11
-51.619
21
-65.488
0
LINE
8
1
10
-51.619
20
-65.488
11
-54.134
21
-65.027
0
LINE
8
1
10
-54.134
20
-65.027
11
-56.631
21
-64.472
0
LINE
8
1
10
-56.631
20
-64.472
11
-59.106
21
-63.824
0
LINE
8
1
10
-59.106
20
-63.824
11
-61.554
21
-63.082
0
LINE
8
1
10
-14.119
20
-60.798
11
-11.801
21
-59.688
0
LINE
8
1
10
-14.119
20
-60.798
11
-16.477
21
-61.805
0
LINE
8
1
10
-16.477
20
-61.805
11
-18.871
21
-62.711
0
LINE
8
1
10
-18.871
20
-62.711
11
-21.298
21
-63.517
0
LINE
8
1
10
-21.298
20
-63.517
11
-23.754
21
-64.221
0
LINE
8
1
10
-23.754
20
-64.221
11
-26.234
21
-64.826
0
LINE
8
1
10
-26.234
20
-64.826
11
-28.736
21
-65.331
0
LINE
8
1
10
-28.736
20
-65.331
11
-31.256
21
-65.738
0
LINE
8
1
10
-31.256
20
-65.738
11
-33.79
21
-66.046
0
LINE
8
1
10
-33.79
20
-66.046
11
-36.335
21
-66.256
0
LINE
8
1
10
-9.526
20
-58.476
11
-7.761
21
-57.501
0
LINE
8
1
10
-9.526
20
-58.476
11
-11.801
21
-59.688
0
LINE
8
1
10
11.489
20
-59.613
11
13.527
21
-60.561
0
LINE
8
1
10
11.489
20
-59.613
11
9.483
21
-58.595
0
LINE
8
1
10
9.483
20
-58.595
11
7.512
21
-57.509
0
LINE
8
1
10
37.419
20
-66.316
11
39.662
21
-66.4
0
LINE
8
1
10
37.419
20
-66.316
11
35.18
21
-66.157
0
LINE
8
1
10
35.18
20
-66.157
11
32.948
21
-65.923
0
LINE
8
1
10
32.948
20
-65.923
11
30.723
21
-65.616
0
LINE
8
1
10
30.723
20
-65.616
11
28.51
21
-65.235
0
LINE
8
1
10
28.51
20
-65.235
11
26.31
21
-64.782
0
LINE
8
1
10
26.31
20
-64.782
11
24.126
21
-64.256
0
LINE
8
1
10
24.126
20
-64.256
11
21.96
21
-63.659
0
LINE
8
1
10
21.96
20
-63.659
11
19.815
21
-62.99
0
LINE
8
1
10
19.815
20
-62.99
11
17.693
21
-62.251
0
LINE
8
1
10
17.693
20
-62.251
11
15.596
21
-61.441
0
LINE
8
1
10
15.596
20
-61.441
11
13.527
21
-60.561
0
LINE
8
1
10
61.767
20
-63.017
11
63.892
21
-62.245
0
LINE
8
1
10
61.767
20
-63.017
11
59.619
21
-63.708
0
LINE
8
1
10
59.619
20
-63.708
11
57.451
21
-64.32
0
LINE
8
1
10
57.451
20
-64.32
11
55.265
21
-64.852
0
LINE
8
1
10
55.265
20
-64.852
11
53.063
21
-65.306
0
LINE
8
1
10
53.063
20
-65.306
11
50.848
21
-65.681
0
LINE
8
1
10
50.848
20
-65.681
11
48.623
21
-65.979
0
LINE
8
1
10
48.623
20
-65.979
11
46.389
21
-66.199
0
LINE
8
1
10
46.389
20
-66.199
11
44.149
21
-66.342
0
LINE
8
1
10
44.149
20
-66.342
11
41.906
21
-66.409
0
LINE
8
1
10
41.906
20
-66.409
11
39.662
21
-66.4
0
LINE
8
1
10
72.332
20
-58.444
11
74.347
21
-57.305
0
LINE
8
1
10
72.332
20
-58.444
11
70.278
21
-59.509
0
LINE
8
1
10
70.278
20
-59.509
11
68.185
21
-60.499
0
LINE
8
1
10
68.185
20
-60.499
11
66.056
21
-61.412
0
LINE
8
1
10
66.056
20
-61.412
11
63.892
21
-62.245
0
LINE
8
1
10
110.537
20
-65.212
11
114.663
21
-65.859
0
LINE
8
1
10
110.537
20
-65.212
11
106.457
21
-64.314
0
LINE
8
1
10
106.457
20
-64.314
11
102.437
21
-63.17
0
LINE
8
1
10
102.437
20
-63.17
11
98.492
21
-61.786
0
LINE
8
1
10
98.492
20
-61.786
11
94.637
21
-60.165
0
LINE
8
1
10
94.637
20
-60.165
11
90.888
21
-58.314
0
LINE
8
1
10
90.888
20
-58.314
11
87.259
21
-56.237
0
LINE
8
1
10
137.479
20
-64.715
11
139.511
21
-64.199
0
LINE
8
1
10
137.479
20
-64.715
11
135.434
21
-65.161
0
LINE
8
1
10
135.434
20
-65.161
11
133.377
21
-65.536
0
LINE
8
1
10
133.377
20
-65.536
11
131.311
21
-65.842
0
LINE
8
1
10
131.311
20
-65.842
11
129.237
21
-66.078
0
LINE
8
1
10
129.237
20
-66.078
11
127.157
21
-66.247
0
LINE
8
1
10
127.157
20
-66.247
11
125.073
21
-66.348
0
LINE
8
1
10
125.073
20
-66.348
11
122.987
21
-66.382
0
LINE
8
1
10
122.987
20
-66.382
11
118.818
21
-66.251
0
LINE
8
1
10
118.818
20
-66.251
11
114.663
21
-65.859
0
LINE
8
1
10
154.649
20
-58.127
11
157.1
21
-56.686
0
LINE
8
1
10
154.649
20
-58.127
11
152.135
21
-59.459
0
LINE
8
1
10
152.135
20
-59.459
11
149.563
21
-60.677
0
LINE
8
1
10
149.563
20
-60.677
11
146.936
21
-61.778
0
LINE
8
1
10
146.936
20
-61.778
11
144.256
21
-62.757
0
LINE
8
1
10
144.256
20
-62.757
11
141.527
21
-63.612
0
LINE
8
1
10
141.527
20
-63.612
11
139.511
21
-64.199
0
LINE
8
1
10
-161.812
20
-53.459
11
-164.044
21
-51.724
0
LINE
8
1
10
-164.044
20
-51.724
11
-166.202
21
-49.896
0
LINE
8
1
10
-166.202
20
-49.896
11
-168.283
21
-47.981
0
LINE
8
1
10
-159.511
20
-55.098
11
-157.142
21
-56.638
0
LINE
8
1
10
-159.511
20
-55.098
11
-161.812
21
-53.459
0
LINE
8
1
10
-132.207
20
-48.389
11
-126.054
21
-49.211
0
LINE
8
1
10
-126.054
20
-49.211
11
-119.846
21
-49.252
0
LINE
8
1
10
-119.846
20
-49.252
11
-113.691
21
-48.505
0
LINE
8
1
10
-80.842
20
-51.548
11
-76.86
21
-48.028
0
LINE
8
1
10
-80.842
20
-51.548
11
-83.646
21
-53.715
0
LINE
8
1
10
-83.646
20
-53.715
11
-86.561
21
-55.73
0
LINE
8
1
10
-86.561
20
-55.73
11
-88.058
21
-56.678
0
LINE
8
1
10
-77.655
20
-55.336
11
-75.492
21
-56.713
0
LINE
8
1
10
-77.655
20
-55.336
11
-79.763
21
-53.87
0
LINE
8
1
10
-79.763
20
-53.87
11
-67.686
21
-41.786
0
LINE
8
1
10
-50.328
20
-48.366
11
-45.728
21
-49.056
0
LINE
8
1
10
-45.728
20
-49.056
11
-42.64
21
-49.284
0
LINE
8
1
10
-42.64
20
-49.284
11
-39.547
21
-49.317
0
LINE
8
1
10
-39.547
20
-49.317
11
-36.46
21
-49.152
0
LINE
8
1
10
-36.46
20
-49.152
11
-33.389
21
-48.781
0
LINE
8
1
10
-33.389
20
-48.781
11
-30.345
21
-48.199
0
LINE
8
1
10
2.086
20
-50.534
11
5.059
21
-47.822
0
LINE
8
1
10
2.086
20
-50.534
11
-1.048
21
-53.059
0
LINE
8
1
10
-1.048
20
-53.059
11
-4.333
21
-55.386
0
LINE
8
1
10
-4.333
20
-55.386
11
-7.761
21
-57.501
0
LINE
8
1
10
5.578
20
-56.355
11
7.512
21
-57.509
0
LINE
8
1
10
5.578
20
-56.355
11
3.685
21
-55.135
0
LINE
8
1
10
3.685
20
-55.135
11
1.834
21
-53.847
0
LINE
8
1
10
1.834
20
-53.847
11
14.381
21
-41.977
0
LINE
8
1
10
14.381
20
-41.977
11
35.344
21
-49.051
0
LINE
8
1
10
35.344
20
-49.051
11
37.009
21
-49.153
0
LINE
8
1
10
37.009
20
-49.153
11
39.241
21
-49.31
0
LINE
8
1
10
39.241
20
-49.31
11
41.469
21
-49.353
0
LINE
8
1
10
41.469
20
-49.353
11
43.691
21
-49.284
0
LINE
8
1
10
43.691
20
-49.284
11
45.902
21
-49.105
0
LINE
8
1
10
45.902
20
-49.105
11
48.099
21
-48.82
0
LINE
8
1
10
48.099
20
-48.82
11
50.278
21
-48.429
0
LINE
8
1
10
83.767
20
-53.939
11
87.259
21
-56.237
0
LINE
8
1
10
83.767
20
-53.939
11
95.799
21
-41.63
0
LINE
8
1
10
87.165
20
-47.458
11
85.484
21
-49.051
0
LINE
8
1
10
85.484
20
-49.051
11
83.75
21
-50.585
0
LINE
8
1
10
83.75
20
-50.585
11
81.965
21
-52.059
0
LINE
8
1
10
81.965
20
-52.059
11
80.13
21
-53.47
0
LINE
8
1
10
80.13
20
-53.47
11
78.247
21
-54.816
0
LINE
8
1
10
78.247
20
-54.816
11
76.319
21
-56.095
0
LINE
8
1
10
76.319
20
-56.095
11
74.347
21
-57.305
0
LINE
8
1
10
111.382
20
-47.985
11
115.906
21
-48.833
0
LINE
8
1
10
115.906
20
-48.833
11
120.48
21
-49.271
0
LINE
8
1
10
120.48
20
-49.271
11
123.54
21
-49.327
0
LINE
8
1
10
123.54
20
-49.327
11
126.596
21
-49.19
0
LINE
8
1
10
126.596
20
-49.19
11
129.638
21
-48.853
0
LINE
8
1
10
129.638
20
-48.853
11
132.655
21
-48.313
0
LINE
8
1
10
161.804
20
-53.492
11
164.05
21
-51.747
0
LINE
8
1
10
161.804
20
-53.492
11
159.486
21
-55.14
0
LINE
8
1
10
159.486
20
-55.14
11
157.1
21
-56.686
0
LINE
8
1
10
166.222
20
-49.908
11
168.315
21
-47.979
0
LINE
8
1
10
166.222
20
-49.908
11
164.05
21
-51.747
0
LINE
8
1
10
-168.283
20
-47.981
11
-170.284
21
-45.981
0
LINE
8
1
10
-170.284
20
-45.981
11
-172.202
21
-43.9
0
LINE
8
1
10
-172.202
20
-43.9
11
-174.034
21
-41.743
0
LINE
8
1
10
-174.034
20
-41.743
11
-175.776
21
-39.513
0
LINE
8
1
10
-152.975
20
-38.843
11
-150.234
21
-40.849
0
LINE
8
1
10
-150.234
20
-40.849
11
-147.356
21
-42.655
0
LINE
8
1
10
-147.356
20
-42.655
11
-144.351
21
-44.246
0
LINE
8
1
10
-144.351
20
-44.246
11
-142.804
21
-44.958
0
LINE
8
1
10
-142.804
20
-44.958
11
-138.198
21
-46.791
0
LINE
8
1
10
-138.198
20
-46.791
11
-132.207
21
-48.389
0
LINE
8
1
10
-113.691
20
-48.505
11
-107.693
21
-46.968
0
LINE
8
1
10
-107.693
20
-46.968
11
-104.408
21
-45.792
0
LINE
8
1
10
-104.408
20
-45.792
11
-101.224
21
-44.379
0
LINE
8
1
10
-101.224
20
-44.379
11
-98.153
21
-42.74
0
LINE
8
1
10
-98.153
20
-42.74
11
-95.207
21
-40.887
0
LINE
8
1
10
-95.207
20
-40.887
11
-92.396
21
-38.832
0
LINE
8
1
10
-69.781
20
-40.109
11
-66.73
21
-35.76
0
LINE
8
1
10
-69.781
20
-40.109
11
-73.165
21
-44.207
0
LINE
8
1
10
-73.165
20
-44.207
11
-76.86
21
-48.028
0
LINE
8
1
10
-67.686
20
-41.786
11
-63.573
21
-43.963
0
LINE
8
1
10
-63.573
20
-43.963
11
-59.286
21
-45.799
0
LINE
8
1
10
-59.286
20
-45.799
11
-54.859
21
-47.273
0
LINE
8
1
10
-54.859
20
-47.273
11
-50.328
21
-48.366
0
LINE
8
1
10
-30.345
20
-48.199
11
-27.338
21
-47.399
0
LINE
8
1
10
-27.338
20
-47.399
11
-24.379
21
-46.377
0
LINE
8
1
10
-24.379
20
-46.377
11
-21.252
21
-45.167
0
LINE
8
1
10
-21.252
20
-45.167
11
-18.227
21
-43.734
0
LINE
8
1
10
-18.227
20
-43.734
11
-15.316
21
-42.092
0
LINE
8
1
10
-15.316
20
-42.092
11
-12.526
21
-40.251
0
LINE
8
1
10
10.493
20
-41.884
11
12.936
21
-38.682
0
LINE
8
1
10
10.493
20
-41.884
11
7.864
21
-44.934
0
LINE
8
1
10
7.864
20
-44.934
11
5.059
21
-47.822
0
LINE
8
1
10
-9.867
20
-38.223
11
-12.526
21
-40.251
0
LINE
8
1
10
50.278
20
-48.429
11
52.437
21
-47.937
0
LINE
8
1
10
52.437
20
-47.937
11
54.57
21
-47.346
0
LINE
8
1
10
54.57
20
-47.346
11
56.675
21
-46.658
0
LINE
8
1
10
56.675
20
-46.658
11
58.748
21
-45.875
0
LINE
8
1
10
58.748
20
-45.875
11
60.785
21
-45.001
0
LINE
8
1
10
60.785
20
-45.001
11
62.784
21
-44.038
0
LINE
8
1
10
62.784
20
-44.038
11
64.739
21
-42.989
0
LINE
8
1
10
87.165
20
-47.458
11
88.792
21
-45.809
0
LINE
8
1
10
66.648
20
-41.855
11
64.739
21
-42.989
0
LINE
8
1
10
66.648
20
-41.855
11
68.508
21
-40.641
0
LINE
8
1
10
68.508
20
-40.641
11
70.314
21
-39.347
0
LINE
8
1
10
95.799
20
-41.63
11
98.468
21
-43.143
0
LINE
8
1
10
98.468
20
-43.143
11
102.628
21
-45.123
0
LINE
8
1
10
102.628
20
-45.123
11
106.945
21
-46.743
0
LINE
8
1
10
106.945
20
-46.743
11
111.382
21
-47.985
0
LINE
8
1
10
94.709
20
-38.689
11
93.321
21
-40.543
0
LINE
8
1
10
93.321
20
-40.543
11
91.871
21
-42.349
0
LINE
8
1
10
91.871
20
-42.349
11
90.361
21
-44.105
0
LINE
8
1
10
90.361
20
-44.105
11
88.792
21
-45.809
0
LINE
8
1
10
132.655
20
-48.313
11
135.638
21
-47.563
0
LINE
8
1
10
135.638
20
-47.563
11
138.574
21
-46.601
0
LINE
8
1
10
138.574
20
-46.601
11
140.319
21
-45.971
0
LINE
8
1
10
140.319
20
-45.971
11
142.035
21
-45.271
0
LINE
8
1
10
142.035
20
-45.271
11
143.721
21
-44.505
0
LINE
8
1
10
143.721
20
-44.505
11
145.374
21
-43.674
0
LINE
8
1
10
145.374
20
-43.674
11
146.995
21
-42.779
0
LINE
8
1
10
146.995
20
-42.779
11
148.579
21
-41.823
0
LINE
8
1
10
148.579
20
-41.823
11
150.127
21
-40.809
0
LINE
8
1
10
150.127
20
-40.809
11
151.636
21
-39.736
0
LINE
8
1
10
174.096
20
-41.696
11
175.845
21
-39.449
0
LINE
8
1
10
174.096
20
-41.696
11
172.256
21
-43.869
0
LINE
8
1
10
172.256
20
-43.869
11
170.328
21
-45.965
0
LINE
8
1
10
170.328
20
-45.965
11
168.315
21
-47.979
0
LINE
8
1
10
-175.776
20
-39.513
11
-177.425
21
-37.215
0
LINE
8
1
10
-177.425
20
-37.215
11
-178.977
21
-34.851
0
LINE
8
1
10
-178.977
20
-34.851
11
-180.431
21
-32.426
0
LINE
8
1
10
-180.431
20
-32.426
11
-181.781
21
-29.944
0
LINE
8
1
10
-162.384
20
-29.073
11
-160.285
21
-31.751
0
LINE
8
1
10
-160.285
20
-31.751
11
-158.01
21
-34.281
0
LINE
8
1
10
-158.01
20
-34.281
11
-155.57
21
-36.649
0
LINE
8
1
10
-155.57
20
-36.649
11
-152.975
21
-38.843
0
LINE
8
1
10
-92.396
20
-38.832
11
-89.731
21
-36.589
0
LINE
8
1
10
-89.731
20
-36.589
11
-87.225
21
-34.169
0
LINE
8
1
10
-95.302
20
-38.061
11
-83.317
21
-25.426
0
LINE
8
1
10
-97.343
20
-34.937
11
-95.302
21
-38.061
0
LINE
8
1
10
-97.343
20
-34.937
11
-99.202
21
-31.705
0
LINE
8
1
10
-99.202
20
-31.705
11
-100.874
21
-28.374
0
LINE
8
1
10
-87.225
20
-34.169
11
-84.887
21
-31.585
0
LINE
8
1
10
-84.887
20
-31.585
11
-82.73
21
-28.849
0
LINE
8
1
10
-64.893
20
-32.733
11
-63.221
21
-29.612
0
LINE
8
1
10
-64.893
20
-32.733
11
-66.73
21
-35.76
0
LINE
8
1
10
-13.619
20
-37.966
11
-1.606
21
-25.23
0
LINE
8
1
10
-15.675
20
-34.747
11
-13.619
21
-37.966
0
LINE
8
1
10
-15.675
20
-34.747
11
-17.546
21
-31.418
0
LINE
8
1
10
-17.546
20
-31.418
11
-19.23
21
-27.989
0
LINE
8
1
10
-9.867
20
-38.223
11
-7.35
21
-36.021
0
LINE
8
1
10
-7.35
20
-36.021
11
-4.982
21
-33.655
0
LINE
8
1
10
-4.982
20
-33.655
11
-2.774
21
-31.139
0
LINE
8
1
10
-2.774
20
-31.139
11
-0.735
21
-28.483
0
LINE
8
1
10
17.234
20
-31.874
11
19.071
21
-28.291
0
LINE
8
1
10
17.234
20
-31.874
11
15.186
21
-35.342
0
LINE
8
1
10
15.186
20
-35.342
11
12.936
21
-38.682
0
LINE
8
1
10
68.205
20
-38.049
11
80.217
21
-25.513
0
LINE
8
1
10
66.692
20
-35.816
11
68.205
21
-38.049
0
LINE
8
1
10
66.692
20
-35.816
11
65.282
21
-33.523
0
LINE
8
1
10
65.282
20
-33.523
11
63.975
21
-31.175
0
LINE
8
1
10
63.975
20
-31.175
11
62.769
21
-28.775
0
LINE
8
1
10
70.314
20
-39.347
11
72.062
21
-37.977
0
LINE
8
1
10
72.062
20
-37.977
11
73.75
21
-36.534
0
LINE
8
1
10
73.75
20
-36.534
11
75.374
21
-35.02
0
LINE
8
1
10
75.374
20
-35.02
11
76.93
21
-33.437
0
LINE
8
1
10
76.93
20
-33.437
11
78.414
21
-31.788
0
LINE
8
1
10
78.414
20
-31.788
11
79.823
21
-30.076
0
LINE
8
1
10
98.479
20
-32.86
11
99.599
21
-30.835
0
LINE
8
1
10
98.479
20
-32.86
11
97.29
21
-34.845
0
LINE
8
1
10
97.29
20
-34.845
11
96.033
21
-36.789
0
LINE
8
1
10
96.033
20
-36.789
11
94.709
21
-38.689
0
LINE
8
1
10
151.636
20
-39.736
11
153.104
21
-38.609
0
LINE
8
1
10
153.104
20
-38.609
11
154.53
21
-37.427
0
LINE
8
1
10
154.53
20
-37.427
11
155.912
21
-36.195
0
LINE
8
1
10
155.912
20
-36.195
11
157.249
21
-34.912
0
LINE
8
1
10
157.249
20
-34.912
11
158.538
21
-33.582
0
LINE
8
1
10
158.538
20
-33.582
11
159.778
21
-32.206
0
LINE
8
1
10
159.778
20
-32.206
11
160.968
21
-30.785
0
LINE
8
1
10
180.516
20
-32.305
11
181.87
21
-29.802
0
LINE
8
1
10
180.516
20
-32.305
11
179.059
21
-34.749
0
LINE
8
1
10
179.059
20
-34.749
11
177.501
21
-37.132
0
LINE
8
1
10
177.501
20
-37.132
11
175.845
21
-39.449
0
LINE
8
1
10
-166.021
20
-23.326
11
-167.538
21
-20.283
0
LINE
8
1
10
-166.021
20
-23.326
11
-164.299
21
-26.261
0
LINE
8
1
10
-164.299
20
-26.261
11
-162.384
21
-29.073
0
LINE
8
1
10
-181.781
20
-29.944
11
-183.026
21
-27.408
0
LINE
8
1
10
-183.026
20
-27.408
11
-184.161
21
-24.823
0
LINE
8
1
10
-184.161
20
-24.823
11
-185.183
21
-22.192
0
LINE
8
1
10
-185.183
20
-22.192
11
-186.09
21
-19.519
0
LINE
8
1
10
-102.358
20
-24.956
11
-100.874
21
-28.374
0
LINE
8
1
10
-102.358
20
-24.956
11
-103.651
21
-21.462
0
LINE
8
1
10
-82.73
20
-28.849
11
-80.765
21
-25.973
0
LINE
8
1
10
-80.765
20
-25.973
11
-79.002
21
-22.97
0
LINE
8
1
10
-79.002
20
-22.97
11
-77.454
21
-19.852
0
LINE
8
1
10
-61.721
20
-26.404
11
-63.221
21
-29.612
0
LINE
8
1
10
-84.639
20
-22.974
11
-86.874
21
-17.874
0
LINE
8
1
10
-84.639
20
-22.974
11
-83.317
21
-25.426
0
LINE
8
1
10
-60.4
20
-23.118
11
-59.264
21
-19.76
0
LINE
8
1
10
-60.4
20
-23.118
11
-61.721
21
-26.404
0
LINE
8
1
10
-20.721
20
-24.473
11
-19.23
21
-27.989
0
LINE
8
1
10
-20.721
20
-24.473
11
-22.016
21
-20.879
0
LINE
8
1
10
-3.966
20
-20.636
11
-2.449
21
-23.726
0
LINE
8
1
10
-2.449
20
-23.726
11
-1.606
21
-25.23
0
LINE
8
1
10
1.125
20
-25.699
11
-0.735
21
-28.483
0
LINE
8
1
10
1.125
20
-25.699
11
2.798
21
-22.8
0
LINE
8
1
10
2.798
20
-22.8
11
4.273
21
-19.797
0
LINE
8
1
10
20.69
20
-24.605
11
22.082
21
-20.827
0
LINE
8
1
10
20.69
20
-24.605
11
19.071
21
-28.291
0
LINE
8
1
10
61.667
20
-26.328
11
62.769
21
-28.775
0
LINE
8
1
10
61.667
20
-26.328
11
60.668
21
-23.838
0
LINE
8
1
10
60.668
20
-23.838
11
59.771
21
-21.31
0
LINE
8
1
10
77.436
20
-19.962
11
78.739
21
-22.78
0
LINE
8
1
10
78.739
20
-22.78
11
80.217
21
-25.513
0
LINE
8
1
10
81.154
20
-28.303
11
79.823
21
-30.076
0
LINE
8
1
10
81.154
20
-28.303
11
82.402
21
-26.472
0
LINE
8
1
10
82.402
20
-26.472
11
83.565
21
-24.586
0
LINE
8
1
10
83.565
20
-24.586
11
84.638
21
-22.646
0
LINE
8
1
10
84.638
20
-22.646
11
85.619
21
-20.656
0
LINE
8
1
10
103.344
20
-22.38
11
104.087
21
-20.189
0
LINE
8
1
10
103.344
20
-22.38
11
102.521
21
-24.543
0
LINE
8
1
10
102.521
20
-24.543
11
101.622
21
-26.674
0
LINE
8
1
10
101.622
20
-26.674
11
100.647
21
-28.772
0
LINE
8
1
10
100.647
20
-28.772
11
99.599
21
-30.835
0
LINE
8
1
10
160.968
20
-30.785
11
162.105
21
-29.323
0
LINE
8
1
10
162.105
20
-29.323
11
163.187
21
-27.821
0
LINE
8
1
10
163.187
20
-27.821
11
164.214
21
-26.281
0
LINE
8
1
10
184.254
20
-24.64
11
185.278
21
-21.988
0
LINE
8
1
10
184.254
20
-24.64
11
183.117
21
-27.246
0
LINE
8
1
10
183.117
20
-27.246
11
181.87
21
-29.802
0
LINE
8
1
10
165.184
20
-24.704
11
164.214
21
-26.281
0
LINE
8
1
10
165.184
20
-24.704
11
166.094
21
-23.093
0
LINE
8
1
10
166.094
20
-23.093
11
166.943
21
-21.45
0
LINE
8
1
10
-169.925
20
-13.923
11
-170.775
21
-10.633
0
LINE
8
1
10
-169.925
20
-13.923
11
-168.843
21
-17.144
0
LINE
8
1
10
-168.843
20
-17.144
11
-167.538
21
-20.283
0
LINE
8
1
10
-186.09
20
-19.519
11
-186.878
21
-16.809
0
LINE
8
1
10
-186.878
20
-16.809
11
-187.543
21
-14.064
0
LINE
8
1
10
-187.543
20
-14.064
11
-188.083
21
-11.29
0
LINE
8
1
10
-104.749
20
-17.902
11
-103.651
21
-21.462
0
LINE
8
1
10
-104.749
20
-17.902
11
-105.651
21
-14.289
0
LINE
8
1
10
-105.651
20
-14.289
11
-106.353
21
-10.631
0
LINE
8
1
10
-77.454
20
-19.852
11
-76.131
21
-16.631
0
LINE
8
1
10
-76.131
20
-16.631
11
-75.045
21
-13.319
0
LINE
8
1
10
-75.045
20
-13.319
11
-74.594
21
-11.633
0
LINE
8
1
10
-86.874
20
-17.874
11
-88.546
21
-12.566
0
LINE
8
1
10
-57.855
20
-14.445
11
-57.102
21
-10.625
0
LINE
8
1
10
-57.855
20
-14.445
11
-58.321
21
-16.338
0
LINE
8
1
10
-58.321
20
-16.338
11
-59.264
21
-19.76
0
LINE
8
1
10
-23.11
20
-17.221
11
-22.016
21
-20.879
0
LINE
8
1
10
-23.11
20
-17.221
11
-23.999
21
-13.509
0
LINE
8
1
10
-23.999
20
-13.509
11
-24.678
21
-9.755
0
LINE
8
1
10
-7.167
20
-10.856
11
-6.326
21
-14.185
0
LINE
8
1
10
-6.326
20
-14.185
11
-5.259
21
-17.451
0
LINE
8
1
10
-5.259
20
-17.451
11
-3.966
21
-20.636
0
LINE
8
1
10
4.273
20
-19.797
11
5.541
21
-16.701
0
LINE
8
1
10
5.541
20
-16.701
11
6.593
21
-13.526
0
LINE
8
1
10
6.593
20
-13.526
11
7.035
21
-11.912
0
LINE
8
1
10
23.238
20
-16.971
11
24.15
21
-13.047
0
LINE
8
1
10
23.238
20
-16.971
11
22.082
21
-20.827
0
LINE
8
1
10
58.978
20
-18.747
11
59.771
21
-21.31
0
LINE
8
1
10
58.978
20
-18.747
11
58.289
21
-16.155
0
LINE
8
1
10
58.289
20
-16.155
11
57.704
21
-13.536
0
LINE
8
1
10
57.704
20
-13.536
11
57.222
21
-10.897
0
LINE
8
1
10
74.594
20
-11.108
11
75.361
21
-14.114
0
LINE
8
1
10
75.361
20
-14.114
11
76.31
21
-17.069
0
LINE
8
1
10
76.31
20
-17.069
11
77.436
21
-19.962
0
LINE
8
1
10
85.619
20
-20.656
11
86.502
21
-18.617
0
LINE
8
1
10
86.502
20
-18.617
11
87.286
21
-16.534
0
LINE
8
1
10
87.286
20
-16.534
11
88.244
21
-13.719
0
LINE
8
1
10
105.824
20
-13.461
11
106.177
21
-11.648
0
LINE
8
1
10
105.824
20
-13.461
11
105.329
21
-15.727
0
LINE
8
1
10
105.329
20
-15.727
11
104.749
21
-17.97
0
LINE
8
1
10
104.749
20
-17.97
11
104.087
21
-20.189
0
LINE
8
1
10
88.244
20
-13.719
11
89.002
21
-10.86
0
LINE
8
1
10
187.637
20
-13.795
11
188.175
21
-10.999
0
LINE
8
1
10
187.637
20
-13.795
11
186.972
21
-16.561
0
LINE
8
1
10
186.972
20
-16.561
11
186.185
21
-19.293
0
LINE
8
1
10
186.185
20
-19.293
11
185.278
21
-21.988
0
LINE
8
1
10
167.729
20
-19.776
11
166.943
21
-21.45
0
LINE
8
1
10
167.729
20
-19.776
11
168.451
21
-18.073
0
LINE
8
1
10
168.451
20
-18.073
11
169.107
21
-16.344
0
LINE
8
1
10
169.107
20
-16.344
11
169.695
21
-14.59
0
LINE
8
1
10
169.695
20
-14.59
11
170.214
21
-12.813
0
LINE
8
1
10
-171.684
20
-5.007
11
-171.873
21
1.86
0
LINE
8
1
10
-171.684
20
-5.007
11
-171.383
21
-7.286
0
LINE
8
1
10
-171.383
20
-7.286
11
-170.775
21
-10.633
0
LINE
8
1
10
-188.083
20
-11.29
11
-188.494
21
-8.488
0
LINE
8
1
10
-188.494
20
-8.488
11
-188.773
21
-5.665
0
LINE
8
1
10
-188.773
20
-5.665
11
-188.917
21
-2.823
0
LINE
8
1
10
-90.056
20
-2.966
11
-89.635
21
-7.112
0
LINE
8
1
10
-89.635
20
-7.112
11
-88.546
21
-12.566
0
LINE
8
1
10
-106.353
20
-10.631
11
-106.852
21
-6.941
0
LINE
8
1
10
-106.852
20
-6.941
11
-107.147
21
-3.229
0
LINE
8
1
10
-73.737
20
-6.492
11
-74.594
21
-11.633
0
LINE
8
1
10
-73.737
20
-6.492
11
-73.407
21
-0.012
0
LINE
8
1
10
-56.31
20
-2.892
11
-56.589
21
-6.769
0
LINE
8
1
10
-56.589
20
-6.769
11
-57.102
21
-10.625
0
LINE
8
1
10
-25.144
20
-5.97
11
-24.678
21
-9.755
0
LINE
8
1
10
-25.144
20
-5.97
11
-25.391
21
-2.166
0
LINE
8
1
10
-8.168
20
-4.065
11
-7.782
21
-7.477
0
LINE
8
1
10
-7.782
20
-7.477
11
-7.167
21
-10.856
0
LINE
8
1
10
7.035
20
-11.912
11
7.949
21
-6.676
0
LINE
8
1
10
7.949
20
-6.676
11
8.33
21
-1.368
0
LINE
8
1
10
25.377
20
-3.895
11
25.052
21
-7.57
0
LINE
8
1
10
25.052
20
-7.57
11
24.507
21
-11.228
0
LINE
8
1
10
24.507
20
-11.228
11
24.15
21
-13.047
0
LINE
8
1
10
56.845
20
-8.24
11
57.222
21
-10.897
0
LINE
8
1
10
56.845
20
-8.24
11
56.571
21
-5.57
0
LINE
8
1
10
56.571
20
-5.57
11
56.403
21
-2.892
0
LINE
8
1
10
73.478
20
-3.441
11
73.785
21
-6.526
0
LINE
8
1
10
73.785
20
-6.526
11
74.594
21
-11.108
0
LINE
8
1
10
106.723
20
-7.999
11
107.057
21
-4.327
0
LINE
8
1
10
106.723
20
-7.999
11
106.177
21
-11.648
0
LINE
8
1
10
89.563
20
-7.966
11
89.002
21
-10.86
0
LINE
8
1
10
89.563
20
-7.966
11
89.934
21
-5.046
0
LINE
8
1
10
89.934
20
-5.046
11
90.141
21
-0.639
0
LINE
8
1
10
188.86
20
-5.332
11
189.0
21
-2.469
0
LINE
8
1
10
188.86
20
-5.332
11
188.584
21
-8.176
0
LINE
8
1
10
188.584
20
-8.176
11
188.175
21
-10.999
0
LINE
8
1
10
170.662
20
-11.015
11
170.214
21
-12.813
0
LINE
8
1
10
170.662
20
-11.015
11
171.036
21
-9.198
0
LINE
8
1
10
171.036
20
-9.198
11
171.336
21
-7.365
0
LINE
8
1
10
171.336
20
-7.365
11
171.566
21
4.268
0
LINE
8
1
10
-171.057
20
8.684
11
-171.873
21
1.86
0
LINE
8
1
10
-188.998
20
-0.63
11
-188.917
21
-2.823
0
LINE
8
1
10
-188.998
20
-0.63
11
-189.0
21
1.561
0
LINE
8
1
10
-189.0
20
1.561
11
-188.924
21
3.748
0
LINE
8
1
10
-188.924
20
3.748
11
-188.771
21
5.929
0
LINE
8
1
10
-90.129
20
1.2
11
-89.844
21
5.357
0
LINE
8
1
10
-90.129
20
1.2
11
-90.056
21
-2.966
0
LINE
8
1
10
-107.147
20
-3.229
11
-107.233
21
0.493
0
LINE
8
1
10
-107.233
20
0.493
11
-107.108
21
4.216
0
LINE
8
1
10
-107.108
20
4.216
11
-106.769
21
7.928
0
LINE
8
1
10
-73.882
20
6.448
11
-73.407
21
-0.012
0
LINE
8
1
10
-56.265
20
0.994
11
-56.449
21
4.876
0
LINE
8
1
10
-56.265
20
0.994
11
-56.31
21
-2.892
0
LINE
8
1
10
-25.391
20
-2.166
11
-25.416
21
1.646
0
LINE
8
1
10
-25.416
20
1.646
11
-25.215
21
5.454
0
LINE
8
1
10
-8.254
20
2.797
11
-7.952
21
6.216
0
LINE
8
1
10
-8.254
20
2.797
11
-8.326
21
-0.635
0
LINE
8
1
10
-8.326
20
-0.635
11
-8.168
21
-4.065
0
LINE
8
1
10
8.33
20
-1.368
11
8.171
21
3.951
0
LINE
8
1
10
8.171
20
3.951
11
7.465
21
9.222
0
LINE
8
1
10
25.067
20
7.138
11
25.38
21
3.469
0
LINE
8
1
10
25.38
20
3.469
11
25.485
21
-0.212
0
LINE
8
1
10
25.485
20
-0.212
11
25.377
21
-3.895
0
LINE
8
1
10
56.403
20
-2.892
11
56.339
21
-0.21
0
LINE
8
1
10
56.339
20
-0.21
11
56.38
21
2.473
0
LINE
8
1
10
56.38
20
2.473
11
56.527
21
5.151
0
LINE
8
1
10
73.427
20
2.755
11
73.688
21
5.842
0
LINE
8
1
10
73.427
20
2.755
11
73.357
21
-0.343
0
LINE
8
1
10
73.357
20
-0.343
11
73.478
21
-3.441
0
LINE
8
1
10
107.102
20
3.04
11
106.818
21
6.714
0
LINE
8
1
10
107.102
20
3.04
11
107.182
21
-0.644
0
LINE
8
1
10
107.182
20
-0.644
11
107.057
21
-4.327
0
LINE
8
1
10
90.141
20
-0.639
11
89.944
21
3.772
0
LINE
8
1
10
89.944
20
3.772
11
89.358
21
8.157
0
LINE
8
1
10
188.75
20
6.371
11
189.0
21
2.508
0
LINE
8
1
10
189.0
20
2.508
11
189.0
21
-2.469
0
LINE
8
1
10
171.566
20
4.268
11
168.406
21
18.194
0
LINE
8
1
10
-168.953
20
16.435
11
-171.057
21
8.684
0
LINE
8
1
10
-188.541
20
8.102
11
-188.771
21
5.929
0
LINE
8
1
10
-188.541
20
8.102
11
-188.237
21
10.264
0
LINE
8
1
10
-188.237
20
10.264
11
-187.86
21
12.413
0
LINE
8
1
10
-187.86
20
12.413
11
-187.409
21
14.548
0
LINE
8
1
10
-89.194
20
9.48
11
-88.169
21
13.54
0
LINE
8
1
10
-89.194
20
9.48
11
-89.844
21
5.357
0
LINE
8
1
10
-106.769
20
7.928
11
-106.214
21
11.617
0
LINE
8
1
10
-106.214
20
11.617
11
-105.854
21
13.451
0
LINE
8
1
10
-75.143
20
12.801
11
-73.882
21
6.448
0
LINE
8
1
10
-75.143
20
12.801
11
-77.17
21
18.964
0
LINE
8
1
10
-58.353
20
16.37
11
-57.496
21
12.577
0
LINE
8
1
10
-57.496
20
12.577
11
-56.86
21
8.742
0
LINE
8
1
10
-56.86
20
8.742
11
-56.449
21
4.876
0
LINE
8
1
10
-25.215
20
5.454
11
-24.782
21
9.247
0
LINE
8
1
10
-24.782
20
9.247
11
-24.115
21
13.014
0
LINE
8
1
10
-24.115
20
13.014
11
-23.691
21
14.884
0
LINE
8
1
10
-6.652
20
12.952
11
-5.654
21
16.238
0
LINE
8
1
10
-6.652
20
12.952
11
-7.418
21
9.606
0
LINE
8
1
10
-7.418
20
9.606
11
-7.952
21
6.216
0
LINE
8
1
10
7.465
20
9.222
11
6.206
21
14.383
0
LINE
8
1
10
23.834
20
14.397
11
24.55
21
10.784
0
LINE
8
1
10
24.55
20
10.784
11
25.067
21
7.138
0
LINE
8
1
10
56.527
20
5.151
11
56.778
21
7.821
0
LINE
8
1
10
56.778
20
7.821
11
57.135
21
10.479
0
LINE
8
1
10
57.135
20
10.479
11
57.598
21
13.119
0
LINE
8
1
10
57.598
20
13.119
11
58.167
21
15.738
0
LINE
8
1
10
74.793
20
11.939
11
75.641
21
14.927
0
LINE
8
1
10
74.793
20
11.939
11
74.143
21
8.907
0
LINE
8
1
10
74.143
20
8.907
11
73.688
21
5.842
0
LINE
8
1
10
106.333
20
10.368
11
105.65
21
13.99
0
LINE
8
1
10
106.333
20
10.368
11
106.818
21
6.714
0
LINE
8
1
10
89.358
20
8.157
11
88.399
21
12.482
0
LINE
8
1
10
88.399
20
12.482
11
87.083
21
16.715
0
LINE
8
1
10
187.55
20
14.001
11
188.264
21
10.206
0
LINE
8
1
10
188.264
20
10.206
11
188.75
21
6.371
0
LINE
8
1
10
-165.203
20
24.794
11
-168.953
21
16.435
0
LINE
8
1
10
-186.887
20
16.666
11
-187.409
21
14.548
0
LINE
8
1
10
-186.887
20
16.666
11
-186.295
21
18.766
0
LINE
8
1
10
-186.295
20
18.766
11
-185.633
21
20.845
0
LINE
8
1
10
-185.633
20
20.845
11
-184.903
21
22.901
0
LINE
8
1
10
-105.854
20
13.451
11
-105.409
21
15.501
0
LINE
8
1
10
-105.409
20
15.501
11
-104.894
21
17.532
0
LINE
8
1
10
-104.894
20
17.532
11
-104.311
21
19.543
0
LINE
8
1
10
-104.311
20
19.543
11
-103.662
21
21.533
0
LINE
8
1
10
-103.662
20
21.533
11
-102.947
21
23.499
0
LINE
8
1
10
-79.944
20
24.85
11
-77.17
21
18.964
0
LINE
8
1
10
-84.61
20
22.692
11
-85.477
21
20.93
0
LINE
8
1
10
-85.477
20
20.93
11
-86.269
21
19.132
0
LINE
8
1
10
-86.269
20
19.132
11
-86.983
21
17.3
0
LINE
8
1
10
-86.983
20
17.3
11
-87.617
21
15.435
0
LINE
8
1
10
-87.617
20
15.435
11
-88.169
21
13.54
0
LINE
8
1
10
-60.72
20
23.774
11
-59.429
21
20.106
0
LINE
8
1
10
-59.429
20
20.106
11
-58.353
21
16.37
0
LINE
8
1
10
-23.691
20
14.884
11
-23.188
21
16.969
0
LINE
8
1
10
-23.188
20
16.969
11
-22.613
21
19.033
0
LINE
8
1
10
-22.613
20
19.033
11
-21.97
21
21.075
0
LINE
8
1
10
-21.97
20
21.075
11
-21.258
21
23.094
0
LINE
8
1
10
-4.421
20
19.449
11
-2.953
21
22.569
0
LINE
8
1
10
-4.421
20
19.449
11
-5.654
21
16.238
0
LINE
8
1
10
4.386
20
19.372
11
6.206
21
14.383
0
LINE
8
1
10
4.386
20
19.372
11
2.65
21
22.965
0
LINE
8
1
10
20.528
20
24.943
11
21.818
21
21.487
0
LINE
8
1
10
21.818
20
21.487
11
22.922
21
17.968
0
LINE
8
1
10
22.922
20
17.968
11
23.834
21
14.397
0
LINE
8
1
10
58.167
20
15.738
11
58.842
21
18.331
0
LINE
8
1
10
58.842
20
18.331
11
59.623
21
20.895
0
LINE
8
1
10
59.623
20
20.895
11
60.511
21
23.424
0
LINE
8
1
10
77.605
20
20.12
11
78.641
21
22.32
0
LINE
8
1
10
77.605
20
20.12
11
76.689
21
17.859
0
LINE
8
1
10
76.689
20
17.859
11
75.641
21
14.927
0
LINE
8
1
10
85.424
20
20.826
11
87.083
21
16.715
0
LINE
8
1
10
85.424
20
20.826
11
83.439
21
24.781
0
LINE
8
1
10
102.441
20
24.563
11
103.702
21
21.099
0
LINE
8
1
10
103.702
20
21.099
11
104.772
21
17.571
0
LINE
8
1
10
104.772
20
17.571
11
105.65
21
13.99
0
LINE
8
1
10
184.09
20
25.037
11
185.457
21
21.428
0
LINE
8
1
10
185.457
20
21.428
11
186.613
21
17.746
0
LINE
8
1
10
186.613
20
17.746
11
187.55
21
14.001
0
LINE
8
1
10
168.406
20
18.194
11
167.774
21
19.711
0
LINE
8
1
10
167.774
20
19.711
11
166.355
21
22.67
0
LINE
8
1
10
-162.604
20
28.694
11
-164.377
21
26.12
0
LINE
8
1
10
-164.377
20
26.12
11
-165.203
21
24.794
0
LINE
8
1
10
-184.106
20
24.932
11
-184.903
21
22.901
0
LINE
8
1
10
-184.106
20
24.932
11
-183.243
21
26.936
0
LINE
8
1
10
-183.243
20
26.936
11
-182.314
21
28.911
0
LINE
8
1
10
-182.314
20
28.911
11
-181.322
21
30.854
0
LINE
8
1
10
-181.322
20
30.854
11
-180.267
21
32.765
0
LINE
8
1
10
-162.604
20
28.694
11
-160.675
21
31.158
0
LINE
8
1
10
-102.947
20
23.499
11
-102.169
21
25.441
0
LINE
8
1
10
-102.169
20
25.441
11
-101.329
21
27.357
0
LINE
8
1
10
-101.329
20
27.357
11
-100.427
21
29.244
0
LINE
8
1
10
-100.427
20
29.244
11
-99.466
21
31.102
0
LINE
8
1
10
-79.944
20
24.85
11
-67.99
21
37.494
0
LINE
8
1
10
-65.863
20
34.233
11
-63.94
21
30.85
0
LINE
8
1
10
-63.94
20
30.85
11
-62.225
21
27.359
0
LINE
8
1
10
-77.961
20
32.387
11
-79.23
21
30.886
0
LINE
8
1
10
-79.23
20
30.886
11
-80.437
21
29.336
0
LINE
8
1
10
-80.437
20
29.336
11
-81.581
21
27.74
0
LINE
8
1
10
-81.581
20
27.74
11
-82.66
21
26.099
0
LINE
8
1
10
-82.66
20
26.099
11
-83.67
21
24.416
0
LINE
8
1
10
-83.67
20
24.416
11
-84.61
21
22.692
0
LINE
8
1
10
-62.225
20
27.359
11
-60.72
21
23.774
0
LINE
8
1
10
-21.258
20
23.094
11
-20.479
21
25.088
0
LINE
8
1
10
-20.479
20
25.088
11
-19.635
21
27.054
0
LINE
8
1
10
-19.635
20
27.054
11
-18.727
21
28.992
0
LINE
8
1
10
-18.727
20
28.992
11
-17.757
21
30.899
0
LINE
8
1
10
-17.757
20
30.899
11
-16.726
21
32.774
0
LINE
8
1
10
1.533
20
29.577
11
3.645
21
32.16
0
LINE
8
1
10
1.533
20
29.577
11
-0.403
21
26.863
0
LINE
8
1
10
-0.403
20
26.863
11
-2.152
21
24.028
0
LINE
8
1
10
-2.152
20
24.028
11
-2.953
21
22.569
0
LINE
8
1
10
1.313
20
25.275
11
13.581
21
37.94
0
LINE
8
1
10
1.313
20
25.275
11
2.65
21
22.965
0
LINE
8
1
10
17.403
20
31.627
11
19.055
21
28.326
0
LINE
8
1
10
19.055
20
28.326
11
20.528
21
24.943
0
LINE
8
1
10
60.511
20
23.424
11
61.506
21
25.915
0
LINE
8
1
10
61.506
20
25.915
11
62.607
21
28.363
0
LINE
8
1
10
62.607
20
28.363
11
63.816
21
30.765
0
LINE
8
1
10
83.881
20
30.45
11
85.44
21
32.301
0
LINE
8
1
10
83.881
20
30.45
11
82.416
21
28.524
0
LINE
8
1
10
82.416
20
28.524
11
81.051
21
26.525
0
LINE
8
1
10
81.051
20
26.525
11
79.791
21
24.456
0
LINE
8
1
10
79.791
20
24.456
11
78.641
21
22.32
0
LINE
8
1
10
63.816
20
30.765
11
65.132
21
33.115
0
LINE
8
1
10
83.439
20
24.781
11
95.55
21
37.575
0
LINE
8
1
10
99.359
20
31.26
11
100.992
21
27.954
0
LINE
8
1
10
100.992
20
27.954
11
102.441
21
24.563
0
LINE
8
1
10
162.935
20
28.258
11
164.739
21
25.522
0
LINE
8
1
10
162.935
20
28.258
11
160.956
21
30.868
0
LINE
8
1
10
160.956
20
30.868
11
158.809
21
33.343
0
LINE
8
1
10
180.741
20
31.985
11
182.516
21
28.559
0
LINE
8
1
10
182.516
20
28.559
11
184.09
21
25.037
0
LINE
8
1
10
166.355
20
22.67
11
164.739
21
25.522
0
LINE
8
1
10
-179.15
20
34.64
11
-180.267
21
32.765
0
LINE
8
1
10
-179.15
20
34.64
11
-177.973
21
36.478
0
LINE
8
1
10
-177.973
20
36.478
11
-176.736
21
38.276
0
LINE
8
1
10
-176.736
20
38.276
11
-175.44
21
40.032
0
LINE
8
1
10
-151.581
20
39.732
11
-149.006
21
41.51
0
LINE
8
1
10
-151.581
20
39.732
11
-154.044
21
37.799
0
LINE
8
1
10
-154.044
20
37.799
11
-156.386
21
35.72
0
LINE
8
1
10
-156.386
20
35.72
11
-158.6
21
33.503
0
LINE
8
1
10
-158.6
20
33.503
11
-160.675
21
31.158
0
LINE
8
1
10
-99.466
20
31.102
11
-97.37
21
34.724
0
LINE
8
1
10
-97.37
20
34.724
11
-95.051
21
38.209
0
LINE
8
1
10
-95.051
20
38.209
11
-92.52
21
41.545
0
LINE
8
1
10
-67.99
20
37.494
11
-65.863
21
34.233
0
LINE
8
1
10
-69.209
20
40.262
11
-70.792
21
39.095
0
LINE
8
1
10
-70.792
20
39.095
11
-72.328
21
37.867
0
LINE
8
1
10
-72.328
20
37.867
11
-73.816
21
36.58
0
LINE
8
1
10
-73.816
20
36.58
11
-75.252
21
35.236
0
LINE
8
1
10
-75.252
20
35.236
11
-76.635
21
33.838
0
LINE
8
1
10
-76.635
20
33.838
11
-77.961
21
32.387
0
LINE
8
1
10
-16.726
20
32.774
11
-15.635
21
34.616
0
LINE
8
1
10
-15.635
20
34.616
11
-14.486
21
36.422
0
LINE
8
1
10
-14.486
20
36.422
11
-13.28
21
38.191
0
LINE
8
1
10
-13.28
20
38.191
11
-12.019
21
39.921
0
LINE
8
1
10
10.923
20
39.017
11
13.627
21
40.971
0
LINE
8
1
10
10.923
20
39.017
11
8.351
21
36.891
0
LINE
8
1
10
8.351
20
36.891
11
5.921
21
34.601
0
LINE
8
1
10
5.921
20
34.601
11
3.645
21
32.16
0
LINE
8
1
10
13.581
20
37.94
11
15.577
21
34.835
0
LINE
8
1
10
15.577
20
34.835
11
17.403
21
31.627
0
LINE
8
1
10
66.555
20
35.41
11
67.755
21
37.255
0
LINE
8
1
10
67.755
20
37.255
11
69.018
21
39.056
0
LINE
8
1
10
69.018
20
39.056
11
70.342
21
40.81
0
LINE
8
1
10
87.089
20
34.072
11
88.823
21
35.763
0
LINE
8
1
10
87.089
20
34.072
11
85.44
21
32.301
0
LINE
8
1
10
66.555
20
35.41
11
65.132
21
33.115
0
LINE
8
1
10
92.527
20
38.887
11
94.486
21
40.315
0
LINE
8
1
10
92.527
20
38.887
11
90.637
21
37.368
0
LINE
8
1
10
90.637
20
37.368
11
88.823
21
35.763
0
LINE
8
1
10
95.55
20
37.575
11
97.544
21
34.471
0
LINE
8
1
10
97.544
20
34.471
11
99.359
21
31.26
0
LINE
8
1
10
156.507
20
35.674
11
158.809
21
33.343
0
LINE
8
1
10
156.507
20
35.674
11
154.059
21
37.851
0
LINE
8
1
10
154.059
20
37.851
11
151.475
21
39.864
0
LINE
8
1
10
174.269
20
41.564
11
176.612
21
38.499
0
LINE
8
1
10
176.612
20
38.499
11
178.771
21
35.302
0
LINE
8
1
10
178.771
20
35.302
11
180.741
21
31.985
0
LINE
8
1
10
-174.087
20
41.745
11
-175.44
21
40.032
0
LINE
8
1
10
-174.087
20
41.745
11
-172.678
21
43.412
0
LINE
8
1
10
-172.678
20
43.412
11
-171.214
21
45.032
0
LINE
8
1
10
-171.214
20
45.032
11
-169.695
21
46.601
0
LINE
8
1
10
-169.695
20
46.601
11
-168.124
21
48.119
0
LINE
8
1
10
-168.124
20
48.119
11
-166.501
21
49.582
0
LINE
8
1
10
-140.699
20
45.825
11
-137.764
21
46.894
0
LINE
8
1
10
-140.699
20
45.825
11
-143.556
21
44.565
0
LINE
8
1
10
-143.556
20
44.565
11
-146.328
21
43.124
0
LINE
8
1
10
-146.328
20
43.124
11
-149.006
21
41.51
0
LINE
8
1
10
-131.699
20
48.423
11
-128.586
21
48.866
0
LINE
8
1
10
-131.699
20
48.423
11
-134.761
21
47.763
0
LINE
8
1
10
-134.761
20
47.763
11
-137.764
21
46.894
0
LINE
8
1
10
-95.527
20
41.169
11
-83.275
21
53.532
0
LINE
8
1
10
-95.527
20
41.169
11
-104.031
21
45.519
0
LINE
8
1
10
-104.031
20
45.519
11
-110.828
21
47.82
0
LINE
8
1
10
-110.828
20
47.82
11
-116.674
21
48.981
0
LINE
8
1
10
-92.52
20
41.545
11
-89.789
21
44.719
0
LINE
8
1
10
-89.789
20
44.719
11
-86.867
21
47.719
0
LINE
8
1
10
-64.206
20
43.379
11
-62.461
21
44.283
0
LINE
8
1
10
-64.206
20
43.379
11
-65.913
21
42.406
0
LINE
8
1
10
-65.913
20
42.406
11
-67.582
21
41.367
0
LINE
8
1
10
-67.582
20
41.367
11
-69.209
21
40.262
0
LINE
8
1
10
-83.766
20
50.532
11
-86.867
21
47.719
0
LINE
8
1
10
-49.42
20
48.507
11
-47.468
21
48.785
0
LINE
8
1
10
-49.42
20
48.507
11
-51.355
21
48.143
0
LINE
8
1
10
-51.355
20
48.143
11
-53.27
21
47.696
0
LINE
8
1
10
-53.27
20
47.696
11
-55.163
21
47.167
0
LINE
8
1
10
-55.163
20
47.167
11
-57.03
21
46.56
0
LINE
8
1
10
-57.03
20
46.56
11
-58.871
21
45.875
0
LINE
8
1
10
-58.871
20
45.875
11
-60.682
21
45.115
0
LINE
8
1
10
-60.682
20
45.115
11
-62.461
21
44.283
0
LINE
8
1
10
-13.628
20
42.109
11
-1.954
21
53.811
0
LINE
8
1
10
-13.628
20
42.109
11
-29.51
21
47.925
0
LINE
8
1
10
-29.51
20
47.925
11
-36.621
21
49.17
0
LINE
8
1
10
-12.019
20
39.921
11
-10.703
21
41.611
0
LINE
8
1
10
-10.703
20
41.611
11
-9.336
21
43.258
0
LINE
8
1
10
-9.336
20
43.258
11
-7.917
21
44.862
0
LINE
8
1
10
-7.917
20
44.862
11
-6.448
21
46.42
0
LINE
8
1
10
-6.448
20
46.42
11
-4.931
21
47.931
0
LINE
8
1
10
-4.931
20
47.931
11
-3.367
21
49.393
0
LINE
8
1
10
32.002
20
48.474
11
35.321
21
48.924
0
LINE
8
1
10
32.002
20
48.474
11
28.739
21
47.778
0
LINE
8
1
10
28.739
20
47.778
11
25.541
21
46.846
0
LINE
8
1
10
25.541
20
46.846
11
22.42
21
45.689
0
LINE
8
1
10
22.42
20
45.689
11
19.387
21
44.317
0
LINE
8
1
10
19.387
20
44.317
11
16.452
21
42.741
0
LINE
8
1
10
16.452
20
42.741
11
13.627
21
40.971
0
LINE
8
1
10
56.306
20
46.724
11
68.178
21
41.39
0
LINE
8
1
10
56.306
20
46.724
11
48.283
21
48.755
0
LINE
8
1
10
68.178
20
41.39
11
80.144
21
53.468
0
LINE
8
1
10
71.725
20
42.518
11
70.342
21
40.81
0
LINE
8
1
10
71.725
20
42.518
11
73.166
21
44.178
0
LINE
8
1
10
73.166
20
44.178
11
74.661
21
45.787
0
LINE
8
1
10
74.661
20
45.787
11
76.21
21
47.346
0
LINE
8
1
10
76.21
20
47.346
11
77.809
21
48.853
0
LINE
8
1
10
112.086
20
48.148
11
114.452
21
48.635
0
LINE
8
1
10
112.086
20
48.148
11
109.745
21
47.545
0
LINE
8
1
10
109.745
20
47.545
11
107.434
21
46.829
0
LINE
8
1
10
107.434
20
46.829
11
105.159
21
46.003
0
LINE
8
1
10
105.159
20
46.003
11
102.923
21
45.069
0
LINE
8
1
10
102.923
20
45.069
11
100.734
21
44.03
0
LINE
8
1
10
100.734
20
44.03
11
98.594
21
42.889
0
LINE
8
1
10
98.594
20
42.889
11
96.51
21
41.65
0
LINE
8
1
10
96.51
20
41.65
11
94.486
21
40.315
0
LINE
8
1
10
136.888
20
47.16
11
139.994
21
46.102
0
LINE
8
1
10
136.888
20
47.16
11
133.708
21
47.999
0
LINE
8
1
10
133.708
20
47.999
11
131.316
21
48.546
0
LINE
8
1
10
131.316
20
48.546
11
128.91
21
48.953
0
LINE
8
1
10
116.84
20
49.002
11
114.452
21
48.635
0
LINE
8
1
10
148.767
20
41.706
11
151.475
21
39.864
0
LINE
8
1
10
148.767
20
41.706
11
145.943
21
43.366
0
LINE
8
1
10
145.943
20
43.366
11
143.016
21
44.834
0
LINE
8
1
10
143.016
20
44.834
11
139.994
21
46.102
0
LINE
8
1
10
166.193
20
49.852
11
169.054
21
47.252
0
LINE
8
1
10
169.054
20
47.252
11
171.748
21
44.485
0
LINE
8
1
10
171.748
20
44.485
11
174.269
21
41.564
0
LINE
8
1
10
-164.826
20
50.99
11
-166.501
21
49.582
0
LINE
8
1
10
-164.826
20
50.99
11
-163.102
21
52.339
0
LINE
8
1
10
-163.102
20
52.339
11
-160.755
21
54.19
0
LINE
8
1
10
-160.755
20
54.19
11
-158.326
21
55.908
0
LINE
8
1
10
-158.326
20
55.908
11
-155.822
21
57.492
0
LINE
8
1
10
-155.822
20
57.492
11
-153.248
21
58.944
0
LINE
8
1
10
-121.423
20
49.351
11
-116.674
21
48.981
0
LINE
8
1
10
-121.423
20
49.351
11
-126.199
21
49.174
0
LINE
8
1
10
-126.199
20
49.174
11
-128.586
21
48.866
0
LINE
8
1
10
-90.77
20
58.286
11
-88.2
21
56.822
0
LINE
8
1
10
-88.2
20
56.822
11
-85.7
21
55.237
0
LINE
8
1
10
-85.7
20
55.237
11
-83.275
21
53.532
0
LINE
8
1
10
-80.496
20
53.145
11
-83.766
21
50.532
0
LINE
8
1
10
-80.496
20
53.145
11
-78.801
21
54.374
0
LINE
8
1
10
-78.801
20
54.374
11
-77.069
21
55.547
0
LINE
8
1
10
-77.069
20
55.547
11
-75.299
21
56.665
0
LINE
8
1
10
-75.299
20
56.665
11
-73.494
21
57.724
0
LINE
8
1
10
-41.423
20
49.376
11
-36.621
21
49.17
0
LINE
8
1
10
-41.423
20
49.376
11
-45.046
21
49.144
0
LINE
8
1
10
-45.046
20
49.144
11
-47.468
21
48.785
0
LINE
8
1
10
-17.915
20
62.315
11
-1.954
21
53.811
0
LINE
8
1
10
-1.758
20
50.804
11
-3.367
21
49.393
0
LINE
8
1
10
-1.758
20
50.804
11
-0.104
21
52.163
0
LINE
8
1
10
-0.104
20
52.163
11
1.592
21
53.468
0
LINE
8
1
10
1.592
20
53.468
11
3.33
21
54.718
0
LINE
8
1
10
3.33
20
54.718
11
5.107
21
55.91
0
LINE
8
1
10
5.107
20
55.91
11
6.923
21
57.043
0
LINE
8
1
10
6.923
20
57.043
11
8.775
21
58.116
0
LINE
8
1
10
37.691
20
49.212
11
42.421
21
49.345
0
LINE
8
1
10
37.691
20
49.212
11
35.321
21
48.924
0
LINE
8
1
10
42.421
20
49.345
11
48.283
21
48.755
0
LINE
8
1
10
72.086
20
58.568
11
74.17
21
57.408
0
LINE
8
1
10
74.17
20
57.408
11
76.209
21
56.171
0
LINE
8
1
10
76.209
20
56.171
11
78.202
21
54.858
0
LINE
8
1
10
78.202
20
54.858
11
80.144
21
53.468
0
LINE
8
1
10
79.458
20
50.307
11
77.809
21
48.853
0
LINE
8
1
10
79.458
20
50.307
11
81.153
21
51.706
0
LINE
8
1
10
81.153
20
51.706
11
82.893
21
53.049
0
LINE
8
1
10
82.893
20
53.049
11
84.676
21
54.335
0
LINE
8
1
10
84.676
20
54.335
11
86.5
21
55.563
0
LINE
8
1
10
86.5
20
55.563
11
88.363
21
56.731
0
LINE
8
1
10
88.363
20
56.731
11
90.262
21
57.838
0
LINE
8
1
10
126.494
20
49.224
11
128.91
21
48.953
0
LINE
8
1
10
126.494
20
49.224
11
124.075
21
49.362
0
LINE
8
1
10
124.075
20
49.362
11
121.656
21
49.369
0
LINE
8
1
10
121.656
20
49.369
11
119.242
21
49.248
0
LINE
8
1
10
119.242
20
49.248
11
116.84
21
49.002
0
LINE
8
1
10
153.632
20
58.69
11
157.975
21
56.127
0
LINE
8
1
10
157.975
20
56.127
11
162.095
21
53.216
0
LINE
8
1
10
162.095
20
53.216
11
164.702
21
51.086
0
LINE
8
1
10
164.702
20
51.086
11
166.193
21
49.852
0
LINE
8
1
10
-150.61
20
60.262
11
-153.248
21
58.944
0
LINE
8
1
10
-150.61
20
60.262
11
-147.914
21
61.45
0
LINE
8
1
10
-147.914
20
61.45
11
-145.166
21
62.505
0
LINE
8
1
10
-145.166
20
62.505
11
-142.371
21
63.43
0
LINE
8
1
10
-142.371
20
63.43
11
-139.536
21
64.225
0
LINE
8
1
10
-139.536
20
64.225
11
-136.666
21
64.889
0
LINE
8
1
10
-136.666
20
64.889
11
-133.768
21
65.425
0
LINE
8
1
10
-133.768
20
65.425
11
-130.846
21
65.831
0
LINE
8
1
10
-130.846
20
65.831
11
-127.907
21
66.11
0
LINE
8
1
10
-127.907
20
66.11
11
-124.956
21
66.26
0
LINE
8
1
10
-124.956
20
66.26
11
-122.0
21
66.284
0
LINE
8
1
10
-122.0
20
66.284
11
-119.043
21
66.18
0
LINE
8
1
10
-119.043
20
66.18
11
-116.093
21
65.95
0
LINE
8
1
10
-116.093
20
65.95
11
-113.155
21
65.595
0
LINE
8
1
10
-113.155
20
65.595
11
-110.234
21
65.114
0
LINE
8
1
10
-110.234
20
65.114
11
-107.337
21
64.509
0
LINE
8
1
10
-107.337
20
64.509
11
-104.469
21
63.779
0
LINE
8
1
10
-104.469
20
63.779
11
-101.636
21
62.926
0
LINE
8
1
10
-101.636
20
62.926
11
-98.843
21
61.949
0
LINE
8
1
10
-98.843
20
61.949
11
-96.098
21
60.85
0
LINE
8
1
10
-96.098
20
60.85
11
-93.405
21
59.629
0
LINE
8
1
10
-93.405
20
59.629
11
-90.77
21
58.286
0
LINE
8
1
10
-69.783
20
59.665
11
-66.444
21
61.227
0
LINE
8
1
10
-66.444
20
61.227
11
-63.02
21
62.582
0
LINE
8
1
10
-63.02
20
62.582
11
-59.524
21
63.731
0
LINE
8
1
10
-71.655
20
58.725
11
-73.494
21
57.724
0
LINE
8
1
10
-71.655
20
58.725
11
-69.783
21
59.665
0
LINE
8
1
10
-59.524
20
63.731
11
-55.968
21
64.676
0
LINE
8
1
10
-55.968
20
64.676
11
-52.362
21
65.415
0
LINE
8
1
10
-52.362
20
65.415
11
-48.72
21
65.95
0
LINE
8
1
10
-48.72
20
65.95
11
-45.052
21
66.281
0
LINE
8
1
10
-45.052
20
66.281
11
-41.371
21
66.409
0
LINE
8
1
10
-41.371
20
66.409
11
-37.687
21
66.334
0
LINE
8
1
10
-37.687
20
66.334
11
-34.013
21
66.056
0
LINE
8
1
10
-34.013
20
66.056
11
-30.361
21
65.577
0
LINE
8
1
10
-30.361
20
65.577
11
-26.741
21
64.896
0
LINE
8
1
10
-26.741
20
64.896
11
-23.167
21
64.014
0
LINE
8
1
10
-23.167
20
64.014
11
-19.649
21
62.931
0
LINE
8
1
10
-19.649
20
62.931
11
-17.915
21
62.315
0
LINE
8
1
10
8.775
20
58.116
11
10.664
21
59.126
0
LINE
8
1
10
10.664
20
59.126
11
12.586
21
60.072
0
LINE
8
1
10
12.586
20
60.072
11
14.541
21
60.952
0
LINE
8
1
10
14.541
20
60.952
11
16.744
21
61.89
0
LINE
8
1
10
16.744
20
61.89
11
18.979
21
62.738
0
LINE
8
1
10
18.979
20
62.738
11
21.241
21
63.496
0
LINE
8
1
10
21.241
20
63.496
11
23.529
21
64.165
0
LINE
8
1
10
23.529
20
64.165
11
25.839
21
64.746
0
LINE
8
1
10
25.839
20
64.746
11
28.168
21
65.239
0
LINE
8
1
10
28.168
20
65.239
11
30.514
21
65.644
0
LINE
8
1
10
30.514
20
65.644
11
32.873
21
65.963
0
LINE
8
1
10
32.873
20
65.963
11
35.242
21
66.195
0
LINE
8
1
10
35.242
20
66.195
11
37.618
21
66.341
0
LINE
8
1
10
37.618
20
66.341
11
39.998
21
66.402
0
LINE
8
1
10
39.998
20
66.402
11
42.38
21
66.377
0
LINE
8
1
10
42.38
20
66.377
11
44.76
21
66.269
0
LINE
8
1
10
44.76
20
66.269
11
47.135
21
66.076
0
LINE
8
1
10
47.135
20
66.076
11
49.502
21
65.8
0
LINE
8
1
10
49.502
20
65.8
11
51.859
21
65.442
0
LINE
8
1
10
51.859
20
65.442
11
54.202
21
65.001
0
LINE
8
1
10
54.202
20
65.001
11
56.528
21
64.478
0
LINE
8
1
10
56.528
20
64.478
11
58.834
21
63.873
0
LINE
8
1
10
58.834
20
63.873
11
61.117
21
63.188
0
LINE
8
1
10
61.117
20
63.188
11
63.375
21
62.423
0
LINE
8
1
10
63.375
20
62.423
11
65.603
21
61.577
0
LINE
8
1
10
65.603
20
61.577
11
67.8
21
60.653
0
LINE
8
1
10
67.8
20
60.653
11
69.962
21
59.649
0
LINE
8
1
10
69.962
20
59.649
11
72.086
21
58.568
0
LINE
8
1
10
90.262
20
57.838
11
92.196
21
58.883
0
LINE
8
1
10
92.196
20
58.883
11
94.163
21
59.864
0
LINE
8
1
10
94.163
20
59.864
11
96.16
21
60.781
0
LINE
8
1
10
96.16
20
60.781
11
98.186
21
61.632
0
LINE
8
1
10
98.186
20
61.632
11
100.239
21
62.416
0
LINE
8
1
10
100.239
20
62.416
11
102.315
21
63.131
0
LINE
8
1
10
102.315
20
63.131
11
104.415
21
63.777
0
LINE
8
1
10
104.415
20
63.777
11
106.534
21
64.351
0
LINE
8
1
10
106.534
20
64.351
11
108.672
21
64.853
0
LINE
8
1
10
108.672
20
64.853
11
110.827
21
65.282
0
LINE
8
1
10
110.827
20
65.282
11
112.995
21
65.636
0
LINE
8
1
10
112.995
20
65.636
11
115.176
21
65.914
0
LINE
8
1
10
115.176
20
65.914
11
117.367
21
66.115
0
LINE
8
1
10
117.367
20
66.115
11
119.567
21
66.237
0
LINE
8
1
10
119.567
20
66.237
11
124.608
21
66.328
0
LINE
8
1
10
124.608
20
66.328
11
129.643
21
66.015
0
LINE
8
1
10
129.643
20
66.015
11
134.64
21
65.309
0
LINE
8
1
10
134.64
20
65.309
11
139.569
21
64.215
0
LINE
8
1
10
139.569
20
64.215
11
144.398
21
62.742
0
LINE
8
1
10
144.398
20
62.742
11
149.096
21
60.897
0
LINE
8
1
10
149.096
20
60.897
11
153.632
21
58.69
0
ENDSEC
0
EOF
