999
DXF created by Makelangelo software v7.11.0
0
SECTION
2
HEADER
9
$ACADVER
1
AC1006
9
$INSBASE
10
-21.0
20
-29.700000000000003
30
0.0
9
$EXTMIN
10
-21.0
20
-29.700000000000003
30
0.0
9
$EXTMAX
10
21.0
20
29.700000000000003
30
0.0
0
ENDSEC
0
SECTION
2
TABLES
0
TABLE
2
LTYPE
70
1
0
LTYPE
2
CONTINUOUS
70
64
3
Solid line
72
65
73
0
40
0.000
0
ENDTAB
0
TABLE
2
LAYER
70
6
0
LAYER
2
1
70
64
62
7
6
CONTINUOUS
0
LAYER
2
2
70
64
62
7
6
CONTINUOUS
0
ENDTAB
0
TABLE
2
STYLE
70
0
0
ENDTAB
0
ENDSEC
0
SECTION
0
BLOCKS
0
ENDSEC
0
SECTION
2
ENTITIES
0
LINE
8
1
10
-82.53
20
-143.114
11
-85.951
21
-148.919
0
LINE
8
1
10
-85.951
20
-148.919
11
-86.819
21
-152.87
0
LINE
8
1
10
-86.819
20
-152.87
11
-85.039
21
-157.417
0
LINE
8
1
10
-85.039
20
-157.417
11
-79.435
21
-160.945
0
LINE
8
1
10
-79.435
20
-160.945
11
-75.026
21
-160.408
0
LINE
8
1
10
-75.026
20
-160.408
11
-72.398
21
-158.503
0
LINE
8
1
10
-72.398
20
-158.503
11
-68.586
21
-154.042
0
LINE
8
1
10
-68.586
20
-154.042
11
-51.23
21
-129.231
0
LINE
8
1
10
-51.23
20
-129.231
11
-56.207
21
-125.752
0
LINE
8
1
10
-56.207
20
-125.752
11
-75.02
21
-152.642
0
LINE
8
1
10
-75.02
20
-152.642
11
-77.062
21
-154.749
0
LINE
8
1
10
-77.062
20
-154.749
11
-80.926
21
-152.694
0
LINE
8
1
10
-80.926
20
-152.694
11
-80.425
21
-151.0
0
LINE
8
1
10
-80.425
20
-151.0
11
-79.019
21
-148.69
0
LINE
8
1
10
-79.019
20
-148.69
11
-60.756
21
-122.572
0
LINE
8
1
10
-60.756
20
-122.572
11
-65.726
21
-119.093
0
LINE
8
1
10
-65.726
20
-119.093
11
-82.53
21
-143.114
0
LINE
8
1
10
-29.04
20
-148.704
11
-27.229
21
-160.638
0
LINE
8
1
10
-27.229
20
-160.638
11
-23.6
21
-166.398
0
LINE
8
1
10
-23.6
20
-166.398
11
-22.307
21
-175.004
0
LINE
8
1
10
-22.307
20
-175.004
11
-22.838
21
-176.565
0
LINE
8
1
10
-22.838
20
-176.565
11
-27.528
21
-176.765
0
LINE
8
1
10
-27.528
20
-176.765
11
-27.847
21
-175.575
0
LINE
8
1
10
-27.847
20
-175.575
11
-27.652
21
-173.461
0
LINE
8
1
10
-27.652
20
-173.461
11
-26.371
21
-166.843
0
LINE
8
1
10
-26.371
20
-166.843
11
-32.329
21
-165.685
0
LINE
8
1
10
-32.329
20
-165.685
11
-33.871
21
-173.7
0
LINE
8
1
10
-33.871
20
-173.7
11
-33.612
21
-178.059
0
LINE
8
1
10
-33.612
20
-178.059
11
-29.966
21
-182.236
0
LINE
8
1
10
-29.966
20
-182.236
11
-23.378
21
-183.482
0
LINE
8
1
10
-23.378
20
-183.482
11
-18.356
21
-180.406
0
LINE
8
1
10
-18.356
20
-180.406
11
-17.195
21
-178.292
0
LINE
8
1
10
-17.195
20
-178.292
11
-16.72
21
-164.144
0
LINE
8
1
10
-16.72
20
-164.144
11
-17.587
21
-162.266
0
LINE
8
1
10
-17.587
20
-162.266
11
-21.211
21
-156.373
0
LINE
8
1
10
-21.211
20
-156.373
11
-22.846
21
-152.722
0
LINE
8
1
10
-22.846
20
-152.722
11
-22.231
21
-146.979
0
LINE
8
1
10
-22.231
20
-146.979
11
-19.313
21
-145.804
0
LINE
8
1
10
-19.313
20
-145.804
11
-17.363
21
-148.273
0
LINE
8
1
10
-17.363
20
-148.273
11
-17.45
21
-149.913
0
LINE
8
1
10
-17.45
20
-149.913
11
-18.548
21
-155.615
0
LINE
8
1
10
-18.548
20
-155.615
11
-12.591
21
-156.766
0
LINE
8
1
10
-12.591
20
-156.766
11
-11.302
21
-150.039
0
LINE
8
1
10
-11.302
20
-150.039
11
-11.522
21
-145.627
0
LINE
8
1
10
-11.522
20
-145.627
11
-14.902
21
-141.644
0
LINE
8
1
10
-14.902
20
-141.644
11
-22.086
21
-140.319
0
LINE
8
1
10
-22.086
20
-140.319
11
-27.562
21
-144.274
0
LINE
8
1
10
-27.562
20
-144.274
11
-28.454
21
-146.389
0
LINE
8
1
10
-28.454
20
-146.389
11
-29.04
21
-148.704
0
LINE
8
1
10
30.236
20
-138.559
11
45.719
21
-177.505
0
LINE
8
1
10
45.719
20
-177.505
11
51.357
21
-175.265
0
LINE
8
1
10
51.357
20
-175.265
11
43.697
21
-155.989
0
LINE
8
1
10
43.697
20
-155.989
11
51.01
21
-153.089
0
LINE
8
1
10
51.01
20
-153.089
11
49.137
21
-148.377
0
LINE
8
1
10
49.137
20
-148.377
11
41.825
21
-151.291
0
LINE
8
1
10
41.825
20
-151.291
11
37.753
21
-141.024
0
LINE
8
1
10
37.753
20
-141.024
11
45.318
21
-138.014
0
LINE
8
1
10
45.318
20
-138.014
11
43.445
21
-133.31
0
LINE
8
1
10
43.445
20
-133.31
11
30.236
21
-138.559
0
LINE
8
1
10
15.516
20
-150.754
11
15.622
21
-147.735
0
LINE
8
1
10
15.622
20
-147.735
11
20.165
21
-147.39
0
LINE
8
1
10
20.165
20
-147.39
11
20.99
21
-149.8
0
LINE
8
1
10
20.99
20
-149.8
11
25.157
21
-173.849
0
LINE
8
1
10
25.157
20
-173.849
11
25.107
21
-176.756
0
LINE
8
1
10
25.107
20
-176.756
11
20.513
21
-177.21
0
LINE
8
1
10
20.513
20
-177.21
11
19.69
21
-174.795
0
LINE
8
1
10
19.69
20
-174.795
11
15.516
21
-150.754
0
LINE
8
1
10
16.612
20
-140.806
11
9.878
21
-146.985
0
LINE
8
1
10
9.878
20
-146.985
11
9.656
21
-152.061
0
LINE
8
1
10
9.656
20
-152.061
11
9.933
21
-154.069
0
LINE
8
1
10
9.933
20
-154.069
11
13.51
21
-174.658
0
LINE
8
1
10
13.51
20
-174.658
11
15.82
21
-180.56
0
LINE
8
1
10
15.82
20
-180.56
11
22.827
21
-183.942
0
LINE
8
1
10
22.827
20
-183.942
11
27.398
21
-182.612
0
LINE
8
1
10
27.398
20
-182.612
11
30.755
21
-177.88
0
LINE
8
1
10
30.755
20
-177.88
11
31.086
21
-173.288
0
LINE
8
1
10
31.086
20
-173.288
11
30.747
21
-170.519
0
LINE
8
1
10
30.747
20
-170.519
11
27.37
21
-151.046
0
LINE
8
1
10
27.37
20
-151.046
11
25.545
21
-145.16
0
LINE
8
1
10
25.545
20
-145.16
11
23.099
21
-142.128
0
LINE
8
1
10
23.099
20
-142.128
11
18.349
21
-140.64
0
LINE
8
1
10
18.349
20
-140.64
11
16.612
21
-140.806
0
LINE
8
1
10
-101.635
20
-130.361
11
-84.123
21
-113.374
0
LINE
8
1
10
-84.123
20
-113.374
11
-81.696
21
-111.779
0
LINE
8
1
10
-81.696
20
-111.779
11
-78.734
21
-115.32
0
LINE
8
1
10
-78.734
20
-115.32
11
-80.262
21
-117.357
0
LINE
8
1
10
-80.262
20
-117.357
11
-98.21
21
-134.767
0
LINE
8
1
10
-98.21
20
-134.767
11
-100.321
21
-135.963
0
LINE
8
1
10
-100.321
20
-135.963
11
-102.704
21
-135.264
0
LINE
8
1
10
-102.704
20
-135.264
11
-103.187
21
-132.473
0
LINE
8
1
10
-103.187
20
-132.473
11
-101.635
21
-130.361
0
LINE
8
1
10
-90.013
20
-110.623
11
-104.202
21
-124.39
0
LINE
8
1
10
-104.202
20
-124.39
11
-108.037
21
-129.212
0
LINE
8
1
10
-108.037
20
-129.212
11
-109.164
21
-132.942
0
LINE
8
1
10
-109.164
20
-132.942
11
-107.724
21
-137.703
0
LINE
8
1
10
-107.724
20
-137.703
11
-103.955
21
-141.043
0
LINE
8
1
10
-103.955
20
-141.043
11
-98.277
21
-141.357
0
LINE
8
1
10
-98.277
20
-141.357
11
-94.513
21
-139.324
0
LINE
8
1
10
-94.513
20
-139.324
11
-91.885
21
-137.088
0
LINE
8
1
10
-91.885
20
-137.088
11
-77.702
21
-123.328
0
LINE
8
1
10
-77.702
20
-123.328
11
-73.866
21
-118.504
0
LINE
8
1
10
-73.866
20
-118.504
11
-72.74
21
-114.775
0
LINE
8
1
10
-72.74
20
-114.775
11
-74.181
21
-110.018
0
LINE
8
1
10
-74.181
20
-110.018
11
-77.947
21
-106.676
0
LINE
8
1
10
-77.947
20
-106.676
11
-83.626
21
-106.355
0
LINE
8
1
10
-83.626
20
-106.355
11
-87.388
21
-108.388
0
LINE
8
1
10
-87.388
20
-108.388
11
-90.013
21
-110.623
0
LINE
8
1
10
-49.031
20
-136.21
11
-44.163
21
-138.314
0
LINE
8
1
10
-44.163
20
-138.314
11
-58.788
21
-172.14
0
LINE
8
1
10
-58.788
20
-172.14
11
-53.218
21
-174.55
0
LINE
8
1
10
-53.218
20
-174.55
11
-38.593
21
-140.724
0
LINE
8
1
10
-38.593
20
-140.724
11
-33.718
21
-142.828
0
LINE
8
1
10
-33.718
20
-142.828
11
-31.71
21
-138.185
0
LINE
8
1
10
-31.71
20
-138.185
11
-47.022
21
-131.56
0
LINE
8
1
10
-47.022
20
-131.56
11
-49.031
21
-136.21
0
LINE
8
1
10
0.012
20
-132.785
11
-47.242
21
-119.591
0
LINE
8
1
10
-47.242
20
-119.591
11
-75.264
21
-95.763
0
LINE
8
1
10
-75.264
20
-95.763
11
-94.589
21
-65.411
0
LINE
8
1
10
-94.589
20
-65.411
11
-106.071
21
-29.074
0
LINE
8
1
10
-106.071
20
-29.074
11
-98.152
21
57.116
0
LINE
8
1
10
-98.152
20
57.116
11
-82.012
21
87.102
0
LINE
8
1
10
-82.012
20
87.102
11
-81.771
21
93.782
0
LINE
8
1
10
-81.771
20
93.782
11
-81.263
21
94.83
0
LINE
8
1
10
-81.263
20
94.83
11
-76.643
21
96.588
0
LINE
8
1
10
-76.643
20
96.588
11
-74.836
21
96.267
0
LINE
8
1
10
-74.836
20
96.267
11
-38.891
21
124.029
0
LINE
8
1
10
-38.891
20
124.029
11
45.74
21
120.446
0
LINE
8
1
10
45.74
20
120.446
11
71.102
21
100.424
0
LINE
8
1
10
71.102
20
100.424
11
74.786
21
96.342
0
LINE
8
1
10
74.786
20
96.342
11
80.069
21
95.61
0
LINE
8
1
10
80.069
20
95.61
11
80.948
21
94.823
0
LINE
8
1
10
80.948
20
94.823
11
82.025
21
89.25
0
LINE
8
1
10
82.025
20
89.25
11
81.758
21
87.477
0
LINE
8
1
10
81.758
20
87.477
11
103.651
21
40.007
0
LINE
8
1
10
103.651
20
40.007
11
98.542
21
-56.19
0
LINE
8
1
10
98.542
20
-56.19
11
77.459
21
-93.191
0
LINE
8
1
10
77.459
20
-93.191
11
55.126
21
-114.498
0
LINE
8
1
10
55.126
20
-114.498
11
29.234
21
-127.943
0
LINE
8
1
10
29.234
20
-127.943
11
0.012
21
-132.785
0
LINE
8
1
10
62.727
20
-121.136
11
85.223
21
-156.902
0
LINE
8
1
10
85.223
20
-156.902
11
88.975
21
-153.811
0
LINE
8
1
10
88.975
20
-153.811
11
83.147
21
-144.782
0
LINE
8
1
10
83.147
20
-144.782
11
87.395
21
-141.289
0
LINE
8
1
10
87.395
20
-141.289
11
94.851
21
-148.983
0
LINE
8
1
10
94.851
20
-148.983
11
99.488
21
-145.164
0
LINE
8
1
10
99.488
20
-145.164
11
69.727
21
-115.375
0
LINE
8
1
10
69.727
20
-115.375
11
62.727
21
-121.136
0
LINE
8
1
10
68.733
20
-123.988
11
69.979
21
-122.967
0
LINE
8
1
10
69.979
20
-122.967
11
83.848
21
-137.654
0
LINE
8
1
10
83.848
20
-137.654
11
80.464
21
-140.438
0
LINE
8
1
10
80.464
20
-140.438
11
68.733
21
-123.988
0
LINE
8
1
10
-104.651
20
-90.217
11
-120.985
21
-101.35
0
LINE
8
1
10
-120.985
20
-101.35
11
-125.603
21
-105.446
0
LINE
8
1
10
-125.603
20
-105.446
11
-127.357
21
-108.921
0
LINE
8
1
10
-127.357
20
-108.921
11
-126.739
21
-113.852
0
LINE
8
1
10
-126.739
20
-113.852
11
-123.571
21
-117.88
0
LINE
8
1
10
-123.571
20
-117.88
11
-117.589
21
-119.145
0
LINE
8
1
10
-117.589
20
-119.145
11
-112.476
21
-116.938
0
LINE
8
1
10
-112.476
20
-116.938
11
-107.47
21
-113.551
0
LINE
8
1
10
-107.47
20
-113.551
11
-110.868
21
-108.567
0
LINE
8
1
10
-110.868
20
-108.567
11
-116.898
21
-112.609
0
LINE
8
1
10
-116.898
20
-112.609
11
-119.02
21
-113.402
0
LINE
8
1
10
-119.02
20
-113.402
11
-121.809
21
-110.48
0
LINE
8
1
10
-121.809
20
-110.48
11
-120.376
21
-108.336
0
LINE
8
1
10
-120.376
20
-108.336
11
-119.494
21
-107.661
0
LINE
8
1
10
-119.494
20
-107.661
11
-98.82
21
-93.58
0
LINE
8
1
10
-98.82
20
-93.58
11
-96.54
21
-92.76
0
LINE
8
1
10
-96.54
20
-92.76
11
-94.354
21
-96.775
0
LINE
8
1
10
-94.354
20
-96.775
11
-95.675
21
-98.146
0
LINE
8
1
10
-95.675
20
-98.146
11
-100.505
21
-101.452
0
LINE
8
1
10
-100.505
20
-101.452
11
-97.087
21
-106.47
0
LINE
8
1
10
-97.087
20
-106.47
11
-92.159
21
-103.035
0
LINE
8
1
10
-92.159
20
-103.035
11
-89.056
21
-99.831
0
LINE
8
1
10
-89.056
20
-99.831
11
-88.588
21
-92.938
0
LINE
8
1
10
-88.588
20
-92.938
11
-91.405
21
-88.924
0
LINE
8
1
10
-91.405
20
-88.924
11
-97.279
21
-87.045
0
LINE
8
1
10
-97.279
20
-87.045
11
-99.588
21
-87.583
0
LINE
8
1
10
-99.588
20
-87.583
11
-104.651
21
-90.217
0
LINE
8
1
10
-42.944
20
-77.24
11
-45.17
21
-76.961
0
LINE
8
1
10
-45.17
20
-76.961
11
-44.878
21
-74.639
0
LINE
8
1
10
-44.878
20
-74.639
11
-42.293
21
-74.967
0
LINE
8
1
10
-42.293
20
-74.967
11
-41.388
21
-76.16
0
LINE
8
1
10
-41.388
20
-76.16
11
-42.403
21
-77.262
0
LINE
8
1
10
-42.403
20
-77.262
11
-42.944
21
-77.24
0
LINE
8
1
10
-54.321
20
-83.517
11
-56.516
21
-82.28
0
LINE
8
1
10
-56.516
20
-82.28
11
-59.618
21
-77.227
0
LINE
8
1
10
-59.618
20
-77.227
11
-60.013
21
-74.841
0
LINE
8
1
10
-60.013
20
-74.841
11
-61.535
21
-71.841
0
LINE
8
1
10
-61.535
20
-71.841
11
-63.227
21
-69.71
0
LINE
8
1
10
-63.227
20
-69.71
11
-67.69
21
-61.273
0
LINE
8
1
10
-67.69
20
-61.273
11
-68.324
21
-57.538
0
LINE
8
1
10
-68.324
20
-57.538
11
-68.238
21
-56.405
0
LINE
8
1
10
-68.238
20
-56.405
11
-72.583
21
-51.101
0
LINE
8
1
10
-72.583
20
-51.101
11
-74.638
21
-44.98
0
LINE
8
1
10
-74.638
20
-44.98
11
-75.888
21
-44.306
0
LINE
8
1
10
-75.888
20
-44.306
11
-80.879
21
-41.682
0
LINE
8
1
10
-80.879
20
-41.682
11
-81.718
21
-41.15
0
LINE
8
1
10
-81.718
20
-41.15
11
-82.339
21
-40.5
0
LINE
8
1
10
-82.339
20
-40.5
11
-80.946
21
-39.637
0
LINE
8
1
10
-80.946
20
-39.637
11
-47.265
21
-50.41
0
LINE
8
1
10
-47.265
20
-50.41
11
-38.695
21
-52.551
0
LINE
8
1
10
-38.695
20
-52.551
11
-37.654
21
-53.879
0
LINE
8
1
10
-37.654
20
-53.879
11
-37.664
21
-61.652
0
LINE
8
1
10
-37.664
20
-61.652
11
-37.388
21
-64.923
0
LINE
8
1
10
-37.388
20
-64.923
11
-32.091
21
-65.692
0
LINE
8
1
10
-32.091
20
-65.692
11
-32.091
21
-54.574
0
LINE
8
1
10
-32.091
20
-54.574
11
-34.372
21
-53.464
0
LINE
8
1
10
-34.372
20
-53.464
11
-36.874
21
-52.528
0
LINE
8
1
10
-36.874
20
-52.528
11
-37.225
21
-38.049
0
LINE
8
1
10
-37.225
20
-38.049
11
-38.108
21
-34.97
0
LINE
8
1
10
-38.108
20
-34.97
11
-37.204
21
-32.459
0
LINE
8
1
10
-37.204
20
-32.459
11
-32.71
21
-27.012
0
LINE
8
1
10
-32.71
20
-27.012
11
-33.74
21
-22.927
0
LINE
8
1
10
-33.74
20
-22.927
11
-33.48
21
-17.105
0
LINE
8
1
10
-33.48
20
-17.105
11
-38.545
21
-15.064
0
LINE
8
1
10
-38.545
20
-15.064
11
-41.487
21
-8.519
0
LINE
8
1
10
-41.487
20
-8.519
11
-42.923
21
-8.159
0
LINE
8
1
10
-42.923
20
-8.159
11
-47.26
21
-6.643
0
LINE
8
1
10
-47.26
20
-6.643
11
-49.61
21
0.162
0
LINE
8
1
10
-49.61
20
0.162
11
-53.076
21
2.918
0
LINE
8
1
10
-53.076
20
2.918
11
-56.293
21
7.177
0
LINE
8
1
10
-56.293
20
7.177
11
-55.906
21
10.793
0
LINE
8
1
10
-55.906
20
10.793
11
-54.369
21
12.104
0
LINE
8
1
10
-54.369
20
12.104
11
-59.967
21
15.599
0
LINE
8
1
10
-59.967
20
15.599
11
-61.976
21
25.047
0
LINE
8
1
10
-61.976
20
25.047
11
-61.361
21
26.546
0
LINE
8
1
10
-61.361
20
26.546
11
-65.204
21
31.218
0
LINE
8
1
10
-65.204
20
31.218
11
-65.666
21
36.504
0
LINE
8
1
10
-65.666
20
36.504
11
-65.222
21
37.589
0
LINE
8
1
10
-65.222
20
37.589
11
-70.841
21
44.181
0
LINE
8
1
10
-70.841
20
44.181
11
-71.713
21
49.669
0
LINE
8
1
10
-71.713
20
49.669
11
-71.329
21
51.139
0
LINE
8
1
10
-71.329
20
51.139
11
-75.66
21
57.732
0
LINE
8
1
10
-75.66
20
57.732
11
-75.963
21
63.685
0
LINE
8
1
10
-75.963
20
63.685
11
-75.571
21
64.797
0
LINE
8
1
10
-75.571
20
64.797
11
-79.793
21
70.516
0
LINE
8
1
10
-79.793
20
70.516
11
-95.99
21
26.945
0
LINE
8
1
10
-95.99
20
26.945
11
-87.967
21
-54.219
0
LINE
8
1
10
-87.967
20
-54.219
11
-66.538
21
-88.759
0
LINE
8
1
10
-66.538
20
-88.759
11
-43.807
21
-107.802
0
LINE
8
1
10
-43.807
20
-107.802
11
-32.091
21
-113.809
0
LINE
8
1
10
-32.091
20
-113.809
11
-32.091
21
-86.336
0
LINE
8
1
10
-32.091
20
-86.336
11
-54.321
21
-83.517
0
LINE
8
1
10
-37.088
20
-79.453
11
-30.464
21
-80.099
0
LINE
8
1
10
-30.464
20
-80.099
11
-30.314
21
-78.561
0
LINE
8
1
10
-30.314
20
-78.561
11
-35.148
21
-78.084
0
LINE
8
1
10
-35.148
20
-78.084
11
-34.923
21
-75.824
0
LINE
8
1
10
-34.923
20
-75.824
11
-30.681
21
-76.239
0
LINE
8
1
10
-30.681
20
-76.239
11
-30.525
21
-74.7
0
LINE
8
1
10
-30.525
20
-74.7
11
-34.78
21
-74.285
0
LINE
8
1
10
-34.78
20
-74.285
11
-34.596
21
-72.446
0
LINE
8
1
10
-34.596
20
-72.446
11
-29.973
21
-72.903
0
LINE
8
1
10
-29.973
20
-72.903
11
-29.817
21
-71.357
0
LINE
8
1
10
-29.817
20
-71.357
11
-36.23
21
-70.731
0
LINE
8
1
10
-36.23
20
-70.731
11
-37.088
21
-79.453
0
LINE
8
1
10
5.473
20
-87.93
11
5.473
21
-104.979
0
LINE
8
1
10
5.473
20
-104.979
11
0.223
21
-110.097
0
LINE
8
1
10
0.223
20
-110.097
11
-5.026
21
-104.979
0
LINE
8
1
10
-5.026
20
-104.979
11
-2.35
21
-100.424
0
LINE
8
1
10
-2.35
20
-100.424
11
-2.35
21
-87.97
0
LINE
8
1
10
-2.35
20
-87.97
11
-32.091
21
-86.336
0
LINE
8
1
10
-32.091
20
-86.336
11
-32.091
21
-113.809
0
LINE
8
1
10
-32.091
20
-113.809
11
32.837
21
-113.51
0
LINE
8
1
10
32.837
20
-113.51
11
32.837
21
-86.343
0
LINE
8
1
10
32.837
20
-86.343
11
5.473
21
-87.93
0
LINE
8
1
10
9.422
20
-76.824
11
7.727
21
-76.852
0
LINE
8
1
10
7.727
20
-76.852
11
7.679
21
-74.278
0
LINE
8
1
10
7.679
20
-74.278
11
9.803
21
-74.281
0
LINE
8
1
10
9.803
20
-74.281
11
10.763
21
-75.429
0
LINE
8
1
10
10.763
20
-75.429
11
9.957
21
-76.75
0
LINE
8
1
10
9.957
20
-76.75
11
9.422
21
-76.824
0
LINE
8
1
10
-1.642
20
-77.723
11
2.627
21
-77.75
0
LINE
8
1
10
2.627
20
-77.75
11
2.64
21
-76.205
0
LINE
8
1
10
2.64
20
-76.205
11
-1.629
21
-76.171
0
LINE
8
1
10
-1.629
20
-76.171
11
-1.615
21
-74.326
0
LINE
8
1
10
-1.615
20
-74.326
11
3.035
21
-74.367
0
LINE
8
1
10
3.035
20
-74.367
11
3.042
21
-72.814
0
LINE
8
1
10
3.042
20
-72.814
11
-3.392
21
-72.76
0
LINE
8
1
10
-3.392
20
-72.76
11
-3.467
21
-81.523
0
LINE
8
1
10
-3.467
20
-81.523
11
3.178
21
-81.577
0
LINE
8
1
10
3.178
20
-81.577
11
3.192
21
-80.025
0
LINE
8
1
10
3.192
20
-80.025
11
-1.663
21
-79.991
0
LINE
8
1
10
-1.663
20
-79.991
11
-1.642
21
-77.723
0
LINE
8
1
10
35.806
20
-78.411
11
35.574
21
-76.157
0
LINE
8
1
10
35.574
20
-76.157
11
39.823
21
-75.715
0
LINE
8
1
10
39.823
20
-75.715
11
39.666
21
-74.176
0
LINE
8
1
10
39.666
20
-74.176
11
35.411
21
-74.612
0
LINE
8
1
10
35.411
20
-74.612
11
35.227
21
-72.78
0
LINE
8
1
10
35.227
20
-72.78
11
39.85
21
-72.297
0
LINE
8
1
10
39.85
20
-72.297
11
39.687
21
-70.758
0
LINE
8
1
10
39.687
20
-70.758
11
33.28
21
-71.425
0
LINE
8
1
10
33.28
20
-71.425
11
34.185
21
-80.14
0
LINE
8
1
10
34.185
20
-80.14
11
40.803
21
-79.453
0
LINE
8
1
10
40.803
20
-79.453
11
40.64
21
-77.907
0
LINE
8
1
10
40.64
20
-77.907
11
35.806
21
-78.411
0
LINE
8
1
10
30.972
20
-78.445
11
30.712
21
-77.122
0
LINE
8
1
10
30.712
20
-77.122
11
29.705
21
-76.307
0
LINE
8
1
10
29.705
20
-76.307
11
29.207
21
-71.975
0
LINE
8
1
10
29.207
20
-71.975
11
28.377
21
-71.831
0
LINE
8
1
10
28.377
20
-71.831
11
23.557
21
-72.181
0
LINE
8
1
10
23.557
20
-72.181
11
24.19
21
-80.923
0
LINE
8
1
10
24.19
20
-80.923
11
25.981
21
-80.787
0
LINE
8
1
10
25.981
20
-80.787
11
25.729
21
-77.369
0
LINE
8
1
10
25.729
20
-77.369
11
28.27
21
-77.226
0
LINE
8
1
10
28.27
20
-77.226
11
29.072
21
-78.022
0
LINE
8
1
10
29.072
20
-78.022
11
29.291
21
-79.843
0
LINE
8
1
10
29.291
20
-79.843
11
31.503
21
-80.385
0
LINE
8
1
10
31.503
20
-80.385
11
30.972
21
-78.445
0
LINE
8
1
10
16.333
20
-77.982
11
17.306
21
-74.469
0
LINE
8
1
10
17.306
20
-74.469
11
18.566
21
-77.887
0
LINE
8
1
10
18.566
20
-77.887
11
16.333
21
-77.982
0
LINE
8
1
10
46.802
20
-77.151
11
45.032
21
-77.39
0
LINE
8
1
10
45.032
20
-77.39
11
44.255
21
-71.711
0
LINE
8
1
10
44.255
20
-71.711
11
46.32
21
-71.429
0
LINE
8
1
10
46.32
20
-71.429
11
47.958
21
-72.479
0
LINE
8
1
10
47.958
20
-72.479
11
48.268
21
-75.885
0
LINE
8
1
10
48.268
20
-75.885
11
46.802
21
-77.151
0
LINE
8
1
10
87.286
20
-95.971
11
109.04
21
-117.132
0
LINE
8
1
10
109.04
20
-117.132
11
108.039
21
-118.399
0
LINE
8
1
10
108.039
20
-118.399
11
82.405
21
-102.153
0
LINE
8
1
10
82.405
20
-102.153
11
76.386
21
-109.772
0
LINE
8
1
10
76.386
20
-109.772
11
109.285
21
-135.74
0
LINE
8
1
10
109.285
20
-135.74
11
112.111
21
-132.166
0
LINE
8
1
10
112.111
20
-132.166
11
83.596
21
-109.656
0
LINE
8
1
10
83.596
20
-109.656
11
84.522
21
-108.328
0
LINE
8
1
10
84.522
20
-108.328
11
115.788
21
-127.515
0
LINE
8
1
10
115.788
20
-127.515
11
119.083
21
-123.335
0
LINE
8
1
10
119.083
20
-123.335
11
93.176
21
-97.38
0
LINE
8
1
10
93.176
20
-97.38
11
94.238
21
-96.168
0
LINE
8
1
10
94.238
20
-96.168
11
122.753
21
-118.685
0
LINE
8
1
10
122.753
20
-118.685
11
126.062
21
-114.49
0
LINE
8
1
10
126.062
20
-114.49
11
93.169
21
-88.522
0
LINE
8
1
10
93.169
20
-88.522
11
87.286
21
-95.971
0
LINE
8
1
10
95.505
20
-83.769
11
132.496
21
-103.474
0
LINE
8
1
10
132.496
20
-103.474
11
139.183
21
-90.932
0
LINE
8
1
10
139.183
20
-90.932
11
134.709
21
-88.556
0
LINE
8
1
10
134.709
20
-88.556
11
130.883
21
-95.739
0
LINE
8
1
10
130.883
20
-95.739
11
117.047
21
-88.365
0
LINE
8
1
10
117.047
20
-88.365
11
120.745
21
-81.42
0
LINE
8
1
10
120.745
20
-81.42
11
116.278
21
-79.044
0
LINE
8
1
10
116.278
20
-79.044
11
112.574
21
-85.989
0
LINE
8
1
10
112.574
20
-85.989
11
102.831
21
-80.794
0
LINE
8
1
10
102.831
20
-80.794
11
106.657
21
-73.604
0
LINE
8
1
10
106.657
20
-73.604
11
102.191
21
-71.228
0
LINE
8
1
10
102.191
20
-71.228
11
95.505
21
-83.769
0
LINE
8
1
10
-114.204
20
-66.945
11
-122.768
21
-75.452
0
LINE
8
1
10
-122.768
20
-75.452
11
-125.275
21
-81.776
0
LINE
8
1
10
-125.275
20
-81.776
11
-131.424
21
-87.879
0
LINE
8
1
10
-131.424
20
-87.879
11
-133.006
21
-88.373
0
LINE
8
1
10
-133.006
20
-88.373
11
-134.467
21
-88.263
0
LINE
8
1
10
-134.467
20
-88.263
11
-135.967
21
-84.701
0
LINE
8
1
10
-135.967
20
-84.701
11
-135.27
21
-83.821
0
LINE
8
1
10
-135.27
20
-83.821
11
-133.364
21
-82.666
0
LINE
8
1
10
-133.364
20
-82.666
11
-127.263
21
-79.8
0
LINE
8
1
10
-127.263
20
-79.8
11
-129.844
21
-74.305
0
LINE
8
1
10
-129.844
20
-74.305
11
-136.441
21
-77.41
0
LINE
8
1
10
-136.441
20
-77.41
11
-140.158
21
-80.021
0
LINE
8
1
10
-140.158
20
-80.021
11
-141.806
21
-86.001
0
LINE
8
1
10
-141.806
20
-86.001
11
-138.895
21
-92.066
0
LINE
8
1
10
-138.895
20
-92.066
11
-133.208
21
-94.262
0
LINE
8
1
10
-133.208
20
-94.262
11
-119.451
21
-86.076
0
LINE
8
1
10
-119.451
20
-86.076
11
-118.391
21
-84.196
0
LINE
8
1
10
-118.391
20
-84.196
11
-115.771
21
-77.796
0
LINE
8
1
10
-115.771
20
-77.796
11
-113.783
21
-74.321
0
LINE
8
1
10
-113.783
20
-74.321
11
-108.78
21
-71.428
0
LINE
8
1
10
-108.78
20
-71.428
11
-106.112
21
-73.093
0
LINE
8
1
10
-106.112
20
-73.093
11
-106.956
21
-76.123
0
LINE
8
1
10
-106.956
20
-76.123
11
-108.75
21
-77.226
0
LINE
8
1
10
-108.75
20
-77.226
11
-113.584
21
-79.5
0
LINE
8
1
10
-113.584
20
-79.5
11
-110.997
21
-84.995
0
LINE
8
1
10
-110.997
20
-84.995
11
-104.691
21
-82.016
0
LINE
8
1
10
-104.691
20
-82.016
11
-101.391
21
-79.3
0
LINE
8
1
10
-101.391
20
-79.3
11
-100.149
21
-74.271
0
LINE
8
1
10
-100.149
20
-74.271
11
-103.398
21
-67.545
0
LINE
8
1
10
-103.398
20
-67.545
11
-109.36
21
-65.482
0
LINE
8
1
10
-109.36
20
-65.482
11
-114.204
21
-66.945
0
LINE
8
1
10
-65.753
20
-57.692
11
-40.254
21
-61.838
0
LINE
8
1
10
-40.254
20
-61.838
11
-40.064
21
-64.487
0
LINE
8
1
10
-40.064
20
-64.487
11
-65.147
21
-60.477
0
LINE
8
1
10
-65.147
20
-60.477
11
-65.753
21
-57.692
0
LINE
8
1
10
-41.786
20
-70.084
11
-46.015
21
-69.553
0
LINE
8
1
10
-46.015
20
-69.553
11
-47.104
21
-78.241
0
LINE
8
1
10
-47.104
20
-78.241
11
-42.817
21
-78.767
0
LINE
8
1
10
-42.817
20
-78.767
11
-41.257
21
-78.649
0
LINE
8
1
10
-41.257
20
-78.649
11
-39.725
21
-75.309
0
LINE
8
1
10
-39.725
20
-75.309
11
-40.69
21
-74.292
0
LINE
8
1
10
-40.69
20
-74.292
11
-40.49
21
-70.479
0
LINE
8
1
10
-40.49
20
-70.479
11
-41.786
21
-70.084
0
LINE
8
1
10
-42.563
20
-73.434
11
-44.701
21
-73.168
0
LINE
8
1
10
-44.701
20
-73.168
11
-44.462
21
-71.262
0
LINE
8
1
10
-44.462
20
-71.262
11
-41.769
21
-71.641
0
LINE
8
1
10
-41.769
20
-71.641
11
-41.162
21
-72.662
0
LINE
8
1
10
-41.162
20
-72.662
11
-42.056
21
-73.443
0
LINE
8
1
10
-42.056
20
-73.443
11
-42.563
21
-73.434
0
LINE
8
1
10
-19.243
20
-76.232
11
-20.931
21
-76.123
0
LINE
8
1
10
-20.931
20
-76.123
11
-20.782
21
-73.556
0
LINE
8
1
10
-20.782
20
-73.556
11
-18.662
21
-73.727
0
LINE
8
1
10
-18.662
20
-73.727
11
-17.785
21
-75.015
0
LINE
8
1
10
-17.785
20
-75.015
11
-19.243
21
-76.232
0
LINE
8
1
10
-18.521
20
-72.181
11
-22.511
21
-71.936
0
LINE
8
1
10
-22.511
20
-71.936
11
-23.042
21
-80.685
0
LINE
8
1
10
-23.042
20
-80.685
11
-21.217
21
-80.794
0
LINE
8
1
10
-21.217
20
-80.794
11
-21.027
21
-77.635
0
LINE
8
1
10
-21.027
20
-77.635
11
-18.547
21
-77.78
0
LINE
8
1
10
-18.547
20
-77.78
11
-16.016
21
-75.51
0
LINE
8
1
10
-16.016
20
-75.51
11
-18.521
21
-72.181
0
LINE
8
1
10
-32.091
20
-65.692
11
-37.388
21
-64.923
0
LINE
8
1
10
-37.388
20
-64.923
11
-37.742
21
-58.23
0
LINE
8
1
10
-37.742
20
-58.23
11
-37.654
21
-53.818
0
LINE
8
1
10
-37.654
20
-53.818
11
-38.695
21
-52.551
0
LINE
8
1
10
-38.695
20
-52.551
11
-50.089
21
-49.583
0
LINE
8
1
10
-50.089
20
-49.583
11
-80.685
21
-39.697
0
LINE
8
1
10
-80.685
20
-39.697
11
-82.339
21
-40.5
0
LINE
8
1
10
-82.339
20
-40.5
11
-81.239
21
-41.461
0
LINE
8
1
10
-81.239
20
-41.461
11
-78.589
21
-42.932
0
LINE
8
1
10
-78.589
20
-42.932
11
-75.888
21
-44.306
0
LINE
8
1
10
-75.888
20
-44.306
11
-74.638
21
-44.98
0
LINE
8
1
10
-74.638
20
-44.98
11
-71.643
21
-52.74
0
LINE
8
1
10
-71.643
20
-52.74
11
-68.238
21
-56.405
0
LINE
8
1
10
-68.238
20
-56.405
11
-67.837
21
-60.735
0
LINE
8
1
10
-67.837
20
-60.735
11
-66.689
21
-63.689
0
LINE
8
1
10
-66.689
20
-63.689
11
-63.698
21
-69.053
0
LINE
8
1
10
-63.698
20
-69.053
11
-61.584
21
-71.756
0
LINE
8
1
10
-61.584
20
-71.756
11
-59.707
21
-76.586
0
LINE
8
1
10
-59.707
20
-76.586
11
-54.874
21
-83.322
0
LINE
8
1
10
-54.874
20
-83.322
11
-2.35
21
-87.97
0
LINE
8
1
10
-2.35
20
-87.97
11
-2.35
21
-100.424
0
LINE
8
1
10
-2.35
20
-100.424
11
-4.474
21
-107.36
0
LINE
8
1
10
-4.474
20
-107.36
11
2.368
21
-109.77
0
LINE
8
1
10
2.368
20
-109.77
11
5.473
21
-104.979
0
LINE
8
1
10
5.473
20
-104.979
11
5.473
21
-87.93
0
LINE
8
1
10
5.473
20
-87.93
11
51.178
21
-84.146
0
LINE
8
1
10
51.178
20
-84.146
11
55.143
21
-83.517
0
LINE
8
1
10
55.143
20
-83.517
11
57.345
21
-82.28
0
LINE
8
1
10
57.345
20
-82.28
11
60.445
21
-77.227
0
LINE
8
1
10
60.445
20
-77.227
11
60.84
21
-74.841
0
LINE
8
1
10
60.84
20
-74.841
11
62.36
21
-71.841
0
LINE
8
1
10
62.36
20
-71.841
11
64.05
21
-69.71
0
LINE
8
1
10
64.05
20
-69.71
11
68.346
21
-61.742
0
LINE
8
1
10
68.346
20
-61.742
11
69.147
21
-57.904
0
LINE
8
1
10
69.147
20
-57.904
11
69.066
21
-56.405
0
LINE
8
1
10
69.066
20
-56.405
11
73.408
21
-51.101
0
LINE
8
1
10
73.408
20
-51.101
11
75.46
21
-44.98
0
LINE
8
1
10
75.46
20
-44.98
11
76.711
21
-44.306
0
LINE
8
1
10
76.711
20
-44.306
11
81.702
21
-41.682
0
LINE
8
1
10
81.702
20
-41.682
11
82.54
21
-41.15
0
LINE
8
1
10
82.54
20
-41.15
11
83.16
21
-40.5
0
LINE
8
1
10
83.16
20
-40.5
11
81.513
21
-39.697
0
LINE
8
1
10
81.513
20
-39.697
11
48.087
21
-50.41
0
LINE
8
1
10
48.087
20
-50.41
11
39.517
21
-52.551
0
LINE
8
1
10
39.517
20
-52.551
11
38.475
21
-53.879
0
LINE
8
1
10
38.475
20
-53.879
11
38.489
21
-61.652
0
LINE
8
1
10
38.489
20
-61.652
11
38.209
21
-64.923
0
LINE
8
1
10
38.209
20
-64.923
11
15.88
21
-67.208
0
LINE
8
1
10
15.88
20
-67.208
11
-32.091
21
-65.692
0
LINE
8
1
10
6.719
20
-60.327
11
4.361
21
-62.069
0
LINE
8
1
10
4.361
20
-62.069
11
2.284
21
-62.645
0
LINE
8
1
10
2.284
20
-62.645
11
-0.158
21
-62.976
0
LINE
8
1
10
-0.158
20
-62.976
11
-4.349
21
-62.206
0
LINE
8
1
10
-4.349
20
-62.206
11
-6.527
21
-60.945
0
LINE
8
1
10
-6.527
20
-60.945
11
-7.69
21
-58.473
0
LINE
8
1
10
-7.69
20
-58.473
11
-7.756
21
-56.514
0
LINE
8
1
10
-7.756
20
-56.514
11
-7.756
21
-48.371
0
LINE
8
1
10
-7.756
20
-48.371
11
-4.121
21
-48.371
0
LINE
8
1
10
-4.121
20
-48.371
11
-4.121
21
-54.172
0
LINE
8
1
10
-4.121
20
-54.172
11
-0.311
21
-57.988
0
LINE
8
1
10
-0.311
20
-57.988
11
3.505
21
-54.179
0
LINE
8
1
10
3.505
20
-54.179
11
3.505
21
-48.371
0
LINE
8
1
10
3.505
20
-48.371
11
7.434
21
-48.371
0
LINE
8
1
10
7.434
20
-48.371
11
7.434
21
-56.514
0
LINE
8
1
10
7.434
20
-56.514
11
7.029
21
-59.742
0
LINE
8
1
10
7.029
20
-59.742
11
6.719
21
-60.327
0
LINE
8
1
10
0.414
20
-67.694
11
27.125
21
-66.341
0
LINE
8
1
10
27.125
20
-66.341
11
32.837
21
-65.699
0
LINE
8
1
10
32.837
20
-65.699
11
32.837
21
-54.138
0
LINE
8
1
10
32.837
20
-54.138
11
29.776
21
-55.009
0
LINE
8
1
10
29.776
20
-55.009
11
28.609
21
-54.975
0
LINE
8
1
10
28.609
20
-54.975
11
24.17
21
-58.672
0
LINE
8
1
10
24.17
20
-58.672
11
19.658
21
-58.767
0
LINE
8
1
10
19.658
20
-58.767
11
18.042
21
-58.243
0
LINE
8
1
10
18.042
20
-58.243
11
13.037
21
-61.98
0
LINE
8
1
10
13.037
20
-61.98
11
9.265
21
-61.273
0
LINE
8
1
10
9.265
20
-61.273
11
-6.702
21
-63.958
0
LINE
8
1
10
-6.702
20
-63.958
11
-9.595
21
-61.273
0
LINE
8
1
10
-9.595
20
-61.273
11
-14.13
21
-61.902
0
LINE
8
1
10
-14.13
20
-61.902
11
-18.364
21
-58.243
0
LINE
8
1
10
-18.364
20
-58.243
11
-23.688
21
-58.887
0
LINE
8
1
10
-23.688
20
-58.887
11
-27.967
21
-56.292
0
LINE
8
1
10
-27.967
20
-56.292
11
-28.938
21
-54.975
0
LINE
8
1
10
-28.938
20
-54.975
11
-32.098
21
-54.574
0
LINE
8
1
10
-32.098
20
-54.574
11
-32.098
21
-65.692
0
LINE
8
1
10
-32.098
20
-65.692
11
0.414
21
-67.694
0
LINE
8
1
10
9.824
20
-72.732
11
5.827
21
-72.801
0
LINE
8
1
10
5.827
20
-72.801
11
5.977
21
-81.563
0
LINE
8
1
10
5.977
20
-81.563
11
7.808
21
-81.529
0
LINE
8
1
10
7.808
20
-81.529
11
7.754
21
-78.363
0
LINE
8
1
10
7.754
20
-78.363
11
10.233
21
-78.309
0
LINE
8
1
10
10.233
20
-78.309
11
12.576
21
-75.853
0
LINE
8
1
10
12.576
20
-75.853
11
9.824
21
-72.732
0
LINE
8
1
10
-9.554
20
-76.45
11
-11.699
21
-76.375
0
LINE
8
1
10
-11.699
20
-76.375
11
-11.617
21
-74.033
0
LINE
8
1
10
-11.617
20
-74.033
11
-9.052
21
-74.13
0
LINE
8
1
10
-9.052
20
-74.13
11
-8.442
21
-76.174
0
LINE
8
1
10
-8.442
20
-76.174
11
-9.554
21
-76.45
0
LINE
8
1
10
-6.259
20
-75.184
11
-8.145
21
-72.714
0
LINE
8
1
10
-8.145
20
-72.714
11
-13.36
21
-72.46
0
LINE
8
1
10
-13.36
20
-72.46
11
-13.666
21
-81.209
0
LINE
8
1
10
-13.666
20
-81.209
11
-11.869
21
-81.271
0
LINE
8
1
10
-11.869
20
-81.271
11
-11.753
21
-77.846
0
LINE
8
1
10
-11.753
20
-77.846
11
-9.21
21
-77.979
0
LINE
8
1
10
-9.21
20
-77.979
11
-8.503
21
-78.858
0
LINE
8
1
10
-8.503
20
-78.858
11
-8.481
21
-80.692
0
LINE
8
1
10
-8.481
20
-80.692
11
-6.34
21
-81.468
0
LINE
8
1
10
-6.34
20
-81.468
11
-6.665
21
-78.571
0
LINE
8
1
10
-6.665
20
-78.571
11
-7.688
21
-77.219
0
LINE
8
1
10
-7.688
20
-77.219
11
-6.375
21
-75.871
0
LINE
8
1
10
-6.375
20
-75.871
11
-6.259
21
-75.184
0
LINE
8
1
10
27.765
20
-75.742
11
25.62
21
-75.899
0
LINE
8
1
10
25.62
20
-75.899
11
25.45
21
-73.563
0
LINE
8
1
10
25.45
20
-73.563
11
28.009
21
-73.379
0
LINE
8
1
10
28.009
20
-73.379
11
28.839
21
-75.347
0
LINE
8
1
10
28.839
20
-75.347
11
27.765
21
-75.742
0
LINE
8
1
10
16.197
20
-72.535
11
13.453
21
-81.42
0
LINE
8
1
10
13.453
20
-81.42
11
15.38
21
-81.345
0
LINE
8
1
10
15.38
20
-81.345
11
15.911
21
-79.514
0
LINE
8
1
10
15.911
20
-79.514
11
19.145
21
-79.371
0
LINE
8
1
10
19.145
20
-79.371
11
19.778
21
-81.155
0
LINE
8
1
10
19.778
20
-81.155
11
21.766
21
-81.066
0
LINE
8
1
10
21.766
20
-81.066
11
18.307
21
-72.446
0
LINE
8
1
10
18.307
20
-72.446
11
16.197
21
-72.535
0
LINE
8
1
10
50.199
20
-73.577
11
49.118
21
-70.921
0
LINE
8
1
10
49.118
20
-70.921
11
47.114
21
-69.902
0
LINE
8
1
10
47.114
20
-69.902
11
46.107
21
-69.927
0
LINE
8
1
10
46.107
20
-69.927
11
42.274
21
-70.452
0
LINE
8
1
10
42.274
20
-70.452
11
43.466
21
-79.133
0
LINE
8
1
10
43.466
20
-79.133
11
47.224
21
-78.615
0
LINE
8
1
10
47.224
20
-78.615
11
50.129
21
-75.885
0
LINE
8
1
10
50.129
20
-75.885
11
50.199
21
-73.577
0
LINE
8
1
10
61.658
20
-68.552
11
59.076
21
-72.239
0
LINE
8
1
10
59.076
20
-72.239
11
57.948
21
-76.355
0
LINE
8
1
10
57.948
20
-76.355
11
54.537
21
-80.985
0
LINE
8
1
10
54.537
20
-80.985
11
-47.177
21
-82.013
0
LINE
8
1
10
-47.177
20
-82.013
11
-53.708
21
-80.985
0
LINE
8
1
10
-53.708
20
-80.985
11
-57.159
21
-76.155
0
LINE
8
1
10
-57.159
20
-76.155
11
-59.353
21
-70.436
0
LINE
8
1
10
-59.353
20
-70.436
11
-61.292
21
-67.965
0
LINE
8
1
10
-61.292
20
-67.965
11
-64.01
21
-63.282
0
LINE
8
1
10
-64.01
20
-63.282
11
-35.714
21
-67.808
0
LINE
8
1
10
-35.714
20
-67.808
11
32.345
21
-68.365
0
LINE
8
1
10
32.345
20
-68.365
11
36.936
21
-67.748
0
LINE
8
1
10
36.936
20
-67.748
11
64.831
21
-63.282
0
LINE
8
1
10
64.831
20
-63.282
11
62.574
21
-67.321
0
LINE
8
1
10
62.574
20
-67.321
11
61.658
21
-68.552
0
LINE
8
1
10
66.111
20
-55.146
11
41.164
21
-59.197
0
LINE
8
1
10
41.164
20
-59.197
11
41.11
21
-54.853
0
LINE
8
1
10
41.11
20
-54.853
11
52.068
21
-51.943
0
LINE
8
1
10
52.068
20
-51.943
11
72.702
21
-45.416
0
LINE
8
1
10
72.702
20
-45.416
11
69.953
21
-51.839
0
LINE
8
1
10
69.953
20
-51.839
11
67.033
21
-54.676
0
LINE
8
1
10
67.033
20
-54.676
11
66.111
21
-55.146
0
LINE
8
1
10
65.975
20
-60.477
11
40.899
21
-64.487
0
LINE
8
1
10
40.899
20
-64.487
11
41.089
21
-61.838
0
LINE
8
1
10
41.089
20
-61.838
11
66.581
21
-57.692
0
LINE
8
1
10
66.581
20
-57.692
11
65.975
21
-60.477
0
LINE
8
1
10
110.865
20
-62.485
11
112.092
21
-59.914
0
LINE
8
1
10
112.092
20
-59.914
11
115.17
21
-58.559
0
LINE
8
1
10
115.17
20
-58.559
11
116.255
21
-58.724
0
LINE
8
1
10
116.255
20
-58.724
11
121.561
21
-60.756
0
LINE
8
1
10
121.561
20
-60.756
11
122.947
21
-62.005
0
LINE
8
1
10
122.947
20
-62.005
11
123.47
21
-64.544
0
LINE
8
1
10
123.47
20
-64.544
11
122.78
21
-66.85
0
LINE
8
1
10
122.78
20
-66.85
11
110.865
21
-62.485
0
LINE
8
1
10
106.732
20
-60.109
11
104.37
21
-66.571
0
LINE
8
1
10
104.37
20
-66.571
11
143.731
21
-80.971
0
LINE
8
1
10
143.731
20
-80.971
11
145.814
21
-75.265
0
LINE
8
1
10
145.814
20
-75.265
11
127.192
21
-68.457
0
LINE
8
1
10
127.192
20
-68.457
11
127.88
21
-66.577
0
LINE
8
1
10
127.88
20
-66.577
11
129.915
21
-64.781
0
LINE
8
1
10
129.915
20
-64.781
11
132.865
21
-64.755
0
LINE
8
1
10
132.865
20
-64.755
11
134.096
21
-65.12
0
LINE
8
1
10
134.096
20
-65.12
11
142.75
21
-68.286
0
LINE
8
1
10
142.75
20
-68.286
11
146.568
21
-69.252
0
LINE
8
1
10
146.568
20
-69.252
11
147.986
21
-69.314
0
LINE
8
1
10
147.986
20
-69.314
11
150.056
21
-63.67
0
LINE
8
1
10
150.056
20
-63.67
11
144.834
21
-62.581
0
LINE
8
1
10
144.834
20
-62.581
11
135.484
21
-59.16
0
LINE
8
1
10
135.484
20
-59.16
11
131.531
21
-58.477
0
LINE
8
1
10
131.531
20
-58.477
11
128.064
21
-60.683
0
LINE
8
1
10
128.064
20
-60.683
11
127.594
21
-61.675
0
LINE
8
1
10
127.594
20
-61.675
11
126.015
21
-61.246
0
LINE
8
1
10
126.015
20
-61.246
11
124.234
21
-56.096
0
LINE
8
1
10
124.234
20
-56.096
11
120.985
21
-53.94
0
LINE
8
1
10
120.985
20
-53.94
11
115.109
21
-52.172
0
LINE
8
1
10
115.109
20
-52.172
11
111.685
21
-52.646
0
LINE
8
1
10
111.685
20
-52.646
11
108.843
21
-55.355
0
LINE
8
1
10
108.843
20
-55.355
11
106.732
21
-60.109
0
LINE
8
1
10
-140.431
20
-38.628
11
-155.404
21
-41.814
0
LINE
8
1
10
-155.404
20
-41.814
11
-154.144
21
-47.751
0
LINE
8
1
10
-154.144
20
-47.751
11
-139.172
21
-44.565
0
LINE
8
1
10
-139.172
20
-44.565
11
-111.848
21
-45.13
0
LINE
8
1
10
-111.848
20
-45.13
11
-113.06
21
-39.458
0
LINE
8
1
10
-113.06
20
-39.458
11
-129.884
21
-40.296
0
LINE
8
1
10
-129.884
20
-40.296
11
-130.211
21
-38.737
0
LINE
8
1
10
-130.211
20
-38.737
11
-114.517
21
-32.643
0
LINE
8
1
10
-114.517
20
-32.643
11
-115.722
21
-26.971
0
LINE
8
1
10
-115.722
20
-26.971
11
-140.431
21
-38.628
0
LINE
8
1
10
-154.314
20
-15.532
11
-152.888
21
-13.082
0
LINE
8
1
10
-152.888
20
-13.082
11
-150.345
21
-12.462
0
LINE
8
1
10
-150.345
20
-12.462
11
-126.01
21
-10.691
0
LINE
8
1
10
-126.01
20
-10.691
11
-123.125
21
-11.027
0
LINE
8
1
10
-123.125
20
-11.027
11
-123.128
21
-15.643
0
LINE
8
1
10
-123.128
20
-15.643
11
-125.609
21
-16.22
0
LINE
8
1
10
-125.609
20
-16.22
11
-150.553
21
-18.035
0
LINE
8
1
10
-150.553
20
-18.035
11
-152.935
21
-17.598
0
LINE
8
1
10
-152.935
20
-17.598
11
-154.314
21
-15.532
0
LINE
8
1
10
-71.874
20
-45.416
11
-48.518
21
-52.739
0
LINE
8
1
10
-48.518
20
-52.739
11
-40.282
21
-54.853
0
LINE
8
1
10
-40.282
20
-54.853
11
-40.336
21
-59.197
0
LINE
8
1
10
-40.336
20
-59.197
11
-65.29
21
-55.146
0
LINE
8
1
10
-65.29
20
-55.146
11
-68.664
21
-52.411
0
LINE
8
1
10
-68.664
20
-52.411
11
-71.332
21
-47.335
0
LINE
8
1
10
-71.332
20
-47.335
11
-71.874
21
-45.416
0
LINE
8
1
10
-15.457
20
-33.923
11
-16.982
21
-35.441
0
LINE
8
1
10
-16.982
20
-35.441
11
-16.982
21
-43.489
0
LINE
8
1
10
-16.982
20
-43.489
11
-15.457
21
-45.014
0
LINE
8
1
10
-15.457
20
-45.014
11
-13.932
21
-43.489
0
LINE
8
1
10
-13.932
20
-43.489
11
-13.932
21
-35.448
0
LINE
8
1
10
-13.932
20
-35.448
11
-15.457
21
-33.923
0
LINE
8
1
10
-22.102
20
-43.496
11
-20.574
21
-45.021
0
LINE
8
1
10
-20.574
20
-45.021
11
-19.045
21
-43.496
0
LINE
8
1
10
-19.045
20
-43.496
11
-19.045
21
-36.142
0
LINE
8
1
10
-19.045
20
-36.142
11
-22.096
21
-39.077
0
LINE
8
1
10
-22.096
20
-39.077
11
-22.096
21
-43.496
0
LINE
8
1
10
-22.096
20
-43.496
11
-22.102
21
-43.496
0
LINE
8
1
10
-28.802
20
-41.337
11
-32.392
21
-39.86
0
LINE
8
1
10
-32.392
20
-39.86
11
-33.527
21
-38.764
0
LINE
8
1
10
-33.527
20
-38.764
11
-34.637
21
-38.879
0
LINE
8
1
10
-34.637
20
-38.879
11
-34.637
21
-50.815
0
LINE
8
1
10
-34.637
20
-50.815
11
-33.189
21
-50.055
0
LINE
8
1
10
-33.189
20
-50.055
11
-31.468
21
-50.285
0
LINE
8
1
10
-31.468
20
-50.285
11
-31.519
21
-52.02
0
LINE
8
1
10
-31.519
20
-52.02
11
-29.244
21
-52.432
0
LINE
8
1
10
-29.244
20
-52.432
11
-27.767
21
-51.129
0
LINE
8
1
10
-27.767
20
-51.129
11
-26.358
21
-50.283
0
LINE
8
1
10
-26.358
20
-50.283
11
-25.228
21
-51.476
0
LINE
8
1
10
-25.228
20
-51.476
11
-26.562
21
-53.879
0
LINE
8
1
10
-26.562
20
-53.879
11
-20.387
21
-56.26
0
LINE
8
1
10
-20.387
20
-56.26
11
-18.167
21
-55.37
0
LINE
8
1
10
-18.167
20
-55.37
11
-16.274
21
-56.317
0
LINE
8
1
10
-16.274
20
-56.317
11
-14.791
21
-58.877
0
LINE
8
1
10
-14.791
20
-58.877
11
-12.738
21
-59.342
0
LINE
8
1
10
-12.738
20
-59.342
11
-10.357
21
-58.659
0
LINE
8
1
10
-10.357
20
-58.659
11
-10.351
21
-48.371
0
LINE
8
1
10
-10.351
20
-48.371
11
-11.311
21
-48.371
0
LINE
8
1
10
-11.311
20
-48.371
11
-11.311
21
-52.742
0
LINE
8
1
10
-11.311
20
-52.742
11
-12.836
21
-54.262
0
LINE
8
1
10
-12.836
20
-54.262
11
-14.361
21
-52.742
0
LINE
8
1
10
-14.361
20
-52.742
11
-14.361
21
-48.371
0
LINE
8
1
10
-14.361
20
-48.371
11
-19.331
21
-48.371
0
LINE
8
1
10
-19.331
20
-48.371
11
-19.331
21
-51.319
0
LINE
8
1
10
-19.331
20
-51.319
11
-20.86
21
-52.848
0
LINE
8
1
10
-20.86
20
-52.848
11
-22.388
21
-51.319
0
LINE
8
1
10
-22.388
20
-51.319
11
-22.388
21
-48.371
0
LINE
8
1
10
-22.388
20
-48.371
11
-32.186
21
-48.371
0
LINE
8
1
10
-32.186
20
-48.371
11
-33.46
21
-47.331
0
LINE
8
1
10
-33.46
20
-47.331
11
-32.693
21
-45.877
0
LINE
8
1
10
-32.693
20
-45.877
11
-23.498
21
-45.777
0
LINE
8
1
10
-23.498
20
-45.777
11
-23.498
21
-39.39
0
LINE
8
1
10
-23.498
20
-39.39
11
-27.454
21
-41.295
0
LINE
8
1
10
-27.454
20
-41.295
11
-28.802
21
-41.337
0
LINE
8
1
10
-35.1
20
-33.97
11
-27.461
21
-25.153
0
LINE
8
1
10
-27.461
20
-25.153
11
-24.85
21
-21.63
0
LINE
8
1
10
-24.85
20
-21.63
11
-21.398
21
-14.108
0
LINE
8
1
10
-21.398
20
-14.108
11
-18.155
21
-4.484
0
LINE
8
1
10
-18.155
20
-4.484
11
-11.882
21
0.094
0
LINE
8
1
10
-11.882
20
0.094
11
-10.514
21
0.073
0
LINE
8
1
10
-10.514
20
0.073
11
-3.766
21
-7.452
0
LINE
8
1
10
-3.766
20
-7.452
11
-3.589
21
-8.744
0
LINE
8
1
10
-3.589
20
-8.744
11
-1.942
21
-36.074
0
LINE
8
1
10
-1.942
20
-36.074
11
-4.398
21
-36.099
0
LINE
8
1
10
-4.398
20
-36.099
11
-5.222
21
-35.322
0
LINE
8
1
10
-5.222
20
-35.322
11
-5.87
21
-33.78
0
LINE
8
1
10
-5.87
20
-33.78
11
-5.149
21
-13.02
0
LINE
8
1
10
-5.149
20
-13.02
11
-6.165
21
-11.734
0
LINE
8
1
10
-6.165
20
-11.734
11
-7.627
21
-12.475
0
LINE
8
1
10
-7.627
20
-12.475
11
-8.43
21
-32.82
0
LINE
8
1
10
-8.43
20
-32.82
11
-11.815
21
-29.939
0
LINE
8
1
10
-11.815
20
-29.939
11
-12.393
21
-27.373
0
LINE
8
1
10
-12.393
20
-27.373
11
-10.899
21
-22.245
0
LINE
8
1
10
-10.899
20
-22.245
11
-10.752
21
-19.849
0
LINE
8
1
10
-10.752
20
-19.849
11
-12.039
21
-18.552
0
LINE
8
1
10
-12.039
20
-18.552
11
-13.34
21
-19.835
0
LINE
8
1
10
-13.34
20
-19.835
11
-14.077
21
-22.814
0
LINE
8
1
10
-14.077
20
-22.814
11
-15.886
21
-26.196
0
LINE
8
1
10
-15.886
20
-26.196
11
-24.749
21
-37.074
0
LINE
8
1
10
-24.749
20
-37.074
11
-27.446
21
-38.657
0
LINE
8
1
10
-27.446
20
-38.657
11
-30.886
21
-37.742
0
LINE
8
1
10
-30.886
20
-37.742
11
-26.975
21
-34.307
0
LINE
8
1
10
-26.975
20
-34.307
11
-15.675
21
-16.892
0
LINE
8
1
10
-15.675
20
-16.892
11
-13.013
21
-10.514
0
LINE
8
1
10
-13.013
20
-10.514
11
-13.852
21
-8.952
0
LINE
8
1
10
-13.852
20
-8.952
11
-15.471
21
-9.677
0
LINE
8
1
10
-15.471
20
-9.677
11
-20.122
21
-19.733
0
LINE
8
1
10
-20.122
20
-19.733
11
-29.156
21
-32.869
0
LINE
8
1
10
-29.156
20
-32.869
11
-32.401
21
-35.639
0
LINE
8
1
10
-32.401
20
-35.639
11
-34.65
21
-36.302
0
LINE
8
1
10
-34.65
20
-36.302
11
-35.589
21
-35.646
0
LINE
8
1
10
-35.589
20
-35.646
11
-35.1
21
-33.97
0
LINE
8
1
10
-25.602
20
-17.446
11
-28.295
21
-22.149
0
LINE
8
1
10
-28.295
20
-22.149
11
-30.756
21
-24.84
0
LINE
8
1
10
-30.756
20
-24.84
11
-31.183
21
-19.923
0
LINE
8
1
10
-31.183
20
-19.923
11
-30.906
21
-17.439
0
LINE
8
1
10
-30.906
20
-17.439
11
-25.602
21
-17.446
0
LINE
8
1
10
-11.862
20
-43.496
11
-10.337
21
-45.016
0
LINE
8
1
10
-10.337
20
-45.016
11
-8.812
21
-43.496
0
LINE
8
1
10
-8.812
20
-43.496
11
-8.812
21
-36.885
0
LINE
8
1
10
-8.812
20
-36.885
11
-11.862
21
-35.448
0
LINE
8
1
10
-11.862
20
-35.448
11
-11.862
21
-43.496
0
LINE
8
1
10
4.962
20
-38.553
11
2.915
21
-38.852
0
LINE
8
1
10
2.915
20
-38.852
11
-0.158
21
-38.062
0
LINE
8
1
10
-0.158
20
-38.062
11
-3.937
21
-38.855
0
LINE
8
1
10
-3.937
20
-38.855
11
-7.405
21
-36.743
0
LINE
8
1
10
-7.405
20
-36.743
11
-7.906
21
-35.829
0
LINE
8
1
10
-7.906
20
-35.829
11
-7.906
21
-45.784
0
LINE
8
1
10
-7.906
20
-45.784
11
7.584
21
-45.784
0
LINE
8
1
10
7.584
20
-45.784
11
7.584
21
-35.829
0
LINE
8
1
10
7.584
20
-35.829
11
4.962
21
-38.553
0
LINE
8
1
10
8.496
20
-43.496
11
10.021
21
-45.021
0
LINE
8
1
10
10.021
20
-45.021
11
11.546
21
-43.496
0
LINE
8
1
10
11.546
20
-43.496
11
11.546
21
-35.448
0
LINE
8
1
10
11.546
20
-35.448
11
8.496
21
-36.885
0
LINE
8
1
10
8.496
20
-36.885
11
8.496
21
-43.496
0
LINE
8
1
10
25.286
20
-17.446
11
30.583
21
-17.439
0
LINE
8
1
10
30.583
20
-17.439
11
30.718
21
-23.554
0
LINE
8
1
10
30.718
20
-23.554
11
30.434
21
-24.84
0
LINE
8
1
10
30.434
20
-24.84
11
28.482
21
-22.786
0
LINE
8
1
10
28.482
20
-22.786
11
26.602
21
-20.024
0
LINE
8
1
10
26.602
20
-20.024
11
25.286
21
-17.446
0
LINE
8
1
10
18.729
20
-43.496
11
20.255
21
-45.016
0
LINE
8
1
10
20.255
20
-45.016
11
21.78
21
-43.496
0
LINE
8
1
10
21.78
20
-43.496
11
21.78
21
-39.084
0
LINE
8
1
10
21.78
20
-39.084
11
18.729
21
-36.142
0
LINE
8
1
10
18.729
20
-36.142
11
18.729
21
-43.496
0
LINE
8
1
10
15.134
20
-33.923
11
13.609
21
-35.441
0
LINE
8
1
10
13.609
20
-35.441
11
13.609
21
-43.489
0
LINE
8
1
10
13.609
20
-43.489
11
15.134
21
-45.014
0
LINE
8
1
10
15.134
20
-45.014
11
16.66
21
-43.489
0
LINE
8
1
10
16.66
20
-43.489
11
16.66
21
-35.448
0
LINE
8
1
10
16.66
20
-35.448
11
15.134
21
-33.923
0
LINE
8
1
10
33.205
20
-38.764
11
24.616
21
-40.396
0
LINE
8
1
10
24.616
20
-40.396
11
22.719
21
-38.995
0
LINE
8
1
10
22.719
20
-38.995
11
22.719
21
-45.777
0
LINE
8
1
10
22.719
20
-45.777
11
31.87
21
-45.777
0
LINE
8
1
10
31.87
20
-45.777
11
33.167
21
-47.074
0
LINE
8
1
10
33.167
20
-47.074
11
31.87
21
-48.371
0
LINE
8
1
10
31.87
20
-48.371
11
22.066
21
-48.371
0
LINE
8
1
10
22.066
20
-48.371
11
22.066
21
-51.319
0
LINE
8
1
10
22.066
20
-51.319
11
20.541
21
-52.844
0
LINE
8
1
10
20.541
20
-52.844
11
19.015
21
-51.319
0
LINE
8
1
10
19.015
20
-51.319
11
19.015
21
-48.371
0
LINE
8
1
10
19.015
20
-48.371
11
14.031
21
-48.371
0
LINE
8
1
10
14.031
20
-48.371
11
14.031
21
-52.742
0
LINE
8
1
10
14.031
20
-52.742
11
12.506
21
-54.263
0
LINE
8
1
10
12.506
20
-54.263
11
10.981
21
-52.742
0
LINE
8
1
10
10.981
20
-52.742
11
10.981
21
-48.371
0
LINE
8
1
10
10.981
20
-48.371
11
10.028
21
-48.371
0
LINE
8
1
10
10.028
20
-48.371
11
10.028
21
-58.659
0
LINE
8
1
10
10.028
20
-58.659
11
13.32
21
-59.327
0
LINE
8
1
10
13.32
20
-59.327
11
15.074
21
-58.29
0
LINE
8
1
10
15.074
20
-58.29
11
16.028
21
-56.02
0
LINE
8
1
10
16.028
20
-56.02
11
17.831
21
-55.37
0
LINE
8
1
10
17.831
20
-55.37
11
21.976
21
-56.471
0
LINE
8
1
10
21.976
20
-56.471
11
25.47
21
-54.815
0
LINE
8
1
10
25.47
20
-54.815
11
26.233
21
-53.879
0
LINE
8
1
10
26.233
20
-53.879
11
24.923
21
-51.81
0
LINE
8
1
10
24.923
20
-51.81
11
25.818
21
-50.32
0
LINE
8
1
10
25.818
20
-50.32
11
27.39
21
-51.06
0
LINE
8
1
10
27.39
20
-51.06
11
28.373
21
-52.26
0
LINE
8
1
10
28.373
20
-52.26
11
29.903
21
-52.406
0
LINE
8
1
10
29.903
20
-52.406
11
31.196
21
-52.02
0
LINE
8
1
10
31.196
20
-52.02
11
31.099
21
-50.243
0
LINE
8
1
10
31.099
20
-50.243
11
32.868
21
-50.046
0
LINE
8
1
10
32.868
20
-50.046
11
34.308
21
-50.815
0
LINE
8
1
10
34.308
20
-50.815
11
34.308
21
-38.879
0
LINE
8
1
10
34.308
20
-38.879
11
33.205
21
-38.764
0
LINE
8
1
10
34.771
20
-33.97
11
35.175
21
-36.107
0
LINE
8
1
10
35.175
20
-36.107
11
32.63
21
-35.898
0
LINE
8
1
10
32.63
20
-35.898
11
29.558
21
-33.658
0
LINE
8
1
10
29.558
20
-33.658
11
26.551
21
-29.977
0
LINE
8
1
10
26.551
20
-29.977
11
17.014
21
-14.338
0
LINE
8
1
10
17.014
20
-14.338
11
15.148
21
-9.684
0
LINE
8
1
10
15.148
20
-9.684
11
13.755
21
-8.814
0
LINE
8
1
10
13.755
20
-8.814
11
12.629
21
-10.009
0
LINE
8
1
10
12.629
20
-10.009
11
17.464
21
-20.894
0
LINE
8
1
10
17.464
20
-20.894
11
26.657
21
-34.312
0
LINE
8
1
10
26.657
20
-34.312
11
30.563
21
-37.742
0
LINE
8
1
10
30.563
20
-37.742
11
26.049
21
-38.238
0
LINE
8
1
10
26.049
20
-38.238
11
23.959
21
-36.605
0
LINE
8
1
10
23.959
20
-36.605
11
16.695
21
-27.909
0
LINE
8
1
10
16.695
20
-27.909
11
13.711
21
-22.735
0
LINE
8
1
10
13.711
20
-22.735
11
13.056
21
-20.388
0
LINE
8
1
10
13.056
20
-20.388
11
11.213
21
-18.741
0
LINE
8
1
10
11.213
20
-18.741
11
10.43
21
-19.863
0
LINE
8
1
10
10.43
20
-19.863
11
11.428
21
-25.923
0
LINE
8
1
10
11.428
20
-25.923
11
12.071
21
-27.38
0
LINE
8
1
10
12.071
20
-27.38
11
10.882
21
-30.794
0
LINE
8
1
10
10.882
20
-30.794
11
8.101
21
-32.827
0
LINE
8
1
10
8.101
20
-32.827
11
7.413
21
-12.979
0
LINE
8
1
10
7.413
20
-12.979
11
6.096
21
-11.728
0
LINE
8
1
10
6.096
20
-11.728
11
4.819
21
-13.02
0
LINE
8
1
10
4.819
20
-13.02
11
5.548
21
-33.787
0
LINE
8
1
10
5.548
20
-33.787
11
4.437
21
-35.851
0
LINE
8
1
10
4.437
20
-35.851
11
2.749
21
-36.334
0
LINE
8
1
10
2.749
20
-36.334
11
1.612
21
-36.074
0
LINE
8
1
10
1.612
20
-36.074
11
3.267
21
-8.751
0
LINE
8
1
10
3.267
20
-8.751
11
8.738
21
-0.452
0
LINE
8
1
10
8.738
20
-0.452
11
10.185
21
0.066
0
LINE
8
1
10
10.185
20
0.066
11
18.042
21
-5.122
0
LINE
8
1
10
18.042
20
-5.122
11
22.256
21
-17.074
0
LINE
8
1
10
22.256
20
-17.074
11
25.09
21
-22.571
0
LINE
8
1
10
25.09
20
-22.571
11
27.131
21
-25.153
0
LINE
8
1
10
27.131
20
-25.153
11
34.771
21
-33.97
0
LINE
8
1
10
111.954
20
-43.898
11
152.664
21
-53.865
0
LINE
8
1
10
152.664
20
-53.865
11
154.107
21
-47.969
0
LINE
8
1
10
154.107
20
-47.969
11
113.398
21
-38.001
0
LINE
8
1
10
113.398
20
-38.001
11
111.954
21
-43.898
0
LINE
8
1
10
115.148
20
-23.253
11
118.77
21
-31.367
0
LINE
8
1
10
118.77
20
-31.367
11
121.839
21
-32.721
0
LINE
8
1
10
121.839
20
-32.721
11
125.803
21
-33.569
0
LINE
8
1
10
125.803
20
-33.569
11
146.503
21
-36.354
0
LINE
8
1
10
146.503
20
-36.354
11
152.849
21
-35.927
0
LINE
8
1
10
152.849
20
-35.927
11
158.217
21
-30.075
0
LINE
8
1
10
158.217
20
-30.075
11
158.194
21
-24.97
0
LINE
8
1
10
158.194
20
-24.97
11
154.751
21
-20.691
0
LINE
8
1
10
154.751
20
-20.691
11
149.473
21
-18.912
0
LINE
8
1
10
149.473
20
-18.912
11
143.486
21
-18.092
0
LINE
8
1
10
143.486
20
-18.092
11
142.682
21
-24.071
0
LINE
8
1
10
142.682
20
-24.071
11
149.866
21
-25.088
0
LINE
8
1
10
149.866
20
-25.088
11
151.976
21
-25.914
0
LINE
8
1
10
151.976
20
-25.914
11
151.049
21
-30.438
0
LINE
8
1
10
151.049
20
-30.438
11
148.49
21
-30.491
0
LINE
8
1
10
148.49
20
-30.491
11
123.705
21
-27.156
0
LINE
8
1
10
123.705
20
-27.156
11
121.459
21
-26.246
0
LINE
8
1
10
121.459
20
-26.246
11
122.517
21
-21.793
0
LINE
8
1
10
122.517
20
-21.793
11
124.417
21
-21.659
0
LINE
8
1
10
124.417
20
-21.659
11
130.215
21
-22.43
0
LINE
8
1
10
130.215
20
-22.43
11
131.019
21
-16.418
0
LINE
8
1
10
131.019
20
-16.418
11
125.067
21
-15.673
0
LINE
8
1
10
125.067
20
-15.673
11
120.621
21
-15.986
0
LINE
8
1
10
120.621
20
-15.986
11
115.67
21
-20.788
0
LINE
8
1
10
115.67
20
-20.788
11
115.148
21
-23.253
0
LINE
8
1
10
-158.93
20
15.223
11
-158.917
21
9.401
0
LINE
8
1
10
-158.917
20
9.401
11
-155.563
21
5.149
0
LINE
8
1
10
-155.563
20
5.149
11
-153.187
21
4.42
0
LINE
8
1
10
-153.187
20
4.42
11
-143.141
21
3.742
0
LINE
8
1
10
-143.141
20
3.742
11
-140.01
21
4.553
0
LINE
8
1
10
-140.01
20
4.553
11
-138.193
21
7.121
0
LINE
8
1
10
-138.193
20
7.121
11
-138.062
21
8.57
0
LINE
8
1
10
-138.062
20
8.57
11
-136.203
21
8.455
0
LINE
8
1
10
-136.203
20
8.455
11
-133.24
21
3.723
0
LINE
8
1
10
-133.24
20
3.723
11
-130.416
21
2.853
0
LINE
8
1
10
-130.416
20
2.853
11
-122.343
21
2.809
0
LINE
8
1
10
-122.343
20
2.809
11
-118.065
21
6.339
0
LINE
8
1
10
-118.065
20
6.339
11
-117.278
21
10.172
0
LINE
8
1
10
-117.278
20
10.172
11
-116.676
21
19.58
0
LINE
8
1
10
-116.676
20
19.58
11
-158.508
21
22.133
0
LINE
8
1
10
-158.508
20
22.133
11
-158.93
21
15.223
0
LINE
8
1
10
-146.79
20
9.776
11
-151.345
21
10.293
0
LINE
8
1
10
-151.345
20
10.293
11
-152.997
21
11.037
0
LINE
8
1
10
-152.997
20
11.037
11
-154.335
21
13.595
0
LINE
8
1
10
-154.335
20
13.595
11
-154.103
21
15.781
0
LINE
8
1
10
-154.103
20
15.781
11
-139.328
21
14.882
0
LINE
8
1
10
-139.328
20
14.882
11
-139.699
21
11.824
0
LINE
8
1
10
-139.699
20
11.824
11
-141.64
21
9.971
0
LINE
8
1
10
-141.64
20
9.971
11
-144.533
21
9.689
0
LINE
8
1
10
-144.533
20
9.689
11
-146.79
21
9.776
0
LINE
8
1
10
-128.761
20
-4.802
11
-148.479
21
-6.238
0
LINE
8
1
10
-148.479
20
-6.238
11
-154.512
21
-7.469
0
LINE
8
1
10
-154.512
20
-7.469
11
-157.773
21
-9.601
0
LINE
8
1
10
-157.773
20
-9.601
11
-159.728
21
-14.178
0
LINE
8
1
10
-159.728
20
-14.178
11
-158.663
21
-19.8
0
LINE
8
1
10
-158.663
20
-19.8
11
-154.837
21
-23.051
0
LINE
8
1
10
-154.837
20
-23.051
11
-150.644
21
-23.907
0
LINE
8
1
10
-150.644
20
-23.907
11
-147.192
21
-23.88
0
LINE
8
1
10
-147.192
20
-23.88
11
-126.358
21
-22.361
0
LINE
8
1
10
-126.358
20
-22.361
11
-120.256
21
-20.646
0
LINE
8
1
10
-120.256
20
-20.646
11
-116.192
21
-14.01
0
LINE
8
1
10
-116.192
20
-14.01
11
-117.063
21
-9.332
0
LINE
8
1
10
-117.063
20
-9.332
11
-121.44
21
-5.523
0
LINE
8
1
10
-121.44
20
-5.523
11
-125.975
21
-4.739
0
LINE
8
1
10
-125.975
20
-4.739
11
-128.761
21
-4.802
0
LINE
8
1
10
-134.719
20
12.887
11
-134.671
21
14.555
0
LINE
8
1
10
-134.671
20
14.555
11
-121.796
21
13.813
0
LINE
8
1
10
-121.796
20
13.813
11
-122.013
21
10.978
0
LINE
8
1
10
-122.013
20
10.978
11
-123.84
21
8.947
0
LINE
8
1
10
-123.84
20
8.947
11
-126.718
21
8.583
0
LINE
8
1
10
-126.718
20
8.583
11
-131.751
21
9.049
0
LINE
8
1
10
-131.751
20
9.049
11
-133.714
21
9.854
0
LINE
8
1
10
-133.714
20
9.854
11
-134.675
21
11.521
0
LINE
8
1
10
-134.675
20
11.521
11
-134.719
21
12.887
0
LINE
8
1
10
-37.865
20
-12.182
11
-38.893
21
-8.608
0
LINE
8
1
10
-38.893
20
-8.608
11
-32.712
21
-7.531
0
LINE
8
1
10
-32.712
20
-7.531
11
-27.338
21
-5.789
0
LINE
8
1
10
-27.338
20
-5.789
11
-23.592
21
-7.571
0
LINE
8
1
10
-23.592
20
-7.571
11
-21.959
21
-7.866
0
LINE
8
1
10
-21.959
20
-7.866
11
-24.438
21
-14.756
0
LINE
8
1
10
-24.438
20
-14.756
11
-32.121
21
-14.723
0
LINE
8
1
10
-32.121
20
-14.723
11
-35.833
21
-13.682
0
LINE
8
1
10
-35.833
20
-13.682
11
-37.865
21
-12.182
0
LINE
8
1
10
-47.111
20
-3.168
11
-47.342
21
-1.408
0
LINE
8
1
10
-47.342
20
-1.408
11
-37.506
21
-0.796
0
LINE
8
1
10
-37.506
20
-0.796
11
-29.449
21
-0.955
0
LINE
8
1
10
-29.449
20
-0.955
11
-28.972
21
-3.624
0
LINE
8
1
10
-28.972
20
-3.624
11
-40.648
21
-5.536
0
LINE
8
1
10
-40.648
20
-5.536
11
-44.726
21
-4.781
0
LINE
8
1
10
-44.726
20
-4.781
11
-46.555
21
-3.817
0
LINE
8
1
10
-46.555
20
-3.817
11
-47.111
21
-3.168
0
LINE
8
1
10
-54.063
20
8.884
11
-53.215
21
9.765
0
LINE
8
1
10
-53.215
20
9.765
11
-50.645
21
10.954
0
LINE
8
1
10
-50.645
20
10.954
11
-44.598
21
9.908
0
LINE
8
1
10
-44.598
20
9.908
11
-40.384
21
9.565
0
LINE
8
1
10
-40.384
20
9.565
11
-35.75
21
6.325
0
LINE
8
1
10
-35.75
20
6.325
11
-34.031
21
5.82
0
LINE
8
1
10
-34.031
20
5.82
11
-32.567
21
1.83
0
LINE
8
1
10
-32.567
20
1.83
11
-46.941
21
1.918
0
LINE
8
1
10
-46.941
20
1.918
11
-52.0
21
5.554
0
LINE
8
1
10
-52.0
20
5.554
11
-53.856
21
8.227
0
LINE
8
1
10
-53.856
20
8.227
11
-54.063
21
8.884
0
LINE
8
1
10
-20.053
20
-2.453
11
-21.149
21
-5.333
0
LINE
8
1
10
-21.149
20
-5.333
11
-24.816
21
-4.541
0
LINE
8
1
10
-24.816
20
-4.541
11
-26.574
21
-2.875
0
LINE
8
1
10
-26.574
20
-2.875
11
-26.794
21
-2.031
0
LINE
8
1
10
-26.794
20
-2.031
11
-21.955
21
-2.551
0
LINE
8
1
10
-21.955
20
-2.551
11
-20.053
21
-2.453
0
LINE
8
1
10
-29.476
20
2.191
11
-31.287
21
5.112
0
LINE
8
1
10
-31.287
20
5.112
11
-23.314
21
4.206
0
LINE
8
1
10
-23.314
20
4.206
11
-22.002
21
5.447
0
LINE
8
1
10
-22.002
20
5.447
11
-23.205
21
6.793
0
LINE
8
1
10
-23.205
20
6.793
11
-33.283
21
8.251
0
LINE
8
1
10
-33.283
20
8.251
11
-37.66
21
10.477
0
LINE
8
1
10
-37.66
20
10.477
11
-39.356
21
14.055
0
LINE
8
1
10
-39.356
20
14.055
11
-39.192
21
15.155
0
LINE
8
1
10
-39.192
20
15.155
11
-30.361
21
12.274
0
LINE
8
1
10
-30.361
20
12.274
11
-28.819
21
13.272
0
LINE
8
1
10
-28.819
20
13.272
11
-29.817
21
14.814
0
LINE
8
1
10
-29.817
20
14.814
11
-39.683
21
18.288
0
LINE
8
1
10
-39.683
20
18.288
11
-45.193
21
22.94
0
LINE
8
1
10
-45.193
20
22.94
11
-47.615
21
30.413
0
LINE
8
1
10
-47.615
20
30.413
11
-41.643
21
25.328
0
LINE
8
1
10
-41.643
20
25.328
11
-34.181
21
21.834
0
LINE
8
1
10
-34.181
20
21.834
11
-32.51
21
22.579
0
LINE
8
1
10
-32.51
20
22.579
11
-33.255
21
24.251
0
LINE
8
1
10
-33.255
20
24.251
11
-42.283
21
28.853
0
LINE
8
1
10
-42.283
20
28.853
11
-47.34
21
34.551
0
LINE
8
1
10
-47.34
20
34.551
11
-48.759
21
40.122
0
LINE
8
1
10
-48.759
20
40.122
11
-38.658
21
33.93
0
LINE
8
1
10
-38.658
20
33.93
11
-36.959
21
34.083
0
LINE
8
1
10
-36.959
20
34.083
11
-19.985
21
21.677
0
LINE
8
1
10
-19.985
20
21.677
11
-17.234
21
0.822
0
LINE
8
1
10
-17.234
20
0.822
11
-17.922
21
0.312
0
LINE
8
1
10
-17.922
20
0.312
11
-24.535
21
0.185
0
LINE
8
1
10
-24.535
20
0.185
11
-28.012
21
1.21
0
LINE
8
1
10
-28.012
20
1.21
11
-29.476
21
2.191
0
LINE
8
1
10
10.416
20
13.35
11
12.481
21
10.842
0
LINE
8
1
10
12.481
20
10.842
11
14.879
21
11.267
0
LINE
8
1
10
14.879
20
11.267
11
16.238
21
13.35
0
LINE
8
1
10
16.238
20
13.35
11
10.416
21
13.35
0
LINE
8
1
10
7.849
20
12.846
11
2.028
21
12.846
0
LINE
8
1
10
2.028
20
12.846
11
4.092
21
10.337
0
LINE
8
1
10
4.092
20
10.337
11
6.491
21
10.762
0
LINE
8
1
10
6.491
20
10.762
11
7.849
21
12.846
0
LINE
8
1
10
3.022
20
9.163
11
-2.806
21
9.163
0
LINE
8
1
10
-2.806
20
9.163
11
-0.739
21
6.652
0
LINE
8
1
10
-0.739
20
6.652
11
1.662
21
7.078
0
LINE
8
1
10
1.662
20
7.078
11
3.022
21
9.163
0
LINE
8
1
10
-7.382
20
13.228
11
-5.314
21
10.719
0
LINE
8
1
10
-5.314
20
10.719
11
-2.913
21
11.145
0
LINE
8
1
10
-2.913
20
11.145
11
-1.554
21
13.228
0
LINE
8
1
10
-1.554
20
13.228
11
-7.382
21
13.228
0
LINE
8
1
10
-10.201
20
13.228
11
-16.029
21
13.228
0
LINE
8
1
10
-16.029
20
13.228
11
-13.958
21
10.719
0
LINE
8
1
10
-13.958
20
10.719
11
-11.558
21
11.145
0
LINE
8
1
10
-11.558
20
11.145
11
-10.201
21
13.228
0
LINE
8
1
10
-6.129
20
9.163
11
-11.957
21
9.163
0
LINE
8
1
10
-11.957
20
9.163
11
-9.89
21
6.652
0
LINE
8
1
10
-9.89
20
6.652
11
-7.489
21
7.078
0
LINE
8
1
10
-7.489
20
7.078
11
-6.129
21
9.163
0
LINE
8
1
10
-1.683
20
6.364
11
-7.505
21
6.364
0
LINE
8
1
10
-7.505
20
6.364
11
-5.44
21
3.855
0
LINE
8
1
10
-5.44
20
3.855
11
-3.041
21
4.28
0
LINE
8
1
10
-3.041
20
4.28
11
-1.683
21
6.364
0
LINE
8
1
10
-3.569
20
2.163
11
-1.501
21
-0.345
0
LINE
8
1
10
-1.501
20
-0.345
11
0.9
21
0.08
0
LINE
8
1
10
0.9
20
0.08
11
2.259
21
2.163
0
LINE
8
1
10
2.259
20
2.163
11
-3.569
21
2.163
0
LINE
8
1
10
2.28
20
6.113
11
4.345
21
3.602
0
LINE
8
1
10
4.345
20
3.602
11
6.744
21
4.028
0
LINE
8
1
10
6.744
20
4.028
11
8.101
21
6.113
0
LINE
8
1
10
8.101
20
6.113
11
2.28
21
6.113
0
LINE
8
1
10
10.797
20
6.113
11
12.862
21
3.602
0
LINE
8
1
10
12.862
20
3.602
11
15.26
21
4.028
0
LINE
8
1
10
15.26
20
4.028
11
16.619
21
6.113
0
LINE
8
1
10
16.619
20
6.113
11
10.797
21
6.113
0
LINE
8
1
10
12.677
20
10.048
11
6.855
21
10.048
0
LINE
8
1
10
6.855
20
10.048
11
8.921
21
7.539
0
LINE
8
1
10
8.921
20
7.539
11
11.319
21
7.964
0
LINE
8
1
10
11.319
20
7.964
11
12.677
21
10.048
0
LINE
8
1
10
26.464
20
-2.038
11
24.825
21
-4.361
0
LINE
8
1
10
24.825
20
-4.361
11
22.675
21
-5.084
0
LINE
8
1
10
22.675
20
-5.084
11
20.827
21
-5.34
0
LINE
8
1
10
20.827
20
-5.34
11
19.73
21
-2.46
0
LINE
8
1
10
19.73
20
-2.46
11
24.991
21
-2.342
0
LINE
8
1
10
24.991
20
-2.342
11
26.464
21
-2.038
0
LINE
8
1
10
37.542
20
-12.182
11
34.926
21
-13.924
0
LINE
8
1
10
34.926
20
-13.924
11
30.725
21
-14.842
0
LINE
8
1
10
30.725
20
-14.842
11
24.108
21
-14.763
0
LINE
8
1
10
24.108
20
-14.763
11
21.623
21
-7.866
0
LINE
8
1
10
21.623
20
-7.866
11
25.952
21
-6.531
0
LINE
8
1
10
25.952
20
-6.531
11
27.009
21
-5.789
0
LINE
8
1
10
27.009
20
-5.789
11
36.347
21
-8.383
0
LINE
8
1
10
36.347
20
-8.383
11
38.563
21
-8.615
0
LINE
8
1
10
38.563
20
-8.615
11
37.542
21
-12.182
0
LINE
8
1
10
46.618
20
1.918
11
32.252
21
1.83
0
LINE
8
1
10
32.252
20
1.83
11
33.709
21
5.827
0
LINE
8
1
10
33.709
20
5.827
11
39.22
21
8.644
0
LINE
8
1
10
39.22
20
8.644
11
40.068
21
9.571
0
LINE
8
1
10
40.068
20
9.571
11
50.322
21
10.954
0
LINE
8
1
10
50.322
20
10.954
11
53.152
21
9.596
0
LINE
8
1
10
53.152
20
9.596
11
53.74
21
8.884
0
LINE
8
1
10
53.74
20
8.884
11
51.089
21
4.992
0
LINE
8
1
10
51.089
20
4.992
11
46.618
21
1.918
0
LINE
8
1
10
46.788
20
-3.168
11
46.09
21
-3.918
0
LINE
8
1
10
46.09
20
-3.918
11
44.043
21
-4.883
0
LINE
8
1
10
44.043
20
-4.883
11
38.428
21
-5.55
0
LINE
8
1
10
38.428
20
-5.55
11
28.65
21
-3.624
0
LINE
8
1
10
28.65
20
-3.624
11
29.126
21
-0.955
0
LINE
8
1
10
29.126
20
-0.955
11
46.836
21
-0.669
0
LINE
8
1
10
46.836
20
-0.669
11
47.028
21
-2.473
0
LINE
8
1
10
47.028
20
-2.473
11
46.788
21
-3.168
0
LINE
8
1
10
117.551
20
5.438
11
117.558
21
-3.631
0
LINE
8
1
10
117.558
20
-3.631
11
159.479
21
-8.908
0
LINE
8
1
10
159.479
20
-8.908
11
159.473
21
-4.046
0
LINE
8
1
10
159.473
20
-4.046
11
148.796
21
-2.827
0
LINE
8
1
10
148.796
20
-2.827
11
148.783
21
2.674
0
LINE
8
1
10
148.783
20
2.674
11
159.459
21
3.559
0
LINE
8
1
10
159.459
20
3.559
11
159.452
21
9.565
0
LINE
8
1
10
159.452
20
9.565
11
117.551
21
5.438
0
LINE
8
1
10
123.577
20
-0.798
11
123.57
21
0.815
0
LINE
8
1
10
123.57
20
0.815
11
143.724
21
2.225
0
LINE
8
1
10
143.724
20
2.225
11
143.731
21
-2.153
0
LINE
8
1
10
143.731
20
-2.153
11
123.577
21
-0.798
0
LINE
8
1
10
-63.036
20
32.769
11
-63.084
21
36.044
0
LINE
8
1
10
-63.084
20
36.044
11
-53.951
21
31.266
0
LINE
8
1
10
-53.951
20
31.266
11
-50.202
21
29.786
0
LINE
8
1
10
-50.202
20
29.786
11
-49.346
21
25.083
0
LINE
8
1
10
-49.346
20
25.083
11
-48.05
21
22.59
0
LINE
8
1
10
-48.05
20
22.59
11
-58.016
21
27.272
0
LINE
8
1
10
-58.016
20
27.272
11
-61.641
21
30.417
0
LINE
8
1
10
-61.641
20
30.417
11
-63.036
21
32.769
0
LINE
8
1
10
-68.633
20
45.678
11
-69.157
21
49.212
0
LINE
8
1
10
-69.157
20
49.212
11
-62.586
21
44.947
0
LINE
8
1
10
-62.586
20
44.947
11
-51.285
21
40.054
0
LINE
8
1
10
-51.285
20
40.054
11
-49.65
21
33.552
0
LINE
8
1
10
-49.65
20
33.552
11
-49.998
21
32.49
0
LINE
8
1
10
-49.998
20
32.49
11
-60.789
21
37.651
0
LINE
8
1
10
-60.789
20
37.651
11
-65.279
21
41.056
0
LINE
8
1
10
-65.279
20
41.056
11
-67.933
21
44.289
0
LINE
8
1
10
-67.933
20
44.289
11
-68.633
21
45.678
0
LINE
8
1
10
-59.189
20
18.899
11
-59.659
21
23.761
0
LINE
8
1
10
-59.659
20
23.761
11
-59.224
21
25.0
0
LINE
8
1
10
-59.224
20
25.0
11
-55.563
21
23.116
0
LINE
8
1
10
-55.563
20
23.116
11
-45.048
21
19.001
0
LINE
8
1
10
-45.048
20
19.001
11
-41.514
21
16.387
0
LINE
8
1
10
-41.514
20
16.387
11
-41.705
21
12.254
0
LINE
8
1
10
-41.705
20
12.254
11
-51.672
21
13.899
0
LINE
8
1
10
-51.672
20
13.899
11
-55.918
21
15.703
0
LINE
8
1
10
-55.918
20
15.703
11
-58.491
21
17.86
0
LINE
8
1
10
-58.491
20
17.86
11
-59.189
21
18.899
0
LINE
8
1
10
-41.092
20
45.658
11
-38.605
21
43.384
0
LINE
8
1
10
-38.605
20
43.384
11
-36.468
21
38.797
0
LINE
8
1
10
-36.468
20
38.797
11
-36.476
21
37.433
0
LINE
8
1
10
-36.476
20
37.433
11
-38.379
21
36.619
0
LINE
8
1
10
-38.379
20
36.619
11
-44.747
21
39.35
0
LINE
8
1
10
-44.747
20
39.35
11
-48.148
21
44.548
0
LINE
8
1
10
-48.148
20
44.548
11
-49.099
21
49.852
0
LINE
8
1
10
-49.099
20
49.852
11
-41.092
21
45.658
0
LINE
8
1
10
-4.155
20
38.631
11
-8.526
21
38.631
0
LINE
8
1
10
-8.526
20
38.631
11
-7.163
21
36.876
0
LINE
8
1
10
-7.163
20
36.876
11
-5.174
21
37.069
0
LINE
8
1
10
-5.174
20
37.069
11
-4.155
21
38.631
0
LINE
8
1
10
12.459
20
24.843
11
8.087
21
24.843
0
LINE
8
1
10
8.087
20
24.843
11
9.45
21
23.088
0
LINE
8
1
10
9.45
20
23.088
11
11.44
21
23.281
0
LINE
8
1
10
11.44
20
23.281
11
12.459
21
24.843
0
LINE
8
1
10
2.627
20
28.786
11
3.988
21
27.029
0
LINE
8
1
10
3.988
20
27.029
11
5.978
21
27.222
0
LINE
8
1
10
5.978
20
27.222
11
6.998
21
28.786
0
LINE
8
1
10
6.998
20
28.786
11
2.627
21
28.786
0
LINE
8
1
10
4.07
20
24.843
11
-0.301
21
24.843
0
LINE
8
1
10
-0.301
20
24.843
11
1.062
21
23.088
0
LINE
8
1
10
1.062
20
23.088
11
3.051
21
23.281
0
LINE
8
1
10
3.051
20
23.281
11
4.07
21
24.843
0
LINE
8
1
10
0.257
20
28.786
11
-4.114
21
28.786
0
LINE
8
1
10
-4.114
20
28.786
11
-2.751
21
27.029
0
LINE
8
1
10
-2.751
20
27.029
11
-0.761
21
27.222
0
LINE
8
1
10
-0.761
20
27.222
11
0.257
21
28.786
0
LINE
8
1
10
-6.347
20
28.786
11
-10.718
21
28.786
0
LINE
8
1
10
-10.718
20
28.786
11
-9.357
21
27.029
0
LINE
8
1
10
-9.357
20
27.029
11
-7.367
21
27.222
0
LINE
8
1
10
-7.367
20
27.222
11
-6.347
21
28.786
0
LINE
8
1
10
-8.56
20
24.843
11
-7.199
21
23.088
0
LINE
8
1
10
-7.199
20
23.088
11
-5.212
21
23.281
0
LINE
8
1
10
-5.212
20
23.281
11
-4.195
21
24.843
0
LINE
8
1
10
-4.195
20
24.843
11
-8.56
21
24.843
0
LINE
8
1
10
-6.109
20
20.601
11
-4.041
21
18.091
0
LINE
8
1
10
-4.041
20
18.091
11
-1.64
21
18.517
0
LINE
8
1
10
-1.64
20
18.517
11
-0.28
21
20.601
0
LINE
8
1
10
-0.28
20
20.601
11
-6.109
21
20.601
0
LINE
8
1
10
-10.8
20
24.843
11
-15.171
21
24.843
0
LINE
8
1
10
-15.171
20
24.843
11
-13.808
21
23.088
0
LINE
8
1
10
-13.808
20
23.088
11
-11.819
21
23.281
0
LINE
8
1
10
-11.819
20
23.281
11
-10.8
21
24.843
0
LINE
8
1
10
-11.086
20
20.472
11
-16.914
21
20.472
0
LINE
8
1
10
-16.914
20
20.472
11
-14.847
21
17.962
0
LINE
8
1
10
-14.847
20
17.962
11
-12.446
21
18.388
0
LINE
8
1
10
-12.446
20
18.388
11
-11.086
21
20.472
0
LINE
8
1
10
-12.08
20
17.041
11
-10.015
21
14.531
0
LINE
8
1
10
-10.015
20
14.531
11
-7.617
21
14.956
0
LINE
8
1
10
-7.617
20
14.956
11
-6.259
21
17.041
0
LINE
8
1
10
-6.259
20
17.041
11
-12.08
21
17.041
0
LINE
8
1
10
-1.915
20
16.782
11
0.151
21
14.272
0
LINE
8
1
10
0.151
20
14.272
11
2.549
21
14.698
0
LINE
8
1
10
2.549
20
14.698
11
3.907
21
16.782
0
LINE
8
1
10
3.907
20
16.782
11
-1.915
21
16.782
0
LINE
8
1
10
3.042
20
20.724
11
5.108
21
18.215
0
LINE
8
1
10
5.108
20
18.215
11
7.506
21
18.641
0
LINE
8
1
10
7.506
20
18.641
11
8.864
21
20.724
0
LINE
8
1
10
8.864
20
20.724
11
3.042
21
20.724
0
LINE
8
1
10
12.547
20
16.911
11
6.726
21
16.911
0
LINE
8
1
10
6.726
20
16.911
11
8.792
21
14.402
0
LINE
8
1
10
8.792
20
14.402
11
11.19
21
14.828
0
LINE
8
1
10
11.19
20
14.828
11
12.547
21
16.911
0
LINE
8
1
10
-8.621
20
43.458
11
-7.607
21
47.401
0
LINE
8
1
10
-7.607
20
47.401
11
12.915
21
47.401
0
LINE
8
1
10
12.915
20
47.401
11
14.954
21
39.788
0
LINE
8
1
10
14.954
20
39.788
11
15.058
21
38.081
0
LINE
8
1
10
15.058
20
38.081
11
15.48
21
37.085
0
LINE
8
1
10
15.48
20
37.085
11
18.287
21
28.37
0
LINE
8
1
10
18.287
20
28.37
11
16.224
21
28.915
0
LINE
8
1
10
16.224
20
28.915
11
17.676
21
27.098
0
LINE
8
1
10
17.676
20
27.098
11
18.627
21
26.838
0
LINE
8
1
10
18.627
20
26.838
11
19.07
21
24.305
0
LINE
8
1
10
19.07
20
24.305
11
16.612
21
24.843
0
LINE
8
1
10
16.612
20
24.843
11
18.223
21
22.935
0
LINE
8
1
10
18.223
20
22.935
11
19.281
21
22.842
0
LINE
8
1
10
19.281
20
22.842
11
19.669
21
16.721
0
LINE
8
1
10
19.669
20
16.721
11
15.38
21
17.292
0
LINE
8
1
10
15.38
20
17.292
11
17.254
21
14.906
0
LINE
8
1
10
17.254
20
14.906
11
19.635
21
15.025
0
LINE
8
1
10
19.635
20
15.025
11
19.029
21
9.388
0
LINE
8
1
10
19.029
20
9.388
11
15.257
21
10.048
0
LINE
8
1
10
15.257
20
10.048
11
17.268
21
7.583
0
LINE
8
1
10
17.268
20
7.583
11
18.607
21
7.331
0
LINE
8
1
10
18.607
20
7.331
11
16.578
21
1.074
0
LINE
8
1
10
16.578
20
1.074
11
9.776
21
2.626
0
LINE
8
1
10
9.776
20
2.626
11
0.927
21
-6.876
0
LINE
8
1
10
0.927
20
-6.876
11
0.693
21
-8.553
0
LINE
8
1
10
0.693
20
-8.553
11
-0.151
21
-22.532
0
LINE
8
1
10
-0.151
20
-22.532
11
-0.995
21
-8.553
0
LINE
8
1
10
-0.995
20
-8.553
11
-10.078
21
2.626
0
LINE
8
1
10
-10.078
20
2.626
11
-14.906
21
2.061
0
LINE
8
1
10
-14.906
20
2.061
11
-15.423
21
3.716
0
LINE
8
1
10
-15.423
20
3.716
11
-13.196
21
4.037
0
LINE
8
1
10
-13.196
20
4.037
11
-11.712
21
6.235
0
LINE
8
1
10
-11.712
20
6.235
11
-15.947
21
5.663
0
LINE
8
1
10
-15.947
20
5.663
11
-16.267
21
7.032
0
LINE
8
1
10
-16.267
20
7.032
11
-14.921
21
7.65
0
LINE
8
1
10
-14.921
20
7.65
11
-13.489
21
9.796
0
LINE
8
1
10
-13.489
20
9.796
11
-16.676
21
9.081
0
LINE
8
1
10
-16.676
20
9.081
11
-17.391
21
14.869
0
LINE
8
1
10
-17.391
20
14.869
11
-16.593
21
15.736
0
LINE
8
1
10
-16.593
20
15.736
11
-15.777
21
17.163
0
LINE
8
1
10
-15.777
20
17.163
11
-17.479
21
16.55
0
LINE
8
1
10
-17.479
20
16.55
11
-16.628
21
26.9
0
LINE
8
1
10
-16.628
20
26.9
11
-15.044
21
27.059
0
LINE
8
1
10
-15.044
20
27.059
11
-13.837
21
28.786
0
LINE
8
1
10
-13.837
20
28.786
11
-16.329
21
28.254
0
LINE
8
1
10
-16.329
20
28.254
11
-8.621
21
43.458
0
LINE
8
1
10
14.059
20
38.352
11
9.688
21
38.352
0
LINE
8
1
10
9.688
20
38.352
11
11.049
21
36.597
0
LINE
8
1
10
11.049
20
36.597
11
13.038
21
36.79
0
LINE
8
1
10
13.038
20
36.79
11
14.059
21
38.352
0
LINE
8
1
10
13.861
20
29.037
11
9.49
21
29.037
0
LINE
8
1
10
9.49
20
29.037
11
10.851
21
27.28
0
LINE
8
1
10
10.851
20
27.28
11
12.841
21
27.474
0
LINE
8
1
10
12.841
20
27.474
11
13.861
21
29.037
0
LINE
8
1
10
17.381
20
20.983
11
11.56
21
20.983
0
LINE
8
1
10
11.56
20
20.983
11
13.625
21
18.472
0
LINE
8
1
10
13.625
20
18.472
11
16.023
21
18.898
0
LINE
8
1
10
16.023
20
18.898
11
17.381
21
20.983
0
LINE
8
1
10
26.008
20
34.607
11
28.26
21
36.806
0
LINE
8
1
10
28.26
20
36.806
11
29.797
21
39.856
0
LINE
8
1
10
29.797
20
39.856
11
31.315
21
46.676
0
LINE
8
1
10
31.315
20
46.676
11
30.302
21
55.365
0
LINE
8
1
10
30.302
20
55.365
11
29.782
21
60.23
0
LINE
8
1
10
29.782
20
60.23
11
31.372
21
64.768
0
LINE
8
1
10
31.372
20
64.768
11
35.125
21
67.187
0
LINE
8
1
10
35.125
20
67.187
11
72.723
21
92.699
0
LINE
8
1
10
72.723
20
92.699
11
76.788
21
94.023
0
LINE
8
1
10
76.788
20
94.023
11
78.98
21
93.074
0
LINE
8
1
10
78.98
20
93.074
11
79.476
21
89.65
0
LINE
8
1
10
79.476
20
89.65
11
78.438
21
85.459
0
LINE
8
1
10
78.438
20
85.459
11
74.5
21
79.102
0
LINE
8
1
10
74.5
20
79.102
11
68.24
21
72.756
0
LINE
8
1
10
68.24
20
72.756
11
58.81
21
65.644
0
LINE
8
1
10
58.81
20
65.644
11
51.228
21
60.916
0
LINE
8
1
10
51.228
20
60.916
11
50.504
21
62.064
0
LINE
8
1
10
50.504
20
62.064
11
49.435
21
63.14
0
LINE
8
1
10
49.435
20
63.14
11
49.339
21
66.22
0
LINE
8
1
10
49.339
20
66.22
11
66.996
21
79.659
0
LINE
8
1
10
66.996
20
79.659
11
70.937
21
84.029
0
LINE
8
1
10
70.937
20
84.029
11
72.188
21
86.235
0
LINE
8
1
10
72.188
20
86.235
11
71.496
21
87.55
0
LINE
8
1
10
71.496
20
87.55
11
70.462
21
87.027
0
LINE
8
1
10
70.462
20
87.027
11
45.487
21
67.297
0
LINE
8
1
10
45.487
20
67.297
11
41.001
21
64.966
0
LINE
8
1
10
41.001
20
64.966
11
35.295
21
60.153
0
LINE
8
1
10
35.295
20
60.153
11
34.549
21
50.75
0
LINE
8
1
10
34.549
20
50.75
11
37.903
21
46.672
0
LINE
8
1
10
37.903
20
46.672
11
33.902
21
41.143
0
LINE
8
1
10
33.902
20
41.143
11
33.695
21
36.824
0
LINE
8
1
10
33.695
20
36.824
11
34.083
21
35.717
0
LINE
8
1
10
34.083
20
35.717
11
20.976
21
28.534
0
LINE
8
1
10
20.976
20
28.534
11
19.615
21
33.47
0
LINE
8
1
10
19.615
20
33.47
11
24.958
21
34.113
0
LINE
8
1
10
24.958
20
34.113
11
26.008
21
34.607
0
LINE
8
1
10
32.197
20
22.61
11
33.597
21
21.764
0
LINE
8
1
10
33.597
20
21.764
11
43.11
21
26.512
0
LINE
8
1
10
43.11
20
26.512
11
47.292
21
30.413
0
LINE
8
1
10
47.292
20
30.413
11
43.729
21
21.624
0
LINE
8
1
10
43.729
20
21.624
11
39.541
21
18.407
0
LINE
8
1
10
39.541
20
18.407
11
32.377
21
15.518
0
LINE
8
1
10
32.377
20
15.518
11
29.494
21
14.807
0
LINE
8
1
10
29.494
20
14.807
11
28.542
21
13.275
0
LINE
8
1
10
28.542
20
13.275
11
30.039
21
12.268
0
LINE
8
1
10
30.039
20
12.268
11
38.87
21
15.148
0
LINE
8
1
10
38.87
20
15.148
11
37.904
21
11.077
0
LINE
8
1
10
37.904
20
11.077
11
35.106
21
9.099
0
LINE
8
1
10
35.106
20
9.099
11
29.681
21
7.491
0
LINE
8
1
10
29.681
20
7.491
11
22.89
21
6.787
0
LINE
8
1
10
22.89
20
6.787
11
21.684
21
5.44
0
LINE
8
1
10
21.684
20
5.44
11
22.999
21
4.199
0
LINE
8
1
10
22.999
20
4.199
11
30.965
21
5.112
0
LINE
8
1
10
30.965
20
5.112
11
27.862
21
1.297
0
LINE
8
1
10
27.862
20
1.297
11
23.713
21
0.138
0
LINE
8
1
10
23.713
20
0.138
11
19.002
21
0.155
0
LINE
8
1
10
19.002
20
0.155
11
22.227
21
19.765
0
LINE
8
1
10
22.227
20
19.765
11
21.902
21
23.291
0
LINE
8
1
10
21.902
20
23.291
11
36.636
21
34.083
0
LINE
8
1
10
36.636
20
34.083
11
46.049
21
37.062
0
LINE
8
1
10
46.049
20
37.062
11
48.436
21
40.115
0
LINE
8
1
10
48.436
20
40.115
11
45.965
21
32.878
0
LINE
8
1
10
45.965
20
32.878
11
41.347
21
28.433
0
LINE
8
1
10
41.347
20
28.433
11
34.174
21
24.706
0
LINE
8
1
10
34.174
20
24.706
11
32.739
21
24.153
0
LINE
8
1
10
32.739
20
24.153
11
32.197
21
22.61
0
LINE
8
1
10
58.867
20
18.899
11
56.583
21
16.379
0
LINE
8
1
10
56.583
20
16.379
11
52.975
21
14.471
0
LINE
8
1
10
52.975
20
14.471
11
47.287
21
12.96
0
LINE
8
1
10
47.287
20
12.96
11
41.382
21
12.254
0
LINE
8
1
10
41.382
20
12.254
11
41.191
21
16.387
0
LINE
8
1
10
41.191
20
16.387
11
44.725
21
19.001
0
LINE
8
1
10
44.725
20
19.001
11
56.32
21
23.613
0
LINE
8
1
10
56.32
20
23.613
11
58.901
21
25.0
0
LINE
8
1
10
58.901
20
25.0
11
59.359
21
20.109
0
LINE
8
1
10
59.359
20
20.109
11
58.867
21
18.899
0
LINE
8
1
10
62.714
20
32.769
11
60.934
21
29.991
0
LINE
8
1
10
60.934
20
29.991
11
56.85
21
26.757
0
LINE
8
1
10
56.85
20
26.757
11
51.358
21
23.992
0
LINE
8
1
10
51.358
20
23.992
11
47.721
21
22.59
0
LINE
8
1
10
47.721
20
22.59
11
49.879
21
28.463
0
LINE
8
1
10
49.879
20
28.463
11
49.873
21
29.786
0
LINE
8
1
10
49.873
20
29.786
11
60.07
21
34.397
0
LINE
8
1
10
60.07
20
34.397
11
62.761
21
36.044
0
LINE
8
1
10
62.761
20
36.044
11
62.714
21
32.769
0
LINE
8
1
10
41.443
20
37.405
11
37.643
21
36.629
0
LINE
8
1
10
37.643
20
36.629
11
36.327
21
37.147
0
LINE
8
1
10
36.327
20
37.147
11
36.424
21
39.938
0
LINE
8
1
10
36.424
20
39.938
11
39.776
21
44.98
0
LINE
8
1
10
39.776
20
44.98
11
40.769
21
45.658
0
LINE
8
1
10
40.769
20
45.658
11
48.77
21
49.852
0
LINE
8
1
10
48.77
20
49.852
11
46.58
21
41.918
0
LINE
8
1
10
46.58
20
41.918
11
41.443
21
37.405
0
LINE
8
1
10
68.311
20
45.678
11
65.978
21
42.122
0
LINE
8
1
10
65.978
20
42.122
11
60.876
21
37.927
0
LINE
8
1
10
60.876
20
37.927
11
54.124
21
34.321
0
LINE
8
1
10
54.124
20
34.321
11
49.682
21
32.49
0
LINE
8
1
10
49.682
20
32.49
11
49.328
21
33.552
0
LINE
8
1
10
49.328
20
33.552
11
50.962
21
40.054
0
LINE
8
1
10
50.962
20
40.054
11
64.087
21
45.959
0
LINE
8
1
10
64.087
20
45.959
11
68.835
21
49.212
0
LINE
8
1
10
68.835
20
49.212
11
68.311
21
45.678
0
LINE
8
1
10
-121.401
20
61.74
11
-121.728
21
77.645
0
LINE
8
1
10
-121.728
20
77.645
11
-130.81
21
64.586
0
LINE
8
1
10
-130.81
20
64.586
11
-146.042
21
69.189
0
LINE
8
1
10
-146.042
20
69.189
11
-136.428
21
56.511
0
LINE
8
1
10
-136.428
20
56.511
11
-145.517
21
43.452
0
LINE
8
1
10
-145.517
20
43.452
11
-130.49
21
48.674
0
LINE
8
1
10
-130.49
20
48.674
11
-120.877
21
36.003
0
LINE
8
1
10
-120.877
20
36.003
11
-121.197
21
51.908
0
LINE
8
1
10
-121.197
20
51.908
11
-106.176
21
57.137
0
LINE
8
1
10
-106.176
20
57.137
11
-121.401
21
61.74
0
LINE
8
1
10
-72.923
20
57.845
11
-73.583
21
62.543
0
LINE
8
1
10
-73.583
20
62.543
11
-56.616
21
49.79
0
LINE
8
1
10
-56.616
20
49.79
11
-51.475
21
47.761
0
LINE
8
1
10
-51.475
20
47.761
11
-50.679
21
44.16
0
LINE
8
1
10
-50.679
20
44.16
11
-51.087
21
42.743
0
LINE
8
1
10
-51.087
20
42.743
11
-63.461
21
48.442
0
LINE
8
1
10
-63.461
20
48.442
11
-69.491
21
52.993
0
LINE
8
1
10
-69.491
20
52.993
11
-72.061
21
56.175
0
LINE
8
1
10
-72.061
20
56.175
11
-72.923
21
57.845
0
LINE
8
1
10
-79.622
20
75.296
11
-80.255
21
76.863
0
LINE
8
1
10
-80.255
20
76.863
11
-79.415
21
77.802
0
LINE
8
1
10
-79.415
20
77.802
11
-77.301
21
78.094
0
LINE
8
1
10
-77.301
20
78.094
11
-70.923
21
71.4
0
LINE
8
1
10
-70.923
20
71.4
11
-56.438
21
60.825
0
LINE
8
1
10
-56.438
20
60.825
11
-51.857
21
58.09
0
LINE
8
1
10
-51.857
20
58.09
11
-50.999
21
53.379
0
LINE
8
1
10
-50.999
20
53.379
11
-51.605
21
52.459
0
LINE
8
1
10
-51.605
20
52.459
11
-51.679
21
50.628
0
LINE
8
1
10
-51.679
20
50.628
11
-66.605
21
59.289
0
LINE
8
1
10
-66.605
20
59.289
11
-78.609
21
73.494
0
LINE
8
1
10
-78.609
20
73.494
11
-79.622
21
75.296
0
LINE
8
1
10
-42.29
20
56.095
11
-46.536
21
63.297
0
LINE
8
1
10
-46.536
20
63.297
11
-46.927
21
64.953
0
LINE
8
1
10
-46.927
20
64.953
11
-42.835
21
62.829
0
LINE
8
1
10
-42.835
20
62.829
11
-37.529
21
58.257
0
LINE
8
1
10
-37.529
20
58.257
11
-37.316
21
51.727
0
LINE
8
1
10
-37.316
20
51.727
11
-39.308
21
49.042
0
LINE
8
1
10
-39.308
20
49.042
11
-44.029
21
48.894
0
LINE
8
1
10
-44.029
20
48.894
11
-48.926
21
55.561
0
LINE
8
1
10
-48.926
20
55.561
11
-49.169
21
59.731
0
LINE
8
1
10
-49.169
20
59.731
11
-48.972
21
60.548
0
LINE
8
1
10
-48.972
20
60.548
11
-45.806
21
56.356
0
LINE
8
1
10
-45.806
20
56.356
11
-44.204
21
54.346
0
LINE
8
1
10
-44.204
20
54.346
11
-42.578
21
54.109
0
LINE
8
1
10
-42.578
20
54.109
11
-42.024
21
55.656
0
LINE
8
1
10
-42.024
20
55.656
11
-42.29
21
56.095
0
LINE
8
1
10
6.903
20
45.971
11
2.532
21
45.971
0
LINE
8
1
10
2.532
20
45.971
11
3.893
21
44.215
0
LINE
8
1
10
3.893
20
44.215
11
5.883
21
44.408
0
LINE
8
1
10
5.883
20
44.408
11
6.903
21
45.971
0
LINE
8
1
10
-12.08
20
59.377
11
-9.364
21
57.847
0
LINE
8
1
10
-9.364
20
57.847
11
-8.41
21
57.988
0
LINE
8
1
10
-8.41
20
57.988
11
-9.641
21
59.467
0
LINE
8
1
10
-9.641
20
59.467
11
-15.64
21
61.356
0
LINE
8
1
10
-15.64
20
61.356
11
-19.458
21
60.0
0
LINE
8
1
10
-19.458
20
60.0
11
-20.775
21
58.363
0
LINE
8
1
10
-20.775
20
58.363
11
-22.253
21
59.991
0
LINE
8
1
10
-22.253
20
59.991
11
-22.157
21
62.489
0
LINE
8
1
10
-22.157
20
62.489
11
-20.592
21
63.94
0
LINE
8
1
10
-20.592
20
63.94
11
-13.556
21
63.6
0
LINE
8
1
10
-13.556
20
63.6
11
-12.84
21
63.014
0
LINE
8
1
10
-12.84
20
63.014
11
-11.876
21
63.081
0
LINE
8
1
10
-11.876
20
63.081
11
-12.152
21
64.249
0
LINE
8
1
10
-12.152
20
64.249
11
-12.631
21
65.301
0
LINE
8
1
10
-12.631
20
65.301
11
-9.846
21
68.549
0
LINE
8
1
10
-9.846
20
68.549
11
-6.34
21
69.624
0
LINE
8
1
10
-6.34
20
69.624
11
10.709
21
68.732
0
LINE
8
1
10
10.709
20
68.732
11
8.565
21
63.76
0
LINE
8
1
10
8.565
20
63.76
11
8.353
21
62.148
0
LINE
8
1
10
8.353
20
62.148
11
5.135
21
61.891
0
LINE
8
1
10
5.135
20
61.891
11
3.332
21
62.463
0
LINE
8
1
10
3.332
20
62.463
11
-0.524
21
64.616
0
LINE
8
1
10
-0.524
20
64.616
11
-5.891
21
65.498
0
LINE
8
1
10
-5.891
20
65.498
11
-9.801
21
65.031
0
LINE
8
1
10
-9.801
20
65.031
11
-10.218
21
63.654
0
LINE
8
1
10
-10.218
20
63.654
11
-9.369
21
62.896
0
LINE
8
1
10
-9.369
20
62.896
11
-5.262
21
62.932
0
LINE
8
1
10
-5.262
20
62.932
11
-4.515
21
63.619
0
LINE
8
1
10
-4.515
20
63.619
11
-1.175
21
62.81
0
LINE
8
1
10
-1.175
20
62.81
11
2.409
21
60.784
0
LINE
8
1
10
2.409
20
60.784
11
5.721
21
59.946
0
LINE
8
1
10
5.721
20
59.946
11
9.81
21
60.283
0
LINE
8
1
10
9.81
20
60.283
11
10.6
21
58.54
0
LINE
8
1
10
10.6
20
58.54
11
10.436
21
57.117
0
LINE
8
1
10
10.436
20
57.117
11
11.578
21
54.096
0
LINE
8
1
10
11.578
20
54.096
11
12.84
21
49.995
0
LINE
8
1
10
12.84
20
49.995
11
-7.607
21
49.995
0
LINE
8
1
10
-7.607
20
49.995
11
-10.385
21
57.188
0
LINE
8
1
10
-10.385
20
57.188
11
-12.08
21
59.377
0
LINE
8
1
10
43.466
20
48.769
11
39.782
21
48.597
0
LINE
8
1
10
39.782
20
48.597
11
38.985
21
49.042
0
LINE
8
1
10
38.985
20
49.042
11
36.492
21
52.839
0
LINE
8
1
10
36.492
20
52.839
11
36.779
21
57.419
0
LINE
8
1
10
36.779
20
57.419
11
39.638
21
60.903
0
LINE
8
1
10
39.638
20
60.903
11
42.506
21
62.829
0
LINE
8
1
10
42.506
20
62.829
11
46.598
21
64.953
0
LINE
8
1
10
46.598
20
64.953
11
43.5
21
57.965
0
LINE
8
1
10
43.5
20
57.965
11
41.968
21
56.095
0
LINE
8
1
10
41.968
20
56.095
11
42.1
21
54.319
0
LINE
8
1
10
42.1
20
54.319
11
43.881
21
54.346
0
LINE
8
1
10
43.881
20
54.346
11
46.93
21
58.515
0
LINE
8
1
10
46.93
20
58.515
11
48.395
21
60.936
0
LINE
8
1
10
48.395
20
60.936
11
48.844
21
56.918
0
LINE
8
1
10
48.844
20
56.918
11
44.873
21
49.668
0
LINE
8
1
10
44.873
20
49.668
11
43.466
21
48.769
0
LINE
8
1
10
72.6
20
57.845
11
69.075
21
52.925
0
LINE
8
1
10
69.075
20
52.925
11
64.083
21
49.055
0
LINE
8
1
10
64.083
20
49.055
11
54.571
21
44.23
0
LINE
8
1
10
54.571
20
44.23
11
50.765
21
42.75
0
LINE
8
1
10
50.765
20
42.75
11
50.356
21
44.16
0
LINE
8
1
10
50.356
20
44.16
11
51.153
21
47.761
0
LINE
8
1
10
51.153
20
47.761
11
69.385
21
58.655
0
LINE
8
1
10
69.385
20
58.655
11
73.261
21
62.543
0
LINE
8
1
10
73.261
20
62.543
11
72.6
21
57.845
0
LINE
8
1
10
79.3
20
75.296
11
60.807
21
55.209
0
LINE
8
1
10
60.807
20
55.209
11
51.357
21
50.635
0
LINE
8
1
10
51.357
20
50.635
11
51.282
21
52.459
0
LINE
8
1
10
51.282
20
52.459
11
50.676
21
53.385
0
LINE
8
1
10
50.676
20
53.385
11
51.534
21
58.097
0
LINE
8
1
10
51.534
20
58.097
11
67.871
21
69.067
0
LINE
8
1
10
67.871
20
69.067
11
75.103
21
75.859
0
LINE
8
1
10
75.103
20
75.859
11
76.978
21
78.094
0
LINE
8
1
10
76.978
20
78.094
11
79.375
21
77.726
0
LINE
8
1
10
79.375
20
77.726
11
79.87
21
76.598
0
LINE
8
1
10
79.87
20
76.598
11
79.3
21
75.296
0
LINE
8
1
10
75.044
20
56.98
11
71.007
21
51.132
0
LINE
8
1
10
71.007
20
51.132
11
70.978
21
45.443
0
LINE
8
1
10
70.978
20
45.443
11
67.447
21
39.871
0
LINE
8
1
10
67.447
20
39.871
11
64.893
21
37.582
0
LINE
8
1
10
64.893
20
37.582
11
65.147
21
31.923
0
LINE
8
1
10
65.147
20
31.923
11
63.047
21
28.47
0
LINE
8
1
10
63.047
20
28.47
11
61.032
21
26.539
0
LINE
8
1
10
61.032
20
26.539
11
61.758
21
19.107
0
LINE
8
1
10
61.758
20
19.107
11
58.705
21
14.748
0
LINE
8
1
10
58.705
20
14.748
11
54.046
21
12.097
0
LINE
8
1
10
54.046
20
12.097
11
56.191
21
9.719
0
LINE
8
1
10
56.191
20
9.719
11
55.969
21
7.176
0
LINE
8
1
10
55.969
20
7.176
11
51.499
21
1.664
0
LINE
8
1
10
51.499
20
1.664
11
49.287
21
0.155
0
LINE
8
1
10
49.287
20
0.155
11
49.124
21
-4.284
0
LINE
8
1
10
49.124
20
-4.284
11
46.154
21
-7.064
0
LINE
8
1
10
46.154
20
-7.064
11
42.601
21
-8.159
0
LINE
8
1
10
42.601
20
-8.159
11
41.157
21
-8.526
0
LINE
8
1
10
41.157
20
-8.526
11
37.779
21
-15.359
0
LINE
8
1
10
37.779
20
-15.359
11
35.17
21
-16.585
0
LINE
8
1
10
35.17
20
-16.585
11
33.15
21
-17.105
0
LINE
8
1
10
33.15
20
-17.105
11
33.152
21
-24.638
0
LINE
8
1
10
33.152
20
-24.638
11
32.83
21
-25.854
0
LINE
8
1
10
32.83
20
-25.854
11
32.83
21
-27.529
0
LINE
8
1
10
32.83
20
-27.529
11
36.875
21
-32.466
0
LINE
8
1
10
36.875
20
-32.466
11
37.825
21
-35.879
0
LINE
8
1
10
37.825
20
-35.879
11
36.909
21
-38.049
0
LINE
8
1
10
36.909
20
-38.049
11
36.909
21
-52.095
0
LINE
8
1
10
36.909
20
-52.095
11
34.944
21
-53.381
0
LINE
8
1
10
34.944
20
-53.381
11
34.049
21
-53.471
0
LINE
8
1
10
34.049
20
-53.471
11
32.83
21
-54.145
0
LINE
8
1
10
32.83
20
-54.145
11
32.83
21
-65.706
0
LINE
8
1
10
32.83
20
-65.706
11
38.209
21
-64.93
0
LINE
8
1
10
38.209
20
-64.93
11
38.563
21
-58.243
0
LINE
8
1
10
38.563
20
-58.243
11
38.475
21
-53.825
0
LINE
8
1
10
38.475
20
-53.825
11
39.517
21
-52.558
0
LINE
8
1
10
39.517
20
-52.558
11
50.911
21
-49.59
0
LINE
8
1
10
50.911
20
-49.59
11
81.513
21
-39.703
0
LINE
8
1
10
81.513
20
-39.703
11
83.173
21
-40.559
0
LINE
8
1
10
83.173
20
-40.559
11
82.061
21
-41.468
0
LINE
8
1
10
82.061
20
-41.468
11
79.411
21
-42.939
0
LINE
8
1
10
79.411
20
-42.939
11
76.711
21
-44.313
0
LINE
8
1
10
76.711
20
-44.313
11
75.46
21
-44.987
0
LINE
8
1
10
75.46
20
-44.987
11
72.468
21
-52.747
0
LINE
8
1
10
72.468
20
-52.747
11
69.066
21
-56.412
0
LINE
8
1
10
69.066
20
-56.412
11
68.662
21
-60.742
0
LINE
8
1
10
68.662
20
-60.742
11
67.516
21
-63.696
0
LINE
8
1
10
67.516
20
-63.696
11
64.521
21
-69.059
0
LINE
8
1
10
64.521
20
-69.059
11
62.407
21
-71.763
0
LINE
8
1
10
62.407
20
-71.763
11
60.535
21
-76.593
0
LINE
8
1
10
60.535
20
-76.593
11
55.702
21
-83.329
0
LINE
8
1
10
55.702
20
-83.329
11
32.837
21
-86.35
0
LINE
8
1
10
32.837
20
-86.35
11
32.837
21
-113.51
0
LINE
8
1
10
32.837
20
-113.51
11
61.773
21
-93.73
0
LINE
8
1
10
61.773
20
-93.73
11
83.416
21
-63.987
0
LINE
8
1
10
83.416
20
-63.987
11
96.231
21
-25.719
0
LINE
8
1
10
96.231
20
-25.719
11
91.334
21
45.118
0
LINE
8
1
10
91.334
20
45.118
11
79.64
21
70.775
0
LINE
8
1
10
79.64
20
70.775
11
75.242
21
64.79
0
LINE
8
1
10
75.242
20
64.79
11
75.576
21
58.553
0
LINE
8
1
10
75.576
20
58.553
11
75.044
21
56.98
0
LINE
8
1
10
148.122
20
69.189
11
132.891
21
64.586
0
LINE
8
1
10
132.891
20
64.586
11
123.802
21
77.645
0
LINE
8
1
10
123.802
20
77.645
11
123.475
21
61.74
0
LINE
8
1
10
123.475
20
61.74
11
108.244
21
57.137
0
LINE
8
1
10
108.244
20
57.137
11
123.277
21
51.908
0
LINE
8
1
10
123.277
20
51.908
11
122.951
21
36.003
0
LINE
8
1
10
122.951
20
36.003
11
132.564
21
48.674
0
LINE
8
1
10
132.564
20
48.674
11
147.591
21
43.452
0
LINE
8
1
10
147.591
20
43.452
11
138.502
21
56.511
0
LINE
8
1
10
138.502
20
56.511
11
148.122
21
69.189
0
LINE
8
1
10
-131.042
20
106.664
11
-95.814
21
83.943
0
LINE
8
1
10
-95.814
20
83.943
11
-88.106
21
95.892
0
LINE
8
1
10
-88.106
20
95.892
11
-92.368
21
98.636
0
LINE
8
1
10
-92.368
20
98.636
11
-96.78
21
91.793
0
LINE
8
1
10
-96.78
20
91.793
11
-109.955
21
100.291
0
LINE
8
1
10
-109.955
20
100.291
11
-105.693
21
106.909
0
LINE
8
1
10
-105.693
20
106.909
11
-109.949
21
109.646
0
LINE
8
1
10
-109.949
20
109.646
11
-114.211
21
103.035
0
LINE
8
1
10
-114.211
20
103.035
11
-123.491
21
109.02
0
LINE
8
1
10
-123.491
20
109.02
11
-119.079
21
115.862
0
LINE
8
1
10
-119.079
20
115.862
11
-123.334
21
118.606
0
LINE
8
1
10
-123.334
20
118.606
11
-131.042
21
106.664
0
LINE
8
1
10
-79.445
20
87.511
11
-79.687
21
91.859
0
LINE
8
1
10
-79.687
20
91.859
11
-79.302
21
93.074
0
LINE
8
1
10
-79.302
20
93.074
11
-77.124
21
94.015
0
LINE
8
1
10
-77.124
20
94.015
11
-74.299
21
93.341
0
LINE
8
1
10
-74.299
20
93.341
11
-73.045
21
92.699
0
LINE
8
1
10
-73.045
20
92.699
11
-39.406
21
69.006
0
LINE
8
1
10
-39.406
20
69.006
11
-35.447
21
67.187
0
LINE
8
1
10
-35.447
20
67.187
11
-30.185
21
60.891
0
LINE
8
1
10
-30.185
20
60.891
11
-30.25
21
57.648
0
LINE
8
1
10
-30.25
20
57.648
11
-30.892
21
54.238
0
LINE
8
1
10
-30.892
20
54.238
11
-31.662
21
47.264
0
LINE
8
1
10
-31.662
20
47.264
11
-28.897
21
37.277
0
LINE
8
1
10
-28.897
20
37.277
11
-23.936
21
33.695
0
LINE
8
1
10
-23.936
20
33.695
11
-20.587
21
33.467
0
LINE
8
1
10
-20.587
20
33.467
11
-17.261
21
33.994
0
LINE
8
1
10
-17.261
20
33.994
11
-19.202
21
27.39
0
LINE
8
1
10
-19.202
20
27.39
11
-34.413
21
35.724
0
LINE
8
1
10
-34.413
20
35.724
11
-34.381
21
41.527
0
LINE
8
1
10
-34.381
20
41.527
11
-36.968
21
45.511
0
LINE
8
1
10
-36.968
20
45.511
11
-38.232
21
46.686
0
LINE
8
1
10
-38.232
20
46.686
11
-33.944
21
53.936
0
LINE
8
1
10
-33.944
20
53.936
11
-36.228
21
60.918
0
LINE
8
1
10
-36.228
20
60.918
11
-41.705
21
65.165
0
LINE
8
1
10
-41.705
20
65.165
11
-64.231
21
80.57
0
LINE
8
1
10
-64.231
20
80.57
11
-70.2
21
86.387
0
LINE
8
1
10
-70.2
20
86.387
11
-71.285
21
87.4
0
LINE
8
1
10
-71.285
20
87.4
11
-72.281
21
87.544
0
LINE
8
1
10
-72.281
20
87.544
11
-72.339
21
85.813
0
LINE
8
1
10
-72.339
20
85.813
11
-69.897
21
82.353
0
LINE
8
1
10
-69.897
20
82.353
11
-61.115
21
74.348
0
LINE
8
1
10
-61.115
20
74.348
11
-49.657
21
66.513
0
LINE
8
1
10
-49.657
20
66.513
11
-49.276
21
63.462
0
LINE
8
1
10
-49.276
20
63.462
11
-51.152
21
61.66
0
LINE
8
1
10
-51.152
20
61.66
11
-51.557
21
60.923
0
LINE
8
1
10
-51.557
20
60.923
11
-68.181
21
72.394
0
LINE
8
1
10
-68.181
20
72.394
11
-75.393
21
79.794
0
LINE
8
1
10
-75.393
20
79.794
11
-78.68
21
85.275
0
LINE
8
1
10
-78.68
20
85.275
11
-79.445
21
87.511
0
LINE
8
1
10
-65.739
20
89.54
11
-38.649
21
71.524
0
LINE
8
1
10
-38.649
20
71.524
11
-34.569
21
69.617
0
LINE
8
1
10
-34.569
20
69.617
11
-32.091
21
68.508
0
LINE
8
1
10
-32.091
20
68.508
11
-32.091
21
113.786
0
LINE
8
1
10
-32.091
20
113.786
11
-60.152
21
95.233
0
LINE
8
1
10
-60.152
20
95.233
11
-65.739
21
89.54
0
LINE
8
1
10
-65.739
20
89.54
11
-32.782
21
113.512
0
LINE
8
1
10
-32.782
20
113.512
11
39.991
21
109.974
0
LINE
8
1
10
39.991
20
109.974
11
62.022
21
93.454
0
LINE
8
1
10
62.022
20
93.454
11
65.614
21
89.71
0
LINE
8
1
10
65.614
20
89.71
11
71.109
21
94.735
0
LINE
8
1
10
71.109
20
94.735
11
74.786
21
96.342
0
LINE
8
1
10
74.786
20
96.342
11
38.865
21
124.048
0
LINE
8
1
10
38.865
20
124.048
11
-45.77
21
120.42
0
LINE
8
1
10
-45.77
20
120.42
11
-71.15
21
100.357
0
LINE
8
1
10
-71.15
20
100.357
11
-74.836
21
96.267
0
LINE
8
1
10
-74.836
20
96.267
11
-71.432
21
94.735
0
LINE
8
1
10
-71.432
20
94.735
11
-65.739
21
89.54
0
LINE
8
1
10
-79.064
20
80.566
11
-81.698
21
79.541
0
LINE
8
1
10
-81.698
20
79.541
11
-82.837
21
76.683
0
LINE
8
1
10
-82.837
20
76.683
11
-81.91
21
74.077
0
LINE
8
1
10
-81.91
20
74.077
11
-75.571
21
64.797
0
LINE
8
1
10
-75.571
20
64.797
11
-76.167
21
60.027
0
LINE
8
1
10
-76.167
20
60.027
11
-74.46
21
55.139
0
LINE
8
1
10
-74.46
20
55.139
11
-71.336
21
51.139
0
LINE
8
1
10
-71.336
20
51.139
11
-71.307
21
45.448
0
LINE
8
1
10
-71.307
20
45.448
11
-67.78
21
39.876
0
LINE
8
1
10
-67.78
20
39.876
11
-65.229
21
37.589
0
LINE
8
1
10
-65.229
20
37.589
11
-65.196
21
31.228
0
LINE
8
1
10
-65.196
20
31.228
11
-62.802
21
27.849
0
LINE
8
1
10
-62.802
20
27.849
11
-61.368
21
26.546
0
LINE
8
1
10
-61.368
20
26.546
11
-62.088
21
19.11
0
LINE
8
1
10
-62.088
20
19.11
11
-59.033
21
14.751
0
LINE
8
1
10
-59.033
20
14.751
11
-54.376
21
12.104
0
LINE
8
1
10
-54.376
20
12.104
11
-56.182
21
10.418
0
LINE
8
1
10
-56.182
20
10.418
11
-56.01
21
6.712
0
LINE
8
1
10
-56.01
20
6.712
11
-52.476
21
2.277
0
LINE
8
1
10
-52.476
20
2.277
11
-49.61
21
0.162
0
LINE
8
1
10
-49.61
20
0.162
11
-49.453
21
-4.284
0
LINE
8
1
10
-49.453
20
-4.284
11
-46.483
21
-7.061
0
LINE
8
1
10
-46.483
20
-7.061
11
-42.93
21
-8.159
0
LINE
8
1
10
-42.93
20
-8.159
11
-41.487
21
-8.519
0
LINE
8
1
10
-41.487
20
-8.519
11
-38.108
21
-15.354
0
LINE
8
1
10
-38.108
20
-15.354
11
-35.498
21
-16.583
0
LINE
8
1
10
-35.498
20
-16.583
11
-33.48
21
-17.105
0
LINE
8
1
10
-33.48
20
-17.105
11
-33.526
21
-24.497
0
LINE
8
1
10
-33.526
20
-24.497
11
-32.717
21
-27.012
0
LINE
8
1
10
-32.717
20
-27.012
11
-37.204
21
-32.459
0
LINE
8
1
10
-37.204
20
-32.459
11
-38.152
21
-35.877
0
LINE
8
1
10
-38.152
20
-35.877
11
-37.231
21
-38.049
0
LINE
8
1
10
-37.231
20
-38.049
11
-37.231
21
-52.088
0
LINE
8
1
10
-37.231
20
-52.088
11
-35.274
21
-53.376
0
LINE
8
1
10
-35.274
20
-53.376
11
-34.379
21
-53.464
0
LINE
8
1
10
-34.379
20
-53.464
11
-29.807
21
-55.024
0
LINE
8
1
10
-29.807
20
-55.024
11
-28.932
21
-54.975
0
LINE
8
1
10
-28.932
20
-54.975
11
-24.499
21
-58.672
0
LINE
8
1
10
-24.499
20
-58.672
11
-19.982
21
-58.767
0
LINE
8
1
10
-19.982
20
-58.767
11
-18.364
21
-58.243
0
LINE
8
1
10
-18.364
20
-58.243
11
-12.278
21
-61.964
0
LINE
8
1
10
-12.278
20
-61.964
11
-9.588
21
-61.273
0
LINE
8
1
10
-9.588
20
-61.273
11
-4.338
21
-65.003
0
LINE
8
1
10
-4.338
20
-65.003
11
8.286
21
-62.281
0
LINE
8
1
10
8.286
20
-62.281
11
9.272
21
-61.273
0
LINE
8
1
10
9.272
20
-61.273
11
13.805
21
-61.902
0
LINE
8
1
10
13.805
20
-61.902
11
18.042
21
-58.243
0
LINE
8
1
10
18.042
20
-58.243
11
23.364
21
-58.888
0
LINE
8
1
10
23.364
20
-58.888
11
27.643
21
-56.292
0
LINE
8
1
10
27.643
20
-56.292
11
28.616
21
-54.975
0
LINE
8
1
10
28.616
20
-54.975
11
32.667
21
-54.218
0
LINE
8
1
10
32.667
20
-54.218
11
34.056
21
-53.464
0
LINE
8
1
10
34.056
20
-53.464
11
36.562
21
-52.528
0
LINE
8
1
10
36.562
20
-52.528
11
36.916
21
-38.049
0
LINE
8
1
10
36.916
20
-38.049
11
37.79
21
-34.97
0
LINE
8
1
10
37.79
20
-34.97
11
36.882
21
-32.459
0
LINE
8
1
10
36.882
20
-32.459
11
32.395
21
-27.012
0
LINE
8
1
10
32.395
20
-27.012
11
33.421
21
-22.927
0
LINE
8
1
10
33.421
20
-22.927
11
33.157
21
-17.105
0
LINE
8
1
10
33.157
20
-17.105
11
38.268
21
-15.034
0
LINE
8
1
10
38.268
20
-15.034
11
41.164
21
-8.519
0
LINE
8
1
10
41.164
20
-8.519
11
42.614
21
-8.159
0
LINE
8
1
10
42.614
20
-8.159
11
46.944
21
-6.642
0
LINE
8
1
10
46.944
20
-6.642
11
49.294
21
0.162
0
LINE
8
1
10
49.294
20
0.162
11
52.761
21
2.918
0
LINE
8
1
10
52.761
20
2.918
11
55.977
21
7.177
0
LINE
8
1
10
55.977
20
7.177
11
55.592
21
10.793
0
LINE
8
1
10
55.592
20
10.793
11
54.06
21
12.104
0
LINE
8
1
10
54.06
20
12.104
11
59.652
21
15.6
0
LINE
8
1
10
59.652
20
15.6
11
61.66
21
25.046
0
LINE
8
1
10
61.66
20
25.046
11
61.046
21
26.546
0
LINE
8
1
10
61.046
20
26.546
11
64.889
21
31.218
0
LINE
8
1
10
64.889
20
31.218
11
65.349
21
36.503
0
LINE
8
1
10
65.349
20
36.503
11
64.906
21
37.589
0
LINE
8
1
10
64.906
20
37.589
11
70.52
21
44.181
0
LINE
8
1
10
70.52
20
44.181
11
71.397
21
49.668
0
LINE
8
1
10
71.397
20
49.668
11
71.02
21
51.139
0
LINE
8
1
10
71.02
20
51.139
11
75.344
21
57.732
0
LINE
8
1
10
75.344
20
57.732
11
75.649
21
63.685
0
LINE
8
1
10
75.649
20
63.685
11
75.255
21
64.797
0
LINE
8
1
10
75.255
20
64.797
11
81.806
21
74.43
0
LINE
8
1
10
81.806
20
74.43
11
82.546
21
76.785
0
LINE
8
1
10
82.546
20
76.785
11
80.443
21
80.116
0
LINE
8
1
10
80.443
20
80.116
11
78.755
21
80.566
0
LINE
8
1
10
78.755
20
80.566
11
81.924
21
88.159
0
LINE
8
1
10
81.924
20
88.159
11
81.498
21
93.645
0
LINE
8
1
10
81.498
20
93.645
11
80.954
21
94.823
0
LINE
8
1
10
80.954
20
94.823
11
76.263
21
96.569
0
LINE
8
1
10
76.263
20
96.569
11
71.116
21
94.735
0
LINE
8
1
10
71.116
20
94.735
11
37.577
21
71.149
0
LINE
8
1
10
37.577
20
71.149
11
34.26
21
69.617
0
LINE
8
1
10
34.26
20
69.617
11
27.317
21
61.411
0
LINE
8
1
10
27.317
20
61.411
11
27.58
21
55.875
0
LINE
8
1
10
27.58
20
55.875
11
28.725
21
48.691
0
LINE
8
1
10
28.725
20
48.691
11
28.496
21
44.188
0
LINE
8
1
10
28.496
20
44.188
11
25.998
21
38.058
0
LINE
8
1
10
25.998
20
38.058
11
23.388
21
36.271
0
LINE
8
1
10
23.388
20
36.271
11
20.106
21
35.98
0
LINE
8
1
10
20.106
20
35.98
11
18.675
21
36.187
0
LINE
8
1
10
18.675
20
36.187
11
17.606
21
38.699
0
LINE
8
1
10
17.606
20
38.699
11
16.232
21
45.944
0
LINE
8
1
10
16.232
20
45.944
11
15.284
21
48.483
0
LINE
8
1
10
15.284
20
48.483
11
14.458
21
54.234
0
LINE
8
1
10
14.458
20
54.234
11
13.24
21
56.324
0
LINE
8
1
10
13.24
20
56.324
11
13.031
21
57.11
0
LINE
8
1
10
13.031
20
57.11
11
11.022
21
62.652
0
LINE
8
1
10
11.022
20
62.652
11
11.461
21
64.331
0
LINE
8
1
10
11.461
20
64.331
11
14.433
21
69.706
0
LINE
8
1
10
14.433
20
69.706
11
14.457
21
71.173
0
LINE
8
1
10
14.457
20
71.173
11
13.099
21
71.728
0
LINE
8
1
10
13.099
20
71.728
11
-6.054
21
72.222
0
LINE
8
1
10
-6.054
20
72.222
11
-12.397
21
69.928
0
LINE
8
1
10
-12.397
20
69.928
11
-14.681
21
67.017
0
LINE
8
1
10
-14.681
20
67.017
11
-20.577
21
66.571
0
LINE
8
1
10
-20.577
20
66.571
11
-23.183
21
65.262
0
LINE
8
1
10
-23.183
20
65.262
11
-25.016
21
59.769
0
LINE
8
1
10
-25.016
20
59.769
11
-22.967
21
56.875
0
LINE
8
1
10
-22.967
20
56.875
11
-19.181
21
55.46
0
LINE
8
1
10
-19.181
20
55.46
11
-18.487
21
57.324
0
LINE
8
1
10
-18.487
20
57.324
11
-16.725
21
58.78
0
LINE
8
1
10
-16.725
20
58.78
11
-14.187
21
57.791
0
LINE
8
1
10
-14.187
20
57.791
11
-11.849
21
54.457
0
LINE
8
1
10
-11.849
20
54.457
11
-9.956
21
48.694
0
LINE
8
1
10
-9.956
20
48.694
11
-10.895
21
44.738
0
LINE
8
1
10
-10.895
20
44.738
11
-15.886
21
37.092
0
LINE
8
1
10
-15.886
20
37.092
11
-21.038
21
35.949
0
LINE
8
1
10
-21.038
20
35.949
11
-24.467
21
36.547
0
LINE
8
1
10
-24.467
20
36.547
11
-26.57
21
38.476
0
LINE
8
1
10
-26.57
20
38.476
11
-29.037
21
47.906
0
LINE
8
1
10
-29.037
20
47.906
11
-28.071
21
54.864
0
LINE
8
1
10
-28.071
20
54.864
11
-27.721
21
62.152
0
LINE
8
1
10
-27.721
20
62.152
11
-33.199
21
69.094
0
LINE
8
1
10
-33.199
20
69.094
11
-37.235
21
70.833
0
LINE
8
1
10
-37.235
20
70.833
11
-71.418
21
94.728
0
LINE
8
1
10
-71.418
20
94.728
11
-77.227
21
96.613
0
LINE
8
1
10
-77.227
20
96.613
11
-81.25
21
94.817
0
LINE
8
1
10
-81.25
20
94.817
11
-82.305
21
88.723
0
LINE
8
1
10
-82.305
20
88.723
11
-82.006
21
87.095
0
LINE
8
1
10
-82.006
20
87.095
11
-80.144
21
82.38
0
LINE
8
1
10
-80.144
20
82.38
11
-79.064
21
80.566
0
LINE
8
1
10
81.758
20
87.477
11
80.992
21
84.879
0
LINE
8
1
10
80.992
20
84.879
11
78.748
21
80.566
0
LINE
8
1
10
78.748
20
80.566
11
81.376
21
79.541
0
LINE
8
1
10
81.376
20
79.541
11
82.515
21
76.683
0
LINE
8
1
10
82.515
20
76.683
11
81.588
21
74.077
0
LINE
8
1
10
81.588
20
74.077
11
79.647
21
70.775
0
LINE
8
1
10
79.647
20
70.775
11
95.977
21
27.093
0
LINE
8
1
10
95.977
20
27.093
11
88.108
21
-53.919
0
LINE
8
1
10
88.108
20
-53.919
11
66.926
21
-88.355
0
LINE
8
1
10
66.926
20
-88.355
11
42.236
21
-108.793
0
LINE
8
1
10
42.236
20
-108.793
11
16.18
21
-118.748
0
LINE
8
1
10
16.18
20
-118.748
11
-38.478
21
-110.792
0
LINE
8
1
10
-38.478
20
-110.792
11
-62.798
21
-92.675
0
LINE
8
1
10
-62.798
20
-92.675
11
-84.199
21
-62.402
0
LINE
8
1
10
-84.199
20
-62.402
11
-96.544
21
-23.844
0
LINE
8
1
10
-96.544
20
-23.844
11
-91.05
21
45.942
0
LINE
8
1
10
-91.05
20
45.942
11
-79.793
21
70.516
0
LINE
8
1
10
-79.793
20
70.516
11
-82.272
21
74.773
0
LINE
8
1
10
-82.272
20
74.773
11
-82.793
21
77.685
0
LINE
8
1
10
-82.793
20
77.685
11
-80.868
21
80.056
0
LINE
8
1
10
-80.868
20
80.056
11
-79.064
21
80.566
0
LINE
8
1
10
-79.064
20
80.566
11
-82.012
21
87.089
0
LINE
8
1
10
-82.012
20
87.089
11
-103.693
21
39.794
0
LINE
8
1
10
-103.693
20
39.794
11
-98.501
21
-56.264
0
LINE
8
1
10
-98.501
20
-56.264
11
-77.446
21
-93.195
0
LINE
8
1
10
-77.446
20
-93.195
11
-55.061
21
-114.534
0
LINE
8
1
10
-55.061
20
-114.534
11
-29.002
21
-128.021
0
LINE
8
1
10
-29.002
20
-128.021
11
44.866
21
-120.961
0
LINE
8
1
10
44.866
20
-120.961
11
71.366
21
-100.149
0
LINE
8
1
10
71.366
20
-100.149
11
93.248
21
-68.264
0
LINE
8
1
10
93.248
20
-68.264
11
104.758
21
-35.498
0
LINE
8
1
10
104.758
20
-35.498
11
99.202
21
54.377
0
LINE
8
1
10
99.202
20
54.377
11
81.758
21
87.477
0
LINE
8
1
10
-103.262
20
132.939
11
-102.153
21
134.11
0
LINE
8
1
10
-102.153
20
134.11
11
-86.567
21
121.262
0
LINE
8
1
10
-86.567
20
121.262
11
-89.577
21
118.082
0
LINE
8
1
10
-89.577
20
118.082
11
-103.262
21
132.939
0
LINE
8
1
10
-109.574
20
135.029
11
-82.802
21
102.34
0
LINE
8
1
10
-82.802
20
102.34
11
-79.459
21
105.867
0
LINE
8
1
10
-79.459
20
105.867
11
-86.37
21
114.106
0
LINE
8
1
10
-86.37
20
114.106
11
-82.584
21
118.096
0
LINE
8
1
10
-82.584
20
118.096
11
-74.237
21
111.396
0
LINE
8
1
10
-74.237
20
111.396
11
-70.111
21
115.753
0
LINE
8
1
10
-70.111
20
115.753
11
-103.344
21
141.613
0
LINE
8
1
10
-103.344
20
141.613
11
-109.574
21
135.029
0
LINE
8
1
10
0.012
20
120.356
11
-32.091
21
113.786
0
LINE
8
1
10
-32.091
20
113.786
11
-32.091
21
68.508
0
LINE
8
1
10
-32.091
20
68.508
11
-27.796
21
62.369
0
LINE
8
1
10
-27.796
20
62.369
11
-27.594
21
57.973
0
LINE
8
1
10
-27.594
20
57.973
11
-28.394
21
53.534
0
LINE
8
1
10
-28.394
20
53.534
11
-29.076
21
46.803
0
LINE
8
1
10
-29.076
20
46.803
11
-26.612
21
38.511
0
LINE
8
1
10
-26.612
20
38.511
11
-23.246
21
36.136
0
LINE
8
1
10
-23.246
20
36.136
11
-19.197
21
36.194
0
LINE
8
1
10
-19.197
20
36.194
11
-15.9
21
37.099
0
LINE
8
1
10
-15.9
20
37.099
11
-10.909
21
44.745
0
LINE
8
1
10
-10.909
20
44.745
11
-9.969
21
48.708
0
LINE
8
1
10
-9.969
20
48.708
11
-12.193
21
55.134
0
LINE
8
1
10
-12.193
20
55.134
11
-14.565
21
58.114
0
LINE
8
1
10
-14.565
20
58.114
11
-15.62
21
58.735
0
LINE
8
1
10
-15.62
20
58.735
11
-16.765
21
58.785
0
LINE
8
1
10
-16.765
20
58.785
11
-18.238
21
57.847
0
LINE
8
1
10
-18.238
20
57.847
11
-18.691
21
56.544
0
LINE
8
1
10
-18.691
20
56.544
11
-18.828
21
55.67
0
LINE
8
1
10
-18.828
20
55.67
11
-24.252
21
58.12
0
LINE
8
1
10
-24.252
20
58.12
11
-25.084
21
61.814
0
LINE
8
1
10
-25.084
20
61.814
11
-23.713
21
64.78
0
LINE
8
1
10
-23.713
20
64.78
11
-21.31
21
66.33
0
LINE
8
1
10
-21.31
20
66.33
11
-17.007
21
67.081
0
LINE
8
1
10
-17.007
20
67.081
11
-14.695
21
67.023
0
LINE
8
1
10
-14.695
20
67.023
11
-11.204
21
70.72
0
LINE
8
1
10
-11.204
20
70.72
11
-6.306
21
72.239
0
LINE
8
1
10
-6.306
20
72.239
11
-5.414
21
72.064
0
LINE
8
1
10
-5.414
20
72.064
11
13.085
21
71.735
0
LINE
8
1
10
13.085
20
71.735
11
14.454
21
71.187
0
LINE
8
1
10
14.454
20
71.187
11
14.42
21
69.713
0
LINE
8
1
10
14.42
20
69.713
11
11.254
21
63.797
0
LINE
8
1
10
11.254
20
63.797
11
11.008
21
62.666
0
LINE
8
1
10
11.008
20
62.666
11
13.166
21
59.002
0
LINE
8
1
10
13.166
20
59.002
11
13.017
21
57.117
0
LINE
8
1
10
13.017
20
57.117
11
13.429
21
55.984
0
LINE
8
1
10
13.429
20
55.984
11
14.871
21
53.332
0
LINE
8
1
10
14.871
20
53.332
11
15.271
21
48.497
0
LINE
8
1
10
15.271
20
48.497
11
17.489
21
40.292
0
LINE
8
1
10
17.489
20
40.292
11
17.592
21
38.706
0
LINE
8
1
10
17.592
20
38.706
11
18.661
21
36.2
0
LINE
8
1
10
18.661
20
36.2
11
23.744
21
36.389
0
LINE
8
1
10
23.744
20
36.389
11
25.152
21
37.177
0
LINE
8
1
10
25.152
20
37.177
11
26.87
21
39.583
0
LINE
8
1
10
26.87
20
39.583
11
28.48
21
44.201
0
LINE
8
1
10
28.48
20
44.201
11
28.613
21
49.824
0
LINE
8
1
10
28.613
20
49.824
11
27.531
21
56.049
0
LINE
8
1
10
27.531
20
56.049
11
27.564
21
62.856
0
LINE
8
1
10
27.564
20
62.856
11
32.837
21
69.086
0
LINE
8
1
10
32.837
20
69.086
11
32.837
21
113.479
0
LINE
8
1
10
32.837
20
113.479
11
0.012
21
120.356
0
LINE
8
1
10
32.837
20
113.479
11
32.837
21
69.08
0
LINE
8
1
10
32.837
20
69.08
11
36.948
21
70.854
0
LINE
8
1
10
36.948
20
70.854
11
65.614
21
89.717
0
LINE
8
1
10
65.614
20
89.717
11
37.376
21
111.358
0
LINE
8
1
10
37.376
20
111.358
11
32.837
21
113.479
0
LINE
8
1
10
64.695
20
127.532
11
65.189
21
129.505
0
LINE
8
1
10
65.189
20
129.505
11
66.139
21
130.862
0
LINE
8
1
10
66.139
20
130.862
11
82.126
21
150.071
0
LINE
8
1
10
82.126
20
150.071
11
84.013
21
151.466
0
LINE
8
1
10
84.013
20
151.466
11
87.422
21
149.649
0
LINE
8
1
10
87.422
20
149.649
11
87.002
21
147.502
0
LINE
8
1
10
87.002
20
147.502
11
86.02
21
146.059
0
LINE
8
1
10
86.02
20
146.059
11
70.401
21
127.308
0
LINE
8
1
10
70.401
20
127.308
11
68.149
21
125.465
0
LINE
8
1
10
68.149
20
125.465
11
64.695
21
127.532
0
LINE
8
1
10
84.481
20
119.736
11
78.859
21
113.753
0
LINE
8
1
10
78.859
20
113.753
11
77.847
21
108.185
0
LINE
8
1
10
77.847
20
108.185
11
80.23
21
103.966
0
LINE
8
1
10
80.23
20
103.966
11
82.845
21
101.775
0
LINE
8
1
10
82.845
20
101.775
11
88.167
21
101.326
0
LINE
8
1
10
88.167
20
101.326
11
90.408
21
102.291
0
LINE
8
1
10
90.408
20
102.291
11
95.225
21
105.642
0
LINE
8
1
10
95.225
20
105.642
11
118.273
21
125.272
0
LINE
8
1
10
118.273
20
125.272
11
114.331
21
129.902
0
LINE
8
1
10
114.331
20
129.902
11
89.346
21
108.624
0
LINE
8
1
10
89.346
20
108.624
11
86.874
21
107.112
0
LINE
8
1
10
86.874
20
107.112
11
83.511
21
109.039
0
LINE
8
1
10
83.511
20
109.039
11
83.541
21
109.86
0
LINE
8
1
10
83.541
20
109.86
11
84.724
21
111.778
0
LINE
8
1
10
84.724
20
111.778
11
87.491
21
114.324
0
LINE
8
1
10
87.491
20
114.324
11
110.736
21
134.123
0
LINE
8
1
10
110.736
20
134.123
11
106.8
21
138.746
0
LINE
8
1
10
106.8
20
138.746
11
84.481
21
119.736
0
LINE
8
1
10
121.861
20
113.289
11
124.578
21
108.734
0
LINE
8
1
10
124.578
20
108.734
11
92.911
21
89.887
0
LINE
8
1
10
92.911
20
89.887
11
96.015
21
84.665
0
LINE
8
1
10
96.015
20
84.665
11
127.676
21
103.511
0
LINE
8
1
10
127.676
20
103.511
11
130.393
21
98.949
0
LINE
8
1
10
130.393
20
98.949
11
134.743
21
101.537
0
LINE
8
1
10
134.743
20
101.537
11
126.212
21
115.883
0
LINE
8
1
10
126.212
20
115.883
11
121.861
21
113.289
0
LINE
8
1
10
-81.583
20
160.99
11
-84.983
21
152.51
0
LINE
8
1
10
-84.983
20
152.51
11
-82.987
21
147.833
0
LINE
8
1
10
-82.987
20
147.833
11
-81.869
21
146.141
0
LINE
8
1
10
-81.869
20
146.141
11
-69.61
21
128.925
0
LINE
8
1
10
-69.61
20
128.925
11
-65.402
21
124.471
0
LINE
8
1
10
-65.402
20
124.471
11
-62.385
21
123.061
0
LINE
8
1
10
-62.385
20
123.061
11
-59.059
21
123.606
0
LINE
8
1
10
-59.059
20
123.606
11
-55.218
21
127.118
0
LINE
8
1
10
-55.218
20
127.118
11
-54.497
21
129.612
0
LINE
8
1
10
-54.497
20
129.612
11
-54.539
21
131.917
0
LINE
8
1
10
-54.539
20
131.917
11
-52.047
21
129.521
0
LINE
8
1
10
-52.047
20
129.521
11
-49.569
21
131.284
0
LINE
8
1
10
-49.569
20
131.284
11
-61.396
21
147.877
0
LINE
8
1
10
-61.396
20
147.877
11
-68.681
21
142.682
0
LINE
8
1
10
-68.681
20
142.682
11
-65.746
21
138.563
0
LINE
8
1
10
-65.746
20
138.563
11
-63.397
21
140.231
0
LINE
8
1
10
-63.397
20
140.231
11
-59.239
21
134.394
0
LINE
8
1
10
-59.239
20
134.394
11
-58.386
21
132.13
0
LINE
8
1
10
-58.386
20
132.13
11
-62.461
21
129.925
0
LINE
8
1
10
-62.461
20
129.925
11
-64.112
21
131.665
0
LINE
8
1
10
-64.112
20
131.665
11
-78.628
21
152.041
0
LINE
8
1
10
-78.628
20
152.041
11
-79.485
21
154.314
0
LINE
8
1
10
-79.485
20
154.314
11
-75.533
21
156.581
0
LINE
8
1
10
-75.533
20
156.581
11
-74.125
21
155.277
0
LINE
8
1
10
-74.125
20
155.277
11
-70.689
21
150.464
0
LINE
8
1
10
-70.689
20
150.464
11
-65.739
21
153.991
0
LINE
8
1
10
-65.739
20
153.991
11
-68.604
21
158.053
0
LINE
8
1
10
-68.604
20
158.053
11
-72.958
21
162.037
0
LINE
8
1
10
-72.958
20
162.037
11
-79.506
21
162.206
0
LINE
8
1
10
-79.506
20
162.206
11
-81.583
21
160.99
0
LINE
8
1
10
84.1
20
157.355
11
79.92
21
155.754
0
LINE
8
1
10
79.92
20
155.754
11
75.603
21
151.717
0
LINE
8
1
10
75.603
20
151.717
11
62.952
21
136.527
0
LINE
8
1
10
62.952
20
136.527
11
59.65
21
131.325
0
LINE
8
1
10
59.65
20
131.325
11
58.921
21
127.498
0
LINE
8
1
10
58.921
20
127.498
11
60.815
21
122.969
0
LINE
8
1
10
60.815
20
122.969
11
65.32
21
119.881
0
LINE
8
1
10
65.32
20
119.881
11
70.827
21
120.389
0
LINE
8
1
10
70.827
20
120.389
11
75.197
21
123.698
0
LINE
8
1
10
75.197
20
123.698
11
76.549
21
125.211
0
LINE
8
1
10
76.549
20
125.211
11
89.914
21
141.26
0
LINE
8
1
10
89.914
20
141.26
11
92.917
21
146.852
0
LINE
8
1
10
92.917
20
146.852
11
91.088
21
154.225
0
LINE
8
1
10
91.088
20
154.225
11
86.026
21
157.257
0
LINE
8
1
10
86.026
20
157.257
11
84.1
21
157.355
0
LINE
8
1
10
-60.864
20
172.565
11
-44.571
21
133.946
0
LINE
8
1
10
-44.571
20
133.946
11
-31.396
21
139.509
0
LINE
8
1
10
-31.396
20
139.509
11
-33.364
21
144.173
0
LINE
8
1
10
-33.364
20
144.173
11
-40.949
21
140.973
0
LINE
8
1
10
-40.949
20
140.973
11
-55.274
21
174.921
0
LINE
8
1
10
-55.274
20
174.921
11
-60.864
21
172.565
0
LINE
8
1
10
-33.827
20
181.982
11
-25.139
21
140.986
0
LINE
8
1
10
-25.139
20
140.986
11
-11.236
21
143.928
0
LINE
8
1
10
-11.236
20
143.928
11
-12.284
21
148.885
0
LINE
8
1
10
-12.284
20
148.885
11
-20.25
21
147.196
0
LINE
8
1
10
-20.25
20
147.196
11
-23.498
21
162.529
0
LINE
8
1
10
-23.498
20
162.529
11
-15.798
21
164.163
0
LINE
8
1
10
-15.798
20
164.163
11
-16.846
21
169.113
0
LINE
8
1
10
-16.846
20
169.113
11
-24.554
21
167.486
0
LINE
8
1
10
-24.554
20
167.486
11
-26.834
21
178.291
0
LINE
8
1
10
-26.834
20
178.291
11
-18.868
21
179.973
0
LINE
8
1
10
-18.868
20
179.973
11
-19.917
21
184.923
0
LINE
8
1
10
-19.917
20
184.923
11
-33.827
21
181.982
0
LINE
8
1
10
22.747
20
183.48
11
20.324
21
180.923
0
LINE
8
1
10
20.324
20
180.923
11
19.151
21
166.278
0
LINE
8
1
10
19.151
20
166.278
11
20.028
21
164.359
0
LINE
8
1
10
20.028
20
164.359
11
23.473
21
158.504
0
LINE
8
1
10
23.473
20
158.504
11
24.525
21
149.905
0
LINE
8
1
10
24.525
20
149.905
11
23.977
21
148.394
0
LINE
8
1
10
23.977
20
148.394
11
19.086
21
148.581
0
LINE
8
1
10
19.086
20
148.581
11
19.199
21
151.56
0
LINE
8
1
10
19.199
20
151.56
11
20.69
21
158.138
0
LINE
8
1
10
20.69
20
158.138
11
14.767
21
159.472
0
LINE
8
1
10
14.767
20
159.472
11
12.972
21
151.515
0
LINE
8
1
10
12.972
20
151.515
11
13.101
21
147.168
0
LINE
8
1
10
13.101
20
147.168
11
16.89
21
142.731
0
LINE
8
1
10
16.89
20
142.731
11
23.452
21
141.449
0
LINE
8
1
10
23.452
20
141.449
11
28.449
21
144.559
0
LINE
8
1
10
28.449
20
144.559
11
30.441
21
160.447
0
LINE
8
1
10
30.441
20
160.447
11
29.608
21
162.44
0
LINE
8
1
10
29.608
20
162.44
11
26.167
21
168.441
0
LINE
8
1
10
26.167
20
168.441
11
24.655
21
172.074
0
LINE
8
1
10
24.655
20
172.074
11
25.378
21
177.763
0
LINE
8
1
10
25.378
20
177.763
11
28.335
21
178.957
0
LINE
8
1
10
28.335
20
178.957
11
30.265
21
176.419
0
LINE
8
1
10
30.265
20
176.419
11
30.032
21
174.322
0
LINE
8
1
10
30.032
20
174.322
11
28.854
21
169.113
0
LINE
8
1
10
28.854
20
169.113
11
34.778
21
167.779
0
LINE
8
1
10
34.778
20
167.779
11
36.112
21
173.702
0
LINE
8
1
10
36.112
20
173.702
11
36.338
21
178.233
0
LINE
8
1
10
36.338
20
178.233
11
32.956
21
182.961
0
LINE
8
1
10
32.956
20
182.961
11
25.975
21
184.527
0
LINE
8
1
10
25.975
20
184.527
11
22.747
21
183.48
0
LINE
8
1
10
54.189
20
175.112
11
50.627
21
172.397
0
LINE
8
1
10
50.627
20
172.397
11
47.612
21
167.295
0
LINE
8
1
10
47.612
20
167.295
11
39.721
21
149.177
0
LINE
8
1
10
39.721
20
149.177
11
37.998
21
143.245
0
LINE
8
1
10
37.998
20
143.245
11
38.368
21
139.368
0
LINE
8
1
10
38.368
20
139.368
11
41.427
21
135.585
0
LINE
8
1
10
41.427
20
135.585
11
46.465
21
133.813
0
LINE
8
1
10
46.465
20
133.813
11
51.794
21
135.673
0
LINE
8
1
10
51.794
20
135.673
11
54.492
21
139.114
0
LINE
8
1
10
54.492
20
139.114
11
55.68
21
141.497
0
LINE
8
1
10
55.68
20
141.497
11
57.662
21
146.052
0
LINE
8
1
10
57.662
20
146.052
11
52.133
21
148.462
0
LINE
8
1
10
52.133
20
148.462
11
49.19
21
141.826
0
LINE
8
1
10
49.19
20
141.826
11
47.818
21
140.018
0
LINE
8
1
10
47.818
20
140.018
11
44.979
21
139.804
0
LINE
8
1
10
44.979
20
139.804
11
43.739
21
142.367
0
LINE
8
1
10
43.739
20
142.367
11
44.364
21
144.622
0
LINE
8
1
10
44.364
20
144.622
11
54.349
21
167.551
0
LINE
8
1
10
54.349
20
167.551
11
55.837
21
169.461
0
LINE
8
1
10
55.837
20
169.461
11
59.834
21
167.238
0
LINE
8
1
10
59.834
20
167.238
11
59.445
21
165.37
0
LINE
8
1
10
59.445
20
165.37
11
57.117
21
160.003
0
LINE
8
1
10
57.117
20
160.003
11
62.68
21
157.573
0
LINE
8
1
10
62.68
20
157.573
11
64.843
21
162.646
0
LINE
8
1
10
64.843
20
162.646
11
65.929
21
167.658
0
LINE
8
1
10
65.929
20
167.658
11
63.504
21
172.897
0
LINE
8
1
10
63.504
20
172.897
11
57.507
21
175.542
0
LINE
8
1
10
57.507
20
175.542
11
54.189
21
175.112
0
LINE
8
1
10
0.012
20
200.604
11
70.578
21
181.326
0
LINE
8
1
10
70.578
20
181.326
11
107.937
21
151.614
0
LINE
8
1
10
107.937
20
151.614
11
135.657
21
114.013
0
LINE
8
1
10
135.657
20
114.013
11
154.052
21
71.589
0
LINE
8
1
10
154.052
20
71.589
11
164.14
21
19.45
0
LINE
8
1
10
164.14
20
19.45
11
152.666
21
-75.973
0
LINE
8
1
10
152.666
20
-75.973
11
129.688
21
-123.947
0
LINE
8
1
10
129.688
20
-123.947
11
99.9
21
-159.658
0
LINE
8
1
10
99.9
20
-159.658
11
64.523
21
-184.714
0
LINE
8
1
10
64.523
20
-184.714
11
18.77
21
-199.307
0
LINE
8
1
10
18.77
20
-199.307
11
-65.542
21
-184.129
0
LINE
8
1
10
-65.542
20
-184.129
11
-97.69
21
-161.606
0
LINE
8
1
10
-97.69
20
-161.606
11
-121.082
21
-136.126
0
LINE
8
1
10
-121.082
20
-136.126
11
-143.718
21
-98.328
0
LINE
8
1
10
-143.718
20
-98.328
11
-159.705
21
-49.902
0
LINE
8
1
10
-159.705
20
-49.902
11
-152.364
21
76.78
0
LINE
8
1
10
-152.364
20
76.78
11
-128.321
21
125.982
0
LINE
8
1
10
-128.321
20
125.982
11
-99.647
21
159.853
0
LINE
8
1
10
-99.647
20
159.853
11
-64.681
21
184.595
0
LINE
8
1
10
-64.681
20
184.595
11
-15.915
21
199.659
0
LINE
8
1
10
-15.915
20
199.659
11
0.012
21
200.604
0
LINE
8
1
10
0.006
20
221.023
11
72.332
21
202.941
0
LINE
8
1
10
72.332
20
202.941
11
115.907
21
170.623
0
LINE
8
1
10
115.907
20
170.623
11
148.81
21
127.777
0
LINE
8
1
10
148.81
20
127.777
11
169.101
21
82.873
0
LINE
8
1
10
169.101
20
82.873
11
180.948
21
28.028
0
LINE
8
1
10
180.948
20
28.028
11
167.955
21
-86.385
0
LINE
8
1
10
167.955
20
-86.385
11
138.283
21
-144.18
0
LINE
8
1
10
138.283
20
-144.18
11
108.424
21
-177.793
0
LINE
8
1
10
108.424
20
-177.793
11
76.696
21
-200.654
0
LINE
8
1
10
76.696
20
-200.654
11
32.0
21
-217.644
0
LINE
8
1
10
32.0
20
-217.644
11
-68.224
21
-205.048
0
LINE
8
1
10
-68.224
20
-205.048
11
-109.933
21
-176.372
0
LINE
8
1
10
-109.933
20
-176.372
11
-144.606
21
-134.678
0
LINE
8
1
10
-144.606
20
-134.678
11
-167.699
21
-86.965
0
LINE
8
1
10
-167.699
20
-86.965
11
-179.854
21
-36.864
0
LINE
8
1
10
-179.854
20
-36.864
11
-167.976
21
86.272
0
LINE
8
1
10
-167.976
20
86.272
11
-138.288
21
144.129
0
LINE
8
1
10
-138.288
20
144.129
11
-108.435
21
177.744
0
LINE
8
1
10
-108.435
20
177.744
11
-76.831
21
200.538
0
LINE
8
1
10
-76.831
20
200.538
11
-32.714
21
217.472
0
LINE
8
1
10
-32.714
20
217.472
11
0.006
21
221.023
0
LINE
8
1
10
0.006
20
229.779
11
77.587
21
209.549
0
LINE
8
1
10
77.587
20
209.549
11
117.161
21
180.253
0
LINE
8
1
10
117.161
20
180.253
11
151.431
21
137.382
0
LINE
8
1
10
151.431
20
137.382
11
178.223
21
76.382
0
LINE
8
1
10
178.223
20
76.382
11
188.998
21
-1.088
0
LINE
8
1
10
188.998
20
-1.088
11
172.519
21
-93.958
0
LINE
8
1
10
172.519
20
-93.958
11
141.391
21
-152.509
0
LINE
8
1
10
141.391
20
-152.509
11
106.845
21
-189.608
0
LINE
8
1
10
106.845
20
-189.608
11
67.781
21
-214.62
0
LINE
8
1
10
67.781
20
-214.62
11
-0.898
21
-229.778
0
LINE
8
1
10
-0.898
20
-229.778
11
-73.14
21
-211.931
0
LINE
8
1
10
-73.14
20
-211.931
11
-113.555
21
-183.66
0
LINE
8
1
10
-113.555
20
-183.66
11
-146.411
21
-145.22
0
LINE
8
1
10
-146.411
20
-145.22
11
-176.767
21
-81.223
0
LINE
8
1
10
-176.767
20
-81.223
11
-188.862
21
-8.346
0
LINE
8
1
10
-188.862
20
-8.346
11
-172.004
21
95.288
0
LINE
8
1
10
-172.004
20
95.288
11
-142.875
21
150.403
0
LINE
8
1
10
-142.875
20
150.403
11
-108.681
21
188.017
0
LINE
8
1
10
-108.681
20
188.017
11
-69.7
21
213.669
0
LINE
8
1
10
-69.7
20
213.669
11
-13.769
21
229.173
0
LINE
8
1
10
-13.769
20
229.173
11
0.006
21
229.779
0
ENDSEC
0
EOF
