999
DXF created by Makelangelo software (http://makelangelo.com)
0
SECTION
2
HEADER
9
$ACADVER
1
AC1006
9
$INSBASE
10
-199.5
20
-125.31248370633998
30
0.0
9
$EXTMIN
10
-199.5
20
-125.31248370633998
30
0.0
9
$EXTMAX
10
199.5
20
125.31248370633998
30
0.0
0
ENDSEC
0
SECTION
2
TABLES
0
TABLE
2
LTYPE
70
1
0
LTYPE
2
CONTINUOUS
70
64
3
Solid line
72
65
73
0
40
0.000
0
ENDTAB
0
TABLE
2
LAYER
70
6
0
LAYER
2
1
70
64
62
7
6
CONTINUOUS
0
LAYER
2
2
70
64
62
7
6
CONTINUOUS
0
ENDTAB
0
TABLE
2
STYLE
70
0
0
ENDTAB
0
ENDSEC
0
SECTION
0
BLOCKS
0
ENDSEC
0
SECTION
2
ENTITIES
0
LINE
8
1
10
5.582
20
-112.023
11
5.609
21
-112.132
0
LINE
8
1
10
5.609
20
-112.132
11
5.652
21
-112.234
0
LINE
8
1
10
5.652
20
-112.234
11
5.71
21
-112.327
0
LINE
8
1
10
5.71
20
-112.327
11
5.78
21
-112.409
0
LINE
8
1
10
5.78
20
-112.409
11
5.863
21
-112.48
0
LINE
8
1
10
5.863
20
-112.48
11
5.956
21
-112.538
0
LINE
8
1
10
5.956
20
-112.538
11
6.058
21
-112.581
0
LINE
8
1
10
6.058
20
-112.581
11
6.167
21
-112.608
0
LINE
8
1
10
6.167
20
-112.608
11
6.282
21
-112.617
0
LINE
8
1
10
6.282
20
-112.617
11
13.371
21
-112.617
0
LINE
8
1
10
13.371
20
-112.617
11
13.486
21
-112.608
0
LINE
8
1
10
13.486
20
-112.608
11
13.595
21
-112.581
0
LINE
8
1
10
13.595
20
-112.581
11
13.696
21
-112.538
0
LINE
8
1
10
13.696
20
-112.538
11
13.789
21
-112.48
0
LINE
8
1
10
13.789
20
-112.48
11
13.872
21
-112.409
0
LINE
8
1
10
13.872
20
-112.409
11
13.943
21
-112.327
0
LINE
8
1
10
13.943
20
-112.327
11
14.0
21
-112.234
0
LINE
8
1
10
14.0
20
-112.234
11
14.043
21
-112.132
0
LINE
8
1
10
14.043
20
-112.132
11
14.07
21
-112.023
0
LINE
8
1
10
14.07
20
-112.023
11
14.08
21
-111.908
0
LINE
8
1
10
14.08
20
-111.908
11
14.08
21
-109.782
0
LINE
8
1
10
14.08
20
-109.782
11
14.07
21
-109.667
0
LINE
8
1
10
14.07
20
-109.667
11
14.043
21
-109.557
0
LINE
8
1
10
14.043
20
-109.557
11
14.0
21
-109.456
0
LINE
8
1
10
14.0
20
-109.456
11
13.943
21
-109.363
0
LINE
8
1
10
13.943
20
-109.363
11
13.872
21
-109.28
0
LINE
8
1
10
13.872
20
-109.28
11
13.789
21
-109.209
0
LINE
8
1
10
13.789
20
-109.209
11
13.696
21
-109.152
0
LINE
8
1
10
13.696
20
-109.152
11
13.595
21
-109.109
0
LINE
8
1
10
13.595
20
-109.109
11
13.486
21
-109.082
0
LINE
8
1
10
13.486
20
-109.082
11
13.371
21
-109.073
0
LINE
8
1
10
13.371
20
-109.073
11
6.282
21
-109.073
0
LINE
8
1
10
6.282
20
-109.073
11
6.167
21
-109.082
0
LINE
8
1
10
6.167
20
-109.082
11
6.058
21
-109.109
0
LINE
8
1
10
6.058
20
-109.109
11
5.956
21
-109.152
0
LINE
8
1
10
5.956
20
-109.152
11
5.863
21
-109.209
0
LINE
8
1
10
5.863
20
-109.209
11
5.78
21
-109.28
0
LINE
8
1
10
5.78
20
-109.28
11
5.71
21
-109.363
0
LINE
8
1
10
5.71
20
-109.363
11
5.652
21
-109.456
0
LINE
8
1
10
5.652
20
-109.456
11
5.609
21
-109.557
0
LINE
8
1
10
5.609
20
-109.557
11
5.582
21
-109.667
0
LINE
8
1
10
5.582
20
-109.667
11
5.573
21
-109.782
0
LINE
8
1
10
5.573
20
-109.782
11
5.573
21
-111.908
0
LINE
8
1
10
6.183
20
-107.617
11
5.871
21
-106.207
0
LINE
8
1
10
5.871
20
-106.207
11
5.795
21
-104.869
0
LINE
8
1
10
5.795
20
-104.869
11
5.93
21
-103.627
0
LINE
8
1
10
5.93
20
-103.627
11
6.252
21
-102.508
0
LINE
8
1
10
6.252
20
-102.508
11
6.737
21
-101.536
0
LINE
8
1
10
6.737
20
-101.536
11
7.361
21
-100.736
0
LINE
8
1
10
7.361
20
-100.736
11
8.1
21
-100.133
0
LINE
8
1
10
8.1
20
-100.133
11
8.93
21
-99.753
0
LINE
8
1
10
8.93
20
-99.753
11
9.826
21
-99.621
0
LINE
8
1
10
9.826
20
-99.621
11
10.722
21
-99.753
0
LINE
8
1
10
10.722
20
-99.753
11
11.552
21
-100.133
0
LINE
8
1
10
11.552
20
-100.133
11
12.291
21
-100.736
0
LINE
8
1
10
12.291
20
-100.736
11
12.915
21
-101.536
0
LINE
8
1
10
12.915
20
-101.536
11
13.4
21
-102.508
0
LINE
8
1
10
13.4
20
-102.508
11
13.722
21
-103.627
0
LINE
8
1
10
13.722
20
-103.627
11
13.857
21
-104.869
0
LINE
8
1
10
13.857
20
-104.869
11
13.781
21
-106.207
0
LINE
8
1
10
13.781
20
-106.207
11
13.469
21
-107.617
0
LINE
8
1
10
13.469
20
-107.617
11
12.898
21
-109.073
0
LINE
8
1
10
37.022
20
-111.684
11
37.022
21
-108.848
0
LINE
8
1
10
37.022
20
-108.848
11
34.186
21
-108.848
0
LINE
8
1
10
34.186
20
-108.848
11
34.186
21
-111.684
0
LINE
8
1
10
42.693
20
-111.684
11
42.693
21
-108.848
0
LINE
8
1
10
42.693
20
-108.848
11
39.857
21
-108.848
0
LINE
8
1
10
39.857
20
-108.848
11
39.857
21
-111.684
0
LINE
8
1
10
-85.355
20
-104.632
11
-86.537
21
-104.632
0
LINE
8
1
10
-85.116
20
-109.966
11
-84.421
21
-112.784
0
LINE
8
1
10
-84.421
20
-112.784
11
-83.311
21
-115.413
0
LINE
8
1
10
-83.311
20
-115.413
11
-81.821
21
-117.813
0
LINE
8
1
10
-81.821
20
-117.813
11
-79.99
21
-119.947
0
LINE
8
1
10
-79.99
20
-119.947
11
-77.856
21
-121.778
0
LINE
8
1
10
-77.856
20
-121.778
11
-75.456
21
-123.268
0
LINE
8
1
10
-75.456
20
-123.268
11
-72.827
21
-124.379
0
LINE
8
1
10
-72.827
20
-124.379
11
-70.009
21
-125.073
0
LINE
8
1
10
-70.009
20
-125.073
11
-67.037
21
-125.312
0
LINE
8
1
10
-67.037
20
-125.312
11
-67.037
21
-106.995
0
LINE
8
1
10
-67.037
20
-106.995
11
-67.037
21
-104.632
0
LINE
8
1
10
-67.037
20
-104.632
11
-65.856
21
-104.632
0
LINE
8
1
10
-3.736
20
-90.98
11
-3.736
21
-92.161
0
LINE
8
1
10
24.182
20
-98.28
11
23.313
21
-98.424
0
LINE
8
1
10
23.313
20
-98.424
11
22.48
21
-98.658
0
LINE
8
1
10
22.48
20
-98.658
11
21.7
21
-98.978
0
LINE
8
1
10
21.7
20
-98.978
11
20.991
21
-99.378
0
LINE
8
1
10
20.991
20
-99.378
11
20.371
21
-99.852
0
LINE
8
1
10
20.371
20
-99.852
11
19.858
21
-100.397
0
LINE
8
1
10
19.858
20
-100.397
11
19.469
21
-101.007
0
LINE
8
1
10
19.469
20
-101.007
11
19.223
21
-101.677
0
LINE
8
1
10
19.223
20
-101.677
11
19.137
21
-102.402
0
LINE
8
1
10
19.137
20
-102.402
11
19.137
21
-106.575
0
LINE
8
1
10
19.137
20
-106.575
11
31.001
21
-106.575
0
LINE
8
1
10
31.001
20
-106.575
11
31.001
21
-102.402
0
LINE
8
1
10
31.001
20
-102.402
11
30.915
21
-101.677
0
LINE
8
1
10
30.915
20
-101.677
11
30.669
21
-101.007
0
LINE
8
1
10
30.669
20
-101.007
11
30.28
21
-100.397
0
LINE
8
1
10
30.28
20
-100.397
11
29.767
21
-99.852
0
LINE
8
1
10
29.767
20
-99.852
11
29.147
21
-99.378
0
LINE
8
1
10
29.147
20
-99.378
11
28.438
21
-98.978
0
LINE
8
1
10
28.438
20
-98.978
11
27.658
21
-98.658
0
LINE
8
1
10
27.658
20
-98.658
11
26.825
21
-98.424
0
LINE
8
1
10
26.825
20
-98.424
11
25.956
21
-98.28
0
LINE
8
1
10
25.956
20
-98.28
11
25.069
21
-98.23
0
LINE
8
1
10
25.069
20
-98.23
11
25.069
21
-98.23
0
LINE
8
1
10
24.715
20
-102.055
11
24.715
21
-105.157
0
LINE
8
1
10
24.715
20
-105.157
11
25.424
21
-105.157
0
LINE
8
1
10
25.424
20
-105.157
11
25.424
21
-102.055
0
LINE
8
1
10
24.101
20
-103.641
11
23.482
21
-103.597
0
LINE
8
1
10
23.482
20
-103.597
11
22.875
21
-103.519
0
LINE
8
1
10
22.875
20
-103.519
11
22.295
21
-103.4
0
LINE
8
1
10
22.295
20
-103.4
11
21.76
21
-103.237
0
LINE
8
1
10
21.76
20
-103.237
11
21.285
21
-103.023
0
LINE
8
1
10
21.285
20
-103.023
11
20.887
21
-102.755
0
LINE
8
1
10
20.887
20
-102.755
11
20.582
21
-102.426
0
LINE
8
1
10
20.582
20
-102.426
11
20.387
21
-102.032
0
LINE
8
1
10
20.387
20
-102.032
11
20.319
21
-101.568
0
LINE
8
1
10
20.319
20
-101.568
11
20.388
21
-101.194
0
LINE
8
1
10
20.388
20
-101.194
11
20.585
21
-100.826
0
LINE
8
1
10
20.585
20
-100.826
11
20.896
21
-100.474
0
LINE
8
1
10
20.896
20
-100.474
11
21.307
21
-100.144
0
LINE
8
1
10
21.307
20
-100.144
11
21.804
21
-99.843
0
LINE
8
1
10
21.804
20
-99.843
11
22.372
21
-99.581
0
LINE
8
1
10
22.372
20
-99.581
11
22.997
21
-99.363
0
LINE
8
1
10
22.997
20
-99.363
11
23.664
21
-99.198
0
LINE
8
1
10
23.664
20
-99.198
11
24.359
21
-99.094
0
LINE
8
1
10
24.359
20
-99.094
11
25.069
21
-99.057
0
LINE
8
1
10
25.779
20
-99.094
11
26.474
21
-99.198
0
LINE
8
1
10
26.474
20
-99.198
11
27.142
21
-99.363
0
LINE
8
1
10
27.142
20
-99.363
11
27.766
21
-99.581
0
LINE
8
1
10
27.766
20
-99.581
11
28.334
21
-99.843
0
LINE
8
1
10
28.334
20
-99.843
11
28.831
21
-100.144
0
LINE
8
1
10
28.831
20
-100.144
11
29.242
21
-100.474
0
LINE
8
1
10
29.242
20
-100.474
11
29.553
21
-100.826
0
LINE
8
1
10
29.553
20
-100.826
11
29.751
21
-101.194
0
LINE
8
1
10
29.751
20
-101.194
11
29.819
21
-101.568
0
LINE
8
1
10
29.819
20
-101.568
11
29.751
21
-102.032
0
LINE
8
1
10
29.751
20
-102.032
11
29.556
21
-102.426
0
LINE
8
1
10
29.556
20
-102.426
11
29.251
21
-102.755
0
LINE
8
1
10
29.251
20
-102.755
11
28.853
21
-103.023
0
LINE
8
1
10
28.853
20
-103.023
11
28.378
21
-103.237
0
LINE
8
1
10
28.378
20
-103.237
11
27.843
21
-103.4
0
LINE
8
1
10
27.843
20
-103.4
11
27.263
21
-103.519
0
LINE
8
1
10
27.263
20
-103.519
11
26.656
21
-103.597
0
LINE
8
1
10
26.656
20
-103.597
11
26.037
21
-103.641
0
LINE
8
1
10
26.037
20
-103.641
11
25.424
21
-103.654
0
LINE
8
1
10
17.605
20
-99.249
11
17.605
21
-106.575
0
LINE
8
1
10
17.605
20
-106.575
11
32.407
21
-106.575
0
LINE
8
1
10
32.407
20
-106.575
11
32.407
21
-99.249
0
LINE
8
1
10
24.534
20
-98.777
11
23.825
21
-98.777
0
LINE
8
1
10
25.479
20
-98.777
11
26.188
21
-98.777
0
LINE
8
1
10
33.778
20
-93.38
11
33.778
21
-105.937
0
LINE
8
1
10
33.778
20
-105.937
11
47.508
21
-105.937
0
LINE
8
1
10
47.508
20
-105.937
11
47.508
21
-93.38
0
LINE
8
1
10
-168.329
20
-81.629
11
-168.365
21
-81.483
0
LINE
8
1
10
-168.365
20
-81.483
11
-168.422
21
-81.348
0
LINE
8
1
10
-168.422
20
-81.348
11
-168.499
21
-81.224
0
LINE
8
1
10
-168.499
20
-81.224
11
-168.593
21
-81.114
0
LINE
8
1
10
-168.593
20
-81.114
11
-168.704
21
-81.019
0
LINE
8
1
10
-168.704
20
-81.019
11
-168.827
21
-80.942
0
LINE
8
1
10
-168.827
20
-80.942
11
-168.963
21
-80.885
0
LINE
8
1
10
-168.963
20
-80.885
11
-169.108
21
-80.849
0
LINE
8
1
10
-169.108
20
-80.849
11
-169.262
21
-80.837
0
LINE
8
1
10
-169.262
20
-80.837
11
-170.916
21
-80.837
0
LINE
8
1
10
-170.916
20
-80.837
11
-171.069
21
-80.849
0
LINE
8
1
10
-171.069
20
-80.849
11
-171.215
21
-80.885
0
LINE
8
1
10
-171.215
20
-80.885
11
-171.35
21
-80.942
0
LINE
8
1
10
-171.35
20
-80.942
11
-171.474
21
-81.019
0
LINE
8
1
10
-171.474
20
-81.019
11
-171.584
21
-81.114
0
LINE
8
1
10
-171.584
20
-81.114
11
-171.679
21
-81.224
0
LINE
8
1
10
-171.679
20
-81.224
11
-171.756
21
-81.348
0
LINE
8
1
10
-171.756
20
-81.348
11
-171.813
21
-81.483
0
LINE
8
1
10
-171.813
20
-81.483
11
-171.849
21
-81.629
0
LINE
8
1
10
-171.849
20
-81.629
11
-171.861
21
-81.782
0
LINE
8
1
10
-171.861
20
-81.782
11
-171.861
21
-98.559
0
LINE
8
1
10
-171.861
20
-98.559
11
-171.849
21
-98.713
0
LINE
8
1
10
-171.849
20
-98.713
11
-171.813
21
-98.858
0
LINE
8
1
10
-171.813
20
-98.858
11
-171.756
21
-98.994
0
LINE
8
1
10
-171.756
20
-98.994
11
-171.679
21
-99.118
0
LINE
8
1
10
-171.679
20
-99.118
11
-171.584
21
-99.228
0
LINE
8
1
10
-171.584
20
-99.228
11
-171.474
21
-99.322
0
LINE
8
1
10
-171.474
20
-99.322
11
-171.35
21
-99.399
0
LINE
8
1
10
-171.35
20
-99.399
11
-171.215
21
-99.456
0
LINE
8
1
10
-171.215
20
-99.456
11
-171.069
21
-99.492
0
LINE
8
1
10
-171.069
20
-99.492
11
-170.916
21
-99.505
0
LINE
8
1
10
-170.916
20
-99.505
11
-169.262
21
-99.505
0
LINE
8
1
10
-169.262
20
-99.505
11
-169.108
21
-99.492
0
LINE
8
1
10
-169.108
20
-99.492
11
-168.963
21
-99.456
0
LINE
8
1
10
-168.963
20
-99.456
11
-168.827
21
-99.399
0
LINE
8
1
10
-168.827
20
-99.399
11
-168.704
21
-99.322
0
LINE
8
1
10
-168.704
20
-99.322
11
-168.593
21
-99.228
0
LINE
8
1
10
-168.593
20
-99.228
11
-168.499
21
-99.118
0
LINE
8
1
10
-168.499
20
-99.118
11
-168.422
21
-98.994
0
LINE
8
1
10
-168.422
20
-98.994
11
-168.365
21
-98.858
0
LINE
8
1
10
-168.365
20
-98.858
11
-168.329
21
-98.713
0
LINE
8
1
10
-168.329
20
-98.713
11
-168.317
21
-98.559
0
LINE
8
1
10
-168.317
20
-98.559
11
-168.317
21
-81.782
0
LINE
8
1
10
-135.82
20
-81.629
11
-135.856
21
-81.483
0
LINE
8
1
10
-135.856
20
-81.483
11
-135.914
21
-81.348
0
LINE
8
1
10
-135.914
20
-81.348
11
-135.99
21
-81.224
0
LINE
8
1
10
-135.99
20
-81.224
11
-136.085
21
-81.114
0
LINE
8
1
10
-136.085
20
-81.114
11
-136.195
21
-81.019
0
LINE
8
1
10
-136.195
20
-81.019
11
-136.319
21
-80.942
0
LINE
8
1
10
-136.319
20
-80.942
11
-136.455
21
-80.885
0
LINE
8
1
10
-136.455
20
-80.885
11
-136.6
21
-80.849
0
LINE
8
1
10
-136.6
20
-80.849
11
-136.753
21
-80.837
0
LINE
8
1
10
-136.753
20
-80.837
11
-138.407
21
-80.837
0
LINE
8
1
10
-138.407
20
-80.837
11
-138.561
21
-80.849
0
LINE
8
1
10
-138.561
20
-80.849
11
-138.706
21
-80.885
0
LINE
8
1
10
-138.706
20
-80.885
11
-138.842
21
-80.942
0
LINE
8
1
10
-138.842
20
-80.942
11
-138.966
21
-81.019
0
LINE
8
1
10
-138.966
20
-81.019
11
-139.076
21
-81.114
0
LINE
8
1
10
-139.076
20
-81.114
11
-139.17
21
-81.224
0
LINE
8
1
10
-139.17
20
-81.224
11
-139.247
21
-81.348
0
LINE
8
1
10
-139.247
20
-81.348
11
-139.304
21
-81.483
0
LINE
8
1
10
-139.304
20
-81.483
11
-139.34
21
-81.629
0
LINE
8
1
10
-139.34
20
-81.629
11
-139.353
21
-81.782
0
LINE
8
1
10
-139.353
20
-81.782
11
-139.353
21
-98.559
0
LINE
8
1
10
-139.353
20
-98.559
11
-139.34
21
-98.713
0
LINE
8
1
10
-139.34
20
-98.713
11
-139.304
21
-98.858
0
LINE
8
1
10
-139.304
20
-98.858
11
-139.247
21
-98.994
0
LINE
8
1
10
-139.247
20
-98.994
11
-139.17
21
-99.118
0
LINE
8
1
10
-139.17
20
-99.118
11
-139.076
21
-99.228
0
LINE
8
1
10
-139.076
20
-99.228
11
-138.966
21
-99.322
0
LINE
8
1
10
-138.966
20
-99.322
11
-138.842
21
-99.399
0
LINE
8
1
10
-138.842
20
-99.399
11
-138.706
21
-99.456
0
LINE
8
1
10
-138.706
20
-99.456
11
-138.561
21
-99.492
0
LINE
8
1
10
-138.561
20
-99.492
11
-138.407
21
-99.505
0
LINE
8
1
10
-138.407
20
-99.505
11
-136.753
21
-99.505
0
LINE
8
1
10
-136.753
20
-99.505
11
-136.6
21
-99.492
0
LINE
8
1
10
-136.6
20
-99.492
11
-136.455
21
-99.456
0
LINE
8
1
10
-136.455
20
-99.456
11
-136.319
21
-99.399
0
LINE
8
1
10
-136.319
20
-99.399
11
-136.195
21
-99.322
0
LINE
8
1
10
-136.195
20
-99.322
11
-136.085
21
-99.228
0
LINE
8
1
10
-136.085
20
-99.228
11
-135.99
21
-99.118
0
LINE
8
1
10
-135.99
20
-99.118
11
-135.914
21
-98.994
0
LINE
8
1
10
-135.914
20
-98.994
11
-135.856
21
-98.858
0
LINE
8
1
10
-135.856
20
-98.858
11
-135.82
21
-98.713
0
LINE
8
1
10
-135.82
20
-98.713
11
-135.808
21
-98.559
0
LINE
8
1
10
-135.808
20
-98.559
11
-135.808
21
-81.782
0
LINE
8
1
10
-139.374
20
-80.805
11
-139.437
21
-80.55
0
LINE
8
1
10
-139.437
20
-80.55
11
-139.537
21
-80.313
0
LINE
8
1
10
-139.537
20
-80.313
11
-139.672
21
-80.096
0
LINE
8
1
10
-139.672
20
-80.096
11
-139.837
21
-79.904
0
LINE
8
1
10
-139.837
20
-79.904
11
-140.03
21
-79.738
0
LINE
8
1
10
-140.03
20
-79.738
11
-140.246
21
-79.604
0
LINE
8
1
10
-140.246
20
-79.604
11
-140.484
21
-79.503
0
LINE
8
1
10
-140.484
20
-79.503
11
-140.738
21
-79.441
0
LINE
8
1
10
-140.738
20
-79.441
11
-141.007
21
-79.419
0
LINE
8
1
10
-141.007
20
-79.419
11
-166.663
21
-79.419
0
LINE
8
1
10
-166.663
20
-79.419
11
-166.931
21
-79.441
0
LINE
8
1
10
-166.931
20
-79.441
11
-167.185
21
-79.503
0
LINE
8
1
10
-167.185
20
-79.503
11
-167.423
21
-79.604
0
LINE
8
1
10
-167.423
20
-79.604
11
-167.639
21
-79.738
0
LINE
8
1
10
-167.639
20
-79.738
11
-167.832
21
-79.904
0
LINE
8
1
10
-167.832
20
-79.904
11
-167.997
21
-80.096
0
LINE
8
1
10
-167.997
20
-80.096
11
-168.132
21
-80.313
0
LINE
8
1
10
-168.132
20
-80.313
11
-168.232
21
-80.55
0
LINE
8
1
10
-168.232
20
-80.55
11
-168.295
21
-80.805
0
LINE
8
1
10
-168.295
20
-80.805
11
-168.317
21
-81.073
0
LINE
8
1
10
-168.317
20
-81.073
11
-168.317
21
-100.686
0
LINE
8
1
10
-168.317
20
-100.686
11
-139.353
21
-100.686
0
LINE
8
1
10
-139.353
20
-100.686
11
-139.353
21
-81.073
0
LINE
8
1
10
-122.16
20
-85.508
11
-122.869
21
-85.508
0
LINE
8
1
10
-121.215
20
-85.508
11
-120.506
21
-85.508
0
LINE
8
1
10
-133.502
20
-85.981
11
-133.502
21
-99.929
0
LINE
8
1
10
-133.502
20
-99.929
11
-109.873
21
-99.929
0
LINE
8
1
10
-109.873
20
-99.929
11
-109.873
21
-85.981
0
LINE
8
1
10
-107.973
20
-69.513
11
-110.263
21
-70.077
0
LINE
8
1
10
-110.263
20
-70.077
11
-112.398
21
-70.98
0
LINE
8
1
10
-112.398
20
-70.98
11
-114.348
21
-72.19
0
LINE
8
1
10
-114.348
20
-72.19
11
-116.082
21
-73.678
0
LINE
8
1
10
-116.082
20
-73.678
11
-117.57
21
-75.412
0
LINE
8
1
10
-117.57
20
-75.412
11
-118.78
21
-77.362
0
LINE
8
1
10
-118.78
20
-77.362
11
-119.682
21
-79.497
0
LINE
8
1
10
-119.682
20
-79.497
11
-120.246
21
-81.787
0
LINE
8
1
10
-120.246
20
-81.787
11
-120.441
21
-84.201
0
LINE
8
1
10
-120.441
20
-84.201
11
-105.559
21
-84.201
0
LINE
8
1
10
-105.559
20
-84.201
11
-103.196
21
-84.201
0
LINE
8
1
10
-103.196
20
-84.201
11
-103.196
21
-85.383
0
LINE
8
1
10
-8.911
20
-90.753
11
-11.578
21
-90.096
0
LINE
8
1
10
-11.578
20
-90.096
11
-14.065
21
-89.045
0
LINE
8
1
10
-14.065
20
-89.045
11
-16.336
21
-87.636
0
LINE
8
1
10
-16.336
20
-87.636
11
-18.355
21
-85.903
0
LINE
8
1
10
-18.355
20
-85.903
11
-20.088
21
-83.884
0
LINE
8
1
10
-20.088
20
-83.884
11
-21.497
21
-81.612
0
LINE
8
1
10
-21.497
20
-81.612
11
-22.548
21
-79.126
0
LINE
8
1
10
-22.548
20
-79.126
11
-23.205
21
-76.458
0
LINE
8
1
10
-23.205
20
-76.458
11
-23.432
21
-73.647
0
LINE
8
1
10
-23.432
20
-73.647
11
-6.099
21
-73.647
0
LINE
8
1
10
-6.099
20
-73.647
11
-3.736
21
-73.647
0
LINE
8
1
10
-3.736
20
-73.647
11
-3.736
21
-72.465
0
LINE
8
1
10
-170.052
20
-72.773
11
-169.907
21
-72.737
0
LINE
8
1
10
-169.907
20
-72.737
11
-169.771
21
-72.68
0
LINE
8
1
10
-169.771
20
-72.68
11
-169.647
21
-72.603
0
LINE
8
1
10
-169.647
20
-72.603
11
-169.537
21
-72.509
0
LINE
8
1
10
-169.537
20
-72.509
11
-169.443
21
-72.398
0
LINE
8
1
10
-169.443
20
-72.398
11
-169.366
21
-72.275
0
LINE
8
1
10
-169.366
20
-72.275
11
-169.309
21
-72.139
0
LINE
8
1
10
-169.309
20
-72.139
11
-169.273
21
-71.994
0
LINE
8
1
10
-169.273
20
-71.994
11
-169.26
21
-71.84
0
LINE
8
1
10
-169.26
20
-71.84
11
-169.26
21
-70.186
0
LINE
8
1
10
-169.26
20
-70.186
11
-169.273
21
-70.033
0
LINE
8
1
10
-169.273
20
-70.033
11
-169.309
21
-69.887
0
LINE
8
1
10
-169.309
20
-69.887
11
-169.366
21
-69.752
0
LINE
8
1
10
-169.366
20
-69.752
11
-169.443
21
-69.628
0
LINE
8
1
10
-169.443
20
-69.628
11
-169.537
21
-69.518
0
LINE
8
1
10
-169.537
20
-69.518
11
-169.647
21
-69.423
0
LINE
8
1
10
-169.647
20
-69.423
11
-169.771
21
-69.346
0
LINE
8
1
10
-169.771
20
-69.346
11
-169.907
21
-69.289
0
LINE
8
1
10
-169.907
20
-69.289
11
-170.052
21
-69.253
0
LINE
8
1
10
-170.052
20
-69.253
11
-170.206
21
-69.241
0
LINE
8
1
10
-170.206
20
-69.241
11
-186.983
21
-69.241
0
LINE
8
1
10
-186.983
20
-69.241
11
-187.136
21
-69.253
0
LINE
8
1
10
-187.136
20
-69.253
11
-187.282
21
-69.289
0
LINE
8
1
10
-187.282
20
-69.289
11
-187.417
21
-69.346
0
LINE
8
1
10
-187.417
20
-69.346
11
-187.541
21
-69.423
0
LINE
8
1
10
-187.541
20
-69.423
11
-187.651
21
-69.518
0
LINE
8
1
10
-187.651
20
-69.518
11
-187.746
21
-69.628
0
LINE
8
1
10
-187.746
20
-69.628
11
-187.822
21
-69.752
0
LINE
8
1
10
-187.822
20
-69.752
11
-187.88
21
-69.887
0
LINE
8
1
10
-187.88
20
-69.887
11
-187.916
21
-70.033
0
LINE
8
1
10
-187.916
20
-70.033
11
-187.928
21
-70.186
0
LINE
8
1
10
-187.928
20
-70.186
11
-187.928
21
-71.84
0
LINE
8
1
10
-187.928
20
-71.84
11
-187.916
21
-71.994
0
LINE
8
1
10
-187.916
20
-71.994
11
-187.88
21
-72.139
0
LINE
8
1
10
-187.88
20
-72.139
11
-187.822
21
-72.275
0
LINE
8
1
10
-187.822
20
-72.275
11
-187.746
21
-72.398
0
LINE
8
1
10
-187.746
20
-72.398
11
-187.651
21
-72.509
0
LINE
8
1
10
-187.651
20
-72.509
11
-187.541
21
-72.603
0
LINE
8
1
10
-187.541
20
-72.603
11
-187.417
21
-72.68
0
LINE
8
1
10
-187.417
20
-72.68
11
-187.282
21
-72.737
0
LINE
8
1
10
-187.282
20
-72.737
11
-187.136
21
-72.773
0
LINE
8
1
10
-187.136
20
-72.773
11
-186.983
21
-72.785
0
LINE
8
1
10
-186.983
20
-72.785
11
-170.206
21
-72.785
0
LINE
8
1
10
-169.228
20
-69.219
11
-168.974
21
-69.157
0
LINE
8
1
10
-168.974
20
-69.157
11
-168.737
21
-69.056
0
LINE
8
1
10
-168.737
20
-69.056
11
-168.52
21
-68.922
0
LINE
8
1
10
-168.52
20
-68.922
11
-168.327
21
-68.756
0
LINE
8
1
10
-168.327
20
-68.756
11
-168.162
21
-68.564
0
LINE
8
1
10
-168.162
20
-68.564
11
-168.027
21
-68.347
0
LINE
8
1
10
-168.027
20
-68.347
11
-167.927
21
-68.11
0
LINE
8
1
10
-167.927
20
-68.11
11
-167.864
21
-67.855
0
LINE
8
1
10
-167.864
20
-67.855
11
-167.843
21
-67.587
0
LINE
8
1
10
-167.843
20
-67.587
11
-167.843
21
-33.087
0
LINE
8
1
10
-167.843
20
-33.087
11
-167.864
21
-32.819
0
LINE
8
1
10
-167.864
20
-32.819
11
-167.927
21
-32.564
0
LINE
8
1
10
-167.927
20
-32.564
11
-168.027
21
-32.327
0
LINE
8
1
10
-168.027
20
-32.327
11
-168.162
21
-32.11
0
LINE
8
1
10
-168.162
20
-32.11
11
-168.327
21
-31.918
0
LINE
8
1
10
-168.327
20
-31.918
11
-168.52
21
-31.752
0
LINE
8
1
10
-168.52
20
-31.752
11
-168.737
21
-31.618
0
LINE
8
1
10
-168.737
20
-31.618
11
-168.974
21
-31.517
0
LINE
8
1
10
-168.974
20
-31.517
11
-169.228
21
-31.455
0
LINE
8
1
10
-169.228
20
-31.455
11
-169.497
21
-31.433
0
LINE
8
1
10
-169.497
20
-31.433
11
-189.109
21
-31.433
0
LINE
8
1
10
-189.109
20
-31.433
11
-189.109
21
-69.241
0
LINE
8
1
10
-189.109
20
-69.241
11
-169.497
21
-69.241
0
LINE
8
1
10
-103.196
20
-69.319
11
-105.559
21
-69.319
0
LINE
8
1
10
29.314
20
-71.156
11
29.132
21
-71.201
0
LINE
8
1
10
29.132
20
-71.201
11
28.963
21
-71.273
0
LINE
8
1
10
28.963
20
-71.273
11
28.808
21
-71.369
0
LINE
8
1
10
28.808
20
-71.369
11
28.67
21
-71.487
0
LINE
8
1
10
28.67
20
-71.487
11
28.552
21
-71.625
0
LINE
8
1
10
28.552
20
-71.625
11
28.456
21
-71.779
0
LINE
8
1
10
28.456
20
-71.779
11
28.384
21
-71.949
0
LINE
8
1
10
28.384
20
-71.949
11
28.34
21
-72.131
0
LINE
8
1
10
28.34
20
-72.131
11
28.324
21
-72.322
0
LINE
8
1
10
28.324
20
-72.322
11
28.324
21
-75.867
0
LINE
8
1
10
28.324
20
-75.867
11
28.448
21
-77.4
0
LINE
8
1
10
28.448
20
-77.4
11
28.806
21
-78.854
0
LINE
8
1
10
28.806
20
-78.854
11
29.379
21
-80.211
0
LINE
8
1
10
29.379
20
-80.211
11
30.148
21
-81.449
0
LINE
8
1
10
30.148
20
-81.449
11
31.093
21
-82.55
0
LINE
8
1
10
31.093
20
-82.55
11
32.194
21
-83.495
0
LINE
8
1
10
32.194
20
-83.495
11
33.432
21
-84.264
0
LINE
8
1
10
33.432
20
-84.264
11
34.789
21
-84.837
0
LINE
8
1
10
34.789
20
-84.837
11
36.243
21
-85.195
0
LINE
8
1
10
36.243
20
-85.195
11
37.776
21
-85.319
0
LINE
8
1
10
37.776
20
-85.319
11
41.321
21
-85.319
0
LINE
8
1
10
41.321
20
-85.319
11
41.512
21
-85.303
0
LINE
8
1
10
41.512
20
-85.303
11
41.694
21
-85.259
0
LINE
8
1
10
41.694
20
-85.259
11
41.864
21
-85.187
0
LINE
8
1
10
41.864
20
-85.187
11
42.018
21
-85.091
0
LINE
8
1
10
42.018
20
-85.091
11
42.156
21
-84.973
0
LINE
8
1
10
42.156
20
-84.973
11
42.274
21
-84.835
0
LINE
8
1
10
42.274
20
-84.835
11
42.37
21
-84.68
0
LINE
8
1
10
42.37
20
-84.68
11
42.442
21
-84.511
0
LINE
8
1
10
42.442
20
-84.511
11
42.487
21
-84.329
0
LINE
8
1
10
42.487
20
-84.329
11
42.502
21
-84.137
0
LINE
8
1
10
42.502
20
-84.137
11
42.502
21
-72.322
0
LINE
8
1
10
42.502
20
-72.322
11
42.487
21
-72.131
0
LINE
8
1
10
42.487
20
-72.131
11
42.442
21
-71.949
0
LINE
8
1
10
42.442
20
-71.949
11
42.37
21
-71.779
0
LINE
8
1
10
42.37
20
-71.779
11
42.274
21
-71.625
0
LINE
8
1
10
42.274
20
-71.625
11
42.156
21
-71.487
0
LINE
8
1
10
42.156
20
-71.487
11
42.018
21
-71.369
0
LINE
8
1
10
42.018
20
-71.369
11
41.864
21
-71.273
0
LINE
8
1
10
41.864
20
-71.273
11
41.694
21
-71.201
0
LINE
8
1
10
41.694
20
-71.201
11
41.512
21
-71.156
0
LINE
8
1
10
41.512
20
-71.156
11
41.321
21
-71.141
0
LINE
8
1
10
41.321
20
-71.141
11
29.506
21
-71.141
0
LINE
8
1
10
29.467
20
-72.089
11
29.431
21
-72.098
0
LINE
8
1
10
29.431
20
-72.098
11
29.397
21
-72.112
0
LINE
8
1
10
29.397
20
-72.112
11
29.366
21
-72.132
0
LINE
8
1
10
29.366
20
-72.132
11
29.339
21
-72.155
0
LINE
8
1
10
29.339
20
-72.155
11
29.315
21
-72.183
0
LINE
8
1
10
29.315
20
-72.183
11
29.296
21
-72.214
0
LINE
8
1
10
29.296
20
-72.214
11
29.281
21
-72.248
0
LINE
8
1
10
29.281
20
-72.248
11
29.272
21
-72.284
0
LINE
8
1
10
29.272
20
-72.284
11
29.269
21
-72.322
0
LINE
8
1
10
29.269
20
-72.322
11
29.269
21
-75.867
0
LINE
8
1
10
29.269
20
-75.867
11
29.381
21
-77.247
0
LINE
8
1
10
29.381
20
-77.247
11
29.703
21
-78.556
0
LINE
8
1
10
29.703
20
-78.556
11
30.219
21
-79.776
0
LINE
8
1
10
30.219
20
-79.776
11
30.911
21
-80.891
0
LINE
8
1
10
30.911
20
-80.891
11
31.761
21
-81.882
0
LINE
8
1
10
31.761
20
-81.882
11
32.752
21
-82.732
0
LINE
8
1
10
32.752
20
-82.732
11
33.867
21
-83.424
0
LINE
8
1
10
33.867
20
-83.424
11
35.087
21
-83.94
0
LINE
8
1
10
35.087
20
-83.94
11
36.396
21
-84.262
0
LINE
8
1
10
36.396
20
-84.262
11
37.776
21
-84.374
0
LINE
8
1
10
37.776
20
-84.374
11
41.321
21
-84.374
0
LINE
8
1
10
41.321
20
-84.374
11
41.359
21
-84.37
0
LINE
8
1
10
41.359
20
-84.37
11
41.395
21
-84.362
0
LINE
8
1
10
41.395
20
-84.362
11
41.429
21
-84.347
0
LINE
8
1
10
41.429
20
-84.347
11
41.46
21
-84.328
0
LINE
8
1
10
41.46
20
-84.328
11
41.488
21
-84.304
0
LINE
8
1
10
41.488
20
-84.304
11
41.511
21
-84.277
0
LINE
8
1
10
41.511
20
-84.277
11
41.531
21
-84.246
0
LINE
8
1
10
41.531
20
-84.246
11
41.545
21
-84.212
0
LINE
8
1
10
41.545
20
-84.212
11
41.554
21
-84.176
0
LINE
8
1
10
41.554
20
-84.176
11
41.557
21
-84.137
0
LINE
8
1
10
41.557
20
-84.137
11
41.557
21
-72.322
0
LINE
8
1
10
41.557
20
-72.322
11
41.554
21
-72.284
0
LINE
8
1
10
41.554
20
-72.284
11
41.545
21
-72.248
0
LINE
8
1
10
41.545
20
-72.248
11
41.531
21
-72.214
0
LINE
8
1
10
41.531
20
-72.214
11
41.511
21
-72.183
0
LINE
8
1
10
41.511
20
-72.183
11
41.488
21
-72.155
0
LINE
8
1
10
41.488
20
-72.155
11
41.46
21
-72.132
0
LINE
8
1
10
41.46
20
-72.132
11
41.429
21
-72.112
0
LINE
8
1
10
41.429
20
-72.112
11
41.395
21
-72.098
0
LINE
8
1
10
41.395
20
-72.098
11
41.359
21
-72.089
0
LINE
8
1
10
41.359
20
-72.089
11
41.321
21
-72.086
0
LINE
8
1
10
41.321
20
-72.086
11
29.506
21
-72.086
0
LINE
8
1
10
-113.675
20
-47.981
11
-113.675
21
-25.769
0
LINE
8
1
10
-113.675
20
-25.769
11
-114.384
21
-25.06
0
LINE
8
1
10
-111.932
20
-31.203
11
-111.932
21
-42.546
0
LINE
8
1
10
-111.932
20
-42.546
11
-113.675
21
-42.546
0
LINE
8
1
10
-118.253
20
-42.546
11
-118.253
21
-31.203
0
LINE
8
1
10
-118.253
20
-31.203
11
-115.801
21
-31.203
0
LINE
8
1
10
-90.414
20
-50.73
11
-90.341
21
-50.712
0
LINE
8
1
10
-90.341
20
-50.712
11
-90.273
21
-50.683
0
LINE
8
1
10
-90.273
20
-50.683
11
-90.211
21
-50.645
0
LINE
8
1
10
-90.211
20
-50.645
11
-90.156
21
-50.598
0
LINE
8
1
10
-90.156
20
-50.598
11
-90.109
21
-50.543
0
LINE
8
1
10
-90.109
20
-50.543
11
-90.071
21
-50.481
0
LINE
8
1
10
-90.071
20
-50.481
11
-90.042
21
-50.413
0
LINE
8
1
10
-90.042
20
-50.413
11
-90.024
21
-50.34
0
LINE
8
1
10
-90.024
20
-50.34
11
-90.018
21
-50.264
0
LINE
8
1
10
-90.018
20
-50.264
11
-90.018
21
-37.031
0
LINE
8
1
10
-90.018
20
-37.031
11
-90.024
21
-36.954
0
LINE
8
1
10
-90.024
20
-36.954
11
-90.042
21
-36.882
0
LINE
8
1
10
-90.042
20
-36.882
11
-90.071
21
-36.814
0
LINE
8
1
10
-90.071
20
-36.814
11
-90.109
21
-36.752
0
LINE
8
1
10
-90.109
20
-36.752
11
-90.156
21
-36.697
0
LINE
8
1
10
-90.156
20
-36.697
11
-90.211
21
-36.649
0
LINE
8
1
10
-90.211
20
-36.649
11
-90.273
21
-36.611
0
LINE
8
1
10
-90.273
20
-36.611
11
-90.341
21
-36.582
0
LINE
8
1
10
-90.341
20
-36.582
11
-90.414
21
-36.564
0
LINE
8
1
10
-90.414
20
-36.564
11
-90.49
21
-36.558
0
LINE
8
1
10
-90.49
20
-36.558
11
-103.74
21
-36.558
0
LINE
8
1
10
-103.74
20
-36.558
11
-103.74
21
-50.736
0
LINE
8
1
10
-103.74
20
-50.736
11
-90.49
21
-50.736
0
LINE
8
1
10
-63.879
20
-56.599
11
-63.879
21
-53.764
0
LINE
8
1
10
-63.879
20
-53.764
11
-66.715
21
-53.764
0
LINE
8
1
10
-66.715
20
-53.764
11
-66.715
21
-56.599
0
LINE
8
1
10
-58.208
20
-56.599
11
-58.208
21
-53.764
0
LINE
8
1
10
-58.208
20
-53.764
11
-61.044
21
-53.764
0
LINE
8
1
10
-61.044
20
-53.764
11
-61.044
21
-56.599
0
LINE
8
1
10
-52.537
20
-56.599
11
-52.537
21
-53.764
0
LINE
8
1
10
-52.537
20
-53.764
11
-55.373
21
-53.764
0
LINE
8
1
10
-55.373
20
-53.764
11
-55.373
21
-56.599
0
LINE
8
1
10
-170.052
20
-31.421
11
-169.907
21
-31.385
0
LINE
8
1
10
-169.907
20
-31.385
11
-169.771
21
-31.328
0
LINE
8
1
10
-169.771
20
-31.328
11
-169.647
21
-31.251
0
LINE
8
1
10
-169.647
20
-31.251
11
-169.537
21
-31.156
0
LINE
8
1
10
-169.537
20
-31.156
11
-169.443
21
-31.046
0
LINE
8
1
10
-169.443
20
-31.046
11
-169.366
21
-30.922
0
LINE
8
1
10
-169.366
20
-30.922
11
-169.309
21
-30.787
0
LINE
8
1
10
-169.309
20
-30.787
11
-169.273
21
-30.641
0
LINE
8
1
10
-169.273
20
-30.641
11
-169.26
21
-30.488
0
LINE
8
1
10
-169.26
20
-30.488
11
-169.26
21
-28.834
0
LINE
8
1
10
-169.26
20
-28.834
11
-169.273
21
-28.681
0
LINE
8
1
10
-169.273
20
-28.681
11
-169.309
21
-28.535
0
LINE
8
1
10
-169.309
20
-28.535
11
-169.366
21
-28.399
0
LINE
8
1
10
-169.366
20
-28.399
11
-169.443
21
-28.276
0
LINE
8
1
10
-169.443
20
-28.276
11
-169.537
21
-28.165
0
LINE
8
1
10
-169.537
20
-28.165
11
-169.647
21
-28.071
0
LINE
8
1
10
-169.647
20
-28.071
11
-169.771
21
-27.994
0
LINE
8
1
10
-169.771
20
-27.994
11
-169.907
21
-27.937
0
LINE
8
1
10
-169.907
20
-27.937
11
-170.052
21
-27.901
0
LINE
8
1
10
-170.052
20
-27.901
11
-170.206
21
-27.889
0
LINE
8
1
10
-170.206
20
-27.889
11
-186.983
21
-27.889
0
LINE
8
1
10
-186.983
20
-27.889
11
-187.136
21
-27.901
0
LINE
8
1
10
-187.136
20
-27.901
11
-187.282
21
-27.937
0
LINE
8
1
10
-187.282
20
-27.937
11
-187.417
21
-27.994
0
LINE
8
1
10
-187.417
20
-27.994
11
-187.541
21
-28.071
0
LINE
8
1
10
-187.541
20
-28.071
11
-187.651
21
-28.165
0
LINE
8
1
10
-187.651
20
-28.165
11
-187.746
21
-28.276
0
LINE
8
1
10
-187.746
20
-28.276
11
-187.822
21
-28.399
0
LINE
8
1
10
-187.822
20
-28.399
11
-187.88
21
-28.535
0
LINE
8
1
10
-187.88
20
-28.535
11
-187.916
21
-28.681
0
LINE
8
1
10
-187.916
20
-28.681
11
-187.928
21
-28.834
0
LINE
8
1
10
-187.928
20
-28.834
11
-187.928
21
-30.488
0
LINE
8
1
10
-187.928
20
-30.488
11
-187.916
21
-30.641
0
LINE
8
1
10
-187.916
20
-30.641
11
-187.88
21
-30.787
0
LINE
8
1
10
-187.88
20
-30.787
11
-187.822
21
-30.922
0
LINE
8
1
10
-187.822
20
-30.922
11
-187.746
21
-31.046
0
LINE
8
1
10
-187.746
20
-31.046
11
-187.651
21
-31.156
0
LINE
8
1
10
-187.651
20
-31.156
11
-187.541
21
-31.251
0
LINE
8
1
10
-187.541
20
-31.251
11
-187.417
21
-31.328
0
LINE
8
1
10
-187.417
20
-31.328
11
-187.282
21
-31.385
0
LINE
8
1
10
-187.282
20
-31.385
11
-187.136
21
-31.421
0
LINE
8
1
10
-187.136
20
-31.421
11
-186.983
21
-31.433
0
LINE
8
1
10
-186.983
20
-31.433
11
-170.206
21
-31.433
0
LINE
8
1
10
-157.394
20
-64.943
11
-143.71
21
-64.943
0
LINE
8
1
10
-143.71
20
-64.943
11
-143.71
21
-39.11
0
LINE
8
1
10
-143.71
20
-39.11
11
-157.394
21
-39.11
0
LINE
8
1
10
-122.89
20
-38.685
11
-122.89
21
-39.394
0
LINE
8
1
10
-122.89
20
-37.74
11
-122.89
21
-37.031
0
LINE
8
1
10
-89.073
20
-37.504
11
-89.073
21
-38.449
0
LINE
8
1
10
-66.639
20
-50.882
11
-51.279
21
-50.882
0
LINE
8
1
10
-51.279
20
-50.882
11
-51.279
21
-29.615
0
LINE
8
1
10
-51.279
20
-29.615
11
-66.639
21
-29.615
0
LINE
8
1
10
-67.111
20
-40.721
11
-67.111
21
-41.43
0
LINE
8
1
10
-67.111
20
-39.776
11
-67.111
21
-39.067
0
LINE
8
1
10
-64.594
20
-30.884
11
-64.667
21
-30.902
0
LINE
8
1
10
-64.667
20
-30.902
11
-64.735
21
-30.93
0
LINE
8
1
10
-64.735
20
-30.93
11
-64.797
21
-30.969
0
LINE
8
1
10
-64.797
20
-30.969
11
-64.852
21
-31.016
0
LINE
8
1
10
-64.852
20
-31.016
11
-64.899
21
-31.071
0
LINE
8
1
10
-64.899
20
-31.071
11
-64.937
21
-31.133
0
LINE
8
1
10
-64.937
20
-31.133
11
-64.966
21
-31.201
0
LINE
8
1
10
-64.966
20
-31.201
11
-64.984
21
-31.274
0
LINE
8
1
10
-64.984
20
-31.274
11
-64.99
21
-31.35
0
LINE
8
1
10
-64.99
20
-31.35
11
-64.99
21
-49.377
0
LINE
8
1
10
-64.99
20
-49.377
11
-64.984
21
-49.454
0
LINE
8
1
10
-64.984
20
-49.454
11
-64.966
21
-49.527
0
LINE
8
1
10
-64.966
20
-49.527
11
-64.937
21
-49.595
0
LINE
8
1
10
-64.937
20
-49.595
11
-64.899
21
-49.657
0
LINE
8
1
10
-64.899
20
-49.657
11
-64.852
21
-49.712
0
LINE
8
1
10
-64.852
20
-49.712
11
-64.797
21
-49.759
0
LINE
8
1
10
-64.797
20
-49.759
11
-64.735
21
-49.797
0
LINE
8
1
10
-64.735
20
-49.797
11
-64.667
21
-49.826
0
LINE
8
1
10
-64.667
20
-49.826
11
-64.594
21
-49.844
0
LINE
8
1
10
-64.594
20
-49.844
11
-64.518
21
-49.85
0
LINE
8
1
10
-64.518
20
-49.85
11
-53.401
21
-49.85
0
LINE
8
1
10
-53.401
20
-49.85
11
-53.324
21
-49.844
0
LINE
8
1
10
-53.324
20
-49.844
11
-53.251
21
-49.826
0
LINE
8
1
10
-53.251
20
-49.826
11
-53.184
21
-49.797
0
LINE
8
1
10
-53.184
20
-49.797
11
-53.122
21
-49.759
0
LINE
8
1
10
-53.122
20
-49.759
11
-53.067
21
-49.712
0
LINE
8
1
10
-53.067
20
-49.712
11
-53.019
21
-49.657
0
LINE
8
1
10
-53.019
20
-49.657
11
-52.981
21
-49.595
0
LINE
8
1
10
-52.981
20
-49.595
11
-52.952
21
-49.527
0
LINE
8
1
10
-52.952
20
-49.527
11
-52.934
21
-49.454
0
LINE
8
1
10
-52.934
20
-49.454
11
-52.928
21
-49.377
0
LINE
8
1
10
-52.928
20
-49.377
11
-52.928
21
-31.35
0
LINE
8
1
10
-52.928
20
-31.35
11
-52.934
21
-31.274
0
LINE
8
1
10
-52.934
20
-31.274
11
-52.952
21
-31.201
0
LINE
8
1
10
-52.952
20
-31.201
11
-52.981
21
-31.133
0
LINE
8
1
10
-52.981
20
-31.133
11
-53.019
21
-31.071
0
LINE
8
1
10
-53.019
20
-31.071
11
-53.067
21
-31.016
0
LINE
8
1
10
-53.067
20
-31.016
11
-53.122
21
-30.969
0
LINE
8
1
10
-53.122
20
-30.969
11
-53.184
21
-30.93
0
LINE
8
1
10
-53.184
20
-30.93
11
-53.251
21
-30.902
0
LINE
8
1
10
-53.251
20
-30.902
11
-53.324
21
-30.884
0
LINE
8
1
10
-53.324
20
-30.884
11
-53.401
21
-30.878
0
LINE
8
1
10
-53.401
20
-30.878
11
-64.518
21
-30.878
0
LINE
8
1
10
-63.649
20
-31.829
11
-63.722
21
-31.847
0
LINE
8
1
10
-63.722
20
-31.847
11
-63.79
21
-31.876
0
LINE
8
1
10
-63.79
20
-31.876
11
-63.852
21
-31.914
0
LINE
8
1
10
-63.852
20
-31.914
11
-63.907
21
-31.961
0
LINE
8
1
10
-63.907
20
-31.961
11
-63.954
21
-32.016
0
LINE
8
1
10
-63.954
20
-32.016
11
-63.992
21
-32.078
0
LINE
8
1
10
-63.992
20
-32.078
11
-64.021
21
-32.146
0
LINE
8
1
10
-64.021
20
-32.146
11
-64.039
21
-32.219
0
LINE
8
1
10
-64.039
20
-32.219
11
-64.045
21
-32.295
0
LINE
8
1
10
-64.045
20
-32.295
11
-64.045
21
-38.946
0
LINE
8
1
10
-64.045
20
-38.946
11
-64.039
21
-39.023
0
LINE
8
1
10
-64.039
20
-39.023
11
-64.021
21
-39.095
0
LINE
8
1
10
-64.021
20
-39.095
11
-63.992
21
-39.163
0
LINE
8
1
10
-63.992
20
-39.163
11
-63.954
21
-39.225
0
LINE
8
1
10
-63.954
20
-39.225
11
-63.907
21
-39.28
0
LINE
8
1
10
-63.907
20
-39.28
11
-63.852
21
-39.327
0
LINE
8
1
10
-63.852
20
-39.327
11
-63.79
21
-39.366
0
LINE
8
1
10
-63.79
20
-39.366
11
-63.722
21
-39.395
0
LINE
8
1
10
-63.722
20
-39.395
11
-63.649
21
-39.412
0
LINE
8
1
10
-63.649
20
-39.412
11
-63.572
21
-39.419
0
LINE
8
1
10
-63.572
20
-39.419
11
-54.346
21
-39.419
0
LINE
8
1
10
-54.346
20
-39.419
11
-54.269
21
-39.412
0
LINE
8
1
10
-54.269
20
-39.412
11
-54.197
21
-39.395
0
LINE
8
1
10
-54.197
20
-39.395
11
-54.129
21
-39.366
0
LINE
8
1
10
-54.129
20
-39.366
11
-54.067
21
-39.327
0
LINE
8
1
10
-54.067
20
-39.327
11
-54.012
21
-39.28
0
LINE
8
1
10
-54.012
20
-39.28
11
-53.965
21
-39.225
0
LINE
8
1
10
-53.965
20
-39.225
11
-53.926
21
-39.163
0
LINE
8
1
10
-53.926
20
-39.163
11
-53.898
21
-39.095
0
LINE
8
1
10
-53.898
20
-39.095
11
-53.88
21
-39.023
0
LINE
8
1
10
-53.88
20
-39.023
11
-53.873
21
-38.946
0
LINE
8
1
10
-53.873
20
-38.946
11
-53.873
21
-32.295
0
LINE
8
1
10
-53.873
20
-32.295
11
-53.88
21
-32.219
0
LINE
8
1
10
-53.88
20
-32.219
11
-53.898
21
-32.146
0
LINE
8
1
10
-53.898
20
-32.146
11
-53.926
21
-32.078
0
LINE
8
1
10
-53.926
20
-32.078
11
-53.965
21
-32.016
0
LINE
8
1
10
-53.965
20
-32.016
11
-54.012
21
-31.961
0
LINE
8
1
10
-54.012
20
-31.961
11
-54.067
21
-31.914
0
LINE
8
1
10
-54.067
20
-31.914
11
-54.129
21
-31.876
0
LINE
8
1
10
-54.129
20
-31.876
11
-54.197
21
-31.847
0
LINE
8
1
10
-54.197
20
-31.847
11
-54.269
21
-31.829
0
LINE
8
1
10
-54.269
20
-31.829
11
-54.346
21
-31.823
0
LINE
8
1
10
-54.346
20
-31.823
11
-63.572
21
-31.823
0
LINE
8
1
10
-54.062
20
-40.553
11
-57.607
21
-37.008
0
LINE
8
1
10
-57.607
20
-37.008
11
-57.229
21
-36.63
0
LINE
8
1
10
-57.229
20
-36.63
11
-53.684
21
-40.175
0
LINE
8
1
10
-59.55
20
-50.882
11
-51.279
21
-50.882
0
LINE
8
1
10
-51.279
20
-50.882
11
-51.279
21
-29.658
0
LINE
8
1
10
-51.279
20
-29.658
11
-59.55
21
-29.658
0
LINE
8
1
10
-60.023
20
-40.742
11
-60.023
21
-41.451
0
LINE
8
1
10
-60.023
20
-39.797
11
-60.023
21
-39.088
0
LINE
8
1
10
87.873
20
-36.658
11
87.846
21
-36.549
0
LINE
8
1
10
87.846
20
-36.549
11
87.803
21
-36.447
0
LINE
8
1
10
87.803
20
-36.447
11
87.745
21
-36.354
0
LINE
8
1
10
87.745
20
-36.354
11
87.674
21
-36.272
0
LINE
8
1
10
87.674
20
-36.272
11
87.592
21
-36.201
0
LINE
8
1
10
87.592
20
-36.201
11
87.499
21
-36.143
0
LINE
8
1
10
87.499
20
-36.143
11
87.397
21
-36.1
0
LINE
8
1
10
87.397
20
-36.1
11
87.288
21
-36.074
0
LINE
8
1
10
87.288
20
-36.074
11
87.173
21
-36.064
0
LINE
8
1
10
87.173
20
-36.064
11
74.592
21
-36.064
0
LINE
8
1
10
74.592
20
-36.064
11
74.477
21
-36.074
0
LINE
8
1
10
74.477
20
-36.074
11
74.368
21
-36.1
0
LINE
8
1
10
74.368
20
-36.1
11
74.267
21
-36.143
0
LINE
8
1
10
74.267
20
-36.143
11
74.174
21
-36.201
0
LINE
8
1
10
74.174
20
-36.201
11
74.091
21
-36.272
0
LINE
8
1
10
74.091
20
-36.272
11
74.02
21
-36.354
0
LINE
8
1
10
74.02
20
-36.354
11
73.963
21
-36.447
0
LINE
8
1
10
73.963
20
-36.447
11
73.92
21
-36.549
0
LINE
8
1
10
73.92
20
-36.549
11
73.893
21
-36.658
0
LINE
8
1
10
73.893
20
-36.658
11
73.883
21
-36.773
0
LINE
8
1
10
73.883
20
-36.773
11
73.883
21
-42.444
0
LINE
8
1
10
73.883
20
-42.444
11
73.893
21
-42.559
0
LINE
8
1
10
73.893
20
-42.559
11
73.92
21
-42.668
0
LINE
8
1
10
73.92
20
-42.668
11
73.963
21
-42.77
0
LINE
8
1
10
73.963
20
-42.77
11
74.02
21
-42.863
0
LINE
8
1
10
74.02
20
-42.863
11
74.091
21
-42.946
0
LINE
8
1
10
74.091
20
-42.946
11
74.174
21
-43.016
0
LINE
8
1
10
74.174
20
-43.016
11
74.267
21
-43.074
0
LINE
8
1
10
74.267
20
-43.074
11
74.368
21
-43.117
0
LINE
8
1
10
74.368
20
-43.117
11
74.477
21
-43.144
0
LINE
8
1
10
74.477
20
-43.144
11
74.592
21
-43.153
0
LINE
8
1
10
74.592
20
-43.153
11
87.173
21
-43.153
0
LINE
8
1
10
87.173
20
-43.153
11
87.288
21
-43.144
0
LINE
8
1
10
87.288
20
-43.144
11
87.397
21
-43.117
0
LINE
8
1
10
87.397
20
-43.117
11
87.499
21
-43.074
0
LINE
8
1
10
87.499
20
-43.074
11
87.592
21
-43.016
0
LINE
8
1
10
87.592
20
-43.016
11
87.674
21
-42.946
0
LINE
8
1
10
87.674
20
-42.946
11
87.745
21
-42.863
0
LINE
8
1
10
87.745
20
-42.863
11
87.803
21
-42.77
0
LINE
8
1
10
87.803
20
-42.77
11
87.846
21
-42.668
0
LINE
8
1
10
87.846
20
-42.668
11
87.873
21
-42.559
0
LINE
8
1
10
87.873
20
-42.559
11
87.882
21
-42.444
0
LINE
8
1
10
87.882
20
-42.444
11
87.882
21
-36.773
0
LINE
8
1
10
72.693
20
-36.658
11
72.666
21
-36.549
0
LINE
8
1
10
72.666
20
-36.549
11
72.623
21
-36.447
0
LINE
8
1
10
72.623
20
-36.447
11
72.565
21
-36.354
0
LINE
8
1
10
72.565
20
-36.354
11
72.494
21
-36.272
0
LINE
8
1
10
72.494
20
-36.272
11
72.412
21
-36.201
0
LINE
8
1
10
72.412
20
-36.201
11
72.319
21
-36.143
0
LINE
8
1
10
72.319
20
-36.143
11
72.217
21
-36.1
0
LINE
8
1
10
72.217
20
-36.1
11
72.108
21
-36.074
0
LINE
8
1
10
72.108
20
-36.074
11
71.993
21
-36.064
0
LINE
8
1
10
71.993
20
-36.064
11
59.412
21
-36.064
0
LINE
8
1
10
59.412
20
-36.064
11
59.297
21
-36.074
0
LINE
8
1
10
59.297
20
-36.074
11
59.188
21
-36.1
0
LINE
8
1
10
59.188
20
-36.1
11
59.086
21
-36.143
0
LINE
8
1
10
59.086
20
-36.143
11
58.994
21
-36.201
0
LINE
8
1
10
58.994
20
-36.201
11
58.911
21
-36.272
0
LINE
8
1
10
58.911
20
-36.272
11
58.84
21
-36.354
0
LINE
8
1
10
58.84
20
-36.354
11
58.782
21
-36.447
0
LINE
8
1
10
58.782
20
-36.447
11
58.739
21
-36.549
0
LINE
8
1
10
58.739
20
-36.549
11
58.713
21
-36.658
0
LINE
8
1
10
58.713
20
-36.658
11
58.703
21
-36.773
0
LINE
8
1
10
58.703
20
-36.773
11
58.703
21
-42.444
0
LINE
8
1
10
58.703
20
-42.444
11
58.713
21
-42.559
0
LINE
8
1
10
58.713
20
-42.559
11
58.739
21
-42.668
0
LINE
8
1
10
58.739
20
-42.668
11
58.782
21
-42.77
0
LINE
8
1
10
58.782
20
-42.77
11
58.84
21
-42.863
0
LINE
8
1
10
58.84
20
-42.863
11
58.911
21
-42.946
0
LINE
8
1
10
58.911
20
-42.946
11
58.994
21
-43.016
0
LINE
8
1
10
58.994
20
-43.016
11
59.086
21
-43.074
0
LINE
8
1
10
59.086
20
-43.074
11
59.188
21
-43.117
0
LINE
8
1
10
59.188
20
-43.117
11
59.297
21
-43.144
0
LINE
8
1
10
59.297
20
-43.144
11
59.412
21
-43.153
0
LINE
8
1
10
59.412
20
-43.153
11
71.993
21
-43.153
0
LINE
8
1
10
71.993
20
-43.153
11
72.108
21
-43.144
0
LINE
8
1
10
72.108
20
-43.144
11
72.217
21
-43.117
0
LINE
8
1
10
72.217
20
-43.117
11
72.319
21
-43.074
0
LINE
8
1
10
72.319
20
-43.074
11
72.412
21
-43.016
0
LINE
8
1
10
72.412
20
-43.016
11
72.494
21
-42.946
0
LINE
8
1
10
72.494
20
-42.946
11
72.565
21
-42.863
0
LINE
8
1
10
72.565
20
-42.863
11
72.623
21
-42.77
0
LINE
8
1
10
72.623
20
-42.77
11
72.666
21
-42.668
0
LINE
8
1
10
72.666
20
-42.668
11
72.693
21
-42.559
0
LINE
8
1
10
72.693
20
-42.559
11
72.702
21
-42.444
0
LINE
8
1
10
72.702
20
-42.444
11
72.702
21
-36.773
0
LINE
8
1
10
160.664
20
-13.751
11
148.107
21
-13.751
0
LINE
8
1
10
148.107
20
-13.751
11
148.107
21
-27.481
0
LINE
8
1
10
148.107
20
-27.481
11
160.664
21
-27.481
0
LINE
8
1
10
-176.065
20
1.561
11
-187.88
21
1.561
0
LINE
8
1
10
-187.88
20
1.561
11
-187.88
21
-22.071
0
LINE
8
1
10
-187.88
20
-22.071
11
-176.065
21
-22.071
0
LINE
8
1
10
-175.592
20
-9.783
11
-175.592
21
-9.074
0
LINE
8
1
10
-175.592
20
-10.728
11
-175.592
21
-11.437
0
LINE
8
1
10
-122.418
20
-65.032
11
-108.24
21
-65.032
0
LINE
8
1
10
-108.24
20
-65.032
11
-108.24
21
-11.393
0
LINE
8
1
10
-108.24
20
-11.393
11
-122.418
21
-11.393
0
LINE
8
1
10
-101.216
20
-12.681
11
-101.171
21
-12.863
0
LINE
8
1
10
-101.171
20
-12.863
11
-101.099
21
-13.032
0
LINE
8
1
10
-101.099
20
-13.032
11
-101.003
21
-13.187
0
LINE
8
1
10
-101.003
20
-13.187
11
-100.885
21
-13.325
0
LINE
8
1
10
-100.885
20
-13.325
11
-100.748
21
-13.443
0
LINE
8
1
10
-100.748
20
-13.443
11
-100.593
21
-13.539
0
LINE
8
1
10
-100.593
20
-13.539
11
-100.423
21
-13.611
0
LINE
8
1
10
-100.423
20
-13.611
11
-100.241
21
-13.655
0
LINE
8
1
10
-100.241
20
-13.655
11
-100.05
21
-13.671
0
LINE
8
1
10
-100.05
20
-13.671
11
-94.379
21
-13.671
0
LINE
8
1
10
-94.379
20
-13.671
11
-94.187
21
-13.655
0
LINE
8
1
10
-94.187
20
-13.655
11
-94.005
21
-13.611
0
LINE
8
1
10
-94.005
20
-13.611
11
-93.836
21
-13.539
0
LINE
8
1
10
-93.836
20
-13.539
11
-93.681
21
-13.443
0
LINE
8
1
10
-93.681
20
-13.443
11
-93.543
21
-13.325
0
LINE
8
1
10
-93.543
20
-13.325
11
-93.425
21
-13.187
0
LINE
8
1
10
-93.425
20
-13.187
11
-93.329
21
-13.032
0
LINE
8
1
10
-93.329
20
-13.032
11
-93.257
21
-12.863
0
LINE
8
1
10
-93.257
20
-12.863
11
-93.213
21
-12.681
0
LINE
8
1
10
-93.213
20
-12.681
11
-93.197
21
-12.489
0
LINE
8
1
10
-93.197
20
-12.489
11
-93.197
21
-5.873
0
LINE
8
1
10
-93.197
20
-5.873
11
-101.231
21
-5.873
0
LINE
8
1
10
-101.231
20
-5.873
11
-101.231
21
-12.489
0
LINE
8
1
10
-102.397
20
-14.335
11
-102.353
21
-14.517
0
LINE
8
1
10
-102.353
20
-14.517
11
-102.281
21
-14.686
0
LINE
8
1
10
-102.281
20
-14.686
11
-102.185
21
-14.841
0
LINE
8
1
10
-102.185
20
-14.841
11
-102.067
21
-14.979
0
LINE
8
1
10
-102.067
20
-14.979
11
-101.929
21
-15.097
0
LINE
8
1
10
-101.929
20
-15.097
11
-101.774
21
-15.193
0
LINE
8
1
10
-101.774
20
-15.193
11
-101.605
21
-15.265
0
LINE
8
1
10
-101.605
20
-15.265
11
-101.423
21
-15.309
0
LINE
8
1
10
-101.423
20
-15.309
11
-101.231
21
-15.325
0
LINE
8
1
10
-101.231
20
-15.325
11
-93.197
21
-15.325
0
LINE
8
1
10
-93.197
20
-15.325
11
-93.005
21
-15.309
0
LINE
8
1
10
-93.005
20
-15.309
11
-92.824
21
-15.265
0
LINE
8
1
10
-92.824
20
-15.265
11
-92.654
21
-15.193
0
LINE
8
1
10
-92.654
20
-15.193
11
-92.499
21
-15.097
0
LINE
8
1
10
-92.499
20
-15.097
11
-92.362
21
-14.979
0
LINE
8
1
10
-92.362
20
-14.979
11
-92.244
21
-14.841
0
LINE
8
1
10
-92.244
20
-14.841
11
-92.148
21
-14.686
0
LINE
8
1
10
-92.148
20
-14.686
11
-92.076
21
-14.517
0
LINE
8
1
10
-92.076
20
-14.517
11
-92.031
21
-14.335
0
LINE
8
1
10
-92.031
20
-14.335
11
-92.016
21
-14.143
0
LINE
8
1
10
-92.016
20
-14.143
11
-92.016
21
-14.143
0
LINE
8
1
10
-92.016
20
-14.143
11
-92.019
21
-14.105
0
LINE
8
1
10
-92.019
20
-14.105
11
-92.028
21
-14.069
0
LINE
8
1
10
-92.028
20
-14.069
11
-92.042
21
-14.035
0
LINE
8
1
10
-92.042
20
-14.035
11
-92.061
21
-14.004
0
LINE
8
1
10
-92.061
20
-14.004
11
-92.085
21
-13.976
0
LINE
8
1
10
-92.085
20
-13.976
11
-92.112
21
-13.953
0
LINE
8
1
10
-92.112
20
-13.953
11
-92.143
21
-13.933
0
LINE
8
1
10
-92.143
20
-13.933
11
-92.177
21
-13.919
0
LINE
8
1
10
-92.177
20
-13.919
11
-92.214
21
-13.91
0
LINE
8
1
10
-92.214
20
-13.91
11
-92.252
21
-13.907
0
LINE
8
1
10
-92.252
20
-13.907
11
-102.176
21
-13.907
0
LINE
8
1
10
-102.176
20
-13.907
11
-102.215
21
-13.91
0
LINE
8
1
10
-102.215
20
-13.91
11
-102.251
21
-13.919
0
LINE
8
1
10
-102.251
20
-13.919
11
-102.285
21
-13.933
0
LINE
8
1
10
-102.285
20
-13.933
11
-102.316
21
-13.953
0
LINE
8
1
10
-102.316
20
-13.953
11
-102.344
21
-13.976
0
LINE
8
1
10
-102.344
20
-13.976
11
-102.367
21
-14.004
0
LINE
8
1
10
-102.367
20
-14.004
11
-102.386
21
-14.035
0
LINE
8
1
10
-102.386
20
-14.035
11
-102.401
21
-14.069
0
LINE
8
1
10
-102.401
20
-14.069
11
-102.41
21
-14.105
0
LINE
8
1
10
-102.41
20
-14.105
11
-102.413
21
-14.143
0
LINE
8
1
10
-102.413
20
-14.143
11
-102.413
21
-14.143
0
LINE
8
1
10
-114.384
20
-51.052
11
-115.801
21
-51.052
0
LINE
8
1
10
-115.801
20
-51.052
11
-115.801
21
-22.697
0
LINE
8
1
10
-115.801
20
-22.697
11
-114.384
21
-22.697
0
LINE
8
1
10
-66.639
20
-29.615
11
-52.928
21
-29.615
0
LINE
8
1
10
-52.928
20
-29.615
11
-52.928
21
-12.0
0
LINE
8
1
10
-52.928
20
-12.0
11
-66.639
21
-12.0
0
LINE
8
1
10
-67.111
20
-21.28
11
-67.111
21
-21.989
0
LINE
8
1
10
-67.111
20
-20.335
11
-67.111
21
-19.626
0
LINE
8
1
10
-67.584
20
-10.799
11
-67.584
21
1.016
0
LINE
8
1
10
-67.584
20
1.016
11
-66.639
21
1.016
0
LINE
8
1
10
-51.352
20
2.197
11
-66.639
21
2.197
0
LINE
8
1
10
-66.639
20
2.197
11
-66.639
21
-11.981
0
LINE
8
1
10
-66.639
20
-11.981
11
-51.352
21
-11.981
0
LINE
8
1
10
-59.55
20
-29.615
11
-51.279
21
-29.615
0
LINE
8
1
10
-51.279
20
-29.615
11
-51.279
21
-12.0
0
LINE
8
1
10
-51.279
20
-12.0
11
-59.55
21
-12.0
0
LINE
8
1
10
-60.022
20
-21.28
11
-60.022
21
-21.989
0
LINE
8
1
10
-60.022
20
-20.335
11
-60.022
21
-19.626
0
LINE
8
1
10
142.36
20
-16.995
11
145.196
21
-16.995
0
LINE
8
1
10
145.196
20
-16.995
11
145.196
21
-14.159
0
LINE
8
1
10
145.196
20
-14.159
11
142.36
21
-14.159
0
LINE
8
1
10
142.36
20
-22.666
11
145.196
21
-22.666
0
LINE
8
1
10
145.196
20
-22.666
11
145.196
21
-19.83
0
LINE
8
1
10
145.196
20
-19.83
11
142.36
21
-19.83
0
LINE
8
1
10
154.794
20
2.422
11
147.469
21
2.422
0
LINE
8
1
10
147.469
20
2.422
11
147.469
21
-12.38
0
LINE
8
1
10
147.469
20
-12.38
11
154.794
21
-12.38
0
LINE
8
1
10
182.887
20
-9.287
11
182.843
21
-9.105
0
LINE
8
1
10
182.843
20
-9.105
11
182.771
21
-8.936
0
LINE
8
1
10
182.771
20
-8.936
11
182.675
21
-8.781
0
LINE
8
1
10
182.675
20
-8.781
11
182.557
21
-8.643
0
LINE
8
1
10
182.557
20
-8.643
11
182.419
21
-8.525
0
LINE
8
1
10
182.419
20
-8.525
11
182.264
21
-8.429
0
LINE
8
1
10
182.264
20
-8.429
11
182.095
21
-8.357
0
LINE
8
1
10
182.095
20
-8.357
11
181.913
21
-8.313
0
LINE
8
1
10
181.913
20
-8.313
11
181.721
21
-8.297
0
LINE
8
1
10
181.721
20
-8.297
11
178.177
21
-8.297
0
LINE
8
1
10
178.177
20
-8.297
11
176.644
21
-8.421
0
LINE
8
1
10
176.644
20
-8.421
11
175.189
21
-8.779
0
LINE
8
1
10
175.189
20
-8.779
11
173.833
21
-9.352
0
LINE
8
1
10
173.833
20
-9.352
11
172.595
21
-10.121
0
LINE
8
1
10
172.595
20
-10.121
11
171.493
21
-11.066
0
LINE
8
1
10
171.493
20
-11.066
11
170.549
21
-12.167
0
LINE
8
1
10
170.549
20
-12.167
11
169.78
21
-13.405
0
LINE
8
1
10
169.78
20
-13.405
11
169.207
21
-14.762
0
LINE
8
1
10
169.207
20
-14.762
11
168.849
21
-16.216
0
LINE
8
1
10
168.849
20
-16.216
11
168.725
21
-17.749
0
LINE
8
1
10
168.725
20
-17.749
11
168.725
21
-21.294
0
LINE
8
1
10
168.725
20
-21.294
11
168.74
21
-21.485
0
LINE
8
1
10
168.74
20
-21.485
11
168.785
21
-21.667
0
LINE
8
1
10
168.785
20
-21.667
11
168.857
21
-21.837
0
LINE
8
1
10
168.857
20
-21.837
11
168.953
21
-21.991
0
LINE
8
1
10
168.953
20
-21.991
11
169.071
21
-22.129
0
LINE
8
1
10
169.071
20
-22.129
11
169.209
21
-22.247
0
LINE
8
1
10
169.209
20
-22.247
11
169.364
21
-22.343
0
LINE
8
1
10
169.364
20
-22.343
11
169.533
21
-22.415
0
LINE
8
1
10
169.533
20
-22.415
11
169.715
21
-22.46
0
LINE
8
1
10
169.715
20
-22.46
11
169.907
21
-22.475
0
LINE
8
1
10
169.907
20
-22.475
11
181.721
21
-22.475
0
LINE
8
1
10
181.721
20
-22.475
11
181.913
21
-22.46
0
LINE
8
1
10
181.913
20
-22.46
11
182.095
21
-22.415
0
LINE
8
1
10
182.095
20
-22.415
11
182.264
21
-22.343
0
LINE
8
1
10
182.264
20
-22.343
11
182.419
21
-22.247
0
LINE
8
1
10
182.419
20
-22.247
11
182.557
21
-22.129
0
LINE
8
1
10
182.557
20
-22.129
11
182.675
21
-21.991
0
LINE
8
1
10
182.675
20
-21.991
11
182.771
21
-21.837
0
LINE
8
1
10
182.771
20
-21.837
11
182.843
21
-21.667
0
LINE
8
1
10
182.843
20
-21.667
11
182.887
21
-21.485
0
LINE
8
1
10
182.887
20
-21.485
11
182.903
21
-21.294
0
LINE
8
1
10
182.903
20
-21.294
11
182.903
21
-9.479
0
LINE
8
1
10
181.955
20
-9.44
11
181.946
21
-9.404
0
LINE
8
1
10
181.946
20
-9.404
11
181.931
21
-9.37
0
LINE
8
1
10
181.931
20
-9.37
11
181.912
21
-9.339
0
LINE
8
1
10
181.912
20
-9.339
11
181.889
21
-9.312
0
LINE
8
1
10
181.889
20
-9.312
11
181.861
21
-9.288
0
LINE
8
1
10
181.861
20
-9.288
11
181.83
21
-9.269
0
LINE
8
1
10
181.83
20
-9.269
11
181.796
21
-9.254
0
LINE
8
1
10
181.796
20
-9.254
11
181.76
21
-9.245
0
LINE
8
1
10
181.76
20
-9.245
11
181.721
21
-9.242
0
LINE
8
1
10
181.721
20
-9.242
11
178.177
21
-9.242
0
LINE
8
1
10
178.177
20
-9.242
11
176.797
21
-9.354
0
LINE
8
1
10
176.797
20
-9.354
11
175.488
21
-9.676
0
LINE
8
1
10
175.488
20
-9.676
11
174.268
21
-10.192
0
LINE
8
1
10
174.268
20
-10.192
11
173.153
21
-10.884
0
LINE
8
1
10
173.153
20
-10.884
11
172.162
21
-11.734
0
LINE
8
1
10
172.162
20
-11.734
11
171.312
21
-12.725
0
LINE
8
1
10
171.312
20
-12.725
11
170.62
21
-13.84
0
LINE
8
1
10
170.62
20
-13.84
11
170.104
21
-15.06
0
LINE
8
1
10
170.104
20
-15.06
11
169.782
21
-16.369
0
LINE
8
1
10
169.782
20
-16.369
11
169.67
21
-17.749
0
LINE
8
1
10
169.67
20
-17.749
11
169.67
21
-21.294
0
LINE
8
1
10
169.67
20
-21.294
11
169.673
21
-21.332
0
LINE
8
1
10
169.673
20
-21.332
11
169.682
21
-21.368
0
LINE
8
1
10
169.682
20
-21.368
11
169.697
21
-21.402
0
LINE
8
1
10
169.697
20
-21.402
11
169.716
21
-21.433
0
LINE
8
1
10
169.716
20
-21.433
11
169.739
21
-21.461
0
LINE
8
1
10
169.739
20
-21.461
11
169.767
21
-21.484
0
LINE
8
1
10
169.767
20
-21.484
11
169.798
21
-21.503
0
LINE
8
1
10
169.798
20
-21.503
11
169.832
21
-21.518
0
LINE
8
1
10
169.832
20
-21.518
11
169.868
21
-21.527
0
LINE
8
1
10
169.868
20
-21.527
11
169.907
21
-21.53
0
LINE
8
1
10
169.907
20
-21.53
11
181.721
21
-21.53
0
LINE
8
1
10
181.721
20
-21.53
11
181.76
21
-21.527
0
LINE
8
1
10
181.76
20
-21.527
11
181.796
21
-21.518
0
LINE
8
1
10
181.796
20
-21.518
11
181.83
21
-21.503
0
LINE
8
1
10
181.83
20
-21.503
11
181.861
21
-21.484
0
LINE
8
1
10
181.861
20
-21.484
11
181.889
21
-21.461
0
LINE
8
1
10
181.889
20
-21.461
11
181.912
21
-21.433
0
LINE
8
1
10
181.912
20
-21.433
11
181.931
21
-21.402
0
LINE
8
1
10
181.931
20
-21.402
11
181.946
21
-21.368
0
LINE
8
1
10
181.946
20
-21.368
11
181.955
21
-21.332
0
LINE
8
1
10
181.955
20
-21.332
11
181.958
21
-21.294
0
LINE
8
1
10
181.958
20
-21.294
11
181.958
21
-9.479
0
LINE
8
1
10
-122.32
20
6.206
11
-122.32
21
5.497
0
LINE
8
1
10
-122.32
20
7.151
11
-122.32
21
7.86
0
LINE
8
1
10
-116.983
20
6.228
11
-116.983
21
5.519
0
LINE
8
1
10
-116.983
20
7.173
11
-116.983
21
7.882
0
LINE
8
1
10
-86.952
20
5.899
11
-86.775
21
5.959
0
LINE
8
1
10
-86.775
20
5.959
11
-86.612
21
6.045
0
LINE
8
1
10
-86.612
20
6.045
11
-86.466
21
6.154
0
LINE
8
1
10
-86.466
20
6.154
11
-86.339
21
6.284
0
LINE
8
1
10
-86.339
20
6.284
11
-86.234
21
6.431
0
LINE
8
1
10
-86.234
20
6.431
11
-86.151
21
6.594
0
LINE
8
1
10
-86.151
20
6.594
11
-86.095
21
6.769
0
LINE
8
1
10
-86.095
20
6.769
11
-86.066
21
6.954
0
LINE
8
1
10
-86.066
20
6.954
11
-86.067
21
7.146
0
LINE
8
1
10
-86.067
20
7.146
11
-86.562
21
12.796
0
LINE
8
1
10
-86.562
20
12.796
11
-86.594
21
12.986
0
LINE
8
1
10
-86.594
20
12.986
11
-86.654
21
13.163
0
LINE
8
1
10
-86.654
20
13.163
11
-86.74
21
13.325
0
LINE
8
1
10
-86.74
20
13.325
11
-86.85
21
13.471
0
LINE
8
1
10
-86.85
20
13.471
11
-86.979
21
13.598
0
LINE
8
1
10
-86.979
20
13.598
11
-87.127
21
13.704
0
LINE
8
1
10
-87.127
20
13.704
11
-87.289
21
13.786
0
LINE
8
1
10
-87.289
20
13.786
11
-87.464
21
13.843
0
LINE
8
1
10
-87.464
20
13.843
11
-87.649
21
13.871
0
LINE
8
1
10
-87.649
20
13.871
11
-87.842
21
13.87
0
LINE
8
1
10
-87.842
20
13.87
11
-94.433
21
13.293
0
LINE
8
1
10
-94.433
20
13.293
11
-93.733
21
5.29
0
LINE
8
1
10
-93.733
20
5.29
11
-87.141
21
5.866
0
LINE
8
1
10
-85.201
20
4.866
11
-85.024
21
4.926
0
LINE
8
1
10
-85.024
20
4.926
11
-84.861
21
5.012
0
LINE
8
1
10
-84.861
20
5.012
11
-84.715
21
5.122
0
LINE
8
1
10
-84.715
20
5.122
11
-84.588
21
5.251
0
LINE
8
1
10
-84.588
20
5.251
11
-84.483
21
5.399
0
LINE
8
1
10
-84.483
20
5.399
11
-84.401
21
5.561
0
LINE
8
1
10
-84.401
20
5.561
11
-84.344
21
5.736
0
LINE
8
1
10
-84.344
20
5.736
11
-84.315
21
5.921
0
LINE
8
1
10
-84.315
20
5.921
11
-84.317
21
6.114
0
LINE
8
1
10
-84.317
20
6.114
11
-85.017
21
14.117
0
LINE
8
1
10
-85.017
20
14.117
11
-85.049
21
14.307
0
LINE
8
1
10
-85.049
20
14.307
11
-85.109
21
14.484
0
LINE
8
1
10
-85.109
20
14.484
11
-85.195
21
14.647
0
LINE
8
1
10
-85.195
20
14.647
11
-85.305
21
14.792
0
LINE
8
1
10
-85.305
20
14.792
11
-85.434
21
14.919
0
LINE
8
1
10
-85.434
20
14.919
11
-85.582
21
15.025
0
LINE
8
1
10
-85.582
20
15.025
11
-85.744
21
15.107
0
LINE
8
1
10
-85.744
20
15.107
11
-85.919
21
15.164
0
LINE
8
1
10
-85.919
20
15.164
11
-86.105
21
15.193
0
LINE
8
1
10
-86.105
20
15.193
11
-86.297
21
15.191
0
LINE
8
1
10
-86.297
20
15.191
11
-86.297
21
15.191
0
LINE
8
1
10
-86.297
20
15.191
11
-86.335
21
15.185
0
LINE
8
1
10
-86.335
20
15.185
11
-86.37
21
15.173
0
LINE
8
1
10
-86.37
20
15.173
11
-86.403
21
15.155
0
LINE
8
1
10
-86.403
20
15.155
11
-86.432
21
15.134
0
LINE
8
1
10
-86.432
20
15.134
11
-86.457
21
15.108
0
LINE
8
1
10
-86.457
20
15.108
11
-86.478
21
15.078
0
LINE
8
1
10
-86.478
20
15.078
11
-86.495
21
15.046
0
LINE
8
1
10
-86.495
20
15.046
11
-86.506
21
15.011
0
LINE
8
1
10
-86.506
20
15.011
11
-86.512
21
14.974
0
LINE
8
1
10
-86.512
20
14.974
11
-86.512
21
14.935
0
LINE
8
1
10
-86.512
20
14.935
11
-85.647
21
5.048
0
LINE
8
1
10
-85.647
20
5.048
11
-85.64
21
5.011
0
LINE
8
1
10
-85.64
20
5.011
11
-85.628
21
4.975
0
LINE
8
1
10
-85.628
20
4.975
11
-85.611
21
4.943
0
LINE
8
1
10
-85.611
20
4.943
11
-85.589
21
4.913
0
LINE
8
1
10
-85.589
20
4.913
11
-85.563
21
4.888
0
LINE
8
1
10
-85.563
20
4.888
11
-85.534
21
4.867
0
LINE
8
1
10
-85.534
20
4.867
11
-85.501
21
4.85
0
LINE
8
1
10
-85.501
20
4.85
11
-85.466
21
4.839
0
LINE
8
1
10
-85.466
20
4.839
11
-85.429
21
4.833
0
LINE
8
1
10
-85.429
20
4.833
11
-85.391
21
4.834
0
LINE
8
1
10
-85.391
20
4.834
11
-85.391
21
4.834
0
LINE
8
1
10
-66.441
20
2.194
11
-66.477
21
2.185
0
LINE
8
1
10
-66.477
20
2.185
11
-66.511
21
2.171
0
LINE
8
1
10
-66.511
20
2.171
11
-66.542
21
2.152
0
LINE
8
1
10
-66.542
20
2.152
11
-66.569
21
2.128
0
LINE
8
1
10
-66.569
20
2.128
11
-66.593
21
2.1
0
LINE
8
1
10
-66.593
20
2.1
11
-66.612
21
2.069
0
LINE
8
1
10
-66.612
20
2.069
11
-66.627
21
2.036
0
LINE
8
1
10
-66.627
20
2.036
11
-66.636
21
1.999
0
LINE
8
1
10
-66.636
20
1.999
11
-66.639
21
1.961
0
LINE
8
1
10
-66.639
20
1.961
11
-66.639
21
-11.744
0
LINE
8
1
10
-66.639
20
-11.744
11
-66.636
21
-11.783
0
LINE
8
1
10
-66.636
20
-11.783
11
-66.627
21
-11.819
0
LINE
8
1
10
-66.627
20
-11.819
11
-66.612
21
-11.853
0
LINE
8
1
10
-66.612
20
-11.853
11
-66.593
21
-11.884
0
LINE
8
1
10
-66.593
20
-11.884
11
-66.569
21
-11.912
0
LINE
8
1
10
-66.569
20
-11.912
11
-66.542
21
-11.935
0
LINE
8
1
10
-66.542
20
-11.935
11
-66.511
21
-11.954
0
LINE
8
1
10
-66.511
20
-11.954
11
-66.477
21
-11.969
0
LINE
8
1
10
-66.477
20
-11.969
11
-66.441
21
-11.978
0
LINE
8
1
10
-66.441
20
-11.978
11
-66.402
21
-11.981
0
LINE
8
1
10
-66.402
20
-11.981
11
-51.279
21
-11.981
0
LINE
8
1
10
-51.279
20
-11.981
11
-51.279
21
2.197
0
LINE
8
1
10
-51.279
20
2.197
11
-66.402
21
2.197
0
LINE
8
1
10
56.34
20
1.744
11
56.34
21
-45.516
0
LINE
8
1
10
56.34
20
-45.516
11
90.245
21
-45.516
0
LINE
8
1
10
90.245
20
-45.516
11
90.245
21
1.744
0
LINE
8
1
10
146.427
20
6.558
11
147.837
21
6.246
0
LINE
8
1
10
147.837
20
6.246
11
149.175
21
6.17
0
LINE
8
1
10
149.175
20
6.17
11
150.416
21
6.305
0
LINE
8
1
10
150.416
20
6.305
11
151.536
21
6.627
0
LINE
8
1
10
151.536
20
6.627
11
152.508
21
7.112
0
LINE
8
1
10
152.508
20
7.112
11
153.308
21
7.736
0
LINE
8
1
10
153.308
20
7.736
11
153.911
21
8.475
0
LINE
8
1
10
153.911
20
8.475
11
154.291
21
9.305
0
LINE
8
1
10
154.291
20
9.305
11
154.423
21
10.201
0
LINE
8
1
10
154.423
20
10.201
11
154.291
21
11.097
0
LINE
8
1
10
154.291
20
11.097
11
153.911
21
11.927
0
LINE
8
1
10
153.911
20
11.927
11
153.308
21
12.666
0
LINE
8
1
10
153.308
20
12.666
11
152.508
21
13.29
0
LINE
8
1
10
152.508
20
13.29
11
151.536
21
13.775
0
LINE
8
1
10
151.536
20
13.775
11
150.416
21
14.097
0
LINE
8
1
10
150.416
20
14.097
11
149.175
21
14.232
0
LINE
8
1
10
149.175
20
14.232
11
147.837
21
14.156
0
LINE
8
1
10
147.837
20
14.156
11
146.427
21
13.844
0
LINE
8
1
10
146.427
20
13.844
11
144.971
21
13.273
0
LINE
8
1
10
155.267
20
-4.507
11
155.267
21
-3.798
0
LINE
8
1
10
155.267
20
-5.452
11
155.267
21
-6.161
0
LINE
8
1
10
-121.848
20
-5.136
11
-110.033
21
-5.136
0
LINE
8
1
10
-110.033
20
-5.136
11
-110.033
21
18.494
0
LINE
8
1
10
-110.033
20
18.494
11
-121.848
21
18.494
0
LINE
8
1
10
-103.259
20
-4.509
11
-87.953
21
-4.509
0
LINE
8
1
10
-87.953
20
-4.509
11
-87.953
21
19.121
0
LINE
8
1
10
-87.953
20
19.121
11
-103.259
21
19.121
0
LINE
8
1
10
-116.51
20
-2.107
11
-108.24
21
-2.107
0
LINE
8
1
10
-108.24
20
-2.107
11
-108.24
21
15.508
0
LINE
8
1
10
-108.24
20
15.508
11
-116.51
21
15.508
0
LINE
8
1
10
-66.639
20
2.273
11
-51.279
21
2.273
0
LINE
8
1
10
-51.279
20
2.273
11
-51.279
21
20.023
0
LINE
8
1
10
-51.279
20
20.023
11
-66.639
21
20.023
0
LINE
8
1
10
-67.111
20
10.675
11
-67.111
21
9.967
0
LINE
8
1
10
-67.111
20
11.621
11
-67.111
21
12.33
0
LINE
8
1
10
85.883
20
19.174
11
87.064
21
19.174
0
LINE
8
1
10
85.656
20
24.349
11
84.999
21
27.016
0
LINE
8
1
10
84.999
20
27.016
11
83.948
21
29.503
0
LINE
8
1
10
83.948
20
29.503
11
82.538
21
31.774
0
LINE
8
1
10
82.538
20
31.774
11
80.806
21
33.794
0
LINE
8
1
10
80.806
20
33.794
11
78.786
21
35.526
0
LINE
8
1
10
78.786
20
35.526
11
76.515
21
36.936
0
LINE
8
1
10
76.515
20
36.936
11
74.028
21
37.987
0
LINE
8
1
10
74.028
20
37.987
11
71.361
21
38.643
0
LINE
8
1
10
71.361
20
38.643
11
68.55
21
38.87
0
LINE
8
1
10
68.55
20
38.87
11
68.55
21
21.537
0
LINE
8
1
10
68.55
20
21.537
11
68.55
21
19.174
0
LINE
8
1
10
68.55
20
19.174
11
67.368
21
19.174
0
LINE
8
1
10
142.021
20
14.445
11
141.911
21
14.418
0
LINE
8
1
10
141.911
20
14.418
11
141.81
21
14.375
0
LINE
8
1
10
141.81
20
14.375
11
141.717
21
14.318
0
LINE
8
1
10
141.717
20
14.318
11
141.634
21
14.247
0
LINE
8
1
10
141.634
20
14.247
11
141.563
21
14.164
0
LINE
8
1
10
141.563
20
14.164
11
141.506
21
14.071
0
LINE
8
1
10
141.506
20
14.071
11
141.463
21
13.969
0
LINE
8
1
10
141.463
20
13.969
11
141.436
21
13.86
0
LINE
8
1
10
141.436
20
13.86
11
141.427
21
13.745
0
LINE
8
1
10
141.427
20
13.745
11
141.427
21
6.656
0
LINE
8
1
10
141.427
20
6.656
11
141.436
21
6.541
0
LINE
8
1
10
141.436
20
6.541
11
141.463
21
6.432
0
LINE
8
1
10
141.463
20
6.432
11
141.506
21
6.331
0
LINE
8
1
10
141.506
20
6.331
11
141.563
21
6.238
0
LINE
8
1
10
141.563
20
6.238
11
141.634
21
6.155
0
LINE
8
1
10
141.634
20
6.155
11
141.717
21
6.084
0
LINE
8
1
10
141.717
20
6.084
11
141.81
21
6.027
0
LINE
8
1
10
141.81
20
6.027
11
141.911
21
5.984
0
LINE
8
1
10
141.911
20
5.984
11
142.021
21
5.957
0
LINE
8
1
10
142.021
20
5.957
11
142.136
21
5.948
0
LINE
8
1
10
142.136
20
5.948
11
144.262
21
5.948
0
LINE
8
1
10
144.262
20
5.948
11
144.377
21
5.957
0
LINE
8
1
10
144.377
20
5.957
11
144.486
21
5.984
0
LINE
8
1
10
144.486
20
5.984
11
144.588
21
6.027
0
LINE
8
1
10
144.588
20
6.027
11
144.681
21
6.084
0
LINE
8
1
10
144.681
20
6.084
11
144.764
21
6.155
0
LINE
8
1
10
144.764
20
6.155
11
144.834
21
6.238
0
LINE
8
1
10
144.834
20
6.238
11
144.892
21
6.331
0
LINE
8
1
10
144.892
20
6.331
11
144.935
21
6.432
0
LINE
8
1
10
144.935
20
6.432
11
144.962
21
6.541
0
LINE
8
1
10
144.962
20
6.541
11
144.971
21
6.656
0
LINE
8
1
10
144.971
20
6.656
11
144.971
21
13.745
0
LINE
8
1
10
144.971
20
13.745
11
144.962
21
13.86
0
LINE
8
1
10
144.962
20
13.86
11
144.935
21
13.969
0
LINE
8
1
10
144.935
20
13.969
11
144.892
21
14.071
0
LINE
8
1
10
144.892
20
14.071
11
144.834
21
14.164
0
LINE
8
1
10
144.834
20
14.164
11
144.764
21
14.247
0
LINE
8
1
10
144.764
20
14.247
11
144.681
21
14.318
0
LINE
8
1
10
144.681
20
14.318
11
144.588
21
14.375
0
LINE
8
1
10
144.588
20
14.375
11
144.486
21
14.418
0
LINE
8
1
10
144.486
20
14.418
11
144.377
21
14.445
0
LINE
8
1
10
144.377
20
14.445
11
144.262
21
14.454
0
LINE
8
1
10
144.262
20
14.454
11
142.136
21
14.454
0
LINE
8
1
10
-142.767
20
32.82
11
-143.949
21
32.82
0
LINE
8
1
10
-142.551
20
27.774
11
-141.924
21
25.229
0
LINE
8
1
10
-141.924
20
25.229
11
-140.921
21
22.856
0
LINE
8
1
10
-140.921
20
22.856
11
-139.576
21
20.689
0
LINE
8
1
10
-139.576
20
20.689
11
-137.923
21
18.761
0
LINE
8
1
10
-137.923
20
18.761
11
-135.995
21
17.108
0
LINE
8
1
10
-135.995
20
17.108
11
-133.828
21
15.763
0
LINE
8
1
10
-133.828
20
15.763
11
-131.455
21
14.76
0
LINE
8
1
10
-131.455
20
14.76
11
-128.909
21
14.133
0
LINE
8
1
10
-128.909
20
14.133
11
-126.226
21
13.917
0
LINE
8
1
10
-126.226
20
13.917
11
-126.226
21
30.457
0
LINE
8
1
10
-126.226
20
30.457
11
-126.226
21
32.82
0
LINE
8
1
10
-126.226
20
32.82
11
-125.045
21
32.82
0
LINE
8
1
10
163.064
20
40.98
11
163.064
21
43.343
0
LINE
8
1
10
163.291
20
46.155
11
163.947
21
48.822
0
LINE
8
1
10
163.947
20
48.822
11
164.998
21
51.309
0
LINE
8
1
10
164.998
20
51.309
11
166.408
21
53.58
0
LINE
8
1
10
166.408
20
53.58
11
168.141
21
55.6
0
LINE
8
1
10
168.141
20
55.6
11
170.16
21
57.332
0
LINE
8
1
10
170.16
20
57.332
11
172.431
21
58.742
0
LINE
8
1
10
172.431
20
58.742
11
174.918
21
59.793
0
LINE
8
1
10
174.918
20
59.793
11
177.585
21
60.449
0
LINE
8
1
10
177.585
20
60.449
11
180.397
21
60.676
0
LINE
8
1
10
180.397
20
60.676
11
180.397
21
43.343
0
LINE
8
1
10
180.397
20
43.343
11
180.397
21
40.98
0
LINE
8
1
10
180.397
20
40.98
11
181.578
21
40.98
0
LINE
8
1
10
105.771
20
97.835
11
105.662
21
97.809
0
LINE
8
1
10
105.662
20
97.809
11
105.56
21
97.766
0
LINE
8
1
10
105.56
20
97.766
11
105.467
21
97.708
0
LINE
8
1
10
105.467
20
97.708
11
105.384
21
97.637
0
LINE
8
1
10
105.384
20
97.637
11
105.314
21
97.554
0
LINE
8
1
10
105.314
20
97.554
11
105.256
21
97.462
0
LINE
8
1
10
105.256
20
97.462
11
105.213
21
97.36
0
LINE
8
1
10
105.213
20
97.36
11
105.186
21
97.251
0
LINE
8
1
10
105.186
20
97.251
11
105.177
21
97.136
0
LINE
8
1
10
105.177
20
97.136
11
105.177
21
84.555
0
LINE
8
1
10
105.177
20
84.555
11
105.186
21
84.44
0
LINE
8
1
10
105.186
20
84.44
11
105.213
21
84.331
0
LINE
8
1
10
105.213
20
84.331
11
105.256
21
84.229
0
LINE
8
1
10
105.256
20
84.229
11
105.314
21
84.136
0
LINE
8
1
10
105.314
20
84.136
11
105.384
21
84.054
0
LINE
8
1
10
105.384
20
84.054
11
105.467
21
83.983
0
LINE
8
1
10
105.467
20
83.983
11
105.56
21
83.925
0
LINE
8
1
10
105.56
20
83.925
11
105.662
21
83.882
0
LINE
8
1
10
105.662
20
83.882
11
105.771
21
83.855
0
LINE
8
1
10
105.771
20
83.855
11
105.886
21
83.846
0
LINE
8
1
10
105.886
20
83.846
11
111.557
21
83.846
0
LINE
8
1
10
111.557
20
83.846
11
111.672
21
83.855
0
LINE
8
1
10
111.672
20
83.855
11
111.781
21
83.882
0
LINE
8
1
10
111.781
20
83.882
11
111.883
21
83.925
0
LINE
8
1
10
111.883
20
83.925
11
111.976
21
83.983
0
LINE
8
1
10
111.976
20
83.983
11
112.058
21
84.054
0
LINE
8
1
10
112.058
20
84.054
11
112.129
21
84.136
0
LINE
8
1
10
112.129
20
84.136
11
112.187
21
84.229
0
LINE
8
1
10
112.187
20
84.229
11
112.23
21
84.331
0
LINE
8
1
10
112.23
20
84.331
11
112.257
21
84.44
0
LINE
8
1
10
112.257
20
84.44
11
112.266
21
84.555
0
LINE
8
1
10
112.266
20
84.555
11
112.266
21
97.136
0
LINE
8
1
10
112.266
20
97.136
11
112.257
21
97.251
0
LINE
8
1
10
112.257
20
97.251
11
112.23
21
97.36
0
LINE
8
1
10
112.23
20
97.36
11
112.187
21
97.462
0
LINE
8
1
10
112.187
20
97.462
11
112.129
21
97.554
0
LINE
8
1
10
112.129
20
97.554
11
112.058
21
97.637
0
LINE
8
1
10
112.058
20
97.637
11
111.976
21
97.708
0
LINE
8
1
10
111.976
20
97.708
11
111.883
21
97.766
0
LINE
8
1
10
111.883
20
97.766
11
111.781
21
97.809
0
LINE
8
1
10
111.781
20
97.809
11
111.672
21
97.835
0
LINE
8
1
10
111.672
20
97.835
11
111.557
21
97.845
0
LINE
8
1
10
111.557
20
97.845
11
105.886
21
97.845
0
LINE
8
1
10
67.369
20
81.483
11
114.629
21
81.483
0
LINE
8
1
10
114.629
20
81.483
11
114.629
21
115.388
0
LINE
8
1
10
114.629
20
115.388
11
67.369
21
115.388
0
LINE
8
1
10
105.771
20
113.016
11
105.662
21
112.989
0
LINE
8
1
10
105.662
20
112.989
11
105.56
21
112.946
0
LINE
8
1
10
105.56
20
112.946
11
105.467
21
112.888
0
LINE
8
1
10
105.467
20
112.888
11
105.384
21
112.817
0
LINE
8
1
10
105.384
20
112.817
11
105.314
21
112.735
0
LINE
8
1
10
105.314
20
112.735
11
105.256
21
112.642
0
LINE
8
1
10
105.256
20
112.642
11
105.213
21
112.54
0
LINE
8
1
10
105.213
20
112.54
11
105.186
21
112.431
0
LINE
8
1
10
105.186
20
112.431
11
105.177
21
112.316
0
LINE
8
1
10
105.177
20
112.316
11
105.177
21
99.735
0
LINE
8
1
10
105.177
20
99.735
11
105.186
21
99.62
0
LINE
8
1
10
105.186
20
99.62
11
105.213
21
99.511
0
LINE
8
1
10
105.213
20
99.511
11
105.256
21
99.409
0
LINE
8
1
10
105.256
20
99.409
11
105.314
21
99.316
0
LINE
8
1
10
105.314
20
99.316
11
105.384
21
99.234
0
LINE
8
1
10
105.384
20
99.234
11
105.467
21
99.163
0
LINE
8
1
10
105.467
20
99.163
11
105.56
21
99.105
0
LINE
8
1
10
105.56
20
99.105
11
105.662
21
99.062
0
LINE
8
1
10
105.662
20
99.062
11
105.771
21
99.035
0
LINE
8
1
10
105.771
20
99.035
11
105.886
21
99.026
0
LINE
8
1
10
105.886
20
99.026
11
111.557
21
99.026
0
LINE
8
1
10
111.557
20
99.026
11
111.672
21
99.035
0
LINE
8
1
10
111.672
20
99.035
11
111.781
21
99.062
0
LINE
8
1
10
111.781
20
99.062
11
111.883
21
99.105
0
LINE
8
1
10
111.883
20
99.105
11
111.976
21
99.163
0
LINE
8
1
10
111.976
20
99.163
11
112.058
21
99.234
0
LINE
8
1
10
112.058
20
99.234
11
112.129
21
99.316
0
LINE
8
1
10
112.129
20
99.316
11
112.187
21
99.409
0
LINE
8
1
10
112.187
20
99.409
11
112.23
21
99.511
0
LINE
8
1
10
112.23
20
99.511
11
112.257
21
99.62
0
LINE
8
1
10
112.257
20
99.62
11
112.266
21
99.735
0
LINE
8
1
10
112.266
20
99.735
11
112.266
21
112.316
0
LINE
8
1
10
112.266
20
112.316
11
112.257
21
112.431
0
LINE
8
1
10
112.257
20
112.431
11
112.23
21
112.54
0
LINE
8
1
10
112.23
20
112.54
11
112.187
21
112.642
0
LINE
8
1
10
112.187
20
112.642
11
112.129
21
112.735
0
LINE
8
1
10
112.129
20
112.735
11
112.058
21
112.817
0
LINE
8
1
10
112.058
20
112.817
11
111.976
21
112.888
0
LINE
8
1
10
111.976
20
112.888
11
111.883
21
112.946
0
LINE
8
1
10
111.883
20
112.946
11
111.781
21
112.989
0
LINE
8
1
10
111.781
20
112.989
11
111.672
21
113.016
0
LINE
8
1
10
111.672
20
113.016
11
111.557
21
113.025
0
LINE
8
1
10
111.557
20
113.025
11
105.886
21
113.025
0
LINE
8
1
10
-51.279
20
-64.104
11
-51.279
21
-62.521
0
LINE
8
1
10
-51.279
20
-62.521
11
-69.104
21
-62.521
0
LINE
8
1
10
-69.104
20
-62.521
11
-69.104
21
-53.718
0
LINE
8
1
10
-69.104
20
-53.718
11
-71.863
21
-53.718
0
LINE
8
1
10
-71.863
20
-53.718
11
-71.863
21
-50.882
0
LINE
8
1
10
-71.863
20
-50.882
11
-51.279
21
-50.882
0
LINE
8
1
10
-51.279
20
-50.882
11
-51.279
21
20.023
0
LINE
8
1
10
-51.279
20
20.023
11
-57.171
21
20.023
0
LINE
8
1
10
-57.171
20
20.023
11
-57.171
21
29.948
0
LINE
8
1
10
-57.171
20
29.948
11
-41.355
21
29.948
0
LINE
8
1
10
-41.355
20
29.948
11
-41.355
21
-20.571
0
LINE
8
1
10
-41.355
20
-20.571
11
-23.616
21
-20.571
0
LINE
8
1
10
-23.616
20
-20.571
11
-23.616
21
25.008
0
LINE
8
1
10
-23.616
20
25.008
11
10.024
21
25.008
0
LINE
8
1
10
10.024
20
25.008
11
10.024
21
15.083
0
LINE
8
1
10
10.024
20
15.083
11
-13.691
21
15.083
0
LINE
8
1
10
-13.691
20
15.083
11
-13.691
21
-38.142
0
LINE
8
1
10
-13.691
20
-38.142
11
-13.691
21
-30.496
0
LINE
8
1
10
-13.691
20
-30.496
11
-48.444
21
-30.496
0
LINE
8
1
10
-48.444
20
-30.496
11
-48.448
21
-64.104
0
LINE
8
1
10
-90.856
20
-50.882
11
-90.856
21
-53.718
0
LINE
8
1
10
-90.856
20
-53.718
11
-100.515
21
-53.718
0
LINE
8
1
10
-100.515
20
-53.718
11
-100.515
21
-68.137
0
LINE
8
1
10
-100.515
20
-68.137
11
-108.24
21
-68.137
0
LINE
8
1
10
-108.24
20
-68.137
11
-108.24
21
29.27
0
LINE
8
1
10
-108.24
20
29.27
11
-125.045
21
29.27
0
LINE
8
1
10
-125.045
20
29.27
11
-125.045
21
34.008
0
LINE
8
1
10
-125.045
20
34.008
11
-108.24
21
34.008
0
LINE
8
1
10
-108.24
20
34.008
11
-108.24
21
57.542
0
LINE
8
1
10
-108.24
20
57.542
11
-189.575
21
57.542
0
LINE
8
1
10
-189.575
20
57.542
11
-189.575
21
34.008
0
LINE
8
1
10
-189.575
20
34.008
11
-176.708
21
34.008
0
LINE
8
1
10
-176.708
20
34.008
11
-176.708
21
29.27
0
LINE
8
1
10
-176.708
20
29.27
11
-189.575
21
29.27
0
LINE
8
1
10
-189.575
20
29.27
11
-189.575
21
-100.851
0
LINE
8
1
10
-189.575
20
-100.851
11
-124.024
21
-100.851
0
LINE
8
1
10
-124.024
20
-100.851
11
-123.977
21
-98.075
0
LINE
8
1
10
-123.977
20
-98.075
11
-115.128
21
-97.882
0
LINE
8
1
10
-115.128
20
-97.882
11
-114.948
21
-100.851
0
LINE
8
1
10
-114.948
20
-100.851
11
-108.24
21
-100.851
0
LINE
8
1
10
-108.24
20
-100.851
11
-108.24
21
-85.383
0
LINE
8
1
10
-108.24
20
-85.383
11
-100.515
21
-85.383
0
LINE
8
1
10
-100.515
20
-85.383
11
-100.515
21
-100.851
0
LINE
8
1
10
-100.515
20
-100.851
11
-86.537
21
-100.851
0
LINE
8
1
10
-86.537
20
-100.851
11
-86.537
21
-110.775
0
LINE
8
1
10
-86.537
20
-110.775
11
-199.5
21
-110.775
0
LINE
8
1
10
-199.5
20
-110.775
11
-199.5
21
39.194
0
LINE
8
1
10
-199.5
20
39.194
11
-189.578
21
39.194
0
LINE
8
1
10
-189.578
20
39.194
11
-189.578
21
57.544
0
LINE
8
1
10
-189.578
20
57.544
11
-108.237
21
57.544
0
LINE
8
1
10
-108.237
20
57.544
11
-108.237
21
39.194
0
LINE
8
1
10
-108.237
20
39.194
11
-98.315
21
39.194
0
LINE
8
1
10
-98.315
20
39.194
11
-98.315
21
29.948
0
LINE
8
1
10
-98.315
20
29.948
11
-94.802
21
29.948
0
LINE
8
1
10
-94.802
20
29.948
11
-94.802
21
20.023
0
LINE
8
1
10
-94.802
20
20.023
11
-103.902
21
20.023
0
LINE
8
1
10
-103.902
20
20.023
11
-103.902
21
-50.882
0
LINE
8
1
10
-3.766
20
-60.431
11
-1.215
21
-60.431
0
LINE
8
1
10
-1.215
20
-60.431
11
-1.215
21
-55.474
0
LINE
8
1
10
-1.215
20
-55.474
11
58.169
21
-55.474
0
LINE
8
1
10
58.169
20
-55.474
11
58.169
21
-122.546
0
LINE
8
1
10
58.169
20
-122.546
11
-6.069
21
-122.546
0
LINE
8
1
10
-6.069
20
-122.546
11
-6.069
21
-110.775
0
LINE
8
1
10
-6.069
20
-110.775
11
-58.379
21
-110.775
0
LINE
8
1
10
-58.379
20
-110.775
11
-58.379
21
-110.775
0
LINE
8
1
10
-58.379
20
-110.775
11
-65.856
21
-110.775
0
LINE
8
1
10
-65.856
20
-110.775
11
-65.856
21
-100.851
0
LINE
8
1
10
-65.856
20
-100.851
11
-51.279
21
-100.851
0
LINE
8
1
10
-51.279
20
-100.851
11
-51.279
21
-85.91
0
LINE
8
1
10
-51.279
20
-85.91
11
-48.451
21
-85.91
0
LINE
8
1
10
-48.451
20
-85.91
11
-48.453
21
-100.851
0
LINE
8
1
10
-48.453
20
-100.851
11
-13.691
21
-100.851
0
LINE
8
1
10
-13.691
20
-100.851
11
-13.691
21
-92.161
0
LINE
8
1
10
-13.691
20
-92.161
11
3.856
21
-92.161
0
LINE
8
1
10
3.856
20
-92.161
11
3.856
21
-112.621
0
LINE
8
1
10
3.856
20
-112.621
11
48.244
21
-112.621
0
LINE
8
1
10
48.244
20
-112.621
11
48.244
21
-65.399
0
LINE
8
1
10
48.244
20
-65.399
11
8.71
21
-65.399
0
LINE
8
1
10
8.71
20
-65.399
11
8.71
21
-70.355
0
LINE
8
1
10
8.71
20
-70.355
11
3.856
21
-70.355
0
LINE
8
1
10
3.856
20
-70.355
11
3.856
21
-72.465
0
LINE
8
1
10
3.856
20
-72.465
11
-13.691
21
-72.465
0
LINE
8
1
10
-13.691
20
-72.465
11
-13.691
21
-49.736
0
LINE
8
1
10
-13.691
20
-49.736
11
-13.691
21
-45.516
0
LINE
8
1
10
-13.691
20
-45.516
11
90.245
21
-45.516
0
LINE
8
1
10
90.245
20
-45.516
11
90.245
21
15.083
0
LINE
8
1
10
90.245
20
15.083
11
87.064
21
15.083
0
LINE
8
1
10
87.064
20
15.083
11
87.064
21
25.628
0
LINE
8
1
10
87.064
20
25.628
11
90.245
21
25.628
0
LINE
8
1
10
90.245
20
25.628
11
90.245
21
49.847
0
LINE
8
1
10
90.245
20
49.847
11
161.882
21
49.847
0
LINE
8
1
10
161.882
20
49.847
11
161.882
21
34.476
0
LINE
8
1
10
161.882
20
34.476
11
141.422
21
34.476
0
LINE
8
1
10
141.422
20
34.476
11
141.422
21
-28.217
0
LINE
8
1
10
141.422
20
-28.217
11
188.645
21
-28.217
0
LINE
8
1
10
188.645
20
-28.217
11
188.645
21
11.317
0
LINE
8
1
10
188.645
20
11.317
11
183.689
21
11.317
0
LINE
8
1
10
183.689
20
11.317
11
183.689
21
34.476
0
LINE
8
1
10
183.689
20
34.476
11
181.578
21
34.476
0
LINE
8
1
10
181.578
20
34.476
11
181.578
21
49.847
0
LINE
8
1
10
181.578
20
49.847
11
189.575
21
49.847
0
LINE
8
1
10
189.575
20
49.847
11
189.575
21
115.386
0
LINE
8
1
10
189.575
20
115.386
11
186.365
21
115.386
0
LINE
8
1
10
186.365
20
115.386
11
186.366
21
125.311
0
LINE
8
1
10
186.366
20
125.311
11
199.5
21
125.311
0
LINE
8
1
10
199.5
20
125.311
11
199.5
21
39.922
0
LINE
8
1
10
199.5
20
39.922
11
193.613
21
39.922
0
LINE
8
1
10
193.613
20
39.922
11
193.613
21
21.242
0
LINE
8
1
10
193.613
20
21.242
11
198.57
21
21.242
0
LINE
8
1
10
198.57
20
21.242
11
198.57
21
-38.142
0
LINE
8
1
10
198.57
20
-38.142
11
131.498
21
-38.142
0
LINE
8
1
10
131.498
20
-38.142
11
131.498
21
39.922
0
LINE
8
1
10
131.498
20
39.922
11
100.17
21
39.922
0
LINE
8
1
10
100.17
20
39.922
11
100.17
21
-55.441
0
LINE
8
1
10
100.17
20
-55.441
11
-3.766
21
-55.441
0
LINE
8
1
10
-68.198
20
20.023
11
-68.198
21
29.948
0
LINE
8
1
10
-68.198
20
29.948
11
-68.145
21
29.948
0
LINE
8
1
10
-68.145
20
29.948
11
-68.145
21
20.023
0
LINE
8
1
10
10.026
20
15.083
11
10.026
21
25.008
0
LINE
8
1
10
10.026
20
25.008
11
10.069
21
25.008
0
LINE
8
1
10
10.069
20
25.008
11
10.069
21
15.083
0
LINE
8
1
10
-154.301
20
29.27
11
-154.301
21
34.008
0
LINE
8
1
10
-154.301
20
34.008
11
-154.283
21
34.008
0
LINE
8
1
10
-154.283
20
34.008
11
-154.283
21
29.27
0
LINE
8
1
10
-144.536
20
29.27
11
-144.536
21
34.008
0
LINE
8
1
10
-144.536
20
34.008
11
-143.949
21
34.008
0
LINE
8
1
10
-143.949
20
34.008
11
-143.949
21
29.27
0
LINE
8
1
10
109.355
20
115.387
11
67.369
21
115.388
0
LINE
8
1
10
67.369
20
115.388
11
67.368
21
25.628
0
LINE
8
1
10
67.368
20
25.628
11
67.368
21
25.628
0
LINE
8
1
10
67.368
20
25.628
11
67.368
21
15.083
0
LINE
8
1
10
67.368
20
15.083
11
57.286
21
15.083
0
LINE
8
1
10
57.286
20
15.083
11
57.286
21
25.008
0
LINE
8
1
10
57.286
20
25.008
11
57.444
21
25.008
0
LINE
8
1
10
57.444
20
25.008
11
57.445
21
125.312
0
LINE
8
1
10
57.445
20
125.312
11
109.355
21
125.312
0
LINE
8
1
10
128.472
20
115.387
11
109.357
21
115.387
0
LINE
8
1
10
109.357
20
115.387
11
109.357
21
125.312
0
LINE
8
1
10
109.357
20
125.312
11
128.472
21
125.312
0
ENDSEC
0
EOF
