999
DXF created by Makelangelo software v7.11.0
0
SECTION
2
HEADER
9
$ACADVER
1
AC1006
9
$INSBASE
10
-21.0
20
-29.700000000000003
30
0.0
9
$EXTMIN
10
-21.0
20
-29.700000000000003
30
0.0
9
$EXTMAX
10
21.0
20
29.700000000000003
30
0.0
0
ENDSEC
0
SECTION
2
TABLES
0
TABLE
2
LTYPE
70
1
0
LTYPE
2
CONTINUOUS
70
64
3
Solid line
72
65
73
0
40
0.000
0
ENDTAB
0
TABLE
2
LAYER
70
6
0
LAYER
2
1
70
64
62
7
6
CONTINUOUS
0
LAYER
2
2
70
64
62
7
6
CONTINUOUS
0
ENDTAB
0
TABLE
2
STYLE
70
0
0
ENDTAB
0
ENDSEC
0
SECTION
0
BLOCKS
0
ENDSEC
0
SECTION
2
ENTITIES
0
LINE
8
1
10
24.75
20
-255.115
11
26.273
21
-252.831
0
LINE
8
1
10
26.273
20
-252.831
11
26.273
21
-249.023
0
LINE
8
1
10
20.942
20
-246.738
11
19.419
21
-251.308
0
LINE
8
1
10
19.419
20
-251.308
11
19.419
21
-252.831
0
LINE
8
1
10
19.419
20
-252.831
11
19.419
21
-253.592
0
LINE
8
1
10
19.419
20
-252.069
11
21.704
21
-252.069
0
LINE
8
1
10
14.85
20
-242.169
11
16.297
21
-242.322
0
LINE
8
1
10
16.297
20
-242.322
11
31.528
21
-246.891
0
LINE
8
1
10
31.528
20
-246.891
11
32.365
21
-247.5
0
LINE
8
1
10
32.365
20
-247.5
11
33.127
21
-247.5
0
LINE
8
1
10
31.604
20
-255.115
11
31.756
21
-253.668
0
LINE
8
1
10
31.756
20
-253.668
11
31.985
21
-252.831
0
LINE
8
1
10
31.985
20
-252.831
11
31.604
21
-252.069
0
LINE
8
1
10
31.604
20
-252.069
11
32.137
21
-250.47
0
LINE
8
1
10
32.137
20
-250.47
11
33.127
21
-248.262
0
LINE
8
1
10
33.127
20
-248.262
11
33.888
21
-247.5
0
LINE
8
1
10
33.888
20
-247.5
11
36.935
21
-247.5
0
LINE
8
1
10
36.935
20
-247.5
11
37.696
21
-248.262
0
LINE
8
1
10
37.696
20
-248.262
11
38.458
21
-249.023
0
LINE
8
1
10
38.458
20
-249.023
11
37.696
21
-254.354
0
LINE
8
1
10
37.696
20
-254.354
11
36.935
21
-255.115
0
LINE
8
1
10
36.935
20
-255.115
11
35.412
21
-256.638
0
LINE
8
1
10
35.412
20
-256.638
11
33.127
21
-256.638
0
LINE
8
1
10
33.127
20
-256.638
11
31.604
21
-255.115
0
LINE
8
1
10
31.604
20
-255.115
11
28.558
21
-256.638
0
LINE
8
1
10
28.558
20
-256.638
11
27.035
21
-256.638
0
LINE
8
1
10
27.035
20
-256.638
11
26.197
21
-256.029
0
LINE
8
1
10
26.197
20
-256.029
11
24.75
21
-255.115
0
LINE
8
1
10
24.75
20
-255.115
11
20.942
21
-255.115
0
LINE
8
1
10
20.942
20
-255.115
11
19.419
21
-253.592
0
LINE
8
1
10
19.419
20
-253.592
11
16.373
21
-254.354
0
LINE
8
1
10
16.373
20
-254.354
11
11.804
21
-253.592
0
LINE
8
1
10
11.804
20
-253.592
11
10.281
21
-252.069
0
LINE
8
1
10
10.281
20
-252.069
11
10.281
21
-250.546
0
LINE
8
1
10
10.281
20
-250.546
11
12.565
21
-248.262
0
LINE
8
1
10
12.565
20
-248.262
11
12.834
21
-246.044
0
LINE
8
1
10
12.834
20
-246.044
11
14.85
21
-242.169
0
LINE
8
1
10
14.85
20
-242.169
11
14.698
21
-240.722
0
LINE
8
1
10
14.698
20
-240.722
11
14.088
21
-239.885
0
LINE
8
1
10
14.088
20
-239.885
11
14.088
21
-236.838
0
LINE
8
1
10
14.088
20
-236.838
11
16.556
21
-231.645
0
LINE
8
1
10
16.556
20
-231.645
11
18.658
21
-228.462
0
LINE
8
1
10
18.658
20
-228.462
11
18.658
21
-227.7
0
LINE
8
1
10
38.458
20
-248.262
11
43.027
21
-247.5
0
LINE
8
1
10
43.027
20
-247.5
11
43.788
21
-248.262
0
LINE
8
1
10
43.788
20
-248.262
11
43.496
21
-251.249
0
LINE
8
1
10
43.496
20
-251.249
11
43.027
21
-252.831
0
LINE
8
1
10
43.027
20
-252.831
11
40.742
21
-255.115
0
LINE
8
1
10
40.742
20
-255.115
11
38.458
21
-255.115
0
LINE
8
1
10
38.458
20
-255.115
11
37.696
21
-255.115
0
LINE
8
1
10
43.788
20
-247.5
11
45.89
21
-245.078
0
LINE
8
1
10
45.89
20
-245.078
11
46.682
21
-243.616
0
LINE
8
1
10
46.682
20
-243.616
11
48.089
21
-240.579
0
LINE
8
1
10
48.089
20
-240.579
11
48.626
21
-238.429
0
LINE
8
1
10
48.626
20
-238.429
11
49.561
21
-232.985
0
LINE
8
1
10
49.561
20
-232.985
11
49.881
21
-228.462
0
LINE
8
1
10
49.881
20
-228.462
11
49.119
21
-227.7
0
LINE
8
1
10
49.119
20
-227.7
11
46.835
21
-229.223
0
LINE
8
1
10
46.835
20
-229.223
11
46.542
21
-232.972
0
LINE
8
1
10
46.542
20
-232.972
11
45.007
21
-237.448
0
LINE
8
1
10
45.007
20
-237.448
11
43.788
21
-239.885
0
LINE
8
1
10
43.788
20
-239.885
11
42.265
21
-241.408
0
LINE
8
1
10
42.265
20
-241.408
11
40.742
21
-241.788
0
LINE
8
1
10
40.742
20
-241.788
11
36.097
21
-240.798
0
LINE
8
1
10
36.097
20
-240.798
11
34.583
21
-240.153
0
LINE
8
1
10
34.583
20
-240.153
11
31.577
21
-239.472
0
LINE
8
1
10
31.577
20
-239.472
11
22.492
21
-238.774
0
LINE
8
1
10
22.492
20
-238.774
11
20.942
21
-238.362
0
LINE
8
1
10
20.942
20
-238.362
11
20.181
21
-237.6
0
LINE
8
1
10
20.181
20
-237.6
11
20.181
21
-233.792
0
LINE
8
1
10
20.181
20
-233.792
11
23.075
21
-228.385
0
LINE
8
1
10
23.075
20
-228.385
11
24.75
21
-225.415
0
LINE
8
1
10
24.75
20
-225.415
11
23.988
21
-223.892
0
LINE
8
1
10
63.588
20
-248.262
11
64.35
21
-247.5
0
LINE
8
1
10
63.588
20
-246.738
11
64.35
21
-245.977
0
LINE
8
1
10
64.35
20
-245.977
11
65.112
21
-246.738
0
LINE
8
1
10
65.112
20
-246.738
11
64.35
21
-247.5
0
LINE
8
1
10
64.35
20
-247.5
11
63.588
21
-246.738
0
LINE
8
1
10
63.588
20
-246.738
11
62.827
21
-247.5
0
LINE
8
1
10
62.827
20
-247.5
11
60.542
21
-249.023
0
LINE
8
1
10
60.542
20
-249.023
11
62.065
21
-251.308
0
LINE
8
1
10
62.065
20
-251.308
11
62.065
21
-254.354
0
LINE
8
1
10
62.065
20
-254.354
11
62.827
21
-255.115
0
LINE
8
1
10
62.827
20
-255.115
11
64.35
21
-255.115
0
LINE
8
1
10
64.35
20
-255.115
11
65.112
21
-255.877
0
LINE
8
1
10
65.112
20
-255.877
11
65.873
21
-257.4
0
LINE
8
1
10
65.873
20
-257.4
11
69.681
21
-257.4
0
LINE
8
1
10
69.681
20
-257.4
11
71.204
21
-257.4
0
LINE
8
1
10
71.204
20
-257.4
11
73.421
21
-257.669
0
LINE
8
1
10
73.421
20
-257.669
11
74.25
21
-258.162
0
LINE
8
1
10
74.25
20
-258.162
11
78.058
21
-258.162
0
LINE
8
1
10
78.058
20
-258.162
11
79.581
21
-257.4
0
LINE
8
1
10
79.581
20
-257.4
11
83.388
21
-253.592
0
LINE
8
1
10
83.388
20
-253.592
11
83.998
21
-250.47
0
LINE
8
1
10
83.998
20
-250.47
11
91.576
21
-241.997
0
LINE
8
1
10
91.576
20
-241.997
11
92.375
21
-240.57
0
LINE
8
1
10
92.375
20
-240.57
11
93.707
21
-236.046
0
LINE
8
1
10
93.707
20
-236.046
11
94.393
21
-228.493
0
LINE
8
1
10
94.393
20
-228.493
11
94.812
21
-227.7
0
LINE
8
1
10
94.812
20
-227.7
11
95.573
21
-226.938
0
LINE
8
1
10
95.573
20
-226.938
11
104.77
21
-227.407
0
LINE
8
1
10
104.77
20
-227.407
11
107.699
21
-227.993
0
LINE
8
1
10
107.699
20
-227.993
11
117.734
21
-232.117
0
LINE
8
1
10
117.734
20
-232.117
11
122.227
21
-236.077
0
LINE
8
1
10
122.227
20
-236.077
11
122.988
21
-237.6
0
LINE
8
1
10
122.988
20
-237.6
11
122.988
21
-243.692
0
LINE
8
1
10
122.988
20
-243.692
11
121.618
21
-246.053
0
LINE
8
1
10
121.618
20
-246.053
11
118.419
21
-249.785
0
LINE
8
1
10
118.419
20
-249.785
11
117.048
21
-250.089
0
LINE
8
1
10
117.048
20
-250.089
11
115.373
21
-251.308
0
LINE
8
1
10
115.373
20
-251.308
11
113.156
21
-251.576
0
LINE
8
1
10
113.156
20
-251.576
11
111.702
21
-252.252
0
LINE
8
1
10
111.702
20
-252.252
11
108.595
21
-254.506
0
LINE
8
1
10
108.595
20
-254.506
11
107.682
21
-254.887
0
LINE
8
1
10
107.682
20
-254.887
11
96.297
21
-259.35
0
LINE
8
1
10
96.297
20
-259.35
11
90.279
21
-260.019
0
LINE
8
1
10
90.279
20
-260.019
11
87.12
21
-260.979
0
LINE
8
1
10
87.12
20
-260.979
11
85.749
21
-261.436
0
LINE
8
1
10
85.749
20
-261.436
11
79.505
21
-265.625
0
LINE
8
1
10
79.505
20
-265.625
11
75.773
21
-267.3
0
LINE
8
1
10
75.773
20
-267.3
11
70.442
21
-267.3
0
LINE
8
1
10
70.442
20
-267.3
11
65.797
21
-265.929
0
LINE
8
1
10
65.797
20
-265.929
11
64.35
21
-265.015
0
LINE
8
1
10
64.35
20
-265.015
11
62.065
21
-265.015
0
LINE
8
1
10
62.065
20
-265.015
11
61.304
21
-265.777
0
LINE
8
1
10
61.304
20
-265.777
11
46.835
21
-265.777
0
LINE
8
1
10
46.835
20
-265.777
11
41.387
21
-262.907
0
LINE
8
1
10
41.387
20
-262.907
11
39.981
21
-261.969
0
LINE
8
1
10
39.981
20
-261.969
11
38.458
21
-261.969
0
LINE
8
1
10
38.458
20
-261.969
11
37.62
21
-262.502
0
LINE
8
1
10
37.62
20
-262.502
11
32.336
21
-263.907
0
LINE
8
1
10
32.336
20
-263.907
11
24.017
21
-264.6
0
LINE
8
1
10
24.017
20
-264.6
11
23.227
21
-265.015
0
LINE
8
1
10
23.227
20
-265.015
11
-7.302
21
-262.238
0
LINE
8
1
10
-7.302
20
-262.238
11
-10.348
21
-261.476
0
LINE
8
1
10
-10.348
20
-261.476
11
-20.866
21
-257.248
0
LINE
8
1
10
-20.866
20
-257.248
11
-23.988
21
-255.877
0
LINE
8
1
10
-23.988
20
-255.877
11
-26.273
21
-253.592
0
LINE
8
1
10
-26.273
20
-253.592
11
-27.035
21
-252.069
0
LINE
8
1
10
-27.035
20
-252.069
11
-27.035
21
-249.785
0
LINE
8
1
10
-27.035
20
-249.785
11
-26.425
21
-248.947
0
LINE
8
1
10
-26.425
20
-248.947
11
-24.75
21
-246.738
0
LINE
8
1
10
-24.75
20
-246.738
11
-17.211
21
-242.778
0
LINE
8
1
10
-17.211
20
-242.778
11
-12.448
21
-240.06
0
LINE
8
1
10
-12.448
20
-240.06
11
-6.397
21
-237.828
0
LINE
8
1
10
-6.397
20
-237.828
11
-4.95
21
-237.6
0
LINE
8
1
10
-4.95
20
-237.6
11
-3.427
21
-236.077
0
LINE
8
1
10
-3.427
20
-236.077
11
-4.188
21
-234.554
0
LINE
8
1
10
-4.188
20
-234.554
11
-5.712
21
-233.792
0
LINE
8
1
10
-5.712
20
-233.792
11
-5.102
21
-232.193
0
LINE
8
1
10
-5.102
20
-232.193
11
-4.188
21
-230.746
0
LINE
8
1
10
-4.188
20
-230.746
11
-1.787
21
-229.399
0
LINE
8
1
10
-1.787
20
-229.399
11
1.971
21
-227.969
0
LINE
8
1
10
1.971
20
-227.969
11
5.001
21
-227.247
0
LINE
8
1
10
5.001
20
-227.247
11
9.519
21
-226.177
0
LINE
8
1
10
9.519
20
-226.177
11
17.135
21
-226.177
0
LINE
8
1
10
17.135
20
-226.177
11
18.658
21
-227.7
0
LINE
8
1
10
18.658
20
-227.7
11
23.227
21
-223.892
0
LINE
8
1
10
23.227
20
-223.892
11
23.988
21
-223.131
0
LINE
8
1
10
23.988
20
-223.131
11
23.988
21
-217.8
0
LINE
8
1
10
23.988
20
-217.8
11
27.035
21
-214.754
0
LINE
8
1
10
27.035
20
-214.754
11
28.558
21
-214.754
0
LINE
8
1
10
28.558
20
-214.754
11
30.081
21
-212.469
0
LINE
8
1
10
30.081
20
-212.469
11
29.928
21
-211.022
0
LINE
8
1
10
29.928
20
-211.022
11
26.273
21
-194.954
0
LINE
8
1
10
26.273
20
-194.954
11
26.273
21
-193.431
0
LINE
8
1
10
26.273
20
-193.431
11
27.035
21
-192.669
0
LINE
8
1
10
27.035
20
-192.669
11
27.035
21
-191.146
0
LINE
8
1
10
27.035
20
-191.146
11
13.251
21
-183.683
0
LINE
8
1
10
13.251
20
-183.683
11
7.352
21
-180.309
0
LINE
8
1
10
7.352
20
-180.309
11
-0.264
21
-174.978
0
LINE
8
1
10
-0.264
20
-174.978
11
-7.235
21
-169.823
0
LINE
8
1
10
-7.235
20
-169.823
11
-12.565
21
-161.446
0
LINE
8
1
10
-12.565
20
-161.446
11
-13.327
21
-160.685
0
LINE
8
1
10
-13.327
20
-160.685
11
-19.495
21
-157.791
0
LINE
8
1
10
-19.495
20
-157.791
11
-26.273
21
-151.546
0
LINE
8
1
10
-26.273
20
-151.546
11
-28.289
21
-147.671
0
LINE
8
1
10
-28.289
20
-147.671
11
-29.319
21
-142.408
0
LINE
8
1
10
-29.319
20
-142.408
11
-29.319
21
-140.885
0
LINE
8
1
10
-29.319
20
-140.885
11
-30.081
21
-140.123
0
LINE
8
1
10
-30.081
20
-140.123
11
-30.081
21
-137.077
0
LINE
8
1
10
-30.081
20
-137.077
11
-32.365
21
-127.177
0
LINE
8
1
10
-32.365
20
-127.177
11
-32.0
21
-108.915
0
LINE
8
1
10
-32.0
20
-108.915
11
-30.081
21
-86.815
0
LINE
8
1
10
-30.081
20
-86.815
11
-30.842
21
-86.054
0
LINE
8
1
10
-30.842
20
-86.054
11
-36.897
21
-85.719
0
LINE
8
1
10
-36.897
20
-85.719
11
-40.666
21
-84.378
0
LINE
8
1
10
-40.666
20
-84.378
11
-41.504
21
-83.769
0
LINE
8
1
10
-41.504
20
-83.769
11
-42.265
21
-84.531
0
LINE
8
1
10
-42.265
20
-84.531
11
-42.875
21
-85.368
0
LINE
8
1
10
-42.875
20
-85.368
11
-43.788
21
-88.338
0
LINE
8
1
10
-43.788
20
-88.338
11
-43.788
21
-89.862
0
LINE
8
1
10
-43.788
20
-89.862
11
-44.117
21
-95.151
0
LINE
8
1
10
-44.117
20
-95.151
11
-50.174
21
-124.834
0
LINE
8
1
10
-50.174
20
-124.834
11
-50.642
21
-125.654
0
LINE
8
1
10
-50.642
20
-125.654
11
-50.871
21
-127.101
0
LINE
8
1
10
-50.871
20
-127.101
11
-52.165
21
-130.223
0
LINE
8
1
10
-52.165
20
-130.223
11
-51.404
21
-131.746
0
LINE
8
1
10
-51.404
20
-131.746
11
-48.434
21
-132.736
0
LINE
8
1
10
-48.434
20
-132.736
11
-44.55
21
-134.031
0
LINE
8
1
10
-44.55
20
-134.031
11
-36.935
21
-134.031
0
LINE
8
1
10
-36.935
20
-134.031
11
-35.412
21
-133.269
0
LINE
8
1
10
-35.412
20
-133.269
11
-34.197
21
-132.456
0
LINE
8
1
10
-34.197
20
-132.456
11
-33.888
21
-128.7
0
LINE
8
1
10
-33.888
20
-128.7
11
-32.365
21
-127.177
0
LINE
8
1
10
62.827
20
-247.5
11
63.588
21
-248.262
0
LINE
8
1
10
63.588
20
-248.262
11
63.588
21
-249.785
0
LINE
8
1
10
63.588
20
-249.785
11
62.065
21
-251.308
0
LINE
8
1
10
69.681
20
-249.023
11
68.333
21
-250.663
0
LINE
8
1
10
68.333
20
-250.663
11
67.396
21
-253.592
0
LINE
8
1
10
67.396
20
-253.592
11
70.442
21
-255.115
0
LINE
8
1
10
70.442
20
-255.115
11
70.442
21
-256.638
0
LINE
8
1
10
70.442
20
-256.638
11
70.442
21
-257.4
0
LINE
8
1
10
70.442
20
-255.115
11
72.727
21
-254.354
0
LINE
8
1
10
72.727
20
-254.354
11
74.25
21
-252.831
0
LINE
8
1
10
74.25
20
-252.831
11
75.773
21
-249.023
0
LINE
8
1
10
67.396
20
-253.592
11
65.873
21
-255.115
0
LINE
8
1
10
65.873
20
-255.115
11
65.112
21
-255.115
0
LINE
8
1
10
65.112
20
-245.977
11
65.873
21
-244.454
0
LINE
8
1
10
65.873
20
-244.454
11
65.873
21
-242.931
0
LINE
8
1
10
65.873
20
-242.931
11
63.588
21
-239.123
0
LINE
8
1
10
63.588
20
-239.123
11
63.588
21
-235.315
0
LINE
8
1
10
63.588
20
-235.315
11
65.873
21
-229.985
0
LINE
8
1
10
65.873
20
-229.985
11
66.635
21
-229.223
0
LINE
8
1
10
66.635
20
-229.223
11
66.635
21
-227.7
0
LINE
8
1
10
66.635
20
-227.7
11
64.426
21
-225.948
0
LINE
8
1
10
64.426
20
-225.948
11
59.781
21
-224.654
0
LINE
8
1
10
59.781
20
-224.654
11
54.45
21
-224.654
0
LINE
8
1
10
54.45
20
-224.654
11
52.165
21
-225.415
0
LINE
8
1
10
52.165
20
-225.415
11
49.881
21
-226.938
0
LINE
8
1
10
49.881
20
-226.938
11
49.881
21
-227.7
0
LINE
8
1
10
66.635
20
-226.938
11
68.919
21
-219.323
0
LINE
8
1
10
68.919
20
-219.323
11
68.919
21
-214.754
0
LINE
8
1
10
68.919
20
-214.754
11
68.158
21
-213.992
0
LINE
8
1
10
68.158
20
-213.992
11
68.158
21
-212.469
0
LINE
8
1
10
68.158
20
-212.469
11
68.919
21
-211.708
0
LINE
8
1
10
68.919
20
-211.708
11
69.681
21
-210.946
0
LINE
8
1
10
69.681
20
-210.946
11
70.51
21
-210.453
0
LINE
8
1
10
70.51
20
-210.453
11
75.773
21
-208.662
0
LINE
8
1
10
75.773
20
-208.662
11
78.819
21
-205.615
0
LINE
8
1
10
78.819
20
-205.615
11
80.038
21
-203.178
0
LINE
8
1
10
80.038
20
-203.178
11
82.627
21
-195.715
0
LINE
8
1
10
82.627
20
-195.715
11
83.388
21
-194.954
0
LINE
8
1
10
83.388
20
-194.954
11
84.912
21
-194.954
0
LINE
8
1
10
84.912
20
-194.954
11
86.435
21
-193.431
0
LINE
8
1
10
86.435
20
-193.431
11
91.004
21
-193.431
0
LINE
8
1
10
91.004
20
-193.431
11
94.05
21
-195.715
0
LINE
8
1
10
94.05
20
-195.715
11
94.359
21
-199.472
0
LINE
8
1
10
94.359
20
-199.472
11
94.812
21
-200.285
0
LINE
8
1
10
94.812
20
-200.285
11
88.948
21
-214.83
0
LINE
8
1
10
88.948
20
-214.83
11
87.552
21
-221.63
0
LINE
8
1
10
87.552
20
-221.63
11
86.841
21
-233.009
0
LINE
8
1
10
86.841
20
-233.009
11
84.912
21
-239.123
0
LINE
8
1
10
84.912
20
-239.123
11
80.342
21
-243.692
0
LINE
8
1
10
80.342
20
-243.692
11
78.895
21
-243.921
0
LINE
8
1
10
78.895
20
-243.921
11
75.012
21
-245.215
0
LINE
8
1
10
75.012
20
-245.215
11
69.681
21
-245.215
0
LINE
8
1
10
69.681
20
-245.215
11
66.635
21
-243.692
0
LINE
8
1
10
66.635
20
-243.692
11
65.873
21
-243.692
0
LINE
8
1
10
46.835
20
-229.223
11
43.086
21
-229.516
0
LINE
8
1
10
43.086
20
-229.516
11
42.265
21
-229.985
0
LINE
8
1
10
42.265
20
-229.985
11
40.742
21
-229.985
0
LINE
8
1
10
40.742
20
-229.985
11
36.993
21
-228.93
0
LINE
8
1
10
36.993
20
-228.93
11
30.918
21
-227.548
0
LINE
8
1
10
30.918
20
-227.548
11
26.349
21
-225.263
0
LINE
8
1
10
26.349
20
-225.263
11
25.512
21
-224.654
0
LINE
8
1
10
25.512
20
-224.654
11
24.75
21
-224.654
0
LINE
8
1
10
28.558
20
-214.754
11
31.752
21
-218.376
0
LINE
8
1
10
31.752
20
-218.376
11
33.203
21
-219.171
0
LINE
8
1
10
33.203
20
-219.171
11
41.504
21
-221.227
0
LINE
8
1
10
41.504
20
-221.227
11
42.317
21
-221.155
0
LINE
8
1
10
42.317
20
-221.155
11
46.073
21
-220.846
0
LINE
8
1
10
46.073
20
-220.846
11
47.596
21
-219.323
0
LINE
8
1
10
47.596
20
-219.323
11
47.596
21
-217.8
0
LINE
8
1
10
47.596
20
-217.8
11
50.642
21
-218.562
0
LINE
8
1
10
50.642
20
-218.562
11
51.404
21
-219.323
0
LINE
8
1
10
51.404
20
-219.323
11
51.404
21
-224.654
0
LINE
8
1
10
51.404
20
-224.654
11
51.404
21
-225.415
0
LINE
8
1
10
47.596
20
-217.8
11
42.265
21
-217.8
0
LINE
8
1
10
42.265
20
-217.8
11
34.006
21
-214.578
0
LINE
8
1
10
34.006
20
-214.578
11
30.842
21
-212.469
0
LINE
8
1
10
30.842
20
-212.469
11
30.081
21
-212.469
0
LINE
8
1
10
35.412
20
-194.954
11
36.173
21
-194.192
0
LINE
8
1
10
36.173
20
-194.192
11
36.173
21
-183.531
0
LINE
8
1
10
36.173
20
-183.531
11
31.832
21
-157.562
0
LINE
8
1
10
31.832
20
-157.562
11
30.995
21
-155.278
0
LINE
8
1
10
30.995
20
-155.278
11
26.859
21
-145.571
0
LINE
8
1
10
26.859
20
-145.571
11
24.902
21
-142.332
0
LINE
8
1
10
24.902
20
-142.332
11
20.181
21
-134.031
0
LINE
8
1
10
20.181
20
-134.031
11
16.373
21
-130.223
0
LINE
8
1
10
16.373
20
-130.223
11
14.088
21
-128.7
0
LINE
8
1
10
14.088
20
-128.7
11
13.327
21
-127.938
0
LINE
8
1
10
13.327
20
-127.938
11
14.241
21
-125.73
0
LINE
8
1
10
14.241
20
-125.73
11
14.85
21
-124.892
0
LINE
8
1
10
14.85
20
-124.892
11
16.373
21
-124.892
0
LINE
8
1
10
16.373
20
-124.892
11
21.887
21
-130.848
0
LINE
8
1
10
21.887
20
-130.848
11
23.806
21
-133.406
0
LINE
8
1
10
23.806
20
-133.406
11
29.472
21
-143.093
0
LINE
8
1
10
29.472
20
-143.093
11
30.69
21
-145.53
0
LINE
8
1
10
30.69
20
-145.53
11
35.945
21
-158.476
0
LINE
8
1
10
35.945
20
-158.476
11
37.427
21
-163.036
0
LINE
8
1
10
37.427
20
-163.036
11
40.408
21
-175.953
0
LINE
8
1
10
40.408
20
-175.953
11
42.265
21
-197.238
0
LINE
8
1
10
42.265
20
-197.238
11
42.265
21
-198.0
0
LINE
8
1
10
27.035
20
-191.908
11
34.65
21
-194.954
0
LINE
8
1
10
34.65
20
-194.954
11
35.412
21
-195.715
0
LINE
8
1
10
35.412
20
-195.715
11
36.249
21
-196.248
0
LINE
8
1
10
36.249
20
-196.248
11
41.504
21
-198.0
0
LINE
8
1
10
41.504
20
-198.0
11
42.265
21
-198.762
0
LINE
8
1
10
42.265
20
-198.762
11
43.103
21
-199.371
0
LINE
8
1
10
43.103
20
-199.371
11
53.612
21
-204.321
0
LINE
8
1
10
53.612
20
-204.321
11
54.45
21
-204.854
0
LINE
8
1
10
54.45
20
-204.854
11
55.212
21
-205.615
0
LINE
8
1
10
55.212
20
-205.615
11
50.46
21
-215.378
0
LINE
8
1
10
50.46
20
-215.378
11
48.358
21
-217.8
0
LINE
8
1
10
55.212
20
-204.854
11
56.735
21
-205.615
0
LINE
8
1
10
56.735
20
-205.615
11
58.258
21
-205.615
0
LINE
8
1
10
58.258
20
-205.615
11
59.781
21
-204.092
0
LINE
8
1
10
59.781
20
-204.092
11
62.065
21
-204.092
0
LINE
8
1
10
62.065
20
-204.092
11
64.35
21
-207.138
0
LINE
8
1
10
64.35
20
-207.138
11
64.35
21
-208.662
0
LINE
8
1
10
64.35
20
-208.662
11
65.873
21
-210.185
0
LINE
8
1
10
65.873
20
-210.185
11
67.32
21
-210.413
0
LINE
8
1
10
67.32
20
-210.413
11
68.158
21
-210.946
0
LINE
8
1
10
68.158
20
-210.946
11
68.919
21
-210.946
0
LINE
8
1
10
64.35
20
-207.138
11
65.188
21
-206.529
0
LINE
8
1
10
65.188
20
-206.529
11
70.442
21
-204.854
0
LINE
8
1
10
70.442
20
-204.854
11
74.25
21
-201.046
0
LINE
8
1
10
74.25
20
-201.046
11
75.012
21
-198.762
0
LINE
8
1
10
75.012
20
-198.762
11
75.012
21
-194.192
0
LINE
8
1
10
75.012
20
-194.192
11
72.727
21
-188.1
0
LINE
8
1
10
72.727
20
-188.1
11
69.102
21
-182.632
0
LINE
8
1
10
69.102
20
-182.632
11
67.548
21
-179.647
0
LINE
8
1
10
67.548
20
-179.647
11
66.635
21
-177.438
0
LINE
8
1
10
66.635
20
-177.438
11
64.533
21
-175.017
0
LINE
8
1
10
64.533
20
-175.017
11
60.542
21
-169.062
0
LINE
8
1
10
60.542
20
-169.062
11
59.019
21
-169.823
0
LINE
8
1
10
59.019
20
-169.823
11
59.019
21
-172.869
0
LINE
8
1
10
59.019
20
-172.869
11
59.488
21
-173.689
0
LINE
8
1
10
59.488
20
-173.689
11
60.074
21
-176.618
0
LINE
8
1
10
60.074
20
-176.618
11
61.304
21
-188.862
0
LINE
8
1
10
61.304
20
-188.862
11
59.781
21
-203.331
0
LINE
8
1
10
59.781
20
-203.331
11
59.781
21
-204.092
0
LINE
8
1
10
84.912
20
-194.954
11
87.013
21
-198.137
0
LINE
8
1
10
87.013
20
-198.137
11
87.958
21
-199.523
0
LINE
8
1
10
87.958
20
-199.523
11
87.958
21
-207.138
0
LINE
8
1
10
87.958
20
-207.138
11
84.302
21
-215.592
0
LINE
8
1
10
84.302
20
-215.592
11
83.16
21
-218.485
0
LINE
8
1
10
83.16
20
-218.485
11
81.432
21
-226.979
0
LINE
8
1
10
81.432
20
-226.979
11
80.776
21
-232.228
0
LINE
8
1
10
80.776
20
-232.228
11
79.581
21
-237.6
0
LINE
8
1
10
79.581
20
-237.6
11
77.296
21
-239.885
0
LINE
8
1
10
77.296
20
-239.885
11
73.488
21
-239.885
0
LINE
8
1
10
73.488
20
-239.885
11
71.965
21
-239.123
0
LINE
8
1
10
71.965
20
-239.123
11
69.681
21
-236.838
0
LINE
8
1
10
69.681
20
-236.838
11
68.426
21
-233.725
0
LINE
8
1
10
68.426
20
-233.725
11
68.158
21
-231.508
0
LINE
8
1
10
68.158
20
-231.508
11
66.635
21
-229.985
0
LINE
8
1
10
94.812
20
-226.938
11
94.812
21
-220.846
0
LINE
8
1
10
94.812
20
-220.846
11
96.03
21
-219.171
0
LINE
8
1
10
96.03
20
-219.171
11
96.335
21
-217.8
0
LINE
8
1
10
96.335
20
-217.8
11
98.619
21
-215.515
0
LINE
8
1
10
98.619
20
-215.515
11
98.848
21
-214.068
0
LINE
8
1
10
98.848
20
-214.068
11
100.142
21
-211.708
0
LINE
8
1
10
100.142
20
-211.708
11
100.142
21
-204.854
0
LINE
8
1
10
100.142
20
-204.854
11
97.858
21
-201.808
0
LINE
8
1
10
97.858
20
-201.808
11
95.573
21
-200.285
0
LINE
8
1
10
95.573
20
-200.285
11
94.812
21
-200.285
0
LINE
8
1
10
-52.927
20
-168.3
11
-49.957
21
-169.214
0
LINE
8
1
10
-49.957
20
-169.214
11
-46.073
21
-170.585
0
LINE
8
1
10
-46.073
20
-170.585
11
-38.458
21
-170.585
0
LINE
8
1
10
-38.458
20
-170.585
11
-36.249
21
-169.595
0
LINE
8
1
10
-36.249
20
-169.595
11
-35.412
21
-169.062
0
LINE
8
1
10
-35.412
20
-169.062
11
-31.428
21
-175.798
0
LINE
8
1
10
-31.428
20
-175.798
11
-26.097
21
-185.698
0
LINE
8
1
10
-26.097
20
-185.698
11
-24.926
21
-187.456
0
LINE
8
1
10
-24.926
20
-187.456
11
-19.419
21
-193.431
0
LINE
8
1
10
-19.419
20
-193.431
11
-19.419
21
-194.954
0
LINE
8
1
10
-19.419
20
-194.954
11
-20.181
21
-195.715
0
LINE
8
1
10
-20.181
20
-195.715
11
-24.065
21
-197.772
0
LINE
8
1
10
-24.065
20
-197.772
11
-37.696
21
-201.808
0
LINE
8
1
10
-37.696
20
-201.808
11
-46.073
21
-201.808
0
LINE
8
1
10
-46.073
20
-201.808
11
-56.735
21
-197.238
0
LINE
8
1
10
-56.735
20
-197.238
11
-57.496
21
-196.477
0
LINE
8
1
10
-57.496
20
-196.477
11
-57.496
21
-194.954
0
LINE
8
1
10
-57.496
20
-194.954
11
-56.202
21
-191.832
0
LINE
8
1
10
-56.202
20
-191.832
11
-54.983
21
-188.176
0
LINE
8
1
10
-54.983
20
-188.176
11
-52.927
21
-172.869
0
LINE
8
1
10
-52.927
20
-172.869
11
-53.196
21
-171.279
0
LINE
8
1
10
-53.196
20
-171.279
11
-52.927
21
-169.062
0
LINE
8
1
10
-52.927
20
-169.062
11
-54.45
21
-156.877
0
LINE
8
1
10
-54.45
20
-156.877
11
-54.45
21
-153.069
0
LINE
8
1
10
-54.45
20
-153.069
11
-52.927
21
-147.738
0
LINE
8
1
10
-52.927
20
-147.738
11
-53.688
21
-146.215
0
LINE
8
1
10
-53.688
20
-146.215
11
-54.45
21
-145.454
0
LINE
8
1
10
-54.45
20
-145.454
11
-58.182
21
-144.464
0
LINE
8
1
10
-58.182
20
-144.464
11
-74.113
21
-136.894
0
LINE
8
1
10
-74.113
20
-136.894
11
-76.672
21
-134.975
0
LINE
8
1
10
-76.672
20
-134.975
11
-81.104
21
-130.985
0
LINE
8
1
10
-81.104
20
-130.985
11
-83.388
21
-130.223
0
LINE
8
1
10
-83.388
20
-130.223
11
-87.958
21
-125.654
0
LINE
8
1
10
-87.958
20
-125.654
11
-92.339
21
-120.162
0
LINE
8
1
10
-92.339
20
-120.162
11
-94.636
21
-116.398
0
LINE
8
1
10
-94.636
20
-116.398
11
-96.066
21
-113.402
0
LINE
8
1
10
-96.066
20
-113.402
11
-96.335
21
-111.185
0
LINE
8
1
10
-52.927
20
-147.738
11
-49.195
21
-149.414
0
LINE
8
1
10
-49.195
20
-149.414
11
-44.55
21
-150.785
0
LINE
8
1
10
-44.55
20
-150.785
11
-38.458
21
-150.023
0
LINE
8
1
10
-38.458
20
-150.023
11
-36.935
21
-148.5
0
LINE
8
1
10
-36.935
20
-148.5
11
-36.173
21
-149.262
0
LINE
8
1
10
-36.173
20
-149.262
11
-34.65
21
-168.3
0
LINE
8
1
10
-34.65
20
-168.3
11
-34.65
21
-169.062
0
LINE
8
1
10
-12.565
20
-160.685
11
-10.437
21
-158.974
0
LINE
8
1
10
-10.437
20
-158.974
11
-1.142
21
-151.546
0
LINE
8
1
10
-1.142
20
-151.546
11
3.239
21
-146.054
0
LINE
8
1
10
3.239
20
-146.054
11
8.575
21
-137.701
0
LINE
8
1
10
8.575
20
-137.701
11
13.327
21
-128.7
0
LINE
8
1
10
60.542
20
-169.062
11
67.396
21
-164.492
0
LINE
8
1
10
67.396
20
-164.492
11
68.919
21
-165.254
0
LINE
8
1
10
68.919
20
-165.254
11
67.087
21
-176.625
0
LINE
8
1
10
67.087
20
-176.625
11
66.635
21
-177.438
0
LINE
8
1
10
59.781
20
-169.062
11
57.679
21
-166.64
0
LINE
8
1
10
57.679
20
-166.64
11
56.125
21
-162.893
0
LINE
8
1
10
56.125
20
-162.893
11
50.033
21
-151.47
0
LINE
8
1
10
50.033
20
-151.47
11
47.596
21
-146.977
0
LINE
8
1
10
47.596
20
-146.977
11
45.312
21
-144.692
0
LINE
8
1
10
45.312
20
-144.692
11
45.312
21
-142.408
0
LINE
8
1
10
45.312
20
-142.408
11
44.55
21
-141.646
0
LINE
8
1
10
44.55
20
-141.646
11
42.951
21
-141.037
0
LINE
8
1
10
42.951
20
-141.037
11
27.796
21
-125.654
0
LINE
8
1
10
27.796
20
-125.654
11
26.197
21
-125.045
0
LINE
8
1
10
26.197
20
-125.045
11
17.82
21
-121.313
0
LINE
8
1
10
17.82
20
-121.313
11
16.373
21
-121.085
0
LINE
8
1
10
16.373
20
-121.085
11
15.992
21
-120.323
0
LINE
8
1
10
15.992
20
-120.323
11
22.618
21
-96.792
0
LINE
8
1
10
22.618
20
-96.792
11
23.227
21
-95.954
0
LINE
8
1
10
23.227
20
-95.954
11
22.958
21
-92.975
0
LINE
8
1
10
22.958
20
-92.975
11
21.475
21
-88.415
0
LINE
8
1
10
21.475
20
-88.415
11
18.239
21
-76.123
0
LINE
8
1
10
18.239
20
-76.123
11
15.612
21
-49.5
0
LINE
8
1
10
15.612
20
-49.5
11
14.381
21
-50.32
0
LINE
8
1
10
14.381
20
-50.32
11
11.804
21
-68.538
0
LINE
8
1
10
11.804
20
-68.538
11
11.804
21
-70.062
0
LINE
8
1
10
11.804
20
-70.062
11
11.042
21
-78.438
0
LINE
8
1
10
11.042
20
-78.438
11
11.042
21
-79.962
0
LINE
8
1
10
11.042
20
-79.962
11
9.066
21
-93.721
0
LINE
8
1
10
9.066
20
-93.721
11
8.449
21
-97.425
0
LINE
8
1
10
8.449
20
-97.425
11
5.559
21
-106.539
0
LINE
8
1
10
5.559
20
-106.539
11
2.818
21
-114.307
0
LINE
8
1
10
2.818
20
-114.307
11
-4.374
21
-124.744
0
LINE
8
1
10
-4.374
20
-124.744
11
-9.519
21
-130.985
0
LINE
8
1
10
-9.519
20
-130.985
11
-14.967
21
-134.617
0
LINE
8
1
10
-14.967
20
-134.617
11
-22.542
21
-139.209
0
LINE
8
1
10
-22.542
20
-139.209
11
-28.558
21
-141.646
0
LINE
8
1
10
-28.558
20
-141.646
11
-29.319
21
-141.646
0
LINE
8
1
10
72.727
20
-187.338
11
75.012
21
-185.815
0
LINE
8
1
10
75.012
20
-185.815
11
77.296
21
-186.577
0
LINE
8
1
10
77.296
20
-186.577
11
81.104
21
-190.385
0
LINE
8
1
10
81.104
20
-190.385
11
82.627
21
-194.192
0
LINE
8
1
10
82.627
20
-194.192
11
82.627
21
-194.954
0
LINE
8
1
10
68.158
20
-164.492
11
77.448
21
-153.907
0
LINE
8
1
10
77.448
20
-153.907
11
78.058
21
-153.069
0
LINE
8
1
10
78.058
20
-153.069
11
71.393
21
-145.283
0
LINE
8
1
10
71.393
20
-145.283
11
69.833
21
-142.332
0
LINE
8
1
10
69.833
20
-142.332
11
68.386
21
-139.285
0
LINE
8
1
10
68.386
20
-139.285
11
68.158
21
-137.838
0
LINE
8
1
10
68.158
20
-137.838
11
67.396
21
-137.077
0
LINE
8
1
10
67.396
20
-137.077
11
65.756
21
-138.424
0
LINE
8
1
10
65.756
20
-138.424
11
62.827
21
-140.123
0
LINE
8
1
10
62.827
20
-140.123
11
58.258
21
-140.123
0
LINE
8
1
10
58.258
20
-140.123
11
57.42
21
-139.514
0
LINE
8
1
10
57.42
20
-139.514
11
52.927
21
-135.554
0
LINE
8
1
10
52.927
20
-135.554
11
52.165
21
-134.031
0
LINE
8
1
10
52.165
20
-134.031
11
49.881
21
-135.554
0
LINE
8
1
10
49.881
20
-135.554
11
48.626
21
-143.998
0
LINE
8
1
10
48.626
20
-143.998
11
47.596
21
-146.977
0
LINE
8
1
10
-81.104
20
-130.985
11
-78.743
21
-129.614
0
LINE
8
1
10
-78.743
20
-129.614
11
-75.773
21
-127.938
0
LINE
8
1
10
-75.773
20
-127.938
11
-70.442
21
-122.608
0
LINE
8
1
10
-70.442
20
-122.608
11
-68.158
21
-119.562
0
LINE
8
1
10
-68.158
20
-119.562
11
-67.396
21
-118.8
0
LINE
8
1
10
-67.396
20
-118.8
11
-68.005
21
-117.201
0
LINE
8
1
10
-68.005
20
-117.201
11
-70.628
21
-114.379
0
LINE
8
1
10
-70.628
20
-114.379
11
-73.303
21
-111.036
0
LINE
8
1
10
-73.303
20
-111.036
11
-76.382
21
-105.778
0
LINE
8
1
10
-76.382
20
-105.778
11
-78.819
21
-100.523
0
LINE
8
1
10
-78.819
20
-100.523
11
-77.179
21
-99.176
0
LINE
8
1
10
-77.179
20
-99.176
11
-75.697
21
-98.467
0
LINE
8
1
10
-75.697
20
-98.467
11
-74.25
21
-98.238
0
LINE
8
1
10
-74.25
20
-98.238
11
-73.488
21
-97.477
0
LINE
8
1
10
-73.488
20
-97.477
11
-71.848
21
-96.13
0
LINE
8
1
10
-71.848
20
-96.13
11
-68.082
21
-93.822
0
LINE
8
1
10
-68.082
20
-93.822
11
-56.872
21
-86.633
0
LINE
8
1
10
-56.872
20
-86.633
11
-53.688
21
-84.531
0
LINE
8
1
10
-53.688
20
-84.531
11
-51.976
21
-82.414
0
LINE
8
1
10
-51.976
20
-82.414
11
-46.073
21
-75.392
0
LINE
8
1
10
-46.073
20
-75.392
11
-46.864
21
-74.216
0
LINE
8
1
10
-46.864
20
-74.216
11
-55.183
21
-73.523
0
LINE
8
1
10
-55.183
20
-73.523
11
-61.304
21
-71.585
0
LINE
8
1
10
-61.304
20
-71.585
11
-65.112
21
-67.777
0
LINE
8
1
10
-65.112
20
-67.777
11
-65.645
21
-66.178
0
LINE
8
1
10
-65.645
20
-66.178
11
-66.102
21
-64.807
0
LINE
8
1
10
-66.102
20
-64.807
11
-66.635
21
-63.969
0
LINE
8
1
10
-66.635
20
-63.969
11
-66.635
21
-62.446
0
LINE
8
1
10
-66.635
20
-62.446
11
-65.645
21
-60.238
0
LINE
8
1
10
-65.645
20
-60.238
11
-65.264
21
-59.324
0
LINE
8
1
10
-65.264
20
-59.324
11
-62.827
21
-56.354
0
LINE
8
1
10
-62.827
20
-56.354
11
-61.228
21
-55.745
0
LINE
8
1
10
-61.228
20
-55.745
11
-57.42
21
-54.298
0
LINE
8
1
10
-57.42
20
-54.298
11
-44.702
21
-50.718
0
LINE
8
1
10
-44.702
20
-50.718
11
-39.981
21
-47.977
0
LINE
8
1
10
-39.981
20
-47.977
11
-38.458
21
-36.554
0
LINE
8
1
10
-38.458
20
-36.554
11
-39.219
21
-35.792
0
LINE
8
1
10
-39.219
20
-35.792
11
-39.981
21
-35.031
0
LINE
8
1
10
-39.981
20
-35.031
11
-41.58
21
-34.422
0
LINE
8
1
10
-41.58
20
-34.422
11
-47.596
21
-28.938
0
LINE
8
1
10
-47.596
20
-28.938
11
-48.129
21
-27.339
0
LINE
8
1
10
-48.129
20
-27.339
11
-49.119
21
-25.131
0
LINE
8
1
10
-49.119
20
-25.131
11
-49.119
21
-19.038
0
LINE
8
1
10
-49.119
20
-19.038
11
-47.748
21
-16.678
0
LINE
8
1
10
-47.748
20
-16.678
11
-43.788
21
-12.946
0
LINE
8
1
10
-43.788
20
-12.946
11
-43.027
21
-12.185
0
LINE
8
1
10
-43.027
20
-12.185
11
-43.027
21
-8.377
0
LINE
8
1
10
-43.027
20
-8.377
11
-44.55
21
-6.854
0
LINE
8
1
10
-44.55
20
-6.854
11
-49.119
21
-10.662
0
LINE
8
1
10
-49.119
20
-10.662
11
-55.212
21
-12.185
0
LINE
8
1
10
-55.212
20
-12.185
11
-58.258
21
-12.185
0
LINE
8
1
10
-58.258
20
-12.185
11
-64.426
21
-10.89
0
LINE
8
1
10
-64.426
20
-10.89
11
-69.681
21
-9.138
0
LINE
8
1
10
-69.681
20
-9.138
11
-71.965
21
-6.854
0
LINE
8
1
10
-71.965
20
-6.854
11
-75.597
21
-1.406
0
LINE
8
1
10
-75.597
20
-1.406
11
-77.296
21
2.285
0
LINE
8
1
10
-77.296
20
2.285
11
-75.773
21
3.808
0
LINE
8
1
10
-75.773
20
3.808
11
-69.681
21
4.569
0
LINE
8
1
10
-69.681
20
4.569
11
-68.082
21
5.178
0
LINE
8
1
10
-68.082
20
5.178
11
-62.827
21
9.9
0
LINE
8
1
10
-62.827
20
9.9
11
-60.725
21
13.083
0
LINE
8
1
10
-60.725
20
13.083
11
-59.781
21
14.469
0
LINE
8
1
10
-59.781
20
14.469
11
-63.588
21
18.277
0
LINE
8
1
10
-63.588
20
18.277
11
-71.38
21
27.298
0
LINE
8
1
10
-71.38
20
27.298
11
-72.551
21
29.056
0
LINE
8
1
10
-72.551
20
29.056
11
-75.545
21
35.107
0
LINE
8
1
10
-75.545
20
35.107
11
-78.058
21
43.408
0
LINE
8
1
10
-78.058
20
43.408
11
-90.242
21
32.746
0
LINE
8
1
10
-90.242
20
32.746
11
-89.75
21
31.156
0
LINE
8
1
10
-89.75
20
31.156
11
-87.958
21
22.846
0
LINE
8
1
10
-87.958
20
22.846
11
-87.958
21
6.854
0
LINE
8
1
10
-87.958
20
6.854
11
-89.161
21
-0.046
0
LINE
8
1
10
-89.161
20
-0.046
11
-91.313
21
-11.372
0
LINE
8
1
10
-91.313
20
-11.372
11
-98.467
21
-29.015
0
LINE
8
1
10
-98.467
20
-29.015
11
-101.665
21
-34.269
0
LINE
8
1
10
-101.665
20
-34.269
11
-105.473
21
-34.269
0
LINE
8
1
10
-105.473
20
-34.269
11
-106.302
21
-33.776
0
LINE
8
1
10
-106.302
20
-33.776
11
-108.452
21
-33.239
0
LINE
8
1
10
-108.452
20
-33.239
11
-112.327
21
-31.223
0
LINE
8
1
10
-112.327
20
-31.223
11
-116.058
21
-30.309
0
LINE
8
1
10
-116.058
20
-30.309
11
-116.896
21
-29.7
0
LINE
8
1
10
-116.896
20
-29.7
11
-117.658
21
-28.938
0
LINE
8
1
10
-117.658
20
-28.938
11
-129.842
21
-20.562
0
LINE
8
1
10
-129.842
20
-20.562
11
-132.127
21
-18.277
0
LINE
8
1
10
-132.127
20
-18.277
11
-136.544
21
-10.585
0
LINE
8
1
10
-136.544
20
-10.585
11
-138.219
21
-7.615
0
LINE
8
1
10
-138.219
20
-7.615
11
-138.219
21
-6.092
0
LINE
8
1
10
-138.219
20
-6.092
11
-137.458
21
-5.331
0
LINE
8
1
10
-137.458
20
-5.331
11
-133.815
21
-2.857
0
LINE
8
1
10
-133.815
20
-2.857
11
-128.319
21
2.285
0
LINE
8
1
10
-128.319
20
2.285
11
-126.872
21
3.96
0
LINE
8
1
10
-126.872
20
3.96
11
-126.035
21
4.569
0
LINE
8
1
10
-126.035
20
4.569
11
-125.045
21
2.361
0
LINE
8
1
10
-125.045
20
2.361
11
-122.051
21
-3.691
0
LINE
8
1
10
-122.051
20
-3.691
11
-120.514
21
-5.916
0
LINE
8
1
10
-120.514
20
-5.916
11
-110.804
21
-15.992
0
LINE
8
1
10
-110.804
20
-15.992
11
-109.281
21
-15.992
0
LINE
8
1
10
-109.281
20
-15.992
11
-107.933
21
-14.352
0
LINE
8
1
10
-107.933
20
-14.352
11
-106.463
21
-11.347
0
LINE
8
1
10
-106.463
20
-11.347
11
-106.006
21
-9.976
0
LINE
8
1
10
-106.006
20
-9.976
11
-98.928
21
13.759
0
LINE
8
1
10
-98.928
20
13.759
11
-96.335
21
28.938
0
LINE
8
1
10
-96.335
20
28.938
11
-100.904
21
31.985
0
LINE
8
1
10
-100.904
20
31.985
11
-101.665
21
31.223
0
LINE
8
1
10
-101.665
20
31.223
11
-103.036
21
26.578
0
LINE
8
1
10
-103.036
20
26.578
11
-107.94
21
16.891
0
LINE
8
1
10
-107.94
20
16.891
11
-111.565
21
12.185
0
LINE
8
1
10
-51.404
20
-131.746
11
-51.872
21
-132.566
0
LINE
8
1
10
-51.872
20
-132.566
11
-52.584
21
-136.347
0
LINE
8
1
10
-52.584
20
-136.347
11
-53.27
21
-143.9
0
LINE
8
1
10
-53.27
20
-143.9
11
-53.688
21
-144.692
0
LINE
8
1
10
-53.688
20
-144.692
11
-53.688
21
-145.454
0
LINE
8
1
10
-52.165
20
-130.223
11
-55.329
21
-128.876
0
LINE
8
1
10
-55.329
20
-128.876
11
-59.62
21
-126.227
0
LINE
8
1
10
-59.62
20
-126.227
11
-67.396
21
-119.562
0
LINE
8
1
10
-67.396
20
-118.038
11
-65.112
21
-115.754
0
LINE
8
1
10
-65.112
20
-115.754
11
-59.781
21
-121.085
0
LINE
8
1
10
-59.781
20
-121.085
11
-53.765
21
-124.283
0
LINE
8
1
10
-53.765
20
-124.283
11
-50.642
21
-125.654
0
LINE
8
1
10
-34.65
20
-133.269
11
-36.173
21
-147.738
0
LINE
8
1
10
-36.173
20
-147.738
11
-36.173
21
-148.5
0
LINE
8
1
10
-30.081
20
-136.315
11
-24.674
21
-135.706
0
LINE
8
1
10
-24.674
20
-135.706
11
-20.318
21
-133.848
0
LINE
8
1
10
-20.318
20
-133.848
11
-17.135
21
-131.746
0
LINE
8
1
10
-17.135
20
-131.746
11
-9.519
21
-124.131
0
LINE
8
1
10
-9.519
20
-124.131
11
-2.513
21
-113.545
0
LINE
8
1
10
-2.513
20
-113.545
11
1.371
21
-104.407
0
LINE
8
1
10
1.371
20
-104.407
11
1.752
21
-103.493
0
LINE
8
1
10
1.752
20
-103.493
11
8.758
21
-79.2
0
LINE
8
1
10
8.758
20
-79.2
11
-0.381
21
-70.823
0
LINE
8
1
10
-0.381
20
-70.823
11
-1.904
21
-70.823
0
LINE
8
1
10
-1.904
20
-70.823
11
-2.665
21
-74.631
0
LINE
8
1
10
-2.665
20
-74.631
11
-5.712
21
-77.677
0
LINE
8
1
10
-5.712
20
-77.677
11
-7.996
21
-78.438
0
LINE
8
1
10
-7.996
20
-78.438
11
-11.042
21
-77.677
0
LINE
8
1
10
-11.042
20
-77.677
11
-12.565
21
-75.392
0
LINE
8
1
10
-12.565
20
-75.392
11
-12.565
21
-73.869
0
LINE
8
1
10
-12.565
20
-73.869
11
-12.097
21
-73.049
0
LINE
8
1
10
-12.097
20
-73.049
11
-11.804
21
-70.062
0
LINE
8
1
10
-11.804
20
-70.062
11
-8.225
21
-63.893
0
LINE
8
1
10
-8.225
20
-63.893
11
-7.996
21
-62.446
0
LINE
8
1
10
16.373
20
-121.085
11
15.764
21
-121.922
0
LINE
8
1
10
15.764
20
-121.922
11
15.231
21
-123.369
0
LINE
8
1
10
15.231
20
-123.369
11
15.612
21
-124.131
0
LINE
8
1
10
15.612
20
-124.131
11
15.612
21
-124.892
0
LINE
8
1
10
27.796
20
-125.654
11
28.124
21
-119.603
0
LINE
8
1
10
28.124
20
-119.603
11
29.091
21
-111.108
0
LINE
8
1
10
29.091
20
-111.108
11
30.842
21
-108.138
0
LINE
8
1
10
30.842
20
-108.138
11
41.504
21
-121.846
0
LINE
8
1
10
41.504
20
-121.846
11
43.788
21
-124.131
0
LINE
8
1
10
43.788
20
-124.131
11
48.358
21
-130.223
0
LINE
8
1
10
48.358
20
-130.223
11
47.596
21
-130.985
0
LINE
8
1
10
47.596
20
-130.985
11
45.312
21
-141.646
0
LINE
8
1
10
51.404
20
-134.031
11
49.119
21
-130.985
0
LINE
8
1
10
49.119
20
-130.985
11
48.358
21
-130.985
0
LINE
8
1
10
68.158
20
-137.077
11
76.345
21
-128.526
0
LINE
8
1
10
76.345
20
-128.526
11
78.058
21
-125.654
0
LINE
8
1
10
78.058
20
-125.654
11
81.865
21
-121.085
0
LINE
8
1
10
81.865
20
-121.085
11
84.15
21
-122.608
0
LINE
8
1
10
84.15
20
-122.608
11
83.388
21
-124.131
0
LINE
8
1
10
83.388
20
-124.131
11
84.912
21
-128.7
0
LINE
8
1
10
84.912
20
-128.7
11
84.15
21
-130.223
0
LINE
8
1
10
84.15
20
-130.223
11
84.15
21
-133.269
0
LINE
8
1
10
84.15
20
-133.269
11
84.759
21
-134.107
0
LINE
8
1
10
84.759
20
-134.107
11
85.673
21
-135.554
0
LINE
8
1
10
85.673
20
-135.554
11
84.912
21
-137.077
0
LINE
8
1
10
84.912
20
-137.077
11
86.166
21
-143.236
0
LINE
8
1
10
86.166
20
-143.236
11
88.948
21
-151.47
0
LINE
8
1
10
88.948
20
-151.47
11
89.328
21
-152.384
0
LINE
8
1
10
89.328
20
-152.384
11
90.242
21
-154.592
0
LINE
8
1
10
90.242
20
-154.592
11
91.765
21
-156.115
0
LINE
8
1
10
91.765
20
-156.115
11
93.288
21
-156.115
0
LINE
8
1
10
93.288
20
-156.115
11
100.828
21
-152.917
0
LINE
8
1
10
100.828
20
-152.917
11
103.874
21
-151.394
0
LINE
8
1
10
103.874
20
-151.394
11
117.658
21
-141.646
0
LINE
8
1
10
117.658
20
-141.646
11
119.028
21
-139.285
0
LINE
8
1
10
119.028
20
-139.285
11
119.181
21
-137.838
0
LINE
8
1
10
119.181
20
-137.838
11
105.473
21
-123.369
0
LINE
8
1
10
105.473
20
-123.369
11
102.427
21
-117.277
0
LINE
8
1
10
102.427
20
-117.277
11
101.052
21
-118.224
0
LINE
8
1
10
101.052
20
-118.224
11
88.836
21
-127.353
0
LINE
8
1
10
88.836
20
-127.353
11
87.044
21
-128.395
0
LINE
8
1
10
87.044
20
-128.395
11
85.673
21
-128.7
0
LINE
8
1
10
85.673
20
-128.7
11
84.912
21
-128.7
0
LINE
8
1
10
78.058
20
-125.654
11
75.012
21
-122.608
0
LINE
8
1
10
75.012
20
-122.608
11
72.727
21
-122.608
0
LINE
8
1
10
72.727
20
-122.608
11
60.542
21
-114.231
0
LINE
8
1
10
60.542
20
-114.231
11
59.019
21
-111.946
0
LINE
8
1
10
59.019
20
-111.946
11
57.496
21
-113.469
0
LINE
8
1
10
57.496
20
-113.469
11
52.927
21
-118.038
0
LINE
8
1
10
52.927
20
-118.038
11
47.713
21
-121.26
0
LINE
8
1
10
47.713
20
-121.26
11
43.788
21
-124.131
0
LINE
8
1
10
85.673
20
-135.554
11
89.557
21
-134.183
0
LINE
8
1
10
89.557
20
-134.183
11
98.482
21
-128.517
0
LINE
8
1
10
98.482
20
-128.517
11
105.473
21
-123.369
0
LINE
8
1
10
105.473
20
-123.369
11
107.758
21
-121.085
0
LINE
8
1
10
107.758
20
-121.085
11
116.135
21
-112.708
0
LINE
8
1
10
116.135
20
-112.708
11
118.995
21
-108.751
0
LINE
8
1
10
118.995
20
-108.751
11
122.075
21
-103.493
0
LINE
8
1
10
122.075
20
-103.493
11
123.75
21
-100.523
0
LINE
8
1
10
123.75
20
-100.523
11
128.202
21
-102.983
0
LINE
8
1
10
128.202
20
-102.983
11
135.097
21
-106.768
0
LINE
8
1
10
135.097
20
-106.768
11
137.458
21
-107.377
0
LINE
8
1
10
137.458
20
-107.377
11
138.219
21
-108.138
0
LINE
8
1
10
138.219
20
-108.138
11
138.219
21
-109.662
0
LINE
8
1
10
138.219
20
-109.662
11
133.041
21
-120.399
0
LINE
8
1
10
133.041
20
-120.399
11
125.273
21
-133.269
0
LINE
8
1
10
125.273
20
-133.269
11
120.704
21
-137.838
0
LINE
8
1
10
120.704
20
-137.838
11
119.181
21
-137.838
0
LINE
8
1
10
-78.819
20
-100.523
11
-81.942
21
-101.894
0
LINE
8
1
10
-81.942
20
-101.894
11
-90.937
21
-105.361
0
LINE
8
1
10
-90.937
20
-105.361
11
-95.573
21
-106.615
0
LINE
8
1
10
-73.488
20
-98.238
11
-72.118
21
-103.645
0
LINE
8
1
10
-72.118
20
-103.645
11
-70.267
21
-108.021
0
LINE
8
1
10
-70.267
20
-108.021
11
-65.873
21
-114.231
0
LINE
8
1
10
-65.873
20
-114.231
11
-65.112
21
-114.992
0
LINE
8
1
10
-65.112
20
-114.992
11
-65.112
21
-115.754
0
LINE
8
1
10
-65.112
20
-114.231
11
-62.248
21
-111.809
0
LINE
8
1
10
-62.248
20
-111.809
11
-45.312
21
-89.1
0
LINE
8
1
10
-45.312
20
-89.1
11
-43.788
21
-89.1
0
LINE
8
1
10
23.227
20
-95.954
11
25.336
21
-97.594
0
LINE
8
1
10
25.336
20
-97.594
11
29.852
21
-105.93
0
LINE
8
1
10
29.852
20
-105.93
11
30.842
21
-108.138
0
LINE
8
1
10
41.504
20
-121.846
11
49.881
21
-115.754
0
LINE
8
1
10
49.881
20
-115.754
11
49.881
21
-114.231
0
LINE
8
1
10
49.881
20
-114.231
11
42.455
21
-107.207
0
LINE
8
1
10
42.455
20
-107.207
11
37.11
21
-98.121
0
LINE
8
1
10
37.11
20
-98.121
11
34.878
21
-93.593
0
LINE
8
1
10
34.878
20
-93.593
11
31.071
21
-82.932
0
LINE
8
1
10
31.071
20
-82.932
11
28.866
21
-73.056
0
LINE
8
1
10
28.866
20
-73.056
11
27.503
21
-65.551
0
LINE
8
1
10
27.503
20
-65.551
11
25.512
21
-55.592
0
LINE
8
1
10
25.512
20
-55.592
11
25.512
21
-31.223
0
LINE
8
1
10
25.512
20
-31.223
11
26.273
21
-30.462
0
LINE
8
1
10
26.273
20
-30.462
11
26.273
21
-11.423
0
LINE
8
1
10
26.273
20
-11.423
11
23.639
21
28.15
0
LINE
8
1
10
23.639
20
28.15
11
22.131
21
40.324
0
LINE
8
1
10
22.131
20
40.324
11
21.475
21
42.57
0
LINE
8
1
10
21.475
20
42.57
11
20.181
21
47.215
0
LINE
8
1
10
20.181
20
47.215
11
17.135
21
50.262
0
LINE
8
1
10
17.135
20
50.262
11
16.373
21
49.5
0
LINE
8
1
10
16.373
20
49.5
11
16.906
21
45.616
0
LINE
8
1
10
16.906
20
45.616
11
18.658
21
36.554
0
LINE
8
1
10
18.658
20
36.554
11
18.658
21
15.231
0
LINE
8
1
10
18.658
20
15.231
11
18.125
21
14.393
0
LINE
8
1
10
18.125
20
14.393
11
17.896
21
12.946
0
LINE
8
1
10
17.896
20
12.946
11
17.896
21
11.423
0
LINE
8
1
10
17.896
20
11.423
11
17.896
21
9.9
0
LINE
8
1
10
17.896
20
9.9
11
18.658
21
9.138
0
LINE
8
1
10
18.658
20
9.138
11
17.135
21
-0.762
0
LINE
8
1
10
17.135
20
-0.762
11
17.135
21
-2.285
0
LINE
8
1
10
17.135
20
-2.285
11
17.135
21
-29.7
0
LINE
8
1
10
17.135
20
-29.7
11
17.135
21
-31.223
0
LINE
8
1
10
17.135
20
-31.223
11
17.135
21
-33.508
0
LINE
8
1
10
17.135
20
-33.508
11
16.373
21
-34.269
0
LINE
8
1
10
16.373
20
-34.269
11
16.373
21
-44.931
0
LINE
8
1
10
16.373
20
-44.931
11
15.612
21
-45.692
0
LINE
8
1
10
15.612
20
-45.692
11
15.612
21
-48.738
0
LINE
8
1
10
15.612
20
-48.738
11
15.612
21
-49.5
0
LINE
8
1
10
58.258
20
-111.185
11
59.019
21
-111.185
0
LINE
8
1
10
59.019
20
-111.185
11
63.003
21
-105.971
0
LINE
8
1
10
63.003
20
-105.971
11
67.244
21
-98.924
0
LINE
8
1
10
67.244
20
-98.924
11
68.919
21
-95.192
0
LINE
8
1
10
68.919
20
-95.192
11
69.681
21
-94.431
0
LINE
8
1
10
69.681
20
-94.431
11
77.296
21
-96.715
0
LINE
8
1
10
77.296
20
-96.715
11
81.104
21
-98.238
0
LINE
8
1
10
81.104
20
-98.238
11
82.627
21
-98.238
0
LINE
8
1
10
82.627
20
-98.238
11
88.719
21
-98.238
0
LINE
8
1
10
88.719
20
-98.238
11
89.481
21
-99.0
0
LINE
8
1
10
89.481
20
-99.0
11
88.948
21
-103.645
0
LINE
8
1
10
88.948
20
-103.645
11
84.302
21
-115.83
0
LINE
8
1
10
84.302
20
-115.83
11
82.627
21
-118.038
0
LINE
8
1
10
82.627
20
-118.038
11
82.627
21
-120.323
0
LINE
8
1
10
82.627
20
-120.323
11
82.627
21
-121.085
0
LINE
8
1
10
49.881
20
-114.231
11
55.973
21
-109.662
0
LINE
8
1
10
55.973
20
-109.662
11
55.973
21
-108.138
0
LINE
8
1
10
55.973
20
-108.138
11
52.353
21
-104.175
0
LINE
8
1
10
52.353
20
-104.175
11
50.818
21
-101.929
0
LINE
8
1
10
50.818
20
-101.929
11
48.51
21
-97.401
0
LINE
8
1
10
48.51
20
-97.401
11
47.444
21
-95.268
0
LINE
8
1
10
47.444
20
-95.268
11
44.017
21
-89.785
0
LINE
8
1
10
44.017
20
-89.785
11
39.752
21
-78.515
0
LINE
8
1
10
39.752
20
-78.515
11
37.243
21
-66.964
0
LINE
8
1
10
37.243
20
-66.964
11
36.626
21
-63.259
0
LINE
8
1
10
36.626
20
-63.259
11
35.788
21
-56.349
0
LINE
8
1
10
35.788
20
-56.349
11
35.036
21
3.803
0
LINE
8
1
10
35.036
20
3.803
11
34.303
21
12.917
0
LINE
8
1
10
34.303
20
12.917
11
32.818
21
26.602
0
LINE
8
1
10
32.818
20
26.602
11
30.995
21
34.345
0
LINE
8
1
10
30.995
20
34.345
11
29.472
21
38.153
0
LINE
8
1
10
29.472
20
38.153
11
28.372
21
40.213
0
LINE
8
1
10
28.372
20
40.213
11
25.697
21
43.556
0
LINE
8
1
10
25.697
20
43.556
11
21.704
21
47.977
0
LINE
8
1
10
21.704
20
47.977
11
20.181
21
47.977
0
LINE
8
1
10
55.973
20
-109.662
11
58.258
21
-111.185
0
LINE
8
1
10
58.258
20
-111.185
11
58.258
21
-111.946
0
LINE
8
1
10
55.973
20
-108.138
11
58.836
21
-105.717
0
LINE
8
1
10
58.836
20
-105.717
11
66.635
21
-92.908
0
LINE
8
1
10
66.635
20
-92.908
11
66.635
21
-91.385
0
LINE
8
1
10
66.635
20
-91.385
11
59.97
21
-84.36
0
LINE
8
1
10
59.97
20
-84.36
11
55.212
21
-76.915
0
LINE
8
1
10
55.212
20
-76.915
11
53.864
21
-74.514
0
LINE
8
1
10
53.864
20
-74.514
11
53.155
21
-73.032
0
LINE
8
1
10
53.155
20
-73.032
11
52.927
21
-71.585
0
LINE
8
1
10
52.927
20
-71.585
11
51.175
21
-68.615
0
LINE
8
1
10
51.175
20
-68.615
11
50.262
21
-65.492
0
LINE
8
1
10
50.262
20
-65.492
11
50.642
21
-63.969
0
LINE
8
1
10
50.642
20
-63.969
11
49.881
21
-63.208
0
LINE
8
1
10
49.881
20
-63.208
11
48.891
21
-60.999
0
LINE
8
1
10
48.891
20
-60.999
11
47.596
21
-57.877
0
LINE
8
1
10
47.596
20
-57.877
11
47.596
21
-56.354
0
LINE
8
1
10
47.596
20
-56.354
11
48.358
21
-55.592
0
LINE
8
1
10
48.358
20
-55.592
11
47.596
21
-54.831
0
LINE
8
1
10
47.596
20
-54.831
11
47.103
21
-54.002
0
LINE
8
1
10
47.103
20
-54.002
11
44.859
21
-44.118
0
LINE
8
1
10
44.859
20
-44.118
11
44.55
21
-40.362
0
LINE
8
1
10
44.55
20
-40.362
11
44.108
21
-38.793
0
LINE
8
1
10
44.108
20
-38.793
11
43.469
21
-34.315
0
LINE
8
1
10
43.469
20
-34.315
11
43.027
21
-33.508
0
LINE
8
1
10
43.027
20
-33.508
11
43.027
21
-26.654
0
LINE
8
1
10
43.027
20
-26.654
11
43.788
21
-25.892
0
LINE
8
1
10
43.788
20
-25.892
11
43.496
21
-22.143
0
LINE
8
1
10
43.496
20
-22.143
11
42.625
21
-19.781
0
LINE
8
1
10
42.625
20
-19.781
11
41.906
21
-6.111
0
LINE
8
1
10
41.906
20
-6.111
11
40.403
21
11.389
0
LINE
8
1
10
40.403
20
11.389
11
39.981
21
12.185
0
LINE
8
1
10
39.981
20
12.185
11
39.981
21
13.708
0
LINE
8
1
10
39.981
20
13.708
11
40.742
21
15.231
0
LINE
8
1
10
40.742
20
15.231
11
40.209
21
16.83
0
LINE
8
1
10
40.209
20
16.83
11
37.965
21
26.721
0
LINE
8
1
10
37.965
20
26.721
11
32.975
21
41.047
0
LINE
8
1
10
32.975
20
41.047
11
32.518
21
41.961
0
LINE
8
1
10
32.518
20
41.961
11
29.898
21
46.317
0
LINE
8
1
10
29.898
20
46.317
11
27.796
21
48.738
0
LINE
8
1
10
27.796
20
48.738
11
27.035
21
49.5
0
LINE
8
1
10
27.035
20
49.5
11
23.988
21
51.785
0
LINE
8
1
10
23.988
20
51.785
11
20.942
21
52.546
0
LINE
8
1
10
20.942
20
52.546
11
18.658
21
52.546
0
LINE
8
1
10
18.658
20
52.546
11
17.135
21
51.023
0
LINE
8
1
10
17.135
20
51.023
11
17.135
21
50.262
0
LINE
8
1
10
81.865
20
-98.238
11
81.865
21
-90.623
0
LINE
8
1
10
81.865
20
-90.623
11
81.104
21
-89.862
0
LINE
8
1
10
81.104
20
-89.862
11
83.16
21
-81.408
0
LINE
8
1
10
83.16
20
-81.408
11
85.404
21
-73.04
0
LINE
8
1
10
85.404
20
-73.04
11
87.958
21
-60.162
0
LINE
8
1
10
87.958
20
-60.162
11
89.922
21
-64.776
0
LINE
8
1
10
89.922
20
-64.776
11
93.02
21
-85.36
0
LINE
8
1
10
93.02
20
-85.36
11
94.583
21
-91.461
0
LINE
8
1
10
94.583
20
-91.461
11
97.705
21
-99.838
0
LINE
8
1
10
97.705
20
-99.838
11
99.152
21
-103.645
0
LINE
8
1
10
99.152
20
-103.645
11
102.579
21
-111.108
0
LINE
8
1
10
102.579
20
-111.108
11
104.712
21
-114.231
0
LINE
8
1
10
104.712
20
-114.231
11
102.427
21
-117.277
0
LINE
8
1
10
78.058
20
-96.715
11
80.342
21
-89.862
0
LINE
8
1
10
80.342
20
-89.862
11
81.104
21
-89.862
0
LINE
8
1
10
68.919
20
-94.431
11
68.919
21
-92.908
0
LINE
8
1
10
68.919
20
-92.908
11
68.158
21
-92.146
0
LINE
8
1
10
68.158
20
-92.146
11
66.635
21
-92.146
0
LINE
8
1
10
68.919
20
-92.146
11
69.412
21
-91.317
0
LINE
8
1
10
69.412
20
-91.317
11
70.895
21
-82.195
0
LINE
8
1
10
70.895
20
-82.195
11
71.204
21
-78.438
0
LINE
8
1
10
71.204
20
-78.438
11
70.442
21
-77.677
0
LINE
8
1
10
70.442
20
-77.677
11
63.622
21
-77.338
0
LINE
8
1
10
63.622
20
-77.338
11
55.973
21
-76.154
0
LINE
8
1
10
55.973
20
-76.154
11
55.212
21
-76.154
0
LINE
8
1
10
87.958
20
-60.162
11
88.278
21
-54.876
0
LINE
8
1
10
88.278
20
-54.876
11
88.719
21
-54.069
0
LINE
8
1
10
88.719
20
-54.069
11
87.958
21
-52.546
0
LINE
8
1
10
87.958
20
-52.546
11
87.958
21
-45.692
0
LINE
8
1
10
87.958
20
-45.692
11
88.719
21
-44.931
0
LINE
8
1
10
88.719
20
-44.931
11
89.481
21
-44.169
0
LINE
8
1
10
89.481
20
-44.169
11
97.096
21
-46.454
0
LINE
8
1
10
97.096
20
-46.454
11
98.35
21
-52.613
0
LINE
8
1
10
98.35
20
-52.613
11
100.752
21
-60.999
0
LINE
8
1
10
100.752
20
-60.999
11
102.275
21
-64.807
0
LINE
8
1
10
102.275
20
-64.807
11
111.39
21
-82.363
0
LINE
8
1
10
111.39
20
-82.363
11
112.479
21
-84.455
0
LINE
8
1
10
112.479
20
-84.455
11
117.079
21
-92.009
0
LINE
8
1
10
117.079
20
-92.009
11
119.942
21
-95.954
0
LINE
8
1
10
119.942
20
-95.954
11
119.942
21
-97.477
0
LINE
8
1
10
119.942
20
-97.477
11
118.243
21
-99.644
0
LINE
8
1
10
118.243
20
-99.644
11
111.565
21
-108.9
0
LINE
8
1
10
111.565
20
-108.9
11
105.473
21
-114.231
0
LINE
8
1
10
105.473
20
-114.231
11
104.712
21
-114.231
0
LINE
8
1
10
119.942
20
-96.715
11
123.75
21
-99.762
0
LINE
8
1
10
123.75
20
-99.762
11
123.75
21
-100.523
0
LINE
8
1
10
-30.081
20
-86.054
11
-28.886
21
-79.921
0
LINE
8
1
10
-28.886
20
-79.921
11
-28.558
21
-74.631
0
LINE
8
1
10
-28.558
20
-74.631
11
-29.353
21
-74.209
0
LINE
8
1
10
-29.353
20
-74.209
11
-36.139
21
-73.53
0
LINE
8
1
10
-36.139
20
-73.53
11
-37.62
21
-72.955
0
LINE
8
1
10
-37.62
20
-72.955
11
-39.219
21
-72.346
0
LINE
8
1
10
-39.219
20
-72.346
11
-40.742
21
-73.108
0
LINE
8
1
10
-40.742
20
-73.108
11
-41.504
21
-72.346
0
LINE
8
1
10
-41.504
20
-72.346
11
-43.671
21
-73.283
0
LINE
8
1
10
-43.671
20
-73.283
11
-45.312
21
-74.631
0
LINE
8
1
10
-45.312
20
-74.631
11
-46.073
21
-74.631
0
LINE
8
1
10
-40.742
20
-73.108
11
-42.265
21
-83.008
0
LINE
8
1
10
-42.265
20
-83.008
11
-42.265
21
-83.769
0
LINE
8
1
10
-28.558
20
-74.631
11
-26.273
21
-70.823
0
LINE
8
1
10
-26.273
20
-70.823
11
-25.512
21
-63.208
0
LINE
8
1
10
-25.512
20
-63.208
11
-23.988
21
-61.685
0
LINE
8
1
10
-23.988
20
-61.685
11
-24.75
21
-60.162
0
LINE
8
1
10
-24.75
20
-60.162
11
-21.997
21
-48.68
0
LINE
8
1
10
-21.997
20
-48.68
11
-21.704
21
-45.692
0
LINE
8
1
10
-21.704
20
-45.692
11
-23.227
21
-35.031
0
LINE
8
1
10
-23.227
20
-35.031
11
-23.988
21
-34.269
0
LINE
8
1
10
-23.988
20
-34.269
11
-28.585
21
-35.443
0
LINE
8
1
10
-28.585
20
-35.443
11
-37.696
21
-35.792
0
LINE
8
1
10
-37.696
20
-35.792
11
-38.458
21
-35.792
0
LINE
8
1
10
-39.981
20
-47.977
11
-39.219
21
-48.738
0
LINE
8
1
10
-39.219
20
-48.738
11
-39.219
21
-55.592
0
LINE
8
1
10
-39.219
20
-55.592
11
-39.981
21
-56.354
0
LINE
8
1
10
-39.981
20
-56.354
11
-44.626
21
-58.486
0
LINE
8
1
10
-44.626
20
-58.486
11
-46.835
21
-59.4
0
LINE
8
1
10
-46.835
20
-59.4
11
-49.881
21
-62.446
0
LINE
8
1
10
-49.881
20
-62.446
11
-48.358
21
-63.969
0
LINE
8
1
10
-48.358
20
-63.969
11
-44.55
21
-63.969
0
LINE
8
1
10
-44.55
20
-63.969
11
-39.981
21
-59.4
0
LINE
8
1
10
-39.981
20
-59.4
11
-39.219
21
-60.162
0
LINE
8
1
10
-39.219
20
-60.162
11
-39.981
21
-71.585
0
LINE
8
1
10
-39.981
20
-71.585
11
-39.981
21
-72.346
0
LINE
8
1
10
-39.219
20
-59.4
11
-39.219
21
-57.115
0
LINE
8
1
10
-39.219
20
-57.115
11
-39.219
21
-56.354
0
LINE
8
1
10
-26.273
20
-70.823
11
-20.942
21
-72.346
0
LINE
8
1
10
-20.942
20
-72.346
11
-18.658
21
-72.346
0
LINE
8
1
10
-18.658
20
-72.346
11
-14.926
21
-70.671
0
LINE
8
1
10
-14.926
20
-70.671
11
-12.565
21
-69.681
0
LINE
8
1
10
-12.565
20
-69.681
11
-11.804
21
-70.062
0
LINE
8
1
10
-16.373
20
-60.162
11
-19.471
21
-61.376
0
LINE
8
1
10
-19.471
20
-61.376
11
-23.227
21
-61.685
0
LINE
8
1
10
-23.227
20
-61.685
11
-23.988
21
-61.685
0
LINE
8
1
10
-12.565
20
-56.354
11
-11.956
21
-54.755
0
LINE
8
1
10
-11.956
20
-54.755
11
-7.768
21
-45.768
0
LINE
8
1
10
-7.768
20
-45.768
11
-7.235
21
-43.408
0
LINE
8
1
10
-7.235
20
-43.408
11
-9.546
21
-41.472
0
LINE
8
1
10
-9.546
20
-41.472
11
-18.658
21
-41.123
0
LINE
8
1
10
-18.658
20
-41.123
11
-19.419
21
-41.885
0
LINE
8
1
10
-19.419
20
-41.885
11
-19.419
21
-43.408
0
LINE
8
1
10
-19.419
20
-43.408
11
-20.942
21
-44.931
0
LINE
8
1
10
-20.942
20
-44.931
11
-21.704
21
-44.931
0
LINE
8
1
10
8.758
20
-79.2
11
10.281
21
-79.2
0
LINE
8
1
10
10.281
20
-79.2
11
11.042
21
-79.2
0
LINE
8
1
10
-0.381
20
-70.823
11
-0.533
21
-69.376
0
LINE
8
1
10
-0.533
20
-69.376
11
-1.142
21
-68.538
0
LINE
8
1
10
-1.142
20
-68.538
11
-1.142
21
-62.446
0
LINE
8
1
10
-1.142
20
-62.446
11
-0.65
21
-61.617
0
LINE
8
1
10
-0.65
20
-61.617
11
0.874
21
-54.002
0
LINE
8
1
10
0.874
20
-54.002
11
1.411
21
-51.852
0
LINE
8
1
10
1.411
20
-51.852
11
1.904
21
-47.977
0
LINE
8
1
10
1.904
20
-47.977
11
-1.218
21
-45.083
0
LINE
8
1
10
-1.218
20
-45.083
11
-2.665
21
-44.931
0
LINE
8
1
10
-2.665
20
-44.931
11
-5.712
21
-57.877
0
LINE
8
1
10
1.904
20
-47.215
11
3.427
21
-46.454
0
LINE
8
1
10
3.427
20
-46.454
11
4.95
21
-46.454
0
LINE
8
1
10
4.95
20
-46.454
11
5.712
21
-47.215
0
LINE
8
1
10
5.712
20
-47.215
11
6.473
21
-47.977
0
LINE
8
1
10
6.473
20
-47.977
11
4.95
21
-57.877
0
LINE
8
1
10
4.95
20
-57.877
11
7.844
21
-66.33
0
LINE
8
1
10
7.844
20
-66.33
11
11.042
21
-69.3
0
LINE
8
1
10
11.042
20
-69.3
11
11.804
21
-69.3
0
LINE
8
1
10
52.927
20
-71.585
11
54.45
21
-67.015
0
LINE
8
1
10
54.45
20
-67.015
11
55.212
21
-66.254
0
LINE
8
1
10
55.212
20
-66.254
11
59.781
21
-67.777
0
LINE
8
1
10
59.781
20
-67.777
11
64.35
21
-67.777
0
LINE
8
1
10
64.35
20
-67.777
11
65.17
21
-67.308
0
LINE
8
1
10
65.17
20
-67.308
11
69.605
21
-66.102
0
LINE
8
1
10
69.605
20
-66.102
11
70.442
21
-65.492
0
LINE
8
1
10
70.442
20
-65.492
11
71.204
21
-66.254
0
LINE
8
1
10
71.204
20
-66.254
11
71.965
21
-67.015
0
LINE
8
1
10
71.965
20
-67.015
11
71.204
21
-76.915
0
LINE
8
1
10
71.204
20
-76.915
11
71.204
21
-77.677
0
LINE
8
1
10
54.45
20
-66.254
11
52.927
21
-62.446
0
LINE
8
1
10
52.927
20
-62.446
11
51.404
21
-63.208
0
LINE
8
1
10
51.404
20
-63.208
11
50.642
21
-63.208
0
LINE
8
1
10
52.927
20
-62.446
11
52.927
21
-53.308
0
LINE
8
1
10
52.927
20
-53.308
11
52.165
21
-52.546
0
LINE
8
1
10
52.165
20
-52.546
11
49.119
21
-54.831
0
LINE
8
1
10
49.119
20
-54.831
11
48.358
21
-54.831
0
LINE
8
1
10
71.204
20
-65.492
11
70.876
21
-59.441
0
LINE
8
1
10
70.876
20
-59.441
11
70.062
21
-52.546
0
LINE
8
1
10
70.062
20
-52.546
11
70.442
21
-51.785
0
LINE
8
1
10
70.442
20
-51.785
11
69.528
21
-49.576
0
LINE
8
1
10
69.528
20
-49.576
11
65.112
21
-32.746
0
LINE
8
1
10
65.112
20
-32.746
11
62.827
21
-30.462
0
LINE
8
1
10
62.827
20
-30.462
11
63.588
21
-27.415
0
LINE
8
1
10
63.588
20
-27.415
11
62.218
21
-24.293
0
LINE
8
1
10
62.218
20
-24.293
11
62.065
21
-22.846
0
LINE
8
1
10
62.065
20
-22.846
11
61.456
21
-22.008
0
LINE
8
1
10
61.456
20
-22.008
11
56.202
21
-6.778
0
LINE
8
1
10
56.202
20
-6.778
11
55.973
21
-5.331
0
LINE
8
1
10
55.973
20
-5.331
11
55.212
21
-3.808
0
LINE
8
1
10
55.212
20
-3.808
11
55.212
21
-2.285
0
LINE
8
1
10
55.212
20
-2.285
11
53.688
21
0.0
0
LINE
8
1
10
53.688
20
0.0
11
52.458
21
6.912
0
LINE
8
1
10
52.458
20
6.912
11
52.165
21
9.9
0
LINE
8
1
10
52.165
20
9.9
11
51.673
21
11.49
0
LINE
8
1
10
51.673
20
11.49
11
50.215
21
19.837
0
LINE
8
1
10
50.215
20
19.837
11
49.881
21
25.892
0
LINE
8
1
10
49.881
20
25.892
11
49.119
21
26.654
0
LINE
8
1
10
49.119
20
26.654
11
41.504
21
15.992
0
LINE
8
1
10
41.504
20
15.992
11
40.742
21
15.992
0
LINE
8
1
10
-96.335
20
28.938
11
-94.812
21
28.938
0
LINE
8
1
10
-94.812
20
28.938
11
-95.264
21
21.272
0
LINE
8
1
10
-95.264
20
21.272
11
-99.112
21
0.694
0
LINE
8
1
10
-99.112
20
0.694
11
-100.435
21
-5.272
0
LINE
8
1
10
-100.435
20
-5.272
11
-104.559
21
-16.83
0
LINE
8
1
10
-104.559
20
-16.83
11
-110.225
21
-28.04
0
LINE
8
1
10
-110.225
20
-28.04
11
-112.327
21
-30.462
0
LINE
8
1
10
-112.327
20
-30.462
11
-112.327
21
-31.223
0
LINE
8
1
10
-116.896
20
-28.938
11
-114.794
21
-26.517
0
LINE
8
1
10
-114.794
20
-26.517
11
-111.032
21
-20.485
0
LINE
8
1
10
-111.032
20
-20.485
11
-110.804
21
-19.038
0
LINE
8
1
10
-110.804
20
-19.038
11
-111.642
21
-18.429
0
LINE
8
1
10
-111.642
20
-18.429
11
-116.135
21
-15.992
0
LINE
8
1
10
-116.135
20
-15.992
11
-122.988
21
-9.138
0
LINE
8
1
10
-122.988
20
-9.138
11
-125.882
21
-2.97
0
LINE
8
1
10
-125.882
20
-2.97
11
-128.319
21
2.285
0
LINE
8
1
10
-110.042
20
-15.992
11
-110.042
21
-18.277
0
LINE
8
1
10
-110.042
20
-18.277
11
-110.804
21
-19.038
0
LINE
8
1
10
-43.027
20
-12.946
11
-42.558
21
-14.528
0
LINE
8
1
10
-42.558
20
-14.528
11
-40.315
21
-28.214
0
LINE
8
1
10
-40.315
20
-28.214
11
-39.981
21
-34.269
0
LINE
8
1
10
-39.981
20
-34.269
11
-39.981
21
-35.031
0
LINE
8
1
10
-23.227
20
-34.269
11
-23.584
21
-21.344
0
LINE
8
1
10
-23.584
20
-21.344
11
-24.369
21
-13.708
0
LINE
8
1
10
-24.369
20
-13.708
11
-23.988
21
-12.946
0
LINE
8
1
10
-23.988
20
-12.946
11
-23.227
21
-12.185
0
LINE
8
1
10
-23.227
20
-12.185
11
-20.805
21
-14.286
0
LINE
8
1
10
-20.805
20
-14.286
11
-17.135
21
-16.754
0
LINE
8
1
10
-17.135
20
-16.754
11
-16.373
21
-17.515
0
LINE
8
1
10
-16.373
20
-17.515
11
-15.88
21
-18.344
0
LINE
8
1
10
-15.88
20
-18.344
11
-14.85
21
-23.608
0
LINE
8
1
10
-14.85
20
-23.608
11
-16.373
21
-25.892
0
LINE
8
1
10
-16.373
20
-25.892
11
-16.373
21
-27.415
0
LINE
8
1
10
-16.373
20
-27.415
11
-16.982
21
-29.015
0
LINE
8
1
10
-16.982
20
-29.015
11
-19.11
21
-36.605
0
LINE
8
1
10
-19.11
20
-36.605
11
-19.419
21
-40.362
0
LINE
8
1
10
-19.419
20
-40.362
11
-19.419
21
-41.123
0
LINE
8
1
10
-16.373
20
-28.177
11
-2.689
21
-29.292
0
LINE
8
1
10
-2.689
20
-29.292
11
7.302
21
-33.239
0
LINE
8
1
10
7.302
20
-33.239
11
10.322
21
-33.941
0
LINE
8
1
10
10.322
20
-33.941
11
15.612
21
-34.269
0
LINE
8
1
10
15.612
20
-34.269
11
16.373
21
-34.269
0
LINE
8
1
10
17.135
20
-30.462
11
10.975
21
-29.969
0
LINE
8
1
10
10.975
20
-29.969
11
7.311
21
-28.786
0
LINE
8
1
10
7.311
20
-28.786
11
4.188
21
-26.654
0
LINE
8
1
10
4.188
20
-26.654
11
0.439
21
-26.361
0
LINE
8
1
10
0.439
20
-26.361
11
-11.88
21
-25.359
0
LINE
8
1
10
-11.88
20
-25.359
11
-14.088
21
-24.369
0
LINE
8
1
10
-14.088
20
-24.369
11
-14.85
21
-24.369
0
LINE
8
1
10
6.473
20
-47.215
11
14.85
21
-45.692
0
LINE
8
1
10
14.85
20
-45.692
11
15.612
21
-45.692
0
LINE
8
1
10
-2.665
20
-44.931
11
-5.788
21
-42.798
0
LINE
8
1
10
-5.788
20
-42.798
11
-7.235
21
-42.646
0
LINE
8
1
10
-3.427
20
-23.608
11
-1.752
21
-20.638
0
LINE
8
1
10
-1.752
20
-20.638
11
0.65
21
-13.013
0
LINE
8
1
10
0.65
20
-13.013
11
1.142
21
-6.092
0
LINE
8
1
10
1.142
20
-6.092
11
4.234
21
-4.889
0
LINE
8
1
10
4.234
20
-4.889
11
8.758
21
-4.569
0
LINE
8
1
10
8.758
20
-4.569
11
9.519
21
-5.331
0
LINE
8
1
10
9.519
20
-5.331
11
7.703
21
-16.695
0
LINE
8
1
10
7.703
20
-16.695
11
5.864
21
-22.161
0
LINE
8
1
10
5.864
20
-22.161
11
4.188
21
-25.892
0
LINE
8
1
10
4.188
20
-25.892
11
4.188
21
-26.654
0
LINE
8
1
10
44.55
20
-39.6
11
46.073
21
-39.6
0
LINE
8
1
10
46.073
20
-39.6
11
47.596
21
-38.077
0
LINE
8
1
10
47.596
20
-38.077
11
49.119
21
-38.077
0
LINE
8
1
10
49.119
20
-38.077
11
49.881
21
-38.838
0
LINE
8
1
10
49.881
20
-38.838
11
50.642
21
-39.6
0
LINE
8
1
10
50.642
20
-39.6
11
52.165
21
-51.785
0
LINE
8
1
10
52.165
20
-51.785
11
52.165
21
-52.546
0
LINE
8
1
10
48.358
20
-38.077
11
48.065
21
-34.328
0
LINE
8
1
10
48.065
20
-34.328
11
45.312
21
-26.654
0
LINE
8
1
10
45.312
20
-26.654
11
44.55
21
-25.892
0
LINE
8
1
10
44.55
20
-25.892
11
43.788
21
-25.892
0
LINE
8
1
10
63.588
20
-26.654
11
65.873
21
-25.131
0
LINE
8
1
10
65.873
20
-25.131
11
67.396
21
-25.131
0
LINE
8
1
10
67.396
20
-25.131
11
68.31
21
-26.578
0
LINE
8
1
10
68.31
20
-26.578
11
71.737
21
-35.868
0
LINE
8
1
10
71.737
20
-35.868
11
72.727
21
-38.077
0
LINE
8
1
10
72.727
20
-38.077
11
72.727
21
-39.6
0
LINE
8
1
10
72.727
20
-39.6
11
73.22
21
-41.952
0
LINE
8
1
10
73.22
20
-41.952
11
74.25
21
-44.931
0
LINE
8
1
10
74.25
20
-44.931
11
74.25
21
-48.738
0
LINE
8
1
10
74.25
20
-48.738
11
71.965
21
-51.023
0
LINE
8
1
10
71.965
20
-51.023
11
70.442
21
-51.023
0
LINE
8
1
10
62.827
20
-30.462
11
62.065
21
-31.985
0
LINE
8
1
10
62.065
20
-31.985
11
57.496
21
-36.554
0
LINE
8
1
10
57.496
20
-36.554
11
54.526
21
-38.229
0
LINE
8
1
10
54.526
20
-38.229
11
51.404
21
-38.838
0
LINE
8
1
10
51.404
20
-38.838
11
50.642
21
-38.838
0
LINE
8
1
10
62.065
20
-22.846
11
64.35
21
-21.323
0
LINE
8
1
10
64.35
20
-21.323
11
65.112
21
-21.323
0
LINE
8
1
10
72.727
20
-38.838
11
74.25
21
-38.077
0
LINE
8
1
10
74.25
20
-38.077
11
75.773
21
-38.838
0
LINE
8
1
10
75.773
20
-38.838
11
79.581
21
-38.838
0
LINE
8
1
10
79.581
20
-38.838
11
81.028
21
-37.925
0
LINE
8
1
10
81.028
20
-37.925
11
81.942
21
-37.468
0
LINE
8
1
10
81.942
20
-37.468
11
85.673
21
-34.269
0
LINE
8
1
10
66.635
20
-25.131
11
66.635
21
-22.846
0
LINE
8
1
10
66.635
20
-22.846
11
65.112
21
-21.323
0
LINE
8
1
10
65.112
20
-21.323
11
65.34
21
-19.115
0
LINE
8
1
10
65.34
20
-19.115
11
67.548
21
-14.545
0
LINE
8
1
10
67.548
20
-14.545
11
68.158
21
-13.708
0
LINE
8
1
10
68.158
20
-13.708
11
69.528
21
-14.545
0
LINE
8
1
10
69.528
20
-14.545
11
71.737
21
-19.876
0
LINE
8
1
10
71.737
20
-19.876
11
73.664
21
-24.252
0
LINE
8
1
10
73.664
20
-24.252
11
75.012
21
-26.654
0
LINE
8
1
10
75.012
20
-26.654
11
78.058
21
-28.938
0
LINE
8
1
10
78.058
20
-28.938
11
81.865
21
-28.938
0
LINE
8
1
10
81.865
20
-28.938
11
82.694
21
-28.446
0
LINE
8
1
10
82.694
20
-28.446
11
84.912
21
-28.177
0
LINE
8
1
10
84.912
20
-28.177
11
85.673
21
-27.415
0
LINE
8
1
10
85.673
20
-27.415
11
85.064
21
-25.816
0
LINE
8
1
10
85.064
20
-25.816
11
81.397
21
-14.411
0
LINE
8
1
10
81.397
20
-14.411
11
81.104
21
-11.423
0
LINE
8
1
10
81.104
20
-11.423
11
78.819
21
-7.615
0
LINE
8
1
10
78.819
20
-7.615
11
75.012
21
-5.331
0
LINE
8
1
10
75.012
20
-5.331
11
73.641
21
-6.168
0
LINE
8
1
10
73.641
20
-6.168
11
69.095
21
-12.302
0
LINE
8
1
10
69.095
20
-12.302
11
68.919
21
-13.708
0
LINE
8
1
10
87.196
20
-28.938
11
86.435
21
-29.7
0
LINE
8
1
10
86.435
20
-29.7
11
85.673
21
-28.938
0
LINE
8
1
10
85.673
20
-28.938
11
86.435
21
-28.177
0
LINE
8
1
10
86.435
20
-28.177
11
87.196
21
-28.938
0
LINE
8
1
10
87.196
20
-28.938
11
88.719
21
-29.7
0
LINE
8
1
10
88.719
20
-29.7
11
92.527
21
-34.269
0
LINE
8
1
10
92.527
20
-34.269
11
96.335
21
-35.031
0
LINE
8
1
10
96.335
20
-35.031
11
97.096
21
-34.269
0
LINE
8
1
10
97.096
20
-34.269
11
96.152
21
-31.36
0
LINE
8
1
10
96.152
20
-31.36
11
93.288
21
-27.415
0
LINE
8
1
10
93.288
20
-27.415
11
91.141
21
-26.471
0
LINE
8
1
10
91.141
20
-26.471
11
88.719
21
-24.369
0
LINE
8
1
10
88.719
20
-24.369
11
88.719
21
-22.846
0
LINE
8
1
10
88.719
20
-22.846
11
91.004
21
-20.562
0
LINE
8
1
10
91.004
20
-20.562
11
92.451
21
-20.714
0
LINE
8
1
10
92.451
20
-20.714
11
104.712
21
-24.369
0
LINE
8
1
10
104.712
20
-24.369
11
109.281
21
-28.938
0
LINE
8
1
10
109.281
20
-28.938
11
109.281
21
-37.315
0
LINE
8
1
10
109.281
20
-37.315
11
108.672
21
-38.153
0
LINE
8
1
10
108.672
20
-38.153
11
107.758
21
-40.362
0
LINE
8
1
10
107.758
20
-40.362
11
105.473
21
-42.646
0
LINE
8
1
10
105.473
20
-42.646
11
100.98
21
-44.398
0
LINE
8
1
10
100.98
20
-44.398
11
98.772
21
-45.235
0
LINE
8
1
10
98.772
20
-45.235
11
97.096
21
-46.454
0
LINE
8
1
10
88.719
20
-44.169
11
88.11
21
-42.57
0
LINE
8
1
10
88.11
20
-42.57
11
86.282
21
-35.107
0
LINE
8
1
10
86.282
20
-35.107
11
85.673
21
-34.269
0
LINE
8
1
10
85.673
20
-34.269
11
85.673
21
-30.462
0
LINE
8
1
10
85.673
20
-30.462
11
85.673
21
-29.7
0
LINE
8
1
10
85.673
20
-26.654
11
87.958
21
-24.369
0
LINE
8
1
10
87.958
20
-24.369
11
88.719
21
-24.369
0
LINE
8
1
10
91.004
20
-20.562
11
91.156
21
-19.115
0
LINE
8
1
10
91.156
20
-19.115
11
91.765
21
-18.277
0
LINE
8
1
10
91.765
20
-18.277
11
91.765
21
-12.946
0
LINE
8
1
10
91.765
20
-12.946
11
88.719
21
-9.9
0
LINE
8
1
10
88.719
20
-9.9
11
85.673
21
-9.138
0
LINE
8
1
10
85.673
20
-9.138
11
84.15
21
-9.138
0
LINE
8
1
10
84.15
20
-9.138
11
81.865
21
-10.662
0
LINE
8
1
10
81.865
20
-10.662
11
81.104
21
-10.662
0
LINE
8
1
10
-126.035
20
4.569
11
-120.518
21
11.274
0
LINE
8
1
10
-120.518
20
11.274
11
-107.91
21
29.015
0
LINE
8
1
10
-107.91
20
29.015
11
-106.235
21
32.746
0
LINE
8
1
10
-106.235
20
32.746
11
-109.281
21
35.792
0
LINE
8
1
10
-109.281
20
35.792
11
-113.85
21
40.362
0
LINE
8
1
10
-113.85
20
40.362
11
-115.197
21
42.763
0
LINE
8
1
10
-115.197
20
42.763
11
-117.658
21
48.738
0
LINE
8
1
10
-117.658
20
48.738
11
-117.658
21
54.831
0
LINE
8
1
10
-117.658
20
54.831
11
-116.668
21
57.039
0
LINE
8
1
10
-116.668
20
57.039
11
-116.135
21
57.877
0
LINE
8
1
10
-116.135
20
57.877
11
-117.079
21
59.263
0
LINE
8
1
10
-117.079
20
59.263
11
-120.704
21
64.731
0
LINE
8
1
10
-120.704
20
64.731
11
-120.704
21
67.015
0
LINE
8
1
10
-120.704
20
67.015
11
-119.942
21
67.777
0
LINE
8
1
10
-119.942
20
67.777
11
-120.704
21
81.485
0
LINE
8
1
10
-120.704
20
81.485
11
-119.942
21
82.246
0
LINE
8
1
10
-119.942
20
82.246
11
-120.704
21
83.769
0
LINE
8
1
10
-120.704
20
83.769
11
-120.704
21
85.292
0
LINE
8
1
10
-120.704
20
85.292
11
-126.035
21
85.292
0
LINE
8
1
10
-126.035
20
85.292
11
-126.796
21
86.054
0
LINE
8
1
10
-126.796
20
86.054
11
-127.558
21
86.815
0
LINE
8
1
10
-127.558
20
86.815
11
-131.365
21
89.862
0
LINE
8
1
10
-131.365
20
89.862
11
-131.365
21
91.385
0
LINE
8
1
10
-131.365
20
91.385
11
-129.842
21
93.669
0
LINE
8
1
10
-129.842
20
93.669
11
-129.842
21
95.192
0
LINE
8
1
10
-129.842
20
95.192
11
-129.842
21
97.477
0
LINE
8
1
10
-129.842
20
97.477
11
-128.319
21
99.0
0
LINE
8
1
10
-128.319
20
99.0
11
-126.796
21
99.762
0
LINE
8
1
10
-126.796
20
99.762
11
-126.035
21
100.523
0
LINE
8
1
10
-126.035
20
100.523
11
-127.025
21
104.255
0
LINE
8
1
10
-127.025
20
104.255
11
-127.558
21
105.092
0
LINE
8
1
10
-127.558
20
105.092
11
-127.558
21
116.515
0
LINE
8
1
10
-127.558
20
116.515
11
-126.035
21
118.038
0
LINE
8
1
10
-126.035
20
118.038
11
-123.75
21
116.515
0
LINE
8
1
10
-123.75
20
116.515
11
-123.257
21
114.925
0
LINE
8
1
10
-123.257
20
114.925
11
-120.552
21
104.407
0
LINE
8
1
10
-120.552
20
104.407
11
-119.942
21
103.569
0
LINE
8
1
10
-119.942
20
103.569
11
-117.886
21
107.453
0
LINE
8
1
10
-117.886
20
107.453
11
-117.658
21
108.9
0
LINE
8
1
10
-117.658
20
108.9
11
-114.612
21
111.946
0
LINE
8
1
10
-114.612
20
111.946
11
-111.565
21
111.946
0
LINE
8
1
10
-111.565
20
111.946
11
-110.804
21
111.185
0
LINE
8
1
10
-110.804
20
111.185
11
-110.042
21
111.946
0
LINE
8
1
10
-110.042
20
111.946
11
-107.758
21
113.469
0
LINE
8
1
10
-107.758
20
113.469
11
-106.235
21
113.469
0
LINE
8
1
10
-106.235
20
113.469
11
-103.188
21
111.946
0
LINE
8
1
10
-103.188
20
111.946
11
-102.427
21
111.185
0
LINE
8
1
10
-102.427
20
111.185
11
-100.142
21
102.046
0
LINE
8
1
10
-100.142
20
102.046
11
-96.335
21
103.569
0
LINE
8
1
10
-96.335
20
103.569
11
-97.096
21
104.331
0
LINE
8
1
10
-97.096
20
104.331
11
-97.096
21
105.854
0
LINE
8
1
10
-97.096
20
105.854
11
-95.573
21
110.423
0
LINE
8
1
10
-95.573
20
110.423
11
-95.573
21
121.846
0
LINE
8
1
10
-95.573
20
121.846
11
-96.335
21
123.369
0
LINE
8
1
10
-96.335
20
123.369
11
-97.096
21
124.131
0
LINE
8
1
10
-97.096
20
124.131
11
-98.619
21
124.131
0
LINE
8
1
10
-98.619
20
124.131
11
-100.142
21
122.608
0
LINE
8
1
10
-100.142
20
122.608
11
-101.213
21
114.282
0
LINE
8
1
10
-101.213
20
114.282
11
-102.427
21
111.946
0
LINE
8
1
10
-68.919
20
4.569
11
-68.919
21
3.046
0
LINE
8
1
10
-68.919
20
3.046
11
-65.873
21
0.0
0
LINE
8
1
10
-65.873
20
0.0
11
-64.274
21
-0.609
0
LINE
8
1
10
-64.274
20
-0.609
11
-60.542
21
-2.285
0
LINE
8
1
10
-60.542
20
-2.285
11
-51.404
21
-2.285
0
LINE
8
1
10
-51.404
20
-2.285
11
-48.495
21
-0.579
0
LINE
8
1
10
-48.495
20
-0.579
11
-46.073
21
1.523
0
LINE
8
1
10
-46.073
20
1.523
11
-44.55
21
0.762
0
LINE
8
1
10
-44.55
20
0.762
11
-44.55
21
-6.092
0
LINE
8
1
10
-44.55
20
-6.092
11
-44.55
21
-6.854
0
LINE
8
1
10
-45.312
20
1.523
11
-46.393
21
10.616
0
LINE
8
1
10
-46.393
20
10.616
11
-46.835
21
11.423
0
LINE
8
1
10
-46.835
20
11.423
11
-51.352
21
11.732
0
LINE
8
1
10
-51.352
20
11.732
11
-59.019
21
14.469
0
LINE
8
1
10
-59.019
20
14.469
11
-59.781
21
14.469
0
LINE
8
1
10
-46.835
20
11.423
11
-48.358
21
28.938
0
LINE
8
1
10
-48.358
20
28.938
11
-49.119
21
29.7
0
LINE
8
1
10
-49.119
20
29.7
11
-50.49
21
30.005
0
LINE
8
1
10
-50.49
20
30.005
11
-52.771
21
31.41
0
LINE
8
1
10
-52.771
20
31.41
11
-59.781
21
37.315
0
LINE
8
1
10
-59.781
20
37.315
11
-62.827
21
41.123
0
LINE
8
1
10
-62.827
20
41.123
11
-63.055
21
42.57
0
LINE
8
1
10
-63.055
20
42.57
11
-64.502
21
45.616
0
LINE
8
1
10
-64.502
20
45.616
11
-68.005
21
51.861
0
LINE
8
1
10
-68.005
20
51.861
11
-68.158
21
52.546
0
LINE
8
1
10
-33.888
20
32.746
11
-34.65
21
31.985
0
LINE
8
1
10
-34.65
20
31.985
11
-34.65
21
30.462
0
LINE
8
1
10
-34.65
20
30.462
11
-34.157
21
29.633
0
LINE
8
1
10
-34.157
20
29.633
11
-33.127
21
26.654
0
LINE
8
1
10
-33.127
20
26.654
11
-32.634
21
21.256
0
LINE
8
1
10
-32.634
20
21.256
11
-31.135
21
15.172
0
LINE
8
1
10
-31.135
20
15.172
11
-30.842
21
12.185
0
LINE
8
1
10
-30.842
20
12.185
11
-29.319
21
10.662
0
LINE
8
1
10
-23.988
20
-12.185
11
-24.598
21
-11.347
0
LINE
8
1
10
-24.598
20
-11.347
11
-30.081
21
9.9
0
LINE
8
1
10
-30.081
20
9.9
11
-29.319
21
10.662
0
LINE
8
1
10
-29.319
20
10.662
11
-28.558
21
11.423
0
LINE
8
1
10
-28.558
20
11.423
11
-21.704
21
10.662
0
LINE
8
1
10
-21.704
20
10.662
11
-15.612
21
3.808
0
LINE
8
1
10
-15.612
20
3.808
11
-15.283
21
-2.244
0
LINE
8
1
10
-15.283
20
-2.244
11
-14.088
21
-4.569
0
LINE
8
1
10
-14.088
20
-4.569
11
-14.698
21
-6.168
0
LINE
8
1
10
-14.698
20
-6.168
11
-16.064
21
-12.236
0
LINE
8
1
10
-16.064
20
-12.236
11
-16.373
21
-15.992
0
LINE
8
1
10
-16.373
20
-15.992
11
-16.373
21
-16.754
0
LINE
8
1
10
-14.088
20
-5.331
11
0.381
21
-5.331
0
LINE
8
1
10
0.381
20
-5.331
11
1.142
21
-6.092
0
LINE
8
1
10
-15.612
20
3.808
11
0.381
21
3.808
0
LINE
8
1
10
0.381
20
3.808
11
1.142
21
4.569
0
LINE
8
1
10
1.142
20
4.569
11
0.381
21
5.331
0
LINE
8
1
10
0.381
20
5.331
11
0.381
21
14.469
0
LINE
8
1
10
0.381
20
14.469
11
1.435
21
18.218
0
LINE
8
1
10
1.435
20
18.218
11
1.904
21
19.038
0
LINE
8
1
10
1.904
20
19.038
11
0.228
21
21.018
0
LINE
8
1
10
0.228
20
21.018
11
-1.142
21
21.323
0
LINE
8
1
10
-1.142
20
21.323
11
-3.564
21
23.425
0
LINE
8
1
10
-3.564
20
23.425
11
-9.595
21
28.025
0
LINE
8
1
10
-9.595
20
28.025
11
-11.921
21
29.524
0
LINE
8
1
10
-11.921
20
29.524
11
-21.704
21
37.315
0
LINE
8
1
10
-21.704
20
37.315
11
-26.273
21
41.885
0
LINE
8
1
10
-26.273
20
41.885
11
-32.365
21
50.262
0
LINE
8
1
10
-32.365
20
50.262
11
-33.888
21
51.023
0
LINE
8
1
10
-33.888
20
51.023
11
-35.412
21
50.262
0
LINE
8
1
10
-35.412
20
50.262
11
-35.412
21
38.077
0
LINE
8
1
10
-35.412
20
38.077
11
-34.117
21
34.955
0
LINE
8
1
10
-34.117
20
34.955
11
-33.888
21
33.508
0
LINE
8
1
10
-33.888
20
33.508
11
-33.127
21
32.746
0
LINE
8
1
10
-33.127
20
32.746
11
-31.78
21
31.106
0
LINE
8
1
10
-31.78
20
31.106
11
-30.081
21
27.415
0
LINE
8
1
10
-30.081
20
27.415
11
-25.512
21
20.562
0
LINE
8
1
10
-25.512
20
20.562
11
-23.051
21
15.348
0
LINE
8
1
10
-23.051
20
15.348
11
-21.88
21
13.591
0
LINE
8
1
10
-21.88
20
13.591
11
-20.942
21
11.423
0
LINE
8
1
10
-20.942
20
11.423
11
-20.942
21
10.662
0
LINE
8
1
10
1.142
20
4.569
11
4.13
21
4.862
0
LINE
8
1
10
4.13
20
4.862
11
7.92
21
6.245
0
LINE
8
1
10
7.92
20
6.245
11
8.758
21
6.854
0
LINE
8
1
10
8.758
20
6.854
11
7.996
21
7.615
0
LINE
8
1
10
7.996
20
7.615
11
7.996
21
14.469
0
LINE
8
1
10
7.996
20
14.469
11
8.758
21
15.231
0
LINE
8
1
10
8.758
20
15.231
11
3.351
21
18.886
0
LINE
8
1
10
3.351
20
18.886
11
1.904
21
19.038
0
LINE
8
1
10
8.758
20
6.854
11
10.975
21
7.123
0
LINE
8
1
10
10.975
20
7.123
11
17.135
21
9.9
0
LINE
8
1
10
17.135
20
9.9
11
17.896
21
9.9
0
LINE
8
1
10
17.896
20
12.185
11
10.966
21
15.002
0
LINE
8
1
10
10.966
20
15.002
11
9.519
21
15.231
0
LINE
8
1
10
9.519
20
15.231
11
8.758
21
15.231
0
LINE
8
1
10
17.135
20
-1.523
11
15.688
21
-1.675
0
LINE
8
1
10
15.688
20
-1.675
11
11.195
21
-3.351
0
LINE
8
1
10
11.195
20
-3.351
11
9.519
21
-4.569
0
LINE
8
1
10
55.212
20
-1.523
11
62.827
21
6.092
0
LINE
8
1
10
62.827
20
6.092
11
63.588
21
6.854
0
LINE
8
1
10
63.588
20
6.854
11
65.112
21
6.854
0
LINE
8
1
10
65.112
20
6.854
11
67.396
21
4.569
0
LINE
8
1
10
67.396
20
4.569
11
66.635
21
3.808
0
LINE
8
1
10
66.635
20
3.808
11
56.735
21
-4.569
0
LINE
8
1
10
56.735
20
-4.569
11
55.973
21
-4.569
0
LINE
8
1
10
62.827
20
6.854
11
60.725
21
10.037
0
LINE
8
1
10
60.725
20
10.037
11
58.258
21
14.469
0
LINE
8
1
10
58.258
20
14.469
11
56.735
21
14.469
0
LINE
8
1
10
56.735
20
14.469
11
54.633
21
12.048
0
LINE
8
1
10
54.633
20
12.048
11
53.688
21
10.662
0
LINE
8
1
10
53.688
20
10.662
11
52.165
21
10.662
0
LINE
8
1
10
57.496
20
14.469
11
59.628
21
19.115
0
LINE
8
1
10
59.628
20
19.115
11
62.294
21
25.055
0
LINE
8
1
10
62.294
20
25.055
11
64.35
21
32.746
0
LINE
8
1
10
64.35
20
32.746
11
65.112
21
33.508
0
LINE
8
1
10
65.112
20
33.508
11
64.007
21
42.615
0
LINE
8
1
10
64.007
20
42.615
11
63.296
21
46.395
0
LINE
8
1
10
63.296
20
46.395
11
62.979
21
47.292
0
LINE
8
1
10
62.979
20
47.292
11
61.304
21
49.5
0
LINE
8
1
10
61.304
20
49.5
11
64.35
21
55.592
0
LINE
8
1
10
64.35
20
55.592
11
61.155
21
58.453
0
LINE
8
1
10
61.155
20
58.453
11
55.821
21
62.142
0
LINE
8
1
10
55.821
20
62.142
11
49.043
21
64.502
0
LINE
8
1
10
49.043
20
64.502
11
47.672
21
64.959
0
LINE
8
1
10
47.672
20
64.959
11
42.998
21
65.907
0
LINE
8
1
10
42.998
20
65.907
11
34.65
21
66.254
0
LINE
8
1
10
34.65
20
66.254
11
33.396
21
65.425
0
LINE
8
1
10
33.396
20
65.425
11
30.842
21
56.354
0
LINE
8
1
10
30.842
20
56.354
11
31.604
21
55.592
0
LINE
8
1
10
31.604
20
55.592
11
36.883
21
54.522
0
LINE
8
1
10
36.883
20
54.522
11
53.612
21
48.586
0
LINE
8
1
10
53.612
20
48.586
11
55.063
21
47.791
0
LINE
8
1
10
55.063
20
47.791
11
58.258
21
44.931
0
LINE
8
1
10
58.258
20
44.931
11
61.304
21
49.5
0
LINE
8
1
10
79.581
20
-3.046
11
79.581
21
-6.854
0
LINE
8
1
10
79.581
20
-6.854
11
78.819
21
-7.615
0
LINE
8
1
10
74.25
20
-5.331
11
73.641
21
-3.732
0
LINE
8
1
10
73.641
20
-3.732
11
70.29
21
1.447
0
LINE
8
1
10
70.29
20
1.447
11
69.681
21
3.046
0
LINE
8
1
10
69.681
20
3.046
11
69.681
21
4.569
0
LINE
8
1
10
69.681
20
4.569
11
68.919
21
10.662
0
LINE
8
1
10
68.919
20
10.662
11
71.356
21
17.439
0
LINE
8
1
10
71.356
20
17.439
11
71.965
21
19.038
0
LINE
8
1
10
71.965
20
19.038
11
72.727
21
19.8
0
LINE
8
1
10
72.727
20
19.8
11
74.367
21
21.147
0
LINE
8
1
10
74.367
20
21.147
11
77.363
21
22.577
0
LINE
8
1
10
77.363
20
22.577
11
79.514
21
23.115
0
LINE
8
1
10
79.514
20
23.115
11
84.15
21
22.846
0
LINE
8
1
10
84.15
20
22.846
11
88.719
21
19.8
0
LINE
8
1
10
88.719
20
19.8
11
92.527
21
12.946
0
LINE
8
1
10
92.527
20
12.946
11
92.058
21
12.126
0
LINE
8
1
10
92.058
20
12.126
11
90.695
21
4.621
0
LINE
8
1
10
90.695
20
4.621
11
90.511
21
3.74
0
LINE
8
1
10
90.511
20
3.74
11
88.11
21
-3.122
0
LINE
8
1
10
88.11
20
-3.122
11
84.912
21
-8.377
0
LINE
8
1
10
84.912
20
-8.377
11
84.912
21
-9.138
0
LINE
8
1
10
69.681
20
3.808
11
68.158
21
3.808
0
LINE
8
1
10
68.158
20
3.808
11
67.396
21
3.808
0
LINE
8
1
10
88.719
20
19.8
11
90.242
21
20.562
0
LINE
8
1
10
90.242
20
20.562
11
93.288
21
23.608
0
LINE
8
1
10
93.288
20
23.608
11
96.149
21
27.564
0
LINE
8
1
10
96.149
20
27.564
11
97.705
21
30.538
0
LINE
8
1
10
97.705
20
30.538
11
99.061
21
35.076
0
LINE
8
1
10
99.061
20
35.076
11
99.381
21
39.6
0
LINE
8
1
10
99.381
20
39.6
11
100.142
21
40.362
0
LINE
8
1
10
100.142
20
40.362
11
104.026
21
42.494
0
LINE
8
1
10
104.026
20
42.494
11
106.996
21
44.169
0
LINE
8
1
10
106.996
20
44.169
11
107.758
21
43.408
0
LINE
8
1
10
107.758
20
43.408
11
108.519
21
41.123
0
LINE
8
1
10
108.519
20
41.123
11
108.519
21
32.746
0
LINE
8
1
10
108.519
20
32.746
11
105.649
21
26.537
0
LINE
8
1
10
105.649
20
26.537
11
102.427
21
21.323
0
LINE
8
1
10
102.427
20
21.323
11
95.573
21
14.469
0
LINE
8
1
10
95.573
20
14.469
11
92.527
21
12.946
0
LINE
8
1
10
-101.665
20
31.985
11
-105.473
21
33.508
0
LINE
8
1
10
-105.473
20
33.508
11
-106.235
21
33.508
0
LINE
8
1
10
-94.812
20
28.938
11
-91.689
21
31.832
0
LINE
8
1
10
-91.689
20
31.832
11
-90.242
21
31.985
0
LINE
8
1
10
-78.058
20
43.408
11
-78.55
21
45.76
0
LINE
8
1
10
-78.55
20
45.76
11
-81.104
21
54.069
0
LINE
8
1
10
-81.104
20
54.069
11
-81.865
21
54.831
0
LINE
8
1
10
-81.865
20
54.831
11
-83.388
21
54.831
0
LINE
8
1
10
-83.388
20
54.831
11
-83.697
21
53.256
0
LINE
8
1
10
-83.697
20
53.256
11
-83.388
21
49.5
0
LINE
8
1
10
-54.45
20
44.169
11
-52.028
21
42.067
0
LINE
8
1
10
-52.028
20
42.067
11
-49.881
21
41.123
0
LINE
8
1
10
-49.881
20
41.123
11
-49.119
21
40.362
0
LINE
8
1
10
-49.119
20
40.362
11
-48.704
21
38.81
0
LINE
8
1
10
-48.704
20
38.81
11
-48.358
21
30.462
0
LINE
8
1
10
-48.358
20
30.462
11
-48.358
21
29.7
0
LINE
8
1
10
-49.119
20
41.123
11
-49.48
21
56.336
0
LINE
8
1
10
-49.48
20
56.336
11
-49.881
21
58.638
0
LINE
8
1
10
-49.881
20
58.638
11
-50.642
21
59.4
0
LINE
8
1
10
-50.642
20
59.4
11
-55.212
21
56.354
0
LINE
8
1
10
-55.212
20
56.354
11
-54.45
21
54.831
0
LINE
8
1
10
-54.45
20
54.831
11
-54.45
21
48.738
0
LINE
8
1
10
-54.45
20
48.738
11
-55.212
21
47.977
0
LINE
8
1
10
-55.212
20
47.977
11
-57.496
21
47.977
0
LINE
8
1
10
-57.496
20
47.977
11
-58.867
21
50.338
0
LINE
8
1
10
-58.867
20
50.338
11
-59.781
21
52.546
0
LINE
8
1
10
-59.781
20
52.546
11
-62.065
21
54.831
0
LINE
8
1
10
-62.065
20
54.831
11
-64.122
21
60.999
0
LINE
8
1
10
-64.122
20
60.999
11
-64.35
21
62.446
0
LINE
8
1
10
-59.781
20
52.546
11
-55.973
21
55.592
0
LINE
8
1
10
-55.973
20
55.592
11
-55.212
21
55.592
0
LINE
8
1
10
-33.127
20
26.654
11
-30.842
21
26.654
0
LINE
8
1
10
-30.842
20
26.654
11
-30.081
21
26.654
0
LINE
8
1
10
-34.65
20
51.023
11
-34.878
21
53.232
0
LINE
8
1
10
-34.878
20
53.232
11
-37.163
21
57.801
0
LINE
8
1
10
-37.163
20
57.801
11
-37.696
21
58.638
0
LINE
8
1
10
-37.696
20
58.638
11
-36.935
21
59.4
0
LINE
8
1
10
-36.935
20
59.4
11
-31.528
21
61.532
0
LINE
8
1
10
-31.528
20
61.532
11
-25.512
21
64.731
0
LINE
8
1
10
-25.512
20
64.731
11
-23.227
21
67.015
0
LINE
8
1
10
-23.227
20
67.015
11
-20.942
21
70.823
0
LINE
8
1
10
-20.942
20
70.823
11
-19.343
21
70.29
0
LINE
8
1
10
-19.343
20
70.29
11
-10.281
21
67.015
0
LINE
8
1
10
-10.281
20
67.015
11
-7.311
21
65.34
0
LINE
8
1
10
-7.311
20
65.34
11
4.112
21
59.172
0
LINE
8
1
10
4.112
20
59.172
11
5.712
21
58.638
0
LINE
8
1
10
5.712
20
58.638
11
6.473
21
57.877
0
LINE
8
1
10
6.473
20
57.877
11
10.281
21
54.069
0
LINE
8
1
10
10.281
20
54.069
11
11.804
21
54.069
0
LINE
8
1
10
11.804
20
54.069
11
16.373
21
50.262
0
LINE
8
1
10
11.804
20
54.069
11
18.658
21
65.492
0
LINE
8
1
10
18.658
20
65.492
11
23.455
21
53.384
0
LINE
8
1
10
23.455
20
53.384
11
23.988
21
52.546
0
LINE
8
1
10
23.988
20
52.546
11
23.988
21
51.785
0
LINE
8
1
10
27.796
20
49.5
11
28.558
21
51.023
0
LINE
8
1
10
28.558
20
51.023
11
31.537
21
50.754
0
LINE
8
1
10
31.537
20
50.754
11
37.772
21
48.967
0
LINE
8
1
10
37.772
20
48.967
11
48.434
21
45.083
0
LINE
8
1
10
48.434
20
45.083
11
52.028
21
43.225
0
LINE
8
1
10
52.028
20
43.225
11
54.45
21
41.123
0
LINE
8
1
10
54.45
20
41.123
11
55.212
21
41.123
0
LINE
8
1
10
30.842
20
55.592
11
28.558
21
51.785
0
LINE
8
1
10
28.558
20
51.785
11
28.558
21
51.023
0
LINE
8
1
10
58.258
20
44.931
11
58.258
21
44.169
0
LINE
8
1
10
49.119
20
26.654
11
49.348
21
28.101
0
LINE
8
1
10
49.348
20
28.101
11
53.079
21
35.716
0
LINE
8
1
10
53.079
20
35.716
11
53.688
21
36.554
0
LINE
8
1
10
53.688
20
36.554
11
55.212
21
35.792
0
LINE
8
1
10
55.212
20
35.792
11
55.212
21
33.508
0
LINE
8
1
10
55.212
20
33.508
11
54.45
21
32.746
0
LINE
8
1
10
54.45
20
32.746
11
55.973
21
31.223
0
LINE
8
1
10
55.973
20
31.223
11
49.881
21
25.892
0
LINE
8
1
10
55.973
20
31.223
11
57.648
21
32.67
0
LINE
8
1
10
57.648
20
32.67
11
58.71
21
35.082
0
LINE
8
1
10
58.71
20
35.082
11
59.781
21
43.408
0
LINE
8
1
10
59.781
20
43.408
11
59.019
21
44.169
0
LINE
8
1
10
59.019
20
44.169
11
55.973
21
41.123
0
LINE
8
1
10
55.973
20
41.123
11
55.212
21
40.362
0
LINE
8
1
10
55.212
20
40.362
11
55.212
21
38.077
0
LINE
8
1
10
55.212
20
38.077
11
54.45
21
37.315
0
LINE
8
1
10
54.45
20
37.315
11
54.45
21
36.554
0
LINE
8
1
10
65.112
20
32.746
11
70.618
21
21.44
0
LINE
8
1
10
70.618
20
21.44
11
71.965
21
19.8
0
LINE
8
1
10
76.535
20
40.362
11
74.783
21
44.093
0
LINE
8
1
10
74.783
20
44.093
11
71.965
21
56.354
0
LINE
8
1
10
71.965
20
56.354
11
71.965
21
57.877
0
LINE
8
1
10
71.965
20
57.877
11
72.955
21
60.085
0
LINE
8
1
10
72.955
20
60.085
11
73.488
21
60.923
0
LINE
8
1
10
73.488
20
60.923
11
81.104
21
58.638
0
LINE
8
1
10
81.104
20
58.638
11
81.865
21
57.877
0
LINE
8
1
10
81.865
20
57.877
11
82.627
21
57.115
0
LINE
8
1
10
82.627
20
57.115
11
82.92
21
54.128
0
LINE
8
1
10
82.92
20
54.128
11
85.064
21
48.815
0
LINE
8
1
10
85.064
20
48.815
11
85.825
21
47.292
0
LINE
8
1
10
85.825
20
47.292
11
86.435
21
45.692
0
LINE
8
1
10
86.435
20
45.692
11
88.719
21
43.408
0
LINE
8
1
10
88.719
20
43.408
11
94.096
21
41.443
0
LINE
8
1
10
94.096
20
41.443
11
98.574
21
40.803
0
LINE
8
1
10
98.574
20
40.803
11
99.381
21
40.362
0
LINE
8
1
10
-72.727
20
60.923
11
-75.621
21
66.33
0
LINE
8
1
10
-75.621
20
66.33
11
-78.058
21
70.062
0
LINE
8
1
10
-78.058
20
70.062
11
-81.104
21
73.108
0
LINE
8
1
10
-81.104
20
73.108
11
-85.749
21
74.478
0
LINE
8
1
10
-85.749
20
74.478
11
-87.196
21
74.631
0
LINE
8
1
10
-87.196
20
74.631
11
-88.719
21
71.585
0
LINE
8
1
10
-88.719
20
71.585
11
-89.481
21
70.062
0
LINE
8
1
10
-89.481
20
70.062
11
-94.05
21
65.492
0
LINE
8
1
10
-94.05
20
65.492
11
-97.858
21
64.731
0
LINE
8
1
10
-97.858
20
64.731
11
-98.619
21
63.969
0
LINE
8
1
10
-98.619
20
63.969
11
-99.381
21
63.208
0
LINE
8
1
10
-99.381
20
63.208
11
-100.904
21
62.446
0
LINE
8
1
10
-100.904
20
62.446
11
-106.235
21
62.446
0
LINE
8
1
10
-106.235
20
62.446
11
-106.996
21
63.208
0
LINE
8
1
10
-106.996
20
63.208
11
-109.975
21
63.476
0
LINE
8
1
10
-109.975
20
63.476
11
-115.449
21
64.578
0
LINE
8
1
10
-115.449
20
64.578
11
-119.181
21
67.777
0
LINE
8
1
10
-119.181
20
67.777
11
-119.942
21
67.777
0
LINE
8
1
10
-106.996
20
63.208
11
-104.712
21
69.3
0
LINE
8
1
10
-104.712
20
69.3
11
-104.712
21
71.585
0
LINE
8
1
10
-104.712
20
71.585
11
-108.343
21
77.794
0
LINE
8
1
10
-108.343
20
77.794
11
-110.042
21
79.962
0
LINE
8
1
10
-110.042
20
79.962
11
-116.896
21
83.008
0
LINE
8
1
10
-116.896
20
83.008
11
-119.181
21
83.008
0
LINE
8
1
10
-119.181
20
83.008
11
-119.942
21
83.008
0
LINE
8
1
10
-120.704
20
85.292
11
-119.79
21
88.262
0
LINE
8
1
10
-119.79
20
88.262
11
-119.181
21
89.1
0
LINE
8
1
10
-119.181
20
89.1
11
-119.181
21
90.623
0
LINE
8
1
10
-119.181
20
90.623
11
-119.942
21
91.385
0
LINE
8
1
10
-119.942
20
91.385
11
-119.942
21
95.954
0
LINE
8
1
10
-119.942
20
95.954
11
-120.704
21
96.715
0
LINE
8
1
10
-120.704
20
96.715
11
-122.988
21
99.0
0
LINE
8
1
10
-122.988
20
99.0
11
-125.206
21
99.269
0
LINE
8
1
10
-125.206
20
99.269
11
-126.035
21
99.762
0
LINE
8
1
10
-129.842
20
94.431
11
-128.319
21
94.431
0
LINE
8
1
10
-128.319
20
94.431
11
-126.035
21
92.146
0
LINE
8
1
10
-126.035
20
92.146
11
-126.035
21
88.338
0
LINE
8
1
10
-126.035
20
88.338
11
-126.796
21
87.577
0
LINE
8
1
10
-126.796
20
87.577
11
-126.796
21
86.815
0
LINE
8
1
10
-116.135
20
57.877
11
-111.565
21
55.592
0
LINE
8
1
10
-111.565
20
55.592
11
-100.904
21
55.592
0
LINE
8
1
10
-100.904
20
55.592
11
-94.126
21
58.029
0
LINE
8
1
10
-94.126
20
58.029
11
-90.887
21
59.986
0
LINE
8
1
10
-90.887
20
59.986
11
-87.958
21
62.446
0
LINE
8
1
10
-87.958
20
62.446
11
-87.196
21
63.969
0
LINE
8
1
10
-87.196
20
63.969
11
-85.902
21
63.132
0
LINE
8
1
10
-85.902
20
63.132
11
-83.388
21
55.592
0
LINE
8
1
10
-83.388
20
55.592
11
-83.388
21
54.831
0
LINE
8
1
10
-98.619
20
64.731
11
-100.066
21
65.645
0
LINE
8
1
10
-100.066
20
65.645
11
-102.427
21
67.015
0
LINE
8
1
10
-102.427
20
67.015
11
-103.95
21
69.3
0
LINE
8
1
10
-103.95
20
69.3
11
-104.712
21
69.3
0
LINE
8
1
10
-104.712
20
71.585
11
-103.188
21
73.108
0
LINE
8
1
10
-103.188
20
73.108
11
-103.188
21
75.392
0
LINE
8
1
10
-103.188
20
75.392
11
-101.483
21
77.54
0
LINE
8
1
10
-101.483
20
77.54
11
-98.619
21
81.485
0
LINE
8
1
10
-98.619
20
81.485
11
-95.573
21
83.769
0
LINE
8
1
10
-95.573
20
83.769
11
-93.288
21
84.531
0
LINE
8
1
10
-93.288
20
84.531
11
-92.527
21
85.292
0
LINE
8
1
10
-92.527
20
85.292
11
-91.765
21
86.054
0
LINE
8
1
10
-91.765
20
86.054
11
-93.288
21
87.577
0
LINE
8
1
10
-93.288
20
87.577
11
-95.573
21
87.577
0
LINE
8
1
10
-95.573
20
87.577
11
-99.381
21
90.623
0
LINE
8
1
10
-99.381
20
90.623
11
-100.142
21
92.908
0
LINE
8
1
10
-100.142
20
92.908
11
-100.904
21
93.669
0
LINE
8
1
10
-100.904
20
93.669
11
-102.427
21
93.669
0
LINE
8
1
10
-102.427
20
93.669
11
-103.188
21
92.908
0
LINE
8
1
10
-103.188
20
92.908
11
-111.489
21
90.471
0
LINE
8
1
10
-111.489
20
90.471
11
-112.327
21
89.862
0
LINE
8
1
10
-112.327
20
89.862
11
-113.088
21
89.1
0
LINE
8
1
10
-113.088
20
89.1
11
-113.698
21
86.739
0
LINE
8
1
10
-113.698
20
86.739
11
-114.612
21
85.292
0
LINE
8
1
10
-114.612
20
85.292
11
-116.896
21
83.769
0
LINE
8
1
10
-116.896
20
83.769
11
-116.896
21
83.008
0
LINE
8
1
10
-92.527
20
84.531
11
-91.004
21
83.008
0
LINE
8
1
10
-91.004
20
83.008
11
-90.242
21
83.008
0
LINE
8
1
10
-88.719
20
71.585
11
-87.196
21
70.062
0
LINE
8
1
10
-87.196
20
70.062
11
-87.196
21
64.731
0
LINE
8
1
10
-87.196
20
64.731
11
-87.196
21
63.969
0
LINE
8
1
10
-87.196
20
74.631
11
-85.673
21
77.677
0
LINE
8
1
10
-85.673
20
77.677
11
-76.535
21
76.915
0
LINE
8
1
10
-76.535
20
76.915
11
-75.773
21
76.154
0
LINE
8
1
10
-75.773
20
76.154
11
-74.25
21
75.392
0
LINE
8
1
10
-74.25
20
75.392
11
-68.919
21
70.062
0
LINE
8
1
10
-68.919
20
70.062
11
-68.158
21
67.777
0
LINE
8
1
10
-85.673
20
77.677
11
-82.475
21
88.262
0
LINE
8
1
10
-82.475
20
88.262
11
-81.865
21
89.1
0
LINE
8
1
10
-81.865
20
89.1
11
-82.246
21
90.623
0
LINE
8
1
10
-82.246
20
90.623
11
-81.865
21
92.146
0
LINE
8
1
10
-81.865
20
92.146
11
-78.058
21
94.431
0
LINE
8
1
10
-78.058
20
94.431
11
-79.581
21
96.715
0
LINE
8
1
10
-79.581
20
96.715
11
-80.342
21
97.477
0
LINE
8
1
10
-80.342
20
97.477
11
-87.196
21
95.192
0
LINE
8
1
10
-87.196
20
95.192
11
-87.958
21
94.431
0
LINE
8
1
10
-87.958
20
94.431
11
-89.657
21
90.74
0
LINE
8
1
10
-89.657
20
90.74
11
-91.004
21
89.1
0
LINE
8
1
10
-91.004
20
89.1
11
-91.004
21
86.815
0
LINE
8
1
10
-91.004
20
86.815
11
-91.765
21
86.054
0
LINE
8
1
10
-91.004
20
89.1
11
-93.288
21
93.669
0
LINE
8
1
10
-93.288
20
93.669
11
-94.05
21
94.431
0
LINE
8
1
10
-94.05
20
94.431
11
-95.632
21
93.962
0
LINE
8
1
10
-95.632
20
93.962
11
-98.619
21
93.669
0
LINE
8
1
10
-98.619
20
93.669
11
-100.142
21
92.908
0
LINE
8
1
10
-75.773
20
76.915
11
-60.542
21
92.908
0
LINE
8
1
10
-60.542
20
92.908
11
-54.45
21
84.531
0
LINE
8
1
10
-54.45
20
84.531
11
-49.881
21
72.346
0
LINE
8
1
10
-49.881
20
72.346
11
-49.881
21
71.585
0
LINE
8
1
10
-49.881
20
62.446
11
-49.881
21
60.162
0
LINE
8
1
10
-49.881
20
60.162
11
-49.881
21
59.4
0
LINE
8
1
10
-49.881
20
66.254
11
-50.642
21
70.823
0
LINE
8
1
10
-50.642
20
70.823
11
-49.881
21
71.585
0
LINE
8
1
10
-49.881
20
71.585
11
-48.358
21
71.585
0
LINE
8
1
10
-48.358
20
71.585
11
-46.073
21
69.3
0
LINE
8
1
10
-46.073
20
69.3
11
-45.312
21
67.777
0
LINE
8
1
10
-45.312
20
67.777
11
-46.073
21
66.254
0
LINE
8
1
10
-54.45
20
84.531
11
-54.017
21
85.333
0
LINE
8
1
10
-54.017
20
85.333
11
-53.36
21
90.582
0
LINE
8
1
10
-53.36
20
90.582
11
-52.013
21
94.355
0
LINE
8
1
10
-52.013
20
94.355
11
-51.228
21
95.837
0
LINE
8
1
10
-51.228
20
95.837
11
-46.835
21
102.046
0
LINE
8
1
10
-46.835
20
102.046
11
-43.865
21
103.722
0
LINE
8
1
10
-43.865
20
103.722
11
-43.027
21
104.331
0
LINE
8
1
10
-43.027
20
104.331
11
-36.173
21
104.331
0
LINE
8
1
10
-36.173
20
104.331
11
-33.194
21
103.3
0
LINE
8
1
10
-33.194
20
103.3
11
-32.365
21
102.808
0
LINE
8
1
10
-32.365
20
102.808
11
-27.796
21
95.954
0
LINE
8
1
10
-27.796
20
95.954
11
-27.476
21
91.43
0
LINE
8
1
10
-27.476
20
91.43
11
-26.273
21
85.292
0
LINE
8
1
10
-26.273
20
85.292
11
-24.75
21
83.769
0
LINE
8
1
10
-37.696
20
59.4
11
-45.312
21
61.685
0
LINE
8
1
10
-45.312
20
67.777
11
-43.788
21
67.015
0
LINE
8
1
10
-43.788
20
67.015
11
-39.219
21
67.015
0
LINE
8
1
10
-39.219
20
67.015
11
-37.696
21
67.015
0
LINE
8
1
10
-37.696
20
67.015
11
-33.051
21
68.386
0
LINE
8
1
10
-33.051
20
68.386
11
-29.319
21
70.062
0
LINE
8
1
10
-29.319
20
70.062
11
-26.273
21
73.108
0
LINE
8
1
10
-26.273
20
73.108
11
-25.74
21
74.707
0
LINE
8
1
10
-25.74
20
74.707
11
-25.512
21
76.154
0
LINE
8
1
10
-25.512
20
76.154
11
-26.273
21
76.915
0
LINE
8
1
10
-26.273
20
76.915
11
-26.273
21
78.438
0
LINE
8
1
10
-26.273
20
78.438
11
-25.512
21
79.2
0
LINE
8
1
10
-25.512
20
79.2
11
-24.75
21
78.438
0
LINE
8
1
10
-24.75
20
78.438
11
-24.75
21
76.915
0
LINE
8
1
10
-24.75
20
76.915
11
-25.512
21
76.154
0
LINE
8
1
10
-20.942
20
70.823
11
-20.181
21
72.346
0
LINE
8
1
10
-20.181
20
72.346
11
-20.181
21
81.485
0
LINE
8
1
10
-20.181
20
81.485
11
-23.227
21
84.531
0
LINE
8
1
10
-23.227
20
84.531
11
-24.75
21
83.769
0
LINE
8
1
10
-24.75
20
83.769
11
-26.273
21
81.485
0
LINE
8
1
10
-26.273
20
81.485
11
-27.62
21
83.125
0
LINE
8
1
10
-27.62
20
83.125
11
-29.472
21
87.501
0
LINE
8
1
10
-29.472
20
87.501
11
-29.928
21
88.415
0
LINE
8
1
10
-29.928
20
88.415
11
-34.65
21
95.192
0
LINE
8
1
10
-34.65
20
95.192
11
-37.052
21
96.54
0
LINE
8
1
10
-37.052
20
96.54
11
-40.742
21
98.238
0
LINE
8
1
10
-40.742
20
98.238
11
-42.383
21
96.891
0
LINE
8
1
10
-42.383
20
96.891
11
-43.788
21
95.954
0
LINE
8
1
10
-43.788
20
95.954
11
-46.073
21
91.385
0
LINE
8
1
10
-46.073
20
91.385
11
-46.073
21
85.292
0
LINE
8
1
10
-46.073
20
85.292
11
-42.494
21
75.316
0
LINE
8
1
10
-42.494
20
75.316
11
-41.961
21
74.022
0
LINE
8
1
10
-41.961
20
74.022
11
-38.458
21
67.777
0
LINE
8
1
10
-38.458
20
67.777
11
-38.458
21
67.015
0
LINE
8
1
10
-25.512
20
79.2
11
-25.512
21
80.723
0
LINE
8
1
10
-25.512
20
80.723
11
-26.273
21
81.485
0
LINE
8
1
10
-9.519
20
67.015
11
-9.672
21
68.462
0
LINE
8
1
10
-9.672
20
68.462
11
-16.525
21
79.124
0
LINE
8
1
10
-16.525
20
79.124
11
-19.126
21
87.636
0
LINE
8
1
10
-19.126
20
87.636
11
-19.712
21
90.564
0
LINE
8
1
10
-19.712
20
90.564
11
-20.181
21
91.385
0
LINE
8
1
10
-20.181
20
91.385
11
-20.181
21
96.715
0
LINE
8
1
10
-20.181
20
96.715
11
-17.668
21
108.062
0
LINE
8
1
10
-17.668
20
108.062
11
-17.135
21
109.662
0
LINE
8
1
10
-17.135
20
109.662
11
-16.373
21
110.423
0
LINE
8
1
10
-16.373
20
110.423
11
-15.612
21
111.185
0
LINE
8
1
10
-15.612
20
111.185
11
-13.327
21
111.185
0
LINE
8
1
10
-13.327
20
111.185
11
-12.565
21
110.423
0
LINE
8
1
10
-12.565
20
110.423
11
-12.858
21
107.436
0
LINE
8
1
10
-12.858
20
107.436
11
-16.373
21
97.477
0
LINE
8
1
10
-16.373
20
97.477
11
-16.373
21
90.623
0
LINE
8
1
10
-16.373
20
90.623
11
-13.327
21
84.531
0
LINE
8
1
10
-13.327
20
84.531
11
-11.804
21
83.008
0
LINE
8
1
10
-11.804
20
83.008
11
-3.427
21
77.677
0
LINE
8
1
10
-3.427
20
77.677
11
-2.665
21
76.154
0
LINE
8
1
10
-2.665
20
76.154
11
-2.357
21
72.398
0
LINE
8
1
10
-2.357
20
72.398
11
-1.142
21
69.3
0
LINE
8
1
10
-1.142
20
69.3
11
-0.381
21
68.538
0
LINE
8
1
10
-0.381
20
68.538
11
3.427
21
68.538
0
LINE
8
1
10
3.427
20
68.538
11
4.95
21
69.3
0
LINE
8
1
10
4.95
20
69.3
11
6.473
21
70.823
0
LINE
8
1
10
6.473
20
70.823
11
7.996
21
74.631
0
LINE
8
1
10
7.996
20
74.631
11
8.758
21
75.392
0
LINE
8
1
10
8.758
20
75.392
11
13.268
21
76.447
0
LINE
8
1
10
13.268
20
76.447
11
18.582
21
78.591
0
LINE
8
1
10
18.582
20
78.591
11
20.181
21
79.2
0
LINE
8
1
10
20.181
20
79.2
11
20.942
21
78.438
0
LINE
8
1
10
20.942
20
78.438
11
20.674
21
76.221
0
LINE
8
1
10
20.674
20
76.221
11
19.419
21
72.346
0
LINE
8
1
10
19.419
20
72.346
11
18.658
21
71.585
0
LINE
8
1
10
18.658
20
71.585
11
13.906
21
66.391
0
LINE
8
1
10
13.906
20
66.391
11
11.804
21
63.208
0
LINE
8
1
10
11.804
20
63.208
11
7.996
21
59.4
0
LINE
8
1
10
7.996
20
59.4
11
6.473
21
58.638
0
LINE
8
1
10
7.996
20
75.392
11
-1.904
21
76.915
0
LINE
8
1
10
-1.904
20
76.915
11
-2.665
21
76.154
0
LINE
8
1
10
19.419
20
71.585
11
20.181
21
70.062
0
LINE
8
1
10
20.181
20
70.062
11
20.181
21
67.777
0
LINE
8
1
10
20.181
20
67.777
11
19.572
21
66.939
0
LINE
8
1
10
19.572
20
66.939
11
19.419
21
65.492
0
LINE
8
1
10
20.942
20
79.2
11
25.323
21
84.692
0
LINE
8
1
10
25.323
20
84.692
11
29.143
21
89.979
0
LINE
8
1
10
29.143
20
89.979
11
39.402
21
111.809
0
LINE
8
1
10
39.402
20
111.809
11
43.788
21
118.038
0
LINE
8
1
10
43.788
20
118.038
11
41.504
21
121.085
0
LINE
8
1
10
41.504
20
121.085
11
39.219
21
121.085
0
LINE
8
1
10
39.219
20
121.085
11
36.021
21
117.353
0
LINE
8
1
10
36.021
20
117.353
11
24.567
21
95.329
0
LINE
8
1
10
24.567
20
95.329
11
22.313
21
92.222
0
LINE
8
1
10
22.313
20
92.222
11
21.704
21
90.623
0
LINE
8
1
10
21.704
20
90.623
11
20.181
21
89.1
0
LINE
8
1
10
20.181
20
89.1
11
17.779
21
87.753
0
LINE
8
1
10
17.779
20
87.753
11
11.752
21
84.84
0
LINE
8
1
10
11.752
20
84.84
11
7.235
21
83.769
0
LINE
8
1
10
7.235
20
83.769
11
4.188
21
83.769
0
LINE
8
1
10
4.188
20
83.769
11
-0.457
21
85.064
0
LINE
8
1
10
-0.457
20
85.064
11
-1.828
21
85.521
0
LINE
8
1
10
-1.828
20
85.521
11
-4.95
21
86.815
0
LINE
8
1
10
-4.95
20
86.815
11
-7.235
21
89.1
0
LINE
8
1
10
-7.235
20
89.1
11
-8.148
21
91.308
0
LINE
8
1
10
-8.148
20
91.308
11
-8.529
21
92.222
0
LINE
8
1
10
-8.529
20
92.222
11
-9.519
21
94.431
0
LINE
8
1
10
-9.519
20
94.431
11
-9.519
21
95.954
0
LINE
8
1
10
-9.519
20
95.954
11
-7.996
21
97.477
0
LINE
8
1
10
-7.996
20
97.477
11
-7.668
21
102.767
0
LINE
8
1
10
-7.668
20
102.767
11
-6.321
21
107.301
0
LINE
8
1
10
-6.321
20
107.301
11
-5.712
21
108.138
0
LINE
8
1
10
-5.712
20
108.138
11
-6.473
21
108.9
0
LINE
8
1
10
-6.473
20
108.9
11
-6.473
21
111.946
0
LINE
8
1
10
-6.473
20
111.946
11
-7.235
21
112.708
0
LINE
8
1
10
-7.235
20
112.708
11
-9.519
21
112.708
0
LINE
8
1
10
-9.519
20
112.708
11
-11.159
21
111.36
0
LINE
8
1
10
-11.159
20
111.36
11
-12.565
21
111.185
0
LINE
8
1
10
33.888
20
66.254
11
35.704
21
76.857
0
LINE
8
1
10
35.704
20
76.857
11
40.209
21
93.593
0
LINE
8
1
10
40.209
20
93.593
11
42.265
21
97.477
0
LINE
8
1
10
42.265
20
97.477
11
44.322
21
88.262
0
LINE
8
1
10
44.322
20
88.262
11
46.682
21
82.17
0
LINE
8
1
10
46.682
20
82.17
11
48.182
21
79.844
0
LINE
8
1
10
48.182
20
79.844
11
52.927
21
74.631
0
LINE
8
1
10
52.927
20
74.631
11
55.135
21
73.717
0
LINE
8
1
10
55.135
20
73.717
11
55.973
21
73.108
0
LINE
8
1
10
55.973
20
73.108
11
67.396
21
73.108
0
LINE
8
1
10
67.396
20
73.108
11
73.488
21
75.392
0
LINE
8
1
10
73.488
20
75.392
11
74.25
21
74.631
0
LINE
8
1
10
74.25
20
74.631
11
74.25
21
73.108
0
LINE
8
1
10
74.25
20
73.108
11
73.488
21
71.585
0
LINE
8
1
10
73.488
20
71.585
11
73.488
21
70.062
0
LINE
8
1
10
73.488
20
70.062
11
72.727
21
69.3
0
LINE
8
1
10
72.727
20
69.3
11
69.681
21
64.731
0
LINE
8
1
10
69.681
20
64.731
11
64.35
21
55.592
0
LINE
8
1
10
76.535
20
79.962
11
78.643
21
83.125
0
LINE
8
1
10
78.643
20
83.125
11
80.342
21
87.577
0
LINE
8
1
10
80.342
20
87.577
11
80.342
21
89.1
0
LINE
8
1
10
80.342
20
89.1
11
79.581
21
89.862
0
LINE
8
1
10
81.865
20
58.638
11
82.627
21
64.731
0
LINE
8
1
10
82.627
20
64.731
11
83.388
21
65.492
0
LINE
8
1
10
83.388
20
65.492
11
87.145
21
65.801
0
LINE
8
1
10
87.145
20
65.801
11
90.175
21
66.523
0
LINE
8
1
10
90.175
20
66.523
11
97.741
21
68.714
0
LINE
8
1
10
97.741
20
68.714
11
102.427
21
72.346
0
LINE
8
1
10
102.427
20
72.346
11
105.61
21
70.244
0
LINE
8
1
10
105.61
20
70.244
11
107.758
21
69.3
0
LINE
8
1
10
107.758
20
69.3
11
108.519
21
68.538
0
LINE
8
1
10
108.519
20
68.538
11
107.758
21
65.492
0
LINE
8
1
10
107.758
20
65.492
11
103.188
21
60.923
0
LINE
8
1
10
103.188
20
60.923
11
100.787
21
59.576
0
LINE
8
1
10
100.787
20
59.576
11
97.799
21
58.17
0
LINE
8
1
10
97.799
20
58.17
11
94.05
21
57.115
0
LINE
8
1
10
94.05
20
57.115
11
91.765
21
57.115
0
LINE
8
1
10
91.765
20
57.115
11
91.004
21
57.877
0
LINE
8
1
10
91.004
20
57.877
11
83.388
21
57.877
0
LINE
8
1
10
83.388
20
57.877
11
82.627
21
57.115
0
LINE
8
1
10
73.488
20
60.923
11
70.442
21
63.969
0
LINE
8
1
10
70.442
20
63.969
11
69.681
21
63.969
0
LINE
8
1
10
73.488
20
69.3
11
74.894
21
68.363
0
LINE
8
1
10
74.894
20
68.363
11
81.18
21
65.645
0
LINE
8
1
10
81.18
20
65.645
11
82.627
21
65.492
0
LINE
8
1
10
82.627
20
65.492
11
83.388
21
70.823
0
LINE
8
1
10
83.388
20
70.823
11
82.586
21
71.257
0
LINE
8
1
10
82.586
20
71.257
11
77.337
21
71.913
0
LINE
8
1
10
77.337
20
71.913
11
75.849
21
72.498
0
LINE
8
1
10
75.849
20
72.498
11
75.012
21
73.108
0
LINE
8
1
10
75.012
20
73.108
11
74.25
21
73.108
0
LINE
8
1
10
74.25
20
75.392
11
76.535
21
77.677
0
LINE
8
1
10
76.535
20
77.677
11
76.535
21
79.962
0
LINE
8
1
10
76.535
20
79.962
11
75.773
21
80.723
0
LINE
8
1
10
75.773
20
80.723
11
73.336
21
79.505
0
LINE
8
1
10
73.336
20
79.505
11
68.919
21
77.677
0
LINE
8
1
10
68.919
20
77.677
11
59.019
21
77.677
0
LINE
8
1
10
59.019
20
77.677
11
57.379
21
79.024
0
LINE
8
1
10
57.379
20
79.024
11
51.404
21
84.531
0
LINE
8
1
10
51.404
20
84.531
11
50.871
21
86.13
0
LINE
8
1
10
50.871
20
86.13
11
49.454
21
91.422
0
LINE
8
1
10
49.454
20
91.422
11
48.358
21
104.331
0
LINE
8
1
10
48.358
20
104.331
11
48.358
21
105.854
0
LINE
8
1
10
48.358
20
105.854
11
50.642
21
109.662
0
LINE
8
1
10
50.642
20
109.662
11
52.165
21
109.662
0
LINE
8
1
10
52.165
20
109.662
11
51.857
21
105.144
0
LINE
8
1
10
51.857
20
105.144
11
51.404
21
104.331
0
LINE
8
1
10
51.404
20
104.331
11
51.404
21
98.238
0
LINE
8
1
10
51.404
20
98.238
11
54.298
21
88.262
0
LINE
8
1
10
54.298
20
88.262
11
55.973
21
85.292
0
LINE
8
1
10
55.973
20
85.292
11
59.705
21
82.855
0
LINE
8
1
10
59.705
20
82.855
11
61.228
21
82.094
0
LINE
8
1
10
61.228
20
82.094
11
62.065
21
81.485
0
LINE
8
1
10
62.065
20
81.485
11
69.681
21
81.485
0
LINE
8
1
10
69.681
20
81.485
11
70.518
21
82.094
0
LINE
8
1
10
70.518
20
82.094
11
72.727
21
83.008
0
LINE
8
1
10
72.727
20
83.008
11
77.296
21
87.577
0
LINE
8
1
10
77.296
20
87.577
11
78.743
21
89.252
0
LINE
8
1
10
78.743
20
89.252
11
79.581
21
89.862
0
LINE
8
1
10
79.581
20
89.862
11
81.104
21
92.146
0
LINE
8
1
10
81.104
20
92.146
11
81.104
21
97.477
0
LINE
8
1
10
81.104
20
97.477
11
79.428
21
100.447
0
LINE
8
1
10
79.428
20
100.447
11
78.058
21
103.569
0
LINE
8
1
10
78.058
20
103.569
11
74.25
21
107.377
0
LINE
8
1
10
74.25
20
107.377
11
71.067
21
109.479
0
LINE
8
1
10
71.067
20
109.479
11
62.903
21
114.383
0
LINE
8
1
10
62.903
20
114.383
11
59.019
21
115.754
0
LINE
8
1
10
59.019
20
115.754
11
62.065
21
118.8
0
LINE
8
1
10
62.065
20
118.8
11
67.396
21
119.562
0
LINE
8
1
10
67.396
20
119.562
11
68.158
21
118.8
0
LINE
8
1
10
68.158
20
118.8
11
71.052
21
116.972
0
LINE
8
1
10
71.052
20
116.972
11
75.012
21
114.992
0
LINE
8
1
10
75.012
20
114.992
11
80.342
21
109.662
0
LINE
8
1
10
80.342
20
109.662
11
81.561
21
107.225
0
LINE
8
1
10
81.561
20
107.225
11
84.302
21
98.315
0
LINE
8
1
10
84.302
20
98.315
11
84.619
21
97.418
0
LINE
8
1
10
84.619
20
97.418
11
85.673
21
93.669
0
LINE
8
1
10
85.673
20
93.669
11
85.673
21
79.2
0
LINE
8
1
10
85.673
20
79.2
11
85.22
21
78.387
0
LINE
8
1
10
85.22
20
78.387
11
84.15
21
73.108
0
LINE
8
1
10
84.15
20
73.108
11
84.15
21
71.585
0
LINE
8
1
10
84.15
20
71.585
11
83.388
21
70.823
0
LINE
8
1
10
84.15
20
72.346
11
88.034
21
72.955
0
LINE
8
1
10
88.034
20
72.955
11
91.765
21
74.631
0
LINE
8
1
10
91.765
20
74.631
11
95.573
21
78.438
0
LINE
8
1
10
95.573
20
78.438
11
96.335
21
79.962
0
LINE
8
1
10
96.335
20
79.962
11
102.427
21
73.108
0
LINE
8
1
10
102.427
20
73.108
11
102.427
21
72.346
0
LINE
8
1
10
96.335
20
79.962
11
92.796
21
89.929
0
LINE
8
1
10
92.796
20
89.929
11
88.491
21
102.732
0
LINE
8
1
10
88.491
20
102.732
11
88.11
21
103.645
0
LINE
8
1
10
88.11
20
103.645
11
84.736
21
109.544
0
LINE
8
1
10
84.736
20
109.544
11
83.388
21
111.185
0
LINE
8
1
10
83.388
20
111.185
11
83.388
21
113.469
0
LINE
8
1
10
83.388
20
113.469
11
82.627
21
114.231
0
LINE
8
1
10
82.627
20
114.231
11
78.956
21
116.698
0
LINE
8
1
10
78.956
20
116.698
11
76.535
21
118.8
0
LINE
8
1
10
76.535
20
118.8
11
71.204
21
121.846
0
LINE
8
1
10
71.204
20
121.846
11
72.879
21
124.816
0
LINE
8
1
10
72.879
20
124.816
11
74.25
21
127.177
0
LINE
8
1
10
74.25
20
127.177
11
74.25
21
131.746
0
LINE
8
1
10
74.25
20
131.746
11
73.717
21
132.584
0
LINE
8
1
10
73.717
20
132.584
11
73.488
21
134.031
0
LINE
8
1
10
73.488
20
134.031
11
71.204
21
136.315
0
LINE
8
1
10
71.204
20
136.315
11
69.681
21
136.315
0
LINE
8
1
10
69.681
20
136.315
11
67.396
21
136.315
0
LINE
8
1
10
67.396
20
136.315
11
65.112
21
134.031
0
LINE
8
1
10
65.112
20
134.031
11
65.112
21
132.508
0
LINE
8
1
10
65.112
20
132.508
11
65.873
21
131.746
0
LINE
8
1
10
65.873
20
131.746
11
66.635
21
130.985
0
LINE
8
1
10
66.635
20
130.985
11
68.919
21
130.985
0
LINE
8
1
10
-103.188
20
93.669
11
-106.235
21
96.715
0
LINE
8
1
10
-106.235
20
96.715
11
-107.758
21
96.715
0
LINE
8
1
10
-107.758
20
96.715
11
-108.519
21
95.954
0
LINE
8
1
10
-108.519
20
95.954
11
-113.012
21
97.629
0
LINE
8
1
10
-113.012
20
97.629
11
-113.85
21
98.238
0
LINE
8
1
10
-113.85
20
98.238
11
-117.658
21
98.238
0
LINE
8
1
10
-117.658
20
98.238
11
-119.181
21
96.715
0
LINE
8
1
10
-119.181
20
96.715
11
-119.942
21
96.715
0
LINE
8
1
10
-119.181
20
89.862
11
-116.896
21
90.623
0
LINE
8
1
10
-116.896
20
90.623
11
-113.85
21
90.623
0
LINE
8
1
10
-113.85
20
90.623
11
-113.088
21
89.862
0
LINE
8
1
10
-102.427
20
97.477
11
-100.904
21
97.477
0
LINE
8
1
10
-100.904
20
97.477
11
-99.381
21
96.715
0
LINE
8
1
10
-99.381
20
96.715
11
-99.381
21
94.431
0
LINE
8
1
10
-99.381
20
94.431
11
-99.381
21
93.669
0
LINE
8
1
10
-106.996
20
96.715
11
-106.996
21
99.762
0
LINE
8
1
10
-106.996
20
99.762
11
-107.758
21
100.523
0
LINE
8
1
10
-107.758
20
100.523
11
-109.281
21
100.523
0
LINE
8
1
10
-113.85
20
98.238
11
-114.459
21
99.838
0
LINE
8
1
10
-114.459
20
99.838
11
-115.982
21
103.645
0
LINE
8
1
10
-115.982
20
103.645
11
-116.135
21
104.331
0
LINE
8
1
10
-119.181
20
103.569
11
-117.658
21
98.238
0
LINE
8
1
10
-107.758
20
100.523
11
-108.066
21
105.041
0
LINE
8
1
10
-108.066
20
105.041
11
-109.509
21
109.585
0
LINE
8
1
10
-109.509
20
109.585
11
-110.042
21
110.423
0
LINE
8
1
10
-110.042
20
110.423
11
-110.042
21
111.185
0
LINE
8
1
10
-93.288
20
93.669
11
-91.765
21
95.192
0
LINE
8
1
10
-91.765
20
95.192
11
-88.719
21
95.573
0
LINE
8
1
10
-88.719
20
95.573
11
-87.958
21
95.192
0
LINE
8
1
10
-96.335
20
103.569
11
-90.279
21
103.904
0
LINE
8
1
10
-90.279
20
103.904
11
-70.442
21
107.377
0
LINE
8
1
10
-70.442
20
107.377
11
-69.072
21
106.539
0
LINE
8
1
10
-69.072
20
106.539
11
-66.863
21
102.732
0
LINE
8
1
10
-66.863
20
102.732
11
-66.635
21
101.285
0
LINE
8
1
10
-66.635
20
101.285
11
-65.873
21
100.523
0
LINE
8
1
10
-65.873
20
100.523
11
-64.35
21
99.762
0
LINE
8
1
10
-64.35
20
99.762
11
-62.065
21
97.477
0
LINE
8
1
10
-62.065
20
97.477
11
-60.847
21
95.04
0
LINE
8
1
10
-60.847
20
95.04
11
-60.542
21
93.669
0
LINE
8
1
10
-60.542
20
93.669
11
-60.542
21
92.908
0
LINE
8
1
10
-100.142
20
97.477
11
-100.904
21
99.0
0
LINE
8
1
10
-100.904
20
99.0
11
-100.904
21
101.285
0
LINE
8
1
10
-100.904
20
101.285
11
-100.142
21
102.046
0
LINE
8
1
10
-84.15
20
118.8
11
-79.581
21
120.323
0
LINE
8
1
10
-79.581
20
120.323
11
-75.621
21
126.339
0
LINE
8
1
10
-75.621
20
126.339
11
-75.164
21
127.253
0
LINE
8
1
10
-75.164
20
127.253
11
-72.727
21
130.223
0
LINE
8
1
10
-72.727
20
130.223
11
-72.118
21
129.385
0
LINE
8
1
10
-72.118
20
129.385
11
-70.442
21
127.177
0
LINE
8
1
10
-70.442
20
127.177
11
-70.442
21
123.369
0
LINE
8
1
10
-70.442
20
123.369
11
-72.727
21
119.562
0
LINE
8
1
10
-72.727
20
119.562
11
-77.296
21
114.992
0
LINE
8
1
10
-77.296
20
114.992
11
-82.551
21
112.479
0
LINE
8
1
10
-82.551
20
112.479
11
-84.15
21
111.946
0
LINE
8
1
10
-84.15
20
111.946
11
-84.912
21
112.708
0
LINE
8
1
10
-84.912
20
112.708
11
-84.912
21
117.277
0
LINE
8
1
10
-84.912
20
117.277
11
-84.15
21
118.038
0
LINE
8
1
10
-84.15
20
118.038
11
-84.15
21
118.8
0
LINE
8
1
10
-84.15
20
118.8
11
-85.334
21
124.165
0
LINE
8
1
10
-85.334
20
124.165
11
-86.012
21
130.951
0
LINE
8
1
10
-86.012
20
130.951
11
-89.188
21
153.128
0
LINE
8
1
10
-89.188
20
153.128
11
-90.242
21
156.877
0
LINE
8
1
10
-90.242
20
156.877
11
-90.242
21
162.969
0
LINE
8
1
10
-90.242
20
162.969
11
-89.801
21
163.776
0
LINE
8
1
10
-89.801
20
163.776
11
-89.481
21
168.3
0
LINE
8
1
10
-89.481
20
168.3
11
-90.242
21
169.062
0
LINE
8
1
10
-90.242
20
169.062
11
-91.765
21
168.3
0
LINE
8
1
10
-91.765
20
168.3
11
-95.573
21
168.3
0
LINE
8
1
10
-95.573
20
168.3
11
-98.695
21
169.671
0
LINE
8
1
10
-98.695
20
169.671
11
-100.904
21
171.346
0
LINE
8
1
10
-100.904
20
171.346
11
-100.904
21
173.631
0
LINE
8
1
10
-100.904
20
173.631
11
-100.142
21
174.392
0
LINE
8
1
10
-100.142
20
174.392
11
-96.335
21
177.438
0
LINE
8
1
10
-96.335
20
177.438
11
-92.714
21
182.164
0
LINE
8
1
10
-92.714
20
182.164
11
-90.471
21
185.892
0
LINE
8
1
10
-90.471
20
185.892
11
-85.14
21
205.692
0
LINE
8
1
10
-85.14
20
205.692
11
-83.084
21
211.555
0
LINE
8
1
10
-83.084
20
211.555
11
-82.041
21
213.348
0
LINE
8
1
10
-82.041
20
213.348
11
-78.058
21
220.085
0
LINE
8
1
10
-78.058
20
220.085
11
-69.681
21
228.462
0
LINE
8
1
10
-69.681
20
228.462
11
-55.914
21
235.022
0
LINE
8
1
10
-55.914
20
235.022
11
-52.986
21
235.608
0
LINE
8
1
10
-52.986
20
235.608
11
-44.626
21
237.752
0
LINE
8
1
10
-44.626
20
237.752
11
-43.788
21
238.362
0
LINE
8
1
10
-43.788
20
238.362
11
-44.55
21
239.885
0
LINE
8
1
10
-44.55
20
239.885
11
-44.55
21
243.692
0
LINE
8
1
10
-44.55
20
243.692
11
-43.027
21
247.5
0
LINE
8
1
10
-43.027
20
247.5
11
-39.981
21
250.546
0
LINE
8
1
10
-39.981
20
250.546
11
-38.458
21
251.308
0
LINE
8
1
10
-38.458
20
251.308
11
-37.696
21
250.546
0
LINE
8
1
10
-37.696
20
250.546
11
-37.427
21
248.329
0
LINE
8
1
10
-37.427
20
248.329
11
-36.759
21
246.856
0
LINE
8
1
10
-36.759
20
246.856
11
-35.412
21
244.454
0
LINE
8
1
10
-35.412
20
244.454
11
-33.965
21
243.54
0
LINE
8
1
10
-33.965
20
243.54
11
-32.442
21
242.778
0
LINE
8
1
10
-32.442
20
242.778
11
-31.604
21
242.169
0
LINE
8
1
10
-31.604
20
242.169
11
-25.512
21
242.169
0
LINE
8
1
10
-25.512
20
242.169
11
-23.227
21
244.454
0
LINE
8
1
10
-23.227
20
244.454
11
-20.333
21
249.861
0
LINE
8
1
10
-20.333
20
249.861
11
-17.896
21
253.592
0
LINE
8
1
10
-17.896
20
253.592
11
-11.804
21
259.685
0
LINE
8
1
10
-11.804
20
259.685
11
-5.635
21
263.34
0
LINE
8
1
10
-5.635
20
263.34
11
-3.503
21
264.406
0
LINE
8
1
10
-3.503
20
264.406
11
5.712
21
267.3
0
LINE
8
1
10
5.712
20
267.3
11
11.042
21
267.3
0
LINE
8
1
10
11.042
20
267.3
11
14.021
21
266.27
0
LINE
8
1
10
14.021
20
266.27
11
19.343
21
264.102
0
LINE
8
1
10
19.343
20
264.102
11
28.441
21
257.224
0
LINE
8
1
10
28.441
20
257.224
11
30.081
21
255.877
0
LINE
8
1
10
30.081
20
255.877
11
32.298
21
255.608
0
LINE
8
1
10
32.298
20
255.608
11
33.127
21
255.115
0
LINE
8
1
10
33.127
20
255.115
11
40.742
21
255.115
0
LINE
8
1
10
40.742
20
255.115
11
41.58
21
255.648
0
LINE
8
1
10
41.58
20
255.648
11
43.027
21
255.877
0
LINE
8
1
10
43.027
20
255.877
11
46.073
21
258.923
0
LINE
8
1
10
46.073
20
258.923
11
46.073
21
260.446
0
LINE
8
1
10
-76.535
20
103.569
11
-78.819
21
103.569
0
LINE
8
1
10
-79.581
20
97.477
11
-78.743
21
98.086
0
LINE
8
1
10
-78.743
20
98.086
11
-68.843
21
100.295
0
LINE
8
1
10
-68.843
20
100.295
11
-67.396
21
100.523
0
LINE
8
1
10
-67.396
20
100.523
11
-66.635
21
99.762
0
LINE
8
1
10
-66.635
20
99.762
11
-67.396
21
98.238
0
LINE
8
1
10
-67.396
20
98.238
11
-80.418
21
90.014
0
LINE
8
1
10
-80.418
20
90.014
11
-81.865
21
89.862
0
LINE
8
1
10
-69.681
20
107.377
11
-70.595
21
109.585
0
LINE
8
1
10
-70.595
20
109.585
11
-71.965
21
112.708
0
LINE
8
1
10
-71.965
20
112.708
11
-71.965
21
115.754
0
LINE
8
1
10
-71.965
20
115.754
11
-71.204
21
116.515
0
LINE
8
1
10
-71.204
20
116.515
11
-69.681
21
116.515
0
LINE
8
1
10
-69.681
20
116.515
11
-68.919
21
114.992
0
LINE
8
1
10
-68.919
20
114.992
11
-68.919
21
113.469
0
LINE
8
1
10
-68.919
20
113.469
11
-67.396
21
113.469
0
LINE
8
1
10
-67.396
20
113.469
11
-66.635
21
112.708
0
LINE
8
1
10
-66.635
20
112.708
11
-65.112
21
111.185
0
LINE
8
1
10
-65.112
20
111.185
11
-62.827
21
108.138
0
LINE
8
1
10
-62.827
20
108.138
11
-62.827
21
106.615
0
LINE
8
1
10
-62.827
20
106.615
11
-61.304
21
106.615
0
LINE
8
1
10
-61.304
20
106.615
11
-55.973
21
99.762
0
LINE
8
1
10
-52.165
20
105.854
11
-56.735
21
114.992
0
LINE
8
1
10
-56.735
20
114.992
11
-57.496
21
115.754
0
LINE
8
1
10
-57.496
20
115.754
11
-62.065
21
114.992
0
LINE
8
1
10
-62.065
20
114.992
11
-63.588
21
113.469
0
LINE
8
1
10
-63.588
20
113.469
11
-65.112
21
111.185
0
LINE
8
1
10
-66.635
20
113.469
11
-66.635
21
116.515
0
LINE
8
1
10
-66.635
20
116.515
11
-67.396
21
117.277
0
LINE
8
1
10
-67.396
20
117.277
11
-68.919
21
116.515
0
LINE
8
1
10
-68.919
20
116.515
11
-69.681
21
116.515
0
LINE
8
1
10
-68.158
20
117.277
11
-68.919
21
121.846
0
LINE
8
1
10
-68.919
20
121.846
11
-69.681
21
122.608
0
LINE
8
1
10
-69.681
20
122.608
11
-70.442
21
122.608
0
LINE
8
1
10
-62.827
20
108.138
11
-61.304
21
108.138
0
LINE
8
1
10
-61.304
20
108.138
11
-61.304
21
106.615
0
LINE
8
1
10
-56.735
20
115.754
11
-55.973
21
116.515
0
LINE
8
1
10
-55.973
20
116.515
11
-57.496
21
118.038
0
LINE
8
1
10
-57.496
20
118.038
11
-61.797
21
134.86
0
LINE
8
1
10
-61.797
20
134.86
11
-62.334
21
137.01
0
LINE
8
1
10
-62.334
20
137.01
11
-66.182
21
156.064
0
LINE
8
1
10
-66.182
20
156.064
11
-67.396
21
163.731
0
LINE
8
1
10
-67.396
20
163.731
11
-67.396
21
177.438
0
LINE
8
1
10
-67.396
20
177.438
11
-64.883
21
188.024
0
LINE
8
1
10
-64.883
20
188.024
11
-63.817
21
191.984
0
LINE
8
1
10
-63.817
20
191.984
11
-61.128
21
198.644
0
LINE
8
1
10
-61.128
20
198.644
11
-59.957
21
200.402
0
LINE
8
1
10
-59.957
20
200.402
11
-52.165
21
208.662
0
LINE
8
1
10
-52.165
20
208.662
11
-44.474
21
212.317
0
LINE
8
1
10
-44.474
20
212.317
11
-42.342
21
213.383
0
LINE
8
1
10
-42.342
20
213.383
11
-28.558
21
217.038
0
LINE
8
1
10
-28.558
20
217.038
11
-22.465
21
217.038
0
LINE
8
1
10
-22.465
20
217.038
11
-17.948
21
215.968
0
LINE
8
1
10
-17.948
20
215.968
11
-17.067
21
215.784
0
LINE
8
1
10
-17.067
20
215.784
11
-8.875
21
213.055
0
LINE
8
1
10
-8.875
20
213.055
11
-5.635
21
211.175
0
LINE
8
1
10
-5.635
20
211.175
11
-4.188
21
210.946
0
LINE
8
1
10
-4.188
20
210.946
11
-3.427
21
211.708
0
LINE
8
1
10
-3.427
20
211.708
11
-1.904
21
213.231
0
LINE
8
1
10
-1.904
20
213.231
11
-3.251
21
215.633
0
LINE
8
1
10
-3.251
20
215.633
11
-4.95
21
220.085
0
LINE
8
1
10
-4.95
20
220.085
11
-4.95
21
226.938
0
LINE
8
1
10
-4.95
20
226.938
11
-4.341
21
227.776
0
LINE
8
1
10
-4.341
20
227.776
11
-3.427
21
229.985
0
LINE
8
1
10
-3.427
20
229.985
11
1.142
21
234.554
0
LINE
8
1
10
1.142
20
234.554
11
5.788
21
237.448
0
LINE
8
1
10
5.788
20
237.448
11
8.113
21
238.947
0
LINE
8
1
10
8.113
20
238.947
11
13.327
21
241.408
0
LINE
8
1
10
13.327
20
241.408
11
14.85
21
241.408
0
LINE
8
1
10
14.85
20
241.408
11
15.612
21
240.646
0
LINE
8
1
10
15.612
20
240.646
11
17.896
21
241.408
0
LINE
8
1
10
17.896
20
241.408
11
20.942
21
241.408
0
LINE
8
1
10
20.942
20
241.408
11
21.704
21
240.646
0
LINE
8
1
10
21.704
20
240.646
11
22.465
21
241.408
0
LINE
8
1
10
22.465
20
241.408
11
23.227
21
245.215
0
LINE
8
1
10
23.227
20
245.215
11
22.465
21
245.977
0
LINE
8
1
10
22.465
20
245.977
11
14.678
21
253.403
0
LINE
8
1
10
14.678
20
253.403
11
10.357
21
256.029
0
LINE
8
1
10
10.357
20
256.029
11
9.519
21
256.638
0
LINE
8
1
10
9.519
20
256.638
11
7.92
21
256.029
0
LINE
8
1
10
7.92
20
256.029
11
2.742
21
254.125
0
LINE
8
1
10
2.742
20
254.125
11
-6.397
21
250.394
0
LINE
8
1
10
-6.397
20
250.394
11
-9.519
21
249.023
0
LINE
8
1
10
-9.519
20
249.023
11
-16.373
21
242.169
0
LINE
8
1
10
-16.373
20
242.169
11
-18.389
21
238.294
0
LINE
8
1
10
-18.389
20
238.294
11
-19.419
21
235.315
0
LINE
8
1
10
-19.419
20
235.315
11
-19.419
21
230.746
0
LINE
8
1
10
-19.419
20
230.746
11
-18.926
21
229.917
0
LINE
8
1
10
-18.926
20
229.917
11
-18.658
21
227.7
0
LINE
8
1
10
-18.658
20
227.7
11
-17.135
21
225.415
0
LINE
8
1
10
-17.135
20
225.415
11
-17.135
21
224.654
0
LINE
8
1
10
-51.404
20
117.277
11
-55.973
21
116.515
0
LINE
8
1
10
-36.935
20
114.992
11
-36.173
21
115.754
0
LINE
8
1
10
-17.135
20
110.423
11
-20.942
21
108.9
0
LINE
8
1
10
-20.942
20
108.9
11
-21.552
21
108.062
0
LINE
8
1
10
-21.552
20
108.062
11
-26.806
21
98.162
0
LINE
8
1
10
-26.806
20
98.162
11
-27.796
21
95.954
0
LINE
8
1
10
-31.604
20
102.808
11
-31.604
21
106.615
0
LINE
8
1
10
-31.604
20
106.615
11
-32.365
21
107.377
0
LINE
8
1
10
-32.365
20
107.377
11
-34.467
21
109.799
0
LINE
8
1
10
-34.467
20
109.799
11
-36.782
21
113.545
0
LINE
8
1
10
-36.782
20
113.545
11
-36.935
21
114.992
0
LINE
8
1
10
-36.935
20
114.992
11
-39.219
21
114.992
0
LINE
8
1
10
-39.219
20
114.992
11
-42.265
21
118.038
0
LINE
8
1
10
-42.265
20
118.038
11
-43.613
21
120.44
0
LINE
8
1
10
-43.613
20
120.44
11
-45.136
21
122.725
0
LINE
8
1
10
-45.136
20
122.725
11
-46.835
21
125.654
0
LINE
8
1
10
-46.835
20
125.654
11
-50.642
21
129.462
0
LINE
8
1
10
-50.642
20
129.462
11
-52.165
21
129.462
0
LINE
8
1
10
-52.165
20
129.462
11
-52.927
21
128.7
0
LINE
8
1
10
-52.927
20
128.7
11
-53.688
21
127.177
0
LINE
8
1
10
-53.688
20
127.177
11
-53.688
21
123.369
0
LINE
8
1
10
-53.688
20
123.369
11
-52.394
21
120.247
0
LINE
8
1
10
-52.394
20
120.247
11
-51.404
21
118.038
0
LINE
8
1
10
-51.404
20
118.038
11
-45.312
21
108.9
0
LINE
8
1
10
-31.604
20
107.377
11
-27.863
21
108.407
0
LINE
8
1
10
-27.863
20
108.407
11
-23.988
21
109.662
0
LINE
8
1
10
-23.988
20
109.662
11
-21.704
21
109.662
0
LINE
8
1
10
-21.704
20
109.662
11
-20.942
21
108.9
0
LINE
8
1
10
-31.604
20
113.469
11
-31.604
21
114.992
0
LINE
8
1
10
-31.604
20
114.992
11
-36.173
21
115.754
0
LINE
8
1
10
-36.173
20
115.754
11
-38.458
21
119.562
0
LINE
8
1
10
-38.458
20
119.562
11
-38.458
21
121.846
0
LINE
8
1
10
-38.458
20
121.846
11
-37.468
21
124.055
0
LINE
8
1
10
-37.468
20
124.055
11
-36.173
21
127.938
0
LINE
8
1
10
-36.173
20
127.938
11
-36.935
21
128.7
0
LINE
8
1
10
-36.935
20
128.7
11
-38.458
21
127.938
0
LINE
8
1
10
-38.458
20
127.938
11
-41.504
21
124.892
0
LINE
8
1
10
-41.504
20
124.892
11
-43.788
21
121.085
0
LINE
8
1
10
-36.173
20
127.938
11
-35.335
21
128.548
0
LINE
8
1
10
-35.335
20
128.548
11
-31.741
21
130.406
0
LINE
8
1
10
-31.741
20
130.406
11
-29.319
21
132.508
0
LINE
8
1
10
-29.319
20
132.508
11
-26.273
21
133.269
0
LINE
8
1
10
-26.273
20
133.269
11
-22.465
21
133.269
0
LINE
8
1
10
-22.465
20
133.269
11
-21.637
21
132.776
0
LINE
8
1
10
-21.637
20
132.776
11
-19.419
21
132.508
0
LINE
8
1
10
-19.419
20
132.508
11
-18.658
21
131.746
0
LINE
8
1
10
-18.658
20
131.746
11
-15.797
21
128.551
0
LINE
8
1
10
-15.797
20
128.551
11
-14.698
21
126.492
0
LINE
8
1
10
-14.698
20
126.492
11
-14.088
21
125.654
0
LINE
8
1
10
-14.088
20
125.654
11
-14.088
21
124.131
0
LINE
8
1
10
-14.088
20
124.131
11
-14.85
21
123.369
0
LINE
8
1
10
-14.85
20
123.369
11
-14.85
21
119.562
0
LINE
8
1
10
-14.85
20
119.562
11
-15.612
21
118.038
0
LINE
8
1
10
-15.612
20
118.038
11
-20.181
21
118.038
0
LINE
8
1
10
-20.181
20
118.038
11
-20.942
21
118.8
0
LINE
8
1
10
-20.942
20
118.8
11
-20.181
21
120.323
0
LINE
8
1
10
-20.181
20
120.323
11
-20.181
21
124.892
0
LINE
8
1
10
-20.181
20
124.892
11
-21.704
21
126.415
0
LINE
8
1
10
-21.704
20
126.415
11
-24.75
21
126.415
0
LINE
8
1
10
-24.75
20
126.415
11
-25.588
21
125.806
0
LINE
8
1
10
-25.588
20
125.806
11
-28.558
21
123.369
0
LINE
8
1
10
-28.558
20
123.369
11
-28.558
21
119.562
0
LINE
8
1
10
-28.558
20
119.562
11
-27.035
21
118.038
0
LINE
8
1
10
-27.035
20
118.038
11
-31.604
21
115.754
0
LINE
8
1
10
-31.604
20
115.754
11
-31.604
21
114.992
0
LINE
8
1
10
-14.85
20
118.8
11
-9.595
21
119.79
0
LINE
8
1
10
-9.595
20
119.79
11
-8.758
21
120.323
0
LINE
8
1
10
-8.758
20
120.323
11
4.188
21
122.608
0
LINE
8
1
10
4.188
20
122.608
11
4.95
21
121.846
0
LINE
8
1
10
4.95
20
121.846
11
4.95
21
118.038
0
LINE
8
1
10
4.95
20
118.038
11
5.712
21
117.277
0
LINE
8
1
10
5.712
20
117.277
11
4.95
21
115.754
0
LINE
8
1
10
-14.088
20
115.754
11
-15.612
21
115.754
0
LINE
8
1
10
-15.612
20
115.754
11
-15.612
21
117.277
0
LINE
8
1
10
-15.612
20
117.277
11
-15.612
21
118.038
0
LINE
8
1
10
-20.942
20
118.038
11
-22.465
21
117.277
0
LINE
8
1
10
-22.465
20
117.277
11
-26.273
21
117.277
0
LINE
8
1
10
-26.273
20
117.277
11
-27.035
21
117.277
0
LINE
8
1
10
4.95
20
122.608
11
5.712
21
123.369
0
LINE
8
1
10
5.712
20
123.369
11
7.235
21
123.369
0
LINE
8
1
10
-5.712
20
108.138
11
-3.427
21
110.423
0
LINE
8
1
10
-3.427
20
110.423
11
-3.427
21
111.946
0
LINE
8
1
10
-3.427
20
111.946
11
-2.665
21
112.708
0
LINE
8
1
10
-2.665
20
112.708
11
-1.904
21
113.469
0
LINE
8
1
10
-1.904
20
113.469
11
1.142
21
115.754
0
LINE
8
1
10
1.142
20
115.754
11
2.665
21
114.992
0
LINE
8
1
10
2.665
20
114.992
11
4.188
21
115.754
0
LINE
8
1
10
4.188
20
115.754
11
4.95
21
114.992
0
LINE
8
1
10
4.95
20
114.992
11
5.712
21
114.231
0
LINE
8
1
10
5.712
20
114.231
11
8.699
21
113.938
0
LINE
8
1
10
8.699
20
113.938
11
9.519
21
113.469
0
LINE
8
1
10
9.519
20
113.469
11
15.612
21
113.469
0
LINE
8
1
10
15.612
20
113.469
11
24.065
21
115.602
0
LINE
8
1
10
24.065
20
115.602
11
27.035
21
117.277
0
LINE
8
1
10
27.035
20
117.277
11
27.796
21
116.515
0
LINE
8
1
10
27.796
20
116.515
11
27.568
21
115.068
0
LINE
8
1
10
27.568
20
115.068
11
24.926
21
110.306
0
LINE
8
1
10
24.926
20
110.306
11
21.475
21
102.122
0
LINE
8
1
10
21.475
20
102.122
11
19.267
21
97.553
0
LINE
8
1
10
19.267
20
97.553
11
17.135
21
93.669
0
LINE
8
1
10
17.135
20
93.669
11
14.088
21
90.623
0
LINE
8
1
10
14.088
20
90.623
11
7.996
21
88.338
0
LINE
8
1
10
7.996
20
88.338
11
1.904
21
88.338
0
LINE
8
1
10
1.904
20
88.338
11
-2.742
21
90.471
0
LINE
8
1
10
-2.742
20
90.471
11
-5.712
21
92.908
0
LINE
8
1
10
-5.712
20
92.908
11
-7.387
21
96.639
0
LINE
8
1
10
-7.387
20
96.639
11
-7.996
21
97.477
0
LINE
8
1
10
-3.427
20
111.946
11
-4.188
21
112.708
0
LINE
8
1
10
-4.188
20
112.708
11
-5.712
21
112.708
0
LINE
8
1
10
-5.712
20
112.708
11
-6.473
21
112.708
0
LINE
8
1
10
-4.188
20
112.708
11
-3.427
21
113.469
0
LINE
8
1
10
-3.427
20
113.469
11
-2.665
21
113.469
0
LINE
8
1
10
5.712
20
116.515
11
7.996
21
116.515
0
LINE
8
1
10
7.996
20
116.515
11
8.758
21
117.277
0
LINE
8
1
10
8.758
20
117.277
11
7.768
21
122.532
0
LINE
8
1
10
7.768
20
122.532
11
7.235
21
123.369
0
LINE
8
1
10
7.235
20
123.369
11
7.996
21
124.131
0
LINE
8
1
10
7.996
20
124.131
11
5.712
21
127.177
0
LINE
8
1
10
5.712
20
127.177
11
5.712
21
130.223
0
LINE
8
1
10
5.712
20
130.223
11
4.95
21
130.985
0
LINE
8
1
10
4.95
20
130.985
11
4.188
21
131.746
0
LINE
8
1
10
7.996
20
124.131
11
12.565
21
124.131
0
LINE
8
1
10
12.565
20
124.131
11
14.088
21
125.654
0
LINE
8
1
10
14.088
20
125.654
11
16.306
21
125.923
0
LINE
8
1
10
16.306
20
125.923
11
17.135
21
126.415
0
LINE
8
1
10
17.135
20
126.415
11
17.896
21
125.654
0
LINE
8
1
10
17.896
20
125.654
11
19.419
21
120.323
0
LINE
8
1
10
19.419
20
120.323
11
18.59
21
119.069
0
LINE
8
1
10
18.59
20
119.069
11
12.507
21
117.57
0
LINE
8
1
10
12.507
20
117.57
11
9.519
21
117.277
0
LINE
8
1
10
9.519
20
117.277
11
8.758
21
117.277
0
LINE
8
1
10
-8.758
20
120.323
11
-12.565
21
124.892
0
LINE
8
1
10
-12.565
20
124.892
11
-14.088
21
124.892
0
LINE
8
1
10
19.419
20
119.562
11
22.465
21
119.562
0
LINE
8
1
10
22.465
20
119.562
11
23.227
21
120.323
0
LINE
8
1
10
23.227
20
120.323
11
23.988
21
120.323
0
LINE
8
1
10
48.358
20
105.092
11
46.835
21
105.092
0
LINE
8
1
10
46.835
20
105.092
11
46.073
21
104.331
0
LINE
8
1
10
46.073
20
104.331
11
43.788
21
101.285
0
LINE
8
1
10
43.788
20
101.285
11
43.52
21
99.067
0
LINE
8
1
10
43.52
20
99.067
11
43.027
21
98.238
0
LINE
8
1
10
43.027
20
98.238
11
43.027
21
97.477
0
LINE
8
1
10
39.219
20
99.762
11
40.209
21
104.255
0
LINE
8
1
10
40.209
20
104.255
11
43.964
21
112.591
0
LINE
8
1
10
43.964
20
112.591
11
46.073
21
115.754
0
LINE
8
1
10
46.073
20
115.754
11
46.073
21
117.277
0
LINE
8
1
10
46.073
20
117.277
11
45.312
21
118.038
0
LINE
8
1
10
45.312
20
118.038
11
43.788
21
118.038
0
LINE
8
1
10
28.558
20
121.846
11
24.75
21
120.323
0
LINE
8
1
10
24.75
20
120.323
11
23.988
21
121.085
0
LINE
8
1
10
23.988
20
121.085
11
22.465
21
126.415
0
LINE
8
1
10
22.465
20
126.415
11
23.227
21
127.177
0
LINE
8
1
10
23.227
20
127.177
11
23.988
21
127.938
0
LINE
8
1
10
23.988
20
127.938
11
25.512
21
127.938
0
LINE
8
1
10
25.512
20
127.938
11
28.558
21
121.846
0
LINE
8
1
10
28.558
20
121.846
11
30.842
21
120.323
0
LINE
8
1
10
30.842
20
120.323
11
28.558
21
117.277
0
LINE
8
1
10
28.558
20
117.277
11
27.796
21
117.277
0
LINE
8
1
10
30.842
20
120.323
11
31.68
21
120.856
0
LINE
8
1
10
31.68
20
120.856
11
33.127
21
121.085
0
LINE
8
1
10
33.127
20
121.085
11
35.412
21
123.369
0
LINE
8
1
10
35.412
20
123.369
11
35.412
21
124.892
0
LINE
8
1
10
35.412
20
124.892
11
34.65
21
130.223
0
LINE
8
1
10
34.65
20
130.223
11
32.228
21
133.086
0
LINE
8
1
10
32.228
20
133.086
11
30.842
21
134.031
0
LINE
8
1
10
30.842
20
134.031
11
29.243
21
133.422
0
LINE
8
1
10
29.243
20
133.422
11
27.035
21
132.508
0
LINE
8
1
10
27.035
20
132.508
11
25.512
21
130.985
0
LINE
8
1
10
25.512
20
130.985
11
24.75
21
128.7
0
LINE
8
1
10
24.75
20
128.7
11
24.75
21
127.938
0
LINE
8
1
10
39.219
20
121.085
11
36.935
21
123.369
0
LINE
8
1
10
36.935
20
123.369
11
38.458
21
125.654
0
LINE
8
1
10
38.458
20
125.654
11
38.726
21
127.871
0
LINE
8
1
10
38.726
20
127.871
11
39.219
21
128.7
0
LINE
8
1
10
39.219
20
128.7
11
39.981
21
129.462
0
LINE
8
1
10
39.981
20
129.462
11
41.504
21
129.462
0
LINE
8
1
10
41.504
20
129.462
11
41.504
21
121.846
0
LINE
8
1
10
41.504
20
121.846
11
41.504
21
121.085
0
LINE
8
1
10
36.935
20
124.131
11
35.412
21
124.131
0
LINE
8
1
10
53.688
20
123.369
11
56.811
21
124.74
0
LINE
8
1
10
56.811
20
124.74
11
59.019
21
126.415
0
LINE
8
1
10
59.019
20
126.415
11
59.019
21
130.223
0
LINE
8
1
10
59.019
20
130.223
11
56.735
21
132.508
0
LINE
8
1
10
56.735
20
132.508
11
52.851
21
131.137
0
LINE
8
1
10
52.851
20
131.137
11
49.881
21
128.7
0
LINE
8
1
10
49.881
20
128.7
11
49.881
21
125.654
0
LINE
8
1
10
49.881
20
125.654
11
51.404
21
124.131
0
LINE
8
1
10
51.404
20
124.131
11
53.688
21
123.369
0
LINE
8
1
10
46.073
20
116.515
11
49.822
21
116.222
0
LINE
8
1
10
49.822
20
116.222
11
54.45
21
114.992
0
LINE
8
1
10
54.45
20
114.992
11
54.45
21
112.708
0
LINE
8
1
10
54.45
20
112.708
11
52.165
21
110.423
0
LINE
8
1
10
52.165
20
110.423
11
52.165
21
109.662
0
LINE
8
1
10
54.45
20
114.992
11
55.973
21
115.754
0
LINE
8
1
10
55.973
20
115.754
11
58.258
21
115.754
0
LINE
8
1
10
58.258
20
115.754
11
59.019
21
115.754
0
LINE
8
1
10
62.065
20
118.8
11
63.01
21
121.709
0
LINE
8
1
10
63.01
20
121.709
11
65.112
21
124.131
0
LINE
8
1
10
65.112
20
124.131
11
65.873
21
130.223
0
LINE
8
1
10
65.873
20
130.223
11
65.873
21
130.985
0
LINE
8
1
10
71.204
20
121.846
11
68.158
21
119.562
0
LINE
8
1
10
76.535
20
118.8
11
76.863
21
124.851
0
LINE
8
1
10
76.863
20
124.851
11
79.128
21
139.31
0
LINE
8
1
10
79.128
20
139.31
11
81.443
21
159.128
0
LINE
8
1
10
81.443
20
159.128
11
81.508
21
159.944
0
LINE
8
1
10
81.508
20
159.944
11
82.979
21
182.744
0
LINE
8
1
10
82.979
20
182.744
11
83.388
21
183.531
0
LINE
8
1
10
83.388
20
183.531
11
83.388
21
193.431
0
LINE
8
1
10
83.388
20
193.431
11
82.334
21
197.18
0
LINE
8
1
10
82.334
20
197.18
11
81.572
21
200.988
0
LINE
8
1
10
81.572
20
200.988
11
77.296
21
207.138
0
LINE
8
1
10
77.296
20
207.138
11
75.012
21
209.423
0
LINE
8
1
10
75.012
20
209.423
11
70.366
21
212.317
0
LINE
8
1
10
70.366
20
212.317
11
65.071
21
214.426
0
LINE
8
1
10
65.071
20
214.426
11
59.781
21
214.754
0
LINE
8
1
10
59.781
20
214.754
11
59.019
21
213.992
0
LINE
8
1
10
59.019
20
213.992
11
58.258
21
213.231
0
LINE
8
1
10
58.258
20
213.231
11
58.258
21
210.185
0
LINE
8
1
10
58.258
20
210.185
11
59.781
21
208.662
0
LINE
8
1
10
59.781
20
208.662
11
62.065
21
209.423
0
LINE
8
1
10
62.065
20
209.423
11
64.35
21
209.423
0
LINE
8
1
10
64.35
20
209.423
11
65.873
21
207.9
0
LINE
8
1
10
65.873
20
207.9
11
66.142
21
205.683
0
LINE
8
1
10
66.142
20
205.683
11
66.635
21
204.854
0
LINE
8
1
10
66.635
20
204.854
11
67.396
21
204.092
0
LINE
8
1
10
67.396
20
204.092
11
69.681
21
203.331
0
LINE
8
1
10
69.681
20
203.331
11
72.727
21
200.285
0
LINE
8
1
10
72.727
20
200.285
11
75.773
21
196.477
0
LINE
8
1
10
75.773
20
196.477
11
76.535
21
194.192
0
LINE
8
1
10
76.535
20
194.192
11
76.535
21
181.246
0
LINE
8
1
10
76.535
20
181.246
11
76.101
21
180.444
0
LINE
8
1
10
76.101
20
180.444
11
73.16
21
161.487
0
LINE
8
1
10
73.16
20
161.487
11
73.036
21
160.633
0
LINE
8
1
10
73.036
20
160.633
11
70.009
21
142.367
0
LINE
8
1
10
70.009
20
142.367
11
69.681
21
137.077
0
LINE
8
1
10
69.681
20
137.077
11
69.681
21
136.315
0
LINE
8
1
10
84.15
20
119.562
11
84.912
21
120.323
0
LINE
8
1
10
84.912
20
120.323
11
88.668
21
120.632
0
LINE
8
1
10
88.668
20
120.632
11
91.698
21
121.353
0
LINE
8
1
10
91.698
20
121.353
11
97.858
21
124.892
0
LINE
8
1
10
97.858
20
124.892
11
100.142
21
127.938
0
LINE
8
1
10
100.142
20
127.938
11
101.665
21
127.938
0
LINE
8
1
10
101.665
20
127.938
11
104.026
21
126.568
0
LINE
8
1
10
104.026
20
126.568
11
105.473
21
125.654
0
LINE
8
1
10
105.473
20
125.654
11
105.473
21
124.131
0
LINE
8
1
10
105.473
20
124.131
11
104.712
21
122.608
0
LINE
8
1
10
104.712
20
122.608
11
100.142
21
118.038
0
LINE
8
1
10
100.142
20
118.038
11
97.934
21
117.125
0
LINE
8
1
10
97.934
20
117.125
11
97.02
21
116.668
0
LINE
8
1
10
97.02
20
116.668
11
90.97
21
114.57
0
LINE
8
1
10
90.97
20
114.57
11
84.15
21
114.231
0
LINE
8
1
10
84.15
20
114.231
11
83.388
21
114.992
0
LINE
8
1
10
83.388
20
114.992
11
83.388
21
118.8
0
LINE
8
1
10
83.388
20
118.8
11
84.15
21
119.562
0
LINE
8
1
10
84.15
20
119.562
11
83.388
21
121.085
0
LINE
8
1
10
83.388
20
121.085
11
83.388
21
126.415
0
LINE
8
1
10
83.388
20
126.415
11
85.231
21
137.793
0
LINE
8
1
10
85.231
20
137.793
11
85.38
21
138.659
0
LINE
8
1
10
85.38
20
138.659
11
91.297
21
177.38
0
LINE
8
1
10
91.297
20
177.38
11
91.765
21
178.2
0
LINE
8
1
10
91.765
20
178.2
11
91.765
21
195.715
0
LINE
8
1
10
91.765
20
195.715
11
89.974
21
204.787
0
LINE
8
1
10
89.974
20
204.787
11
89.252
21
207.062
0
LINE
8
1
10
89.252
20
207.062
11
85.521
21
216.201
0
LINE
8
1
10
85.521
20
216.201
11
84.302
21
218.638
0
LINE
8
1
10
84.302
20
218.638
11
82.627
21
222.369
0
LINE
8
1
10
82.627
20
222.369
11
78.175
21
225.591
0
LINE
8
1
10
78.175
20
225.591
11
72.651
21
228.233
0
LINE
8
1
10
72.651
20
228.233
11
69.757
21
229.375
0
LINE
8
1
10
69.757
20
229.375
11
62.065
21
231.508
0
LINE
8
1
10
62.065
20
231.508
11
59.019
21
231.508
0
LINE
8
1
10
59.019
20
231.508
11
57.572
21
230.594
0
LINE
8
1
10
57.572
20
230.594
11
56.735
21
229.985
0
LINE
8
1
10
56.735
20
229.985
11
56.125
21
230.822
0
LINE
8
1
10
56.125
20
230.822
11
52.927
21
236.077
0
LINE
8
1
10
52.927
20
236.077
11
48.358
21
240.646
0
LINE
8
1
10
48.358
20
240.646
11
45.235
21
242.017
0
LINE
8
1
10
45.235
20
242.017
11
39.219
21
244.454
0
LINE
8
1
10
39.219
20
244.454
11
38.458
21
243.692
0
LINE
8
1
10
38.458
20
243.692
11
37.696
21
242.931
0
LINE
8
1
10
37.696
20
242.931
11
38.458
21
241.408
0
LINE
8
1
10
38.458
20
241.408
11
39.219
21
240.646
0
LINE
8
1
10
39.219
20
240.646
11
44.55
21
238.362
0
LINE
8
1
10
44.55
20
238.362
11
49.119
21
233.792
0
LINE
8
1
10
49.119
20
233.792
11
50.033
21
231.584
0
LINE
8
1
10
50.033
20
231.584
11
51.135
21
227.633
0
LINE
8
1
10
51.135
20
227.633
11
51.806
21
224.635
0
LINE
8
1
10
51.806
20
224.635
11
52.927
21
208.662
0
LINE
8
1
10
-18.658
20
226.938
11
-21.628
21
227.852
0
LINE
8
1
10
-21.628
20
227.852
11
-30.132
21
229.676
0
LINE
8
1
10
-30.132
20
229.676
11
-34.65
21
230.746
0
LINE
8
1
10
-34.65
20
230.746
11
-39.219
21
230.746
0
LINE
8
1
10
-39.219
20
230.746
11
-49.119
21
228.462
0
LINE
8
1
10
-49.119
20
228.462
11
-54.301
21
225.23
0
LINE
8
1
10
-54.301
20
225.23
11
-58.258
21
222.369
0
LINE
8
1
10
-58.258
20
222.369
11
-64.35
21
216.277
0
LINE
8
1
10
-64.35
20
216.277
11
-70.595
21
208.738
0
LINE
8
1
10
-70.595
20
208.738
11
-71.052
21
207.824
0
LINE
8
1
10
-71.052
20
207.824
11
-75.545
21
199.447
0
LINE
8
1
10
-75.545
20
199.447
11
-79.581
21
187.338
0
LINE
8
1
10
-79.581
20
187.338
11
-79.581
21
166.777
0
LINE
8
1
10
-79.581
20
166.777
11
-76.843
21
150.733
0
LINE
8
1
10
-76.843
20
150.733
11
-76.066
21
146.157
0
LINE
8
1
10
-76.066
20
146.157
11
-73.757
21
134.725
0
LINE
8
1
10
-73.757
20
134.725
11
-72.727
21
130.223
0
LINE
8
1
10
-52.927
20
129.462
11
-53.841
21
131.67
0
LINE
8
1
10
-53.841
20
131.67
11
-56.282
21
143.879
0
LINE
8
1
10
-56.282
20
143.879
11
-56.407
21
144.733
0
LINE
8
1
10
-56.407
20
144.733
11
-59.781
21
169.823
0
LINE
8
1
10
-59.781
20
169.823
11
-59.363
21
170.616
0
LINE
8
1
10
-59.363
20
170.616
11
-58.676
21
178.169
0
LINE
8
1
10
-58.676
20
178.169
11
-56.466
21
188.033
0
LINE
8
1
10
-56.466
20
188.033
11
-56.242
21
188.929
0
LINE
8
1
10
-56.242
20
188.929
11
-54.298
21
194.878
0
LINE
8
1
10
-54.298
20
194.878
11
-53.917
21
195.792
0
LINE
8
1
10
-53.917
20
195.792
11
-52.165
21
199.523
0
LINE
8
1
10
-52.165
20
199.523
11
-48.358
21
203.331
0
LINE
8
1
10
-48.358
20
203.331
11
-45.956
21
204.678
0
LINE
8
1
10
-45.956
20
204.678
11
-42.189
21
206.91
0
LINE
8
1
10
-42.189
20
206.91
11
-32.365
21
209.423
0
LINE
8
1
10
-32.365
20
209.423
11
-21.704
21
209.423
0
LINE
8
1
10
-21.704
20
209.423
11
-11.921
21
206.201
0
LINE
8
1
10
-11.921
20
206.201
11
-10.281
21
204.854
0
LINE
8
1
10
-10.281
20
204.854
11
-9.519
21
204.092
0
LINE
8
1
10
-9.519
20
204.092
11
-3.427
21
207.9
0
LINE
8
1
10
-3.427
20
207.9
11
-3.427
21
209.423
0
LINE
8
1
10
-3.427
20
209.423
11
-3.427
21
210.946
0
LINE
8
1
10
-27.796
20
153.831
11
-25.512
21
150.023
0
LINE
8
1
10
-25.512
20
150.023
11
-25.512
21
144.692
0
LINE
8
1
10
-25.512
20
144.692
11
-26.273
21
143.169
0
LINE
8
1
10
-36.935
20
128.7
11
-37.848
21
130.908
0
LINE
8
1
10
-37.848
20
130.908
11
-39.219
21
133.269
0
LINE
8
1
10
-39.219
20
133.269
11
-39.219
21
137.077
0
LINE
8
1
10
-39.219
20
137.077
11
-38.458
21
139.362
0
LINE
8
1
10
-38.458
20
139.362
11
-36.173
21
141.646
0
LINE
8
1
10
-36.173
20
141.646
11
-38.458
21
143.931
0
LINE
8
1
10
-38.458
20
143.931
11
-38.991
21
145.53
0
LINE
8
1
10
-38.991
20
145.53
11
-39.981
21
147.738
0
LINE
8
1
10
-39.981
20
147.738
11
-39.981
21
150.785
0
LINE
8
1
10
-39.981
20
150.785
11
-38.991
21
152.993
0
LINE
8
1
10
-38.991
20
152.993
11
-36.759
21
156.76
0
LINE
8
1
10
-36.759
20
156.76
11
-35.412
21
158.4
0
LINE
8
1
10
-35.412
20
158.4
11
-35.412
21
159.923
0
LINE
8
1
10
-35.412
20
159.923
11
-37.696
21
162.969
0
LINE
8
1
10
-37.696
20
162.969
11
-37.989
21
166.074
0
LINE
8
1
10
-37.989
20
166.074
11
-37.087
21
169.899
0
LINE
8
1
10
-37.087
20
169.899
11
-34.65
21
172.869
0
LINE
8
1
10
-34.65
20
172.869
11
-33.127
21
173.631
0
LINE
8
1
10
-33.127
20
173.631
11
-29.319
21
171.346
0
LINE
8
1
10
-29.319
20
171.346
11
-28.558
21
172.108
0
LINE
8
1
10
-28.558
20
172.108
11
-27.796
21
171.346
0
LINE
8
1
10
-27.796
20
171.346
11
-25.664
21
175.23
0
LINE
8
1
10
-25.664
20
175.23
11
-23.227
21
178.962
0
LINE
8
1
10
-23.227
20
178.962
11
-19.419
21
182.769
0
LINE
8
1
10
-19.419
20
182.769
11
-14.694
21
186.39
0
LINE
8
1
10
-14.694
20
186.39
11
-0.264
21
194.778
0
LINE
8
1
10
-0.264
20
194.778
11
3.427
21
197.238
0
LINE
8
1
10
3.427
20
197.238
11
7.235
21
201.046
0
LINE
8
1
10
7.235
20
201.046
11
8.582
21
203.448
0
LINE
8
1
10
8.582
20
203.448
11
9.519
21
207.138
0
LINE
8
1
10
9.519
20
207.138
11
8.758
21
208.662
0
LINE
8
1
10
8.758
20
208.662
11
4.188
21
208.662
0
LINE
8
1
10
4.188
20
208.662
11
3.427
21
207.9
0
LINE
8
1
10
3.427
20
207.9
11
3.427
21
205.615
0
LINE
8
1
10
3.427
20
205.615
11
-1.904
21
200.285
0
LINE
8
1
10
-1.904
20
200.285
11
-18.496
21
191.72
0
LINE
8
1
10
-18.496
20
191.72
11
-24.75
21
186.577
0
LINE
8
1
10
-24.75
20
186.577
11
-26.097
21
184.937
0
LINE
8
1
10
-26.097
20
184.937
11
-28.218
21
178.928
0
LINE
8
1
10
-28.218
20
178.928
11
-28.558
21
172.108
0
LINE
8
1
10
-36.173
20
142.408
11
-30.842
21
143.169
0
LINE
8
1
10
-30.842
20
143.169
11
-30.081
21
143.931
0
LINE
8
1
10
-30.081
20
143.931
11
-30.081
21
147.738
0
LINE
8
1
10
-30.081
20
147.738
11
-30.995
21
149.185
0
LINE
8
1
10
-30.995
20
149.185
11
-31.604
21
150.023
0
LINE
8
1
10
-31.604
20
150.023
11
-31.604
21
151.546
0
LINE
8
1
10
-31.604
20
151.546
11
-32.365
21
157.638
0
LINE
8
1
10
-32.365
20
157.638
11
-31.604
21
158.4
0
LINE
8
1
10
-31.604
20
158.4
11
-30.842
21
159.162
0
LINE
8
1
10
-30.842
20
159.162
11
-27.035
21
159.162
0
LINE
8
1
10
-27.035
20
159.162
11
-24.674
21
157.791
0
LINE
8
1
10
-24.674
20
157.791
11
-23.227
21
157.638
0
LINE
8
1
10
-23.227
20
157.638
11
-22.013
21
145.402
0
LINE
8
1
10
-22.013
20
145.402
11
-20.409
21
137.001
0
LINE
8
1
10
-20.409
20
137.001
11
-19.952
21
135.63
0
LINE
8
1
10
-19.952
20
135.63
11
-18.658
21
133.269
0
LINE
8
1
10
-18.658
20
133.269
11
-18.658
21
132.508
0
LINE
8
1
10
-29.319
20
132.508
11
-30.842
21
143.169
0
LINE
8
1
10
-31.604
20
150.785
11
-35.412
21
150.785
0
LINE
8
1
10
-32.365
20
158.4
11
-33.127
21
159.162
0
LINE
8
1
10
-33.127
20
159.162
11
-34.65
21
159.162
0
LINE
8
1
10
-34.65
20
159.162
11
-35.412
21
159.162
0
LINE
8
1
10
-23.227
20
157.638
11
-23.227
21
159.162
0
LINE
8
1
10
-23.227
20
159.162
11
-22.465
21
159.923
0
LINE
8
1
10
-22.465
20
159.923
11
-21.704
21
160.685
0
LINE
8
1
10
-21.704
20
160.685
11
-20.181
21
160.685
0
LINE
8
1
10
-20.181
20
160.685
11
-16.986
21
163.545
0
LINE
8
1
10
-16.986
20
163.545
11
-14.021
21
164.985
0
LINE
8
1
10
-14.021
20
164.985
11
-11.042
21
166.015
0
LINE
8
1
10
-11.042
20
166.015
11
-6.473
21
166.015
0
LINE
8
1
10
-6.473
20
166.015
11
0.244
21
162.786
0
LINE
8
1
10
0.244
20
162.786
11
2.802
21
160.867
0
LINE
8
1
10
2.802
20
160.867
11
5.712
21
159.162
0
LINE
8
1
10
5.712
20
159.162
11
8.758
21
156.115
0
LINE
8
1
10
8.758
20
156.115
11
9.026
21
153.898
0
LINE
8
1
10
9.026
20
153.898
11
9.519
21
153.069
0
LINE
8
1
10
9.519
20
153.069
11
9.519
21
142.408
0
LINE
8
1
10
9.519
20
142.408
11
9.051
21
141.588
0
LINE
8
1
10
9.051
20
141.588
11
8.758
21
138.6
0
LINE
8
1
10
8.758
20
138.6
11
8.758
21
137.838
0
LINE
8
1
10
-4.95
20
156.115
11
-3.427
21
156.115
0
LINE
8
1
10
-3.427
20
156.115
11
0.381
21
152.308
0
LINE
8
1
10
0.381
20
152.308
11
-0.381
21
151.546
0
LINE
8
1
10
-0.381
20
151.546
11
-4.112
21
150.556
0
LINE
8
1
10
-4.112
20
150.556
11
-6.473
21
150.023
0
LINE
8
1
10
-6.473
20
150.023
11
-7.235
21
150.785
0
LINE
8
1
10
-7.235
20
150.785
11
-7.996
21
151.546
0
LINE
8
1
10
-7.996
20
151.546
11
-6.473
21
153.069
0
LINE
8
1
10
-6.473
20
153.069
11
-5.712
21
153.831
0
LINE
8
1
10
-5.712
20
153.831
11
-4.95
21
156.115
0
LINE
8
1
10
-4.95
20
156.115
11
-7.996
21
158.4
0
LINE
8
1
10
-7.996
20
158.4
11
-10.281
21
158.4
0
LINE
8
1
10
-10.281
20
158.4
11
-12.565
21
156.877
0
LINE
8
1
10
-12.565
20
156.877
11
-11.804
21
153.831
0
LINE
8
1
10
-11.804
20
153.831
11
-10.281
21
152.308
0
LINE
8
1
10
-10.281
20
152.308
11
-8.758
21
151.546
0
LINE
8
1
10
-8.758
20
151.546
11
-9.519
21
150.785
0
LINE
8
1
10
-9.519
20
150.785
11
-11.042
21
149.262
0
LINE
8
1
10
-11.042
20
149.262
11
-15.612
21
150.785
0
LINE
8
1
10
-15.612
20
150.785
11
-17.135
21
152.308
0
LINE
8
1
10
-17.135
20
152.308
11
-17.363
21
153.755
0
LINE
8
1
10
-17.363
20
153.755
11
-17.896
21
154.592
0
LINE
8
1
10
-17.896
20
154.592
11
-18.658
21
155.354
0
LINE
8
1
10
-17.896
20
154.592
11
-15.612
21
156.877
0
LINE
8
1
10
-15.612
20
156.877
11
-13.327
21
156.877
0
LINE
8
1
10
-13.327
20
156.877
11
-12.565
21
156.877
0
LINE
8
1
10
-8.758
20
151.546
11
-7.996
21
151.546
0
LINE
8
1
10
5.712
20
130.985
11
9.519
21
130.985
0
LINE
8
1
10
9.519
20
130.985
11
10.281
21
130.223
0
LINE
8
1
10
10.281
20
130.223
11
11.804
21
130.223
0
LINE
8
1
10
11.804
20
130.223
11
13.327
21
130.223
0
LINE
8
1
10
13.327
20
130.223
11
15.612
21
130.223
0
LINE
8
1
10
15.612
20
130.223
11
16.373
21
130.985
0
LINE
8
1
10
16.373
20
130.985
11
17.135
21
130.223
0
LINE
8
1
10
17.135
20
130.223
11
17.135
21
126.415
0
LINE
8
1
10
4.95
20
138.6
11
5.712
21
137.838
0
LINE
8
1
10
5.712
20
137.838
11
7.996
21
137.838
0
LINE
8
1
10
7.996
20
137.838
11
10.281
21
136.315
0
LINE
8
1
10
10.281
20
136.315
11
12.565
21
136.315
0
LINE
8
1
10
12.565
20
136.315
11
14.012
21
137.229
0
LINE
8
1
10
14.012
20
137.229
11
14.85
21
137.838
0
LINE
8
1
10
14.85
20
137.838
11
13.327
21
139.362
0
LINE
8
1
10
13.327
20
139.362
11
13.327
21
155.354
0
LINE
8
1
10
13.327
20
155.354
11
13.86
21
156.192
0
LINE
8
1
10
13.86
20
156.192
11
14.088
21
157.638
0
LINE
8
1
10
14.088
20
157.638
11
20.942
21
165.254
0
LINE
8
1
10
20.942
20
165.254
11
25.588
21
167.386
0
LINE
8
1
10
25.588
20
167.386
11
27.035
21
168.3
0
LINE
8
1
10
27.035
20
168.3
11
32.365
21
168.3
0
LINE
8
1
10
32.365
20
168.3
11
35.344
21
167.27
0
LINE
8
1
10
35.344
20
167.27
11
36.935
21
166.777
0
LINE
8
1
10
-7.235
20
150.023
11
-8.758
21
150.785
0
LINE
8
1
10
14.85
20
137.838
11
18.658
21
139.362
0
LINE
8
1
10
18.658
20
131.746
11
17.135
21
130.985
0
LINE
8
1
10
17.896
20
125.654
11
19.419
21
127.177
0
LINE
8
1
10
19.419
20
127.177
11
21.704
21
127.177
0
LINE
8
1
10
21.704
20
127.177
11
22.465
21
127.177
0
LINE
8
1
10
12.565
20
130.223
11
11.804
21
131.746
0
LINE
8
1
10
11.804
20
131.746
11
11.042
21
130.985
0
LINE
8
1
10
11.042
20
130.985
11
11.042
21
130.223
0
LINE
8
1
10
12.565
20
130.985
11
13.327
21
132.508
0
LINE
8
1
10
13.327
20
132.508
11
14.088
21
133.269
0
LINE
8
1
10
14.088
20
133.269
11
16.373
21
131.746
0
LINE
8
1
10
16.373
20
131.746
11
16.373
21
130.985
0
LINE
8
1
10
25.512
20
158.4
11
27.796
21
155.354
0
LINE
8
1
10
27.796
20
155.354
11
30.842
21
155.354
0
LINE
8
1
10
30.842
20
155.354
11
33.127
21
157.638
0
LINE
8
1
10
41.504
20
129.462
11
43.027
21
134.031
0
LINE
8
1
10
43.027
20
134.031
11
43.027
21
135.554
0
LINE
8
1
10
43.027
20
135.554
11
44.142
21
150.761
0
LINE
8
1
10
44.142
20
150.761
11
45.083
21
159.238
0
LINE
8
1
10
45.083
20
159.238
11
46.073
21
162.208
0
LINE
8
1
10
46.073
20
162.208
11
46.073
21
163.731
0
LINE
8
1
10
46.073
20
163.731
11
45.312
21
166.777
0
LINE
8
1
10
45.312
20
166.777
11
42.451
21
169.972
0
LINE
8
1
10
42.451
20
169.972
11
33.888
21
178.962
0
LINE
8
1
10
33.888
20
178.962
11
25.435
21
183.378
0
LINE
8
1
10
25.435
20
183.378
11
22.465
21
184.292
0
LINE
8
1
10
22.465
20
184.292
11
21.704
21
183.531
0
LINE
8
1
10
21.704
20
183.531
11
18.509
21
180.67
0
LINE
8
1
10
18.509
20
180.67
11
14.926
21
178.809
0
LINE
8
1
10
14.926
20
178.809
11
14.088
21
178.2
0
LINE
8
1
10
14.088
20
178.2
11
13.796
21
174.451
0
LINE
8
1
10
13.796
20
174.451
11
13.327
21
173.631
0
LINE
8
1
10
13.327
20
173.631
11
13.596
21
165.187
0
LINE
8
1
10
13.596
20
165.187
11
13.327
21
162.969
0
LINE
8
1
10
13.327
20
162.969
11
12.565
21
162.208
0
LINE
8
1
10
12.565
20
162.208
11
9.519
21
162.208
0
LINE
8
1
10
9.519
20
162.208
11
7.996
21
163.731
0
LINE
8
1
10
7.996
20
163.731
11
7.768
21
165.178
0
LINE
8
1
10
7.768
20
165.178
11
7.235
21
175.154
0
LINE
8
1
10
34.65
20
130.985
11
36.935
21
130.985
0
LINE
8
1
10
36.935
20
130.985
11
38.458
21
129.462
0
LINE
8
1
10
38.458
20
129.462
11
39.219
21
129.462
0
LINE
8
1
10
43.027
20
134.792
11
45.235
21
135.021
0
LINE
8
1
10
45.235
20
135.021
11
50.49
21
137.382
0
LINE
8
1
10
50.49
20
137.382
11
52.165
21
138.6
0
LINE
8
1
10
52.165
20
138.6
11
55.922
21
138.291
0
LINE
8
1
10
55.922
20
138.291
11
60.618
21
137.229
0
LINE
8
1
10
60.618
20
137.229
11
62.065
21
137.077
0
LINE
8
1
10
62.065
20
137.077
11
64.35
21
134.031
0
LINE
8
1
10
64.35
20
134.031
11
65.112
21
134.031
0
LINE
8
1
10
37.696
20
156.877
11
37.696
21
154.592
0
LINE
8
1
10
37.696
20
154.592
11
36.173
21
153.069
0
LINE
8
1
10
36.173
20
153.069
11
33.203
21
152.155
0
LINE
8
1
10
33.203
20
152.155
11
32.365
21
151.546
0
LINE
8
1
10
32.365
20
151.546
11
23.227
21
151.546
0
LINE
8
1
10
23.227
20
151.546
11
20.181
21
153.069
0
LINE
8
1
10
20.181
20
153.069
11
20.181
21
154.592
0
LINE
8
1
10
20.181
20
154.592
11
23.988
21
158.4
0
LINE
8
1
10
23.988
20
158.4
11
25.512
21
158.4
0
LINE
8
1
10
25.512
20
158.4
11
28.558
21
160.685
0
LINE
8
1
10
28.558
20
160.685
11
33.127
21
157.638
0
LINE
8
1
10
33.127
20
157.638
11
36.935
21
156.877
0
LINE
8
1
10
36.935
20
156.877
11
38.077
21
157.638
0
LINE
8
1
10
38.077
20
157.638
11
36.935
21
160.685
0
LINE
8
1
10
36.935
20
160.685
11
35.488
21
161.598
0
LINE
8
1
10
35.488
20
161.598
11
33.965
21
162.36
0
LINE
8
1
10
33.965
20
162.36
11
33.127
21
162.969
0
LINE
8
1
10
33.127
20
162.969
11
30.842
21
162.969
0
LINE
8
1
10
30.842
20
162.969
11
28.558
21
160.685
0
LINE
8
1
10
48.358
20
157.638
11
47.748
21
155.278
0
LINE
8
1
10
47.748
20
155.278
11
46.835
21
153.831
0
LINE
8
1
10
46.835
20
153.831
11
46.835
21
147.738
0
LINE
8
1
10
46.835
20
147.738
11
47.444
21
146.901
0
LINE
8
1
10
47.444
20
146.901
11
47.596
21
146.215
0
LINE
8
1
10
56.735
20
154.592
11
54.45
21
153.831
0
LINE
8
1
10
54.45
20
153.831
11
52.927
21
154.592
0
LINE
8
1
10
52.927
20
154.592
11
52.927
21
162.969
0
LINE
8
1
10
52.927
20
162.969
11
55.212
21
165.254
0
LINE
8
1
10
55.212
20
165.254
11
56.735
21
165.254
0
LINE
8
1
10
56.735
20
165.254
11
59.019
21
165.254
0
LINE
8
1
10
59.019
20
165.254
11
62.827
21
161.446
0
LINE
8
1
10
62.827
20
161.446
11
63.817
21
157.715
0
LINE
8
1
10
63.817
20
157.715
11
64.35
21
156.877
0
LINE
8
1
10
64.35
20
156.877
11
64.35
21
155.354
0
LINE
8
1
10
64.35
20
155.354
11
62.065
21
147.738
0
LINE
8
1
10
62.065
20
147.738
11
63.413
21
146.098
0
LINE
8
1
10
63.413
20
146.098
11
64.35
21
144.692
0
LINE
8
1
10
64.35
20
144.692
11
64.35
21
139.362
0
LINE
8
1
10
64.35
20
139.362
11
62.065
21
137.077
0
LINE
8
1
10
52.165
20
138.6
11
51.404
21
139.362
0
LINE
8
1
10
51.404
20
139.362
11
52.927
21
145.454
0
LINE
8
1
10
52.927
20
145.454
11
52.927
21
146.977
0
LINE
8
1
10
52.927
20
146.977
11
53.688
21
153.069
0
LINE
8
1
10
53.688
20
153.069
11
53.688
21
153.831
0
LINE
8
1
10
52.927
20
146.215
11
58.258
21
145.454
0
LINE
8
1
10
58.258
20
145.454
11
59.705
21
146.368
0
LINE
8
1
10
59.705
20
146.368
11
62.065
21
147.738
0
LINE
8
1
10
100.904
20
127.938
11
97.096
21
136.315
0
LINE
8
1
10
97.096
20
136.315
11
97.096
21
146.977
0
LINE
8
1
10
97.096
20
146.977
11
101.213
21
170.533
0
LINE
8
1
10
101.213
20
170.533
11
101.337
21
171.387
0
LINE
8
1
10
101.337
20
171.387
11
103.95
21
187.338
0
LINE
8
1
10
103.95
20
187.338
11
103.457
21
188.167
0
LINE
8
1
10
103.457
20
188.167
11
103.188
21
190.385
0
LINE
8
1
10
103.188
20
190.385
11
100.904
21
191.146
0
LINE
8
1
10
100.904
20
191.146
11
99.381
21
192.669
0
LINE
8
1
10
99.381
20
192.669
11
99.381
21
194.192
0
LINE
8
1
10
99.381
20
194.192
11
101.665
21
196.477
0
LINE
8
1
10
101.665
20
196.477
11
103.95
21
196.477
0
LINE
8
1
10
-88.719
20
177.438
11
-86.435
21
175.915
0
LINE
8
1
10
-86.435
20
175.915
11
-86.435
21
172.869
0
LINE
8
1
10
-86.435
20
172.869
11
-88.543
21
169.706
0
LINE
8
1
10
-88.543
20
169.706
11
-89.481
21
168.3
0
LINE
8
1
10
-33.127
20
168.3
11
-31.604
21
168.3
0
LINE
8
1
10
-31.604
20
168.3
11
-30.081
21
167.538
0
LINE
8
1
10
-30.081
20
167.538
11
-28.558
21
167.538
0
LINE
8
1
10
-28.558
20
167.538
11
-27.796
21
166.777
0
LINE
8
1
10
-27.796
20
166.777
11
-26.449
21
164.375
0
LINE
8
1
10
-26.449
20
164.375
11
-25.512
21
162.208
0
LINE
8
1
10
-25.512
20
162.208
11
-23.988
21
160.685
0
LINE
8
1
10
-23.988
20
160.685
11
-22.465
21
160.685
0
LINE
8
1
10
-22.465
20
160.685
11
-22.237
21
162.893
0
LINE
8
1
10
-22.237
20
162.893
11
-20.79
21
167.462
0
LINE
8
1
10
-20.79
20
167.462
11
-20.333
21
168.376
0
LINE
8
1
10
-20.333
20
168.376
11
-15.612
21
175.915
0
LINE
8
1
10
-15.612
20
175.915
11
-12.565
21
178.962
0
LINE
8
1
10
-12.565
20
178.962
11
-8.682
21
181.094
0
LINE
8
1
10
-8.682
20
181.094
11
-7.235
21
181.246
0
LINE
8
1
10
-7.235
20
181.246
11
-5.788
21
182.16
0
LINE
8
1
10
-5.788
20
182.16
11
-4.95
21
182.769
0
LINE
8
1
10
-4.95
20
182.769
11
-3.427
21
182.769
0
LINE
8
1
10
-3.427
20
182.769
11
-2.665
21
182.008
0
LINE
8
1
10
-2.665
20
182.008
11
-4.95
21
178.962
0
LINE
8
1
10
-4.95
20
178.962
11
-4.188
21
178.2
0
LINE
8
1
10
-4.188
20
178.2
11
5.712
21
178.2
0
LINE
8
1
10
5.712
20
178.2
11
6.473
21
178.962
0
LINE
8
1
10
6.473
20
178.962
11
10.86
21
185.191
0
LINE
8
1
10
10.86
20
185.191
11
11.535
21
186.644
0
LINE
8
1
10
11.535
20
186.644
11
12.794
21
191.07
0
LINE
8
1
10
12.794
20
191.07
11
13.327
21
191.908
0
LINE
8
1
10
13.327
20
191.908
11
13.327
21
193.431
0
LINE
8
1
10
13.327
20
193.431
11
13.327
21
194.954
0
LINE
8
1
10
13.327
20
194.954
11
12.565
21
195.715
0
LINE
8
1
10
12.565
20
195.715
11
11.804
21
196.477
0
LINE
8
1
10
11.804
20
196.477
11
11.042
21
195.715
0
LINE
8
1
10
11.042
20
195.715
11
9.343
21
193.548
0
LINE
8
1
10
9.343
20
193.548
11
7.996
21
191.146
0
LINE
8
1
10
7.996
20
191.146
11
0.381
21
183.531
0
LINE
8
1
10
0.381
20
183.531
11
-0.99
21
183.226
0
LINE
8
1
10
-0.99
20
183.226
11
-2.665
21
182.008
0
LINE
8
1
10
-27.796
20
171.346
11
-27.796
21
168.3
0
LINE
8
1
10
-27.796
20
168.3
11
-27.796
21
167.538
0
LINE
8
1
10
-30.842
20
168.3
11
-30.842
21
169.823
0
LINE
8
1
10
-30.842
20
169.823
11
-29.319
21
171.346
0
LINE
8
1
10
-24.75
20
186.577
11
-25.512
21
187.338
0
LINE
8
1
10
-25.512
20
187.338
11
-24.141
21
190.461
0
LINE
8
1
10
-24.141
20
190.461
11
-14.088
21
201.046
0
LINE
8
1
10
-14.088
20
201.046
11
-10.281
21
203.331
0
LINE
8
1
10
-10.281
20
203.331
11
-10.281
21
204.092
0
LINE
8
1
10
6.473
20
178.2
11
11.042
21
178.962
0
LINE
8
1
10
-4.95
20
178.962
11
-6.473
21
178.962
0
LINE
8
1
10
-6.473
20
178.962
11
-7.235
21
179.723
0
LINE
8
1
10
-7.235
20
179.723
11
-7.235
21
181.246
0
LINE
8
1
10
14.088
20
178.2
11
11.804
21
178.2
0
LINE
8
1
10
11.804
20
178.2
11
11.042
21
178.962
0
LINE
8
1
10
11.042
20
178.962
11
14.664
21
183.679
0
LINE
8
1
10
14.664
20
183.679
11
16.221
21
187.415
0
LINE
8
1
10
16.221
20
187.415
11
17.135
21
188.862
0
LINE
8
1
10
17.135
20
188.862
11
14.85
21
192.669
0
LINE
8
1
10
14.85
20
192.669
11
13.327
21
192.669
0
LINE
8
1
10
17.135
20
188.862
11
18.658
21
188.862
0
LINE
8
1
10
18.658
20
188.862
11
21.704
21
185.815
0
LINE
8
1
10
21.704
20
185.815
11
21.704
21
184.292
0
LINE
8
1
10
49.119
20
174.392
11
49.119
21
172.869
0
LINE
8
1
10
49.119
20
172.869
11
45.312
21
166.777
0
LINE
8
1
10
49.119
20
172.869
11
51.404
21
170.585
0
LINE
8
1
10
51.404
20
170.585
11
52.165
21
170.585
0
LINE
8
1
10
52.927
20
162.969
11
52.165
21
163.731
0
LINE
8
1
10
52.165
20
163.731
11
49.119
21
163.731
0
LINE
8
1
10
49.119
20
163.731
11
46.835
21
162.969
0
LINE
8
1
10
46.835
20
162.969
11
46.073
21
162.969
0
LINE
8
1
10
55.973
20
165.254
11
56.125
21
166.701
0
LINE
8
1
10
56.125
20
166.701
11
57.496
21
169.823
0
LINE
8
1
10
57.496
20
169.823
11
57.496
21
172.108
0
LINE
8
1
10
57.496
20
172.108
11
55.212
21
175.154
0
LINE
8
1
10
55.212
20
175.154
11
53.688
21
175.915
0
LINE
8
1
10
53.688
20
175.915
11
52.165
21
175.915
0
LINE
8
1
10
52.165
20
175.915
11
49.119
21
174.392
0
LINE
8
1
10
49.119
20
174.392
11
48.358
21
175.154
0
LINE
8
1
10
48.358
20
175.154
11
45.312
21
178.2
0
LINE
8
1
10
45.312
20
178.2
11
39.981
21
184.292
0
LINE
8
1
10
39.981
20
184.292
11
34.006
21
188.276
0
LINE
8
1
10
34.006
20
188.276
11
27.035
21
193.431
0
LINE
8
1
10
27.035
20
193.431
11
23.414
21
198.156
0
LINE
8
1
10
23.414
20
198.156
11
20.714
21
204.016
0
LINE
8
1
10
20.714
20
204.016
11
20.181
21
206.377
0
LINE
8
1
10
20.181
20
206.377
11
19.382
21
207.566
0
LINE
8
1
10
19.382
20
207.566
11
11.042
21
208.662
0
LINE
8
1
10
11.042
20
208.662
11
10.281
21
207.9
0
LINE
8
1
10
10.281
20
207.9
11
9.519
21
207.9
0
LINE
8
1
10
20.181
20
207.138
11
21.704
21
207.9
0
LINE
8
1
10
21.704
20
207.9
11
23.227
21
207.9
0
LINE
8
1
10
23.227
20
207.9
11
24.065
21
207.291
0
LINE
8
1
10
24.065
20
207.291
11
25.512
21
206.377
0
LINE
8
1
10
25.512
20
206.377
11
26.273
21
204.092
0
LINE
8
1
10
26.273
20
204.092
11
29.319
21
201.046
0
LINE
8
1
10
29.319
20
201.046
11
37.091
21
195.141
0
LINE
8
1
10
37.091
20
195.141
11
39.102
21
194.017
0
LINE
8
1
10
39.102
20
194.017
11
46.835
21
188.862
0
LINE
8
1
10
46.835
20
188.862
11
47.596
21
188.1
0
LINE
8
1
10
47.596
20
188.1
11
48.065
21
186.518
0
LINE
8
1
10
48.065
20
186.518
11
49.119
21
182.769
0
LINE
8
1
10
49.119
20
182.769
11
49.119
21
176.677
0
LINE
8
1
10
49.119
20
176.677
11
48.358
21
175.915
0
LINE
8
1
10
47.596
20
188.862
11
46.606
21
192.593
0
LINE
8
1
10
46.606
20
192.593
11
43.964
21
197.356
0
LINE
8
1
10
43.964
20
197.356
11
39.219
21
203.331
0
LINE
8
1
10
39.219
20
203.331
11
38.458
21
204.092
0
LINE
8
1
10
38.458
20
204.092
11
27.035
21
207.138
0
LINE
8
1
10
27.035
20
207.138
11
26.273
21
206.377
0
LINE
8
1
10
26.273
20
206.377
11
25.512
21
206.377
0
LINE
8
1
10
46.073
20
249.023
11
46.073
21
246.738
0
LINE
8
1
10
46.073
20
246.738
11
48.434
21
245.368
0
LINE
8
1
10
48.434
20
245.368
11
49.881
21
245.215
0
LINE
8
1
10
49.881
20
245.215
11
50.642
21
244.454
0
LINE
8
1
10
50.642
20
244.454
11
59.781
21
245.215
0
LINE
8
1
10
59.781
20
245.215
11
60.588
21
244.774
0
LINE
8
1
10
60.588
20
244.774
11
68.861
21
243.399
0
LINE
8
1
10
68.861
20
243.399
11
78.743
21
240.418
0
LINE
8
1
10
78.743
20
240.418
11
85.673
21
236.838
0
LINE
8
1
10
85.673
20
236.838
11
91.765
21
230.746
0
LINE
8
1
10
91.765
20
230.746
11
95.386
21
226.021
0
LINE
8
1
10
95.386
20
226.021
11
97.248
21
222.445
0
LINE
8
1
10
97.248
20
222.445
11
101.841
21
208.779
0
LINE
8
1
10
101.841
20
208.779
11
103.188
21
206.377
0
LINE
8
1
10
103.188
20
206.377
11
105.473
21
204.092
0
LINE
8
1
10
105.473
20
204.092
11
110.042
21
203.331
0
LINE
8
1
10
110.042
20
203.331
11
110.804
21
202.569
0
LINE
8
1
10
110.804
20
202.569
11
110.484
21
198.046
0
LINE
8
1
10
110.484
20
198.046
11
109.433
21
195.639
0
LINE
8
1
10
109.433
20
195.639
11
108.519
21
193.431
0
LINE
8
1
10
108.519
20
193.431
11
106.996
21
191.908
0
LINE
8
1
10
106.996
20
191.908
11
104.026
21
190.994
0
LINE
8
1
10
104.026
20
190.994
11
103.188
21
190.385
0
LINE
8
1
10
66.635
20
204.092
11
63.44
21
201.232
0
LINE
8
1
10
63.44
20
201.232
11
59.019
21
198.762
0
LINE
8
1
10
59.019
20
198.762
11
55.212
21
198.762
0
LINE
8
1
10
55.212
20
198.762
11
51.328
21
200.132
0
LINE
8
1
10
51.328
20
200.132
11
47.596
21
203.331
0
LINE
8
1
10
47.596
20
203.331
11
46.682
21
205.539
0
LINE
8
1
10
46.682
20
205.539
11
46.073
21
206.377
0
LINE
8
1
10
46.073
20
206.377
11
39.981
21
204.092
0
LINE
8
1
10
39.981
20
204.092
11
39.219
21
204.854
0
LINE
8
1
10
39.219
20
204.854
11
39.219
21
206.377
0
LINE
8
1
10
39.219
20
206.377
11
38.458
21
207.138
0
LINE
8
1
10
38.458
20
207.138
11
34.65
21
210.946
0
LINE
8
1
10
34.65
20
210.946
11
33.888
21
211.708
0
LINE
8
1
10
33.888
20
211.708
11
28.558
21
213.992
0
LINE
8
1
10
28.558
20
213.992
11
27.035
21
213.992
0
LINE
8
1
10
27.035
20
213.992
11
24.826
21
214.906
0
LINE
8
1
10
24.826
20
214.906
11
23.988
21
215.515
0
LINE
8
1
10
23.988
20
215.515
11
16.373
21
217.038
0
LINE
8
1
10
16.373
20
217.038
11
14.85
21
217.038
0
LINE
8
1
10
14.85
20
217.038
11
9.519
21
217.038
0
LINE
8
1
10
9.519
20
217.038
11
7.996
21
217.038
0
LINE
8
1
10
7.996
20
217.038
11
4.95
21
216.277
0
LINE
8
1
10
4.95
20
216.277
11
3.427
21
216.277
0
LINE
8
1
10
3.427
20
216.277
11
-1.142
21
213.992
0
LINE
8
1
10
-1.142
20
213.992
11
-1.904
21
213.992
0
LINE
8
1
10
-3.427
20
208.662
11
2.665
21
208.662
0
LINE
8
1
10
2.665
20
208.662
11
3.427
21
208.662
0
LINE
8
1
10
4.188
20
216.277
11
3.427
21
217.8
0
LINE
8
1
10
3.427
20
217.8
11
3.427
21
223.892
0
LINE
8
1
10
3.427
20
223.892
11
4.457
21
226.871
0
LINE
8
1
10
4.457
20
226.871
11
6.473
21
230.746
0
LINE
8
1
10
6.473
20
230.746
11
14.088
21
238.362
0
LINE
8
1
10
14.088
20
238.362
11
15.612
21
239.123
0
LINE
8
1
10
15.612
20
239.123
11
15.612
21
240.646
0
LINE
8
1
10
21.704
20
240.646
11
18.658
21
236.838
0
LINE
8
1
10
18.658
20
236.838
11
17.135
21
236.077
0
LINE
8
1
10
17.135
20
236.077
11
14.274
21
232.121
0
LINE
8
1
10
14.274
20
232.121
11
10.128
21
224.73
0
LINE
8
1
10
10.128
20
224.73
11
9.748
21
223.816
0
LINE
8
1
10
9.748
20
223.816
11
8.377
21
218.562
0
LINE
8
1
10
8.377
20
218.562
11
8.758
21
217.8
0
LINE
8
1
10
8.758
20
217.8
11
8.758
21
217.038
0
LINE
8
1
10
11.042
20
196.477
11
10.281
21
198.0
0
LINE
8
1
10
10.281
20
198.0
11
10.281
21
199.523
0
LINE
8
1
10
10.281
20
199.523
11
11.042
21
200.285
0
LINE
8
1
10
11.042
20
200.285
11
13.327
21
201.046
0
LINE
8
1
10
13.327
20
201.046
11
14.088
21
200.285
0
LINE
8
1
10
14.088
20
200.285
11
14.088
21
198.0
0
LINE
8
1
10
14.088
20
198.0
11
12.565
21
196.477
0
LINE
8
1
10
15.612
20
217.038
11
17.363
21
224.578
0
LINE
8
1
10
17.363
20
224.578
11
20.028
21
231.584
0
LINE
8
1
10
20.028
20
231.584
11
26.273
21
239.885
0
LINE
8
1
10
26.273
20
239.885
11
27.035
21
240.646
0
LINE
8
1
10
27.035
20
240.646
11
27.796
21
241.408
0
LINE
8
1
10
27.796
20
241.408
11
29.319
21
241.408
0
LINE
8
1
10
29.319
20
241.408
11
30.842
21
239.885
0
LINE
8
1
10
30.842
20
239.885
11
29.472
21
236.762
0
LINE
8
1
10
29.472
20
236.762
11
25.804
21
226.88
0
LINE
8
1
10
25.804
20
226.88
11
23.988
21
215.515
0
LINE
8
1
10
34.65
20
211.708
11
36.325
21
214.678
0
LINE
8
1
10
36.325
20
214.678
11
38.458
21
220.846
0
LINE
8
1
10
38.458
20
220.846
11
38.458
21
232.269
0
LINE
8
1
10
38.458
20
232.269
11
36.935
21
236.838
0
LINE
8
1
10
36.935
20
236.838
11
37.696
21
237.6
0
LINE
8
1
10
37.696
20
237.6
11
39.828
21
236.534
0
LINE
8
1
10
39.828
20
236.534
11
42.265
21
235.315
0
LINE
8
1
10
42.265
20
235.315
11
45.312
21
232.269
0
LINE
8
1
10
45.312
20
232.269
11
45.921
21
230.67
0
LINE
8
1
10
45.921
20
230.67
11
48.358
21
225.415
0
LINE
8
1
10
48.358
20
225.415
11
48.358
21
217.038
0
LINE
8
1
10
48.358
20
217.038
11
45.312
21
210.185
0
LINE
8
1
10
45.312
20
210.185
11
46.073
21
209.423
0
LINE
8
1
10
46.073
20
209.423
11
46.073
21
207.138
0
LINE
8
1
10
46.073
20
207.138
11
46.073
21
206.377
0
LINE
8
1
10
45.312
20
210.185
11
39.981
21
207.138
0
LINE
8
1
10
39.981
20
207.138
11
39.219
21
207.138
0
LINE
8
1
10
28.558
20
213.992
11
30.233
21
216.201
0
LINE
8
1
10
30.233
20
216.201
11
33.127
21
225.415
0
LINE
8
1
10
33.127
20
225.415
11
33.127
21
231.508
0
LINE
8
1
10
33.127
20
231.508
11
32.365
21
232.269
0
LINE
8
1
10
32.365
20
232.269
11
30.233
21
229.147
0
LINE
8
1
10
30.233
20
229.147
11
28.265
21
220.143
0
LINE
8
1
10
28.265
20
220.143
11
27.796
21
214.754
0
LINE
8
1
10
27.796
20
214.754
11
27.796
21
213.992
0
LINE
8
1
10
59.781
20
208.662
11
59.781
21
206.377
0
LINE
8
1
10
59.781
20
206.377
11
60.542
21
205.615
0
LINE
8
1
10
59.019
20
214.754
11
56.735
21
229.985
0
LINE
8
1
10
-35.412
20
240.646
11
-36.173
21
238.362
0
LINE
8
1
10
-36.173
20
238.362
11
-37.696
21
236.838
0
LINE
8
1
10
-37.696
20
236.838
11
-41.504
21
236.838
0
LINE
8
1
10
-41.504
20
236.838
11
-43.027
21
238.362
0
LINE
8
1
10
-43.027
20
238.362
11
-43.788
21
238.362
0
LINE
8
1
10
22.465
20
241.408
11
24.75
21
241.408
0
LINE
8
1
10
24.75
20
241.408
11
25.512
21
240.646
0
LINE
8
1
10
25.512
20
240.646
11
26.273
21
240.646
0
LINE
8
1
10
23.227
20
245.977
11
24.75
21
245.977
0
LINE
8
1
10
24.75
20
245.977
11
26.273
21
245.977
0
LINE
8
1
10
26.273
20
245.977
11
33.075
21
244.907
0
LINE
8
1
10
33.075
20
244.907
11
36.249
21
243.845
0
LINE
8
1
10
36.249
20
243.845
11
37.696
21
242.931
0
LINE
8
1
10
38.458
20
244.454
11
37.925
21
246.053
0
LINE
8
1
10
37.925
20
246.053
11
37.696
21
247.5
0
LINE
8
1
10
37.696
20
247.5
11
34.65
21
250.546
0
LINE
8
1
10
34.65
20
250.546
11
30.081
21
250.546
0
LINE
8
1
10
30.081
20
250.546
11
28.634
21
249.632
0
LINE
8
1
10
28.634
20
249.632
11
27.72
21
249.175
0
LINE
8
1
10
27.72
20
249.175
11
25.512
21
247.5
0
LINE
8
1
10
25.512
20
247.5
11
25.512
21
245.977
0
LINE
8
1
10
30.842
20
239.885
11
33.127
21
239.885
0
LINE
8
1
10
33.127
20
239.885
11
34.65
21
238.362
0
LINE
8
1
10
34.65
20
238.362
11
32.365
21
233.031
0
LINE
8
1
10
32.365
20
233.031
11
32.365
21
232.269
0
LINE
8
1
10
37.696
20
237.6
11
37.696
21
239.885
0
LINE
8
1
10
37.696
20
239.885
11
38.458
21
240.646
0
LINE
8
1
10
36.935
20
237.6
11
36.173
21
238.362
0
LINE
8
1
10
36.173
20
238.362
11
34.65
21
238.362
0
LINE
8
1
10
49.881
20
245.215
11
50.033
21
246.662
0
LINE
8
1
10
50.033
20
246.662
11
50.642
21
247.5
0
LINE
8
1
10
50.642
20
247.5
11
50.642
21
253.592
0
LINE
8
1
10
50.642
20
253.592
11
48.358
21
257.4
0
LINE
8
1
10
48.358
20
257.4
11
46.073
21
258.923
0
ENDSEC
0
EOF
