999
DXF created by Makelangelo software (http://makelangelo.com)
0
SECTION
2
HEADER
9
$ACADVER
1
AC1006
9
$INSBASE
10
-199.5
20
-273.48512286424784
30
0.0
9
$EXTMIN
10
-199.5
20
-273.48512286424784
30
0.0
9
$EXTMAX
10
199.5
20
273.48512286424784
30
0.0
0
ENDSEC
0
SECTION
2
TABLES
0
TABLE
2
LTYPE
70
1
0
LTYPE
2
CONTINUOUS
70
64
3
Solid line
72
65
73
0
40
0.000
0
ENDTAB
0
TABLE
2
LAYER
70
6
0
LAYER
2
1
70
64
62
7
6
CONTINUOUS
0
LAYER
2
2
70
64
62
7
6
CONTINUOUS
0
ENDTAB
0
TABLE
2
STYLE
70
0
0
ENDTAB
0
ENDSEC
0
SECTION
0
BLOCKS
0
ENDSEC
0
SECTION
2
ENTITIES
0
LINE
8
1
10
-111.124
20
-252.879
11
-117.095
21
-247.577
0
LINE
8
1
10
-117.095
20
-247.577
11
-119.913
21
-240.352
0
LINE
8
1
10
-119.913
20
-240.352
11
-120.221
21
-232.072
0
LINE
8
1
10
-120.221
20
-232.072
11
-115.898
21
-215.818
0
LINE
8
1
10
-115.898
20
-215.818
11
-112.557
21
-209.58
0
LINE
8
1
10
-112.557
20
-209.58
11
-109.292
21
-205.757
0
LINE
8
1
10
-109.292
20
-205.757
11
-109.414
21
-204.153
0
LINE
8
1
10
-109.414
20
-204.153
11
-110.731
21
-203.492
0
LINE
8
1
10
-110.731
20
-203.492
11
-119.564
21
-214.475
0
LINE
8
1
10
-119.564
20
-214.475
11
-127.069
21
-232.273
0
LINE
8
1
10
-127.069
20
-232.273
11
-127.406
21
-241.455
0
LINE
8
1
10
-127.406
20
-241.455
11
-123.91
21
-249.614
0
LINE
8
1
10
-123.91
20
-249.614
11
-115.414
21
-255.84
0
LINE
8
1
10
-115.414
20
-255.84
11
-100.751
21
-259.225
0
LINE
8
1
10
-100.751
20
-259.225
11
-97.097
21
-258.95
0
LINE
8
1
10
-97.097
20
-258.95
11
-96.177
21
-257.703
0
LINE
8
1
10
-96.177
20
-257.703
11
-97.694
21
-256.259
0
LINE
8
1
10
-97.694
20
-256.259
11
-101.352
21
-255.391
0
LINE
8
1
10
-60.969
20
-235.204
11
-60.171
21
-234.711
0
LINE
8
1
10
-60.171
20
-234.711
11
-57.063
21
-220.089
0
LINE
8
1
10
-57.063
20
-220.089
11
-49.936
21
-203.067
0
LINE
8
1
10
-49.936
20
-203.067
11
-39.015
21
-187.538
0
LINE
8
1
10
-39.015
20
-187.538
11
-24.524
21
-177.392
0
LINE
8
1
10
-24.524
20
-177.392
11
-23.509
21
-177.3
0
LINE
8
1
10
-23.509
20
-177.3
11
-20.686
21
-177.172
0
LINE
8
1
10
-20.686
20
-177.172
11
-18.268
21
-178.04
0
LINE
8
1
10
-18.268
20
-178.04
11
-15.785
21
-178.828
0
LINE
8
1
10
-15.785
20
-178.828
11
-15.387
21
-176.821
0
LINE
8
1
10
-15.387
20
-176.821
11
-19.782
21
-174.172
0
LINE
8
1
10
-19.782
20
-174.172
11
-25.063
21
-174.76
0
LINE
8
1
10
-25.063
20
-174.76
11
-40.368
21
-184.73
0
LINE
8
1
10
-40.368
20
-184.73
11
-52.408
21
-200.969
0
LINE
8
1
10
-52.408
20
-200.969
11
-59.951
21
-219.038
0
LINE
8
1
10
-59.951
20
-219.038
11
-61.762
21
-234.497
0
LINE
8
1
10
-5.977
20
-220.693
11
-22.495
21
-235.162
0
LINE
8
1
10
-22.495
20
-235.162
11
-45.971
21
-258.075
0
LINE
8
1
10
-45.971
20
-258.075
11
-56.215
21
-264.867
0
LINE
8
1
10
-56.215
20
-264.867
11
-63.65
21
-266.09
0
LINE
8
1
10
-63.65
20
-266.09
11
-73.677
21
-265.997
0
LINE
8
1
10
-73.677
20
-265.997
11
-96.994
21
-263.849
0
LINE
8
1
10
-96.994
20
-263.849
11
-113.638
21
-261.217
0
LINE
8
1
10
-113.638
20
-261.217
11
-127.303
21
-257.293
0
LINE
8
1
10
-127.303
20
-257.293
11
-131.66
21
-255.016
0
LINE
8
1
10
-131.66
20
-255.016
11
-133.944
21
-252.401
0
LINE
8
1
10
-133.944
20
-252.401
11
-134.42
21
-248.58
0
LINE
8
1
10
-134.42
20
-248.58
11
-133.35
21
-242.686
0
LINE
8
1
10
-133.35
20
-242.686
11
-119.934
21
-207.712
0
LINE
8
1
10
-119.934
20
-207.712
11
-106.754
21
-188.792
0
LINE
8
1
10
-106.754
20
-188.792
11
-88.129
21
-173.179
0
LINE
8
1
10
-88.129
20
-173.179
11
-83.295
21
-170.893
0
LINE
8
1
10
-83.295
20
-170.893
11
-79.293
21
-170.378
0
LINE
8
1
10
-79.293
20
-170.378
11
-75.65
21
-171.481
0
LINE
8
1
10
-75.65
20
-171.481
11
-71.894
21
-174.046
0
LINE
8
1
10
-71.894
20
-174.046
11
-70.229
21
-175.912
0
LINE
8
1
10
-70.229
20
-175.912
11
-66.778
21
-179.513
0
LINE
8
1
10
-66.778
20
-179.513
11
-59.013
21
-181.299
0
LINE
8
1
10
-59.013
20
-181.299
11
-51.524
21
-183.021
0
LINE
8
1
10
-51.524
20
-183.021
11
-46.135
21
-182.66
0
LINE
8
1
10
-46.135
20
-182.66
11
-43.587
21
-179.73
0
LINE
8
1
10
-43.587
20
-179.73
11
-39.063
21
-175.712
0
LINE
8
1
10
-39.063
20
-175.712
11
-33.007
21
-172.416
0
LINE
8
1
10
-33.007
20
-172.416
11
-33.087
21
-169.459
0
LINE
8
1
10
-33.087
20
-169.459
11
-33.333
21
-167.114
0
LINE
8
1
10
-33.333
20
-167.114
11
-18.45
21
-171.366
0
LINE
8
1
10
-18.45
20
-171.366
11
-5.078
21
-183.032
0
LINE
8
1
10
-5.078
20
-183.032
11
4.383
21
-197.689
0
LINE
8
1
10
4.383
20
-197.689
11
6.898
21
-204.759
0
LINE
8
1
10
6.898
20
-204.759
11
7.535
21
-210.919
0
LINE
8
1
10
52.511
20
-176.204
11
46.918
21
-176.213
0
LINE
8
1
10
46.918
20
-176.213
11
41.877
21
-179.513
0
LINE
8
1
10
41.877
20
-179.513
11
41.905
21
-181.836
0
LINE
8
1
10
41.905
20
-181.836
11
43.345
21
-181.552
0
LINE
8
1
10
43.345
20
-181.552
11
46.974
21
-179.004
0
LINE
8
1
10
46.974
20
-179.004
11
51.311
21
-178.976
0
LINE
8
1
10
51.311
20
-178.976
11
58.508
21
-182.418
0
LINE
8
1
10
58.508
20
-182.418
11
71.875
21
-198.145
0
LINE
8
1
10
71.875
20
-198.145
11
81.565
21
-217.672
0
LINE
8
1
10
81.565
20
-217.672
11
87.351
21
-238.058
0
LINE
8
1
10
87.351
20
-238.058
11
89.004
21
-256.36
0
LINE
8
1
10
89.004
20
-256.36
11
89.503
21
-257.413
0
LINE
8
1
10
89.503
20
-257.413
11
90.186
21
-256.367
0
LINE
8
1
10
90.186
20
-256.367
11
90.23
21
-236.85
0
LINE
8
1
10
90.23
20
-236.85
11
85.242
21
-216.282
0
LINE
8
1
10
85.242
20
-216.282
11
75.445
21
-196.741
0
LINE
8
1
10
75.445
20
-196.741
11
61.063
21
-180.307
0
LINE
8
1
10
109.649
20
-167.072
11
120.505
21
-172.858
0
LINE
8
1
10
120.505
20
-172.858
11
130.833
21
-182.234
0
LINE
8
1
10
130.833
20
-182.234
11
140.329
21
-194.106
0
LINE
8
1
10
140.329
20
-194.106
11
155.598
21
-220.963
0
LINE
8
1
10
155.598
20
-220.963
11
163.87
21
-244.675
0
LINE
8
1
10
163.87
20
-244.675
11
164.582
21
-249.775
0
LINE
8
1
10
164.582
20
-249.775
11
163.967
21
-252.789
0
LINE
8
1
10
163.967
20
-252.789
11
161.888
21
-254.649
0
LINE
8
1
10
161.888
20
-254.649
11
158.208
21
-256.282
0
LINE
8
1
10
158.208
20
-256.282
11
154.319
21
-257.915
0
LINE
8
1
10
154.319
20
-257.915
11
143.279
21
-261.551
0
LINE
8
1
10
143.279
20
-261.551
11
127.512
21
-265.502
0
LINE
8
1
10
127.512
20
-265.502
11
112.055
21
-268.699
0
LINE
8
1
10
112.055
20
-268.699
11
101.948
21
-270.071
0
LINE
8
1
10
101.948
20
-270.071
11
95.005
21
-269.856
0
LINE
8
1
10
95.005
20
-269.856
11
89.511
21
-268.478
0
LINE
8
1
10
89.511
20
-268.478
11
84.544
21
-265.267
0
LINE
8
1
10
84.544
20
-265.267
11
79.179
21
-259.548
0
LINE
8
1
10
79.179
20
-259.548
11
73.421
21
-252.392
0
LINE
8
1
10
73.421
20
-252.392
11
63.436
21
-240.181
0
LINE
8
1
10
63.436
20
-240.181
11
52.647
21
-228.699
0
LINE
8
1
10
52.647
20
-228.699
11
23.36
21
-208.227
0
LINE
8
1
10
23.36
20
-208.227
11
36.717
21
-181.088
0
LINE
8
1
10
36.717
20
-181.088
11
47.914
21
-171.122
0
LINE
8
1
10
47.914
20
-171.122
11
60.965
21
-166.543
0
LINE
8
1
10
60.965
20
-166.543
11
64.267
21
-173.943
0
LINE
8
1
10
64.267
20
-173.943
11
70.518
21
-179.799
0
LINE
8
1
10
70.518
20
-179.799
11
77.688
21
-186.854
0
LINE
8
1
10
77.688
20
-186.854
11
82.809
21
-188.416
0
LINE
8
1
10
82.809
20
-188.416
11
89.964
21
-187.232
0
LINE
8
1
10
89.964
20
-187.232
11
96.569
21
-184.595
0
LINE
8
1
10
96.569
20
-184.595
11
100.039
21
-181.797
0
LINE
8
1
10
100.039
20
-181.797
11
100.072
21
-175.483
0
LINE
8
1
10
100.072
20
-175.483
11
99.114
21
-169.158
0
LINE
8
1
10
99.114
20
-169.158
11
98.57
21
-165.972
0
LINE
8
1
10
32.641
20
-128.389
11
31.256
21
-124.598
0
LINE
8
1
10
31.256
20
-124.598
11
31.478
21
-123.338
0
LINE
8
1
10
31.478
20
-123.338
11
32.661
21
-122.097
0
LINE
8
1
10
32.661
20
-122.097
11
36.292
21
-119.83
0
LINE
8
1
10
36.292
20
-119.83
11
38.614
21
-118.415
0
LINE
8
1
10
38.614
20
-118.415
11
39.939
21
-103.613
0
LINE
8
1
10
39.939
20
-103.613
11
41.551
21
-103.405
0
LINE
8
1
10
41.551
20
-103.405
11
40.642
21
-118.854
0
LINE
8
1
10
40.642
20
-118.854
11
45.124
21
-124.092
0
LINE
8
1
10
45.124
20
-124.092
11
46.853
21
-126.898
0
LINE
8
1
10
46.853
20
-126.898
11
42.275
21
-128.652
0
LINE
8
1
10
42.275
20
-128.652
11
35.677
21
-130.406
0
LINE
8
1
10
158.484
20
-136.785
11
157.31
21
-136.895
0
LINE
8
1
10
157.31
20
-136.895
11
157.186
21
-135.593
0
LINE
8
1
10
157.186
20
-135.593
11
157.72
21
-133.578
0
LINE
8
1
10
157.72
20
-133.578
11
158.002
21
-132.759
0
LINE
8
1
10
158.002
20
-132.759
11
160.745
21
-124.049
0
LINE
8
1
10
160.745
20
-124.049
11
162.457
21
-113.899
0
LINE
8
1
10
162.457
20
-113.899
11
160.951
21
-104.229
0
LINE
8
1
10
160.951
20
-104.229
11
154.04
21
-96.961
0
LINE
8
1
10
154.04
20
-96.961
11
152.171
21
-94.876
0
LINE
8
1
10
152.171
20
-94.876
11
152.99
21
-92.483
0
LINE
8
1
10
152.99
20
-92.483
11
153.108
21
-92.254
0
LINE
8
1
10
153.108
20
-92.254
11
154.588
21
-89.582
0
LINE
8
1
10
154.588
20
-89.582
11
157.548
21
-83.175
0
LINE
8
1
10
157.548
20
-83.175
11
157.872
21
-85.709
0
LINE
8
1
10
157.872
20
-85.709
11
156.971
21
-88.877
0
LINE
8
1
10
156.971
20
-88.877
11
155.835
21
-94.024
0
LINE
8
1
10
155.835
20
-94.024
11
161.426
21
-97.747
0
LINE
8
1
10
161.426
20
-97.747
11
164.883
21
-104.377
0
LINE
8
1
10
164.883
20
-104.377
11
163.982
21
-121.162
0
LINE
8
1
10
163.982
20
-121.162
11
162.673
21
-125.493
0
LINE
8
1
10
162.673
20
-125.493
11
162.664
21
-126.677
0
LINE
8
1
10
162.664
20
-126.677
11
162.995
21
-127.173
0
LINE
8
1
10
162.995
20
-127.173
11
164.409
21
-125.997
0
LINE
8
1
10
164.409
20
-125.997
11
166.376
21
-121.76
0
LINE
8
1
10
166.376
20
-121.76
11
170.17
21
-107.633
0
LINE
8
1
10
170.17
20
-107.633
11
170.691
21
-94.759
0
LINE
8
1
10
170.691
20
-94.759
11
166.786
21
-84.557
0
LINE
8
1
10
166.786
20
-84.557
11
157.303
21
-78.444
0
LINE
8
1
10
157.303
20
-78.444
11
168.723
21
-58.459
0
LINE
8
1
10
168.723
20
-58.459
11
183.11
21
-72.56
0
LINE
8
1
10
183.11
20
-72.56
11
185.033
21
-82.313
0
LINE
8
1
10
185.033
20
-82.313
11
184.081
21
-93.083
0
LINE
8
1
10
184.081
20
-93.083
11
175.467
21
-115.32
0
LINE
8
1
10
175.467
20
-115.32
11
161.098
21
-134.564
0
LINE
8
1
10
-37.167
20
-170.05
11
-47.274
21
-179.554
0
LINE
8
1
10
-47.274
20
-179.554
11
-52.766
21
-177.978
0
LINE
8
1
10
-52.766
20
-177.978
11
-58.786
21
-177.329
0
LINE
8
1
10
-58.786
20
-177.329
11
-58.92
21
-177.318
0
LINE
8
1
10
-58.92
20
-177.318
11
-62.62
21
-176.668
0
LINE
8
1
10
-62.62
20
-176.668
11
-64.47
21
-175.532
0
LINE
8
1
10
-64.47
20
-175.532
11
-65.058
21
-171.991
0
LINE
8
1
10
-65.058
20
-171.991
11
-65.015
21
-171.236
0
LINE
8
1
10
-65.015
20
-171.236
11
-58.801
21
-135.158
0
LINE
8
1
10
-58.801
20
-135.158
11
-42.388
21
-101.276
0
LINE
8
1
10
-42.388
20
-101.276
11
-35.601
21
-93.315
0
LINE
8
1
10
-35.601
20
-93.315
11
-34.231
21
-94.024
0
LINE
8
1
10
-34.231
20
-94.024
11
-38.79
21
-99.236
0
LINE
8
1
10
-38.79
20
-99.236
11
-42.589
21
-105.186
0
LINE
8
1
10
-42.589
20
-105.186
11
-43.195
21
-106.187
0
LINE
8
1
10
-43.195
20
-106.187
11
-37.547
21
-109.414
0
LINE
8
1
10
-37.547
20
-109.414
11
-33.576
21
-112.772
0
LINE
8
1
10
-33.576
20
-112.772
11
-32.933
21
-113.349
0
LINE
8
1
10
-32.933
20
-113.349
11
-32.341
21
-113.319
0
LINE
8
1
10
-32.341
20
-113.319
11
-31.408
21
-112.664
0
LINE
8
1
10
-31.408
20
-112.664
11
-28.74
21
-110.076
0
LINE
8
1
10
-28.74
20
-110.076
11
-24.541
21
-106.039
0
LINE
8
1
10
-24.541
20
-106.039
11
-20.118
21
-103.161
0
LINE
8
1
10
-20.118
20
-103.161
11
-19.547
21
-103.976
0
LINE
8
1
10
-19.547
20
-103.976
11
-30.379
21
-117.615
0
LINE
8
1
10
-30.379
20
-117.615
11
-39.775
21
-137.409
0
LINE
8
1
10
-39.775
20
-137.409
11
-46.4
21
-158.691
0
LINE
8
1
10
-46.4
20
-158.691
11
-48.918
21
-176.792
0
LINE
8
1
10
-48.918
20
-176.792
11
-47.598
21
-177.657
0
LINE
8
1
10
-47.598
20
-177.657
11
-40.6
21
-146.668
0
LINE
8
1
10
-40.6
20
-146.668
11
-27.705
21
-118.089
0
LINE
8
1
10
-27.705
20
-118.089
11
-25.828
21
-119.981
0
LINE
8
1
10
-25.828
20
-119.981
11
-23.3
21
-122.389
0
LINE
8
1
10
-23.3
20
-122.389
11
-20.118
21
-123.749
0
LINE
8
1
10
-20.118
20
-123.749
11
-16.923
21
-120.366
0
LINE
8
1
10
-16.923
20
-120.366
11
-16.607
21
-121.152
0
LINE
8
1
10
12.103
20
-124.02
11
3.945
21
-122.493
0
LINE
8
1
10
3.945
20
-122.493
11
-1.725
21
-120.365
0
LINE
8
1
10
-1.725
20
-120.365
11
-4.922
21
-117.821
0
LINE
8
1
10
-4.922
20
-117.821
11
-6.53
21
-114.709
0
LINE
8
1
10
-6.53
20
-114.709
11
-7.429
21
-110.874
0
LINE
8
1
10
-7.429
20
-110.874
11
-11.906
21
-97.915
0
LINE
8
1
10
-11.906
20
-97.915
11
-15.879
21
-97.305
0
LINE
8
1
10
-15.879
20
-97.305
11
-13.639
21
-103.197
0
LINE
8
1
10
-13.639
20
-103.197
11
-12.469
21
-109.588
0
LINE
8
1
10
-12.469
20
-109.588
11
-11.817
21
-113.55
0
LINE
8
1
10
-11.817
20
-113.55
11
-10.406
21
-118.928
0
LINE
8
1
10
-10.406
20
-118.928
11
-8.188
21
-122.936
0
LINE
8
1
10
-8.188
20
-122.936
11
0.204
21
-127.006
0
LINE
8
1
10
0.204
20
-127.006
11
1.27
21
-127.186
0
LINE
8
1
10
1.27
20
-127.186
11
10.088
21
-128.484
0
LINE
8
1
10
10.088
20
-128.484
11
19.526
21
-128.367
0
LINE
8
1
10
19.526
20
-128.367
11
20.449
21
-126.949
0
LINE
8
1
10
20.449
20
-126.949
11
18.955
21
-125.185
0
LINE
8
1
10
90.548
20
-146.333
11
94.692
21
-164.407
0
LINE
8
1
10
94.692
20
-164.407
11
96.449
21
-180.329
0
LINE
8
1
10
96.449
20
-180.329
11
92.849
21
-181.854
0
LINE
8
1
10
92.849
20
-181.854
11
87.256
21
-184.133
0
LINE
8
1
10
87.256
20
-184.133
11
81.766
21
-185.386
0
LINE
8
1
10
81.766
20
-185.386
11
80.43
21
-177.861
0
LINE
8
1
10
80.43
20
-177.861
11
77.412
21
-167.545
0
LINE
8
1
10
77.412
20
-167.545
11
67.885
21
-142.548
0
LINE
8
1
10
67.885
20
-142.548
11
56.284
21
-118.414
0
LINE
8
1
10
56.284
20
-118.414
11
50.675
21
-109.176
0
LINE
8
1
10
50.675
20
-109.176
11
45.711
21
-103.161
0
LINE
8
1
10
45.711
20
-103.161
11
48.79
21
-102.844
0
LINE
8
1
10
48.79
20
-102.844
11
50.906
21
-104.415
0
LINE
8
1
10
50.906
20
-104.415
11
52.943
21
-106.996
0
LINE
8
1
10
52.943
20
-106.996
11
56.022
21
-110.644
0
LINE
8
1
10
56.022
20
-110.644
11
59.742
21
-111.971
0
LINE
8
1
10
59.742
20
-111.971
11
74.482
21
-108.483
0
LINE
8
1
10
74.482
20
-108.483
11
76.79
21
-107.81
0
LINE
8
1
10
106.341
20
-102.905
11
105.786
21
-111.539
0
LINE
8
1
10
105.786
20
-111.539
11
106.686
21
-113.583
0
LINE
8
1
10
106.686
20
-113.583
11
107.987
21
-114.017
0
LINE
8
1
10
107.987
20
-114.017
11
109.015
21
-112.953
0
LINE
8
1
10
109.015
20
-112.953
11
109.093
21
-110.502
0
LINE
8
1
10
109.093
20
-110.502
11
110.333
21
-100.155
0
LINE
8
1
10
110.333
20
-100.155
11
115.062
21
-91.071
0
LINE
8
1
10
115.062
20
-91.071
11
121.292
21
-84.36
0
LINE
8
1
10
121.292
20
-84.36
11
127.039
21
-81.136
0
LINE
8
1
10
127.039
20
-81.136
11
129.5
21
-84.144
0
LINE
8
1
10
129.5
20
-84.144
11
129.632
21
-87.078
0
LINE
8
1
10
129.632
20
-87.078
11
130.384
21
-89.909
0
LINE
8
1
10
130.384
20
-89.909
11
131.417
21
-89.915
0
LINE
8
1
10
131.417
20
-89.915
11
132.723
21
-88.542
0
LINE
8
1
10
132.723
20
-88.542
11
135.523
21
-76.976
0
LINE
8
1
10
135.523
20
-76.976
11
139.03
21
-76.976
0
LINE
8
1
10
139.03
20
-76.976
11
137.527
21
-79.391
0
LINE
8
1
10
137.527
20
-79.391
11
136.444
21
-82.994
0
LINE
8
1
10
136.444
20
-82.994
11
135.547
21
-88.798
0
LINE
8
1
10
135.547
20
-88.798
11
135.137
21
-90.844
0
LINE
8
1
10
135.137
20
-90.844
11
133.37
21
-91.736
0
LINE
8
1
10
133.37
20
-91.736
11
125.615
21
-94.121
0
LINE
8
1
10
125.615
20
-94.121
11
118.885
21
-100.104
0
LINE
8
1
10
118.885
20
-100.104
11
109.093
21
-118.66
0
LINE
8
1
10
109.093
20
-118.66
11
101.932
21
-105.426
0
LINE
8
1
10
101.932
20
-105.426
11
102.726
21
-87.461
0
LINE
8
1
10
102.726
20
-87.461
11
110.918
21
-69.11
0
LINE
8
1
10
110.918
20
-69.11
11
125.949
21
-54.72
0
LINE
8
1
10
125.949
20
-54.72
11
127.166
21
-54.11
0
LINE
8
1
10
127.166
20
-54.11
11
126.192
21
-55.021
0
LINE
8
1
10
126.192
20
-55.021
11
118.496
21
-63.344
0
LINE
8
1
10
118.496
20
-63.344
11
111.971
21
-73.949
0
LINE
8
1
10
111.971
20
-73.949
11
107.277
21
-84.447
0
LINE
8
1
10
107.277
20
-84.447
11
105.072
21
-92.453
0
LINE
8
1
10
105.072
20
-92.453
11
108.353
21
-93.125
0
LINE
8
1
10
108.353
20
-93.125
11
111.138
21
-84.281
0
LINE
8
1
10
111.138
20
-84.281
11
115.086
21
-76.516
0
LINE
8
1
10
115.086
20
-76.516
11
129.405
21
-65.229
0
LINE
8
1
10
129.405
20
-65.229
11
131.444
21
-52.014
0
LINE
8
1
10
131.444
20
-52.014
11
137.888
21
-50.301
0
LINE
8
1
10
137.888
20
-50.301
11
134.504
21
-62.41
0
LINE
8
1
10
134.504
20
-62.41
11
141.151
21
-73.142
0
LINE
8
1
10
141.151
20
-73.142
11
131.726
21
-74.429
0
LINE
8
1
10
131.726
20
-74.429
11
122.767
21
-79.158
0
LINE
8
1
10
122.767
20
-79.158
11
109.093
21
-94.595
0
LINE
8
1
10
-189.204
20
-73.155
11
-189.122
21
-72.004
0
LINE
8
1
10
-189.122
20
-72.004
11
-176.471
21
-52.627
0
LINE
8
1
10
-176.471
20
-52.627
11
-166.738
21
-44.25
0
LINE
8
1
10
-166.738
20
-44.25
11
-155.448
21
-39.37
0
LINE
8
1
10
-155.448
20
-39.37
11
-153.572
21
-38.116
0
LINE
8
1
10
-153.572
20
-38.116
11
-153.409
21
-36.189
0
LINE
8
1
10
-153.409
20
-36.189
11
-159.61
21
-36.665
0
LINE
8
1
10
-159.61
20
-36.665
11
-166.847
21
-39.472
0
LINE
8
1
10
-166.847
20
-39.472
11
-181.664
21
-51.013
0
LINE
8
1
10
-181.664
20
-51.013
11
-192.329
21
-68.679
0
LINE
8
1
10
-192.329
20
-68.679
11
-193.315
21
-90.339
0
LINE
8
1
10
-193.315
20
-90.339
11
-191.83
21
-90.585
0
LINE
8
1
10
-191.83
20
-90.585
11
-190.82
21
-88.665
0
LINE
8
1
10
-190.82
20
-88.665
11
-190.467
21
-85.429
0
LINE
8
1
10
-190.467
20
-85.429
11
-188.66
21
-80.789
0
LINE
8
1
10
-188.66
20
-80.789
11
-181.564
21
-69.844
0
LINE
8
1
10
-181.564
20
-69.844
11
-171.292
21
-60.922
0
LINE
8
1
10
-171.292
20
-60.922
11
-159.608
21
-59.111
0
LINE
8
1
10
-159.608
20
-59.111
11
-157.563
21
-62.243
0
LINE
8
1
10
-157.563
20
-62.243
11
-158.583
21
-65.791
0
LINE
8
1
10
-158.583
20
-65.791
11
-159.608
21
-70.858
0
LINE
8
1
10
-159.608
20
-70.858
11
-157.814
21
-71.429
0
LINE
8
1
10
-157.814
20
-71.429
11
-156.609
21
-69.683
0
LINE
8
1
10
-156.609
20
-69.683
11
-152.776
21
-63.462
0
LINE
8
1
10
-152.776
20
-63.462
11
-151.37
21
-56.419
0
LINE
8
1
10
-151.37
20
-56.419
11
-155.166
21
-52.153
0
LINE
8
1
10
-155.166
20
-52.153
11
-159.661
21
-50.603
0
LINE
8
1
10
-159.661
20
-50.603
11
-164.621
21
-51.305
0
LINE
8
1
10
-164.621
20
-51.305
11
-169.815
21
-53.798
0
LINE
8
1
10
-169.815
20
-53.798
11
-179.975
21
-62.309
0
LINE
8
1
10
-179.975
20
-62.309
11
-188.283
21
-72.44
0
LINE
8
1
10
-164.986
20
-72.29
11
-171.298
21
-73.277
0
LINE
8
1
10
-171.298
20
-73.277
11
-176.964
21
-77.254
0
LINE
8
1
10
-176.964
20
-77.254
11
-182.773
21
-83.575
0
LINE
8
1
10
-182.773
20
-83.575
11
-185.786
21
-88.725
0
LINE
8
1
10
-185.786
20
-88.725
11
-188.818
21
-94.15
0
LINE
8
1
10
-188.818
20
-94.15
11
-191.585
21
-97.858
0
LINE
8
1
10
-191.585
20
-97.858
11
-196.741
21
-76.821
0
LINE
8
1
10
-196.741
20
-76.821
11
-187.938
21
-55.222
0
LINE
8
1
10
-187.938
20
-55.222
11
-171.002
21
-39.02
0
LINE
8
1
10
-171.002
20
-39.02
11
-161.306
21
-34.805
0
LINE
8
1
10
-161.306
20
-34.805
11
-151.762
21
-34.174
0
LINE
8
1
10
-151.762
20
-34.174
11
-142.233
21
-37.086
0
LINE
8
1
10
-142.233
20
-37.086
11
-148.309
21
-41.696
0
LINE
8
1
10
-148.309
20
-41.696
11
-150.574
21
-47.583
0
LINE
8
1
10
-150.574
20
-47.583
11
-147.862
21
-59.356
0
LINE
8
1
10
-147.862
20
-59.356
11
-157.243
21
-74.936
0
LINE
8
1
10
-150.472
20
-70.205
11
-148.38
21
-71.845
0
LINE
8
1
10
-148.38
20
-71.845
11
-149.562
21
-73.676
0
LINE
8
1
10
-149.562
20
-73.676
11
-150.745
21
-75.507
0
LINE
8
1
10
-150.745
20
-75.507
11
-152.119
21
-74.517
0
LINE
8
1
10
-152.119
20
-74.517
11
-152.838
21
-74.039
0
LINE
8
1
10
-146.093
20
-73.904
11
-145.635
21
-73.452
0
LINE
8
1
10
-145.635
20
-73.452
11
-145.438
21
-78.616
0
LINE
8
1
10
-145.438
20
-78.616
11
-148.417
21
-76.543
0
LINE
8
1
10
-134.513
20
-61.086
11
-135.812
21
-58.791
0
LINE
8
1
10
-135.812
20
-58.791
11
-141.353
21
-54.417
0
LINE
8
1
10
-141.353
20
-54.417
11
-142.085
21
-51.017
0
LINE
8
1
10
-142.085
20
-51.017
11
-140.925
21
-46.607
0
LINE
8
1
10
-140.925
20
-46.607
11
-141.481
21
-44.452
0
LINE
8
1
10
-141.481
20
-44.452
11
-143.716
21
-45.334
0
LINE
8
1
10
-143.716
20
-45.334
11
-136.005
21
-62.487
0
LINE
8
1
10
-127.333
20
-56.849
11
-124.798
21
-50.959
0
LINE
8
1
10
-124.798
20
-50.959
11
-130.604
21
-44.217
0
LINE
8
1
10
-130.604
20
-44.217
11
-135.6
21
-43.755
0
LINE
8
1
10
-135.6
20
-43.755
11
-138.477
21
-45.405
0
LINE
8
1
10
-138.477
20
-45.405
11
-139.147
21
-51.386
0
LINE
8
1
10
-139.147
20
-51.386
11
-132.969
21
-57.554
0
LINE
8
1
10
-139.297
20
-84.888
11
-138.481
21
-86.357
0
LINE
8
1
10
-138.481
20
-86.357
11
-135.246
21
-85.135
0
LINE
8
1
10
-135.246
20
-85.135
11
-133.423
21
-84.317
0
LINE
8
1
10
-133.423
20
-84.317
11
-130.183
21
-91.623
0
LINE
8
1
10
-130.183
20
-91.623
11
-130.659
21
-102.423
0
LINE
8
1
10
-130.659
20
-102.423
11
-135.272
21
-113.673
0
LINE
8
1
10
-135.272
20
-113.673
11
-144.443
21
-122.331
0
LINE
8
1
10
-144.443
20
-122.331
11
-144.593
21
-124.147
0
LINE
8
1
10
-144.593
20
-124.147
11
-144.144
21
-125.069
0
LINE
8
1
10
-144.144
20
-125.069
11
-143.488
21
-125.185
0
LINE
8
1
10
-143.488
20
-125.185
11
-131.134
21
-113.848
0
LINE
8
1
10
-131.134
20
-113.848
11
-124.347
21
-101.129
0
LINE
8
1
10
-124.347
20
-101.129
11
-126.249
21
-76.1
0
LINE
8
1
10
-126.249
20
-76.1
11
-128.123
21
-73.634
0
LINE
8
1
10
-128.123
20
-73.634
11
-130.102
21
-73.027
0
LINE
8
1
10
-130.102
20
-73.027
11
-132.084
21
-74.081
0
LINE
8
1
10
-132.084
20
-74.081
11
-133.966
21
-76.597
0
LINE
8
1
10
-105.444
20
-77.286
11
-109.031
21
-99.324
0
LINE
8
1
10
-109.031
20
-99.324
11
-122.73
21
-118.764
0
LINE
8
1
10
-122.73
20
-118.764
11
-147.71
21
-129.396
0
LINE
8
1
10
-147.71
20
-129.396
11
-151.413
21
-129.224
0
LINE
8
1
10
-151.413
20
-129.224
11
-151.583
21
-128.169
0
LINE
8
1
10
-151.583
20
-128.169
11
-149.974
21
-126.164
0
LINE
8
1
10
-149.974
20
-126.164
11
-141.498
21
-115.555
0
LINE
8
1
10
-141.498
20
-115.555
11
-138.949
21
-106.182
0
LINE
8
1
10
-138.949
20
-106.182
11
-140.589
21
-97.113
0
LINE
8
1
10
-140.589
20
-97.113
11
-144.683
21
-87.417
0
LINE
8
1
10
-144.683
20
-87.417
11
-145.17
21
-86.357
0
LINE
8
1
10
-145.17
20
-86.357
11
-138.919
21
-77.975
0
LINE
8
1
10
-138.919
20
-77.975
11
-134.321
21
-68.492
0
LINE
8
1
10
-134.321
20
-68.492
11
-129.595
21
-68.69
0
LINE
8
1
10
-129.595
20
-68.69
11
-123.875
21
-66.762
0
LINE
8
1
10
-123.875
20
-66.762
11
-117.027
21
-55.522
0
LINE
8
1
10
-117.027
20
-55.522
11
-113.488
21
-55.293
0
LINE
8
1
10
-113.488
20
-55.293
11
-111.342
21
-57.983
0
LINE
8
1
10
-111.342
20
-57.983
11
-110.801
21
-58.858
0
LINE
8
1
10
26.407
20
-67.764
11
14.91
21
-68.257
0
LINE
8
1
10
14.91
20
-68.257
11
2.477
21
-67.024
0
LINE
8
1
10
2.477
20
-67.024
11
0.764
21
-63.19
0
LINE
8
1
10
0.764
20
-63.19
11
9.952
21
-63.94
0
LINE
8
1
10
9.952
20
-63.94
11
31.843
21
-64.985
0
LINE
8
1
10
31.843
20
-64.985
11
31.129
21
-66.901
0
LINE
8
1
10
31.129
20
-66.901
11
28.907
21
-67.595
0
LINE
8
1
10
31.0
20
-74.99
11
17.978
21
-73.882
0
LINE
8
1
10
17.978
20
-73.882
11
0.817
21
-72.09
0
LINE
8
1
10
0.817
20
-72.09
11
0.764
21
-70.205
0
LINE
8
1
10
0.764
20
-70.205
11
31.273
21
-73.142
0
LINE
8
1
10
31.273
20
-73.142
11
31.273
21
-73.142
0
LINE
8
1
10
90.853
20
-82.122
11
77.904
21
-92.262
0
LINE
8
1
10
77.904
20
-92.262
11
62.105
21
-97.222
0
LINE
8
1
10
62.105
20
-97.222
11
45.946
21
-99.473
0
LINE
8
1
10
45.946
20
-99.473
11
39.511
21
-100.224
0
LINE
8
1
10
39.511
20
-100.224
11
32.708
21
-104.135
0
LINE
8
1
10
32.708
20
-104.135
11
29.091
21
-112.608
0
LINE
8
1
10
29.091
20
-112.608
11
28.662
21
-131.059
0
LINE
8
1
10
28.662
20
-131.059
11
18.078
21
-131.172
0
LINE
8
1
10
18.078
20
-131.172
11
7.695
21
-131.258
0
LINE
8
1
10
7.695
20
-131.258
11
-1.379
21
-130.117
0
LINE
8
1
10
-1.379
20
-130.117
11
-8.437
21
-126.539
0
LINE
8
1
10
-8.437
20
-126.539
11
-12.777
21
-119.312
0
LINE
8
1
10
-12.777
20
-119.312
11
-14.996
21
-110.316
0
LINE
8
1
10
-14.996
20
-110.316
11
-17.153
21
-101.425
0
LINE
8
1
10
-17.153
20
-101.425
11
-22.398
21
-94.719
0
LINE
8
1
10
-22.398
20
-94.719
11
-25.246
21
-93.419
0
LINE
8
1
10
-25.246
20
-93.419
11
-35.6
21
-88.416
0
LINE
8
1
10
-35.6
20
-88.416
11
-38.434
21
-85.591
0
LINE
8
1
10
-38.434
20
-85.591
11
-41.092
21
-80.986
0
LINE
8
1
10
-41.092
20
-80.986
11
-45.643
21
-67.479
0
LINE
8
1
10
-45.643
20
-67.479
11
-50.056
21
-30.56
0
LINE
8
1
10
-50.056
20
-30.56
11
-48.039
21
-30.702
0
LINE
8
1
10
-48.039
20
-30.702
11
-47.064
21
-31.581
0
LINE
8
1
10
-47.064
20
-31.581
11
-46.989
21
-34.771
0
LINE
8
1
10
-46.989
20
-34.771
11
-44.006
21
-58.877
0
LINE
8
1
10
-44.006
20
-58.877
11
-38.988
21
-76.212
0
LINE
8
1
10
-38.988
20
-76.212
11
-35.301
21
-83.016
0
LINE
8
1
10
-35.301
20
-83.016
11
-30.716
21
-87.365
0
LINE
8
1
10
-30.716
20
-87.365
11
-27.147
21
-88.789
0
LINE
8
1
10
-27.147
20
-88.789
11
-25.495
21
-88.128
0
LINE
8
1
10
-25.495
20
-88.128
11
-25.925
21
-85.446
0
LINE
8
1
10
-25.925
20
-85.446
11
-28.602
21
-80.81
0
LINE
8
1
10
-28.602
20
-80.81
11
-34.119
21
-60.882
0
LINE
8
1
10
-34.119
20
-60.882
11
-34.662
21
-50.975
0
LINE
8
1
10
-34.662
20
-50.975
11
-33.768
21
-47.126
0
LINE
8
1
10
-33.768
20
-47.126
11
-31.865
21
-44.428
0
LINE
8
1
10
-31.865
20
-44.428
11
-28.453
21
-44.132
0
LINE
8
1
10
-28.453
20
-44.132
11
-21.016
21
-44.102
0
LINE
8
1
10
-21.016
20
-44.102
11
-16.909
21
-53.282
0
LINE
8
1
10
-16.909
20
-53.282
11
-16.126
21
-63.364
0
LINE
8
1
10
-16.126
20
-63.364
11
-15.958
21
-68.243
0
LINE
8
1
10
-15.958
20
-68.243
11
-14.459
21
-77.874
0
LINE
8
1
10
-14.459
20
-77.874
11
-9.578
21
-82.341
0
LINE
8
1
10
-9.578
20
-82.341
11
10.416
21
-84.303
0
LINE
8
1
10
10.416
20
-84.303
11
25.669
21
-84.978
0
LINE
8
1
10
25.669
20
-84.978
11
38.369
21
-84.644
0
LINE
8
1
10
38.369
20
-84.644
11
41.71
21
-83.27
0
LINE
8
1
10
41.71
20
-83.27
11
43.019
21
-80.239
0
LINE
8
1
10
43.019
20
-80.239
11
40.409
21
-32.718
0
LINE
8
1
10
40.409
20
-32.718
11
41.849
21
-33.341
0
LINE
8
1
10
41.849
20
-33.341
11
42.538
21
-33.669
0
LINE
8
1
10
42.538
20
-33.669
11
43.916
21
-44.999
0
LINE
8
1
10
43.916
20
-44.999
11
43.916
21
-44.999
0
LINE
8
1
10
43.916
20
-44.999
11
63.383
21
-44.021
0
LINE
8
1
10
63.383
20
-44.021
11
84.308
21
-41.238
0
LINE
8
1
10
84.308
20
-41.238
11
91.473
21
-40.268
0
LINE
8
1
10
91.473
20
-40.268
11
94.992
21
-43.709
0
LINE
8
1
10
94.992
20
-43.709
11
95.73
21
-48.957
0
LINE
8
1
10
95.73
20
-48.957
11
95.878
21
-51.117
0
LINE
8
1
10
95.878
20
-51.117
11
98.815
21
-51.443
0
LINE
8
1
10
98.815
20
-51.443
11
100.61
21
-30.133
0
LINE
8
1
10
100.61
20
-30.133
11
103.155
21
-28.485
0
LINE
8
1
10
103.155
20
-28.485
11
101.007
21
-48.296
0
LINE
8
1
10
101.007
20
-48.296
11
98.46
21
-64.329
0
LINE
8
1
10
140.254
20
-83.746
11
142.448
21
-83.99
0
LINE
8
1
10
142.448
20
-83.99
11
143.762
21
-85.541
0
LINE
8
1
10
143.762
20
-85.541
11
139.683
21
-85.541
0
LINE
8
1
10
144.035
20
-55.913
11
144.589
21
-53.701
0
LINE
8
1
10
144.589
20
-53.701
11
143.882
21
-52.809
0
LINE
8
1
10
143.882
20
-52.809
11
141.318
21
-54.79
0
LINE
8
1
10
141.318
20
-54.79
11
144.437
21
-68.919
0
LINE
8
1
10
144.437
20
-68.919
11
146.806
21
-68.807
0
LINE
8
1
10
146.806
20
-68.807
11
146.268
21
-66.369
0
LINE
8
1
10
149.51
20
-60.843
11
148.811
21
-58.433
0
LINE
8
1
10
148.811
20
-58.433
11
150.21
21
-56.877
0
LINE
8
1
10
150.21
20
-56.877
11
153.93
21
-57.228
0
LINE
8
1
10
153.93
20
-57.228
11
156.525
21
-61.62
0
LINE
8
1
10
156.525
20
-61.62
11
152.085
21
-63.057
0
LINE
8
1
10
-126.469
20
-34.905
11
-119.011
21
-39.743
0
LINE
8
1
10
-119.011
20
-39.743
11
-115.925
21
-46.902
0
LINE
8
1
10
-115.925
20
-46.902
11
-117.027
21
-53.809
0
LINE
8
1
10
-117.027
20
-53.809
11
-119.482
21
-44.108
0
LINE
8
1
10
-119.482
20
-44.108
11
-124.545
21
-38.53
0
LINE
8
1
10
-124.545
20
-38.53
11
-131.356
21
-36.555
0
LINE
8
1
10
-131.356
20
-36.555
11
-139.052
21
-37.657
0
LINE
8
1
10
-139.052
20
-37.657
11
-138.481
21
-34.966
0
LINE
8
1
10
-121.327
20
-48.077
11
-120.556
21
-56.151
0
LINE
8
1
10
-120.556
20
-56.151
11
-131.02
21
-65.173
0
LINE
8
1
10
-131.02
20
-65.173
11
-137.152
21
-64.072
0
LINE
8
1
10
-137.152
20
-64.072
11
-141.639
21
-61.857
0
LINE
8
1
10
-141.639
20
-61.857
11
-147.042
21
-53.235
0
LINE
8
1
10
-147.042
20
-53.235
11
-147.721
21
-49.994
0
LINE
8
1
10
-147.721
20
-49.994
11
-145.94
21
-44.521
0
LINE
8
1
10
-145.94
20
-44.521
11
-140.574
21
-40.256
0
LINE
8
1
10
-140.574
20
-40.256
11
-125.29
21
-42.166
0
LINE
8
1
10
-129.037
20
-51.254
11
-129.093
21
-53.45
0
LINE
8
1
10
-129.093
20
-53.45
11
-130.918
21
-54.409
0
LINE
8
1
10
-130.918
20
-54.409
11
-134.162
21
-53.237
0
LINE
8
1
10
-134.162
20
-53.237
11
-136.533
21
-50.58
0
LINE
8
1
10
-136.533
20
-50.58
11
-136.57
21
-48.193
0
LINE
8
1
10
-136.57
20
-48.193
11
-134.638
21
-47.197
0
LINE
8
1
10
-134.638
20
-47.197
11
-131.1
21
-48.714
0
LINE
8
1
10
-109.888
20
-33.666
11
-114.335
21
-40.839
0
LINE
8
1
10
-114.335
20
-40.839
11
-116.035
21
-39.17
0
LINE
8
1
10
-116.035
20
-39.17
11
-119.462
21
-36.012
0
LINE
8
1
10
-119.462
20
-36.012
11
-123.52
21
-33.888
0
LINE
8
1
10
-123.52
20
-33.888
11
-122.295
21
-30.668
0
LINE
8
1
10
-122.295
20
-30.668
11
-118.21
21
-22.895
0
LINE
8
1
10
-118.21
20
-22.895
11
-117.483
21
-20.835
0
LINE
8
1
10
-117.483
20
-20.835
11
-119.108
21
-19.788
0
LINE
8
1
10
-119.108
20
-19.788
11
-123.399
21
-19.793
0
LINE
8
1
10
-123.399
20
-19.793
11
-124.686
21
-21.457
0
LINE
8
1
10
-124.686
20
-21.457
11
-126.462
21
-24.855
0
LINE
8
1
10
-126.462
20
-24.855
11
-128.993
21
-32.029
0
LINE
8
1
10
-128.993
20
-32.029
11
-131.8
21
-31.107
0
LINE
8
1
10
-131.8
20
-31.107
11
-129.725
21
-26.587
0
LINE
8
1
10
-129.725
20
-26.587
11
-127.416
21
-21.385
0
LINE
8
1
10
-127.416
20
-21.385
11
-124.084
21
-17.998
0
LINE
8
1
10
-124.084
20
-17.998
11
-116.606
21
-17.395
0
LINE
8
1
10
-116.606
20
-17.395
11
-111.637
21
-21.214
0
LINE
8
1
10
-111.637
20
-21.214
11
-109.149
21
-26.933
0
LINE
8
1
10
-109.149
20
-26.933
11
-109.115
21
-32.029
0
LINE
8
1
10
-102.049
20
-28.916
11
-104.954
21
-30.316
0
LINE
8
1
10
-104.954
20
-30.316
11
-107.074
21
-22.377
0
LINE
8
1
10
-107.074
20
-22.377
11
-112.92
21
-16.37
0
LINE
8
1
10
-112.92
20
-16.37
11
-113.473
21
-15.678
0
LINE
8
1
10
-113.473
20
-15.678
11
-112.547
21
-15.543
0
LINE
8
1
10
-112.547
20
-15.543
11
-110.784
21
-15.503
0
LINE
8
1
10
-110.784
20
-15.503
11
-110.257
21
-13.838
0
LINE
8
1
10
-110.257
20
-13.838
11
-112.732
21
-11.304
0
LINE
8
1
10
-112.732
20
-11.304
11
-116.757
21
-10.094
0
LINE
8
1
10
-116.757
20
-10.094
11
-119.638
21
-9.189
0
LINE
8
1
10
-119.638
20
-9.189
11
-111.901
21
-7.708
0
LINE
8
1
10
-111.901
20
-7.708
11
-104.833
21
-12.19
0
LINE
8
1
10
-104.833
20
-12.19
11
-100.314
21
-19.436
0
LINE
8
1
10
-100.314
20
-19.436
11
-100.23
21
-26.246
0
LINE
8
1
10
-97.022
20
-16.64
11
-103.652
21
-8.84
0
LINE
8
1
10
-103.652
20
-8.84
11
-113.442
21
-4.864
0
LINE
8
1
10
-113.442
20
-4.864
11
-123.798
21
-5.926
0
LINE
8
1
10
-123.798
20
-5.926
11
-126.235
21
3.404
0
LINE
8
1
10
-126.235
20
3.404
11
-125.318
21
11.213
0
LINE
8
1
10
-125.318
20
11.213
11
-116.198
21
21.876
0
LINE
8
1
10
-116.198
20
21.876
11
-101.989
21
25.278
0
LINE
8
1
10
-101.989
20
25.278
11
-88.243
21
20.633
0
LINE
8
1
10
-88.243
20
20.633
11
-79.096
21
9.9
0
LINE
8
1
10
-79.096
20
9.9
11
-79.083
21
9.749
0
LINE
8
1
10
-79.083
20
9.749
11
-78.136
21
0.387
0
LINE
8
1
10
-78.136
20
0.387
11
-76.159
21
-8.536
0
LINE
8
1
10
-76.159
20
-8.536
11
-79.231
21
-17.596
0
LINE
8
1
10
-79.231
20
-17.596
11
-83.953
21
-23.853
0
LINE
8
1
10
-83.953
20
-23.853
11
-96.145
21
-27.053
0
LINE
8
1
10
17.011
20
-39.979
11
29.56
21
-40.594
0
LINE
8
1
10
29.56
20
-40.594
11
30.061
21
-42.033
0
LINE
8
1
10
30.061
20
-42.033
11
29.286
21
-43.193
0
LINE
8
1
10
29.286
20
-43.193
11
18.496
21
-43.061
0
LINE
8
1
10
18.496
20
-43.061
11
8.455
21
-40.717
0
LINE
8
1
10
8.455
20
-40.717
11
7.742
21
-39.914
0
LINE
8
1
10
7.742
20
-39.914
11
8.722
21
-39.49
0
LINE
8
1
10
7.776
20
-54.593
11
16.713
21
-55.573
0
LINE
8
1
10
16.713
20
-55.573
11
28.426
21
-56.163
0
LINE
8
1
10
28.426
20
-56.163
11
28.495
21
-56.165
0
LINE
8
1
10
28.495
20
-56.165
11
30.193
21
-57.208
0
LINE
8
1
10
30.193
20
-57.208
11
29.396
21
-58.988
0
LINE
8
1
10
29.396
20
-58.988
11
25.075
21
-59.708
0
LINE
8
1
10
25.075
20
-59.708
11
17.341
21
-59.732
0
LINE
8
1
10
17.341
20
-59.732
11
1.335
21
-58.459
0
LINE
8
1
10
1.335
20
-58.459
11
0.268
21
-57.268
0
LINE
8
1
10
0.268
20
-57.268
11
0.063
21
-55.397
0
LINE
8
1
10
0.063
20
-55.397
11
0.438
21
-52.911
0
LINE
8
1
10
28.003
20
-48.586
11
25.702
21
-49.384
0
LINE
8
1
10
25.702
20
-49.384
11
17.86
21
-49.896
0
LINE
8
1
10
17.86
20
-49.896
11
1.009
21
-47.936
0
LINE
8
1
10
1.009
20
-47.936
11
-0.234
21
-46.142
0
LINE
8
1
10
-0.234
20
-46.142
11
0.292
21
-45.314
0
LINE
8
1
10
0.292
20
-45.314
11
1.853
21
-44.957
0
LINE
8
1
10
1.853
20
-44.957
11
14.573
21
-45.46
0
LINE
8
1
10
14.573
20
-45.46
11
28.662
21
-47.365
0
LINE
8
1
10
167.673
20
-53.966
11
162.621
21
-49.513
0
LINE
8
1
10
162.621
20
-49.513
11
156.65
21
-46.467
0
LINE
8
1
10
156.65
20
-46.467
11
151.103
21
-41.075
0
LINE
8
1
10
151.103
20
-41.075
11
156.173
21
-41.477
0
LINE
8
1
10
156.173
20
-41.477
11
161.443
21
-43.61
0
LINE
8
1
10
161.443
20
-43.61
11
168.814
21
-49.428
0
LINE
8
1
10
147.797
20
-42.861
11
147.468
21
-45.064
0
LINE
8
1
10
147.468
20
-45.064
11
144.296
21
-45.376
0
LINE
8
1
10
144.296
20
-45.376
11
145.921
21
-41.613
0
LINE
8
1
10
145.921
20
-41.613
11
149.48
21
-41.216
0
LINE
8
1
10
166.008
20
-60.625
11
163.038
21
-71.574
0
LINE
8
1
10
163.038
20
-71.574
11
157.677
21
-74.663
0
LINE
8
1
10
157.677
20
-74.663
11
149.835
21
-74.382
0
LINE
8
1
10
149.835
20
-74.382
11
138.454
21
-59.574
0
LINE
8
1
10
138.454
20
-59.574
11
141.958
21
-51.667
0
LINE
8
1
10
141.958
20
-51.667
11
151.792
21
-48.708
0
LINE
8
1
10
145.841
20
-57.131
11
146.506
21
-61.943
0
LINE
8
1
10
146.506
20
-61.943
11
156.368
21
-66.267
0
LINE
8
1
10
156.368
20
-66.267
11
160.528
21
-62.722
0
LINE
8
1
10
160.528
20
-62.722
11
160.104
21
-57.693
0
LINE
8
1
10
160.104
20
-57.693
11
149.577
21
-53.591
0
LINE
8
1
10
170.366
20
-34.442
11
166.928
21
-43.531
0
LINE
8
1
10
166.928
20
-43.531
11
158.119
21
-38.799
0
LINE
8
1
10
158.119
20
-38.799
11
161.229
21
-26.778
0
LINE
8
1
10
161.229
20
-26.778
11
166.113
21
-15.062
0
LINE
8
1
10
166.113
20
-15.062
11
165.768
21
-13.583
0
LINE
8
1
10
165.768
20
-13.583
11
163.86
21
-13.235
0
LINE
8
1
10
163.86
20
-13.235
11
163.611
21
-12.713
0
LINE
8
1
10
163.611
20
-12.713
11
171.479
21
-13.41
0
LINE
8
1
10
171.479
20
-13.41
11
174.081
21
-17.984
0
LINE
8
1
10
174.081
20
-17.984
11
173.63
21
-26.12
0
LINE
8
1
10
177.533
20
-23.545
11
175.241
21
-12.042
0
LINE
8
1
10
175.241
20
-12.042
11
166.684
21
-8.862
0
LINE
8
1
10
166.684
20
-8.862
11
161.966
21
-6.646
0
LINE
8
1
10
161.966
20
-6.646
11
159.016
21
-7.394
0
LINE
8
1
10
159.016
20
-7.394
11
154.937
21
-5.355
0
LINE
8
1
10
154.937
20
-5.355
11
164.616
21
-0.227
0
LINE
8
1
10
164.616
20
-0.227
11
175.278
21
-3.581
0
LINE
8
1
10
175.278
20
-3.581
11
182.153
21
-11.716
0
LINE
8
1
10
182.153
20
-11.716
11
180.47
21
-20.935
0
LINE
8
1
10
182.53
20
-5.049
11
169.783
21
2.779
0
LINE
8
1
10
169.783
20
2.779
11
152.5
21
-2.62
0
LINE
8
1
10
152.5
20
-2.62
11
150.532
21
-17.998
0
LINE
8
1
10
150.532
20
-17.998
11
137.619
21
-1.613
0
LINE
8
1
10
137.619
20
-1.613
11
143.502
21
20.367
0
LINE
8
1
10
143.502
20
20.367
11
154.642
21
28.298
0
LINE
8
1
10
154.642
20
28.298
11
168.827
21
31.398
0
LINE
8
1
10
168.827
20
31.398
11
182.642
21
28.513
0
LINE
8
1
10
182.642
20
28.513
11
192.676
21
18.487
0
LINE
8
1
10
192.676
20
18.487
11
195.156
21
-2.657
0
LINE
8
1
10
195.156
20
-2.657
11
185.201
21
-20.038
0
LINE
8
1
10
-123.312
20
-10.602
11
-121.432
21
-15.062
0
LINE
8
1
10
-121.432
20
-15.062
11
-126.082
21
-16.775
0
LINE
8
1
10
-126.082
20
-16.775
11
-123.744
21
-9.628
0
LINE
8
1
10
-109.696
20
4.046
11
-113.581
21
5.548
0
LINE
8
1
10
-113.581
20
5.548
11
-115.657
21
7.321
0
LINE
8
1
10
-115.657
20
7.321
11
-115.458
21
10.106
0
LINE
8
1
10
-115.458
20
10.106
11
-112.52
21
14.641
0
LINE
8
1
10
-112.52
20
14.641
11
-112.044
21
18.207
0
LINE
8
1
10
-112.044
20
18.207
11
-114.938
21
18.401
0
LINE
8
1
10
-114.938
20
18.401
11
-122.493
21
5.737
0
LINE
8
1
10
-122.493
20
5.737
11
-122.19
21
0.536
0
LINE
8
1
10
-122.19
20
0.536
11
-120.625
21
-1.895
0
LINE
8
1
10
-120.625
20
-1.895
11
-108.454
21
-2.218
0
LINE
8
1
10
-108.454
20
-2.218
11
-99.99
21
-8.256
0
LINE
8
1
10
-99.99
20
-8.256
11
-97.939
21
-8.604
0
LINE
8
1
10
-97.939
20
-8.604
11
-96.985
21
-8.069
0
LINE
8
1
10
-96.985
20
-8.069
11
-96.759
21
-7.457
0
LINE
8
1
10
-96.759
20
-7.457
11
-101.848
21
-0.324
0
LINE
8
1
10
-101.848
20
-0.324
11
-107.802
21
3.379
0
LINE
8
1
10
-83.581
20
-13.576
11
-87.125
21
-16.577
0
LINE
8
1
10
-87.125
20
-16.577
11
-89.358
21
-16.58
0
LINE
8
1
10
-89.358
20
-16.58
11
-92.559
21
-15.262
0
LINE
8
1
10
-92.559
20
-15.262
11
-93.803
21
-16.301
0
LINE
8
1
10
-93.803
20
-16.301
11
-93.208
21
-24.116
0
LINE
8
1
10
-93.208
20
-24.116
11
-85.617
21
-21.647
0
LINE
8
1
10
-85.617
20
-21.647
11
-80.497
21
-14.811
0
LINE
8
1
10
-80.497
20
-14.811
11
-80.075
21
-12.915
0
LINE
8
1
10
-80.075
20
-12.915
11
-80.457
21
-11.785
0
LINE
8
1
10
-80.457
20
-11.785
11
-81.587
21
-11.809
0
LINE
8
1
10
-81.587
20
-11.809
11
-83.406
21
-13.376
0
LINE
8
1
10
-29.918
20
-26.214
11
-25.111
21
-27.867
0
LINE
8
1
10
-25.111
20
-27.867
11
-18.601
21
-28.962
0
LINE
8
1
10
-18.601
20
-28.962
11
-10.411
21
-29.756
0
LINE
8
1
10
-10.411
20
-29.756
11
-9.286
21
-37.796
0
LINE
8
1
10
-9.286
20
-37.796
11
-8.514
21
-50.139
0
LINE
8
1
10
-8.514
20
-50.139
11
-7.481
21
-65.784
0
LINE
8
1
10
-7.481
20
-65.784
11
-6.721
21
-71.922
0
LINE
8
1
10
-6.721
20
-71.922
11
-5.68
21
-75.834
0
LINE
8
1
10
-5.68
20
-75.834
11
-4.07
21
-76.244
0
LINE
8
1
10
-4.07
20
-76.244
11
-0.173
21
-76.666
0
LINE
8
1
10
-0.173
20
-76.666
11
12.195
21
-77.475
0
LINE
8
1
10
12.195
20
-77.475
11
39.185
21
-78.444
0
LINE
8
1
10
39.185
20
-78.444
11
37.174
21
-80.98
0
LINE
8
1
10
37.174
20
-80.98
11
30.414
21
-81.408
0
LINE
8
1
10
30.414
20
-81.408
11
17.145
21
-81.192
0
LINE
8
1
10
17.145
20
-81.192
11
2.137
21
-80.175
0
LINE
8
1
10
2.137
20
-80.175
11
-9.84
21
-78.199
0
LINE
8
1
10
-9.84
20
-78.199
11
-10.721
21
-76.074
0
LINE
8
1
10
-10.721
20
-76.074
11
-11.52
21
-72.227
0
LINE
8
1
10
-11.52
20
-72.227
11
-12.828
21
-61.321
0
LINE
8
1
10
-12.828
20
-61.321
11
-13.952
21
-40.35
0
LINE
8
1
10
-13.952
20
-40.35
11
-14.766
21
-34.727
0
LINE
8
1
10
-14.766
20
-34.727
11
-18.079
21
-32.408
0
LINE
8
1
10
-18.079
20
-32.408
11
-23.111
21
-32.281
0
LINE
8
1
10
-23.111
20
-32.281
11
-34.735
21
-31.112
0
LINE
8
1
10
-34.735
20
-31.112
11
-43.612
21
-22.974
0
LINE
8
1
10
-43.612
20
-22.974
11
-48.424
21
-1.021
0
LINE
8
1
10
-48.424
20
-1.021
11
-49.978
21
21.547
0
LINE
8
1
10
-49.978
20
21.547
11
-51.198
21
41.061
0
LINE
8
1
10
-51.198
20
41.061
11
-42.388
21
31.924
0
LINE
8
1
10
-42.388
20
31.924
11
-41.629
21
17.297
0
LINE
8
1
10
-41.629
20
17.297
11
-40.715
21
0.895
0
LINE
8
1
10
-40.715
20
0.895
11
-38.024
21
-15.15
0
LINE
8
1
10
146.116
20
16.266
11
145.201
21
17.341
0
LINE
8
1
10
145.201
20
17.341
11
143.578
21
17.051
0
LINE
8
1
10
143.578
20
17.051
11
141.777
21
15.41
0
LINE
8
1
10
141.777
20
15.41
11
139.159
21
8.13
0
LINE
8
1
10
139.159
20
8.13
11
139.546
21
-0.347
0
LINE
8
1
10
139.546
20
-0.347
11
142.136
21
-7.748
0
LINE
8
1
10
142.136
20
-7.748
11
146.127
21
-11.799
0
LINE
8
1
10
146.127
20
-11.799
11
147.275
21
-5.108
0
LINE
8
1
10
147.275
20
-5.108
11
150.099
21
-0.727
0
LINE
8
1
10
150.099
20
-0.727
11
154.75
21
2.237
0
LINE
8
1
10
154.75
20
2.237
11
161.382
21
4.679
0
LINE
8
1
10
161.382
20
4.679
11
161.055
21
7.289
0
LINE
8
1
10
161.055
20
7.289
11
155.991
21
6.371
0
LINE
8
1
10
155.991
20
6.371
11
150.543
21
5.445
0
LINE
8
1
10
150.543
20
5.445
11
146.569
21
5.695
0
LINE
8
1
10
146.569
20
5.695
11
144.756
21
8.141
0
LINE
8
1
10
144.756
20
8.141
11
145.795
21
13.807
0
LINE
8
1
10
152.661
20
-11.445
11
151.227
21
-11.427
0
LINE
8
1
10
151.227
20
-11.427
11
150.828
21
-10.055
0
LINE
8
1
10
150.828
20
-10.055
11
152.363
21
-7.082
0
LINE
8
1
10
155.443
20
-14.837
11
153.728
21
-17.725
0
LINE
8
1
10
153.728
20
-17.725
11
152.055
21
-15.846
0
LINE
8
1
10
152.055
20
-15.846
11
153.196
21
-13.383
0
LINE
8
1
10
158.771
20
-15.062
11
156.52
21
-22.146
0
LINE
8
1
10
156.52
20
-22.146
11
154.124
21
-29.783
0
LINE
8
1
10
154.124
20
-29.783
11
152.898
21
-37.902
0
LINE
8
1
10
152.898
20
-37.902
11
151.103
21
-37.902
0
LINE
8
1
10
151.103
20
-37.902
11
153.789
21
-26.199
0
LINE
8
1
10
153.789
20
-26.199
11
156.675
21
-18.261
0
LINE
8
1
10
156.675
20
-18.261
11
156.965
21
-17.515
0
LINE
8
1
10
-108.817
20
69.959
11
-103.938
21
87.935
0
LINE
8
1
10
-103.938
20
87.935
11
-70.612
21
108.929
0
LINE
8
1
10
-70.612
20
108.929
11
-72.464
21
105.753
0
LINE
8
1
10
-72.464
20
105.753
11
-79.394
21
92.212
0
LINE
8
1
10
-79.394
20
92.212
11
-81.666
21
80.122
0
LINE
8
1
10
-81.666
20
80.122
11
-81.252
21
63.423
0
LINE
8
1
10
-81.252
20
63.423
11
-81.235
21
63.417
0
LINE
8
1
10
-81.235
20
63.417
11
-81.217
21
63.411
0
LINE
8
1
10
-81.217
20
63.411
11
-81.217
21
63.085
0
LINE
8
1
10
-81.217
20
63.085
11
-81.235
21
63.26
0
LINE
8
1
10
-81.235
20
63.26
11
-81.252
21
63.423
0
LINE
8
1
10
-81.252
20
63.423
11
-94.21
21
62.933
0
LINE
8
1
10
-94.21
20
62.933
11
-103.812
21
53.378
0
LINE
8
1
10
-95.247
20
56.641
11
-88.598
21
60.579
0
LINE
8
1
10
-88.598
20
60.579
11
-80.89
21
57.783
0
LINE
8
1
10
-80.89
20
57.783
11
-80.89
21
48.973
0
LINE
8
1
10
-80.89
20
48.973
11
-86.009
21
51.186
0
LINE
8
1
10
-86.009
20
51.186
11
-91.495
21
50.768
0
LINE
8
1
10
-91.495
20
50.768
11
-85.295
21
55.006
0
LINE
8
1
10
-85.295
20
55.006
11
-89.156
21
57.645
0
LINE
8
1
10
-89.156
20
57.645
11
-94.105
21
54.275
0
LINE
8
1
10
-98.306
20
53.653
11
-99.073
21
50.227
0
LINE
8
1
10
-99.073
20
50.227
11
-97.143
21
47.44
0
LINE
8
1
10
-97.143
20
47.44
11
-99.407
21
44.895
0
LINE
8
1
10
-99.407
20
44.895
11
-102.063
21
50.169
0
LINE
8
1
10
-102.063
20
50.169
11
-97.731
21
55.434
0
LINE
8
1
10
-85.071
20
47.632
11
-80.89
21
45.364
0
LINE
8
1
10
-80.89
20
45.364
11
-80.64
21
36.637
0
LINE
8
1
10
-80.64
20
36.637
11
-79.422
21
15.773
0
LINE
8
1
10
-79.422
20
15.773
11
-84.704
21
21.789
0
LINE
8
1
10
-84.704
20
21.789
11
-92.311
21
26.704
0
LINE
8
1
10
-92.311
20
26.704
11
-85.385
21
45.168
0
LINE
8
1
10
-85.385
20
45.168
11
-92.131
21
45.168
0
LINE
8
1
10
-92.131
20
45.168
11
-97.777
21
32.422
0
LINE
8
1
10
-97.777
20
32.422
11
-99.028
21
28.625
0
LINE
8
1
10
-99.028
20
28.625
11
-101.708
21
29.041
0
LINE
8
1
10
-101.708
20
29.041
11
-98.314
21
40.417
0
LINE
8
1
10
-98.314
20
40.417
11
-95.172
21
44.931
0
LINE
8
1
10
-95.172
20
44.931
11
-90.752
21
47.685
0
LINE
8
1
10
-20.176
20
21.331
11
-27.676
21
22.816
0
LINE
8
1
10
-27.676
20
22.816
11
-34.475
21
25.48
0
LINE
8
1
10
-34.475
20
25.48
11
-36.109
21
27.902
0
LINE
8
1
10
-36.109
20
27.902
11
-36.14
21
30.195
0
LINE
8
1
10
-36.14
20
30.195
11
-19.576
21
26.631
0
LINE
8
1
10
-19.576
20
26.631
11
-1.649
21
24.681
0
LINE
8
1
10
-1.649
20
24.681
11
33.974
21
23.506
0
LINE
8
1
10
33.974
20
23.506
11
38.94
21
23.441
0
LINE
8
1
10
38.94
20
23.441
11
36.248
21
20.178
0
LINE
8
1
10
36.248
20
20.178
11
27.432
21
20.053
0
LINE
8
1
10
27.432
20
20.053
11
18.955
21
19.933
0
LINE
8
1
10
18.955
20
19.933
11
21.855
21
18.697
0
LINE
8
1
10
21.855
20
18.697
11
27.408
21
17.567
0
LINE
8
1
10
27.408
20
17.567
11
38.614
21
16.425
0
LINE
8
1
10
38.614
20
16.425
11
39.511
21
12.265
0
LINE
8
1
10
39.511
20
12.265
11
32.62
21
7.469
0
LINE
8
1
10
32.62
20
7.469
11
23.73
21
6.604
0
LINE
8
1
10
23.73
20
6.604
11
19.281
21
6.392
0
LINE
8
1
10
19.281
20
6.392
11
20.168
21
5.691
0
LINE
8
1
10
20.168
20
5.691
11
22.06
21
5.062
0
LINE
8
1
10
22.06
20
5.062
11
27.565
21
4.053
0
LINE
8
1
10
27.565
20
4.053
11
36.366
21
3.284
0
LINE
8
1
10
36.366
20
3.284
11
38.418
21
2.514
0
LINE
8
1
10
38.418
20
2.514
11
39.209
21
0.4
0
LINE
8
1
10
39.209
20
0.4
11
38.043
21
-3.56
0
LINE
8
1
10
38.043
20
-3.56
11
34.797
21
-4.706
0
LINE
8
1
10
34.797
20
-4.706
11
29.551
21
-5.626
0
LINE
8
1
10
29.551
20
-5.626
11
19.568
21
-6.705
0
LINE
8
1
10
19.568
20
-6.705
11
17.701
21
-7.109
0
LINE
8
1
10
17.701
20
-7.109
11
17.065
21
-7.797
0
LINE
8
1
10
17.065
20
-7.797
11
17.622
21
-8.596
0
LINE
8
1
10
17.622
20
-8.596
11
19.336
21
-9.338
0
LINE
8
1
10
19.336
20
-9.338
11
32.654
21
-10.614
0
LINE
8
1
10
32.654
20
-10.614
11
35.57
21
-16.426
0
LINE
8
1
10
35.57
20
-16.426
11
22.439
21
-19.851
0
LINE
8
1
10
22.439
20
-19.851
11
22.028
21
-21.217
0
LINE
8
1
10
22.028
20
-21.217
11
30.228
21
-22.342
0
LINE
8
1
10
30.228
20
-22.342
11
33.658
21
-22.455
0
LINE
8
1
10
33.658
20
-22.455
11
35.044
21
-23.992
0
LINE
8
1
10
35.044
20
-23.992
11
34.008
21
-26.312
0
LINE
8
1
10
34.008
20
-26.312
11
29.185
21
-29.025
0
LINE
8
1
10
29.185
20
-29.025
11
23.507
21
-29.339
0
LINE
8
1
10
23.507
20
-29.339
11
1.824
21
-27.703
0
LINE
8
1
10
1.824
20
-27.703
11
-20.59
21
-25.615
0
LINE
8
1
10
-20.59
20
-25.615
11
-27.028
21
-23.511
0
LINE
8
1
10
-27.028
20
-23.511
11
-31.865
21
-18.814
0
LINE
8
1
10
-31.865
20
-18.814
11
-9.279
21
-21.751
0
LINE
8
1
10
-9.279
20
-21.751
11
1.628
21
-22.832
0
LINE
8
1
10
1.628
20
-22.832
11
3.191
21
-22.106
0
LINE
8
1
10
3.191
20
-22.106
11
2.277
21
-20.968
0
LINE
8
1
10
2.277
20
-20.968
11
-34.006
21
-15.39
0
LINE
8
1
10
-34.006
20
-15.39
11
-34.989
21
-9.859
0
LINE
8
1
10
-34.989
20
-9.859
11
-35.944
21
-4.457
0
LINE
8
1
10
-35.944
20
-4.457
11
-25.45
21
-8.206
0
LINE
8
1
10
-25.45
20
-8.206
11
-13.699
21
-8.819
0
LINE
8
1
10
-13.699
20
-8.819
11
-0.213
21
-9.685
0
LINE
8
1
10
-0.213
20
-9.685
11
0.011
21
-8.149
0
LINE
8
1
10
0.011
20
-8.149
11
-11.557
21
-6.644
0
LINE
8
1
10
-11.557
20
-6.644
11
-22.59
21
-5.215
0
LINE
8
1
10
-22.59
20
-5.215
11
-33.333
21
-1.847
0
LINE
8
1
10
-33.333
20
-1.847
11
-37.374
21
4.514
0
LINE
8
1
10
-37.374
20
4.514
11
-37.412
21
10.226
0
LINE
8
1
10
-37.412
20
10.226
11
-24.928
21
5.416
0
LINE
8
1
10
-24.928
20
5.416
11
-11.306
21
4.63
0
LINE
8
1
10
-11.306
20
4.63
11
-1.919
21
4.303
0
LINE
8
1
10
-1.919
20
4.303
11
-1.795
21
5.23
0
LINE
8
1
10
-1.795
20
5.23
11
-9.301
21
6.599
0
LINE
8
1
10
-9.301
20
6.599
11
-23.275
21
9.116
0
LINE
8
1
10
-23.275
20
9.116
11
-34.231
21
12.265
0
LINE
8
1
10
-34.231
20
12.265
11
-38.077
21
18.125
0
LINE
8
1
10
-38.077
20
18.125
11
-38.636
21
24.909
0
LINE
8
1
10
-38.636
20
24.909
11
-35.15
21
21.703
0
LINE
8
1
10
-35.15
20
21.703
11
-29.061
21
19.781
0
LINE
8
1
10
-29.061
20
19.781
11
-15.821
21
19.282
0
LINE
8
1
10
-15.821
20
19.282
11
-15.04
21
19.905
0
LINE
8
1
10
-15.04
20
19.905
11
-15.807
21
20.55
0
LINE
8
1
10
130.866
20
23.47
11
129.14
21
9.735
0
LINE
8
1
10
129.14
20
9.735
11
126.081
21
-2.52
0
LINE
8
1
10
126.081
20
-2.52
11
110.164
21
-20.972
0
LINE
8
1
10
110.164
20
-20.972
11
83.787
21
-30.419
0
LINE
8
1
10
83.787
20
-30.419
11
67.295
21
-33.528
0
LINE
8
1
10
67.295
20
-33.528
11
51.771
21
-33.99
0
LINE
8
1
10
51.771
20
-33.99
11
49.016
21
-33.445
0
LINE
8
1
10
49.016
20
-33.445
11
47.353
21
-32.295
0
LINE
8
1
10
47.353
20
-32.295
11
45.814
21
-27.474
0
LINE
8
1
10
45.814
20
-27.474
11
45.49
21
-12.867
0
LINE
8
1
10
45.49
20
-12.867
11
45.711
21
-6.497
0
LINE
8
1
10
45.711
20
-6.497
11
48.321
21
28.743
0
LINE
8
1
10
48.321
20
28.743
11
44.814
21
33.719
0
LINE
8
1
10
44.814
20
33.719
11
30.752
21
32.881
0
LINE
8
1
10
30.752
20
32.881
11
26.434
21
32.278
0
LINE
8
1
10
26.434
20
32.278
11
-5.84
21
32.378
0
LINE
8
1
10
-5.84
20
32.378
11
-28.06
21
37.144
0
LINE
8
1
10
-28.06
20
37.144
11
-50.305
21
47.678
0
LINE
8
1
10
-50.305
20
47.678
11
-52.06
21
48.446
0
LINE
8
1
10
-52.06
20
48.446
11
-53.253
21
48.174
0
LINE
8
1
10
-53.253
20
48.174
11
-54.148
21
45.385
0
LINE
8
1
10
-54.148
20
45.385
11
-52.414
21
3.337
0
LINE
8
1
10
-52.414
20
3.337
11
-48.982
21
-16.067
0
LINE
8
1
10
-48.982
20
-16.067
11
-46.256
21
-23.545
0
LINE
8
1
10
-46.256
20
-23.545
11
-42.714
21
-28.848
0
LINE
8
1
10
-42.714
20
-28.848
11
-51.602
21
-25.855
0
LINE
8
1
10
-51.602
20
-25.855
11
-62.283
21
-22.006
0
LINE
8
1
10
-62.283
20
-22.006
11
-70.041
21
-14.164
0
LINE
8
1
10
-70.041
20
-14.164
11
-73.01
21
-5.058
0
LINE
8
1
10
-73.01
20
-5.058
11
-75.243
21
6.837
0
LINE
8
1
10
-75.243
20
6.837
11
-77.738
21
35.597
0
LINE
8
1
10
-77.738
20
35.597
11
-77.995
21
65.315
0
LINE
8
1
10
-77.995
20
65.315
11
-76.486
21
89.189
0
LINE
8
1
10
-76.486
20
89.189
11
-72.427
21
99.722
0
LINE
8
1
10
-72.427
20
99.722
11
-65.31
21
108.603
0
LINE
8
1
10
-65.31
20
108.603
11
-60.698
21
94.088
0
LINE
8
1
10
-60.698
20
94.088
11
-48.479
21
82.151
0
LINE
8
1
10
-48.479
20
82.151
11
-22.476
21
68.75
0
LINE
8
1
10
-22.476
20
68.75
11
18.54
21
60.97
0
LINE
8
1
10
18.54
20
60.97
11
52.894
21
63.822
0
LINE
8
1
10
52.894
20
63.822
11
92.12
21
81.719
0
LINE
8
1
10
92.12
20
81.719
11
106.666
21
96.681
0
LINE
8
1
10
106.666
20
96.681
11
113.253
21
115.374
0
LINE
8
1
10
113.253
20
115.374
11
119.575
21
111.05
0
LINE
8
1
10
119.575
20
111.05
11
123.205
21
104.524
0
LINE
8
1
10
123.205
20
104.524
11
114.336
21
99.667
0
LINE
8
1
10
114.336
20
99.667
11
107.859
21
91.911
0
LINE
8
1
10
107.859
20
91.911
11
101.752
21
73.363
0
LINE
8
1
10
101.752
20
73.363
11
98.417
21
67.176
0
LINE
8
1
10
98.417
20
67.176
11
91.551
21
63.369
0
LINE
8
1
10
91.551
20
63.369
11
90.825
21
63.036
0
LINE
8
1
10
90.825
20
63.036
11
88.907
21
61.841
0
LINE
8
1
10
88.907
20
61.841
11
88.086
21
60.479
0
LINE
8
1
10
88.086
20
60.479
11
88.742
21
59.049
0
LINE
8
1
10
88.742
20
59.049
11
91.253
21
57.653
0
LINE
8
1
10
91.253
20
57.653
11
98.216
21
51.92
0
LINE
8
1
10
98.216
20
51.92
11
101.983
21
43.6
0
LINE
8
1
10
101.983
20
43.6
11
102.516
21
42.165
0
LINE
8
1
10
102.516
20
42.165
11
109.811
21
30.628
0
LINE
8
1
10
109.811
20
30.628
11
118.179
21
26.851
0
LINE
8
1
10
118.179
20
26.851
11
125.58
21
28.538
0
LINE
8
1
10
125.58
20
28.538
11
129.976
21
33.393
0
LINE
8
1
10
129.976
20
33.393
11
131.249
21
30.377
0
LINE
8
1
10
131.249
20
30.377
11
131.118
21
25.806
0
LINE
8
1
10
136.055
20
48.702
11
135.034
21
51.251
0
LINE
8
1
10
135.034
20
51.251
11
135.973
21
55.833
0
LINE
8
1
10
135.973
20
55.833
11
135.616
21
56.036
0
LINE
8
1
10
135.616
20
56.036
11
133.63
21
48.227
0
LINE
8
1
10
133.63
20
48.227
11
138.929
21
43.879
0
LINE
8
1
10
138.929
20
43.879
11
138.513
21
47.364
0
LINE
8
1
10
141.956
20
45.823
11
141.722
21
48.076
0
LINE
8
1
10
141.722
20
48.076
11
156.406
21
55.417
0
LINE
8
1
10
156.406
20
55.417
11
160.24
21
48.076
0
LINE
8
1
10
160.24
20
48.076
11
164.54
21
34.239
0
LINE
8
1
10
164.54
20
34.239
11
162.155
21
33.717
0
LINE
8
1
10
162.155
20
33.717
11
156.65
21
32.2
0
LINE
8
1
10
156.65
20
32.2
11
148.842
21
52.233
0
LINE
8
1
10
148.842
20
52.233
11
144.033
21
48.836
0
LINE
8
1
10
144.033
20
48.836
11
143.126
21
47.831
0
LINE
8
1
10
143.126
20
47.831
11
147.535
21
37.498
0
LINE
8
1
10
147.535
20
37.498
11
150.794
21
30.408
0
LINE
8
1
10
150.794
20
30.408
11
148.074
21
29.145
0
LINE
8
1
10
148.074
20
29.145
11
143.924
21
40.726
0
LINE
8
1
10
143.924
20
40.726
11
141.967
21
45.792
0
LINE
8
1
10
165.806
20
39.931
11
164.422
21
44.158
0
LINE
8
1
10
164.422
20
44.158
11
164.025
21
47.49
0
LINE
8
1
10
164.025
20
47.49
11
165.072
21
48.904
0
LINE
8
1
10
165.072
20
48.904
11
166.684
21
49.87
0
LINE
8
1
10
166.684
20
49.87
11
169.9
21
65.786
0
LINE
8
1
10
169.9
20
65.786
11
169.167
21
78.898
0
LINE
8
1
10
169.167
20
78.898
11
159.068
21
97.231
0
LINE
8
1
10
159.068
20
97.231
11
142.82
21
105.917
0
LINE
8
1
10
142.82
20
105.917
11
126.856
21
106.004
0
LINE
8
1
10
126.856
20
106.004
11
122.56
21
112.495
0
LINE
8
1
10
122.56
20
112.495
11
116.489
21
117.486
0
LINE
8
1
10
116.489
20
117.486
11
114.176
21
119.244
0
LINE
8
1
10
114.176
20
119.244
11
110.964
21
160.371
0
LINE
8
1
10
110.964
20
160.371
11
97.347
21
204.614
0
LINE
8
1
10
97.347
20
204.614
11
99.736
21
207.533
0
LINE
8
1
10
99.736
20
207.533
11
104.775
21
213.134
0
LINE
8
1
10
104.775
20
213.134
11
111.132
21
215.464
0
LINE
8
1
10
111.132
20
215.464
11
118.946
21
210.602
0
LINE
8
1
10
118.946
20
210.602
11
124.926
21
208.757
0
LINE
8
1
10
124.926
20
208.757
11
129.302
21
210.234
0
LINE
8
1
10
129.302
20
210.234
11
132.303
21
215.337
0
LINE
8
1
10
132.303
20
215.337
11
134.43
21
218.338
0
LINE
8
1
10
134.43
20
218.338
11
137.433
21
220.441
0
LINE
8
1
10
137.433
20
220.441
11
137.562
21
220.521
0
LINE
8
1
10
137.562
20
220.521
11
142.753
21
226.398
0
LINE
8
1
10
142.753
20
226.398
11
144.047
21
234.732
0
LINE
8
1
10
144.047
20
234.732
11
144.333
21
238.141
0
LINE
8
1
10
144.333
20
238.141
11
152.803
21
247.736
0
LINE
8
1
10
152.803
20
247.736
11
151.455
21
258.781
0
LINE
8
1
10
151.455
20
258.781
11
148.759
21
262.813
0
LINE
8
1
10
148.759
20
262.813
11
146.045
21
264.263
0
LINE
8
1
10
146.045
20
264.263
11
143.528
21
263.235
0
LINE
8
1
10
143.528
20
263.235
11
141.424
21
259.834
0
LINE
8
1
10
141.424
20
259.834
11
140.816
21
254.32
0
LINE
8
1
10
140.816
20
254.32
11
140.825
21
253.395
0
LINE
8
1
10
140.825
20
253.395
11
134.483
21
258.697
0
LINE
8
1
10
134.483
20
258.697
11
127.561
21
257.654
0
LINE
8
1
10
127.561
20
257.654
11
125.306
21
252.808
0
LINE
8
1
10
125.306
20
252.808
11
125.571
21
246.053
0
LINE
8
1
10
125.571
20
246.053
11
121.957
21
247.367
0
LINE
8
1
10
121.957
20
247.367
11
115.957
21
247.189
0
LINE
8
1
10
115.957
20
247.189
11
113.288
21
243.377
0
LINE
8
1
10
113.288
20
243.377
11
113.202
21
237.41
0
LINE
8
1
10
113.202
20
237.41
11
114.951
21
230.765
0
LINE
8
1
10
114.951
20
230.765
11
123.532
21
219.053
0
LINE
8
1
10
123.532
20
219.053
11
119.595
21
219.216
0
LINE
8
1
10
119.595
20
219.216
11
116.55
21
222.088
0
LINE
8
1
10
116.55
20
222.088
11
112.601
21
225.497
0
LINE
8
1
10
112.601
20
225.497
11
106.102
21
224.599
0
LINE
8
1
10
106.102
20
224.599
11
99.918
21
220.315
0
LINE
8
1
10
99.918
20
220.315
11
93.476
21
213.359
0
LINE
8
1
10
93.476
20
213.359
11
86.813
21
232.743
0
LINE
8
1
10
86.813
20
232.743
11
76.743
21
250.751
0
LINE
8
1
10
76.743
20
250.751
11
62.776
21
265.095
0
LINE
8
1
10
62.776
20
265.095
11
44.423
21
273.485
0
LINE
8
1
10
44.423
20
273.485
11
9.819
21
272.157
0
LINE
8
1
10
9.819
20
272.157
11
-9.841
21
261.237
0
LINE
8
1
10
-9.841
20
261.237
11
-26.166
21
244.625
0
LINE
8
1
10
-26.166
20
244.625
11
-37.998
21
227.768
0
LINE
8
1
10
-37.998
20
227.768
11
-44.183
21
216.116
0
LINE
8
1
10
-44.183
20
216.116
11
-56.728
21
231.1
0
LINE
8
1
10
-56.728
20
231.1
11
-61.802
21
237.488
0
LINE
8
1
10
-61.802
20
237.488
11
-56.91
21
248.924
0
LINE
8
1
10
-56.91
20
248.924
11
-59.41
21
258.767
0
LINE
8
1
10
-59.41
20
258.767
11
-66.389
21
265.773
0
LINE
8
1
10
-66.389
20
265.773
11
-74.932
21
268.698
0
LINE
8
1
10
-74.932
20
268.698
11
-86.845
21
266.491
0
LINE
8
1
10
-86.845
20
266.491
11
-93.539
21
259.92
0
LINE
8
1
10
-93.539
20
259.92
11
-93.102
21
243.865
0
LINE
8
1
10
-93.102
20
243.865
11
-88.231
21
238.525
0
LINE
8
1
10
-88.231
20
238.525
11
-83.29
21
236.463
0
LINE
8
1
10
-83.29
20
236.463
11
-78.225
21
237.1
0
LINE
8
1
10
-78.225
20
237.1
11
-72.978
21
239.854
0
LINE
8
1
10
-72.978
20
239.854
11
-72.961
21
237.731
0
LINE
8
1
10
-72.961
20
237.731
11
-72.407
21
233.41
0
LINE
8
1
10
-72.407
20
233.41
11
-48.677
21
207.503
0
LINE
8
1
10
-48.677
20
207.503
11
-60.012
21
160.898
0
LINE
8
1
10
-60.012
20
160.898
11
-64.739
21
113.008
0
LINE
8
1
10
-64.739
20
113.008
11
-67.105
21
112.111
0
LINE
8
1
10
-67.105
20
112.111
11
-74.405
21
113.168
0
LINE
8
1
10
-74.405
20
113.168
11
-83.988
21
110.432
0
LINE
8
1
10
-83.988
20
110.432
11
-102.377
21
96.143
0
LINE
8
1
10
-102.377
20
96.143
11
-110.405
21
81.835
0
LINE
8
1
10
-110.405
20
81.835
11
-112.789
21
69.453
0
LINE
8
1
10
-112.789
20
69.453
11
-106.106
21
51.457
0
LINE
8
1
10
-106.106
20
51.457
11
-104.388
21
47.092
0
LINE
8
1
10
-104.388
20
47.092
11
-103.492
21
43.997
0
LINE
8
1
10
-103.492
20
43.997
11
-100.876
21
41.632
0
LINE
8
1
10
-100.876
20
41.632
11
-102.36
21
37.18
0
LINE
8
1
10
-102.36
20
37.18
11
-104.383
21
28.417
0
LINE
8
1
10
-104.383
20
28.417
11
-119.26
21
23.825
0
LINE
8
1
10
-119.26
20
23.825
11
-127.734
21
13.641
0
LINE
8
1
10
-127.734
20
13.641
11
-130.039
21
1.668
0
LINE
8
1
10
-130.039
20
1.668
11
-126.408
21
-8.291
0
LINE
8
1
10
-126.408
20
-8.291
11
-129.174
21
-11.989
0
LINE
8
1
10
-129.174
20
-11.989
11
-129.195
21
-16.411
0
LINE
8
1
10
-129.195
20
-16.411
11
-129.116
21
-20.234
0
LINE
8
1
10
-129.116
20
-20.234
11
-130.813
21
-23.545
0
LINE
8
1
10
-130.813
20
-23.545
11
-132.201
21
-26.695
0
LINE
8
1
10
-132.201
20
-26.695
11
-134.157
21
-30.667
0
LINE
8
1
10
-134.157
20
-30.667
11
-141.96
21
-33.239
0
LINE
8
1
10
-141.96
20
-33.239
11
-167.577
21
-33.623
0
LINE
8
1
10
-167.577
20
-33.623
11
-187.883
21
-49.713
0
LINE
8
1
10
-187.883
20
-49.713
11
-198.817
21
-73.415
0
LINE
8
1
10
-198.817
20
-73.415
11
-199.5
21
-85.591
0
LINE
8
1
10
-199.5
20
-85.591
11
-196.316
21
-96.635
0
LINE
8
1
10
-196.316
20
-96.635
11
-194.011
21
-99.432
0
LINE
8
1
10
-194.011
20
-99.432
11
-191.767
21
-100.644
0
LINE
8
1
10
-191.767
20
-100.644
11
-189.55
21
-100.282
0
LINE
8
1
10
-189.55
20
-100.282
11
-187.326
21
-98.356
0
LINE
8
1
10
-187.326
20
-98.356
11
-185.032
21
-94.654
0
LINE
8
1
10
-185.032
20
-94.654
11
-181.15
21
-88.275
0
LINE
8
1
10
-181.15
20
-88.275
11
-175.797
21
-81.772
0
LINE
8
1
10
-175.797
20
-81.772
11
-168.93
21
-77.514
0
LINE
8
1
10
-168.93
20
-77.514
11
-160.506
21
-77.873
0
LINE
8
1
10
-160.506
20
-77.873
11
-157.073
21
-79.083
0
LINE
8
1
10
-157.073
20
-79.083
11
-154.877
21
-77.547
0
LINE
8
1
10
-154.877
20
-77.547
11
-146.067
21
-82.849
0
LINE
8
1
10
-146.067
20
-82.849
11
-148.107
21
-84.644
0
LINE
8
1
10
-148.107
20
-84.644
11
-147.963
21
-86.528
0
LINE
8
1
10
-147.963
20
-86.528
11
-146.589
21
-90.026
0
LINE
8
1
10
-146.589
20
-90.026
11
-143.106
21
-100.536
0
LINE
8
1
10
-143.106
20
-100.536
11
-143.024
21
-109.034
0
LINE
8
1
10
-143.024
20
-109.034
11
-146.252
21
-116.54
0
LINE
8
1
10
-146.252
20
-116.54
11
-152.698
21
-124.076
0
LINE
8
1
10
-152.698
20
-124.076
11
-155.595
21
-127.652
0
LINE
8
1
10
-155.595
20
-127.652
11
-156.49
21
-130.57
0
LINE
8
1
10
-156.49
20
-130.57
11
-155.196
21
-132.428
0
LINE
8
1
10
-155.196
20
-132.428
11
-151.524
21
-132.825
0
LINE
8
1
10
-151.524
20
-132.825
11
-133.003
21
-128.556
0
LINE
8
1
10
-133.003
20
-128.556
11
-119.187
21
-120.47
0
LINE
8
1
10
-119.187
20
-120.47
11
-104.043
21
-97.191
0
LINE
8
1
10
-104.043
20
-97.191
11
-102.832
21
-71.669
0
LINE
8
1
10
-102.832
20
-71.669
11
-106.434
21
-60.78
0
LINE
8
1
10
-106.434
20
-60.78
11
-112.296
21
-52.585
0
LINE
8
1
10
-112.296
20
-52.585
11
-110.74
21
-48.262
0
LINE
8
1
10
-110.74
20
-48.262
11
-112.296
21
-44.102
0
LINE
8
1
10
-112.296
20
-44.102
11
-105.281
21
-33.497
0
LINE
8
1
10
-105.281
20
-33.497
11
-100.305
21
-32.029
0
LINE
8
1
10
-100.305
20
-32.029
11
-94.706
21
-30.39
0
LINE
8
1
10
-94.706
20
-30.39
11
-88.185
21
-29.581
0
LINE
8
1
10
-88.185
20
-29.581
11
-82.141
21
-25.894
0
LINE
8
1
10
-82.141
20
-25.894
11
-74.446
21
-13.593
0
LINE
8
1
10
-74.446
20
-13.593
11
-65.973
21
-23.729
0
LINE
8
1
10
-65.973
20
-23.729
11
-53.89
21
-28.848
0
LINE
8
1
10
-53.89
20
-28.848
11
-50.083
21
-62.19
0
LINE
8
1
10
-50.083
20
-62.19
11
-45.202
21
-82.004
0
LINE
8
1
10
-45.202
20
-82.004
11
-41.821
21
-88.783
0
LINE
8
1
10
-41.821
20
-88.783
11
-37.738
21
-91.985
0
LINE
8
1
10
-37.738
20
-91.985
11
-57.754
21
-123.992
0
LINE
8
1
10
-57.754
20
-123.992
11
-63.491
21
-141.736
0
LINE
8
1
10
-63.491
20
-141.736
11
-67.676
21
-160.099
0
LINE
8
1
10
-67.676
20
-160.099
11
-94.926
21
-172.754
0
LINE
8
1
10
-94.926
20
-172.754
11
-114.505
21
-192.022
0
LINE
8
1
10
-114.505
20
-192.022
11
-128.065
21
-216.476
0
LINE
8
1
10
-128.065
20
-216.476
11
-137.257
21
-244.69
0
LINE
8
1
10
-137.257
20
-244.69
11
-138.007
21
-250.948
0
LINE
8
1
10
-138.007
20
-250.948
11
-136.511
21
-255.255
0
LINE
8
1
10
-136.511
20
-255.255
11
-132.313
21
-258.451
0
LINE
8
1
10
-132.313
20
-258.451
11
-124.955
21
-261.376
0
LINE
8
1
10
-124.955
20
-261.376
11
-97.698
21
-267.975
0
LINE
8
1
10
-97.698
20
-267.975
11
-64.948
21
-269.18
0
LINE
8
1
10
-64.948
20
-269.18
11
-53.445
21
-267.678
0
LINE
8
1
10
-53.445
20
-267.678
11
-44.51
21
-261.598
0
LINE
8
1
10
-44.51
20
-261.598
11
-16.288
21
-234.787
0
LINE
8
1
10
-16.288
20
-234.787
11
-1.257
21
-221.783
0
LINE
8
1
10
-1.257
20
-221.783
11
10.471
21
-212.958
0
LINE
8
1
10
10.471
20
-212.958
11
11.386
21
-207.359
0
LINE
8
1
10
11.386
20
-207.359
11
9.915
21
-202.064
0
LINE
8
1
10
9.915
20
-202.064
11
-5.614
21
-177.501
0
LINE
8
1
10
-5.614
20
-177.501
11
-17.651
21
-167.968
0
LINE
8
1
10
-17.651
20
-167.968
11
-33.007
21
-163.035
0
LINE
8
1
10
-33.007
20
-163.035
11
-14.245
21
-123.962
0
LINE
8
1
10
-14.245
20
-123.962
11
-7.092
21
-131.076
0
LINE
8
1
10
-7.092
20
-131.076
11
2.622
21
-133.026
0
LINE
8
1
10
2.622
20
-133.026
11
17.172
21
-133.986
0
LINE
8
1
10
17.172
20
-133.986
11
31.465
21
-133.916
0
LINE
8
1
10
31.465
20
-133.916
11
40.409
21
-132.772
0
LINE
8
1
10
40.409
20
-132.772
11
42.235
21
-132.111
0
LINE
8
1
10
42.235
20
-132.111
11
49.879
21
-130.161
0
LINE
8
1
10
49.879
20
-130.161
11
56.646
21
-146.211
0
LINE
8
1
10
56.646
20
-146.211
11
60.965
21
-163.361
0
LINE
8
1
10
60.965
20
-163.361
11
46.874
21
-168.372
0
LINE
8
1
10
46.874
20
-168.372
11
36.268
21
-177.748
0
LINE
8
1
10
36.268
20
-177.748
11
28.588
21
-188.815
0
LINE
8
1
10
28.588
20
-188.815
11
23.277
21
-198.901
0
LINE
8
1
10
23.277
20
-198.901
11
21.729
21
-201.989
0
LINE
8
1
10
21.729
20
-201.989
11
20.398
21
-208.813
0
LINE
8
1
10
20.398
20
-208.813
11
22.811
21
-211.95
0
LINE
8
1
10
22.811
20
-211.95
11
36.976
21
-221.012
0
LINE
8
1
10
36.976
20
-221.012
11
51.087
21
-232.683
0
LINE
8
1
10
51.087
20
-232.683
11
63.382
21
-244.914
0
LINE
8
1
10
63.382
20
-244.914
11
72.095
21
-255.653
0
LINE
8
1
10
72.095
20
-255.653
11
72.191
21
-255.794
0
LINE
8
1
10
72.191
20
-255.794
11
81.688
21
-267.717
0
LINE
8
1
10
81.688
20
-267.717
11
95.307
21
-273.485
0
LINE
8
1
10
95.307
20
-273.485
11
114.893
21
-271.772
0
LINE
8
1
10
114.893
20
-271.772
11
135.825
21
-267.475
0
LINE
8
1
10
135.825
20
-267.475
11
153.901
21
-261.992
0
LINE
8
1
10
153.901
20
-261.992
11
164.919
21
-256.725
0
LINE
8
1
10
164.919
20
-256.725
11
168.152
21
-251.46
0
LINE
8
1
10
168.152
20
-251.46
11
163.946
21
-229.052
0
LINE
8
1
10
163.946
20
-229.052
11
153.29
21
-206.813
0
LINE
8
1
10
153.29
20
-206.813
11
126.586
21
-173.046
0
LINE
8
1
10
126.586
20
-173.046
11
113.636
21
-164.136
0
LINE
8
1
10
113.636
20
-164.136
11
97.763
21
-161.722
0
LINE
8
1
10
97.763
20
-161.722
11
88.052
21
-127.156
0
LINE
8
1
10
88.052
20
-127.156
11
74.751
21
-96.064
0
LINE
8
1
10
74.751
20
-96.064
11
83.798
21
-93.231
0
LINE
8
1
10
83.798
20
-93.231
11
97.774
21
-78.55
0
LINE
8
1
10
97.774
20
-78.55
11
102.39
21
-59.427
0
LINE
8
1
10
102.39
20
-59.427
11
104.587
21
-38.91
0
LINE
8
1
10
104.587
20
-38.91
11
105.586
21
-28.848
0
LINE
8
1
10
105.586
20
-28.848
11
108.846
21
-25.431
0
LINE
8
1
10
108.846
20
-25.431
11
119.252
21
-19.177
0
LINE
8
1
10
119.252
20
-19.177
11
126.81
21
-10.135
0
LINE
8
1
10
126.81
20
-10.135
11
132.064
21
9.437
0
LINE
8
1
10
132.064
20
9.437
11
134.111
21
28.407
0
LINE
8
1
10
134.111
20
28.407
11
134.626
21
34.616
0
LINE
8
1
10
134.626
20
34.616
11
142.906
21
36.852
0
LINE
8
1
10
142.906
20
36.852
11
146.4
21
28.197
0
LINE
8
1
10
146.4
20
28.197
11
135.822
21
15.528
0
LINE
8
1
10
135.822
20
15.528
11
133.642
21
-0.451
0
LINE
8
1
10
133.642
20
-0.451
11
139.384
21
-14.817
0
LINE
8
1
10
139.384
20
-14.817
11
152.571
21
-22.648
0
LINE
8
1
10
152.571
20
-22.648
11
149.272
21
-33.83
0
LINE
8
1
10
149.272
20
-33.83
11
148.167
21
-38.228
0
LINE
8
1
10
148.167
20
-38.228
11
142.021
21
-44.722
0
LINE
8
1
10
142.021
20
-44.722
11
141.18
21
-45.942
0
LINE
8
1
10
141.18
20
-45.942
11
139.022
21
-46.62
0
LINE
8
1
10
139.022
20
-46.62
11
138.311
21
-46.798
0
LINE
8
1
10
138.311
20
-46.798
11
113.519
21
-60.547
0
LINE
8
1
10
113.519
20
-60.547
11
101.08
21
-81.345
0
LINE
8
1
10
101.08
20
-81.345
11
98.789
21
-103.016
0
LINE
8
1
10
98.789
20
-103.016
11
100.76
21
-112.248
0
LINE
8
1
10
100.76
20
-112.248
11
104.442
21
-119.381
0
LINE
8
1
10
104.442
20
-119.381
11
107.911
21
-121.742
0
LINE
8
1
10
107.911
20
-121.742
11
112.108
21
-120.144
0
LINE
8
1
10
112.108
20
-120.144
11
115.28
21
-113.704
0
LINE
8
1
10
115.28
20
-113.704
11
118.708
21
-106.853
0
LINE
8
1
10
118.708
20
-106.853
11
122.916
21
-100.971
0
LINE
8
1
10
122.916
20
-100.971
11
128.876
21
-96.618
0
LINE
8
1
10
128.876
20
-96.618
11
137.562
21
-94.351
0
LINE
8
1
10
137.562
20
-94.351
11
138.474
21
-91.302
0
LINE
8
1
10
138.474
20
-91.302
11
139.683
21
-88.151
0
LINE
8
1
10
139.683
20
-88.151
11
149.635
21
-90.517
0
LINE
8
1
10
149.635
20
-90.517
11
149.263
21
-91.27
0
LINE
8
1
10
149.263
20
-91.27
11
147.948
21
-94.673
0
LINE
8
1
10
147.948
20
-94.673
11
149.427
21
-97.923
0
LINE
8
1
10
149.427
20
-97.923
11
159.385
21
-111.952
0
LINE
8
1
10
159.385
20
-111.952
11
158.387
21
-121.517
0
LINE
8
1
10
158.387
20
-121.517
11
154.274
21
-131.976
0
LINE
8
1
10
154.274
20
-131.976
11
155.079
21
-139.057
0
LINE
8
1
10
155.079
20
-139.057
11
160.484
21
-138.645
0
LINE
8
1
10
160.484
20
-138.645
11
179.077
21
-114.856
0
LINE
8
1
10
179.077
20
-114.856
11
188.053
21
-86.754
0
LINE
8
1
10
188.053
20
-86.754
11
187.738
21
-76.513
0
LINE
8
1
10
187.738
20
-76.513
11
185.002
21
-68.056
0
LINE
8
1
10
185.002
20
-68.056
11
179.325
21
-61.078
0
LINE
8
1
10
179.325
20
-61.078
11
170.191
21
-55.277
0
LINE
8
1
10
170.191
20
-55.277
11
170.483
21
-54.808
0
LINE
8
1
10
170.483
20
-54.808
11
172.137
21
-50.762
0
LINE
8
1
10
172.137
20
-50.762
11
171.458
21
-48.543
0
LINE
8
1
10
171.458
20
-48.543
11
169.294
21
-45.57
0
LINE
8
1
10
169.294
20
-45.57
11
176.065
21
-27.95
0
LINE
8
1
10
176.065
20
-27.95
11
191.904
21
-18.215
0
LINE
8
1
10
191.904
20
-18.215
11
199.5
21
2.097
0
LINE
8
1
10
199.5
20
2.097
11
189.597
21
27.47
0
LINE
8
1
10
189.597
20
27.47
11
167.981
21
34.759
0
LINE
8
1
10
162.933
20
52.587
11
164.579
21
53.966
0
LINE
8
1
10
164.579
20
53.966
11
163.525
21
50.728
0
LINE
8
1
10
-89.603
20
70.809
11
-89.807
21
71.614
0
LINE
8
1
10
-89.807
20
71.614
11
-91.997
21
72.012
0
LINE
8
1
10
-91.997
20
72.012
11
-97.533
21
72.799
0
LINE
8
1
10
-97.533
20
72.799
11
-100.625
21
75.361
0
LINE
8
1
10
-100.625
20
75.361
11
-100.814
21
80.054
0
LINE
8
1
10
-100.814
20
80.054
11
-97.645
21
87.23
0
LINE
8
1
10
-97.645
20
87.23
11
-96.588
21
89.954
0
LINE
8
1
10
-96.588
20
89.954
11
-96.974
21
91.348
0
LINE
8
1
10
-96.974
20
91.348
11
-98.253
21
91.298
0
LINE
8
1
10
-98.253
20
91.298
11
-99.873
21
89.689
0
LINE
8
1
10
-99.873
20
89.689
11
-104.633
21
77.116
0
LINE
8
1
10
-104.633
20
77.116
11
-103.306
21
67.252
0
LINE
8
1
10
-103.306
20
67.252
11
-100.98
21
64.404
0
LINE
8
1
10
-100.98
20
64.404
11
-97.877
21
63.514
0
LINE
8
1
10
-97.877
20
63.514
11
-94.247
21
65.01
0
LINE
8
1
10
-94.247
20
65.01
11
-90.336
21
69.319
0
LINE
8
1
10
-71.846
20
79.883
11
-73.903
21
80.23
0
LINE
8
1
10
-73.903
20
80.23
11
-74.539
21
78.454
0
LINE
8
1
10
-74.539
20
78.454
11
-73.514
21
49.659
0
LINE
8
1
10
-73.514
20
49.659
11
-72.913
21
27.463
0
LINE
8
1
10
-72.913
20
27.463
11
-71.175
21
7.021
0
LINE
8
1
10
-71.175
20
7.021
11
-67.173
21
-9.246
0
LINE
8
1
10
-67.173
20
-9.246
11
-63.972
21
-15.057
0
LINE
8
1
10
-63.972
20
-15.057
11
-59.783
21
-18.916
0
LINE
8
1
10
-59.783
20
-18.916
11
-57.469
21
-19.68
0
LINE
8
1
10
-57.469
20
-19.68
11
-56.395
21
-18.827
0
LINE
8
1
10
-56.395
20
-18.827
11
-56.707
21
-16.731
0
LINE
8
1
10
-56.707
20
-16.731
11
-58.554
21
-13.763
0
LINE
8
1
10
-58.554
20
-13.763
11
-60.13
21
-10.315
0
LINE
8
1
10
-60.13
20
-10.315
11
-61.529
21
-4.404
0
LINE
8
1
10
-61.529
20
-4.404
11
-63.772
21
12.77
0
LINE
8
1
10
-63.772
20
12.77
11
-65.881
21
54.275
0
LINE
8
1
10
-65.881
20
54.275
11
-65.244
21
60.244
0
LINE
8
1
10
-65.244
20
60.244
11
-62.866
21
62.946
0
LINE
8
1
10
-62.866
20
62.946
11
-59.014
21
63.413
0
LINE
8
1
10
-59.014
20
63.413
11
-53.957
21
62.68
0
LINE
8
1
10
-53.957
20
62.68
11
-45.651
21
61.617
0
LINE
8
1
10
-45.651
20
61.617
11
-43.884
21
63.392
0
LINE
8
1
10
-43.884
20
63.392
11
-44.509
21
65.696
0
LINE
8
1
10
-11.05
20
89.803
11
-6.344
21
106.201
0
LINE
8
1
10
-6.344
20
106.201
11
-2.687
21
121.862
0
LINE
8
1
10
-2.687
20
121.862
11
-1.862
21
127.346
0
LINE
8
1
10
-1.862
20
127.346
11
-2.032
21
130.161
0
LINE
8
1
10
-2.032
20
130.161
11
35.356
21
129.696
0
LINE
8
1
10
35.356
20
129.696
11
35.236
21
121.88
0
LINE
8
1
10
35.236
20
121.88
11
36.002
21
107.711
0
LINE
8
1
10
36.002
20
107.711
11
37.708
21
91.552
0
LINE
8
1
10
37.708
20
91.552
11
40.409
21
77.768
0
LINE
8
1
10
40.409
20
77.768
11
11.335
21
75.736
0
LINE
8
1
10
11.335
20
75.736
11
-2.909
21
76.69
0
LINE
8
1
10
-2.909
20
76.69
11
-14.855
21
79.29
0
LINE
8
1
10
-0.714
20
106.299
11
3.324
21
124.119
0
LINE
8
1
10
3.324
20
124.119
11
5.448
21
123.945
0
LINE
8
1
10
5.448
20
123.945
11
16.35
21
123.235
0
LINE
8
1
10
16.35
20
123.235
11
27.765
21
123.612
0
LINE
8
1
10
27.765
20
123.612
11
28.091
21
118.555
0
LINE
8
1
10
28.091
20
118.555
11
24.559
21
119.614
0
LINE
8
1
10
24.559
20
119.614
11
19.86
21
119.739
0
LINE
8
1
10
19.86
20
119.739
11
10.716
21
117.984
0
LINE
8
1
10
10.716
20
117.984
11
11.344
21
117.082
0
LINE
8
1
10
11.344
20
117.082
11
11.614
21
116.842
0
LINE
8
1
10
11.614
20
116.842
11
17.031
21
116.739
0
LINE
8
1
10
17.031
20
116.739
11
23.015
21
116.605
0
LINE
8
1
10
23.015
20
116.605
11
28.285
21
117.427
0
LINE
8
1
10
28.285
20
117.427
11
30.036
21
99.092
0
LINE
8
1
10
30.036
20
99.092
11
31.599
21
83.315
0
LINE
8
1
10
31.599
20
83.315
11
28.956
21
83.076
0
LINE
8
1
10
28.956
20
83.076
11
10.538
21
81.859
0
LINE
8
1
10
10.538
20
81.859
11
1.227
21
82.124
0
LINE
8
1
10
1.227
20
82.124
11
-6.006
21
83.642
0
LINE
8
1
10
2.377
20
88.524
11
9.368
21
88.515
0
LINE
8
1
10
9.368
20
88.515
11
28.338
21
88.703
0
LINE
8
1
10
28.338
20
88.703
11
29.17
21
90.081
0
LINE
8
1
10
29.17
20
90.081
11
28.194
21
91.409
0
LINE
8
1
10
28.194
20
91.409
11
21.261
21
91.301
0
LINE
8
1
10
21.261
20
91.301
11
12.888
21
90.279
0
LINE
8
1
10
12.888
20
90.279
11
2.373
21
89.114
0
LINE
8
1
10
132.141
20
104.212
11
146.141
21
102.296
0
LINE
8
1
10
146.141
20
102.296
11
159.739
21
90.574
0
LINE
8
1
10
159.739
20
90.574
11
166.135
21
75.601
0
LINE
8
1
10
166.135
20
75.601
11
165.661
21
60.467
0
LINE
8
1
10
165.661
20
60.467
11
165.484
21
60.125
0
LINE
8
1
10
165.484
20
60.125
11
165.295
21
60.504
0
LINE
8
1
10
165.295
20
60.504
11
161.239
21
67.355
0
LINE
8
1
10
161.239
20
67.355
11
153.561
21
69.919
0
LINE
8
1
10
153.561
20
69.919
11
136.24
21
62.084
0
LINE
8
1
10
136.24
20
62.084
11
131.235
21
51.536
0
LINE
8
1
10
131.235
20
51.536
11
132.127
21
44.089
0
LINE
8
1
10
132.127
20
44.089
11
135.97
21
40.687
0
LINE
8
1
10
135.97
20
40.687
11
138.271
21
40.003
0
LINE
8
1
10
138.271
20
40.003
11
139.928
21
40.734
0
LINE
8
1
10
139.928
20
40.734
11
141.396
21
39.021
0
LINE
8
1
10
141.396
20
39.021
11
123.78
21
39.624
0
LINE
8
1
10
123.78
20
39.624
11
110.032
21
51.711
0
LINE
8
1
10
110.032
20
51.711
11
110.601
21
90.707
0
LINE
8
1
10
147.293
20
66.261
11
155.534
21
66.678
0
LINE
8
1
10
155.534
20
66.678
11
161.151
21
62.669
0
LINE
8
1
10
161.151
20
62.669
11
161.382
21
55.173
0
LINE
8
1
10
161.382
20
55.173
11
158.182
21
58.97
0
LINE
8
1
10
158.182
20
58.97
11
155.206
21
60.529
0
LINE
8
1
10
155.206
20
60.529
11
152.157
21
60.144
0
LINE
8
1
10
152.157
20
60.144
11
148.738
21
58.109
0
LINE
8
1
10
148.738
20
58.109
11
144.783
21
60.926
0
LINE
8
1
10
144.783
20
60.926
11
140.016
21
59.863
0
LINE
8
1
10
140.016
20
59.863
11
138.671
21
59.388
0
LINE
8
1
10
138.671
20
59.388
11
138.625
21
59.66
0
LINE
8
1
10
138.625
20
59.66
11
139.192
21
60.477
0
LINE
8
1
10
131.619
20
63.472
11
127.341
21
59.836
0
LINE
8
1
10
127.341
20
59.836
11
123.604
21
58.102
0
LINE
8
1
10
123.604
20
58.102
11
117.612
21
59.305
0
LINE
8
1
10
117.612
20
59.305
11
113.352
21
65.005
0
LINE
8
1
10
113.352
20
65.005
11
110.533
21
73.127
0
LINE
8
1
10
110.533
20
73.127
11
109.328
21
76.158
0
LINE
8
1
10
109.328
20
76.158
11
107.965
21
77.331
0
LINE
8
1
10
107.965
20
77.331
11
106.823
21
76.58
0
LINE
8
1
10
106.823
20
76.58
11
106.278
21
73.839
0
LINE
8
1
10
106.278
20
73.839
11
112.35
21
52.939
0
LINE
8
1
10
112.35
20
52.939
11
120.142
21
44.608
0
LINE
8
1
10
120.142
20
44.608
11
130.873
21
40.734
0
LINE
8
1
10
130.873
20
40.734
11
128.511
21
53.259
0
LINE
8
1
10
128.511
20
53.259
11
132.971
21
61.189
0
LINE
8
1
10
132.971
20
61.189
11
133.414
21
61.765
0
LINE
8
1
10
-54.021
20
175.391
11
-48.225
21
197.076
0
LINE
8
1
10
-48.225
20
197.076
11
-40.848
21
215.112
0
LINE
8
1
10
-40.848
20
215.112
11
-28.517
21
236.155
0
LINE
8
1
10
-28.517
20
236.155
11
-12.825
21
254.479
0
LINE
8
1
10
-12.825
20
254.479
11
32.639
21
272.116
0
LINE
8
1
10
32.639
20
272.116
11
49.984
21
268.298
0
LINE
8
1
10
49.984
20
268.298
11
66.24
21
256.955
0
LINE
8
1
10
66.24
20
256.955
11
80.286
21
237.827
0
LINE
8
1
10
80.286
20
237.827
11
90.999
21
210.653
0
LINE
8
1
10
90.999
20
210.653
11
84.248
21
202.746
0
LINE
8
1
10
84.248
20
202.746
11
76.546
21
193.765
0
LINE
8
1
10
76.546
20
193.765
11
76.343
21
190.762
0
LINE
8
1
10
76.343
20
190.762
11
77.204
21
188.679
0
LINE
8
1
10
77.204
20
188.679
11
81.766
21
186.75
0
LINE
8
1
10
81.766
20
186.75
11
89.475
21
195.378
0
LINE
8
1
10
89.475
20
195.378
11
94.981
21
201.627
0
LINE
8
1
10
94.981
20
201.627
11
109.026
21
147.299
0
LINE
8
1
10
109.026
20
147.299
11
110.431
21
124.134
0
LINE
8
1
10
110.431
20
124.134
11
108.356
21
108.036
0
LINE
8
1
10
108.356
20
108.036
11
103.674
21
98.866
0
LINE
8
1
10
103.674
20
98.866
11
96.077
21
90.28
0
LINE
8
1
10
96.077
20
90.28
11
74.05
21
75.859
0
LINE
8
1
10
74.05
20
75.859
11
16.026
21
64.982
0
LINE
8
1
10
16.026
20
64.982
11
-32.039
21
77.122
0
LINE
8
1
10
-32.039
20
77.122
11
-50.737
21
88.555
0
LINE
8
1
10
-50.737
20
88.555
11
-57.108
21
95.408
0
LINE
8
1
10
-57.108
20
95.408
11
-60.866
21
102.943
0
LINE
8
1
10
-60.866
20
102.943
11
-61.506
21
111.704
0
LINE
8
1
10
-61.506
20
111.704
11
-60.959
21
122.469
0
LINE
8
1
10
-60.959
20
122.469
11
-60.87
21
123.802
0
LINE
8
1
10
-35.573
20
119.006
11
-34.581
21
119.941
0
LINE
8
1
10
-34.581
20
119.941
11
-35.604
21
120.694
0
LINE
8
1
10
-35.604
20
120.694
11
-36.273
21
120.711
0
LINE
8
1
10
-36.273
20
120.711
11
-42.043
21
120.587
0
LINE
8
1
10
-42.043
20
120.587
11
-47.393
21
118.793
0
LINE
8
1
10
-47.393
20
118.793
11
-49.54
21
118.111
0
LINE
8
1
10
-49.54
20
118.111
11
-50.248
21
118.845
0
LINE
8
1
10
-50.248
20
118.845
11
-50.754
21
120.619
0
LINE
8
1
10
-50.754
20
120.619
11
-50.095
21
138.316
0
LINE
8
1
10
-50.095
20
138.316
11
-48.726
21
153.081
0
LINE
8
1
10
-48.726
20
153.081
11
-46.396
21
166.49
0
LINE
8
1
10
-46.396
20
166.49
11
-46.391
21
167.257
0
LINE
8
1
10
-46.391
20
167.257
11
-46.848
21
166.709
0
LINE
8
1
10
-46.848
20
166.709
11
-51.095
21
153.409
0
LINE
8
1
10
-51.095
20
153.409
11
-54.402
21
136.903
0
LINE
8
1
10
-54.402
20
136.903
11
-56.491
21
122.373
0
LINE
8
1
10
-56.491
20
122.373
11
-57.083
21
115.001
0
LINE
8
1
10
-57.083
20
115.001
11
-53.89
21
110.398
0
LINE
8
1
10
-50.781
20
106.077
11
-52.601
21
103.591
0
LINE
8
1
10
-52.601
20
103.591
11
-49.15
21
97.036
0
LINE
8
1
10
-49.15
20
97.036
11
-42.799
21
92.141
0
LINE
8
1
10
-42.799
20
92.141
11
-37.983
21
88.618
0
LINE
8
1
10
-37.983
20
88.618
11
-36.27
21
88.373
0
LINE
8
1
10
-36.27
20
88.373
11
-40.93
21
92.758
0
LINE
8
1
10
-40.93
20
92.758
11
-45.85
21
97.754
0
LINE
8
1
10
-45.85
20
97.754
11
-48.445
21
104.504
0
LINE
8
1
10
-15.373
20
118.925
11
-10.211
21
119.749
0
LINE
8
1
10
-10.211
20
119.749
11
-5.031
21
121.767
0
LINE
8
1
10
-5.031
20
121.767
11
-10.113
21
101.936
0
LINE
8
1
10
-10.113
20
101.936
11
-16.596
21
107.22
0
LINE
8
1
10
-16.596
20
107.22
11
-16.965
21
112.322
0
LINE
8
1
10
-16.965
20
112.322
11
-15.387
21
118.923
0
LINE
8
1
10
12.154
20
103.65
11
26.823
21
103.74
0
LINE
8
1
10
26.823
20
103.74
11
28.183
21
105.037
0
LINE
8
1
10
28.183
20
105.037
11
27.041
21
106.6
0
LINE
8
1
10
27.041
20
106.6
11
13.269
21
105.893
0
LINE
8
1
10
13.269
20
105.893
11
8.098
21
105.407
0
LINE
8
1
10
8.098
20
105.407
11
6.507
21
104.952
0
LINE
8
1
10
6.507
20
104.952
11
6.176
21
104.201
0
LINE
8
1
10
6.176
20
104.201
11
6.961
21
103.538
0
LINE
8
1
10
6.961
20
103.538
11
8.721
21
103.348
0
LINE
8
1
10
14.283
20
126.077
11
0.401
21
127.367
0
LINE
8
1
10
0.401
20
127.367
11
-9.514
21
83.071
0
LINE
8
1
10
-9.514
20
83.071
11
-9.707
21
80.636
0
LINE
8
1
10
-9.707
20
80.636
11
-7.148
21
79.237
0
LINE
8
1
10
-7.148
20
79.237
11
16.508
21
78.574
0
LINE
8
1
10
16.508
20
78.574
11
28.458
21
79.455
0
LINE
8
1
10
28.458
20
79.455
11
32.51
21
80.242
0
LINE
8
1
10
32.51
20
80.242
11
34.535
21
81.276
0
LINE
8
1
10
34.535
20
81.276
11
32.927
21
106.463
0
LINE
8
1
10
32.927
20
106.463
11
31.756
21
126.535
0
LINE
8
1
10
27.338
20
112.614
11
25.587
21
113.654
0
LINE
8
1
10
25.587
20
113.654
11
13.436
21
113.0
0
LINE
8
1
10
13.436
20
113.0
11
6.638
21
112.437
0
LINE
8
1
10
6.638
20
112.437
11
6.638
21
111.866
0
LINE
8
1
10
6.638
20
111.866
11
17.176
21
110.81
0
LINE
8
1
10
17.176
20
110.81
11
23.046
21
110.596
0
LINE
8
1
10
23.046
20
110.596
11
26.495
21
110.973
0
LINE
8
1
10
10.655
20
98.039
11
3.306
21
97.261
0
LINE
8
1
10
3.306
20
97.261
11
1.986
21
96.556
0
LINE
8
1
10
1.986
20
96.556
11
2.302
21
96.146
0
LINE
8
1
10
2.302
20
96.146
11
3.312
21
95.98
0
LINE
8
1
10
3.312
20
95.98
11
11.249
21
96.274
0
LINE
8
1
10
11.249
20
96.274
11
27.337
21
96.38
0
LINE
8
1
10
27.337
20
96.38
11
28.377
21
97.587
0
LINE
8
1
10
28.377
20
97.587
11
27.448
21
98.943
0
LINE
8
1
10
38.665
20
121.064
11
50.155
21
123.39
0
LINE
8
1
10
50.155
20
123.39
11
50.155
21
123.39
0
LINE
8
1
10
50.155
20
123.39
11
51.649
21
113.758
0
LINE
8
1
10
51.649
20
113.758
11
52.125
21
103.998
0
LINE
8
1
10
52.125
20
103.998
11
52.155
21
103.056
0
LINE
8
1
10
52.155
20
103.056
11
47.028
21
98.115
0
LINE
8
1
10
47.028
20
98.115
11
40.653
21
95.388
0
LINE
8
1
10
99.252
20
122.847
11
94.149
21
124.955
0
LINE
8
1
10
94.149
20
124.955
11
82.093
21
124.184
0
LINE
8
1
10
82.093
20
124.184
11
87.938
21
122.505
0
LINE
8
1
10
87.938
20
122.505
11
93.731
21
120.847
0
LINE
8
1
10
93.731
20
120.847
11
98.983
21
117.845
0
LINE
8
1
10
98.983
20
117.845
11
101.241
21
116.735
0
LINE
8
1
10
101.241
20
116.735
11
101.846
21
117.347
0
LINE
8
1
10
101.846
20
117.347
11
101.817
21
119.065
0
LINE
8
1
10
94.213
20
99.451
11
89.652
21
94.059
0
LINE
8
1
10
89.652
20
94.059
11
86.824
21
90.983
0
LINE
8
1
10
86.824
20
90.983
11
93.783
21
93.848
0
LINE
8
1
10
93.783
20
93.848
11
98.907
21
99.279
0
LINE
8
1
10
98.907
20
99.279
11
101.373
21
105.156
0
LINE
8
1
10
101.373
20
105.156
11
100.359
21
109.356
0
LINE
8
1
10
100.359
20
109.356
11
98.363
21
110.592
0
LINE
8
1
10
98.363
20
110.592
11
96.815
21
110.475
0
LINE
8
1
10
96.815
20
110.475
11
95.917
21
108.924
0
LINE
8
1
10
95.917
20
108.924
11
95.874
21
105.863
0
LINE
8
1
10
-35.642
20
148.046
11
-33.008
21
157.334
0
LINE
8
1
10
-33.008
20
157.334
11
-27.184
21
164.529
0
LINE
8
1
10
-27.184
20
164.529
11
-19.893
21
167.86
0
LINE
8
1
10
-19.893
20
167.86
11
-10.328
21
166.81
0
LINE
8
1
10
-10.328
20
166.81
11
-3.606
21
162.212
0
LINE
8
1
10
-3.606
20
162.212
11
2.214
21
148.085
0
LINE
8
1
10
2.214
20
148.085
11
-1.377
21
137.427
0
LINE
8
1
10
-1.377
20
137.427
11
-11.299
21
130.769
0
LINE
8
1
10
-11.299
20
130.769
11
-23.359
21
130.358
0
LINE
8
1
10
-23.359
20
130.358
11
-33.359
21
138.438
0
LINE
8
1
10
-25.028
20
154.604
11
-26.665
21
147.282
0
LINE
8
1
10
-26.665
20
147.282
11
-22.717
21
140.998
0
LINE
8
1
10
-22.717
20
140.998
11
-14.002
21
139.946
0
LINE
8
1
10
-14.002
20
139.946
11
-6.862
21
151.006
0
LINE
8
1
10
-6.862
20
151.006
11
-16.985
21
158.769
0
LINE
8
1
10
3.74
20
134.498
11
18.303
21
134.259
0
LINE
8
1
10
18.303
20
134.259
11
28.877
21
134.293
0
LINE
8
1
10
28.877
20
134.293
11
30.246
21
132.7
0
LINE
8
1
10
30.246
20
132.7
11
2.545
21
133.356
0
LINE
8
1
10
20.005
20
137.724
11
5.169
21
138.296
0
LINE
8
1
10
5.169
20
138.296
11
7.074
21
148.948
0
LINE
8
1
10
7.074
20
148.948
11
5.073
21
158.045
0
LINE
8
1
10
5.073
20
158.045
11
-8.046
21
170.598
0
LINE
8
1
10
-8.046
20
170.598
11
-6.577
21
181.448
0
LINE
8
1
10
-6.577
20
181.448
11
-2.483
21
178.445
0
LINE
8
1
10
-2.483
20
178.445
11
3.523
21
176.266
0
LINE
8
1
10
3.523
20
176.266
11
18.99
21
174.15
0
LINE
8
1
10
18.99
20
174.15
11
35.255
21
174.643
0
LINE
8
1
10
35.255
20
174.643
11
47.75
21
177.288
0
LINE
8
1
10
47.75
20
177.288
11
48.037
21
172.979
0
LINE
8
1
10
48.037
20
172.979
11
48.321
21
168.869
0
LINE
8
1
10
48.321
20
168.869
11
29.269
21
156.284
0
LINE
8
1
10
29.269
20
156.284
11
26.099
21
146.434
0
LINE
8
1
10
26.099
20
146.434
11
26.616
21
137.502
0
LINE
8
1
10
71.727
20
145.812
11
61.802
21
130.229
0
LINE
8
1
10
61.802
20
130.229
11
44.432
21
128.614
0
LINE
8
1
10
44.432
20
128.614
11
31.892
21
140.302
0
LINE
8
1
10
31.892
20
140.302
11
32.408
21
151.919
0
LINE
8
1
10
32.408
20
151.919
11
40.543
21
160.748
0
LINE
8
1
10
40.543
20
160.748
11
52.273
21
164.84
0
LINE
8
1
10
52.273
20
164.84
11
63.575
21
162.245
0
LINE
8
1
10
59.315
20
140.488
11
61.091
21
147.954
0
LINE
8
1
10
61.091
20
147.954
11
48.789
21
156.807
0
LINE
8
1
10
48.789
20
156.807
11
39.512
21
145.116
0
LINE
8
1
10
39.512
20
145.116
11
42.751
21
138.376
0
LINE
8
1
10
42.751
20
138.376
11
51.178
21
136.18
0
LINE
8
1
10
-24.554
20
191.0
11
-24.342
21
191.019
0
LINE
8
1
10
-24.342
20
191.019
11
-25.008
21
192.225
0
LINE
8
1
10
-25.008
20
192.225
11
-30.448
21
199.844
0
LINE
8
1
10
-30.448
20
199.844
11
-35.944
21
207.551
0
LINE
8
1
10
-35.944
20
207.551
11
-38.234
21
207.435
0
LINE
8
1
10
-38.234
20
207.435
11
-38.636
21
205.838
0
LINE
8
1
10
-38.636
20
205.838
11
-25.391
21
191.802
0
LINE
8
1
10
-22.683
20
180.275
11
-22.65
21
180.46
0
LINE
8
1
10
-22.65
20
180.46
11
-23.064
21
181.132
0
LINE
8
1
10
-23.064
20
181.132
11
-40.229
21
204.784
0
LINE
8
1
10
-40.229
20
204.784
11
-42.388
21
202.901
0
LINE
8
1
10
-42.388
20
202.901
11
-34.404
21
193.412
0
LINE
8
1
10
-34.404
20
193.412
11
-23.456
21
180.827
0
LINE
8
1
10
-31.774
20
167.239
11
-40.263
21
149.54
0
LINE
8
1
10
-40.263
20
149.54
11
-39.303
21
140.422
0
LINE
8
1
10
-39.303
20
140.422
11
-35.591
21
132.439
0
LINE
8
1
10
-35.591
20
132.439
11
-28.727
21
126.744
0
LINE
8
1
10
-28.727
20
126.744
11
-18.308
21
124.493
0
LINE
8
1
10
-18.308
20
124.493
11
-19.046
21
116.058
0
LINE
8
1
10
-19.046
20
116.058
11
-19.833
21
108.867
0
LINE
8
1
10
-19.833
20
108.867
11
-18.005
21
102.547
0
LINE
8
1
10
-18.005
20
102.547
11
-11.309
21
98.651
0
LINE
8
1
10
-11.309
20
98.651
11
-16.923
21
82.153
0
LINE
8
1
10
-16.923
20
82.153
11
-17.761
21
77.81
0
LINE
8
1
10
-17.761
20
77.81
11
-16.66
21
76.378
0
LINE
8
1
10
-16.66
20
76.378
11
-14.059
21
75.488
0
LINE
8
1
10
-14.059
20
75.488
11
12.499
21
72.738
0
LINE
8
1
10
12.499
20
72.738
11
38.609
21
73.959
0
LINE
8
1
10
38.609
20
73.959
11
41.584
21
74.808
0
LINE
8
1
10
41.584
20
74.808
11
43.256
21
75.707
0
LINE
8
1
10
43.256
20
75.707
11
43.916
21
76.871
0
LINE
8
1
10
43.916
20
76.871
11
42.637
21
82.769
0
LINE
8
1
10
42.637
20
82.769
11
40.98
21
93.349
0
LINE
8
1
10
40.98
20
93.349
11
43.436
21
93.631
0
LINE
8
1
10
43.436
20
93.631
11
47.481
21
95.321
0
LINE
8
1
10
47.481
20
95.321
11
51.722
21
98.146
0
LINE
8
1
10
51.722
20
98.146
11
54.765
21
101.832
0
LINE
8
1
10
54.765
20
101.832
11
53.346
21
122.503
0
LINE
8
1
10
53.346
20
122.503
11
76.97
21
141.561
0
LINE
8
1
10
76.97
20
141.561
11
74.842
21
156.655
0
LINE
8
1
10
74.842
20
156.655
11
60.965
21
167.907
0
LINE
8
1
10
60.965
20
167.907
11
68.4
21
177.584
0
LINE
8
1
10
68.4
20
177.584
11
75.648
21
186.995
0
LINE
8
1
10
75.648
20
186.995
11
74.942
21
187.558
0
LINE
8
1
10
74.942
20
187.558
11
73.854
21
188.463
0
LINE
8
1
10
73.854
20
188.463
11
70.28
21
184.171
0
LINE
8
1
10
70.28
20
184.171
11
58.599
21
168.804
0
LINE
8
1
10
58.599
20
168.804
11
51.258
21
169.701
0
LINE
8
1
10
51.258
20
169.701
11
51.306
21
177.38
0
LINE
8
1
10
51.306
20
177.38
11
51.541
21
179.922
0
LINE
8
1
10
51.541
20
179.922
11
51.588
21
180.571
0
LINE
8
1
10
51.588
20
180.571
11
51.761
21
184.291
0
LINE
8
1
10
51.761
20
184.291
11
51.275
21
187.029
0
LINE
8
1
10
51.275
20
187.029
11
49.572
21
189.169
0
LINE
8
1
10
49.572
20
189.169
11
46.093
21
191.096
0
LINE
8
1
10
46.093
20
191.096
11
19.943
21
197.744
0
LINE
8
1
10
19.943
20
197.744
11
-6.006
21
193.194
0
LINE
8
1
10
-6.006
20
193.194
11
-10.345
21
187.594
0
LINE
8
1
10
-10.345
20
187.594
11
-10.486
21
180.316
0
LINE
8
1
10
-10.486
20
180.316
11
-10.982
21
171.726
0
LINE
8
1
10
15.276
20
194.994
11
27.178
21
193.69
0
LINE
8
1
10
27.178
20
193.69
11
37.572
21
191.146
0
LINE
8
1
10
37.572
20
191.146
11
44.292
21
188.427
0
LINE
8
1
10
44.292
20
188.427
11
46.918
21
186.277
0
LINE
8
1
10
46.918
20
186.277
11
47.768
21
183.98
0
LINE
8
1
10
47.768
20
183.98
11
46.524
21
181.738
0
LINE
8
1
10
46.524
20
181.738
11
42.87
21
179.754
0
LINE
8
1
10
42.87
20
179.754
11
33.756
21
178.095
0
LINE
8
1
10
33.756
20
178.095
11
20.539
21
177.856
0
LINE
8
1
10
20.539
20
177.856
11
6.588
21
179.728
0
LINE
8
1
10
6.588
20
179.728
11
-4.726
21
184.402
0
LINE
8
1
10
-4.726
20
184.402
11
-6.754
21
187.053
0
LINE
8
1
10
-6.754
20
187.053
11
-5.709
21
189.646
0
LINE
8
1
10
-5.709
20
189.646
11
-1.983
21
192.014
0
LINE
8
1
10
-1.983
20
192.014
11
4.032
21
193.993
0
LINE
8
1
10
73.838
20
176.213
11
79.156
21
183.161
0
LINE
8
1
10
79.156
20
183.161
11
76.79
21
184.955
0
LINE
8
1
10
76.79
20
184.955
11
67.924
21
171.361
0
LINE
8
1
10
67.924
20
171.361
11
67.924
21
171.361
0
LINE
8
1
10
67.924
20
171.361
11
69.315
21
170.38
0
LINE
8
1
10
-69.56
20
235.937
11
-69.614
21
238.093
0
LINE
8
1
10
-69.614
20
238.093
11
-68.273
21
240.615
0
LINE
8
1
10
-68.273
20
240.615
11
-65.625
21
244.096
0
LINE
8
1
10
-65.625
20
244.096
11
-65.544
21
244.198
0
LINE
8
1
10
-65.544
20
244.198
11
-63.007
21
248.609
0
LINE
8
1
10
-63.007
20
248.609
11
-62.541
21
252.601
0
LINE
8
1
10
-62.541
20
252.601
11
-67.08
21
259.274
0
LINE
8
1
10
-67.08
20
259.274
11
-80.369
21
261.911
0
LINE
8
1
10
-80.369
20
261.911
11
-85.889
21
258.38
0
LINE
8
1
10
-85.889
20
258.38
11
-88.455
21
251.198
0
LINE
8
1
10
-88.455
20
251.198
11
-85.036
21
243.145
0
LINE
8
1
10
-85.036
20
243.145
11
-78.32
21
242.689
0
LINE
8
1
10
-78.32
20
242.689
11
-74.902
21
247.368
0
LINE
8
1
10
-74.902
20
247.368
11
-77.238
21
251.878
0
LINE
8
1
10
-77.238
20
251.878
11
-78.387
21
252.459
0
LINE
8
1
10
-78.387
20
252.459
11
-78.683
21
253.035
0
LINE
8
1
10
-78.683
20
253.035
11
-76.815
21
253.865
0
LINE
8
1
10
-76.815
20
253.865
11
-73.105
21
251.605
0
LINE
8
1
10
-73.105
20
251.605
11
-72.804
21
245.766
0
LINE
8
1
10
-72.804
20
245.766
11
-82.481
21
239.397
0
LINE
8
1
10
-82.481
20
239.397
11
-88.041
21
242.223
0
LINE
8
1
10
-88.041
20
242.223
11
-91.405
21
249.435
0
LINE
8
1
10
-91.405
20
249.435
11
-89.194
21
259.637
0
LINE
8
1
10
-89.194
20
259.637
11
-84.423
21
263.043
0
LINE
8
1
10
-84.423
20
263.043
11
-76.703
21
264.621
0
LINE
8
1
10
-76.703
20
264.621
11
-61.839
21
257.373
0
LINE
8
1
10
-61.839
20
257.373
11
-60.061
21
249.727
0
LINE
8
1
10
-60.061
20
249.727
11
-63.603
21
241.359
0
LINE
8
1
10
-63.603
20
241.359
11
-63.744
21
241.183
0
LINE
8
1
10
-63.744
20
241.183
11
-65.704
21
238.091
0
LINE
8
1
10
-65.704
20
238.091
11
-64.474
21
235.13
0
LINE
8
1
10
-64.474
20
235.13
11
-63.065
21
233.406
0
LINE
8
1
10
-63.065
20
233.406
11
-45.651
21
213.18
0
LINE
8
1
10
-45.651
20
213.18
11
-45.651
21
213.178
0
LINE
8
1
10
-45.651
20
213.178
11
-47.119
21
210.243
0
LINE
8
1
10
-47.119
20
210.243
11
-58.953
21
223.567
0
LINE
8
1
10
-58.953
20
223.567
11
-68.025
21
233.555
0
LINE
8
1
10
-14.955
20
235.287
11
-5.17
21
247.6
0
LINE
8
1
10
-5.17
20
247.6
11
1.451
21
255.942
0
LINE
8
1
10
1.451
20
255.942
11
0.944
21
257.127
0
LINE
8
1
10
0.944
20
257.127
11
-0.124
21
257.777
0
LINE
8
1
10
-0.124
20
257.777
11
-7.113
21
251.952
0
LINE
8
1
10
-7.113
20
251.952
11
-14.135
21
243.108
0
LINE
8
1
10
-14.135
20
243.108
11
-24.483
21
222.863
0
LINE
8
1
10
-24.483
20
222.863
11
-24.478
21
222.201
0
LINE
8
1
10
-24.478
20
222.201
11
-24.02
21
222.521
0
LINE
8
1
10
117.112
20
241.268
11
118.691
21
243.848
0
LINE
8
1
10
118.691
20
243.848
11
121.437
21
244.046
0
LINE
8
1
10
121.437
20
244.046
11
125.276
21
241.961
0
LINE
8
1
10
125.276
20
241.961
11
132.015
21
227.863
0
LINE
8
1
10
132.015
20
227.863
11
129.078
21
228.107
0
LINE
8
1
10
129.078
20
228.107
11
128.644
21
232.826
0
LINE
8
1
10
128.644
20
232.826
11
126.406
21
237.248
0
LINE
8
1
10
126.406
20
237.248
11
122.865
21
239.813
0
LINE
8
1
10
122.865
20
239.813
11
120.49
21
239.259
0
LINE
8
1
10
120.49
20
239.259
11
119.485
21
236.477
0
LINE
8
1
10
119.485
20
236.477
11
120.052
21
232.36
0
LINE
8
1
10
120.052
20
232.36
11
127.039
21
224.926
0
LINE
8
1
10
127.039
20
224.926
11
134.105
21
225.331
0
LINE
8
1
10
134.105
20
225.331
11
137.379
21
228.953
0
LINE
8
1
10
137.379
20
228.953
11
139.137
21
236.534
0
LINE
8
1
10
139.137
20
236.534
11
141.446
21
236.953
0
LINE
8
1
10
141.446
20
236.953
11
140.15
21
226.982
0
LINE
8
1
10
140.15
20
226.982
11
132.157
21
221.418
0
LINE
8
1
10
132.157
20
221.418
11
123.082
21
223.511
0
LINE
8
1
10
123.082
20
223.511
11
118.844
21
228.279
0
LINE
8
1
10
118.844
20
228.279
11
116.78
21
236.203
0
LINE
8
1
10
111.092
20
222.535
11
115.327
21
219.368
0
LINE
8
1
10
115.327
20
219.368
11
120.001
21
215.935
0
LINE
8
1
10
120.001
20
215.935
11
125.936
21
216.831
0
LINE
8
1
10
125.936
20
216.831
11
128.461
21
217.426
0
LINE
8
1
10
128.461
20
217.426
11
129.872
21
217.064
0
LINE
8
1
10
129.872
20
217.064
11
129.872
21
217.064
0
LINE
8
1
10
129.872
20
217.064
11
127.942
21
213.424
0
LINE
8
1
10
127.942
20
213.424
11
125.079
21
212.252
0
LINE
8
1
10
125.079
20
212.252
11
121.586
21
212.993
0
LINE
8
1
10
121.586
20
212.993
11
117.766
21
215.091
0
LINE
8
1
10
117.766
20
215.091
11
113.029
21
217.902
0
LINE
8
1
10
113.029
20
217.902
11
109.421
21
218.841
0
LINE
8
1
10
109.421
20
218.841
11
106.145
21
217.815
0
LINE
8
1
10
106.145
20
217.815
11
102.406
21
214.733
0
LINE
8
1
10
102.406
20
214.733
11
81.853
21
191.802
0
LINE
8
1
10
81.853
20
191.802
11
81.853
21
191.802
0
LINE
8
1
10
81.853
20
191.802
11
81.022
21
192.242
0
LINE
8
1
10
81.022
20
192.242
11
80.562
21
193.205
0
LINE
8
1
10
80.562
20
193.205
11
92.704
21
208.088
0
LINE
8
1
10
92.704
20
208.088
11
100.287
21
216.402
0
LINE
8
1
10
100.287
20
216.402
11
106.102
21
221.76
0
LINE
8
1
10
134.054
20
236.673
11
134.14
21
236.641
0
LINE
8
1
10
134.14
20
236.641
11
136.094
21
236.02
0
LINE
8
1
10
136.094
20
236.02
11
135.523
21
231.044
0
LINE
8
1
10
123.532
20
235.204
11
124.715
21
234.731
0
LINE
8
1
10
124.715
20
234.731
11
125.674
21
233.237
0
LINE
8
1
10
125.674
20
233.237
11
126.142
21
229.576
0
LINE
8
1
10
-78.91
20
245.838
11
-82.459
21
246.166
0
LINE
8
1
10
-82.459
20
246.166
11
-85.075
21
250.945
0
LINE
8
1
10
-85.075
20
250.945
11
-84.621
21
255.618
0
LINE
8
1
10
-84.621
20
255.618
11
-81.095
21
258.918
0
LINE
8
1
10
-81.095
20
258.918
11
-74.496
21
259.581
0
LINE
8
1
10
-74.496
20
259.581
11
-66.028
21
253.704
0
LINE
8
1
10
-66.028
20
253.704
11
-65.943
21
249.136
0
LINE
8
1
10
-65.943
20
249.136
11
-69.47
21
244.83
0
LINE
8
1
10
-69.47
20
244.83
11
-69.94
21
253.113
0
LINE
8
1
10
-69.94
20
253.113
11
-76.181
21
257.245
0
LINE
8
1
10
-76.181
20
257.245
11
-80.433
21
256.299
0
LINE
8
1
10
-80.433
20
256.299
11
-82.136
21
254.067
0
LINE
8
1
10
-82.136
20
254.067
11
-81.622
21
251.303
0
LINE
8
1
10
-81.622
20
251.303
11
-79.225
21
248.762
0
LINE
8
1
10
139.883
20
248.867
11
140.43
21
246.66
0
LINE
8
1
10
140.43
20
246.66
11
139.412
21
245.535
0
LINE
8
1
10
139.412
20
245.535
11
135.036
21
249.748
0
LINE
8
1
10
135.036
20
249.748
11
134.858
21
251.525
0
LINE
8
1
10
134.858
20
251.525
11
134.016
21
252.242
0
LINE
8
1
10
134.016
20
252.242
11
132.847
21
251.808
0
LINE
8
1
10
132.847
20
251.808
11
131.689
21
250.132
0
LINE
8
1
10
131.689
20
250.132
11
131.592
21
245.593
0
LINE
8
1
10
131.592
20
245.593
11
134.91
21
242.613
0
LINE
8
1
10
134.91
20
242.613
11
143.559
21
243.301
0
LINE
8
1
10
143.559
20
243.301
11
146.842
21
246.07
0
LINE
8
1
10
146.842
20
246.07
11
148.167
21
249.737
0
LINE
8
1
10
148.167
20
249.737
11
147.457
21
251.736
0
LINE
8
1
10
147.457
20
251.736
11
145.882
21
253.347
0
LINE
8
1
10
145.882
20
253.347
11
144.268
21
255.023
0
LINE
8
1
10
144.268
20
255.023
11
143.232
21
257.535
0
LINE
8
1
10
143.232
20
257.535
11
143.721
21
259.261
0
LINE
8
1
10
143.721
20
259.261
11
145.375
21
259.732
0
LINE
8
1
10
145.375
20
259.732
11
147.833
21
258.475
0
LINE
8
1
10
147.833
20
258.475
11
150.546
21
250.605
0
LINE
8
1
10
150.546
20
250.605
11
148.298
21
244.886
0
LINE
8
1
10
148.298
20
244.886
11
140.415
21
240.158
0
LINE
8
1
10
140.415
20
240.158
11
135.386
21
239.701
0
LINE
8
1
10
135.386
20
239.701
11
131.714
21
241.538
0
LINE
8
1
10
131.714
20
241.538
11
128.195
21
249.298
0
LINE
8
1
10
128.195
20
249.298
11
128.534
21
253.796
0
LINE
8
1
10
128.534
20
253.796
11
130.481
21
256.078
0
LINE
8
1
10
130.481
20
256.078
11
133.423
21
256.05
0
LINE
8
1
10
133.423
20
256.05
11
136.747
21
253.616
0
LINE
8
1
10
142.519
20
251.633
11
144.333
21
250.132
0
LINE
8
1
10
144.333
20
250.132
11
143.762
21
247.196
0
LINE
8
1
10
143.762
20
247.196
11
141.722
21
252.171
0
ENDSEC
0
EOF
