  0
SECTION
  2
HEADER
  9
$ACADVER
  1
AC1021
  9
$ACADMAINTVER
 70
    25
  9
$DWGCODEPAGE
  3
ANSI_1251
  9
$INSBASE
 10
0.0
 20
0.0
 30
0.0
  9
$EXTMIN
 10
-13.94435
 20
-9.07877
 30
0.0
  9
$EXTMAX
 10
14.39015
 20
12.30026
 30
0.0
  9
$LIMMIN
 10
0.0
 20
0.0
  9
$LIMMAX
 10
12.0
 20
9.0
  9
$ORTHOMODE
 70
     0
  9
$REGENMODE
 70
     1
  9
$FILLMODE
 70
     1
  9
$QTEXTMODE
 70
     0
  9
$MIRRTEXT
 70
     1
  9
$LTSCALE
 40
1.0
  9
$ATTMODE
 70
     1
  9
$TEXTSIZE
 40
0.2
  9
$TRACEWID
 40
0.05
  9
$TEXTSTYLE
  7
Standard
  9
$CLAYER
  8
0
  9
$CELTYPE
  6
ByLayer
  9
$CECOLOR
 62
   256
  9
$CELTSCALE
 40
1.0
  9
$DISPSILH
 70
     0
  9
$DIMSCALE
 40
1.0
  9
$DIMASZ
 40
0.18
  9
$DIMEXO
 40
0.0625
  9
$DIMDLI
 40
0.38
  9
$DIMRND
 40
0.0
  9
$DIMDLE
 40
0.0
  9
$DIMEXE
 40
0.18
  9
$DIMTP
 40
0.0
  9
$DIMTM
 40
0.0
  9
$DIMTXT
 40
0.18
  9
$DIMCEN
 40
0.09
  9
$DIMTSZ
 40
0.0
  9
$DIMTOL
 70
     0
  9
$DIMLIM
 70
     0
  9
$DIMTIH
 70
     1
  9
$DIMTOH
 70
     1
  9
$DIMSE1
 70
     0
  9
$DIMSE2
 70
     0
  9
$DIMTAD
 70
     0
  9
$DIMZIN
 70
     0
  9
$DIMBLK
  1

  9
$DIMASO
 70
     1
  9
$DIMSHO
 70
     1
  9
$DIMPOST
  1

  9
$DIMAPOST
  1

  9
$DIMALT
 70
     0
  9
$DIMALTD
 70
     2
  9
$DIMALTF
 40
25.4
  9
$DIMLFAC
 40
1.0
  9
$DIMTOFL
 70
     0
  9
$DIMTVP
 40
0.0
  9
$DIMTIX
 70
     0
  9
$DIMSOXD
 70
     0
  9
$DIMSAH
 70
     0
  9
$DIMBLK1
  1

  9
$DIMBLK2
  1

  9
$DIMSTYLE
  2
Standard
  9
$DIMCLRD
 70
     0
  9
$DIMCLRE
 70
     0
  9
$DIMCLRT
 70
     0
  9
$DIMTFAC
 40
1.0
  9
$DIMGAP
 40
0.09
  9
$DIMJUST
 70
     0
  9
$DIMSD1
 70
     0
  9
$DIMSD2
 70
     0
  9
$DIMTOLJ
 70
     1
  9
$DIMTZIN
 70
     0
  9
$DIMALTZ
 70
     0
  9
$DIMALTTZ
 70
     0
  9
$DIMUPT
 70
     0
  9
$DIMDEC
 70
     4
  9
$DIMTDEC
 70
     4
  9
$DIMALTU
 70
     2
  9
$DIMALTTD
 70
     2
  9
$DIMTXSTY
  7
Standard
  9
$DIMAUNIT
 70
     0
  9
$DIMADEC
 70
     0
  9
$DIMALTRND
 40
0.0
  9
$DIMAZIN
 70
     0
  9
$DIMDSEP
 70
    46
  9
$DIMATFIT
 70
     3
  9
$DIMFRAC
 70
     0
  9
$DIMLDRBLK
  1

  9
$DIMLUNIT
 70
     2
  9
$DIMLWD
 70
    -2
  9
$DIMLWE
 70
    -2
  9
$DIMTMOVE
 70
     0
  9
$DIMFXL
 40
1.0
  9
$DIMFXLON
 70
     0
  9
$DIMJOGANG
 40
0.7853981633974483
  9
$DIMTFILL
 70
     0
  9
$DIMTFILLCLR
 70
     0
  9
$DIMARCSYM
 70
     0
  9
$DIMLTYPE
  6

  9
$DIMLTEX1
  6

  9
$DIMLTEX2
  6

  9
$LUNITS
 70
     2
  9
$LUPREC
 70
     4
  9
$SKETCHINC
 40
0.1
  9
$FILLETRAD
 40
0.5
  9
$AUNITS
 70
     0
  9
$AUPREC
 70
     0
  9
$MENU
  1
.
  9
$ELEVATION
 40
0.0
  9
$PELEVATION
 40
0.0
  9
$THICKNESS
 40
0.0
  9
$LIMCHECK
 70
     0
  9
$CHAMFERA
 40
0.5
  9
$CHAMFERB
 40
0.5
  9
$CHAMFERC
 40
1.0
  9
$CHAMFERD
 40
0.0
  9
$SKPOLY
 70
     0
  9
$TDCREATE
 40
2456334.642076366
  9
$TDUCREATE
 40
2456334.475409699
  9
$TDUPDATE
 40
2456334.642076377
  9
$TDUUPDATE
 40
2456334.475409711
  9
$TDINDWG
 40
0.0000000116
  9
$TDUSRTIMER
 40
0.0000000116
  9
$USRTIMER
 70
     1
  9
$ANGBASE
 50
0.0
  9
$ANGDIR
 70
     0
  9
$PDMODE
 70
     0
  9
$PDSIZE
 40
0.0
  9
$PLINEWID
 40
0.0
  9
$SPLFRAME
 70
     0
  9
$SPLINETYPE
 70
     6
  9
$SPLINESEGS
 70
     8
  9
$HANDSEED
  5
79
  9
$SURFTAB1
 70
     6
  9
$SURFTAB2
 70
     6
  9
$SURFTYPE
 70
     6
  9
$SURFU
 70
     6
  9
$SURFV
 70
     6
  9
$UCSBASE
  2

  9
$UCSNAME
  2

  9
$UCSORG
 10
0.0
 20
0.0
 30
0.0
  9
$UCSXDIR
 10
1.0
 20
0.0
 30
0.0
  9
$UCSYDIR
 10
0.0
 20
1.0
 30
0.0
  9
$UCSORTHOREF
  2

  9
$UCSORTHOVIEW
 70
     0
  9
$UCSORGTOP
 10
0.0
 20
0.0
 30
0.0
  9
$UCSORGBOTTOM
 10
0.0
 20
0.0
 30
0.0
  9
$UCSORGLEFT
 10
0.0
 20
0.0
 30
0.0
  9
$UCSORGRIGHT
 10
0.0
 20
0.0
 30
0.0
  9
$UCSORGFRONT
 10
0.0
 20
0.0
 30
0.0
  9
$UCSORGBACK
 10
0.0
 20
0.0
 30
0.0
  9
$PUCSBASE
  2

  9
$PUCSNAME
  2

  9
$PUCSORG
 10
0.0
 20
0.0
 30
0.0
  9
$PUCSXDIR
 10
1.0
 20
0.0
 30
0.0
  9
$PUCSYDIR
 10
0.0
 20
1.0
 30
0.0
  9
$PUCSORTHOREF
  2

  9
$PUCSORTHOVIEW
 70
     0
  9
$PUCSORGTOP
 10
0.0
 20
0.0
 30
0.0
  9
$PUCSORGBOTTOM
 10
0.0
 20
0.0
 30
0.0
  9
$PUCSORGLEFT
 10
0.0
 20
0.0
 30
0.0
  9
$PUCSORGRIGHT
 10
0.0
 20
0.0
 30
0.0
  9
$PUCSORGFRONT
 10
0.0
 20
0.0
 30
0.0
  9
$PUCSORGBACK
 10
0.0
 20
0.0
 30
0.0
  9
$USERI1
 70
     0
  9
$USERI2
 70
     0
  9
$USERI3
 70
     0
  9
$USERI4
 70
     0
  9
$USERI5
 70
     0
  9
$USERR1
 40
0.0
  9
$USERR2
 40
0.0
  9
$USERR3
 40
0.0
  9
$USERR4
 40
0.0
  9
$USERR5
 40
0.0
  9
$WORLDVIEW
 70
     1
  9
$SHADEDGE
 70
     3
  9
$SHADEDIF
 70
    70
  9
$TILEMODE
 70
     1
  9
$MAXACTVP
 70
    64
  9
$PINSBASE
 10
0.0
 20
0.0
 30
0.0
  9
$PLIMCHECK
 70
     0
  9
$PEXTMIN
 10
1.000000000000000E+20
 20
1.000000000000000E+20
 30
1.000000000000000E+20
  9
$PEXTMAX
 10
-1.000000000000000E+20
 20
-1.000000000000000E+20
 30
-1.000000000000000E+20
  9
$PLIMMIN
 10
0.0
 20
0.0
  9
$PLIMMAX
 10
12.0
 20
9.0
  9
$UNITMODE
 70
     0
  9
$VISRETAIN
 70
     1
  9
$PLINEGEN
 70
     0
  9
$PSLTSCALE
 70
     1
  9
$TREEDEPTH
 70
  3020
  9
$CMLSTYLE
  2
Standard
  9
$CMLJUST
 70
     0
  9
$CMLSCALE
 40
1.0
  9
$PROXYGRAPHICS
 70
     1
  9
$MEASUREMENT
 70
     0
  9
$CELWEIGHT
370
    -1
  9
$ENDCAPS
280
     0
  9
$JOINSTYLE
280
     0
  9
$LWDISPLAY
290
     0
  9
$INSUNITS
 70
     5
  9
$HYPERLINKBASE
  1

  9
$STYLESHEET
  1

  9
$XEDIT
290
     1
  9
$CEPSNTYPE
380
     0
  9
$PSTYLEMODE
290
     1
  9
$FINGERPRINTGUID
  2
{D9477C4B-B309-41E6-A768-E4B1E712CFDD}
  9
$VERSIONGUID
  2
{FAEB1C32-E019-11D5-929B-00C0DF256EC4}
  9
$EXTNAMES
290
     1
  9
$PSVPSCALE
 40
0.0
  9
$OLESTARTUP
290
     0
  9
$SORTENTS
280
   127
  9
$INDEXCTL
280
     0
  9
$HIDETEXT
280
     1
  9
$XCLIPFRAME
290
     0
  9
$HALOGAP
280
     0
  9
$OBSCOLOR
 70
   257
  9
$OBSLTYPE
280
     0
  9
$INTERSECTIONDISPLAY
280
     0
  9
$INTERSECTIONCOLOR
 70
   257
  9
$DIMASSOC
280
     2
  9
$PROJECTNAME
  1

  9
$CAMERADISPLAY
290
     0
  9
$LENSLENGTH
 40
50.0
  9
$CAMERAHEIGHT
 40
0.0
  9
$STEPSPERSEC
 40
2.0
  9
$STEPSIZE
 40
6.0
  9
$3DDWFPREC
 40
2.0
  9
$PSOLWIDTH
 40
0.25
  9
$PSOLHEIGHT
 40
4.0
  9
$LOFTANG1
 40
1.570796326794897
  9
$LOFTANG2
 40
1.570796326794897
  9
$LOFTMAG1
 40
0.0
  9
$LOFTMAG2
 40
0.0
  9
$LOFTPARAM
 70
     7
  9
$LOFTNORMALS
280
     1
  9
$LATITUDE
 40
37.795
  9
$LONGITUDE
 40
-122.394
  9
$NORTHDIRECTION
 40
0.0
  9
$TIMEZONE
 70
 -8000
  9
$LIGHTGLYPHDISPLAY
280
     1
  9
$TILEMODELIGHTSYNCH
280
     1
  9
$SOLIDHIST
280
     1
  9
$SHOWHIST
280
     1
  9
$DWFFRAME
280
     2
  9
$DGNFRAME
280
     2
  9
$REALWORLDSCALE
290
     1
  9
$INTERFERECOLOR
 62
   256
  9
$CSHADOW
280
     0
  9
$SHADOWPLANELOCATION
 40
0.0
  0
ENDSEC
  0
SECTION
  2
CLASSES
  0
CLASS
  1
ACDBDICTIONARYWDFLT
  2
AcDbDictionaryWithDefault
  3
ObjectDBX Classes
 90
        0
 91
        3
280
     0
281
     0
  0
CLASS
  1
VISUALSTYLE
  2
AcDbVisualStyle
  3
ObjectDBX Classes
 90
     4095
 91
        3
280
     0
281
     0
  0
CLASS
  1
SCALE
  2
AcDbScale
  3
ObjectDBX Classes
 90
     1153
 91
        3
280
     0
281
     0
  0
ENDSEC
  0
SECTION
  2
TABLES
  0
TABLE
  2
VPORT
  5
8
330
0
100
AcDbSymbolTable
 70
     1
  0
VPORT
  5
29
330
8
100
AcDbSymbolTableRecord
100
AcDbViewportTableRecord
  2
*Active
 70
     0
 10
0.0
 20
0.0
 11
1.0
 21
1.0
 12
10.42990654205607
 22
4.5
 13
0.0
 23
0.0
 14
0.5
 24
0.5
 15
0.5
 25
0.5
 16
0.0
 26
0.0
 36
1.0
 17
0.0
 27
0.0
 37
0.0
 40
9.0
 41
1.972972972850329
 42
50.0
 43
0.0
 44
0.0
 50
0.0
 51
0.0
 71
     0
 72
   100
 73
     1
 74
     3
 75
     0
 76
     0
 77
     0
 78
     0
281
     0
 65
     1
110
0.0
120
0.0
130
0.0
111
1.0
121
0.0
131
0.0
112
0.0
122
1.0
132
0.0
 79
     0
146
0.0
 60
     3
 61
     5
292
     1
282
     1
141
0.0
142
0.0
 63
   256
  0
ENDTAB
  0
TABLE
  2
LTYPE
  5
5
330
0
100
AcDbSymbolTable
 70
     1
  0
LTYPE
  5
14
330
5
100
AcDbSymbolTableRecord
100
AcDbLinetypeTableRecord
  2
ByBlock
 70
     0
  3

 72
    65
 73
     0
 40
0.0
  0
LTYPE
  5
15
330
5
100
AcDbSymbolTableRecord
100
AcDbLinetypeTableRecord
  2
ByLayer
 70
     0
  3

 72
    65
 73
     0
 40
0.0
  0
LTYPE
  5
16
330
5
100
AcDbSymbolTableRecord
100
AcDbLinetypeTableRecord
  2
Continuous
 70
     0
  3
Solid line
 72
    65
 73
     0
 40
0.0
  0
ENDTAB
  0
TABLE
  2
LAYER
  5
2
330
0
100
AcDbSymbolTable
 70
     2
  0
LAYER
  5
10
330
2
100
AcDbSymbolTableRecord
100
AcDbLayerTableRecord
  2
0
 70
     0
 62
     7
  6
Continuous
370
    -3
390
F
347
0
  0
LAYER
  5
5E
330
2
100
AcDbSymbolTableRecord
100
AcDbLayerTableRecord
  2
layer 1
 70
     0
 62
     7
  6
Continuous
370
    -3
390
F
347
0
  0
ENDTAB
  0
TABLE
  2
STYLE
  5
3
330
0
100
AcDbSymbolTable
 70
     1
  0
STYLE
  5
11
330
3
100
AcDbSymbolTableRecord
100
AcDbTextStyleTableRecord
  2
Standard
 70
     0
 40
0.0
 41
1.0
 50
0.0
 71
     0
 42
0.2
  3
txt
  4

  0
ENDTAB
  0
TABLE
  2
VIEW
  5
6
330
0
100
AcDbSymbolTable
 70
     0
  0
ENDTAB
  0
TABLE
  2
UCS
  5
7
330
0
100
AcDbSymbolTable
 70
     0
  0
ENDTAB
  0
TABLE
  2
APPID
  5
9
330
0
100
AcDbSymbolTable
 70
     2
  0
APPID
  5
12
330
9
100
AcDbSymbolTableRecord
100
AcDbRegAppTableRecord
  2
ACAD
 70
     0
  0
APPID
  5
5D
330
9
100
AcDbSymbolTableRecord
100
AcDbRegAppTableRecord
  2
ODA
 70
     0
  0
ENDTAB
  0
TABLE
  2
DIMSTYLE
  5
A
330
0
100
AcDbSymbolTable
 70
     1
100
AcDbDimStyleTable
  0
DIMSTYLE
105
27
330
A
100
AcDbSymbolTableRecord
100
AcDbDimStyleTableRecord
  2
Standard
 70
     0
340
11
  0
ENDTAB
  0
TABLE
  2
BLOCK_RECORD
  5
1
330
0
100
AcDbSymbolTable
 70
     1
  0
BLOCK_RECORD
  5
1F
330
1
100
AcDbSymbolTableRecord
100
AcDbBlockTableRecord
  2
*Model_Space
340
22
 70
     0
280
     1
281
     0
  0
BLOCK_RECORD
  5
1B
330
1
100
AcDbSymbolTableRecord
100
AcDbBlockTableRecord
  2
*Paper_Space
340
1E
 70
     0
280
     1
281
     0
  0
BLOCK_RECORD
  5
23
330
1
100
AcDbSymbolTableRecord
100
AcDbBlockTableRecord
  2
*Paper_Space0
340
26
 70
     0
280
     1
281
     0
  0
ENDTAB
  0
ENDSEC
  0
SECTION
  2
BLOCKS
  0
BLOCK
  5
20
330
1F
100
AcDbEntity
  8
0
100
AcDbBlockBegin
  2
*Model_Space
 70
     0
 10
0.0
 20
0.0
 30
0.0
  3
*Model_Space
  1

  0
ENDBLK
  5
21
330
1F
100
AcDbEntity
  8
0
100
AcDbBlockEnd
  0
BLOCK
  5
1C
330
1B
100
AcDbEntity
 67
     1
  8
0
100
AcDbBlockBegin
  2
*Paper_Space
 70
     0
 10
0.0
 20
0.0
 30
0.0
  3
*Paper_Space
  1

  0
ENDBLK
  5
1D
330
1B
100
AcDbEntity
 67
     1
  8
0
100
AcDbBlockEnd
  0
BLOCK
  5
24
330
23
100
AcDbEntity
  8
0
100
AcDbBlockBegin
  2
*Paper_Space0
 70
     0
 10
0.0
 20
0.0
 30
0.0
  3
*Paper_Space0
  1

  0
ENDBLK
  5
25
330
23
100
AcDbEntity
  8
0
100
AcDbBlockEnd
  0
ENDSEC
  0
SECTION
  2
ENTITIES
  0
SPLINE
  5
5F
330
1F
100
AcDbEntity
  8
layer 1
 62
     1
100
AcDbSpline
210
0.0
220
0.0
230
1.0
 70
    11
 71
     3
 72
    24
 73
    20
 74
     0
 42
0.0000000001
 43
0.0000000001
 40
0.0
 40
0.0
 40
0.0
 40
0.0
 40
0.2
 40
0.2
 40
0.2
 40
0.2
 40
0.4
 40
0.4
 40
0.4
 40
0.4
 40
0.6000000000000001
 40
0.6000000000000001
 40
0.6000000000000001
 40
0.6000000000000001
 40
0.8
 40
0.8
 40
0.8
 40
0.8
 40
1.0
 40
1.0
 40
1.0
 40
1.0
 10
0.30032
 20
-2.38459
 30
0.0
 10
0.9951
 20
-2.38459
 30
0.0
 10
1.61226
 20
-2.30205
 30
0.0
 10
2.24211
 20
-2.24452
 30
0.0
 10
2.24211
 20
-2.24452
 30
0.0
 10
2.87848
 20
-2.18639
 30
0.0
 10
3.48656
 20
-1.96905
 30
0.0
 10
4.00533
 20
-1.92588
 30
0.0
 10
4.00533
 20
-1.92588
 30
0.0
 10
4.00533
 20
-1.92588
 30
0.0
 10
0.2402
 20
-6.20465
 30
0.0
 10
0.2402
 20
-6.20465
 30
0.0
 10
0.2402
 20
-6.20465
 30
0.0
 10
0.2402
 20
-6.20465
 30
0.0
 10
-3.45056
 20
-2.04107
 30
0.0
 10
-3.45056
 20
-2.04107
 30
0.0
 10
-3.45056
 20
-2.04107
 30
0.0
 10
-2.44778
 20
-2.26289
 30
0.0
 10
-0.91025
 20
-2.38459
 30
0.0
 10
0.30032
 20
-2.38459
 30
0.0
  0
SPLINE
  5
60
330
1F
100
AcDbEntity
  8
layer 1
 62
     1
100
AcDbSpline
210
0.0
220
0.0
230
1.0
 70
    11
 71
     3
 72
    76
 73
    72
 74
     0
 42
0.0000000001
 43
0.0000000001
 40
0.0
 40
0.0
 40
0.0
 40
0.0
 40
0.0555555555555556
 40
0.0555555555555556
 40
0.0555555555555556
 40
0.0555555555555556
 40
0.1111111111111111
 40
0.1111111111111111
 40
0.1111111111111111
 40
0.1111111111111111
 40
0.1666666666666667
 40
0.1666666666666667
 40
0.1666666666666667
 40
0.1666666666666667
 40
0.2222222222222222
 40
0.2222222222222222
 40
0.2222222222222222
 40
0.2222222222222222
 40
0.2777777777777778
 40
0.2777777777777778
 40
0.2777777777777778
 40
0.2777777777777778
 40
0.3333333333333334
 40
0.3333333333333334
 40
0.3333333333333334
 40
0.3333333333333334
 40
0.388888888888889
 40
0.388888888888889
 40
0.388888888888889
 40
0.388888888888889
 40
0.4444444444444445
 40
0.4444444444444445
 40
0.4444444444444445
 40
0.4444444444444445
 40
0.5000000000000001
 40
0.5000000000000001
 40
0.5000000000000001
 40
0.5000000000000001
 40
0.5555555555555557
 40
0.5555555555555557
 40
0.5555555555555557
 40
0.5555555555555557
 40
0.6111111111111113
 40
0.6111111111111113
 40
0.6111111111111113
 40
0.6111111111111113
 40
0.6666666666666669
 40
0.6666666666666669
 40
0.6666666666666669
 40
0.6666666666666669
 40
0.7222222222222224
 40
0.7222222222222224
 40
0.7222222222222224
 40
0.7222222222222224
 40
0.777777777777778
 40
0.777777777777778
 40
0.777777777777778
 40
0.777777777777778
 40
0.8333333333333336
 40
0.8333333333333336
 40
0.8333333333333336
 40
0.8333333333333336
 40
0.8888888888888892
 40
0.8888888888888892
 40
0.8888888888888892
 40
0.8888888888888892
 40
0.9444444444444448
 40
0.9444444444444448
 40
0.9444444444444448
 40
0.9444444444444448
 40
1.0
 40
1.0
 40
1.0
 40
1.0
 10
-7.96479
 20
3.07745
 30
0.0
 10
-7.79294
 20
3.04659
 30
0.0
 10
-7.41213
 20
2.88875
 30
0.0
 10
-7.20051
 20
2.81747
 30
0.0
 10
-7.20051
 20
2.81747
 30
0.0
 10
-7.0102
 20
2.75337
 30
0.0
 10
-6.57697
 20
2.66869
 30
0.0
 10
-6.39649
 20
2.63349
 30
0.0
 10
-6.39649
 20
2.63349
 30
0.0
 10
-5.80487
 20
2.5181
 30
0.0
 10
-5.25677
 20
2.49866
 30
0.0
 10
-4.60413
 20
2.44984
 30
0.0
 10
-4.60413
 20
2.44984
 30
0.0
 10
-4.02923
 20
2.40683
 30
0.0
 10
-3.30944
 20
2.35117
 30
0.0
 10
-2.73454
 20
2.30814
 30
0.0
 10
-2.73454
 20
2.30814
 30
0.0
 10
-2.07995
 20
2.25915
 30
0.0
 10
-1.42153
 20
2.33968
 30
0.0
 10
-0.82133
 20
2.24535
 30
0.0
 10
-0.82133
 20
2.24535
 30
0.0
 10
-0.38258
 20
2.17638
 30
0.0
 10
0.64049
 20
2.17537
 30
0.0
 10
1.11324
 20
2.16862
 30
0.0
 10
1.11324
 20
2.16862
 30
0.0
 10
1.65814
 20
2.16084
 30
0.0
 10
2.42614
 20
2.08736
 30
0.0
 10
2.94962
 20
2.029
 30
0.0
 10
2.94962
 20
2.029
 30
0.0
 10
3.80873
 20
1.93322
 30
0.0
 10
5.76962
 20
1.70794
 30
0.0
 10
5.76962
 20
0.89699
 30
0.0
 10
5.76962
 20
0.89699
 30
0.0
 10
5.76962
 20
0.89699
 30
0.0
 10
5.76962
 20
0.79113
 30
0.0
 10
5.76962
 20
0.79113
 30
0.0
 10
5.76962
 20
0.79113
 30
0.0
 10
5.76962
 20
-0.61004
 30
0.0
 10
1.71916
 20
-0.8673
 30
0.0
 10
0.05332
 20
-0.8673
 30
0.0
 10
0.05332
 20
-0.8673
 30
0.0
 10
0.05332
 20
-0.8673
 30
0.0
 10
-0.01725
 20
-0.8673
 30
0.0
 10
-0.01725
 20
-0.8673
 30
0.0
 10
-0.01725
 20
-0.8673
 30
0.0
 10
-0.1085
 20
-0.8673
 30
0.0
 10
-0.47613
 20
-0.33312
 30
0.0
 10
-0.61701
 20
-0.23205
 30
0.0
 10
-0.61701
 20
-0.23205
 30
0.0
 10
-0.87753
 20
-0.04515
 30
0.0
 10
-0.99628
 20
0.11787
 30
0.0
 10
-1.33487
 20
0.28509
 30
0.0
 10
-1.33487
 20
0.28509
 30
0.0
 10
-1.85597
 20
0.54243
 30
0.0
 10
-2.47091
 20
0.82642
 30
0.0
 10
-3.22826
 20
0.82642
 30
0.0
 10
-3.22826
 20
0.82642
 30
0.0
 10
-3.22826
 20
0.82642
 30
0.0
 10
-3.36941
 20
0.82642
 30
0.0
 10
-3.36941
 20
0.82642
 30
0.0
 10
-3.36941
 20
0.82642
 30
0.0
 10
-3.82549
 20
0.82642
 30
0.0
 10
-4.17087
 20
0.72302
 30
0.0
 10
-4.47543
 20
0.5563
 30
0.0
 10
-4.47543
 20
0.5563
 30
0.0
 10
-4.89044
 20
0.32911
 30
0.0
 10
-4.87655
 20
0.19197
 30
0.0
 10
-5.07102
 20
-0.20384
 30
0.0
 10
-5.07102
 20
-0.20384
 30
0.0
 10
-5.07102
 20
-0.20384
 30
0.0
 10
-7.96479
 20
3.07745
 30
0.0
 10
-7.96479
 20
3.07745
 30
0.0
  0
SPLINE
  5
61
330
1F
100
AcDbEntity
  8
layer 1
 62
     1
100
AcDbSpline
210
0.0
220
0.0
230
1.0
 70
    11
 71
     3
 72
    68
 73
    64
 74
     0
 42
0.0000000001
 43
0.0000000001
 40
0.0
 40
0.0
 40
0.0
 40
0.0
 40
0.0625
 40
0.0625
 40
0.0625
 40
0.0625
 40
0.125
 40
0.125
 40
0.125
 40
0.125
 40
0.1875
 40
0.1875
 40
0.1875
 40
0.1875
 40
0.25
 40
0.25
 40
0.25
 40
0.25
 40
0.3125
 40
0.3125
 40
0.3125
 40
0.3125
 40
0.375
 40
0.375
 40
0.375
 40
0.375
 40
0.4375
 40
0.4375
 40
0.4375
 40
0.4375
 40
0.5
 40
0.5
 40
0.5
 40
0.5
 40
0.5625
 40
0.5625
 40
0.5625
 40
0.5625
 40
0.625
 40
0.625
 40
0.625
 40
0.625
 40
0.6875
 40
0.6875
 40
0.6875
 40
0.6875
 40
0.75
 40
0.75
 40
0.75
 40
0.75
 40
0.8125
 40
0.8125
 40
0.8125
 40
0.8125
 40
0.875
 40
0.875
 40
0.875
 40
0.875
 40
0.9375
 40
0.9375
 40
0.9375
 40
0.9375
 40
1.0
 40
1.0
 40
1.0
 40
1.0
 10
4.8169
 20
7.072
 30
0.0
 10
4.8169
 20
7.072
 30
0.0
 10
8.87477
 20
7.072
 30
0.0
 10
8.87477
 20
7.072
 30
0.0
 10
8.87477
 20
7.072
 30
0.0
 10
8.87477
 20
7.072
 30
0.0
 10
8.87477
 20
10.45944
 30
0.0
 10
8.87477
 20
10.45944
 30
0.0
 10
8.87477
 20
10.45944
 30
0.0
 10
8.87477
 20
10.45944
 30
0.0
 10
8.94534
 20
10.42415
 30
0.0
 10
8.94534
 20
10.42415
 30
0.0
 10
8.94534
 20
10.42415
 30
0.0
 10
8.94534
 20
10.42415
 30
0.0
 10
12.05529
 20
7.25315
 30
0.0
 10
12.05529
 20
7.25315
 30
0.0
 10
12.05529
 20
7.25315
 30
0.0
 10
12.05529
 20
7.25315
 30
0.0
 10
8.49583
 20
3.18247
 30
0.0
 10
8.49583
 20
3.18247
 30
0.0
 10
8.49583
 20
3.18247
 30
0.0
 10
7.793
 20
4.50144
 30
0.0
 10
7.20364
 20
4.82018
 30
0.0
 10
5.7801
 20
5.38877
 30
0.0
 10
5.7801
 20
5.38877
 30
0.0
 10
4.73178
 20
5.80749
 30
0.0
 10
2.93903
 20
5.94286
 30
0.0
 10
1.46475
 20
5.94286
 30
0.0
 10
1.46475
 20
5.94286
 30
0.0
 10
1.46475
 20
5.94286
 30
0.0
 10
1.32361
 20
5.94286
 30
0.0
 10
1.32361
 20
5.94286
 30
0.0
 10
1.32361
 20
5.94286
 30
0.0
 10
-0.26043
 20
5.94286
 30
0.0
 10
-1.5727
 20
5.85583
 30
0.0
 10
-2.98524
 20
6.08003
 30
0.0
 10
-2.98524
 20
6.08003
 30
0.0
 10
-4.07907
 20
6.25364
 30
0.0
 10
-5.48656
 20
6.83736
 30
0.0
 10
-5.48656
 20
8.06
 30
0.0
 10
-5.48656
 20
8.06
 30
0.0
 10
-5.48656
 20
8.06
 30
0.0
 10
-5.48656
 20
8.307
 30
0.0
 10
-5.48656
 20
8.307
 30
0.0
 10
-5.48656
 20
8.307
 30
0.0
 10
-5.48656
 20
9.11991
 30
0.0
 10
-4.34867
 20
9.78216
 30
0.0
 10
-3.72227
 20
10.03601
 30
0.0
 10
-3.72227
 20
10.03601
 30
0.0
 10
-2.92071
 20
10.36084
 30
0.0
 10
-1.91878
 20
10.60058
 30
0.0
 10
-0.79354
 20
10.60058
 30
0.0
 10
-0.79354
 20
10.60058
 30
0.0
 10
-0.79354
 20
10.60058
 30
0.0
 10
-0.19368
 20
10.60058
 30
0.0
 10
-0.19368
 20
10.60058
 30
0.0
 10
-0.19368
 20
10.60058
 30
0.0
 10
1.05956
 20
10.60058
 30
0.0
 10
2.43028
 20
10.21641
 30
0.0
 10
3.1867
 20
9.71138
 30
0.0
 10
3.1867
 20
9.71138
 30
0.0
 10
4.18955
 20
9.0418
 30
0.0
 10
4.50612
 20
8.40599
 30
0.0
 10
4.8169
 20
7.072
 30
0.0
  0
SPLINE
  5
62
330
1F
100
AcDbEntity
  8
layer 1
 62
     1
100
AcDbSpline
210
0.0
220
0.0
230
1.0
 70
    11
 71
     3
 72
    16
 73
    12
 74
     0
 42
0.0000000001
 43
0.0000000001
 40
0.0
 40
0.0
 40
0.0
 40
0.0
 40
0.3333333333333333
 40
0.3333333333333333
 40
0.3333333333333333
 40
0.3333333333333333
 40
0.6666666666666666
 40
0.6666666666666666
 40
0.6666666666666666
 40
0.6666666666666666
 40
1.0
 40
1.0
 40
1.0
 40
1.0
 10
5.98133
 20
8.87158
 30
0.0
 10
5.82381
 20
9.54771
 30
0.0
 10
4.82348
 20
10.25765
 30
0.0
 10
4.49933
 20
10.74172
 30
0.0
 10
4.49933
 20
10.74172
 30
0.0
 10
4.49933
 20
10.74172
 30
0.0
 10
6.89876
 20
10.74172
 30
0.0
 10
6.89876
 20
10.74172
 30
0.0
 10
6.89876
 20
10.74172
 30
0.0
 10
6.89876
 20
9.97389
 30
0.0
 10
6.53535
 20
9.01951
 30
0.0
 10
5.98133
 20
8.87158
 30
0.0
  0
SPLINE
  5
63
330
1F
100
AcDbEntity
  8
layer 1
 62
     1
100
AcDbSpline
210
0.0
220
0.0
230
1.0
 70
    11
 71
     3
 72
    40
 73
    36
 74
     0
 42
0.0000000001
 43
0.0000000001
 40
0.0
 40
0.0
 40
0.0
 40
0.0
 40
0.1111111111111111
 40
0.1111111111111111
 40
0.1111111111111111
 40
0.1111111111111111
 40
0.2222222222222222
 40
0.2222222222222222
 40
0.2222222222222222
 40
0.2222222222222222
 40
0.3333333333333333
 40
0.3333333333333333
 40
0.3333333333333333
 40
0.3333333333333333
 40
0.4444444444444444
 40
0.4444444444444444
 40
0.4444444444444444
 40
0.4444444444444444
 40
0.5555555555555556
 40
0.5555555555555556
 40
0.5555555555555556
 40
0.5555555555555556
 40
0.6666666666666667
 40
0.6666666666666667
 40
0.6666666666666667
 40
0.6666666666666667
 40
0.7777777777777779
 40
0.7777777777777779
 40
0.7777777777777779
 40
0.7777777777777779
 40
0.8888888888888891
 40
0.8888888888888891
 40
0.8888888888888891
 40
0.8888888888888891
 40
1.0
 40
1.0
 40
1.0
 40
1.0
 10
-8.20614
 20
10.74425
 30
0.0
 10
-8.20614
 20
10.74425
 30
0.0
 10
-5.31013
 20
10.74172
 30
0.0
 10
-5.31013
 20
10.74172
 30
0.0
 10
-5.31013
 20
10.74172
 30
0.0
 10
-5.35873
 20
10.69948
 30
0.0
 10
-6.01347
 20
10.37336
 30
0.0
 10
-6.12219
 20
10.31878
 30
0.0
 10
-6.12219
 20
10.31878
 30
0.0
 10
-6.34834
 20
10.20525
 30
0.0
 10
-6.63025
 20
9.99079
 30
0.0
 10
-6.83708
 20
9.83396
 30
0.0
 10
-6.83708
 20
9.83396
 30
0.0
 10
-7.26341
 20
9.51071
 30
0.0
 10
-7.75311
 20
9.081
 30
0.0
 10
-8.06245
 20
8.65989
 30
0.0
 10
-8.06245
 20
8.65989
 30
0.0
 10
-8.75857
 20
7.71228
 30
0.0
 10
-9.36799
 20
6.7828
 30
0.0
 10
-9.36799
 20
5.13128
 30
0.0
 10
-9.36799
 20
5.13128
 30
0.0
 10
-9.36799
 20
5.13128
 30
0.0
 10
-9.36799
 20
5.096
 30
0.0
 10
-9.36799
 20
5.096
 30
0.0
 10
-9.36799
 20
5.096
 30
0.0
 10
-9.36799
 20
5.096
 30
0.0
 10
-9.32715
 20
4.63788
 30
0.0
 10
-9.32715
 20
4.63788
 30
0.0
 10
-9.32715
 20
4.63788
 30
0.0
 10
-9.32715
 20
4.63788
 30
0.0
 10
-11.62932
 20
7.2514
 30
0.0
 10
-11.62932
 20
7.2514
 30
0.0
 10
-11.62932
 20
7.2514
 30
0.0
 10
-11.62932
 20
7.2514
 30
0.0
 10
-8.20614
 20
10.74425
 30
0.0
 10
-8.20614
 20
10.74425
 30
0.0
  0
SPLINE
  5
64
330
1F
100
AcDbEntity
  8
layer 1
 62
     1
100
AcDbSpline
210
0.0
220
0.0
230
1.0
 70
    11
 71
     3
 72
    80
 73
    76
 74
     0
 42
0.0000000001
 43
0.0000000001
 40
0.0
 40
0.0
 40
0.0
 40
0.0
 40
0.0526315789473684
 40
0.0526315789473684
 40
0.0526315789473684
 40
0.0526315789473684
 40
0.1052631578947368
 40
0.1052631578947368
 40
0.1052631578947368
 40
0.1052631578947368
 40
0.1578947368421053
 40
0.1578947368421053
 40
0.1578947368421053
 40
0.1578947368421053
 40
0.2105263157894737
 40
0.2105263157894737
 40
0.2105263157894737
 40
0.2105263157894737
 40
0.2631578947368421
 40
0.2631578947368421
 40
0.2631578947368421
 40
0.2631578947368421
 40
0.3157894736842105
 40
0.3157894736842105
 40
0.3157894736842105
 40
0.3157894736842105
 40
0.3684210526315789
 40
0.3684210526315789
 40
0.3684210526315789
 40
0.3684210526315789
 40
0.4210526315789473
 40
0.4210526315789473
 40
0.4210526315789473
 40
0.4210526315789473
 40
0.4736842105263158
 40
0.4736842105263158
 40
0.4736842105263158
 40
0.4736842105263158
 40
0.5263157894736842
 40
0.5263157894736842
 40
0.5263157894736842
 40
0.5263157894736842
 40
0.5789473684210527
 40
0.5789473684210527
 40
0.5789473684210527
 40
0.5789473684210527
 40
0.631578947368421
 40
0.631578947368421
 40
0.631578947368421
 40
0.631578947368421
 40
0.6842105263157894
 40
0.6842105263157894
 40
0.6842105263157894
 40
0.6842105263157894
 40
0.7368421052631577
 40
0.7368421052631577
 40
0.7368421052631577
 40
0.7368421052631577
 40
0.7894736842105261
 40
0.7894736842105261
 40
0.7894736842105261
 40
0.7894736842105261
 40
0.8421052631578945
 40
0.8421052631578945
 40
0.8421052631578945
 40
0.8421052631578945
 40
0.8947368421052628
 40
0.8947368421052628
 40
0.8947368421052628
 40
0.8947368421052628
 40
0.9473684210526312
 40
0.9473684210526312
 40
0.9473684210526312
 40
0.9473684210526312
 40
1.0
 40
1.0
 40
1.0
 40
1.0
 10
-13.21415
 20
7.21314
 30
0.0
 10
-13.21415
 20
7.05308
 30
0.0
 10
-7.14323
 20
0.27365
 30
0.0
 10
-6.50326
 20
-0.54315
 30
0.0
 10
-6.50326
 20
-0.54315
 30
0.0
 10
-5.98609
 20
-1.20321
 30
0.0
 10
-5.32951
 20
-1.81193
 30
0.0
 10
-4.83733
 20
-2.47636
 30
0.0
 10
-4.83733
 20
-2.47636
 30
0.0
 10
-4.65844
 20
-2.71786
 30
0.0
 10
-4.21119
 20
-3.21768
 30
0.0
 10
-3.99522
 20
-3.43384
 30
0.0
 10
-3.99522
 20
-3.43384
 30
0.0
 10
-3.72041
 20
-3.70889
 30
0.0
 10
-3.40827
 20
-4.11436
 30
0.0
 10
-3.1486
 20
-4.42208
 30
0.0
 10
-3.1486
 20
-4.42208
 30
0.0
 10
-2.87907
 20
-4.74149
 30
0.0
 10
-2.55513
 20
-5.05636
 30
0.0
 10
-2.30425
 20
-5.3773
 30
0.0
 10
-2.30425
 20
-5.3773
 30
0.0
 10
-2.08236
 20
-5.66114
 30
0.0
 10
-1.72342
 20
-6.09463
 30
0.0
 10
-1.47307
 20
-6.34569
 30
0.0
 10
-1.47307
 20
-6.34569
 30
0.0
 10
-1.07362
 20
-6.74628
 30
0.0
 10
-0.1042
 20
-8.0537
 30
0.0
 10
0.22975
 20
-8.27732
 30
0.0
 10
0.22975
 20
-8.27732
 30
0.0
 10
0.44973
 20
-7.9488
 30
0.0
 10
0.82227
 20
-7.63486
 30
0.0
 10
1.06252
 20
-7.31052
 30
0.0
 10
1.06252
 20
-7.31052
 30
0.0
 10
1.26225
 20
-7.04088
 30
0.0
 10
1.66206
 20
-6.58157
 30
0.0
 10
1.89727
 20
-6.34569
 30
0.0
 10
1.89727
 20
-6.34569
 30
0.0
 10
2.14763
 20
-6.09463
 30
0.0
 10
2.50657
 20
-5.66114
 30
0.0
 10
2.72845
 20
-5.3773
 30
0.0
 10
2.72845
 20
-5.3773
 30
0.0
 10
2.97934
 20
-5.05636
 30
0.0
 10
3.30327
 20
-4.74149
 30
0.0
 10
3.57281
 20
-4.42208
 30
0.0
 10
3.57281
 20
-4.42208
 30
0.0
 10
4.11071
 20
-3.78465
 30
0.0
 10
4.74804
 20
-3.13519
 30
0.0
 10
5.24692
 20
-2.49704
 30
0.0
 10
5.24692
 20
-2.49704
 30
0.0
 10
5.77637
 20
-1.81976
 30
0.0
 10
6.39836
 20
-1.21845
 30
0.0
 10
6.92746
 20
-0.54315
 30
0.0
 10
6.92746
 20
-0.54315
 30
0.0
 10
7.53874
 20
0.23703
 30
0.0
 10
13.63835
 20
7.09718
 30
0.0
 10
13.63835
 20
7.17786
 30
0.0
 10
13.63835
 20
7.17786
 30
0.0
 10
13.63835
 20
7.27769
 30
0.0
 10
11.64218
 20
9.26235
 30
0.0
 10
11.40658
 20
9.49795
 30
0.0
 10
11.40658
 20
9.49795
 30
0.0
 10
11.17099
 20
9.73353
 30
0.0
 10
9.20808
 20
11.76501
 30
0.0
 10
9.12177
 20
11.76501
 30
0.0
 10
9.12177
 20
11.76501
 30
0.0
 10
9.12177
 20
11.76501
 30
0.0
 10
-8.69756
 20
11.76501
 30
0.0
 10
-8.69756
 20
11.76501
 30
0.0
 10
-8.69756
 20
11.76501
 30
0.0
 10
-8.78683
 20
11.76501
 30
0.0
 10
-10.72932
 20
9.7508
 30
0.0
 10
-10.96463
 20
9.51549
 30
0.0
 10
-10.96463
 20
9.51549
 30
0.0
 10
-11.16344
 20
9.31668
 30
0.0
 10
-13.21415
 20
7.21585
 30
0.0
 10
-13.21415
 20
7.21314
 30
0.0
  0
SPLINE
  5
65
330
1F
100
AcDbEntity
  8
layer 1
100
AcDbSpline
210
0.0
220
0.0
230
1.0
 70
    11
 71
     3
 72
    80
 73
    76
 74
     0
 42
0.0000000001
 43
0.0000000001
 40
0.0
 40
0.0
 40
0.0
 40
0.0
 40
0.0526315789473684
 40
0.0526315789473684
 40
0.0526315789473684
 40
0.0526315789473684
 40
0.1052631578947368
 40
0.1052631578947368
 40
0.1052631578947368
 40
0.1052631578947368
 40
0.1578947368421053
 40
0.1578947368421053
 40
0.1578947368421053
 40
0.1578947368421053
 40
0.2105263157894737
 40
0.2105263157894737
 40
0.2105263157894737
 40
0.2105263157894737
 40
0.2631578947368421
 40
0.2631578947368421
 40
0.2631578947368421
 40
0.2631578947368421
 40
0.3157894736842105
 40
0.3157894736842105
 40
0.3157894736842105
 40
0.3157894736842105
 40
0.3684210526315789
 40
0.3684210526315789
 40
0.3684210526315789
 40
0.3684210526315789
 40
0.4210526315789473
 40
0.4210526315789473
 40
0.4210526315789473
 40
0.4210526315789473
 40
0.4736842105263158
 40
0.4736842105263158
 40
0.4736842105263158
 40
0.4736842105263158
 40
0.5263157894736842
 40
0.5263157894736842
 40
0.5263157894736842
 40
0.5263157894736842
 40
0.5789473684210527
 40
0.5789473684210527
 40
0.5789473684210527
 40
0.5789473684210527
 40
0.631578947368421
 40
0.631578947368421
 40
0.631578947368421
 40
0.631578947368421
 40
0.6842105263157894
 40
0.6842105263157894
 40
0.6842105263157894
 40
0.6842105263157894
 40
0.7368421052631577
 40
0.7368421052631577
 40
0.7368421052631577
 40
0.7368421052631577
 40
0.7894736842105261
 40
0.7894736842105261
 40
0.7894736842105261
 40
0.7894736842105261
 40
0.8421052631578945
 40
0.8421052631578945
 40
0.8421052631578945
 40
0.8421052631578945
 40
0.8947368421052628
 40
0.8947368421052628
 40
0.8947368421052628
 40
0.8947368421052628
 40
0.9473684210526312
 40
0.9473684210526312
 40
0.9473684210526312
 40
0.9473684210526312
 40
1.0
 40
1.0
 40
1.0
 40
1.0
 10
-13.20335
 20
7.2191
 30
0.0
 10
-13.20335
 20
7.22181
 30
0.0
 10
-11.15264
 20
9.32264
 30
0.0
 10
-10.95383
 20
9.52145
 30
0.0
 10
-10.95383
 20
9.52145
 30
0.0
 10
-10.71852
 20
9.75676
 30
0.0
 10
-8.77603
 20
11.77097
 30
0.0
 10
-8.68676
 20
11.77097
 30
0.0
 10
-8.68676
 20
11.77097
 30
0.0
 10
-8.68676
 20
11.77097
 30
0.0
 10
9.13257
 20
11.77097
 30
0.0
 10
9.13257
 20
11.77097
 30
0.0
 10
9.13257
 20
11.77097
 30
0.0
 10
9.21888
 20
11.77097
 30
0.0
 10
11.18179
 20
9.73949
 30
0.0
 10
11.41738
 20
9.50391
 30
0.0
 10
11.41738
 20
9.50391
 30
0.0
 10
11.65298
 20
9.26831
 30
0.0
 10
13.64915
 20
7.28365
 30
0.0
 10
13.64915
 20
7.18382
 30
0.0
 10
13.64915
 20
7.18382
 30
0.0
 10
13.64915
 20
7.10314
 30
0.0
 10
7.54954
 20
0.24299
 30
0.0
 10
6.93826
 20
-0.53719
 30
0.0
 10
6.93826
 20
-0.53719
 30
0.0
 10
6.40916
 20
-1.21249
 30
0.0
 10
5.78717
 20
-1.8138
 30
0.0
 10
5.25772
 20
-2.49108
 30
0.0
 10
5.25772
 20
-2.49108
 30
0.0
 10
4.75884
 20
-3.12923
 30
0.0
 10
4.12151
 20
-3.77869
 30
0.0
 10
3.58361
 20
-4.41612
 30
0.0
 10
3.58361
 20
-4.41612
 30
0.0
 10
3.31407
 20
-4.73553
 30
0.0
 10
2.99014
 20
-5.0504
 30
0.0
 10
2.73925
 20
-5.37134
 30
0.0
 10
2.73925
 20
-5.37134
 30
0.0
 10
2.51737
 20
-5.65518
 30
0.0
 10
2.15843
 20
-6.08867
 30
0.0
 10
1.90807
 20
-6.33973
 30
0.0
 10
1.90807
 20
-6.33973
 30
0.0
 10
1.67286
 20
-6.57561
 30
0.0
 10
1.27305
 20
-7.03492
 30
0.0
 10
1.07332
 20
-7.30456
 30
0.0
 10
1.07332
 20
-7.30456
 30
0.0
 10
0.83307
 20
-7.6289
 30
0.0
 10
0.46053
 20
-7.94284
 30
0.0
 10
0.24055
 20
-8.27136
 30
0.0
 10
0.24055
 20
-8.27136
 30
0.0
 10
-0.0934
 20
-8.04774
 30
0.0
 10
-1.06282
 20
-6.74032
 30
0.0
 10
-1.46227
 20
-6.33973
 30
0.0
 10
-1.46227
 20
-6.33973
 30
0.0
 10
-1.71262
 20
-6.08867
 30
0.0
 10
-2.07156
 20
-5.65518
 30
0.0
 10
-2.29345
 20
-5.37134
 30
0.0
 10
-2.29345
 20
-5.37134
 30
0.0
 10
-2.54433
 20
-5.0504
 30
0.0
 10
-2.86827
 20
-4.73553
 30
0.0
 10
-3.1378
 20
-4.41612
 30
0.0
 10
-3.1378
 20
-4.41612
 30
0.0
 10
-3.39747
 20
-4.1084
 30
0.0
 10
-3.70961
 20
-3.70293
 30
0.0
 10
-3.98442
 20
-3.42788
 30
0.0
 10
-3.98442
 20
-3.42788
 30
0.0
 10
-4.20039
 20
-3.21172
 30
0.0
 10
-4.64764
 20
-2.7119
 30
0.0
 10
-4.82653
 20
-2.4704
 30
0.0
 10
-4.82653
 20
-2.4704
 30
0.0
 10
-5.31871
 20
-1.80597
 30
0.0
 10
-5.97529
 20
-1.19725
 30
0.0
 10
-6.49246
 20
-0.53719
 30
0.0
 10
-6.49246
 20
-0.53719
 30
0.0
 10
-7.13243
 20
0.27961
 30
0.0
 10
-13.20335
 20
7.05904
 30
0.0
 10
-13.20335
 20
7.2191
 30
0.0
  0
SPLINE
  5
66
330
1F
100
AcDbEntity
  8
layer 1
100
AcDbSpline
210
0.0
220
0.0
230
1.0
 70
    11
 71
     3
 72
    24
 73
    20
 74
     0
 42
0.0000000001
 43
0.0000000001
 40
0.0
 40
0.0
 40
0.0
 40
0.0
 40
0.2
 40
0.2
 40
0.2
 40
0.2
 40
0.4
 40
0.4
 40
0.4
 40
0.4
 40
0.6000000000000001
 40
0.6000000000000001
 40
0.6000000000000001
 40
0.6000000000000001
 40
0.8
 40
0.8
 40
0.8
 40
0.8
 40
1.0
 40
1.0
 40
1.0
 40
1.0
 10
-13.94435
 20
7.2191
 30
0.0
 10
-13.94435
 20
7.2191
 30
0.0
 10
0.23575
 20
-9.07877
 30
0.0
 10
0.23575
 20
-9.07877
 30
0.0
 10
0.23575
 20
-9.07877
 30
0.0
 10
0.23575
 20
-9.07877
 30
0.0
 10
14.39015
 20
7.2191
 30
0.0
 10
14.39015
 20
7.2191
 30
0.0
 10
14.39015
 20
7.2191
 30
0.0
 10
14.12728
 20
7.61167
 30
0.0
 10
9.38602
 20
12.30026
 30
0.0
 10
9.34428
 20
12.30026
 30
0.0
 10
9.34428
 20
12.30026
 30
0.0
 10
9.34428
 20
12.30026
 30
0.0
 10
-8.89848
 20
12.30026
 30
0.0
 10
-8.89848
 20
12.30026
 30
0.0
 10
-8.89848
 20
12.30026
 30
0.0
 10
-8.94021
 20
12.30026
 30
0.0
 10
-13.68148
 20
7.61167
 30
0.0
 10
-13.94435
 20
7.2191
 30
0.0
  0
SPLINE
  5
67
330
1F
100
AcDbEntity
  8
layer 1
 62
     2
100
AcDbSpline
210
0.0
220
0.0
230
1.0
 70
    11
 71
     3
 72
    68
 73
    64
 74
     0
 42
0.0000000001
 43
0.0000000001
 40
0.0
 40
0.0
 40
0.0
 40
0.0
 40
0.0625
 40
0.0625
 40
0.0625
 40
0.0625
 40
0.125
 40
0.125
 40
0.125
 40
0.125
 40
0.1875
 40
0.1875
 40
0.1875
 40
0.1875
 40
0.25
 40
0.25
 40
0.25
 40
0.25
 40
0.3125
 40
0.3125
 40
0.3125
 40
0.3125
 40
0.375
 40
0.375
 40
0.375
 40
0.375
 40
0.4375
 40
0.4375
 40
0.4375
 40
0.4375
 40
0.5
 40
0.5
 40
0.5
 40
0.5
 40
0.5625
 40
0.5625
 40
0.5625
 40
0.5625
 40
0.625
 40
0.625
 40
0.625
 40
0.625
 40
0.6875
 40
0.6875
 40
0.6875
 40
0.6875
 40
0.75
 40
0.75
 40
0.75
 40
0.75
 40
0.8125
 40
0.8125
 40
0.8125
 40
0.8125
 40
0.875
 40
0.875
 40
0.875
 40
0.875
 40
0.9375
 40
0.9375
 40
0.9375
 40
0.9375
 40
1.0
 40
1.0
 40
1.0
 40
1.0
 10
-4.94647
 20
8.20711
 30
0.0
 10
-4.94647
 20
8.20711
 30
0.0
 10
-4.94647
 20
8.10125
 30
0.0
 10
-4.94647
 20
8.10125
 30
0.0
 10
-4.94647
 20
8.10125
 30
0.0
 10
-4.94647
 20
6.11371
 30
0.0
 10
-0.02625
 20
6.46663
 30
0.0
 10
2.21669
 20
6.47824
 30
0.0
 10
2.21669
 20
6.47824
 30
0.0
 10
3.49484
 20
6.48486
 30
0.0
 10
5.03386
 20
6.21855
 30
0.0
 10
6.00549
 20
5.8916
 30
0.0
 10
6.00549
 20
5.8916
 30
0.0
 10
6.60011
 20
5.69151
 30
0.0
 10
7.00874
 20
5.49447
 30
0.0
 10
7.4812
 20
5.17959
 30
0.0
 10
7.4812
 20
5.17959
 30
0.0
 10
7.73114
 20
5.013
 30
0.0
 10
7.874
 20
4.89607
 30
0.0
 10
8.08277
 20
4.6873
 30
0.0
 10
8.08277
 20
4.6873
 30
0.0
 10
8.18531
 20
4.58475
 30
0.0
 10
8.5498
 20
4.13766
 30
0.0
 10
8.62049
 20
4.12985
 30
0.0
 10
8.62049
 20
4.12985
 30
0.0
 10
8.62049
 20
4.12985
 30
0.0
 10
11.33815
 20
7.23671
 30
0.0
 10
11.33815
 20
7.23671
 30
0.0
 10
11.33815
 20
7.23671
 30
0.0
 10
11.33815
 20
7.23671
 30
0.0
 10
9.45014
 20
9.15982
 30
0.0
 10
9.45014
 20
9.15982
 30
0.0
 10
9.45014
 20
9.15982
 30
0.0
 10
9.45014
 20
9.15982
 30
0.0
 10
9.45014
 20
6.51339
 30
0.0
 10
9.45014
 20
6.51339
 30
0.0
 10
9.45014
 20
6.51339
 30
0.0
 10
9.45014
 20
6.51339
 30
0.0
 10
4.43956
 20
6.51339
 30
0.0
 10
4.43956
 20
6.51339
 30
0.0
 10
4.43956
 20
6.51339
 30
0.0
 10
4.29062
 20
6.51339
 30
0.0
 10
4.27183
 20
7.20206
 30
0.0
 10
4.23318
 20
7.3303
 30
0.0
 10
4.23318
 20
7.3303
 30
0.0
 10
4.15546
 20
7.58819
 30
0.0
 10
4.08364
 20
7.86369
 30
0.0
 10
3.97011
 20
8.09052
 30
0.0
 10
3.97011
 20
8.09052
 30
0.0
 10
3.73201
 20
8.56625
 30
0.0
 10
3.40839
 20
8.8957
 30
0.0
 10
3.00277
 20
9.20504
 30
0.0
 10
3.00277
 20
9.20504
 30
0.0
 10
2.32763
 20
9.71994
 30
0.0
 10
0.90175
 20
10.07725
 30
0.0
 10
-0.28874
 20
10.07725
 30
0.0
 10
-0.28874
 20
10.07725
 30
0.0
 10
-0.28874
 20
10.07725
 30
0.0
 10
-0.78274
 20
10.07725
 30
0.0
 10
-0.78274
 20
10.07725
 30
0.0
 10
-0.78274
 20
10.07725
 30
0.0
 10
-2.19256
 20
10.07725
 30
0.0
 10
-4.94647
 20
9.39093
 30
0.0
 10
-4.94647
 20
8.20711
 30
0.0
  0
SPLINE
  5
68
330
1F
100
AcDbEntity
  8
layer 1
100
AcDbSpline
210
0.0
220
0.0
230
1.0
 70
    11
 71
     3
 72
    68
 73
    64
 74
     0
 42
0.0000000001
 43
0.0000000001
 40
0.0
 40
0.0
 40
0.0
 40
0.0
 40
0.0625
 40
0.0625
 40
0.0625
 40
0.0625
 40
0.125
 40
0.125
 40
0.125
 40
0.125
 40
0.1875
 40
0.1875
 40
0.1875
 40
0.1875
 40
0.25
 40
0.25
 40
0.25
 40
0.25
 40
0.3125
 40
0.3125
 40
0.3125
 40
0.3125
 40
0.375
 40
0.375
 40
0.375
 40
0.375
 40
0.4375
 40
0.4375
 40
0.4375
 40
0.4375
 40
0.5
 40
0.5
 40
0.5
 40
0.5
 40
0.5625
 40
0.5625
 40
0.5625
 40
0.5625
 40
0.625
 40
0.625
 40
0.625
 40
0.625
 40
0.6875
 40
0.6875
 40
0.6875
 40
0.6875
 40
0.75
 40
0.75
 40
0.75
 40
0.75
 40
0.8125
 40
0.8125
 40
0.8125
 40
0.8125
 40
0.875
 40
0.875
 40
0.875
 40
0.875
 40
0.9375
 40
0.9375
 40
0.9375
 40
0.9375
 40
1.0
 40
1.0
 40
1.0
 40
1.0
 10
-4.94647
 20
8.20711
 30
0.0
 10
-4.94647
 20
9.39093
 30
0.0
 10
-2.19256
 20
10.07725
 30
0.0
 10
-0.78274
 20
10.07725
 30
0.0
 10
-0.78274
 20
10.07725
 30
0.0
 10
-0.78274
 20
10.07725
 30
0.0
 10
-0.28874
 20
10.07725
 30
0.0
 10
-0.28874
 20
10.07725
 30
0.0
 10
-0.28874
 20
10.07725
 30
0.0
 10
0.90175
 20
10.07725
 30
0.0
 10
2.32763
 20
9.71994
 30
0.0
 10
3.00277
 20
9.20504
 30
0.0
 10
3.00277
 20
9.20504
 30
0.0
 10
3.40839
 20
8.8957
 30
0.0
 10
3.73201
 20
8.56625
 30
0.0
 10
3.97011
 20
8.09052
 30
0.0
 10
3.97011
 20
8.09052
 30
0.0
 10
4.08364
 20
7.86369
 30
0.0
 10
4.15546
 20
7.58819
 30
0.0
 10
4.23318
 20
7.3303
 30
0.0
 10
4.23318
 20
7.3303
 30
0.0
 10
4.27183
 20
7.20206
 30
0.0
 10
4.29062
 20
6.51339
 30
0.0
 10
4.43956
 20
6.51339
 30
0.0
 10
4.43956
 20
6.51339
 30
0.0
 10
4.43956
 20
6.51339
 30
0.0
 10
9.45014
 20
6.51339
 30
0.0
 10
9.45014
 20
6.51339
 30
0.0
 10
9.45014
 20
6.51339
 30
0.0
 10
9.45014
 20
6.51339
 30
0.0
 10
9.45014
 20
9.15982
 30
0.0
 10
9.45014
 20
9.15982
 30
0.0
 10
9.45014
 20
9.15982
 30
0.0
 10
9.45014
 20
9.15982
 30
0.0
 10
11.33815
 20
7.23671
 30
0.0
 10
11.33815
 20
7.23671
 30
0.0
 10
11.33815
 20
7.23671
 30
0.0
 10
11.33815
 20
7.23671
 30
0.0
 10
8.62049
 20
4.12985
 30
0.0
 10
8.62049
 20
4.12985
 30
0.0
 10
8.62049
 20
4.12985
 30
0.0
 10
8.5498
 20
4.13766
 30
0.0
 10
8.18531
 20
4.58475
 30
0.0
 10
8.08277
 20
4.6873
 30
0.0
 10
8.08277
 20
4.6873
 30
0.0
 10
7.874
 20
4.89607
 30
0.0
 10
7.73114
 20
5.013
 30
0.0
 10
7.4812
 20
5.17959
 30
0.0
 10
7.4812
 20
5.17959
 30
0.0
 10
7.00874
 20
5.49447
 30
0.0
 10
6.60011
 20
5.69151
 30
0.0
 10
6.00549
 20
5.8916
 30
0.0
 10
6.00549
 20
5.8916
 30
0.0
 10
5.03386
 20
6.21855
 30
0.0
 10
3.49484
 20
6.48486
 30
0.0
 10
2.21669
 20
6.47824
 30
0.0
 10
2.21669
 20
6.47824
 30
0.0
 10
-0.02625
 20
6.46663
 30
0.0
 10
-4.94647
 20
6.11371
 30
0.0
 10
-4.94647
 20
8.10125
 30
0.0
 10
-4.94647
 20
8.10125
 30
0.0
 10
-4.94647
 20
8.10125
 30
0.0
 10
-4.94647
 20
8.20711
 30
0.0
 10
-4.94647
 20
8.20711
 30
0.0
  0
SPLINE
  5
69
330
1F
100
AcDbEntity
  8
layer 1
100
AcDbSpline
210
0.0
220
0.0
230
1.0
 70
    11
 71
     3
 72
    64
 73
    60
 74
     0
 42
0.0000000001
 43
0.0000000001
 40
0.0
 40
0.0
 40
0.0
 40
0.0
 40
0.0666666666666667
 40
0.0666666666666667
 40
0.0666666666666667
 40
0.0666666666666667
 40
0.1333333333333333
 40
0.1333333333333333
 40
0.1333333333333333
 40
0.1333333333333333
 40
0.2
 40
0.2
 40
0.2
 40
0.2
 40
0.2666666666666667
 40
0.2666666666666667
 40
0.2666666666666667
 40
0.2666666666666667
 40
0.3333333333333333
 40
0.3333333333333333
 40
0.3333333333333333
 40
0.3333333333333333
 40
0.4
 40
0.4
 40
0.4
 40
0.4
 40
0.4666666666666666
 40
0.4666666666666666
 40
0.4666666666666666
 40
0.4666666666666666
 40
0.5333333333333333
 40
0.5333333333333333
 40
0.5333333333333333
 40
0.5333333333333333
 40
0.6
 40
0.6
 40
0.6
 40
0.6
 40
0.6666666666666666
 40
0.6666666666666666
 40
0.6666666666666666
 40
0.6666666666666666
 40
0.7333333333333333
 40
0.7333333333333333
 40
0.7333333333333333
 40
0.7333333333333333
 40
0.7999999999999999
 40
0.7999999999999999
 40
0.7999999999999999
 40
0.7999999999999999
 40
0.8666666666666666
 40
0.8666666666666666
 40
0.8666666666666666
 40
0.8666666666666666
 40
0.9333333333333332
 40
0.9333333333333332
 40
0.9333333333333332
 40
0.9333333333333332
 40
1.0
 40
1.0
 40
1.0
 40
1.0
 10
8.95614
 20
10.43011
 30
0.0
 10
8.95614
 20
10.43011
 30
0.0
 10
8.92018
 20
7.04268
 30
0.0
 10
8.92018
 20
7.04268
 30
0.0
 10
8.92018
 20
7.04268
 30
0.0
 10
8.92018
 20
7.04268
 30
0.0
 10
4.8277
 20
7.07796
 30
0.0
 10
4.8277
 20
7.07796
 30
0.0
 10
4.8277
 20
7.07796
 30
0.0
 10
4.51692
 20
8.41195
 30
0.0
 10
4.20035
 20
9.04776
 30
0.0
 10
3.1975
 20
9.71734
 30
0.0
 10
3.1975
 20
9.71734
 30
0.0
 10
2.44108
 20
10.22237
 30
0.0
 10
1.07036
 20
10.60654
 30
0.0
 10
-0.18288
 20
10.60654
 30
0.0
 10
-0.18288
 20
10.60654
 30
0.0
 10
-0.18288
 20
10.60654
 30
0.0
 10
-0.78274
 20
10.60654
 30
0.0
 10
-0.78274
 20
10.60654
 30
0.0
 10
-0.78274
 20
10.60654
 30
0.0
 10
-1.90798
 20
10.60654
 30
0.0
 10
-2.90991
 20
10.3668
 30
0.0
 10
-3.71147
 20
10.04197
 30
0.0
 10
-3.71147
 20
10.04197
 30
0.0
 10
-4.33787
 20
9.78812
 30
0.0
 10
-5.47576
 20
9.12587
 30
0.0
 10
-5.47576
 20
8.31296
 30
0.0
 10
-5.47576
 20
8.31296
 30
0.0
 10
-5.47576
 20
8.31296
 30
0.0
 10
-5.47576
 20
8.06596
 30
0.0
 10
-5.47576
 20
8.06596
 30
0.0
 10
-5.47576
 20
8.06596
 30
0.0
 10
-5.47576
 20
6.84332
 30
0.0
 10
-4.06827
 20
6.2596
 30
0.0
 10
-2.97444
 20
6.08599
 30
0.0
 10
-2.97444
 20
6.08599
 30
0.0
 10
-1.5619
 20
5.86179
 30
0.0
 10
-0.24963
 20
5.94882
 30
0.0
 10
1.33441
 20
5.94882
 30
0.0
 10
1.33441
 20
5.94882
 30
0.0
 10
1.33441
 20
5.94882
 30
0.0
 10
1.47555
 20
5.94882
 30
0.0
 10
1.47555
 20
5.94882
 30
0.0
 10
1.47555
 20
5.94882
 30
0.0
 10
2.94983
 20
5.94882
 30
0.0
 10
4.74258
 20
5.81345
 30
0.0
 10
5.7909
 20
5.39473
 30
0.0
 10
5.7909
 20
5.39473
 30
0.0
 10
7.21444
 20
4.82614
 30
0.0
 10
7.8038
 20
4.5074
 30
0.0
 10
8.50663
 20
3.18843
 30
0.0
 10
8.50663
 20
3.18843
 30
0.0
 10
8.50663
 20
3.18843
 30
0.0
 10
12.06609
 20
7.25911
 30
0.0
 10
12.06609
 20
7.25911
 30
0.0
 10
12.06609
 20
7.25911
 30
0.0
 10
12.06609
 20
7.25911
 30
0.0
 10
8.95614
 20
10.43011
 30
0.0
 10
8.95614
 20
10.43011
 30
0.0
  0
SPLINE
  5
6A
330
1F
100
AcDbEntity
  8
layer 1
100
AcDbSpline
210
0.0
220
0.0
230
1.0
 70
    11
 71
     3
 72
    52
 73
    48
 74
     0
 42
0.0000000001
 43
0.0000000001
 40
0.0
 40
0.0
 40
0.0
 40
0.0
 40
0.0833333333333333
 40
0.0833333333333333
 40
0.0833333333333333
 40
0.0833333333333333
 40
0.1666666666666667
 40
0.1666666666666667
 40
0.1666666666666667
 40
0.1666666666666667
 40
0.25
 40
0.25
 40
0.25
 40
0.25
 40
0.3333333333333333
 40
0.3333333333333333
 40
0.3333333333333333
 40
0.3333333333333333
 40
0.4166666666666666
 40
0.4166666666666666
 40
0.4166666666666666
 40
0.4166666666666666
 40
0.4999999999999999
 40
0.4999999999999999
 40
0.4999999999999999
 40
0.4999999999999999
 40
0.5833333333333333
 40
0.5833333333333333
 40
0.5833333333333333
 40
0.5833333333333333
 40
0.6666666666666666
 40
0.6666666666666666
 40
0.6666666666666666
 40
0.6666666666666666
 40
0.75
 40
0.75
 40
0.75
 40
0.75
 40
0.8333333333333334
 40
0.8333333333333334
 40
0.8333333333333334
 40
0.8333333333333334
 40
0.9166666666666667
 40
0.9166666666666667
 40
0.9166666666666667
 40
0.9166666666666667
 40
1.0
 40
1.0
 40
1.0
 40
1.0
 10
-6.36801
 20
2.09376
 30
0.0
 10
-5.73114
 20
1.95665
 30
0.0
 10
-4.14154
 20
1.81887
 30
0.0
 10
-3.3939
 20
1.82037
 30
0.0
 10
-3.3939
 20
1.82037
 30
0.0
 10
-2.42969
 20
1.8223
 30
0.0
 10
-1.24356
 20
1.78627
 30
0.0
 10
-0.28846
 20
1.7148
 30
0.0
 10
-0.28846
 20
1.7148
 30
0.0
 10
0.78078
 20
1.63478
 30
0.0
 10
5.25113
 20
1.60994
 30
0.0
 10
5.25113
 20
0.79709
 30
0.0
 10
5.25113
 20
0.79709
 30
0.0
 10
5.25113
 20
-0.00352
 30
0.0
 10
1.5954
 20
-0.29677
 30
0.0
 10
0.45226
 20
-0.29677
 30
0.0
 10
0.45226
 20
-0.29677
 30
0.0
 10
0.45226
 20
-0.29677
 30
0.0
 10
0.24055
 20
-0.29677
 30
0.0
 10
0.24055
 20
-0.29677
 30
0.0
 10
0.24055
 20
-0.29677
 30
0.0
 10
0.15032
 20
-0.29677
 30
0.0
 10
-0.28985
 20
0.22294
 30
0.0
 10
-0.41569
 20
0.31728
 30
0.0
 10
-0.41569
 20
0.31728
 30
0.0
 10
-0.68431
 20
0.51865
 30
0.0
 10
-0.86554
 20
0.66222
 30
0.0
 10
-1.18278
 20
0.82048
 30
0.0
 10
-1.18278
 20
0.82048
 30
0.0
 10
-1.69557
 20
1.07629
 30
0.0
 10
-2.39975
 20
1.36166
 30
0.0
 10
-3.14689
 20
1.36166
 30
0.0
 10
-3.14689
 20
1.36166
 30
0.0
 10
-3.14689
 20
1.36166
 30
0.0
 10
-3.42918
 20
1.36166
 30
0.0
 10
-3.42918
 20
1.36166
 30
0.0
 10
-3.42918
 20
1.36166
 30
0.0
 10
-3.8264
 20
1.36166
 30
0.0
 10
-4.13482
 20
1.28288
 30
0.0
 10
-4.4318
 20
1.16456
 30
0.0
 10
-4.4318
 20
1.16456
 30
0.0
 10
-4.70162
 20
1.05706
 30
0.0
 10
-5.09253
 20
0.75347
 30
0.0
 10
-5.1767
 20
0.74128
 30
0.0
 10
-5.1767
 20
0.74128
 30
0.0
 10
-5.1767
 20
0.74128
 30
0.0
 10
-6.36801
 20
2.09376
 30
0.0
 10
-6.36801
 20
2.09376
 30
0.0
  0
SPLINE
  5
6B
330
1F
100
AcDbEntity
  8
layer 1
100
AcDbSpline
210
0.0
220
0.0
230
1.0
 70
    11
 71
     3
 72
    76
 73
    72
 74
     0
 42
0.0000000001
 43
0.0000000001
 40
0.0
 40
0.0
 40
0.0
 40
0.0
 40
0.0555555555555556
 40
0.0555555555555556
 40
0.0555555555555556
 40
0.0555555555555556
 40
0.1111111111111111
 40
0.1111111111111111
 40
0.1111111111111111
 40
0.1111111111111111
 40
0.1666666666666667
 40
0.1666666666666667
 40
0.1666666666666667
 40
0.1666666666666667
 40
0.2222222222222222
 40
0.2222222222222222
 40
0.2222222222222222
 40
0.2222222222222222
 40
0.2777777777777778
 40
0.2777777777777778
 40
0.2777777777777778
 40
0.2777777777777778
 40
0.3333333333333334
 40
0.3333333333333334
 40
0.3333333333333334
 40
0.3333333333333334
 40
0.388888888888889
 40
0.388888888888889
 40
0.388888888888889
 40
0.388888888888889
 40
0.4444444444444445
 40
0.4444444444444445
 40
0.4444444444444445
 40
0.4444444444444445
 40
0.5000000000000001
 40
0.5000000000000001
 40
0.5000000000000001
 40
0.5000000000000001
 40
0.5555555555555557
 40
0.5555555555555557
 40
0.5555555555555557
 40
0.5555555555555557
 40
0.6111111111111113
 40
0.6111111111111113
 40
0.6111111111111113
 40
0.6111111111111113
 40
0.6666666666666669
 40
0.6666666666666669
 40
0.6666666666666669
 40
0.6666666666666669
 40
0.7222222222222224
 40
0.7222222222222224
 40
0.7222222222222224
 40
0.7222222222222224
 40
0.777777777777778
 40
0.777777777777778
 40
0.777777777777778
 40
0.777777777777778
 40
0.8333333333333336
 40
0.8333333333333336
 40
0.8333333333333336
 40
0.8333333333333336
 40
0.8888888888888892
 40
0.8888888888888892
 40
0.8888888888888892
 40
0.8888888888888892
 40
0.9444444444444448
 40
0.9444444444444448
 40
0.9444444444444448
 40
0.9444444444444448
 40
1.0
 40
1.0
 40
1.0
 40
1.0
 10
-5.06022
 20
-0.19788
 30
0.0
 10
-4.86575
 20
0.19793
 30
0.0
 10
-4.87964
 20
0.33507
 30
0.0
 10
-4.46463
 20
0.56226
 30
0.0
 10
-4.46463
 20
0.56226
 30
0.0
 10
-4.16007
 20
0.72898
 30
0.0
 10
-3.81469
 20
0.83238
 30
0.0
 10
-3.35861
 20
0.83238
 30
0.0
 10
-3.35861
 20
0.83238
 30
0.0
 10
-3.35861
 20
0.83238
 30
0.0
 10
-3.21746
 20
0.83238
 30
0.0
 10
-3.21746
 20
0.83238
 30
0.0
 10
-3.21746
 20
0.83238
 30
0.0
 10
-2.46011
 20
0.83238
 30
0.0
 10
-1.84517
 20
0.54839
 30
0.0
 10
-1.32407
 20
0.29105
 30
0.0
 10
-1.32407
 20
0.29105
 30
0.0
 10
-0.98548
 20
0.12383
 30
0.0
 10
-0.86673
 20
-0.03919
 30
0.0
 10
-0.60621
 20
-0.22609
 30
0.0
 10
-0.60621
 20
-0.22609
 30
0.0
 10
-0.46533
 20
-0.32716
 30
0.0
 10
-0.0977
 20
-0.86134
 30
0.0
 10
-0.00645
 20
-0.86134
 30
0.0
 10
-0.00645
 20
-0.86134
 30
0.0
 10
-0.00645
 20
-0.86134
 30
0.0
 10
0.06412
 20
-0.86134
 30
0.0
 10
0.06412
 20
-0.86134
 30
0.0
 10
0.06412
 20
-0.86134
 30
0.0
 10
1.72996
 20
-0.86134
 30
0.0
 10
5.78042
 20
-0.60408
 30
0.0
 10
5.78042
 20
0.79709
 30
0.0
 10
5.78042
 20
0.79709
 30
0.0
 10
5.78042
 20
0.79709
 30
0.0
 10
5.78042
 20
0.90295
 30
0.0
 10
5.78042
 20
0.90295
 30
0.0
 10
5.78042
 20
0.90295
 30
0.0
 10
5.78042
 20
1.7139
 30
0.0
 10
3.81953
 20
1.93918
 30
0.0
 10
2.96042
 20
2.03496
 30
0.0
 10
2.96042
 20
2.03496
 30
0.0
 10
2.43694
 20
2.09332
 30
0.0
 10
1.66894
 20
2.1668
 30
0.0
 10
1.12404
 20
2.17458
 30
0.0
 10
1.12404
 20
2.17458
 30
0.0
 10
0.65129
 20
2.18133
 30
0.0
 10
-0.37178
 20
2.18234
 30
0.0
 10
-0.81053
 20
2.25131
 30
0.0
 10
-0.81053
 20
2.25131
 30
0.0
 10
-1.41073
 20
2.34564
 30
0.0
 10
-2.06915
 20
2.26511
 30
0.0
 10
-2.72374
 20
2.3141
 30
0.0
 10
-2.72374
 20
2.3141
 30
0.0
 10
-3.29864
 20
2.35713
 30
0.0
 10
-4.01843
 20
2.41279
 30
0.0
 10
-4.59333
 20
2.4558
 30
0.0
 10
-4.59333
 20
2.4558
 30
0.0
 10
-5.24597
 20
2.50462
 30
0.0
 10
-5.79407
 20
2.52406
 30
0.0
 10
-6.38569
 20
2.63945
 30
0.0
 10
-6.38569
 20
2.63945
 30
0.0
 10
-6.56617
 20
2.67465
 30
0.0
 10
-6.9994
 20
2.75933
 30
0.0
 10
-7.18971
 20
2.82343
 30
0.0
 10
-7.18971
 20
2.82343
 30
0.0
 10
-7.40133
 20
2.89471
 30
0.0
 10
-7.78214
 20
3.05255
 30
0.0
 10
-7.95399
 20
3.08341
 30
0.0
 10
-7.95399
 20
3.08341
 30
0.0
 10
-7.95399
 20
3.08341
 30
0.0
 10
-5.06022
 20
-0.19788
 30
0.0
 10
-5.06022
 20
-0.19788
 30
0.0
  0
SPLINE
  5
6C
330
1F
100
AcDbEntity
  8
layer 1
 62
     2
100
AcDbSpline
210
0.0
220
0.0
230
1.0
 70
    11
 71
     3
 72
    52
 73
    48
 74
     0
 42
0.0000000001
 43
0.0000000001
 40
0.0
 40
0.0
 40
0.0
 40
0.0
 40
0.0833333333333333
 40
0.0833333333333333
 40
0.0833333333333333
 40
0.0833333333333333
 40
0.1666666666666667
 40
0.1666666666666667
 40
0.1666666666666667
 40
0.1666666666666667
 40
0.25
 40
0.25
 40
0.25
 40
0.25
 40
0.3333333333333333
 40
0.3333333333333333
 40
0.3333333333333333
 40
0.3333333333333333
 40
0.4166666666666666
 40
0.4166666666666666
 40
0.4166666666666666
 40
0.4166666666666666
 40
0.4999999999999999
 40
0.4999999999999999
 40
0.4999999999999999
 40
0.4999999999999999
 40
0.5833333333333333
 40
0.5833333333333333
 40
0.5833333333333333
 40
0.5833333333333333
 40
0.6666666666666666
 40
0.6666666666666666
 40
0.6666666666666666
 40
0.6666666666666666
 40
0.75
 40
0.75
 40
0.75
 40
0.75
 40
0.8333333333333334
 40
0.8333333333333334
 40
0.8333333333333334
 40
0.8333333333333334
 40
0.9166666666666667
 40
0.9166666666666667
 40
0.9166666666666667
 40
0.9166666666666667
 40
1.0
 40
1.0
 40
1.0
 40
1.0
 10
-5.1767
 20
0.74128
 30
0.0
 10
-5.09253
 20
0.75347
 30
0.0
 10
-4.70162
 20
1.05706
 30
0.0
 10
-4.4318
 20
1.16456
 30
0.0
 10
-4.4318
 20
1.16456
 30
0.0
 10
-4.13482
 20
1.28288
 30
0.0
 10
-3.8264
 20
1.36166
 30
0.0
 10
-3.42918
 20
1.36166
 30
0.0
 10
-3.42918
 20
1.36166
 30
0.0
 10
-3.42918
 20
1.36166
 30
0.0
 10
-3.14689
 20
1.36166
 30
0.0
 10
-3.14689
 20
1.36166
 30
0.0
 10
-3.14689
 20
1.36166
 30
0.0
 10
-2.39975
 20
1.36166
 30
0.0
 10
-1.69557
 20
1.07629
 30
0.0
 10
-1.18278
 20
0.82048
 30
0.0
 10
-1.18278
 20
0.82048
 30
0.0
 10
-0.86554
 20
0.66222
 30
0.0
 10
-0.68431
 20
0.51865
 30
0.0
 10
-0.41569
 20
0.31728
 30
0.0
 10
-0.41569
 20
0.31728
 30
0.0
 10
-0.28985
 20
0.22294
 30
0.0
 10
0.15032
 20
-0.29677
 30
0.0
 10
0.24055
 20
-0.29677
 30
0.0
 10
0.24055
 20
-0.29677
 30
0.0
 10
0.24055
 20
-0.29677
 30
0.0
 10
0.45226
 20
-0.29677
 30
0.0
 10
0.45226
 20
-0.29677
 30
0.0
 10
0.45226
 20
-0.29677
 30
0.0
 10
1.5954
 20
-0.29677
 30
0.0
 10
5.25113
 20
-0.00352
 30
0.0
 10
5.25113
 20
0.79709
 30
0.0
 10
5.25113
 20
0.79709
 30
0.0
 10
5.25113
 20
1.60994
 30
0.0
 10
0.78078
 20
1.63478
 30
0.0
 10
-0.28846
 20
1.7148
 30
0.0
 10
-0.28846
 20
1.7148
 30
0.0
 10
-1.24356
 20
1.78627
 30
0.0
 10
-2.42969
 20
1.8223
 30
0.0
 10
-3.3939
 20
1.82037
 30
0.0
 10
-3.3939
 20
1.82037
 30
0.0
 10
-4.14154
 20
1.81887
 30
0.0
 10
-5.73114
 20
1.95665
 30
0.0
 10
-6.36801
 20
2.09376
 30
0.0
 10
-6.36801
 20
2.09376
 30
0.0
 10
-6.36801
 20
2.09376
 30
0.0
 10
-5.1767
 20
0.74128
 30
0.0
 10
-5.1767
 20
0.74128
 30
0.0
  0
SPLINE
  5
6D
330
1F
100
AcDbEntity
  8
layer 1
100
AcDbSpline
210
0.0
220
0.0
230
1.0
 70
    11
 71
     3
 72
    20
 73
    16
 74
     0
 42
0.0000000001
 43
0.0000000001
 40
0.0
 40
0.0
 40
0.0
 40
0.0
 40
0.25
 40
0.25
 40
0.25
 40
0.25
 40
0.5
 40
0.5
 40
0.5
 40
0.5
 40
0.75
 40
0.75
 40
0.75
 40
0.75
 40
1.0
 40
1.0
 40
1.0
 40
1.0
 10
0.25115
 20
-5.38725
 30
0.0
 10
0.25115
 20
-5.38725
 30
0.0
 10
-2.05446
 20
-2.79042
 30
0.0
 10
-2.05446
 20
-2.79042
 30
0.0
 10
-2.05446
 20
-2.79042
 30
0.0
 10
-2.05446
 20
-2.79042
 30
0.0
 10
0.24205
 20
-2.92803
 30
0.0
 10
0.24205
 20
-2.92803
 30
0.0
 10
0.24205
 20
-2.92803
 30
0.0
 10
0.24205
 20
-2.92803
 30
0.0
 10
2.57935
 20
-2.74023
 30
0.0
 10
2.57935
 20
-2.74023
 30
0.0
 10
2.57935
 20
-2.74023
 30
0.0
 10
2.57935
 20
-2.74023
 30
0.0
 10
0.25115
 20
-5.38725
 30
0.0
 10
0.25115
 20
-5.38725
 30
0.0
  0
SPLINE
  5
6E
330
1F
100
AcDbEntity
  8
layer 1
100
AcDbSpline
210
0.0
220
0.0
230
1.0
 70
    11
 71
     3
 72
    24
 73
    20
 74
     0
 42
0.0000000001
 43
0.0000000001
 40
0.0
 40
0.0
 40
0.0
 40
0.0
 40
0.2
 40
0.2
 40
0.2
 40
0.2
 40
0.4
 40
0.4
 40
0.4
 40
0.4
 40
0.6000000000000001
 40
0.6000000000000001
 40
0.6000000000000001
 40
0.6000000000000001
 40
0.8
 40
0.8
 40
0.8
 40
0.8
 40
1.0
 40
1.0
 40
1.0
 40
1.0
 10
0.31112
 20
-2.37863
 30
0.0
 10
-0.89945
 20
-2.37863
 30
0.0
 10
-2.43698
 20
-2.25693
 30
0.0
 10
-3.43976
 20
-2.03511
 30
0.0
 10
-3.43976
 20
-2.03511
 30
0.0
 10
-3.43976
 20
-2.03511
 30
0.0
 10
0.251
 20
-6.19869
 30
0.0
 10
0.251
 20
-6.19869
 30
0.0
 10
0.251
 20
-6.19869
 30
0.0
 10
0.251
 20
-6.19869
 30
0.0
 10
4.01613
 20
-1.91992
 30
0.0
 10
4.01613
 20
-1.91992
 30
0.0
 10
4.01613
 20
-1.91992
 30
0.0
 10
3.49736
 20
-1.96309
 30
0.0
 10
2.88928
 20
-2.18043
 30
0.0
 10
2.25291
 20
-2.23856
 30
0.0
 10
2.25291
 20
-2.23856
 30
0.0
 10
1.62306
 20
-2.29609
 30
0.0
 10
1.0059
 20
-2.37863
 30
0.0
 10
0.31112
 20
-2.37863
 30
0.0
  0
SPLINE
  5
6F
330
1F
100
AcDbEntity
  8
layer 1
100
AcDbSpline
210
0.0
220
0.0
230
1.0
 70
    11
 71
     3
 72
    28
 73
    24
 74
     0
 42
0.0000000001
 43
0.0000000001
 40
0.0
 40
0.0
 40
0.0
 40
0.0
 40
0.1666666666666667
 40
0.1666666666666667
 40
0.1666666666666667
 40
0.1666666666666667
 40
0.3333333333333333
 40
0.3333333333333333
 40
0.3333333333333333
 40
0.3333333333333333
 40
0.5
 40
0.5
 40
0.5
 40
0.5
 40
0.6666666666666666
 40
0.6666666666666666
 40
0.6666666666666666
 40
0.6666666666666666
 40
0.8333333333333333
 40
0.8333333333333333
 40
0.8333333333333333
 40
0.8333333333333333
 40
1.0
 40
1.0
 40
1.0
 40
1.0
 10
-7.95789
 20
10.23026
 30
0.0
 10
-7.95789
 20
10.23026
 30
0.0
 10
-7.24005
 20
10.2184
 30
0.0
 10
-7.24005
 20
10.2184
 30
0.0
 10
-7.24005
 20
10.2184
 30
0.0
 10
-7.28676
 20
10.14863
 30
0.0
 10
-7.97081
 20
9.54066
 30
0.0
 10
-8.11342
 20
9.39805
 30
0.0
 10
-8.11342
 20
9.39805
 30
0.0
 10
-8.40809
 20
9.10339
 30
0.0
 10
-8.63532
 20
8.81365
 30
0.0
 10
-8.87025
 20
8.46117
 30
0.0
 10
-8.87025
 20
8.46117
 30
0.0
 10
-9.19423
 20
7.97507
 30
0.0
 10
-9.81591
 20
6.78153
 30
0.0
 10
-9.81591
 20
6.01939
 30
0.0
 10
-9.81591
 20
6.01939
 30
0.0
 10
-9.81591
 20
6.01939
 30
0.0
 10
-10.89
 20
7.23429
 30
0.0
 10
-10.89
 20
7.23429
 30
0.0
 10
-10.89
 20
7.23429
 30
0.0
 10
-10.89
 20
7.23429
 30
0.0
 10
-7.95789
 20
10.23026
 30
0.0
 10
-7.95789
 20
10.23026
 30
0.0
  0
SPLINE
  5
70
330
1F
100
AcDbEntity
  8
layer 1
100
AcDbSpline
210
0.0
220
0.0
230
1.0
 70
    11
 71
     3
 72
    40
 73
    36
 74
     0
 42
0.0000000001
 43
0.0000000001
 40
0.0
 40
0.0
 40
0.0
 40
0.0
 40
0.1111111111111111
 40
0.1111111111111111
 40
0.1111111111111111
 40
0.1111111111111111
 40
0.2222222222222222
 40
0.2222222222222222
 40
0.2222222222222222
 40
0.2222222222222222
 40
0.3333333333333333
 40
0.3333333333333333
 40
0.3333333333333333
 40
0.3333333333333333
 40
0.4444444444444444
 40
0.4444444444444444
 40
0.4444444444444444
 40
0.4444444444444444
 40
0.5555555555555556
 40
0.5555555555555556
 40
0.5555555555555556
 40
0.5555555555555556
 40
0.6666666666666667
 40
0.6666666666666667
 40
0.6666666666666667
 40
0.6666666666666667
 40
0.7777777777777779
 40
0.7777777777777779
 40
0.7777777777777779
 40
0.7777777777777779
 40
0.8888888888888891
 40
0.8888888888888891
 40
0.8888888888888891
 40
0.8888888888888891
 40
1.0
 40
1.0
 40
1.0
 40
1.0
 10
-11.61852
 20
7.25736
 30
0.0
 10
-11.61852
 20
7.25736
 30
0.0
 10
-9.31635
 20
4.64384
 30
0.0
 10
-9.31635
 20
4.64384
 30
0.0
 10
-9.31635
 20
4.64384
 30
0.0
 10
-9.31635
 20
4.64384
 30
0.0
 10
-9.35719
 20
5.10196
 30
0.0
 10
-9.35719
 20
5.10196
 30
0.0
 10
-9.35719
 20
5.10196
 30
0.0
 10
-9.35719
 20
5.10196
 30
0.0
 10
-9.35719
 20
5.13724
 30
0.0
 10
-9.35719
 20
5.13724
 30
0.0
 10
-9.35719
 20
5.13724
 30
0.0
 10
-9.35719
 20
6.78876
 30
0.0
 10
-8.74777
 20
7.71824
 30
0.0
 10
-8.05165
 20
8.66585
 30
0.0
 10
-8.05165
 20
8.66585
 30
0.0
 10
-7.74231
 20
9.08696
 30
0.0
 10
-7.25261
 20
9.51667
 30
0.0
 10
-6.82628
 20
9.83992
 30
0.0
 10
-6.82628
 20
9.83992
 30
0.0
 10
-6.61945
 20
9.99675
 30
0.0
 10
-6.33754
 20
10.21121
 30
0.0
 10
-6.11139
 20
10.32474
 30
0.0
 10
-6.11139
 20
10.32474
 30
0.0
 10
-6.00267
 20
10.37932
 30
0.0
 10
-5.34793
 20
10.70544
 30
0.0
 10
-5.29933
 20
10.74768
 30
0.0
 10
-5.29933
 20
10.74768
 30
0.0
 10
-5.29933
 20
10.74768
 30
0.0
 10
-8.19534
 20
10.75021
 30
0.0
 10
-8.19534
 20
10.75021
 30
0.0
 10
-8.19534
 20
10.75021
 30
0.0
 10
-8.19534
 20
10.75021
 30
0.0
 10
-11.61852
 20
7.25736
 30
0.0
 10
-11.61852
 20
7.25736
 30
0.0
  0
SPLINE
  5
71
330
1F
100
AcDbEntity
  8
layer 1
 62
     2
100
AcDbSpline
210
0.0
220
0.0
230
1.0
 70
    11
 71
     3
 72
    20
 73
    16
 74
     0
 42
0.0000000001
 43
0.0000000001
 40
0.0
 40
0.0
 40
0.0
 40
0.0
 40
0.25
 40
0.25
 40
0.25
 40
0.25
 40
0.5
 40
0.5
 40
0.5
 40
0.5
 40
0.75
 40
0.75
 40
0.75
 40
0.75
 40
1.0
 40
1.0
 40
1.0
 40
1.0
 10
2.57935
 20
-2.74023
 30
0.0
 10
2.57935
 20
-2.74023
 30
0.0
 10
0.24205
 20
-2.92803
 30
0.0
 10
0.24205
 20
-2.92803
 30
0.0
 10
0.24205
 20
-2.92803
 30
0.0
 10
0.24205
 20
-2.92803
 30
0.0
 10
-2.05446
 20
-2.79042
 30
0.0
 10
-2.05446
 20
-2.79042
 30
0.0
 10
-2.05446
 20
-2.79042
 30
0.0
 10
-2.05446
 20
-2.79042
 30
0.0
 10
0.25115
 20
-5.38725
 30
0.0
 10
0.25115
 20
-5.38725
 30
0.0
 10
0.25115
 20
-5.38725
 30
0.0
 10
0.25115
 20
-5.38725
 30
0.0
 10
2.57935
 20
-2.74023
 30
0.0
 10
2.57935
 20
-2.74023
 30
0.0
  0
SPLINE
  5
72
330
1F
100
AcDbEntity
  8
layer 1
 62
     2
100
AcDbSpline
210
0.0
220
0.0
230
1.0
 70
    11
 71
     3
 72
    28
 73
    24
 74
     0
 42
0.0000000001
 43
0.0000000001
 40
0.0
 40
0.0
 40
0.0
 40
0.0
 40
0.1666666666666667
 40
0.1666666666666667
 40
0.1666666666666667
 40
0.1666666666666667
 40
0.3333333333333333
 40
0.3333333333333333
 40
0.3333333333333333
 40
0.3333333333333333
 40
0.5
 40
0.5
 40
0.5
 40
0.5
 40
0.6666666666666666
 40
0.6666666666666666
 40
0.6666666666666666
 40
0.6666666666666666
 40
0.8333333333333333
 40
0.8333333333333333
 40
0.8333333333333333
 40
0.8333333333333333
 40
1.0
 40
1.0
 40
1.0
 40
1.0
 10
-10.89
 20
7.23429
 30
0.0
 10
-10.89
 20
7.23429
 30
0.0
 10
-9.81591
 20
6.01939
 30
0.0
 10
-9.81591
 20
6.01939
 30
0.0
 10
-9.81591
 20
6.01939
 30
0.0
 10
-9.81591
 20
6.78153
 30
0.0
 10
-9.19423
 20
7.97507
 30
0.0
 10
-8.87025
 20
8.46117
 30
0.0
 10
-8.87025
 20
8.46117
 30
0.0
 10
-8.63532
 20
8.81365
 30
0.0
 10
-8.40809
 20
9.10339
 30
0.0
 10
-8.11342
 20
9.39805
 30
0.0
 10
-8.11342
 20
9.39805
 30
0.0
 10
-7.97081
 20
9.54066
 30
0.0
 10
-7.28676
 20
10.14863
 30
0.0
 10
-7.24005
 20
10.2184
 30
0.0
 10
-7.24005
 20
10.2184
 30
0.0
 10
-7.24005
 20
10.2184
 30
0.0
 10
-7.95789
 20
10.23026
 30
0.0
 10
-7.95789
 20
10.23026
 30
0.0
 10
-7.95789
 20
10.23026
 30
0.0
 10
-7.95789
 20
10.23026
 30
0.0
 10
-10.89
 20
7.23429
 30
0.0
 10
-10.89
 20
7.23429
 30
0.0
  0
SPLINE
  5
73
330
1F
100
AcDbEntity
  8
layer 1
100
AcDbSpline
210
0.0
220
0.0
230
1.0
 70
    11
 71
     3
 72
    16
 73
    12
 74
     0
 42
0.0000000001
 43
0.0000000001
 40
0.0
 40
0.0
 40
0.0
 40
0.0
 40
0.3333333333333333
 40
0.3333333333333333
 40
0.3333333333333333
 40
0.3333333333333333
 40
0.6666666666666666
 40
0.6666666666666666
 40
0.6666666666666666
 40
0.6666666666666666
 40
1.0
 40
1.0
 40
1.0
 40
1.0
 10
6.13834
 20
9.73545
 30
0.0
 10
6.13834
 20
9.73545
 30
0.0
 10
5.76265
 20
10.20416
 30
0.0
 10
5.76265
 20
10.20416
 30
0.0
 10
5.76265
 20
10.20416
 30
0.0
 10
5.76265
 20
10.20416
 30
0.0
 10
6.3097
 20
10.2184
 30
0.0
 10
6.3097
 20
10.2184
 30
0.0
 10
6.3097
 20
10.2184
 30
0.0
 10
6.3097
 20
10.2184
 30
0.0
 10
6.13834
 20
9.73545
 30
0.0
 10
6.13834
 20
9.73545
 30
0.0
  0
SPLINE
  5
74
330
1F
100
AcDbEntity
  8
layer 1
100
AcDbSpline
210
0.0
220
0.0
230
1.0
 70
    11
 71
     3
 72
    16
 73
    12
 74
     0
 42
0.0000000001
 43
0.0000000001
 40
0.0
 40
0.0
 40
0.0
 40
0.0
 40
0.3333333333333333
 40
0.3333333333333333
 40
0.3333333333333333
 40
0.3333333333333333
 40
0.6666666666666666
 40
0.6666666666666666
 40
0.6666666666666666
 40
0.6666666666666666
 40
1.0
 40
1.0
 40
1.0
 40
1.0
 10
5.99213
 20
8.87754
 30
0.0
 10
6.54615
 20
9.02547
 30
0.0
 10
6.90956
 20
9.97985
 30
0.0
 10
6.90956
 20
10.74768
 30
0.0
 10
6.90956
 20
10.74768
 30
0.0
 10
6.90956
 20
10.74768
 30
0.0
 10
4.51013
 20
10.74768
 30
0.0
 10
4.51013
 20
10.74768
 30
0.0
 10
4.51013
 20
10.74768
 30
0.0
 10
4.83428
 20
10.26361
 30
0.0
 10
5.83461
 20
9.55367
 30
0.0
 10
5.99213
 20
8.87754
 30
0.0
  0
SPLINE
  5
75
330
1F
100
AcDbEntity
  8
layer 1
 62
    16
100
AcDbSpline
210
0.0
220
0.0
230
1.0
 70
    11
 71
     3
 72
    24
 73
    20
 74
     0
 42
0.0000000001
 43
0.0000000001
 40
0.0
 40
0.0
 40
0.0
 40
0.0
 40
0.2
 40
0.2
 40
0.2
 40
0.2
 40
0.4
 40
0.4
 40
0.4
 40
0.4
 40
0.6000000000000001
 40
0.6000000000000001
 40
0.6000000000000001
 40
0.6000000000000001
 40
0.8
 40
0.8
 40
0.8
 40
0.8
 40
1.0
 40
1.0
 40
1.0
 40
1.0
 10
4.8277
 20
7.07796
 30
0.0
 10
4.8277
 20
7.07796
 30
0.0
 10
8.92018
 20
7.04268
 30
0.0
 10
8.92018
 20
7.04268
 30
0.0
 10
8.92018
 20
7.04268
 30
0.0
 10
8.92018
 20
7.04268
 30
0.0
 10
8.95614
 20
10.43011
 30
0.0
 10
8.95614
 20
10.43011
 30
0.0
 10
8.95614
 20
10.43011
 30
0.0
 10
8.95614
 20
10.43011
 30
0.0
 10
8.88557
 20
10.4654
 30
0.0
 10
8.88557
 20
10.4654
 30
0.0
 10
8.88557
 20
10.4654
 30
0.0
 10
8.88557
 20
10.4654
 30
0.0
 10
8.88557
 20
7.07796
 30
0.0
 10
8.88557
 20
7.07796
 30
0.0
 10
8.88557
 20
7.07796
 30
0.0
 10
8.88557
 20
7.07796
 30
0.0
 10
4.8277
 20
7.07796
 30
0.0
 10
4.8277
 20
7.07796
 30
0.0
  0
SPLINE
  5
76
330
1F
100
AcDbEntity
  8
layer 1
 62
     2
100
AcDbSpline
210
0.0
220
0.0
230
1.0
 70
    11
 71
     3
 72
    16
 73
    12
 74
     0
 42
0.0000000001
 43
0.0000000001
 40
0.0
 40
0.0
 40
0.0
 40
0.0
 40
0.3333333333333333
 40
0.3333333333333333
 40
0.3333333333333333
 40
0.3333333333333333
 40
0.6666666666666666
 40
0.6666666666666666
 40
0.6666666666666666
 40
0.6666666666666666
 40
1.0
 40
1.0
 40
1.0
 40
1.0
 10
6.13834
 20
9.73545
 30
0.0
 10
6.13834
 20
9.73545
 30
0.0
 10
6.3097
 20
10.2184
 30
0.0
 10
6.3097
 20
10.2184
 30
0.0
 10
6.3097
 20
10.2184
 30
0.0
 10
6.3097
 20
10.2184
 30
0.0
 10
5.76265
 20
10.20416
 30
0.0
 10
5.76265
 20
10.20416
 30
0.0
 10
5.76265
 20
10.20416
 30
0.0
 10
5.76265
 20
10.20416
 30
0.0
 10
6.13834
 20
9.73545
 30
0.0
 10
6.13834
 20
9.73545
 30
0.0
  0
ENDSEC
  0
SECTION
  2
OBJECTS
  0
DICTIONARY
  5
C
330
0
100
AcDbDictionary
281
     1
  3
ACAD_GROUP
350
D
  3
ACAD_LAYOUT
350
1A
  3
ACAD_MLEADERSTYLE
350
78
  3
ACAD_MLINESTYLE
350
17
  3
ACAD_PLOTSETTINGS
350
19
  3
ACAD_PLOTSTYLENAME
350
E
  3
ACAD_SCALELIST
350
3B
  3
ACAD_TABLESTYLE
350
77
  3
ACAD_VISUALSTYLE
350
2A
  0
DICTIONARY
  5
D
102
{ACAD_REACTORS
330
C
102
}
330
C
100
AcDbDictionary
281
     1
  0
DICTIONARY
  5
1A
102
{ACAD_REACTORS
330
C
102
}
330
C
100
AcDbDictionary
281
     1
  3
Layout1
350
1E
  3
Layout2
350
26
  3
Model
350
22
  0
DICTIONARY
  5
78
102
{ACAD_REACTORS
330
C
102
}
330
C
100
AcDbDictionary
281
     1
  0
DICTIONARY
  5
17
102
{ACAD_REACTORS
330
C
102
}
330
C
100
AcDbDictionary
281
     1
  3
Standard
350
18
  0
DICTIONARY
  5
19
102
{ACAD_REACTORS
330
C
102
}
330
C
100
AcDbDictionary
281
     1
  0
ACDBDICTIONARYWDFLT
  5
E
102
{ACAD_REACTORS
330
C
102
}
330
C
100
AcDbDictionary
281
     1
  3
Normal
350
F
100
AcDbDictionaryWithDefault
340
F
  0
DICTIONARY
  5
3B
102
{ACAD_REACTORS
330
C
102
}
330
C
100
AcDbDictionary
281
     1
  3
A0
350
3C
  3
A1
350
3D
  3
A2
350
3E
  3
A3
350
3F
  3
A4
350
40
  3
A5
350
41
  3
A6
350
42
  3
A7
350
43
  3
A8
350
44
  3
A9
350
45
  3
B0
350
46
  3
B1
350
47
  3
B2
350
48
  3
B3
350
49
  3
B4
350
4A
  3
B5
350
4B
  3
B6
350
4C
  3
B7
350
4D
  3
B8
350
4E
  3
B9
350
4F
  3
C0
350
50
  3
C1
350
51
  3
C2
350
52
  3
C3
350
53
  3
C4
350
54
  3
C5
350
55
  3
C6
350
56
  3
C7
350
57
  3
C8
350
58
  3
C9
350
59
  3
D0
350
5A
  3
D1
350
5B
  3
D2
350
5C
  0
DICTIONARY
  5
77
102
{ACAD_REACTORS
330
C
102
}
330
C
100
AcDbDictionary
281
     1
  0
DICTIONARY
  5
2A
102
{ACAD_REACTORS
330
C
102
}
330
C
100
AcDbDictionary
281
     1
  3
2dWireframe
350
2F
  3
3D Hidden
350
31
  3
3dWireframe
350
30
  3
Basic
350
32
  3
Brighten
350
36
  3
ColorChange
350
3A
  3
Conceptual
350
34
  3
Dim
350
35
  3
Facepattern
350
39
  3
Flat
350
2B
  3
FlatWithEdges
350
2C
  3
Gouraud
350
2D
  3
GouraudWithEdges
350
2E
  3
Linepattern
350
38
  3
Realistic
350
33
  3
Thicken
350
37
  0
LAYOUT
  5
1E
102
{ACAD_REACTORS
330
1A
102
}
330
1A
100
AcDbPlotSettings
  1

  2
none_device
  4

  6

 40
0.0
 41
0.0
 42
0.0
 43
0.0
 44
0.0
 45
0.0
 46
0.0
 47
0.0
 48
0.0
 49
0.0
140
0.0
141
0.0
142
1.0
143
1.0
 70
   688
 72
     0
 73
     0
 74
     5
  7

 75
    16
 76
     0
 77
     2
 78
   300
147
1.0
148
0.0
149
0.0
100
AcDbLayout
  1
Layout1
 70
     1
 71
     1
 10
0.0
 20
0.0
 11
12.0
 21
9.0
 12
0.0
 22
0.0
 32
0.0
 14
1.000000000000000E+20
 24
1.000000000000000E+20
 34
1.000000000000000E+20
 15
-1.000000000000000E+20
 25
-1.000000000000000E+20
 35
-1.000000000000000E+20
146
0.0
 13
0.0
 23
0.0
 33
0.0
 16
1.0
 26
0.0
 36
0.0
 17
0.0
 27
1.0
 37
0.0
 76
     0
330
1B
  0
LAYOUT
  5
26
102
{ACAD_REACTORS
330
1A
102
}
330
1A
100
AcDbPlotSettings
  1

  2
none_device
  4

  6

 40
0.0
 41
0.0
 42
0.0
 43
0.0
 44
0.0
 45
0.0
 46
0.0
 47
0.0
 48
0.0
 49
0.0
140
0.0
141
0.0
142
1.0
143
1.0
 70
   688
 72
     0
 73
     0
 74
     5
  7

 75
    16
 76
     0
 77
     2
 78
   300
147
1.0
148
0.0
149
0.0
100
AcDbLayout
  1
Layout2
 70
     1
 71
     2
 10
0.0
 20
0.0
 11
0.0
 21
0.0
 12
0.0
 22
0.0
 32
0.0
 14
0.0
 24
0.0
 34
0.0
 15
0.0
 25
0.0
 35
0.0
146
0.0
 13
0.0
 23
0.0
 33
0.0
 16
1.0
 26
0.0
 36
0.0
 17
0.0
 27
1.0
 37
0.0
 76
     0
330
23
  0
LAYOUT
  5
22
102
{ACAD_REACTORS
330
1A
102
}
330
1A
100
AcDbPlotSettings
  1

  2
none_device
  4

  6

 40
0.0
 41
0.0
 42
0.0
 43
0.0
 44
0.0
 45
0.0
 46
0.0
 47
0.0
 48
0.0
 49
0.0
140
0.0
141
0.0
142
1.0
143
1.0
 70
  1712
 72
     0
 73
     0
 74
     0
  7

 75
     0
 76
     0
 77
     2
 78
   300
147
1.0
148
0.0
149
0.0
100
AcDbLayout
  1
Model
 70
     1
 71
     0
 10
0.0
 20
0.0
 11
12.0
 21
9.0
 12
0.0
 22
0.0
 32
0.0
 14
-13.94435
 24
-9.07877
 34
0.0
 15
14.39015
 25
12.30026
 35
0.0
146
0.0
 13
0.0
 23
0.0
 33
0.0
 16
1.0
 26
0.0
 36
0.0
 17
0.0
 27
1.0
 37
0.0
 76
     0
330
1F
331
29
  0
MLINESTYLE
  5
18
102
{ACAD_REACTORS
330
17
102
}
330
17
100
AcDbMlineStyle
  2
Standard
 70
     0
  3

 62
   256
 51
90.0
 52
90.0
 71
     2
 49
0.5
 62
   256
  6
BYLAYER
 49
-0.5
 62
   256
  6
BYLAYER
  0
ACDBPLACEHOLDER
  5
F
102
{ACAD_REACTORS
330
E
102
}
330
E
  0
SCALE
  5
3C
102
{ACAD_REACTORS
330
3B
102
}
330
3B
100
AcDbScale
 70
     0
300
1:1
140
1.0
141
1.0
290
     1
  0
SCALE
  5
3D
102
{ACAD_REACTORS
330
3B
102
}
330
3B
100
AcDbScale
 70
     0
300
1:2
140
1.0
141
2.0
290
     0
  0
SCALE
  5
3E
102
{ACAD_REACTORS
330
3B
102
}
330
3B
100
AcDbScale
 70
     0
300
1:4
140
1.0
141
4.0
290
     0
  0
SCALE
  5
3F
102
{ACAD_REACTORS
330
3B
102
}
330
3B
100
AcDbScale
 70
     0
300
1:5
140
1.0
141
5.0
290
     0
  0
SCALE
  5
40
102
{ACAD_REACTORS
330
3B
102
}
330
3B
100
AcDbScale
 70
     0
300
1:8
140
1.0
141
8.0
290
     0
  0
SCALE
  5
41
102
{ACAD_REACTORS
330
3B
102
}
330
3B
100
AcDbScale
 70
     0
300
1:10
140
1.0
141
10.0
290
     0
  0
SCALE
  5
42
102
{ACAD_REACTORS
330
3B
102
}
330
3B
100
AcDbScale
 70
     0
300
1:16
140
1.0
141
16.0
290
     0
  0
SCALE
  5
43
102
{ACAD_REACTORS
330
3B
102
}
330
3B
100
AcDbScale
 70
     0
300
1:20
140
1.0
141
20.0
290
     0
  0
SCALE
  5
44
102
{ACAD_REACTORS
330
3B
102
}
330
3B
100
AcDbScale
 70
     0
300
1:30
140
1.0
141
30.0
290
     0
  0
SCALE
  5
45
102
{ACAD_REACTORS
330
3B
102
}
330
3B
100
AcDbScale
 70
     0
300
1:40
140
1.0
141
40.0
290
     0
  0
SCALE
  5
46
102
{ACAD_REACTORS
330
3B
102
}
330
3B
100
AcDbScale
 70
     0
300
1:50
140
1.0
141
50.0
290
     0
  0
SCALE
  5
47
102
{ACAD_REACTORS
330
3B
102
}
330
3B
100
AcDbScale
 70
     0
300
1:100
140
1.0
141
100.0
290
     0
  0
SCALE
  5
48
102
{ACAD_REACTORS
330
3B
102
}
330
3B
100
AcDbScale
 70
     0
300
2:1
140
2.0
141
1.0
290
     0
  0
SCALE
  5
49
102
{ACAD_REACTORS
330
3B
102
}
330
3B
100
AcDbScale
 70
     0
300
4:1
140
4.0
141
1.0
290
     0
  0
SCALE
  5
4A
102
{ACAD_REACTORS
330
3B
102
}
330
3B
100
AcDbScale
 70
     0
300
8:1
140
8.0
141
1.0
290
     0
  0
SCALE
  5
4B
102
{ACAD_REACTORS
330
3B
102
}
330
3B
100
AcDbScale
 70
     0
300
10:1
140
10.0
141
1.0
290
     0
  0
SCALE
  5
4C
102
{ACAD_REACTORS
330
3B
102
}
330
3B
100
AcDbScale
 70
     0
300
100:1
140
100.0
141
1.0
290
     0
  0
SCALE
  5
4D
102
{ACAD_REACTORS
330
3B
102
}
330
3B
100
AcDbScale
 70
     0
300
1/128\" = 1\'-0\"
140
0.0078125
141
12.0
290
     0
  0
SCALE
  5
4E
102
{ACAD_REACTORS
330
3B
102
}
330
3B
100
AcDbScale
 70
     0
300
1/64\" = 1\'-0\"
140
0.015625
141
12.0
290
     0
  0
SCALE
  5
4F
102
{ACAD_REACTORS
330
3B
102
}
330
3B
100
AcDbScale
 70
     0
300
1/32\" = 1\'-0\"
140
0.03125
141
12.0
290
     0
  0
SCALE
  5
50
102
{ACAD_REACTORS
330
3B
102
}
330
3B
100
AcDbScale
 70
     0
300
1/16\" = 1\'-0\"
140
0.0625
141
12.0
290
     0
  0
SCALE
  5
51
102
{ACAD_REACTORS
330
3B
102
}
330
3B
100
AcDbScale
 70
     0
300
3/32\" = 1\'-0\"
140
0.09375
141
12.0
290
     0
  0
SCALE
  5
52
102
{ACAD_REACTORS
330
3B
102
}
330
3B
100
AcDbScale
 70
     0
300
1/8\" = 1\'-0\"
140
0.125
141
12.0
290
     0
  0
SCALE
  5
53
102
{ACAD_REACTORS
330
3B
102
}
330
3B
100
AcDbScale
 70
     0
300
3/16\" = 1\'-0\"
140
0.1875
141
12.0
290
     0
  0
SCALE
  5
54
102
{ACAD_REACTORS
330
3B
102
}
330
3B
100
AcDbScale
 70
     0
300
1/4\" = 1\'-0\"
140
0.25
141
12.0
290
     0
  0
SCALE
  5
55
102
{ACAD_REACTORS
330
3B
102
}
330
3B
100
AcDbScale
 70
     0
300
3/8\" = 1\'-0\"
140
0.375
141
12.0
290
     0
  0
SCALE
  5
56
102
{ACAD_REACTORS
330
3B
102
}
330
3B
100
AcDbScale
 70
     0
300
1/2\" = 1\'-0\"
140
0.5
141
12.0
290
     0
  0
SCALE
  5
57
102
{ACAD_REACTORS
330
3B
102
}
330
3B
100
AcDbScale
 70
     0
300
3/4\" = 1\'-0\"
140
0.75
141
12.0
290
     0
  0
SCALE
  5
58
102
{ACAD_REACTORS
330
3B
102
}
330
3B
100
AcDbScale
 70
     0
300
1\" = 1\'-0\"
140
1.0
141
12.0
290
     0
  0
SCALE
  5
59
102
{ACAD_REACTORS
330
3B
102
}
330
3B
100
AcDbScale
 70
     0
300
1-1/2\" = 1\'-0\"
140
1.5
141
12.0
290
     0
  0
SCALE
  5
5A
102
{ACAD_REACTORS
330
3B
102
}
330
3B
100
AcDbScale
 70
     0
300
3\" = 1\'-0\"
140
3.0
141
12.0
290
     0
  0
SCALE
  5
5B
102
{ACAD_REACTORS
330
3B
102
}
330
3B
100
AcDbScale
 70
     0
300
6\" = 1\'-0\"
140
6.0
141
12.0
290
     0
  0
SCALE
  5
5C
102
{ACAD_REACTORS
330
3B
102
}
330
3B
100
AcDbScale
 70
     0
300
1\'-0\" = 1\'-0\"
140
12.0
141
12.0
290
     0
  0
VISUALSTYLE
  5
2F
102
{ACAD_REACTORS
330
2A
102
}
330
2A
100
AcDbVisualStyle
  2
2dWireframe
 70
     4
 71
     0
 72
     2
 73
     0
 90
        0
 40
-0.6
 41
-30.0
 62
     5
 63
     7
421
 16777215
 74
     1
 91
        4
 64
     7
 65
   257
 75
     1
175
     1
 42
1.0
 92
        0
 66
   257
 43
1.0
 76
     1
 77
     6
 78
     2
 67
     7
 79
     5
170
     0
171
     0
290
     0
174
     0
 93
        1
 44
0.0
173
     0
291
     0
 45
0.0
  0
VISUALSTYLE
  5
31
102
{ACAD_REACTORS
330
2A
102
}
330
2A
100
AcDbVisualStyle
  2
3D Hidden
 70
     6
 71
     1
 72
     2
 73
     2
 90
        0
 40
-0.6
 41
-30.0
 62
     5
 63
     7
421
 16777215
 74
     2
 91
        2
 64
     7
 65
   257
 75
     2
175
     1
 42
40.0
 92
        0
 66
   257
 43
1.0
 76
     1
 77
     6
 78
     2
 67
     7
 79
     3
170
     0
171
     0
290
     0
174
     0
 93
        1
 44
0.0
173
     0
291
     0
 45
0.0
  0
VISUALSTYLE
  5
30
102
{ACAD_REACTORS
330
2A
102
}
330
2A
100
AcDbVisualStyle
  2
3dWireframe
 70
     5
 71
     0
 72
     2
 73
     0
 90
        0
 40
-0.6
 41
-30.0
 62
     5
 63
     7
421
 16777215
 74
     1
 91
        4
 64
     7
 65
   257
 75
     1
175
     1
 42
1.0
 92
        0
 66
   257
 43
1.0
 76
     1
 77
     6
 78
     2
 67
     7
 79
     5
170
     0
171
     0
290
     0
174
     0
 93
        1
 44
0.0
173
     0
291
     0
 45
0.0
  0
VISUALSTYLE
  5
32
102
{ACAD_REACTORS
330
2A
102
}
330
2A
100
AcDbVisualStyle
  2
Basic
 70
     7
 71
     1
 72
     0
 73
     1
 90
        0
 40
-0.6
 41
-30.0
 62
     5
 63
     7
421
 16777215
 74
     0
 91
        4
 64
     7
 65
   257
 75
     1
175
     1
 42
1.0
 92
        8
 66
     7
 43
1.0
 76
     1
 77
     6
 78
     2
 67
     7
 79
     5
170
     0
171
     0
290
     0
174
     0
 93
        1
 44
0.0
173
     0
291
     1
 45
0.0
  0
VISUALSTYLE
  5
36
102
{ACAD_REACTORS
330
2A
102
}
330
2A
100
AcDbVisualStyle
  2
Brighten
 70
    12
 71
     2
 72
     2
 73
     0
 90
        0
 40
-0.6
 41
-30.0
 62
     5
 63
     7
421
 16777215
 74
     1
 91
        4
 64
     7
 65
   257
 75
     1
175
     1
 42
1.0
 92
        8
 66
     7
 43
1.0
 76
     1
 77
     6
 78
     2
 67
     7
 79
     5
170
     0
171
     0
290
     0
174
     0
 93
        1
 44
50.0
173
     0
291
     1
 45
0.0
  0
VISUALSTYLE
  5
3A
102
{ACAD_REACTORS
330
2A
102
}
330
2A
100
AcDbVisualStyle
  2
ColorChange
 70
    16
 71
     2
 72
     2
 73
     3
 90
        0
 40
-0.6
 41
-30.0
 62
     5
 63
     8
421
  8421504
 74
     1
 91
        4
 64
     7
 65
   257
 75
     1
175
     1
 42
1.0
 92
        8
 66
     8
424
  8421504
 43
1.0
 76
     1
 77
     6
 78
     2
 67
     7
 79
     5
170
     0
171
     0
290
     0
174
     0
 93
        1
 44
0.0
173
     0
291
     1
 45
0.0
  0
VISUALSTYLE
  5
34
102
{ACAD_REACTORS
330
2A
102
}
330
2A
100
AcDbVisualStyle
  2
Conceptual
 70
     9
 71
     3
 72
     2
 73
     0
 90
        0
 40
-0.6
 41
-30.0
 62
     5
 63
     7
421
 16777215
 74
     2
 91
        2
 64
     7
 65
   257
 75
     1
175
     1
 42
40.0
 92
        8
 66
     7
 43
1.0
 76
     1
 77
     6
 78
     2
 67
     7
 79
     3
170
     0
171
     0
290
     0
174
     0
 93
        1
 44
0.0
173
     0
291
     0
 45
0.0
  0
VISUALSTYLE
  5
35
102
{ACAD_REACTORS
330
2A
102
}
330
2A
100
AcDbVisualStyle
  2
Dim
 70
    11
 71
     2
 72
     2
 73
     0
 90
        0
 40
-0.6
 41
-30.0
 62
     5
 63
     7
421
 16777215
 74
     1
 91
        4
 64
     7
 65
   257
 75
     1
175
     1
 42
1.0
 92
        8
 66
     7
 43
1.0
 76
     1
 77
     6
 78
     2
 67
     7
 79
     5
170
     0
171
     0
290
     0
174
     0
 93
        1
 44
-50.0
173
     0
291
     1
 45
0.0
  0
VISUALSTYLE
  5
39
102
{ACAD_REACTORS
330
2A
102
}
330
2A
100
AcDbVisualStyle
  2
Facepattern
 70
    15
 71
     2
 72
     2
 73
     0
 90
        0
 40
-0.6
 41
-30.0
 62
     5
 63
     7
421
 16777215
 74
     1
 91
        4
 64
     7
 65
   257
 75
     1
175
     1
 42
1.0
 92
        8
 66
     7
 43
1.0
 76
     1
 77
     6
 78
     2
 67
     7
 79
     5
170
     0
171
     0
290
     0
174
     0
 93
        1
 44
0.0
173
     0
291
     1
 45
0.0
  0
VISUALSTYLE
  5
2B
102
{ACAD_REACTORS
330
2A
102
}
330
2A
100
AcDbVisualStyle
  2
Flat
 70
     0
 71
     2
 72
     1
 73
     1
 90
        2
 40
-0.6
 41
30.0
 62
     5
 63
     7
421
 16777215
 74
     0
 91
        4
 64
     7
 65
   257
 75
     1
175
     1
 42
1.0
 92
        8
 66
     7
 43
1.0
 76
     1
 77
     6
 78
     2
 67
     7
 79
     5
170
     0
171
     0
290
     0
174
     0
 93
       13
 44
0.0
173
     0
291
     1
 45
0.0
  0
VISUALSTYLE
  5
2C
102
{ACAD_REACTORS
330
2A
102
}
330
2A
100
AcDbVisualStyle
  2
FlatWithEdges
 70
     1
 71
     2
 72
     1
 73
     1
 90
        2
 40
-0.6
 41
30.0
 62
     5
 63
     7
421
 16777215
 74
     1
 91
        4
 64
     7
 65
   257
 75
     1
175
     1
 42
1.0
 92
        0
 66
   257
 43
1.0
 76
     1
 77
     6
 78
     2
 67
     7
 79
     5
170
     0
171
     0
290
     0
174
     0
 93
       13
 44
0.0
173
     0
291
     1
 45
0.0
  0
VISUALSTYLE
  5
2D
102
{ACAD_REACTORS
330
2A
102
}
330
2A
100
AcDbVisualStyle
  2
Gouraud
 70
     2
 71
     2
 72
     2
 73
     1
 90
        2
 40
-0.6
 41
30.0
 62
     5
 63
     7
421
 16777215
 74
     0
 91
        4
 64
     7
 65
   257
 75
     1
175
     1
 42
1.0
 92
        0
 66
     7
 43
1.0
 76
     1
 77
     6
 78
     2
 67
     7
 79
     5
170
     0
171
     0
290
     0
174
     0
 93
       13
 44
0.0
173
     0
291
     1
 45
0.0
  0
VISUALSTYLE
  5
2E
102
{ACAD_REACTORS
330
2A
102
}
330
2A
100
AcDbVisualStyle
  2
GouraudWithEdges
 70
     3
 71
     2
 72
     2
 73
     1
 90
        2
 40
-0.6
 41
30.0
 62
     5
 63
     7
421
 16777215
 74
     1
 91
        4
 64
     7
 65
   257
 75
     1
175
     1
 42
1.0
 92
        0
 66
   257
 43
1.0
 76
     1
 77
     6
 78
     2
 67
     7
 79
     5
170
     0
171
     0
290
     0
174
     0
 93
       13
 44
0.0
173
     0
291
     1
 45
0.0
  0
VISUALSTYLE
  5
38
102
{ACAD_REACTORS
330
2A
102
}
330
2A
100
AcDbVisualStyle
  2
Linepattern
 70
    14
 71
     2
 72
     2
 73
     0
 90
        0
 40
-0.6
 41
-30.0
 62
     5
 63
     7
421
 16777215
 74
     1
 91
        4
 64
     7
 65
   257
 75
     7
175
     7
 42
1.0
 92
        8
 66
     7
 43
1.0
 76
     1
 77
     6
 78
     2
 67
     7
 79
     5
170
     0
171
     0
290
     0
174
     0
 93
        1
 44
0.0
173
     0
291
     1
 45
0.0
  0
VISUALSTYLE
  5
33
102
{ACAD_REACTORS
330
2A
102
}
330
2A
100
AcDbVisualStyle
  2
Realistic
 70
     8
 71
     2
 72
     2
 73
     0
 90
        0
 40
-0.6
 41
-30.0
 62
     5
 63
     7
421
 16777215
 74
     1
 91
        0
 64
     7
 65
   257
 75
     1
175
     1
 42
1.0
 92
        8
 66
     8
424
  7895160
 43
1.0
 76
     1
 77
     6
 78
     2
 67
     7
 79
     5
170
     0
171
     0
290
     0
174
     0
 93
       13
 44
0.0
173
     0
291
     0
 45
0.0
  0
VISUALSTYLE
  5
37
102
{ACAD_REACTORS
330
2A
102
}
330
2A
100
AcDbVisualStyle
  2
Thicken
 70
    13
 71
     2
 72
     2
 73
     0
 90
        0
 40
-0.6
 41
-30.0
 62
     5
 63
     7
421
 16777215
 74
     1
 91
        4
 64
     7
 65
   257
 75
     1
175
     1
 42
1.0
 92
       12
 66
     7
 43
1.0
 76
     1
 77
     6
 78
     2
 67
     7
 79
     5
170
     0
171
     0
290
     0
174
     0
 93
        1
 44
0.0
173
     0
291
     1
 45
0.0
  0
ENDSEC
  0
EOF
